<svg width="244" height="64" viewBox="0 0 244 64" fill="none" xmlns="http://www.w3.org/2000/svg">
<path d="M225.147 10.1501H18.4512V51.5301H225.147V10.1501Z" fill="#EDE290"/>
<mask id="mask0_5032_8687" style="mask-type:luminance" maskUnits="userSpaceOnUse" x="18" y="10" width="208" height="42">
<path d="M225.147 10.1501H18.4512V51.5301H225.147V10.1501Z" fill="white"/>
</mask>
<g mask="url(#mask0_5032_8687)">
<path opacity="0.55" d="M240.793 27.0007H13.1323V73.2685H240.793V27.0007Z" fill="url(#paint0_linear_5032_8687)" style="mix-blend-mode:color-dodge"/>
<path d="M19.896 23.4602C25.3056 16.4215 41.0246 13.5034 53.5803 15.5213C58.5711 16.3249 57.7575 24.3 57.7575 24.3L72.4382 9.91455L20.9342 10.1502L19.896 23.4602Z" fill="url(#paint1_linear_5032_8687)" style="mix-blend-mode:multiply"/>
<path d="M223.368 23.4602C217.959 16.4215 202.24 13.5034 189.684 15.5213C184.693 16.3249 185.507 24.3 185.507 24.3L170.826 9.91455L222.33 10.1502L223.368 23.4602Z" fill="url(#paint2_linear_5032_8687)" style="mix-blend-mode:multiply"/>
<path d="M176.94 9.06274H63.5073V12.6515H176.94V9.06274Z" fill="#CBA75C"/>
</g>
<path d="M52.8584 51.3006C50.0352 51.6087 44.1459 51.6752 38.0016 51.6449C26.988 51.5906 18.0933 42.685 18.0933 31.7253C18.0933 20.7656 26.9941 11.8661 38.0016 11.8056C44.1398 11.7754 50.0291 11.8419 52.8584 12.15C60.1198 12.9415 59.1423 19.7687 59.1423 19.7687L72.4388 9.90853C55.6695 9.90853 42.4337 8.88143 33.2234 7.81808C32.4159 7.72745 31.3594 10.1381 31.3594 10.1381C31.3594 10.1381 29.3498 7.34078 28.6273 7.24411C21.718 6.31368 18.0873 5.49805 18.0873 5.49805L9.60547 31.7253L18.0873 57.9525C18.0873 57.9525 37.6677 53.5421 72.4327 53.5421L59.1362 43.6819C59.1362 43.6819 60.1138 50.5151 52.8523 51.3006H52.8584Z" fill="url(#paint3_linear_5032_8687)"/>
<mask id="mask1_5032_8687" style="mask-type:luminance" maskUnits="userSpaceOnUse" x="9" y="5" width="64" height="53">
<path d="M52.8584 51.3006C50.0352 51.6087 44.1459 51.6752 38.0016 51.6449C26.988 51.5906 18.0933 42.685 18.0933 31.7253C18.0933 20.7656 26.9941 11.8661 38.0016 11.8056C44.1398 11.7754 50.0291 11.8419 52.8584 12.15C60.1198 12.9415 59.1423 19.7687 59.1423 19.7687L72.4388 9.90853C55.6695 9.90853 42.4337 8.88143 33.2234 7.81808C32.4159 7.72745 31.3594 10.1381 31.3594 10.1381C31.3594 10.1381 29.3498 7.34078 28.6273 7.24411C21.718 6.31368 18.0873 5.49805 18.0873 5.49805L9.60547 31.7253L18.0873 57.9525C18.0873 57.9525 37.6677 53.5421 72.4327 53.5421L59.1362 43.6819C59.1362 43.6819 60.1138 50.5151 52.8523 51.3006H52.8584Z" fill="white"/>
</mask>
<g mask="url(#mask1_5032_8687)">
<path d="M86.9612 -3.95728H-4.61426V30.7405H86.9612V-3.95728Z" fill="url(#paint4_linear_5032_8687)"/>
<path opacity="0.37" d="M8.87061 36.6068L15.1667 41.259L22.331 37.5675L18.4938 35.7126L8.87061 36.6068Z" fill="#372808"/>
<path d="M9.61084 31.7314C12.598 40.4194 15.5062 49.1377 18.3598 57.868L18.0319 57.6807C22.5066 56.7382 27.0116 56.0917 31.5348 55.5178C45.1045 53.9107 58.7834 53.3186 72.4441 53.5421C58.8502 53.8261 45.1045 54.4786 31.6137 56.1461C27.0176 56.708 22.4216 57.3424 17.9044 58.2788L17.8255 58.0372C15.0266 49.2827 12.2823 40.5161 9.61084 31.7253V31.7314Z" fill="white"/>
<path d="M72.4449 9.91465C60.0774 10.1201 47.6917 9.65486 35.3849 8.36796C34.8323 8.31963 33.6849 8.16254 33.1627 8.13838C32.4341 8.51901 32.0334 9.5461 31.657 10.2711L31.4323 10.7726C30.5945 9.67902 29.7627 8.3438 28.6395 7.57045C25.112 7.03878 21.5298 6.53127 18.0388 5.77001L18.3666 5.58271C16.952 9.9509 15.4766 14.307 14.0377 18.6691C12.5866 23.0313 11.1112 27.3814 9.61768 31.7254C10.9534 27.327 12.3073 22.9407 13.6855 18.5544C15.0941 14.0955 16.4723 9.62465 17.9113 5.17188C20.953 5.81834 24.1163 6.30168 27.2066 6.74273C27.5223 6.79106 28.2691 6.88169 28.5727 6.93003C28.7731 6.94815 28.9734 7.03878 29.1313 7.14149C30.1695 7.95712 30.8495 8.94193 31.6327 9.95694L31.0802 10.0174C31.2684 9.60048 31.4809 9.20777 31.7177 8.81505C32.0638 8.26525 32.6709 7.33482 33.4845 7.54024L34.1402 7.61274C46.8599 9.05068 59.6585 9.66694 72.451 9.90861L72.4449 9.91465Z" fill="white"/>
</g>
<path d="M72.4449 53.542L59.1485 63.4022C59.1485 63.4022 59.8103 54.841 52.5488 54.0495C52.5488 54.0495 66.6953 52.7868 72.4449 53.542Z" fill="url(#paint5_linear_5032_8687)"/>
<path d="M72.4449 9.91452L59.1485 0C59.1485 0 59.8103 8.56116 52.5488 9.35263C52.5488 9.35263 66.6953 10.6697 72.4449 9.91452Z" fill="url(#paint6_linear_5032_8687)"/>
<path d="M15.4518 38.8183L30.9036 30.7405L15.4518 22.6687L0 30.7405L15.4518 38.8183Z" fill="url(#paint7_linear_5032_8687)"/>
<path d="M15.4519 35.7129L24.9659 30.7405L15.4519 25.7742L5.93799 30.7405L15.4519 35.7129Z" fill="#F4C86C"/>
<mask id="mask2_5032_8687" style="mask-type:luminance" maskUnits="userSpaceOnUse" x="5" y="25" width="20" height="11">
<path d="M15.4519 35.7129L24.9659 30.7405L15.4519 25.7742L5.93799 30.7405L15.4519 35.7129Z" fill="white"/>
</mask>
<g mask="url(#mask2_5032_8687)">
<path d="M27.0245 30.7405H0.000488281V42.4373H27.0245V30.7405Z" fill="#F0BB4D"/>
</g>
<path d="M24.9659 46.7512L22.1123 51.935C22.1123 51.935 24.4437 50.4004 24.9659 50.0138V46.7512Z" fill="url(#paint8_linear_5032_8687)"/>
<path d="M190.376 51.3006C193.199 51.6087 199.088 51.6752 205.233 51.6449C216.246 51.5906 225.141 42.685 225.141 31.7253C225.141 20.7656 216.24 11.8661 205.233 11.8056C199.094 11.7754 193.205 11.8419 190.376 12.15C183.114 12.9415 184.092 19.7687 184.092 19.7687L170.795 9.90853C187.565 9.90853 200.8 8.88143 210.011 7.81808C210.818 7.72745 211.875 10.1381 211.875 10.1381C211.875 10.1381 213.884 7.34078 214.607 7.24411C221.516 6.31368 225.147 5.49805 225.147 5.49805L233.629 31.7253L225.147 57.9525C225.147 57.9525 205.567 53.5421 170.801 53.5421L184.098 43.6819C184.098 43.6819 183.12 50.5151 190.382 51.3006H190.376Z" fill="url(#paint9_linear_5032_8687)"/>
<mask id="mask3_5032_8687" style="mask-type:luminance" maskUnits="userSpaceOnUse" x="170" y="5" width="64" height="53">
<path d="M190.376 51.3006C193.199 51.6087 199.088 51.6752 205.233 51.6449C216.246 51.5906 225.141 42.685 225.141 31.7253C225.141 20.7656 216.24 11.8661 205.233 11.8056C199.094 11.7754 193.205 11.8419 190.376 12.15C183.114 12.9415 184.092 19.7687 184.092 19.7687L170.795 9.90853C187.565 9.90853 200.8 8.88143 210.011 7.81808C210.818 7.72745 211.875 10.1381 211.875 10.1381C211.875 10.1381 213.884 7.34078 214.607 7.24411C221.516 6.31368 225.147 5.49805 225.147 5.49805L233.629 31.7253L225.147 57.9525C225.147 57.9525 205.567 53.5421 170.801 53.5421L184.098 43.6819C184.098 43.6819 183.12 50.5151 190.382 51.3006H190.376Z" fill="white"/>
</mask>
<g mask="url(#mask3_5032_8687)">
<path d="M156.278 30.7402L247.854 30.7402V-3.95755L156.278 -3.95755V30.7402Z" fill="url(#paint10_linear_5032_8687)"/>
<path opacity="0.37" d="M234.369 36.6068L228.066 41.259L220.908 37.5675L224.745 35.7126L234.369 36.6068Z" fill="#342507"/>
<path d="M233.628 31.7312C230.957 40.522 228.212 49.2885 225.414 58.043L225.335 58.2847C220.817 57.3482 216.215 56.7138 211.625 56.152C198.141 54.4844 184.389 53.8319 170.795 53.548C184.456 53.3244 198.135 53.9165 211.704 55.5236C216.227 56.0976 220.732 56.7501 225.207 57.6866L224.879 57.8739C227.739 49.1435 230.647 40.4253 233.628 31.7372V31.7312Z" fill="white"/>
<path d="M170.795 9.91447C183.587 9.6728 196.386 9.06258 209.106 7.6186L209.761 7.5461C210.575 7.34068 211.182 8.27111 211.528 8.82091C211.765 9.21362 211.971 9.60634 212.166 10.0232L211.613 9.9628C212.39 8.94779 213.076 7.96298 214.115 7.14735C214.272 7.04464 214.473 6.94797 214.673 6.93588C214.971 6.89359 215.736 6.79692 216.039 6.74859C219.13 6.31358 222.293 5.8242 225.335 5.17773C226.774 9.62446 228.152 14.0954 229.56 18.5602C230.939 22.9405 232.286 27.3328 233.628 31.7312C232.135 27.3872 230.659 23.0372 229.208 18.675C227.763 14.3129 226.288 9.9628 224.879 5.58857L225.207 5.77587C221.716 6.53713 218.134 7.04464 214.606 7.57631C213.477 8.3557 212.651 9.69092 211.814 10.7784L211.589 10.277C211.212 9.55196 210.812 8.52487 210.083 8.14424C209.567 8.1684 208.407 8.32549 207.861 8.37382C195.554 9.66071 183.169 10.1259 170.801 9.92051L170.795 9.91447Z" fill="white"/>
</g>
<path d="M170.795 53.542L184.092 63.4022C184.092 63.4022 183.43 54.841 190.692 54.0495C190.692 54.0495 176.545 52.7868 170.795 53.542Z" fill="url(#paint11_linear_5032_8687)"/>
<path d="M170.796 9.91452L184.092 0C184.092 0 183.431 8.56116 190.692 9.35263C190.692 9.35263 176.546 10.6697 170.796 9.91452Z" fill="url(#paint12_linear_5032_8687)"/>
<path d="M227.787 38.8183L212.335 30.7405L227.787 22.6687L243.239 30.7405L227.787 38.8183Z" fill="url(#paint13_linear_5032_8687)"/>
<path d="M227.787 35.7129L218.273 30.7405L227.787 25.7742L237.301 30.7405L227.787 35.7129Z" fill="#F4C86C"/>
<mask id="mask4_5032_8687" style="mask-type:luminance" maskUnits="userSpaceOnUse" x="218" y="25" width="20" height="11">
<path d="M227.787 35.7129L218.273 30.7405L227.787 25.7742L237.301 30.7405L227.787 35.7129Z" fill="white"/>
</mask>
<g mask="url(#mask4_5032_8687)">
<path d="M216.215 42.4431H243.239V30.7463L216.215 30.7463V42.4431Z" fill="#EFAF2A"/>
</g>
<path d="M218.273 46.751L221.127 51.9348C221.127 51.9348 218.796 50.4002 218.273 50.0135V46.751Z" fill="url(#paint14_linear_5032_8687)"/>
<defs>
<linearGradient id="paint0_linear_5032_8687" x1="126.96" y1="32.2631" x2="126.96" y2="48.4973" gradientUnits="userSpaceOnUse">
<stop stop-color="#D7E9D8" stop-opacity="0"/>
<stop offset="0.25" stop-color="#D5E8D6" stop-opacity="0.01"/>
<stop offset="0.4" stop-color="#D2E6D3" stop-opacity="0.06"/>
<stop offset="0.52" stop-color="#CCE3CD" stop-opacity="0.13"/>
<stop offset="0.63" stop-color="#C4DEC5" stop-opacity="0.24"/>
<stop offset="0.73" stop-color="#B9D8BB" stop-opacity="0.38"/>
<stop offset="0.82" stop-color="#ACD1AE" stop-opacity="0.54"/>
<stop offset="0.91" stop-color="#9CC89E" stop-opacity="0.75"/>
<stop offset="0.99" stop-color="#8BBF8D" stop-opacity="0.97"/>
<stop offset="1" stop-color="#89BE8B"/>
</linearGradient>
<linearGradient id="paint1_linear_5032_8687" x1="46.1671" y1="41.809" x2="46.1671" y2="5.06302" gradientUnits="userSpaceOnUse">
<stop offset="0.12" stop-color="#BFCEF4" stop-opacity="0"/>
<stop offset="0.52" stop-color="#F0BB4D" stop-opacity="0.51"/>
<stop offset="0.92" stop-color="#A97200"/>
</linearGradient>
<linearGradient id="paint2_linear_5032_8687" x1="197.097" y1="41.809" x2="197.097" y2="5.06302" gradientUnits="userSpaceOnUse">
<stop offset="0.12" stop-color="#BFCEF4" stop-opacity="0"/>
<stop offset="0.52" stop-color="#F0BB4D" stop-opacity="0.51"/>
<stop offset="0.92" stop-color="#9B6902"/>
</linearGradient>
<linearGradient id="paint3_linear_5032_8687" x1="9.61154" y1="31.7313" x2="72.4448" y2="31.7313" gradientUnits="userSpaceOnUse">
<stop offset="0.22" stop-color="#F0BB4D"/>
<stop offset="0.42" stop-color="#E5F1E6"/>
<stop offset="0.56" stop-color="#FDD685"/>
<stop offset="1" stop-color="#F0BB4D"/>
</linearGradient>
<linearGradient id="paint4_linear_5032_8687" x1="43.1072" y1="61.6199" x2="40.7384" y2="2.0473" gradientUnits="userSpaceOnUse">
<stop offset="0.22" stop-color="#ACD2AE"/>
<stop offset="0.42" stop-color="#E5F1E6"/>
<stop offset="0.56" stop-color="#FFE6B1"/>
<stop offset="1" stop-color="#F0BB4D"/>
</linearGradient>
<linearGradient id="paint5_linear_5032_8687" x1="65.651" y1="66.8762" x2="61.8252" y2="50.8751" gradientUnits="userSpaceOnUse">
<stop offset="0.39" stop-color="#F0BB4D"/>
<stop offset="0.83" stop-color="#FFEFCE"/>
</linearGradient>
<linearGradient id="paint6_linear_5032_8687" x1="52.5428" y1="5.07507" x2="-4.0066" y2="5.07507" gradientUnits="userSpaceOnUse">
<stop offset="0.22" stop-color="#FFF3DB"/>
<stop offset="0.42" stop-color="#E5F1E6"/>
<stop offset="0.56" stop-color="#FFF0D1"/>
<stop offset="1" stop-color="#F0BB4D"/>
</linearGradient>
<linearGradient id="paint7_linear_5032_8687" x1="15.4518" y1="22.6687" x2="15.4518" y2="38.8183" gradientUnits="userSpaceOnUse">
<stop stop-color="#221700"/>
<stop offset="1" stop-color="#F0BB4D"/>
</linearGradient>
<linearGradient id="paint8_linear_5032_8687" x1="23.5391" y1="46.7512" x2="23.5391" y2="51.935" gradientUnits="userSpaceOnUse">
<stop stop-color="white"/>
<stop offset="1" stop-color="#F7D080"/>
</linearGradient>
<linearGradient id="paint9_linear_5032_8687" x1="233.629" y1="-3.9573" x2="170.795" y2="-3.9573" gradientUnits="userSpaceOnUse">
<stop offset="0.22" stop-color="#F0BB4D"/>
<stop offset="0.42" stop-color="#E5F1E6"/>
<stop offset="0.56" stop-color="#FFE7B5"/>
<stop offset="1" stop-color="#F0BB4D"/>
</linearGradient>
<linearGradient id="paint10_linear_5032_8687" x1="200.132" y1="61.6196" x2="202.495" y2="2.04703" gradientUnits="userSpaceOnUse">
<stop offset="0.22" stop-color="#ACD2AE"/>
<stop offset="0.42" stop-color="#E5F1E6"/>
<stop offset="0.56" stop-color="#FDE4B1"/>
<stop offset="1" stop-color="#F0BB4D"/>
</linearGradient>
<linearGradient id="paint11_linear_5032_8687" x1="177.589" y1="66.8762" x2="181.415" y2="50.8752" gradientUnits="userSpaceOnUse">
<stop offset="0.39" stop-color="#F0BB4D"/>
<stop offset="0.83" stop-color="#FFF3DA"/>
</linearGradient>
<linearGradient id="paint12_linear_5032_8687" x1="190.698" y1="5.07507" x2="170.796" y2="5.07507" gradientUnits="userSpaceOnUse">
<stop offset="0.22" stop-color="#FFF5DF"/>
<stop offset="0.42" stop-color="#E5F1E6"/>
<stop offset="0.56" stop-color="#FFF6E3"/>
<stop offset="1" stop-color="#F0BB4D"/>
</linearGradient>
<linearGradient id="paint13_linear_5032_8687" x1="227.787" y1="22.6687" x2="227.787" y2="38.8183" gradientUnits="userSpaceOnUse">
<stop stop-color="#221700"/>
<stop offset="1" stop-color="#F0BB4D"/>
</linearGradient>
<linearGradient id="paint14_linear_5032_8687" x1="219.7" y1="46.751" x2="219.7" y2="51.9348" gradientUnits="userSpaceOnUse">
<stop stop-color="#F7D080"/>
<stop offset="1" stop-color="white"/>
</linearGradient>
</defs>
</svg>
