<svg width="152" height="28" viewBox="0 0 152 28" fill="none" xmlns="http://www.w3.org/2000/svg">
<g clip-path="url(#clip0_5900_25040)">
<path d="M70.8557 5.81765C69.1853 5.81765 67.6337 6.31952 66.3363 7.18296C64.9037 6.31413 62.417 6.37349 62.417 6.37349V9.63835H63.9415C63.1468 10.8957 62.6873 12.3797 62.6873 13.9663C62.6873 14.1444 62.6927 14.3171 62.7035 14.4898V27.1445H65.2065V19.8485C66.6715 21.2515 68.6609 22.115 70.8503 22.115C75.3534 22.115 79.0133 18.4562 79.0133 13.9663C79.0133 9.47645 75.348 5.81226 70.8503 5.81226L70.8557 5.81765ZM70.8557 19.6002C67.7473 19.6002 65.2173 17.0747 65.2173 13.9717C65.2173 10.8687 67.7473 8.3432 70.8557 8.3432C73.9641 8.3432 76.4941 10.8687 76.4941 13.9717C76.4941 17.0747 73.9641 19.6002 70.8557 19.6002Z" fill="#E1E2E3"/>
<path d="M151.664 14.2145C151.718 12.0397 150.918 9.9729 149.41 8.39714C147.907 6.82137 145.875 5.92556 143.696 5.87159C142.042 5.83382 140.452 6.28172 139.09 7.15595C137.652 6.3195 135.219 6.37346 135.219 6.37346V9.63832H136.609C134.641 12.7251 134.944 16.875 137.587 19.638C139.171 21.3001 141.334 22.1635 143.512 22.1635C145.015 22.1635 146.534 21.748 147.869 20.9007C148.096 20.7658 149.134 20.0913 150.486 18.4453L148.534 16.848C147.394 18.2403 146.583 18.7314 146.583 18.7314L146.529 18.7637C144.264 20.2046 141.274 19.843 139.415 17.8949C138.728 17.1772 138.268 16.3191 138.036 15.4179L151.632 15.4341L151.664 14.2037V14.2145ZM137.971 12.9086C138.193 11.8131 138.739 10.7716 139.609 9.94052C140.701 8.9044 142.134 8.35396 143.637 8.38634C145.145 8.42412 146.545 9.04471 147.583 10.1294C148.334 10.9173 148.832 11.8779 149.032 12.9194L137.971 12.9032V12.9086Z" fill="#E1E2E3"/>
<path d="M125.305 6.2274C123.115 6.2274 121.131 7.09083 119.661 8.49391V2.05054H117.158V13.858C117.147 14.0307 117.142 14.2034 117.142 14.3815C117.142 16.0382 117.639 17.5762 118.493 18.8659H117.163V22.1308C117.163 22.1308 119.618 22.1901 121.056 21.3375C122.293 22.0984 123.753 22.5355 125.31 22.5355C129.813 22.5355 133.478 18.8767 133.478 14.3868C133.478 9.89699 129.813 6.23279 125.31 6.23279L125.305 6.2274ZM125.305 20.01C122.196 20.01 119.666 17.4844 119.666 14.3815C119.666 11.2785 122.196 8.75294 125.305 8.75294C128.413 8.75294 130.943 11.2785 130.943 14.3815C130.943 17.4844 128.413 20.01 125.305 20.01Z" fill="#E1E2E3"/>
<path d="M111.385 8.08387C109.92 6.68619 107.93 5.82275 105.746 5.82275C101.243 5.82275 97.5833 9.48155 97.5833 13.9768C97.5833 18.4721 101.248 22.1255 105.746 22.1255C107.93 22.1255 109.92 21.262 111.385 19.8589L111.952 21.6344H113.909V6.37319H111.952L111.385 8.08387ZM105.746 19.5999C102.638 19.5999 100.108 17.0744 100.108 13.9714C100.108 10.8684 102.638 8.3429 105.746 8.3429C108.855 8.3429 111.385 10.8684 111.385 13.9714C111.385 17.0744 108.855 19.5999 105.746 19.5999Z" fill="#E1E2E3"/>
<path d="M51.3949 8.08387C49.9299 6.68619 47.9405 5.82275 45.7565 5.82275C41.2533 5.82275 37.5935 9.48155 37.5935 13.9768C37.5935 18.4721 41.2587 22.1255 45.7565 22.1255C47.9405 22.1255 49.9299 21.262 51.3949 19.8589L51.9625 21.6344H53.9195V6.37319H51.9625L51.3949 8.08387ZM45.7511 19.5999C42.6427 19.5999 40.1127 17.0744 40.1127 13.9714C40.1127 10.8684 42.6427 8.3429 45.7511 8.3429C48.8595 8.3429 51.3895 10.8684 51.3895 13.9714C51.3895 17.0744 48.8595 19.5999 45.7511 19.5999Z" fill="#E1E2E3"/>
<path d="M59.4277 1.20312H56.9031V21.6341H59.4277V1.20312Z" fill="#E1E2E3"/>
<path d="M90.5772 5.8171H83.6252V1.20312H81.1006V21.6341H83.6252V8.33725H90.5772C91.8801 8.33725 92.9775 9.91301 92.9775 11.7748V21.6233H95.502V11.7748C95.502 8.48835 93.291 5.8171 90.5772 5.8171Z" fill="#E1E2E3"/>
<path d="M32.7439 2.7522C31.1978 1.65132 29.0516 2.01288 27.9488 3.55087L16.3314 19.8212C15.8935 20.4364 15.1745 20.8088 14.4177 20.8088H3.61658V5.95769C3.61658 4.66254 4.67074 3.61023 5.96817 3.61023H14.3366C15.1259 3.61023 15.8557 4.00417 16.2881 4.65175L19.3317 9.7622L21.6833 6.66463L19.2938 2.64427C18.1802 0.992949 16.326 0 14.3312 0H5.96277C2.67054 0 0 2.66585 0 5.95769V24.419H14.4177C15.5637 24.419 16.672 24.0898 17.6126 23.4908C18.2559 23.0861 18.8235 22.5572 19.2776 21.9204L30.8356 5.73644L32.8898 2.85473L32.7439 2.7468V2.7522Z" fill="url(#paint0_linear_5900_25040)"/>
<path d="M24.8836 19.1731L26.8946 22.9938C27.3595 23.8734 28.2677 24.4239 29.2624 24.4239H31.7329L27.2946 16L24.8782 19.1785L24.8836 19.1731Z" fill="url(#paint1_radial_5900_25040)"/>
</g>
<defs>
<linearGradient id="paint0_linear_5900_25040" x1="-5.41191" y1="23.8272" x2="30.0367" y2="11.7823" gradientUnits="userSpaceOnUse">
<stop offset="0.06" stop-color="#6F6DFE"/>
<stop offset="1" stop-color="#D6A7FF"/>
</linearGradient>
<radialGradient id="paint1_radial_5900_25040" cx="0" cy="0" r="1" gradientUnits="userSpaceOnUse" gradientTransform="translate(27.4136 18.2773) scale(30.1544 30.1015)">
<stop stop-color="#A16DFE"/>
<stop offset="1" stop-color="#03FDCE"/>
</radialGradient>
<clipPath id="clip0_5900_25040">
<rect width="152" height="27.2239" fill="white"/>
</clipPath>
</defs>
</svg>
