<svg width="28" height="28" viewBox="0 0 28 28" fill="none" xmlns="http://www.w3.org/2000/svg">
<g clip-path="url(#clip0_6065_2663)">
<path d="M13.9999 0C6.27987 0 -0.00012207 6.28 -0.00012207 14C-0.00012207 21.72 6.27987 28 13.9999 28C21.7199 28 27.9999 21.72 27.9999 14C27.9999 6.28 21.7199 0 13.9999 0ZM13.9999 26.5267C7.09311 26.5267 1.47324 20.9068 1.47324 14C1.47324 7.09323 7.09311 1.47337 13.9999 1.47337C20.9067 1.47337 26.5265 7.09323 26.5265 14C26.5265 20.9068 20.9067 26.5267 13.9999 26.5267Z" fill="#738081"/>
<path d="M20.1746 11.2148H18.7535V13.3294H16.7754V14.7391H18.7535V16.7854H20.1746V14.7391H22.2437V13.3294H20.1746V11.2148Z" fill="#738081"/>
<path d="M14.4002 14.0691C14.3052 13.993 14.2038 13.9253 14.0971 13.8667C14.1717 13.8176 14.2431 13.7636 14.3108 13.7053C14.543 13.514 14.7295 13.2732 14.8565 13.0004C14.983 12.738 15.049 12.4505 15.0498 12.1592C15.0557 11.7727 14.9575 11.3918 14.7656 11.0564C14.5683 10.7253 14.2796 10.4581 13.9341 10.2871C13.5804 10.0977 13.1409 10.0029 12.6154 10.0029C12.0899 10.0029 11.642 10.0977 11.2716 10.2871C10.9262 10.4594 10.638 10.7279 10.4417 11.0602C10.2497 11.3956 10.1515 11.7765 10.1575 12.163C10.1567 12.4703 10.2267 12.7738 10.3621 13.0497C10.5125 13.3301 10.722 13.5744 10.976 13.7659C11.0238 13.8031 11.0746 13.8417 11.1276 13.8713C11.0448 13.9153 10.9644 13.9636 10.8866 14.016C10.601 14.2098 10.3638 14.4665 10.1931 14.7664C10.031 15.0664 9.94874 15.4031 9.95437 15.7441C9.94863 16.1463 10.0507 16.5428 10.25 16.8923C10.4665 17.2441 10.7777 17.5278 11.1481 17.7108C11.5422 17.9079 12.0272 18.0064 12.6032 18.0064C13.1793 18.0064 13.6643 17.9079 14.0584 17.7108C14.4272 17.5298 14.7353 17.2454 14.9452 16.8923C15.1501 16.5448 15.2551 16.1474 15.2483 15.7441C15.2523 15.4191 15.1741 15.0985 15.021 14.8118C14.8753 14.5189 14.6627 14.2644 14.4002 14.0691ZM11.8992 11.6476C12.1015 11.4927 12.3492 11.4088 12.604 11.4088C12.8588 11.4088 13.1065 11.4927 13.3089 11.6476C13.397 11.7217 13.4672 11.8146 13.5145 11.9196C13.5617 12.0246 13.5847 12.1388 13.5817 12.2539C13.5842 12.3717 13.5611 12.4886 13.514 12.5965C13.4669 12.7045 13.3969 12.8009 13.3089 12.8792C13.1065 13.0341 12.8588 13.118 12.604 13.118C12.3492 13.118 12.1015 13.0341 11.8992 12.8792C11.8111 12.8009 11.7411 12.7045 11.694 12.5965C11.6469 12.4886 11.6238 12.3717 11.6263 12.2539C11.6239 12.1395 11.6472 12.026 11.6944 11.9217C11.7416 11.8174 11.8116 11.725 11.8992 11.6514V11.6476ZM13.4225 16.3087C13.2204 16.4906 12.9476 16.5815 12.604 16.5815C12.2554 16.5815 11.9775 16.4906 11.7703 16.3087C11.6689 16.2127 11.5894 16.096 11.5371 15.9665C11.4848 15.8371 11.4609 15.6979 11.4672 15.5584C11.4672 15.2325 11.5682 14.9748 11.7703 14.7853C11.9724 14.5958 12.2503 14.5011 12.604 14.5011C12.9451 14.5011 13.2179 14.5958 13.4225 14.7853C13.6348 14.9748 13.7409 15.2325 13.7409 15.5584C13.7463 15.6992 13.7206 15.8394 13.6656 15.9691C13.6105 16.0988 13.5276 16.2148 13.4225 16.3087Z" fill="#738081"/>
<path d="M7.17888 10.7256C7.0045 10.8972 6.79508 11.029 6.56498 11.1121C6.30634 11.2058 6.03289 11.2521 5.75781 11.2485V12.6582C6.07685 12.6644 6.39498 12.6222 6.7014 12.5332C6.85873 12.4823 7.01097 12.4168 7.15615 12.3376V17.865H8.6568V10.123H7.54268C7.47395 10.3513 7.34883 10.5585 7.17888 10.7256Z" fill="#738081"/>
</g>
<defs>
<clipPath id="clip0_6065_2663">
<rect width="28" height="28" fill="white"/>
</clipPath>
</defs>
</svg>
