<svg width="38" height="35" viewBox="0 0 38 35" fill="none" xmlns="http://www.w3.org/2000/svg">
<path d="M12.8662 1H25.1338C27.1818 1 29.0742 2.09225 30.0977 3.86328L36.2324 14.4775V14.4766C37.2559 16.2475 37.2559 18.4302 36.2324 20.2012L30.0977 30.8154C29.0741 32.5864 27.1817 33.6787 25.1338 33.6787H12.8662C10.9462 33.6787 9.16227 32.7189 8.10352 31.1396L7.90234 30.8154L1.76758 20.2012C0.74416 18.4302 0.743194 16.2475 1.7666 14.4766L1.76758 14.4775L7.90234 3.86328C8.92584 2.09225 10.8182 1 12.8662 1Z" fill="#42BE49" stroke="#1D3132" stroke-width="2"/>
<path d="M14.025 17.6216C13.2737 17.6216 12.5913 17.4452 11.978 17.0926C11.3647 16.7246 10.8817 16.2262 10.529 15.5976C10.1763 14.9689 10 14.2636 10 13.4816C10 12.6996 10.1763 11.9942 10.529 11.3656C10.8817 10.7369 11.3647 10.2462 11.978 9.89355C12.5913 9.52555 13.2737 9.34155 14.025 9.34155C14.7763 9.34155 15.4587 9.52555 16.072 9.89355C16.6853 10.2462 17.1683 10.7369 17.521 11.3656C17.8737 11.9942 18.05 12.6996 18.05 13.4816C18.05 14.2636 17.8737 14.9689 17.521 15.5976C17.1683 16.2262 16.6853 16.7246 16.072 17.0926C15.4587 17.4452 14.7763 17.6216 14.025 17.6216ZM12.185 25.6716L22.995 9.57155H26.445L15.635 25.6716H12.185ZM14.025 15.7816C14.393 15.7816 14.692 15.5976 14.922 15.2296C15.1673 14.8616 15.29 14.2789 15.29 13.4816C15.29 12.6842 15.1673 12.1016 14.922 11.7336C14.692 11.3656 14.393 11.1816 14.025 11.1816C13.1817 11.1816 12.76 11.9482 12.76 13.4816C12.76 15.0149 13.1817 15.7816 14.025 15.7816ZM24.605 25.9016C23.8537 25.9016 23.1713 25.7252 22.558 25.3726C21.9447 25.0046 21.4617 24.5062 21.109 23.8776C20.7563 23.2489 20.58 22.5436 20.58 21.7616C20.58 20.9796 20.7563 20.2742 21.109 19.6456C21.4617 19.0169 21.9447 18.5262 22.558 18.1736C23.1713 17.8056 23.8537 17.6216 24.605 17.6216C25.3563 17.6216 26.0387 17.8056 26.652 18.1736C27.2653 18.5262 27.7483 19.0169 28.101 19.6456C28.4537 20.2742 28.63 20.9796 28.63 21.7616C28.63 22.5436 28.4537 23.2489 28.101 23.8776C27.7483 24.5062 27.2653 25.0046 26.652 25.3726C26.0387 25.7252 25.3563 25.9016 24.605 25.9016ZM24.605 24.0616C24.973 24.0616 25.272 23.8776 25.502 23.5096C25.7473 23.1416 25.87 22.5589 25.87 21.7616C25.87 20.9642 25.7473 20.3816 25.502 20.0136C25.272 19.6456 24.973 19.4616 24.605 19.4616C23.7617 19.4616 23.34 20.2282 23.34 21.7616C23.34 23.2949 23.7617 24.0616 24.605 24.0616Z" fill="white"/>
</svg>
