<svg width="92" height="92" viewBox="0 0 92 92" fill="none" xmlns="http://www.w3.org/2000/svg">
<g filter="url(#filter0_ii_4565_44638)">
<g clip-path="url(#clip0_4565_44638)">
<rect width="92" height="92" rx="10.8529" fill="url(#paint0_radial_4565_44638)"/>
<g filter="url(#filter1_f_4565_44638)">
<circle cx="40.3971" cy="76.5735" r="28.3382" fill="#4C555D"/>
</g>
<g filter="url(#filter2_f_4565_44638)">
<circle cx="78.6324" cy="66.2794" r="28.3382" fill="#AC96FD" fill-opacity="0.5"/>
</g>
<path d="M-30.9189 176.629C-30.62 176.629 -30.3779 176.871 -30.3779 177.17C-30.378 177.469 -30.6201 177.711 -30.9189 177.711C-31.2177 177.711 -31.4599 177.469 -31.46 177.17C-31.46 176.871 -31.2178 176.629 -30.9189 176.629ZM-22.3984 176.629C-22.0995 176.629 -21.8574 176.871 -21.8574 177.17C-21.8575 177.469 -22.0996 177.711 -22.3984 177.711C-22.6971 177.711 -22.9393 177.469 -22.9395 177.17C-22.9395 176.871 -22.6972 176.629 -22.3984 176.629ZM-13.877 176.629C-13.5781 176.629 -13.3359 176.871 -13.3359 177.17C-13.336 177.469 -13.5781 177.711 -13.877 177.711C-14.1758 177.711 -14.4179 177.469 -14.418 177.17C-14.418 176.871 -14.1759 176.629 -13.877 176.629ZM-5.35645 176.629C-5.05754 176.629 -4.81445 176.871 -4.81445 177.17C-4.81456 177.469 -5.05761 177.711 -5.35645 177.711C-5.65508 177.711 -5.89735 177.469 -5.89746 177.17C-5.89746 176.871 -5.65515 176.629 -5.35645 176.629ZM3.16504 176.629C3.4639 176.629 3.70605 176.871 3.70605 177.17C3.70594 177.469 3.46383 177.711 3.16504 177.711C2.86621 177.711 2.62413 177.469 2.62402 177.17C2.62402 176.871 2.86614 176.629 3.16504 176.629ZM11.6855 176.629C11.9844 176.629 12.2275 176.871 12.2275 177.17C12.2274 177.469 11.9844 177.711 11.6855 177.711C11.3869 177.711 11.1446 177.469 11.1445 177.17C11.1445 176.871 11.3868 176.629 11.6855 176.629ZM20.207 176.629C20.5058 176.629 20.748 176.871 20.748 177.17C20.7479 177.469 20.5057 177.711 20.207 177.711C19.9082 177.711 19.6651 177.469 19.665 177.17C19.665 176.871 19.9081 176.629 20.207 176.629ZM28.7275 176.629C29.0264 176.629 29.2695 176.871 29.2695 177.17C29.2694 177.469 29.0264 177.711 28.7275 177.711C28.4289 177.711 28.1866 177.469 28.1865 177.17C28.1865 176.871 28.4288 176.629 28.7275 176.629ZM37.249 176.629C37.5479 176.629 37.79 176.871 37.79 177.17C37.7899 177.469 37.5479 177.711 37.249 177.711C36.9502 177.711 36.7081 177.469 36.708 177.17C36.708 176.871 36.9501 176.629 37.249 176.629ZM45.7695 176.629C46.0684 176.629 46.3105 176.871 46.3105 177.17C46.3104 177.469 46.0684 177.711 45.7695 177.711C45.4708 177.711 45.2286 177.469 45.2285 177.17C45.2285 176.871 45.4708 176.629 45.7695 176.629ZM54.291 176.629C54.5898 176.629 54.832 176.871 54.832 177.17C54.8319 177.469 54.5897 177.711 54.291 177.711C53.9922 177.711 53.7501 177.469 53.75 177.17C53.75 176.871 53.9921 176.629 54.291 176.629ZM62.8115 176.629C63.1104 176.629 63.3535 176.871 63.3535 177.17C63.3534 177.469 63.1104 177.711 62.8115 177.711C62.5129 177.711 62.2706 177.469 62.2705 177.17C62.2705 176.871 62.5128 176.629 62.8115 176.629ZM71.333 176.629C71.6318 176.629 71.874 176.871 71.874 177.17C71.8739 177.469 71.6317 177.711 71.333 177.711C71.0342 177.711 70.7921 177.469 70.792 177.17C70.792 176.871 71.0341 176.629 71.333 176.629ZM79.8535 176.629C80.1524 176.629 80.3955 176.871 80.3955 177.17C80.3954 177.469 80.1524 177.711 79.8535 177.711C79.5549 177.711 79.3126 177.469 79.3125 177.17C79.3125 176.871 79.5548 176.629 79.8535 176.629ZM88.375 176.629C88.6738 176.629 88.916 176.871 88.916 177.17C88.9159 177.469 88.6737 177.711 88.375 177.711C88.0762 177.711 87.8331 177.469 87.833 177.17C87.833 176.871 88.0761 176.629 88.375 176.629ZM96.8955 176.629C97.1944 176.629 97.4375 176.871 97.4375 177.17C97.4374 177.469 97.1943 177.711 96.8955 177.711C96.5968 177.711 96.3546 177.469 96.3545 177.17C96.3545 176.871 96.5968 176.629 96.8955 176.629ZM105.417 176.629C105.716 176.629 105.958 176.871 105.958 177.17C105.958 177.469 105.716 177.711 105.417 177.711C105.118 177.711 104.876 177.469 104.876 177.17C104.876 176.871 105.118 176.629 105.417 176.629ZM113.938 176.629C114.236 176.629 114.479 176.871 114.479 177.17C114.478 177.469 114.236 177.711 113.938 177.711C113.639 177.711 113.397 177.469 113.396 177.17C113.396 176.871 113.639 176.629 113.938 176.629ZM122.459 176.629C122.758 176.629 123 176.871 123 177.17C123 177.469 122.758 177.711 122.459 177.711C122.16 177.711 121.918 177.469 121.918 177.17C121.918 176.871 122.16 176.629 122.459 176.629ZM-30.9189 166.887C-30.6202 166.887 -30.3781 167.129 -30.3779 167.428C-30.3779 167.727 -30.62 167.97 -30.9189 167.97C-31.2178 167.97 -31.46 167.727 -31.46 167.428C-31.4597 167.129 -31.2176 166.887 -30.9189 166.887ZM-22.3984 166.887C-22.0997 166.887 -21.8576 167.129 -21.8574 167.428C-21.8574 167.727 -22.0995 167.97 -22.3984 167.97C-22.6972 167.97 -22.9395 167.727 -22.9395 167.428C-22.9392 167.129 -22.6971 166.887 -22.3984 166.887ZM-13.877 166.887C-13.5782 166.887 -13.3362 167.129 -13.3359 167.428C-13.3359 167.727 -13.5781 167.97 -13.877 167.97C-14.1759 167.97 -14.418 167.727 -14.418 167.428C-14.4177 167.129 -14.1757 166.887 -13.877 166.887ZM-5.35645 166.887C-5.05768 166.887 -4.81467 167.129 -4.81445 167.428C-4.81445 167.727 -5.05754 167.97 -5.35645 167.97C-5.65515 167.969 -5.89746 167.726 -5.89746 167.428C-5.89724 167.129 -5.65502 166.887 -5.35645 166.887ZM3.16504 166.887C3.46376 166.887 3.70583 167.129 3.70605 167.428C3.70605 167.727 3.4639 167.97 3.16504 167.97C2.86614 167.97 2.62402 167.727 2.62402 167.428C2.62424 167.129 2.86627 166.887 3.16504 166.887ZM11.6855 166.887C11.9843 166.887 12.2273 167.129 12.2275 167.428C12.2275 167.727 11.9844 167.97 11.6855 167.97C11.3868 167.97 11.1445 167.727 11.1445 167.428C11.1448 167.129 11.387 166.887 11.6855 166.887ZM20.207 166.887C20.5056 166.887 20.7478 167.129 20.748 167.428C20.748 167.727 20.5058 167.97 20.207 167.97C19.9081 167.97 19.665 167.727 19.665 167.428C19.6653 167.129 19.9083 166.887 20.207 166.887ZM28.7275 166.887C29.0263 166.887 29.2693 167.129 29.2695 167.428C29.2695 167.727 29.0264 167.97 28.7275 167.97C28.4288 167.97 28.1865 167.727 28.1865 167.428C28.1867 167.129 28.4289 166.887 28.7275 166.887ZM37.249 166.887C37.5478 166.887 37.7898 167.129 37.79 167.428C37.79 167.727 37.5479 167.97 37.249 167.97C36.9501 167.97 36.708 167.727 36.708 167.428C36.7082 167.129 36.9503 166.887 37.249 166.887ZM45.7695 166.887C46.0683 166.887 46.3103 167.129 46.3105 167.428C46.3105 167.727 46.0684 167.97 45.7695 167.97C45.4708 167.97 45.2285 167.727 45.2285 167.428C45.2287 167.129 45.4709 166.887 45.7695 166.887ZM54.291 166.887C54.5897 166.887 54.8318 167.129 54.832 167.428C54.832 167.727 54.5898 167.97 54.291 167.97C53.9921 167.97 53.75 167.727 53.75 167.428C53.7502 167.129 53.9922 166.887 54.291 166.887ZM62.8115 166.887C63.1103 166.887 63.3533 167.129 63.3535 167.428C63.3535 167.727 63.1104 167.97 62.8115 167.97C62.5128 167.969 62.2705 167.727 62.2705 167.428C62.2707 167.129 62.513 166.887 62.8115 166.887ZM71.333 166.887C71.6316 166.887 71.8738 167.129 71.874 167.428C71.874 167.727 71.6318 167.97 71.333 167.97C71.0341 167.97 70.792 167.727 70.792 167.428C70.7922 167.129 71.0342 166.887 71.333 166.887ZM79.8535 166.887C80.1523 166.887 80.3953 167.129 80.3955 167.428C80.3955 167.727 80.1524 167.97 79.8535 167.97C79.5548 167.97 79.3125 167.727 79.3125 167.428C79.3127 167.129 79.5549 166.887 79.8535 166.887ZM88.375 166.887C88.6736 166.887 88.9158 167.129 88.916 167.428C88.916 167.727 88.6738 167.97 88.375 167.97C88.0761 167.97 87.833 167.727 87.833 167.428C87.8332 167.129 88.0762 166.887 88.375 166.887ZM96.8955 166.887C97.1943 166.887 97.4373 167.129 97.4375 167.428C97.4375 167.727 97.1944 167.97 96.8955 167.97C96.5968 167.97 96.3545 167.727 96.3545 167.428C96.3547 167.129 96.5969 166.887 96.8955 166.887ZM105.417 166.887C105.716 166.887 105.958 167.129 105.958 167.428C105.958 167.727 105.716 167.97 105.417 167.97C105.118 167.97 104.876 167.727 104.876 167.428C104.876 167.129 105.118 166.887 105.417 166.887ZM113.938 166.887C114.236 166.887 114.478 167.129 114.479 167.428C114.479 167.727 114.236 167.97 113.938 167.97C113.639 167.97 113.396 167.727 113.396 167.428C113.397 167.129 113.639 166.887 113.938 166.887ZM122.459 166.887C122.758 166.887 123 167.129 123 167.428C123 167.727 122.758 167.97 122.459 167.97C122.16 167.97 121.918 167.727 121.918 167.428C121.918 167.129 122.16 166.887 122.459 166.887ZM-30.9189 157.146C-30.62 157.146 -30.3779 157.388 -30.3779 157.687C-30.378 157.985 -30.6201 158.228 -30.9189 158.228C-31.2177 158.227 -31.4599 157.985 -31.46 157.687C-31.46 157.388 -31.2178 157.146 -30.9189 157.146ZM-22.3984 157.146C-22.0995 157.146 -21.8574 157.388 -21.8574 157.687C-21.8575 157.985 -22.0996 158.228 -22.3984 158.228C-22.6972 158.227 -22.9394 157.985 -22.9395 157.687C-22.9395 157.388 -22.6972 157.146 -22.3984 157.146ZM-13.877 157.146C-13.5781 157.146 -13.3359 157.388 -13.3359 157.687C-13.336 157.985 -13.5781 158.228 -13.877 158.228C-14.1758 158.228 -14.4179 157.985 -14.418 157.687C-14.418 157.388 -14.1759 157.146 -13.877 157.146ZM-5.35645 157.146C-5.05754 157.146 -4.81445 157.388 -4.81445 157.687C-4.8145 157.985 -5.05758 158.228 -5.35645 158.228C-5.65512 158.227 -5.89741 157.985 -5.89746 157.687C-5.89746 157.388 -5.65515 157.146 -5.35645 157.146ZM3.16504 157.146C3.4639 157.146 3.70605 157.388 3.70605 157.687C3.706 157.985 3.46387 158.227 3.16504 158.228C2.86617 158.228 2.62408 157.985 2.62402 157.687C2.62402 157.388 2.86614 157.146 3.16504 157.146ZM11.6855 157.146C11.9844 157.146 12.2275 157.388 12.2275 157.687C12.2275 157.985 11.9844 158.228 11.6855 158.228C11.3869 158.227 11.1446 157.985 11.1445 157.687C11.1445 157.388 11.3868 157.146 11.6855 157.146ZM20.207 157.146C20.5058 157.146 20.748 157.388 20.748 157.687C20.748 157.985 20.5058 158.227 20.207 158.228C19.9082 158.228 19.6651 157.985 19.665 157.687C19.665 157.388 19.9081 157.146 20.207 157.146ZM28.7275 157.146C29.0264 157.146 29.2695 157.388 29.2695 157.687C29.2695 157.985 29.0264 158.228 28.7275 158.228C28.4288 158.227 28.1866 157.985 28.1865 157.687C28.1865 157.388 28.4288 157.146 28.7275 157.146ZM37.249 157.146C37.5479 157.146 37.79 157.388 37.79 157.687C37.79 157.985 37.5479 158.228 37.249 158.228C36.9502 158.228 36.7081 157.985 36.708 157.687C36.708 157.388 36.9501 157.146 37.249 157.146ZM45.7695 157.146C46.0684 157.146 46.3105 157.388 46.3105 157.687C46.3105 157.985 46.0684 158.228 45.7695 158.228C45.4708 158.227 45.2286 157.985 45.2285 157.687C45.2285 157.388 45.4708 157.146 45.7695 157.146ZM54.291 157.146C54.5898 157.146 54.832 157.388 54.832 157.687C54.832 157.985 54.5898 158.227 54.291 158.228C53.9921 158.228 53.7501 157.985 53.75 157.687C53.75 157.388 53.9921 157.146 54.291 157.146ZM62.8115 157.146C63.1104 157.146 63.3535 157.388 63.3535 157.687C63.3535 157.985 63.1104 158.228 62.8115 158.228C62.5128 158.227 62.2706 157.985 62.2705 157.687C62.2705 157.388 62.5128 157.146 62.8115 157.146ZM71.333 157.146C71.6318 157.146 71.874 157.388 71.874 157.687C71.874 157.985 71.6318 158.227 71.333 158.228C71.0341 158.228 70.792 157.985 70.792 157.687C70.792 157.388 71.0341 157.146 71.333 157.146ZM79.8535 157.146C80.1524 157.146 80.3955 157.388 80.3955 157.687C80.3955 157.985 80.1524 158.228 79.8535 158.228C79.5548 158.227 79.3126 157.985 79.3125 157.687C79.3125 157.388 79.5548 157.146 79.8535 157.146ZM88.375 157.146C88.6738 157.146 88.916 157.388 88.916 157.687C88.916 157.985 88.6737 158.227 88.375 158.228C88.0761 158.228 87.8331 157.985 87.833 157.687C87.833 157.388 88.0761 157.146 88.375 157.146ZM96.8955 157.146C97.1944 157.146 97.4375 157.388 97.4375 157.687C97.4375 157.985 97.1944 158.228 96.8955 158.228C96.5968 158.227 96.3545 157.985 96.3545 157.687C96.3545 157.388 96.5968 157.146 96.8955 157.146ZM105.417 157.146C105.716 157.146 105.958 157.388 105.958 157.687C105.958 157.985 105.716 158.227 105.417 158.228C105.118 158.228 104.876 157.985 104.876 157.687C104.876 157.388 105.118 157.146 105.417 157.146ZM113.938 157.146C114.236 157.146 114.479 157.388 114.479 157.687C114.478 157.985 114.236 158.228 113.938 158.228C113.639 158.227 113.397 157.985 113.396 157.687C113.396 157.388 113.639 157.146 113.938 157.146ZM122.459 157.146C122.758 157.146 123 157.388 123 157.687C123 157.985 122.758 158.227 122.459 158.228C122.16 158.228 121.918 157.985 121.918 157.687C121.918 157.388 122.16 157.146 122.459 157.146ZM-30.9189 147.403C-30.6201 147.403 -30.3781 147.646 -30.3779 147.944C-30.3779 148.243 -30.62 148.486 -30.9189 148.486C-31.2178 148.486 -31.46 148.243 -31.46 147.944C-31.4598 147.646 -31.2177 147.403 -30.9189 147.403ZM-22.3984 147.403C-22.0996 147.403 -21.8576 147.646 -21.8574 147.944C-21.8574 148.243 -22.0995 148.486 -22.3984 148.486C-22.6972 148.486 -22.9395 148.243 -22.9395 147.944C-22.9393 147.646 -22.6971 147.403 -22.3984 147.403ZM-13.877 147.403C-13.5782 147.403 -13.3361 147.646 -13.3359 147.944C-13.3359 148.243 -13.5781 148.486 -13.877 148.486C-14.1759 148.486 -14.418 148.243 -14.418 147.944C-14.4178 147.646 -14.1757 147.403 -13.877 147.403ZM-5.35645 147.403C-5.05765 147.403 -4.81462 147.646 -4.81445 147.944C-4.81445 148.243 -5.05754 148.486 -5.35645 148.486C-5.65515 148.486 -5.89746 148.243 -5.89746 147.944C-5.89729 147.646 -5.65505 147.404 -5.35645 147.403ZM3.16504 147.403C3.46379 147.403 3.70588 147.646 3.70605 147.944C3.70605 148.243 3.4639 148.486 3.16504 148.486C2.86614 148.486 2.62402 148.243 2.62402 147.944C2.6242 147.646 2.86624 147.403 3.16504 147.403ZM11.6855 147.403C11.9843 147.403 12.2274 147.646 12.2275 147.944C12.2275 148.243 11.9844 148.486 11.6855 148.486C11.3868 148.486 11.1445 148.243 11.1445 147.944C11.1447 147.646 11.3869 147.404 11.6855 147.403ZM20.207 147.403C20.5057 147.403 20.7479 147.646 20.748 147.944C20.748 148.243 20.5058 148.486 20.207 148.486C19.9081 148.486 19.665 148.243 19.665 147.944C19.6652 147.646 19.9082 147.403 20.207 147.403ZM28.7275 147.403C29.0263 147.403 29.2694 147.646 29.2695 147.944C29.2695 148.243 29.0264 148.486 28.7275 148.486C28.4288 148.486 28.1865 148.243 28.1865 147.944C28.1867 147.646 28.4289 147.404 28.7275 147.403ZM37.249 147.403C37.5478 147.403 37.7899 147.646 37.79 147.944C37.79 148.243 37.5479 148.486 37.249 148.486C36.9501 148.486 36.708 148.243 36.708 147.944C36.7082 147.646 36.9502 147.403 37.249 147.403ZM45.7695 147.403C46.0683 147.403 46.3104 147.646 46.3105 147.944C46.3105 148.243 46.0684 148.486 45.7695 148.486C45.4708 148.486 45.2285 148.243 45.2285 147.944C45.2287 147.646 45.4709 147.403 45.7695 147.403ZM54.291 147.403C54.5897 147.403 54.8319 147.646 54.832 147.944C54.832 148.243 54.5898 148.486 54.291 148.486C53.9921 148.486 53.75 148.243 53.75 147.944C53.7502 147.646 53.9922 147.403 54.291 147.403ZM62.8115 147.403C63.1103 147.403 63.3533 147.646 63.3535 147.944C63.3535 148.243 63.1104 148.486 62.8115 148.486C62.5128 148.486 62.2705 148.243 62.2705 147.944C62.2707 147.646 62.5129 147.404 62.8115 147.403ZM71.333 147.403C71.6317 147.403 71.8739 147.646 71.874 147.944C71.874 148.243 71.6318 148.486 71.333 148.486C71.0341 148.486 70.792 148.243 70.792 147.944C70.7922 147.646 71.0342 147.403 71.333 147.403ZM79.8535 147.403C80.1523 147.403 80.3953 147.646 80.3955 147.944C80.3955 148.243 80.1524 148.486 79.8535 148.486C79.5548 148.486 79.3125 148.243 79.3125 147.944C79.3127 147.646 79.5549 147.404 79.8535 147.403ZM88.375 147.403C88.6736 147.404 88.9158 147.646 88.916 147.944C88.916 148.243 88.6738 148.486 88.375 148.486C88.0761 148.486 87.833 148.243 87.833 147.944C87.8332 147.646 88.0762 147.403 88.375 147.403ZM96.8955 147.403C97.1943 147.403 97.4373 147.646 97.4375 147.944C97.4375 148.243 97.1944 148.486 96.8955 148.486C96.5968 148.486 96.3545 148.243 96.3545 147.944C96.3547 147.646 96.5969 147.403 96.8955 147.403ZM105.417 147.403C105.716 147.403 105.958 147.646 105.958 147.944C105.958 148.243 105.716 148.486 105.417 148.486C105.118 148.486 104.876 148.243 104.876 147.944C104.876 147.646 105.118 147.403 105.417 147.403ZM113.938 147.403C114.236 147.403 114.478 147.646 114.479 147.944C114.479 148.243 114.236 148.486 113.938 148.486C113.639 148.486 113.396 148.243 113.396 147.944C113.397 147.646 113.639 147.403 113.938 147.403ZM122.459 147.403C122.758 147.403 123 147.646 123 147.944C123 148.243 122.758 148.486 122.459 148.486C122.16 148.486 121.918 148.243 121.918 147.944C121.918 147.646 122.16 147.403 122.459 147.403ZM-30.9189 137.662C-30.62 137.662 -30.3779 137.904 -30.3779 138.203C-30.3781 138.502 -30.6201 138.744 -30.9189 138.744C-31.2177 138.744 -31.4598 138.502 -31.46 138.203C-31.46 137.904 -31.2178 137.662 -30.9189 137.662ZM-22.3984 137.662C-22.0995 137.662 -21.8574 137.904 -21.8574 138.203C-21.8576 138.502 -22.0996 138.744 -22.3984 138.744C-22.6971 138.744 -22.9393 138.502 -22.9395 138.203C-22.9395 137.904 -22.6972 137.662 -22.3984 137.662ZM-13.877 137.662C-13.5781 137.662 -13.3359 137.904 -13.3359 138.203C-13.3361 138.502 -13.5782 138.744 -13.877 138.744C-14.1758 138.744 -14.4178 138.502 -14.418 138.203C-14.418 137.904 -14.1759 137.662 -13.877 137.662ZM-5.35645 137.662C-5.05754 137.662 -4.81445 137.904 -4.81445 138.203C-4.81461 138.502 -5.05764 138.744 -5.35645 138.744C-5.65505 138.744 -5.89731 138.502 -5.89746 138.203C-5.89746 137.904 -5.65515 137.662 -5.35645 137.662ZM3.16504 137.662C3.4639 137.662 3.70605 137.904 3.70605 138.203C3.7059 138.502 3.46381 138.744 3.16504 138.744C2.86623 138.744 2.62418 138.502 2.62402 138.203C2.62402 137.904 2.86614 137.662 3.16504 137.662ZM11.6855 137.662C11.9844 137.662 12.2275 137.904 12.2275 138.203C12.2274 138.502 11.9844 138.744 11.6855 138.744C11.3869 138.744 11.1447 138.502 11.1445 138.203C11.1445 137.904 11.3868 137.662 11.6855 137.662ZM20.207 137.662C20.5058 137.662 20.748 137.904 20.748 138.203C20.7479 138.502 20.5057 138.744 20.207 138.744C19.9082 138.744 19.6652 138.502 19.665 138.203C19.665 137.904 19.9081 137.662 20.207 137.662ZM28.7275 137.662C29.0264 137.662 29.2695 137.904 29.2695 138.203C29.2694 138.502 29.0263 138.744 28.7275 138.744C28.4289 138.744 28.1867 138.502 28.1865 138.203C28.1865 137.904 28.4288 137.662 28.7275 137.662ZM37.249 137.662C37.5479 137.662 37.79 137.904 37.79 138.203C37.7899 138.502 37.5478 138.744 37.249 138.744C36.9502 138.744 36.7082 138.502 36.708 138.203C36.708 137.904 36.9501 137.662 37.249 137.662ZM45.7695 137.662C46.0684 137.662 46.3105 137.904 46.3105 138.203C46.3104 138.502 46.0683 138.744 45.7695 138.744C45.4709 138.744 45.2287 138.502 45.2285 138.203C45.2285 137.904 45.4708 137.662 45.7695 137.662ZM54.291 137.662C54.5898 137.662 54.832 137.904 54.832 138.203C54.8319 138.502 54.5897 138.744 54.291 138.744C53.9922 138.744 53.7502 138.502 53.75 138.203C53.75 137.904 53.9921 137.662 54.291 137.662ZM62.8115 137.662C63.1104 137.662 63.3535 137.904 63.3535 138.203C63.3534 138.502 63.1103 138.744 62.8115 138.744C62.5129 138.744 62.2707 138.502 62.2705 138.203C62.2705 137.904 62.5128 137.662 62.8115 137.662ZM71.333 137.662C71.6318 137.662 71.874 137.904 71.874 138.203C71.8739 138.502 71.6317 138.744 71.333 138.744C71.0342 138.744 70.7921 138.502 70.792 138.203C70.792 137.904 71.0341 137.662 71.333 137.662ZM79.8535 137.662C80.1524 137.662 80.3955 137.904 80.3955 138.203C80.3954 138.502 80.1523 138.744 79.8535 138.744C79.5549 138.744 79.3127 138.502 79.3125 138.203C79.3125 137.904 79.5548 137.662 79.8535 137.662ZM88.375 137.662C88.6738 137.662 88.916 137.904 88.916 138.203C88.9159 138.502 88.6737 138.744 88.375 138.744C88.0762 138.744 87.8332 138.502 87.833 138.203C87.833 137.904 88.0761 137.662 88.375 137.662ZM96.8955 137.662C97.1944 137.662 97.4375 137.904 97.4375 138.203C97.4373 138.502 97.1943 138.744 96.8955 138.744C96.5968 138.744 96.3546 138.502 96.3545 138.203C96.3545 137.904 96.5968 137.662 96.8955 137.662ZM105.417 137.662C105.716 137.662 105.958 137.904 105.958 138.203C105.958 138.502 105.716 138.744 105.417 138.744C105.118 138.744 104.876 138.502 104.876 138.203C104.876 137.904 105.118 137.662 105.417 137.662ZM113.938 137.662C114.236 137.662 114.479 137.904 114.479 138.203C114.478 138.502 114.236 138.744 113.938 138.744C113.639 138.744 113.397 138.502 113.396 138.203C113.396 137.904 113.639 137.662 113.938 137.662ZM122.459 137.662C122.758 137.662 123 137.904 123 138.203C123 138.502 122.758 138.744 122.459 138.744C122.16 138.744 121.918 138.502 121.918 138.203C121.918 137.904 122.16 137.662 122.459 137.662ZM-30.9189 127.92C-30.6201 127.92 -30.378 128.162 -30.3779 128.461C-30.3779 128.76 -30.62 129.002 -30.9189 129.002C-31.2178 129.002 -31.46 128.76 -31.46 128.461C-31.4599 128.162 -31.2177 127.92 -30.9189 127.92ZM-22.3984 127.92C-22.0996 127.92 -21.8575 128.162 -21.8574 128.461C-21.8574 128.76 -22.0995 129.002 -22.3984 129.002C-22.6972 129.002 -22.9395 128.76 -22.9395 128.461C-22.9394 128.162 -22.6971 127.92 -22.3984 127.92ZM-13.877 127.92C-13.5781 127.92 -13.336 128.162 -13.3359 128.461C-13.3359 128.76 -13.5781 129.002 -13.877 129.002C-14.1759 129.002 -14.418 128.76 -14.418 128.461C-14.4179 128.162 -14.1758 127.92 -13.877 127.92ZM-5.35645 127.92C-5.05761 127.92 -4.81455 128.162 -4.81445 128.461C-4.81445 128.76 -5.05754 129.002 -5.35645 129.002C-5.65515 129.002 -5.89746 128.76 -5.89746 128.461C-5.89736 128.162 -5.65509 127.92 -5.35645 127.92ZM3.16504 127.92C3.46384 127.92 3.70596 128.162 3.70605 128.461C3.70605 128.76 3.4639 129.002 3.16504 129.002C2.86614 129.002 2.62402 128.76 2.62402 128.461C2.62412 128.162 2.8662 127.92 3.16504 127.92ZM11.6855 127.92C11.9844 127.92 12.2274 128.162 12.2275 128.461C12.2275 128.76 11.9844 129.002 11.6855 129.002C11.3868 129.002 11.1445 128.76 11.1445 128.461C11.1446 128.162 11.3869 127.92 11.6855 127.92ZM20.207 127.92C20.5057 127.92 20.7479 128.162 20.748 128.461C20.748 128.76 20.5058 129.002 20.207 129.002C19.9081 129.002 19.665 128.76 19.665 128.461C19.6651 128.162 19.9082 127.92 20.207 127.92ZM28.7275 127.92C29.0264 127.92 29.2694 128.162 29.2695 128.461C29.2695 128.76 29.0264 129.002 28.7275 129.002C28.4288 129.002 28.1865 128.76 28.1865 128.461C28.1866 128.162 28.4289 127.92 28.7275 127.92ZM37.249 127.92C37.5479 127.92 37.7899 128.162 37.79 128.461C37.79 128.76 37.5479 129.002 37.249 129.002C36.9501 129.002 36.708 128.76 36.708 128.461C36.7081 128.162 36.9502 127.92 37.249 127.92ZM45.7695 127.92C46.0684 127.92 46.3104 128.162 46.3105 128.461C46.3105 128.76 46.0684 129.002 45.7695 129.002C45.4708 129.002 45.2285 128.76 45.2285 128.461C45.2286 128.162 45.4708 127.92 45.7695 127.92ZM54.291 127.92C54.5898 127.92 54.8319 128.162 54.832 128.461C54.832 128.76 54.5898 129.002 54.291 129.002C53.9921 129.002 53.75 128.76 53.75 128.461C53.7501 128.162 53.9922 127.92 54.291 127.92ZM62.8115 127.92C63.1104 127.92 63.3534 128.162 63.3535 128.461C63.3535 128.76 63.1104 129.002 62.8115 129.002C62.5128 129.002 62.2705 128.76 62.2705 128.461C62.2706 128.162 62.5129 127.92 62.8115 127.92ZM71.333 127.92C71.6317 127.92 71.8739 128.162 71.874 128.461C71.874 128.76 71.6318 129.002 71.333 129.002C71.0341 129.002 70.792 128.76 70.792 128.461C70.7921 128.162 71.0342 127.92 71.333 127.92ZM79.8535 127.92C80.1524 127.92 80.3954 128.162 80.3955 128.461C80.3955 128.76 80.1524 129.002 79.8535 129.002C79.5548 129.002 79.3125 128.76 79.3125 128.461C79.3126 128.162 79.5548 127.92 79.8535 127.92ZM88.375 127.92C88.6737 127.92 88.9159 128.162 88.916 128.461C88.916 128.76 88.6738 129.002 88.375 129.002C88.0761 129.002 87.833 128.76 87.833 128.461C87.8331 128.162 88.0762 127.92 88.375 127.92ZM96.8955 127.92C97.1944 127.92 97.4374 128.162 97.4375 128.461C97.4375 128.76 97.1944 129.002 96.8955 129.002C96.5968 129.002 96.3545 128.76 96.3545 128.461C96.3546 128.162 96.5968 127.92 96.8955 127.92ZM105.417 127.92C105.716 127.92 105.958 128.162 105.958 128.461C105.958 128.76 105.716 129.002 105.417 129.002C105.118 129.002 104.876 128.76 104.876 128.461C104.876 128.162 105.118 127.92 105.417 127.92ZM113.938 127.92C114.236 127.92 114.478 128.162 114.479 128.461C114.479 128.76 114.236 129.002 113.938 129.002C113.639 129.002 113.396 128.76 113.396 128.461C113.397 128.162 113.639 127.92 113.938 127.92ZM122.459 127.92C122.758 127.92 123 128.162 123 128.461C123 128.76 122.758 129.002 122.459 129.002C122.16 129.002 121.918 128.76 121.918 128.461C121.918 128.162 122.16 127.92 122.459 127.92ZM-30.9189 118.178C-30.62 118.178 -30.3779 118.421 -30.3779 118.72C-30.3781 119.018 -30.6202 119.261 -30.9189 119.261C-31.2176 119.261 -31.4598 119.018 -31.46 118.72C-31.46 118.421 -31.2178 118.178 -30.9189 118.178ZM-22.3984 118.178C-22.0995 118.178 -21.8574 118.421 -21.8574 118.72C-21.8576 119.018 -22.0996 119.261 -22.3984 119.261C-22.6971 119.261 -22.9393 119.018 -22.9395 118.72C-22.9395 118.421 -22.6972 118.178 -22.3984 118.178ZM-13.877 118.178C-13.5781 118.178 -13.3359 118.421 -13.3359 118.72C-13.3361 119.018 -13.5782 119.261 -13.877 119.261C-14.1757 119.261 -14.4178 119.018 -14.418 118.72C-14.418 118.421 -14.1759 118.178 -13.877 118.178ZM-5.35645 118.178C-5.05754 118.178 -4.81445 118.421 -4.81445 118.72C-4.81463 119.018 -5.05765 119.261 -5.35645 119.261C-5.65504 119.261 -5.89729 119.018 -5.89746 118.72C-5.89746 118.421 -5.65515 118.178 -5.35645 118.178ZM3.16504 118.178C3.4639 118.178 3.70605 118.421 3.70605 118.72C3.70588 119.018 3.46379 119.261 3.16504 119.261C2.86625 119.261 2.6242 119.018 2.62402 118.72C2.62402 118.421 2.86614 118.178 3.16504 118.178ZM11.6855 118.178C11.9844 118.178 12.2275 118.421 12.2275 118.72C12.2274 119.018 11.9843 119.261 11.6855 119.261C11.3869 119.261 11.1447 119.018 11.1445 118.72C11.1445 118.421 11.3868 118.178 11.6855 118.178ZM20.207 118.178C20.5058 118.178 20.748 118.421 20.748 118.72C20.7479 119.018 20.5057 119.261 20.207 119.261C19.9082 119.261 19.6652 119.018 19.665 118.72C19.665 118.421 19.9081 118.178 20.207 118.178ZM28.7275 118.178C29.0264 118.178 29.2695 118.421 29.2695 118.72C29.2694 119.018 29.0263 119.261 28.7275 119.261C28.4289 119.261 28.1867 119.018 28.1865 118.72C28.1865 118.421 28.4288 118.178 28.7275 118.178ZM37.249 118.178C37.5479 118.178 37.79 118.421 37.79 118.72C37.7899 119.018 37.5478 119.261 37.249 119.261C36.9502 119.261 36.7082 119.018 36.708 118.72C36.708 118.421 36.9501 118.178 37.249 118.178ZM45.7695 118.178C46.0684 118.178 46.3105 118.421 46.3105 118.72C46.3104 119.018 46.0683 119.261 45.7695 119.261C45.4709 119.261 45.2287 119.018 45.2285 118.72C45.2285 118.421 45.4708 118.178 45.7695 118.178ZM54.291 118.178C54.5898 118.178 54.832 118.421 54.832 118.72C54.8319 119.018 54.5897 119.261 54.291 119.261C53.9922 119.261 53.7502 119.018 53.75 118.72C53.75 118.421 53.9921 118.178 54.291 118.178ZM62.8115 118.178C63.1104 118.178 63.3535 118.421 63.3535 118.72C63.3533 119.018 63.1103 119.261 62.8115 119.261C62.5129 119.261 62.2707 119.018 62.2705 118.72C62.2705 118.421 62.5128 118.178 62.8115 118.178ZM71.333 118.178C71.6318 118.178 71.874 118.421 71.874 118.72C71.8738 119.018 71.6317 119.261 71.333 119.261C71.0342 119.261 70.7922 119.018 70.792 118.72C70.792 118.421 71.0341 118.178 71.333 118.178ZM79.8535 118.178C80.1524 118.178 80.3955 118.421 80.3955 118.72C80.3953 119.018 80.1523 119.261 79.8535 119.261C79.5549 119.261 79.3127 119.018 79.3125 118.72C79.3125 118.421 79.5548 118.178 79.8535 118.178ZM88.375 118.178C88.6738 118.178 88.916 118.421 88.916 118.72C88.9158 119.018 88.6736 119.261 88.375 119.261C88.0762 119.261 87.8332 119.018 87.833 118.72C87.833 118.421 88.0761 118.178 88.375 118.178ZM96.8955 118.178C97.1944 118.178 97.4375 118.421 97.4375 118.72C97.4373 119.018 97.1943 119.261 96.8955 119.261C96.5969 119.261 96.3547 119.018 96.3545 118.72C96.3545 118.421 96.5968 118.178 96.8955 118.178ZM105.417 118.178C105.716 118.178 105.958 118.421 105.958 118.72C105.958 119.018 105.716 119.261 105.417 119.261C105.118 119.261 104.876 119.018 104.876 118.72C104.876 118.421 105.118 118.178 105.417 118.178ZM113.938 118.178C114.236 118.178 114.479 118.421 114.479 118.72C114.478 119.018 114.236 119.261 113.938 119.261C113.639 119.261 113.397 119.018 113.396 118.72C113.396 118.421 113.639 118.178 113.938 118.178ZM122.459 118.178C122.758 118.178 123 118.421 123 118.72C123 119.018 122.758 119.261 122.459 119.261C122.16 119.261 121.918 119.018 121.918 118.72C121.918 118.421 122.16 118.178 122.459 118.178ZM-30.9189 108.437C-30.6201 108.437 -30.378 108.679 -30.3779 108.978C-30.3779 109.276 -30.62 109.519 -30.9189 109.519C-31.2178 109.518 -31.46 109.276 -31.46 108.978C-31.4599 108.679 -31.2177 108.437 -30.9189 108.437ZM-22.3984 108.437C-22.0996 108.437 -21.8575 108.679 -21.8574 108.978C-21.8574 109.276 -22.0995 109.519 -22.3984 109.519C-22.6972 109.518 -22.9395 109.276 -22.9395 108.978C-22.9394 108.679 -22.6972 108.437 -22.3984 108.437ZM-13.877 108.437C-13.5781 108.437 -13.336 108.679 -13.3359 108.978C-13.3359 109.276 -13.5781 109.519 -13.877 109.519C-14.1759 109.519 -14.418 109.276 -14.418 108.978C-14.4179 108.679 -14.1758 108.437 -13.877 108.437ZM-5.35645 108.437C-5.05758 108.437 -4.8145 108.679 -4.81445 108.978C-4.81445 109.276 -5.05754 109.519 -5.35645 109.519C-5.65515 109.518 -5.89746 109.276 -5.89746 108.978C-5.89741 108.679 -5.65512 108.437 -5.35645 108.437ZM3.16504 108.437C3.46387 108.437 3.70601 108.679 3.70605 108.978C3.70605 109.276 3.4639 109.519 3.16504 109.519C2.86614 109.519 2.62402 109.276 2.62402 108.978C2.62407 108.679 2.86617 108.437 3.16504 108.437ZM11.6855 108.437C11.9844 108.437 12.2275 108.679 12.2275 108.978C12.2275 109.276 11.9844 109.519 11.6855 109.519C11.3868 109.518 11.1445 109.276 11.1445 108.978C11.1446 108.679 11.3869 108.437 11.6855 108.437ZM20.207 108.437C20.5058 108.437 20.748 108.679 20.748 108.978C20.748 109.276 20.5058 109.518 20.207 109.519C19.9081 109.519 19.665 109.276 19.665 108.978C19.6651 108.679 19.9082 108.437 20.207 108.437ZM28.7275 108.437C29.0264 108.437 29.2695 108.679 29.2695 108.978C29.2695 109.276 29.0264 109.519 28.7275 109.519C28.4288 109.518 28.1865 109.276 28.1865 108.978C28.1866 108.679 28.4288 108.437 28.7275 108.437ZM37.249 108.437C37.5479 108.437 37.79 108.679 37.79 108.978C37.79 109.276 37.5479 109.519 37.249 109.519C36.9501 109.519 36.708 109.276 36.708 108.978C36.7081 108.679 36.9502 108.437 37.249 108.437ZM45.7695 108.437C46.0684 108.437 46.3105 108.679 46.3105 108.978C46.3105 109.276 46.0684 109.519 45.7695 109.519C45.4708 109.518 45.2285 109.276 45.2285 108.978C45.2286 108.679 45.4708 108.437 45.7695 108.437ZM54.291 108.437C54.5898 108.437 54.832 108.679 54.832 108.978C54.832 109.276 54.5898 109.518 54.291 109.519C53.9921 109.519 53.75 109.276 53.75 108.978C53.7501 108.679 53.9921 108.437 54.291 108.437ZM62.8115 108.437C63.1104 108.437 63.3535 108.679 63.3535 108.978C63.3535 109.276 63.1104 109.519 62.8115 109.519C62.5128 109.518 62.2705 109.276 62.2705 108.978C62.2706 108.679 62.5128 108.437 62.8115 108.437ZM71.333 108.437C71.6318 108.437 71.874 108.679 71.874 108.978C71.874 109.276 71.6318 109.518 71.333 109.519C71.0341 109.519 70.792 109.276 70.792 108.978C70.792 108.679 71.0341 108.437 71.333 108.437ZM79.8535 108.437C80.1524 108.437 80.3955 108.679 80.3955 108.978C80.3955 109.276 80.1524 109.519 79.8535 109.519C79.5548 109.518 79.3125 109.276 79.3125 108.978C79.3126 108.679 79.5548 108.437 79.8535 108.437ZM88.375 108.437C88.6737 108.437 88.916 108.679 88.916 108.978C88.916 109.276 88.6738 109.518 88.375 109.519C88.0761 109.519 87.833 109.276 87.833 108.978C87.8331 108.679 88.0761 108.437 88.375 108.437ZM96.8955 108.437C97.1944 108.437 97.4375 108.679 97.4375 108.978C97.4375 109.276 97.1944 109.519 96.8955 109.519C96.5968 109.518 96.3545 109.276 96.3545 108.978C96.3545 108.679 96.5968 108.437 96.8955 108.437ZM105.417 108.437C105.716 108.437 105.958 108.679 105.958 108.978C105.958 109.276 105.716 109.518 105.417 109.519C105.118 109.519 104.876 109.276 104.876 108.978C104.876 108.679 105.118 108.437 105.417 108.437ZM113.938 108.437C114.236 108.437 114.478 108.679 114.479 108.978C114.479 109.276 114.236 109.519 113.938 109.519C113.639 109.518 113.396 109.276 113.396 108.978C113.397 108.679 113.639 108.437 113.938 108.437ZM122.459 108.437C122.758 108.437 123 108.679 123 108.978C123 109.276 122.758 109.518 122.459 109.519C122.16 109.519 121.918 109.276 121.918 108.978C121.918 108.679 122.16 108.437 122.459 108.437ZM-30.9189 98.6943C-30.6202 98.6943 -30.3782 98.9367 -30.3779 99.2354C-30.3779 99.5343 -30.62 99.7773 -30.9189 99.7773C-31.2178 99.7772 -31.46 99.5342 -31.46 99.2354C-31.4597 98.9367 -31.2176 98.6944 -30.9189 98.6943ZM-22.3984 98.6943C-22.0997 98.6943 -21.8577 98.9367 -21.8574 99.2354C-21.8574 99.5343 -22.0995 99.7773 -22.3984 99.7773C-22.6972 99.7772 -22.9395 99.5342 -22.9395 99.2354C-22.9392 98.9368 -22.697 98.6945 -22.3984 98.6943ZM-13.877 98.6943C-13.5782 98.6944 -13.3362 98.9367 -13.3359 99.2354C-13.3359 99.5342 -13.5781 99.7773 -13.877 99.7773C-14.1759 99.7773 -14.418 99.5343 -14.418 99.2354C-14.4177 98.9367 -14.1757 98.6943 -13.877 98.6943ZM-5.35645 98.6943C-5.0577 98.6943 -4.8147 98.9367 -4.81445 99.2354C-4.81445 99.5343 -5.05754 99.7773 -5.35645 99.7773C-5.65515 99.7771 -5.89746 99.5341 -5.89746 99.2354C-5.89721 98.9368 -5.65499 98.6946 -5.35645 98.6943ZM3.16504 98.6943C3.46375 98.6944 3.7058 98.9367 3.70605 99.2354C3.70605 99.5342 3.4639 99.7773 3.16504 99.7773C2.86614 99.7773 2.62402 99.5343 2.62402 99.2354C2.62428 98.9367 2.86629 98.6943 3.16504 98.6943ZM11.6855 98.6943C11.9843 98.6943 12.2273 98.9367 12.2275 99.2354C12.2275 99.5343 11.9844 99.7773 11.6855 99.7773C11.3868 99.7771 11.1445 99.5341 11.1445 99.2354C11.1448 98.9368 11.387 98.6945 11.6855 98.6943ZM20.207 98.6943C20.5056 98.6945 20.7478 98.9368 20.748 99.2354C20.748 99.5341 20.5058 99.7772 20.207 99.7773C19.9081 99.7773 19.665 99.5343 19.665 99.2354C19.6653 98.9367 19.9083 98.6943 20.207 98.6943ZM28.7275 98.6943C29.0263 98.6943 29.2693 98.9367 29.2695 99.2354C29.2695 99.5343 29.0264 99.7773 28.7275 99.7773C28.4288 99.7772 28.1865 99.5341 28.1865 99.2354C28.1868 98.9368 28.4289 98.6945 28.7275 98.6943ZM37.249 98.6943C37.5478 98.6943 37.7898 98.9367 37.79 99.2354C37.79 99.5343 37.5479 99.7773 37.249 99.7773C36.9501 99.7773 36.708 99.5342 36.708 99.2354C36.7083 98.9367 36.9503 98.6943 37.249 98.6943ZM45.7695 98.6943C46.0683 98.6943 46.3103 98.9367 46.3105 99.2354C46.3105 99.5343 46.0684 99.7773 45.7695 99.7773C45.4708 99.7772 45.2285 99.5342 45.2285 99.2354C45.2288 98.9368 45.4709 98.6945 45.7695 98.6943ZM54.291 98.6943C54.5897 98.6945 54.8318 98.9367 54.832 99.2354C54.832 99.5342 54.5898 99.7772 54.291 99.7773C53.9921 99.7773 53.75 99.5343 53.75 99.2354C53.7503 98.9367 53.9923 98.6943 54.291 98.6943ZM62.8115 98.6943C63.1103 98.6943 63.3533 98.9367 63.3535 99.2354C63.3535 99.5343 63.1104 99.7773 62.8115 99.7773C62.5128 99.7771 62.2705 99.5341 62.2705 99.2354C62.2708 98.9368 62.513 98.6946 62.8115 98.6943ZM71.333 98.6943C71.6316 98.6945 71.8738 98.9368 71.874 99.2354C71.874 99.5342 71.6318 99.7772 71.333 99.7773C71.0341 99.7773 70.792 99.5343 70.792 99.2354C70.7922 98.9367 71.0343 98.6943 71.333 98.6943ZM79.8535 98.6943C80.1523 98.6943 80.3953 98.9367 80.3955 99.2354C80.3955 99.5343 80.1524 99.7773 79.8535 99.7773C79.5548 99.7771 79.3125 99.5341 79.3125 99.2354C79.3128 98.9368 79.5549 98.6945 79.8535 98.6943ZM88.375 98.6943C88.6736 98.6945 88.9158 98.9368 88.916 99.2354C88.916 99.5341 88.6738 99.7772 88.375 99.7773C88.0761 99.7773 87.833 99.5343 87.833 99.2354C87.8333 98.9367 88.0763 98.6943 88.375 98.6943ZM96.8955 98.6943C97.1943 98.6943 97.4372 98.9367 97.4375 99.2354C97.4375 99.5343 97.1944 99.7773 96.8955 99.7773C96.5968 99.7772 96.3545 99.5341 96.3545 99.2354C96.3547 98.9368 96.5969 98.6945 96.8955 98.6943ZM105.417 98.6943C105.716 98.6944 105.958 98.9367 105.958 99.2354C105.958 99.5342 105.716 99.7772 105.417 99.7773C105.118 99.7773 104.876 99.5343 104.876 99.2354C104.876 98.9367 105.118 98.6943 105.417 98.6943ZM113.938 98.6943C114.236 98.6943 114.478 98.9367 114.479 99.2354C114.479 99.5343 114.236 99.7773 113.938 99.7773C113.639 99.7772 113.396 99.5342 113.396 99.2354C113.397 98.9368 113.639 98.6945 113.938 98.6943ZM122.459 98.6943C122.758 98.6945 123 98.9367 123 99.2354C123 99.5342 122.758 99.7772 122.459 99.7773C122.16 99.7773 121.918 99.5343 121.918 99.2354C121.918 98.9367 122.16 98.6943 122.459 98.6943ZM-30.9189 88.9531C-30.62 88.9531 -30.3779 89.1952 -30.3779 89.4941C-30.3779 89.793 -30.6201 90.0352 -30.9189 90.0352C-31.2177 90.035 -31.4599 89.793 -31.46 89.4941C-31.46 89.1953 -31.2178 88.9532 -30.9189 88.9531ZM-22.3984 88.9531C-22.0995 88.9531 -21.8574 89.1952 -21.8574 89.4941C-21.8574 89.793 -22.0995 90.0352 -22.3984 90.0352C-22.6972 90.035 -22.9394 89.7929 -22.9395 89.4941C-22.9395 89.1953 -22.6972 88.9533 -22.3984 88.9531ZM-13.877 88.9531C-13.5781 88.9531 -13.3359 89.1953 -13.3359 89.4941C-13.336 89.793 -13.5781 90.0351 -13.877 90.0352C-14.1758 90.0352 -14.4179 89.793 -14.418 89.4941C-14.418 89.1952 -14.1759 88.9531 -13.877 88.9531ZM-5.35645 88.9531C-5.05754 88.9531 -4.81445 89.1952 -4.81445 89.4941C-4.81447 89.793 -5.05756 90.0352 -5.35645 90.0352C-5.65514 90.0349 -5.89744 89.7929 -5.89746 89.4941C-5.89746 89.1954 -5.65515 88.9534 -5.35645 88.9531ZM3.16504 88.9531C3.4639 88.9532 3.70605 89.1953 3.70605 89.4941C3.70604 89.793 3.46389 90.0351 3.16504 90.0352C2.86615 90.0352 2.62404 89.793 2.62402 89.4941C2.62402 89.1952 2.86614 88.9531 3.16504 88.9531ZM11.6855 88.9531C11.9844 88.9531 12.2275 89.1952 12.2275 89.4941C12.2275 89.793 11.9844 90.0352 11.6855 90.0352C11.3868 90.035 11.1446 89.7929 11.1445 89.4941C11.1445 89.1954 11.3868 88.9533 11.6855 88.9531ZM20.207 88.9531C20.5058 88.9533 20.748 89.1953 20.748 89.4941C20.748 89.7929 20.5058 90.035 20.207 90.0352C19.9081 90.0352 19.6651 89.793 19.665 89.4941C19.665 89.1952 19.9081 88.9531 20.207 88.9531ZM28.7275 88.9531C29.0264 88.9531 29.2695 89.1952 29.2695 89.4941C29.2695 89.793 29.0264 90.0352 28.7275 90.0352C28.4288 90.035 28.1865 89.7929 28.1865 89.4941C28.1865 89.1954 28.4288 88.9533 28.7275 88.9531ZM37.249 88.9531C37.5479 88.9531 37.79 89.1952 37.79 89.4941C37.79 89.793 37.5479 90.0352 37.249 90.0352C36.9501 90.0352 36.708 89.793 36.708 89.4941C36.708 89.1952 36.9501 88.9531 37.249 88.9531ZM45.7695 88.9531C46.0684 88.9531 46.3105 89.1952 46.3105 89.4941C46.3105 89.793 46.0684 90.0352 45.7695 90.0352C45.4708 90.035 45.2285 89.7929 45.2285 89.4941C45.2285 89.1953 45.4708 88.9533 45.7695 88.9531ZM54.291 88.9531C54.5898 88.9532 54.832 89.1953 54.832 89.4941C54.832 89.7929 54.5898 90.035 54.291 90.0352C53.9921 90.0352 53.75 89.793 53.75 89.4941C53.75 89.1952 53.9921 88.9531 54.291 88.9531ZM62.8115 88.9531C63.1104 88.9531 63.3535 89.1952 63.3535 89.4941C63.3535 89.793 63.1104 90.0352 62.8115 90.0352C62.5128 90.0349 62.2705 89.7929 62.2705 89.4941C62.2705 89.1954 62.5128 88.9534 62.8115 88.9531ZM71.333 88.9531C71.6318 88.9533 71.874 89.1953 71.874 89.4941C71.874 89.7929 71.6318 90.035 71.333 90.0352C71.0341 90.0352 70.792 89.793 70.792 89.4941C70.792 89.1952 71.0341 88.9531 71.333 88.9531ZM79.8535 88.9531C80.1524 88.9531 80.3955 89.1952 80.3955 89.4941C80.3955 89.793 80.1524 90.0352 79.8535 90.0352C79.5548 90.035 79.3125 89.7929 79.3125 89.4941C79.3125 89.1954 79.5548 88.9533 79.8535 88.9531ZM88.375 88.9531C88.6738 88.9533 88.916 89.1954 88.916 89.4941C88.916 89.7929 88.6737 90.035 88.375 90.0352C88.0761 90.0352 87.833 89.793 87.833 89.4941C87.833 89.1952 88.0761 88.9531 88.375 88.9531ZM96.8955 88.9531C97.1944 88.9531 97.4375 89.1952 97.4375 89.4941C97.4375 89.793 97.1944 90.0352 96.8955 90.0352C96.5968 90.035 96.3545 89.7929 96.3545 89.4941C96.3545 89.1954 96.5968 88.9533 96.8955 88.9531ZM105.417 88.9531C105.716 88.9532 105.958 89.1953 105.958 89.4941C105.958 89.793 105.716 90.0351 105.417 90.0352C105.118 90.0352 104.876 89.793 104.876 89.4941C104.876 89.1952 105.118 88.9531 105.417 88.9531ZM113.938 88.9531C114.236 88.9531 114.479 89.1952 114.479 89.4941C114.479 89.793 114.236 90.0352 113.938 90.0352C113.639 90.035 113.396 89.7929 113.396 89.4941C113.396 89.1953 113.639 88.9533 113.938 88.9531ZM122.459 88.9531C122.758 88.9533 123 89.1953 123 89.4941C123 89.7929 122.758 90.035 122.459 90.0352C122.16 90.0352 121.918 89.793 121.918 89.4941C121.918 89.1952 122.16 88.9531 122.459 88.9531ZM-30.9189 79.2109C-30.6202 79.2109 -30.3781 79.4532 -30.3779 79.752C-30.3779 80.0509 -30.62 80.2939 -30.9189 80.2939C-31.2178 80.2938 -31.46 80.0508 -31.46 79.752C-31.4598 79.4533 -31.2176 79.211 -30.9189 79.2109ZM-22.3984 79.2109C-22.0997 79.2109 -21.8576 79.4532 -21.8574 79.752C-21.8574 80.0509 -22.0995 80.2939 -22.3984 80.2939C-22.6972 80.2938 -22.9395 80.0508 -22.9395 79.752C-22.9392 79.4533 -22.6971 79.2111 -22.3984 79.2109ZM-13.877 79.2109C-13.5782 79.211 -13.3361 79.4532 -13.3359 79.752C-13.3359 80.0508 -13.5781 80.2939 -13.877 80.2939C-14.1759 80.2939 -14.418 80.0509 -14.418 79.752C-14.4178 79.4532 -14.1757 79.2109 -13.877 79.2109ZM-5.35645 79.2109C-5.05767 79.2109 -4.81466 79.4532 -4.81445 79.752C-4.81445 80.0509 -5.05754 80.2939 -5.35645 80.2939C-5.65515 80.2937 -5.89746 80.0507 -5.89746 79.752C-5.89725 79.4534 -5.65502 79.2112 -5.35645 79.2109ZM3.16504 79.2109C3.46377 79.211 3.70585 79.4533 3.70605 79.752C3.70605 80.0508 3.4639 80.2939 3.16504 80.2939C2.86614 80.2939 2.62402 80.0509 2.62402 79.752C2.62423 79.4532 2.86626 79.2109 3.16504 79.2109ZM11.6855 79.2109C11.9843 79.2109 12.2273 79.4532 12.2275 79.752C12.2275 80.0509 11.9844 80.2939 11.6855 80.2939C11.3868 80.2937 11.1445 80.0507 11.1445 79.752C11.1447 79.4534 11.3869 79.2111 11.6855 79.2109ZM20.207 79.2109C20.5057 79.2111 20.7478 79.4533 20.748 79.752C20.748 80.0508 20.5058 80.2938 20.207 80.2939C19.9081 80.2939 19.665 80.0509 19.665 79.752C19.6652 79.4532 19.9083 79.2109 20.207 79.2109ZM28.7275 79.2109C29.0263 79.2109 29.2693 79.4532 29.2695 79.752C29.2695 80.0509 29.0264 80.2939 28.7275 80.2939C28.4288 80.2938 28.1865 80.0507 28.1865 79.752C28.1867 79.4533 28.4289 79.2111 28.7275 79.2109ZM37.249 79.2109C37.5478 79.2109 37.7898 79.4532 37.79 79.752C37.79 80.0509 37.5479 80.2939 37.249 80.2939C36.9501 80.2939 36.708 80.0508 36.708 79.752C36.7082 79.4532 36.9502 79.2109 37.249 79.2109ZM45.7695 79.2109C46.0683 79.2109 46.3103 79.4532 46.3105 79.752C46.3105 80.0509 46.0684 80.2939 45.7695 80.2939C45.4708 80.2938 45.2285 80.0508 45.2285 79.752C45.2287 79.4533 45.4709 79.2111 45.7695 79.2109ZM54.291 79.2109C54.5897 79.2111 54.8318 79.4533 54.832 79.752C54.832 80.0508 54.5898 80.2938 54.291 80.2939C53.9921 80.2939 53.75 80.0509 53.75 79.752C53.7502 79.4532 53.9922 79.2109 54.291 79.2109ZM62.8115 79.2109C63.1103 79.2109 63.3533 79.4532 63.3535 79.752C63.3535 80.0509 63.1104 80.2939 62.8115 80.2939C62.5128 80.2937 62.2705 80.0507 62.2705 79.752C62.2707 79.4534 62.5129 79.2112 62.8115 79.2109ZM71.333 79.2109C71.6317 79.2111 71.8738 79.4533 71.874 79.752C71.874 80.0508 71.6318 80.2938 71.333 80.2939C71.0341 80.2939 70.792 80.0509 70.792 79.752C70.7922 79.4532 71.0342 79.2109 71.333 79.2109ZM79.8535 79.2109C80.1523 79.2109 80.3953 79.4532 80.3955 79.752C80.3955 80.0509 80.1524 80.2939 79.8535 80.2939C79.5548 80.2937 79.3125 80.0507 79.3125 79.752C79.3127 79.4534 79.5549 79.2111 79.8535 79.2109ZM88.375 79.2109C88.6736 79.2111 88.9158 79.4533 88.916 79.752C88.916 80.0507 88.6738 80.2938 88.375 80.2939C88.0761 80.2939 87.833 80.0509 87.833 79.752C87.8332 79.4532 88.0762 79.2109 88.375 79.2109ZM96.8955 79.2109C97.1943 79.2109 97.4373 79.4532 97.4375 79.752C97.4375 80.0509 97.1944 80.2939 96.8955 80.2939C96.5968 80.2938 96.3545 80.0507 96.3545 79.752C96.3547 79.4533 96.5969 79.2111 96.8955 79.2109ZM105.417 79.2109C105.716 79.211 105.958 79.4533 105.958 79.752C105.958 80.0508 105.716 80.2938 105.417 80.2939C105.118 80.2939 104.876 80.0509 104.876 79.752C104.876 79.4532 105.118 79.2109 105.417 79.2109ZM113.938 79.2109C114.236 79.2109 114.478 79.4532 114.479 79.752C114.479 80.0509 114.236 80.2939 113.938 80.2939C113.639 80.2938 113.396 80.0508 113.396 79.752C113.397 79.4533 113.639 79.2111 113.938 79.2109ZM122.459 79.2109C122.758 79.2111 123 79.4533 123 79.752C123 80.0508 122.758 80.2938 122.459 80.2939C122.16 80.2939 121.918 80.0509 121.918 79.752C121.918 79.4532 122.16 79.2109 122.459 79.2109ZM-30.9189 69.4697C-30.62 69.4697 -30.3779 69.7118 -30.3779 70.0107C-30.378 70.3096 -30.6201 70.5518 -30.9189 70.5518C-31.2177 70.5517 -31.4599 70.3095 -31.46 70.0107C-31.46 69.7119 -31.2178 69.4698 -30.9189 69.4697ZM-22.3984 69.4697C-22.0995 69.4697 -21.8574 69.7118 -21.8574 70.0107C-21.8575 70.3096 -22.0996 70.5518 -22.3984 70.5518C-22.6972 70.5516 -22.9394 70.3095 -22.9395 70.0107C-22.9395 69.7119 -22.6972 69.4699 -22.3984 69.4697ZM-13.877 69.4697C-13.5781 69.4697 -13.3359 69.7119 -13.3359 70.0107C-13.336 70.3096 -13.5781 70.5517 -13.877 70.5518C-14.1758 70.5518 -14.4179 70.3096 -14.418 70.0107C-14.418 69.7118 -14.1759 69.4697 -13.877 69.4697ZM-5.35645 69.4697C-5.05754 69.4697 -4.81445 69.7118 -4.81445 70.0107C-4.81452 70.3096 -5.05759 70.5518 -5.35645 70.5518C-5.65511 70.5515 -5.89739 70.3094 -5.89746 70.0107C-5.89746 69.712 -5.65515 69.47 -5.35645 69.4697ZM3.16504 69.4697C3.4639 69.4698 3.70605 69.7119 3.70605 70.0107C3.70599 70.3096 3.46386 70.5517 3.16504 70.5518C2.86618 70.5518 2.62409 70.3096 2.62402 70.0107C2.62402 69.7118 2.86614 69.4697 3.16504 69.4697ZM11.6855 69.4697C11.9844 69.4697 12.2275 69.7118 12.2275 70.0107C12.2275 70.3096 11.9844 70.5518 11.6855 70.5518C11.3869 70.5516 11.1446 70.3095 11.1445 70.0107C11.1445 69.712 11.3868 69.4699 11.6855 69.4697ZM20.207 69.4697C20.5058 69.4699 20.748 69.7119 20.748 70.0107C20.748 70.3095 20.5057 70.5516 20.207 70.5518C19.9082 70.5518 19.6651 70.3096 19.665 70.0107C19.665 69.7118 19.9081 69.4697 20.207 69.4697ZM28.7275 69.4697C29.0264 69.4697 29.2695 69.7118 29.2695 70.0107C29.2695 70.3096 29.0264 70.5518 28.7275 70.5518C28.4288 70.5516 28.1866 70.3095 28.1865 70.0107C28.1865 69.712 28.4288 69.4699 28.7275 69.4697ZM37.249 69.4697C37.5479 69.4697 37.79 69.7118 37.79 70.0107C37.79 70.3096 37.5479 70.5518 37.249 70.5518C36.9502 70.5518 36.7081 70.3096 36.708 70.0107C36.708 69.7118 36.9501 69.4697 37.249 69.4697ZM45.7695 69.4697C46.0684 69.4697 46.3105 69.7118 46.3105 70.0107C46.3105 70.3096 46.0684 70.5518 45.7695 70.5518C45.4708 70.5516 45.2286 70.3095 45.2285 70.0107C45.2285 69.7119 45.4708 69.4699 45.7695 69.4697ZM54.291 69.4697C54.5898 69.4698 54.832 69.7119 54.832 70.0107C54.832 70.3095 54.5898 70.5516 54.291 70.5518C53.9922 70.5518 53.7501 70.3096 53.75 70.0107C53.75 69.7118 53.9921 69.4697 54.291 69.4697ZM62.8115 69.4697C63.1104 69.4697 63.3535 69.7118 63.3535 70.0107C63.3534 70.3096 63.1104 70.5518 62.8115 70.5518C62.5129 70.5515 62.2706 70.3094 62.2705 70.0107C62.2705 69.712 62.5128 69.47 62.8115 69.4697ZM71.333 69.4697C71.6318 69.4699 71.874 69.7119 71.874 70.0107C71.874 70.3095 71.6317 70.5516 71.333 70.5518C71.0341 70.5518 70.7921 70.3096 70.792 70.0107C70.792 69.7118 71.0341 69.4697 71.333 69.4697ZM79.8535 69.4697C80.1524 69.4697 80.3955 69.7118 80.3955 70.0107C80.3954 70.3096 80.1524 70.5518 79.8535 70.5518C79.5548 70.5516 79.3126 70.3095 79.3125 70.0107C79.3125 69.712 79.5548 69.4699 79.8535 69.4697ZM88.375 69.4697C88.6738 69.4699 88.916 69.7119 88.916 70.0107C88.9159 70.3095 88.6737 70.5516 88.375 70.5518C88.0761 70.5518 87.8331 70.3096 87.833 70.0107C87.833 69.7118 88.0761 69.4697 88.375 69.4697ZM96.8955 69.4697C97.1944 69.4697 97.4375 69.7118 97.4375 70.0107C97.4374 70.3096 97.1944 70.5518 96.8955 70.5518C96.5968 70.5516 96.3546 70.3095 96.3545 70.0107C96.3545 69.7119 96.5968 69.4699 96.8955 69.4697ZM105.417 69.4697C105.716 69.4698 105.958 69.7119 105.958 70.0107C105.958 70.3095 105.716 70.5517 105.417 70.5518C105.118 70.5518 104.876 70.3096 104.876 70.0107C104.876 69.7118 105.118 69.4697 105.417 69.4697ZM113.938 69.4697C114.236 69.4697 114.479 69.7118 114.479 70.0107C114.478 70.3096 114.236 70.5518 113.938 70.5518C113.639 70.5516 113.397 70.3095 113.396 70.0107C113.396 69.7119 113.639 69.4699 113.938 69.4697ZM122.459 69.4697C122.758 69.4699 123 69.7119 123 70.0107C123 70.3095 122.758 70.5516 122.459 70.5518C122.16 70.5518 121.918 70.3096 121.918 70.0107C121.918 69.7118 122.16 69.4697 122.459 69.4697ZM-30.9189 59.7275C-30.6201 59.7275 -30.3781 59.9698 -30.3779 60.2686C-30.3779 60.5675 -30.62 60.8105 -30.9189 60.8105C-31.2178 60.8104 -31.46 60.5674 -31.46 60.2686C-31.4598 59.9699 -31.2177 59.7276 -30.9189 59.7275ZM-22.3984 59.7275C-22.0996 59.7275 -21.8576 59.9698 -21.8574 60.2686C-21.8574 60.5675 -22.0995 60.8105 -22.3984 60.8105C-22.6972 60.8104 -22.9395 60.5674 -22.9395 60.2686C-22.9393 59.9699 -22.6971 59.7277 -22.3984 59.7275ZM-13.877 59.7275C-13.5782 59.7276 -13.3361 59.9698 -13.3359 60.2686C-13.3359 60.5674 -13.5781 60.8105 -13.877 60.8105C-14.1759 60.8105 -14.418 60.5675 -14.418 60.2686C-14.4178 59.9698 -14.1758 59.7275 -13.877 59.7275ZM-5.35645 59.7275C-5.05764 59.7275 -4.81461 59.9698 -4.81445 60.2686C-4.81445 60.5675 -5.05754 60.8105 -5.35645 60.8105C-5.65515 60.8103 -5.89746 60.5673 -5.89746 60.2686C-5.8973 59.9699 -5.65505 59.7278 -5.35645 59.7275ZM3.16504 59.7275C3.4638 59.7276 3.70589 59.9698 3.70605 60.2686C3.70605 60.5674 3.4639 60.8105 3.16504 60.8105C2.86614 60.8105 2.62402 60.5675 2.62402 60.2686C2.62418 59.9698 2.86624 59.7275 3.16504 59.7275ZM11.6855 59.7275C11.9843 59.7275 12.2274 59.9698 12.2275 60.2686C12.2275 60.5675 11.9844 60.8105 11.6855 60.8105C11.3868 60.8103 11.1445 60.5673 11.1445 60.2686C11.1447 59.9699 11.3869 59.7277 11.6855 59.7275ZM20.207 59.7275C20.5057 59.7277 20.7479 59.9699 20.748 60.2686C20.748 60.5673 20.5058 60.8104 20.207 60.8105C19.9081 60.8105 19.665 60.5675 19.665 60.2686C19.6652 59.9698 19.9082 59.7275 20.207 59.7275ZM28.7275 59.7275C29.0263 59.7275 29.2694 59.9698 29.2695 60.2686C29.2695 60.5675 29.0264 60.8105 28.7275 60.8105C28.4288 60.8104 28.1865 60.5673 28.1865 60.2686C28.1867 59.9699 28.4289 59.7277 28.7275 59.7275ZM37.249 59.7275C37.5478 59.7275 37.7899 59.9698 37.79 60.2686C37.79 60.5675 37.5479 60.8105 37.249 60.8105C36.9501 60.8105 36.708 60.5675 36.708 60.2686C36.7082 59.9698 36.9502 59.7275 37.249 59.7275ZM45.7695 59.7275C46.0683 59.7275 46.3104 59.9698 46.3105 60.2686C46.3105 60.5675 46.0684 60.8105 45.7695 60.8105C45.4708 60.8104 45.2285 60.5674 45.2285 60.2686C45.2287 59.9699 45.4709 59.7277 45.7695 59.7275ZM54.291 59.7275C54.5897 59.7277 54.8319 59.9699 54.832 60.2686C54.832 60.5674 54.5898 60.8104 54.291 60.8105C53.9921 60.8105 53.75 60.5675 53.75 60.2686C53.7502 59.9698 53.9922 59.7275 54.291 59.7275ZM62.8115 59.7275C63.1103 59.7275 63.3534 59.9698 63.3535 60.2686C63.3535 60.5675 63.1104 60.8105 62.8115 60.8105C62.5128 60.8103 62.2705 60.5673 62.2705 60.2686C62.2707 59.9699 62.5129 59.7278 62.8115 59.7275ZM71.333 59.7275C71.6317 59.7277 71.8739 59.9699 71.874 60.2686C71.874 60.5674 71.6318 60.8104 71.333 60.8105C71.0341 60.8105 70.792 60.5675 70.792 60.2686C70.7922 59.9698 71.0342 59.7275 71.333 59.7275ZM79.8535 59.7275C80.1523 59.7275 80.3953 59.9698 80.3955 60.2686C80.3955 60.5675 80.1524 60.8105 79.8535 60.8105C79.5548 60.8103 79.3125 60.5673 79.3125 60.2686C79.3127 59.9699 79.5549 59.7277 79.8535 59.7275ZM88.375 59.7275C88.6737 59.7277 88.9159 59.9699 88.916 60.2686C88.916 60.5673 88.6738 60.8104 88.375 60.8105C88.0761 60.8105 87.833 60.5675 87.833 60.2686C87.8332 59.9698 88.0762 59.7275 88.375 59.7275ZM96.8955 59.7275C97.1943 59.7275 97.4373 59.9698 97.4375 60.2686C97.4375 60.5675 97.1944 60.8105 96.8955 60.8105C96.5968 60.8104 96.3545 60.5673 96.3545 60.2686C96.3547 59.9699 96.5968 59.7277 96.8955 59.7275ZM105.417 59.7275C105.716 59.7276 105.958 59.9699 105.958 60.2686C105.958 60.5674 105.716 60.8104 105.417 60.8105C105.118 60.8105 104.876 60.5675 104.876 60.2686C104.876 59.9698 105.118 59.7275 105.417 59.7275ZM113.938 59.7275C114.236 59.7275 114.478 59.9698 114.479 60.2686C114.479 60.5675 114.236 60.8105 113.938 60.8105C113.639 60.8104 113.396 60.5674 113.396 60.2686C113.397 59.9699 113.639 59.7277 113.938 59.7275ZM122.459 59.7275C122.758 59.7277 123 59.9699 123 60.2686C123 60.5674 122.758 60.8104 122.459 60.8105C122.16 60.8105 121.918 60.5675 121.918 60.2686C121.918 59.9698 122.16 59.7275 122.459 59.7275ZM-30.9189 49.9863C-30.62 49.9863 -30.3779 50.2284 -30.3779 50.5273C-30.378 50.8261 -30.6201 51.0684 -30.9189 51.0684C-31.2177 51.0683 -31.4598 50.8261 -31.46 50.5273C-31.46 50.2285 -31.2178 49.9864 -30.9189 49.9863ZM-22.3984 49.9863C-22.0995 49.9863 -21.8574 50.2284 -21.8574 50.5273C-21.8575 50.8261 -22.0996 51.0684 -22.3984 51.0684C-22.6971 51.0682 -22.9393 50.826 -22.9395 50.5273C-22.9395 50.2285 -22.6972 49.9865 -22.3984 49.9863ZM-13.877 49.9863C-13.5781 49.9863 -13.3359 50.2285 -13.3359 50.5273C-13.3361 50.8261 -13.5781 51.0683 -13.877 51.0684C-14.1758 51.0684 -14.4179 50.8261 -14.418 50.5273C-14.418 50.2284 -14.1759 49.9863 -13.877 49.9863ZM-5.35645 49.9863C-5.05754 49.9863 -4.81445 50.2284 -4.81445 50.5273C-4.81457 50.8261 -5.05762 51.0684 -5.35645 51.0684C-5.65508 51.0681 -5.89734 50.826 -5.89746 50.5273C-5.89746 50.2286 -5.65515 49.9866 -5.35645 49.9863ZM3.16504 49.9863C3.4639 49.9864 3.70605 50.2285 3.70605 50.5273C3.70594 50.8261 3.46383 51.0683 3.16504 51.0684C2.86621 51.0684 2.62414 50.8261 2.62402 50.5273C2.62402 50.2284 2.86614 49.9863 3.16504 49.9863ZM11.6855 49.9863C11.9844 49.9863 12.2275 50.2284 12.2275 50.5273C12.2274 50.8261 11.9844 51.0684 11.6855 51.0684C11.3869 51.0682 11.1446 50.826 11.1445 50.5273C11.1445 50.2286 11.3868 49.9865 11.6855 49.9863ZM20.207 49.9863C20.5058 49.9865 20.748 50.2285 20.748 50.5273C20.7479 50.826 20.5057 51.0682 20.207 51.0684C19.9082 51.0684 19.6652 50.8261 19.665 50.5273C19.665 50.2284 19.9081 49.9863 20.207 49.9863ZM28.7275 49.9863C29.0264 49.9863 29.2695 50.2284 29.2695 50.5273C29.2694 50.8261 29.0264 51.0684 28.7275 51.0684C28.4289 51.0682 28.1866 50.826 28.1865 50.5273C28.1865 50.2286 28.4288 49.9865 28.7275 49.9863ZM37.249 49.9863C37.5479 49.9863 37.79 50.2284 37.79 50.5273C37.7899 50.8261 37.5479 51.0684 37.249 51.0684C36.9502 51.0684 36.7081 50.8261 36.708 50.5273C36.708 50.2284 36.9501 49.9863 37.249 49.9863ZM45.7695 49.9863C46.0684 49.9863 46.3105 50.2284 46.3105 50.5273C46.3104 50.8261 46.0684 51.0684 45.7695 51.0684C45.4708 51.0682 45.2286 50.826 45.2285 50.5273C45.2285 50.2285 45.4708 49.9865 45.7695 49.9863ZM54.291 49.9863C54.5898 49.9865 54.832 50.2285 54.832 50.5273C54.8319 50.8261 54.5897 51.0682 54.291 51.0684C53.9922 51.0684 53.7501 50.8261 53.75 50.5273C53.75 50.2284 53.9921 49.9863 54.291 49.9863ZM62.8115 49.9863C63.1104 49.9863 63.3535 50.2284 63.3535 50.5273C63.3534 50.8261 63.1104 51.0684 62.8115 51.0684C62.5129 51.0681 62.2706 50.826 62.2705 50.5273C62.2705 50.2286 62.5128 49.9866 62.8115 49.9863ZM71.333 49.9863C71.6318 49.9865 71.874 50.2285 71.874 50.5273C71.8739 50.8261 71.6317 51.0682 71.333 51.0684C71.0342 51.0684 70.7921 50.8261 70.792 50.5273C70.792 50.2284 71.0341 49.9863 71.333 49.9863ZM79.8535 49.9863C80.1524 49.9863 80.3955 50.2284 80.3955 50.5273C80.3954 50.8261 80.1523 51.0684 79.8535 51.0684C79.5549 51.0682 79.3126 50.826 79.3125 50.5273C79.3125 50.2286 79.5548 49.9865 79.8535 49.9863ZM88.375 49.9863C88.6738 49.9865 88.916 50.2285 88.916 50.5273C88.9159 50.826 88.6737 51.0682 88.375 51.0684C88.0762 51.0684 87.8331 50.8261 87.833 50.5273C87.833 50.2284 88.0761 49.9863 88.375 49.9863ZM96.8955 49.9863C97.1944 49.9863 97.4375 50.2284 97.4375 50.5273C97.4374 50.8261 97.1943 51.0684 96.8955 51.0684C96.5968 51.0682 96.3546 50.826 96.3545 50.5273C96.3545 50.2285 96.5968 49.9865 96.8955 49.9863ZM105.417 49.9863C105.716 49.9864 105.958 50.2285 105.958 50.5273C105.958 50.8261 105.716 51.0683 105.417 51.0684C105.118 51.0684 104.876 50.8261 104.876 50.5273C104.876 50.2284 105.118 49.9863 105.417 49.9863ZM113.938 49.9863C114.236 49.9863 114.479 50.2284 114.479 50.5273C114.478 50.8261 114.236 51.0684 113.938 51.0684C113.639 51.0682 113.397 50.826 113.396 50.5273C113.396 50.2285 113.639 49.9865 113.938 49.9863ZM122.459 49.9863C122.758 49.9865 123 50.2285 123 50.5273C123 50.8261 122.758 51.0682 122.459 51.0684C122.16 51.0684 121.918 50.8261 121.918 50.5273C121.918 50.2284 122.16 49.9863 122.459 49.9863ZM-30.9189 40.2441C-30.6201 40.2441 -30.378 40.4863 -30.3779 40.7852C-30.3779 41.0841 -30.62 41.3262 -30.9189 41.3262C-31.2178 41.3261 -31.46 41.084 -31.46 40.7852C-31.4599 40.4864 -31.2177 40.2442 -30.9189 40.2441ZM-22.3984 40.2441C-22.0996 40.2441 -21.8575 40.4863 -21.8574 40.7852C-21.8574 41.0841 -22.0995 41.3262 -22.3984 41.3262C-22.6972 41.326 -22.9395 41.084 -22.9395 40.7852C-22.9394 40.4864 -22.6972 40.2443 -22.3984 40.2441ZM-13.877 40.2441C-13.5781 40.2442 -13.336 40.4863 -13.3359 40.7852C-13.3359 41.084 -13.5781 41.3262 -13.877 41.3262C-14.1759 41.3262 -14.418 41.0841 -14.418 40.7852C-14.4179 40.4863 -14.1758 40.2441 -13.877 40.2441ZM-5.35645 40.2441C-5.0576 40.2441 -4.81454 40.4863 -4.81445 40.7852C-4.81445 41.0841 -5.05754 41.3262 -5.35645 41.3262C-5.65515 41.3259 -5.89746 41.0839 -5.89746 40.7852C-5.89738 40.4865 -5.6551 40.2444 -5.35645 40.2441ZM3.16504 40.2441C3.46385 40.2442 3.70597 40.4864 3.70605 40.7852C3.70605 41.084 3.4639 41.3261 3.16504 41.3262C2.86614 41.3262 2.62402 41.0841 2.62402 40.7852C2.62411 40.4863 2.86619 40.2441 3.16504 40.2441ZM11.6855 40.2441C11.9844 40.2441 12.2275 40.4863 12.2275 40.7852C12.2275 41.0841 11.9844 41.3262 11.6855 41.3262C11.3868 41.326 11.1445 41.0839 11.1445 40.7852C11.1446 40.4865 11.3869 40.2443 11.6855 40.2441ZM20.207 40.2441C20.5057 40.2443 20.748 40.4864 20.748 40.7852C20.748 41.084 20.5058 41.326 20.207 41.3262C19.9081 41.3262 19.665 41.0841 19.665 40.7852C19.6651 40.4863 19.9082 40.2441 20.207 40.2441ZM28.7275 40.2441C29.0264 40.2441 29.2694 40.4863 29.2695 40.7852C29.2695 41.0841 29.0264 41.3262 28.7275 41.3262C28.4288 41.326 28.1865 41.0839 28.1865 40.7852C28.1866 40.4864 28.4288 40.2443 28.7275 40.2441ZM37.249 40.2441C37.5479 40.2441 37.79 40.4863 37.79 40.7852C37.79 41.0841 37.5479 41.3262 37.249 41.3262C36.9501 41.3262 36.708 41.0841 36.708 40.7852C36.7081 40.4863 36.9502 40.2441 37.249 40.2441ZM45.7695 40.2441C46.0684 40.2441 46.3105 40.4863 46.3105 40.7852C46.3105 41.0841 46.0684 41.3262 45.7695 41.3262C45.4708 41.326 45.2285 41.084 45.2285 40.7852C45.2286 40.4864 45.4708 40.2443 45.7695 40.2441ZM54.291 40.2441C54.5898 40.2443 54.8319 40.4864 54.832 40.7852C54.832 41.084 54.5898 41.326 54.291 41.3262C53.9921 41.3262 53.75 41.0841 53.75 40.7852C53.7501 40.4863 53.9922 40.2441 54.291 40.2441ZM62.8115 40.2441C63.1104 40.2441 63.3534 40.4863 63.3535 40.7852C63.3535 41.0841 63.1104 41.3262 62.8115 41.3262C62.5128 41.3259 62.2705 41.0839 62.2705 40.7852C62.2706 40.4865 62.5129 40.2444 62.8115 40.2441ZM71.333 40.2441C71.6317 40.2443 71.8739 40.4864 71.874 40.7852C71.874 41.084 71.6318 41.326 71.333 41.3262C71.0341 41.3262 70.792 41.0841 70.792 40.7852C70.7921 40.4863 71.0342 40.2441 71.333 40.2441ZM79.8535 40.2441C80.1524 40.2441 80.3954 40.4863 80.3955 40.7852C80.3955 41.0841 80.1524 41.3262 79.8535 41.3262C79.5548 41.326 79.3125 41.0839 79.3125 40.7852C79.3126 40.4865 79.5548 40.2443 79.8535 40.2441ZM88.375 40.2441C88.6737 40.2443 88.9159 40.4864 88.916 40.7852C88.916 41.0839 88.6738 41.326 88.375 41.3262C88.0761 41.3262 87.833 41.0841 87.833 40.7852C87.8331 40.4863 88.0761 40.2441 88.375 40.2441ZM96.8955 40.2441C97.1944 40.2441 97.4374 40.4863 97.4375 40.7852C97.4375 41.0841 97.1944 41.3262 96.8955 41.3262C96.5968 41.326 96.3545 41.084 96.3545 40.7852C96.3546 40.4864 96.5968 40.2443 96.8955 40.2441ZM105.417 40.2441C105.716 40.2442 105.958 40.4864 105.958 40.7852C105.958 41.084 105.716 41.3261 105.417 41.3262C105.118 41.3262 104.876 41.0841 104.876 40.7852C104.876 40.4863 105.118 40.2441 105.417 40.2441ZM113.938 40.2441C114.236 40.2441 114.478 40.4863 114.479 40.7852C114.479 41.0841 114.236 41.3262 113.938 41.3262C113.639 41.326 113.396 41.084 113.396 40.7852C113.397 40.4864 113.639 40.2443 113.938 40.2441ZM122.459 40.2441C122.758 40.2443 123 40.4864 123 40.7852C123 41.084 122.758 41.326 122.459 41.3262C122.16 41.3262 121.918 41.0841 121.918 40.7852C121.918 40.4863 122.16 40.2441 122.459 40.2441ZM-30.9189 30.502C-30.62 30.502 -30.3779 30.745 -30.3779 31.0439C-30.3781 31.3427 -30.6202 31.585 -30.9189 31.585C-31.2176 31.5849 -31.4598 31.3426 -31.46 31.0439C-31.46 30.7451 -31.2178 30.5021 -30.9189 30.502ZM-22.3984 30.502C-22.0995 30.502 -21.8574 30.745 -21.8574 31.0439C-21.8576 31.3427 -22.0997 31.585 -22.3984 31.585C-22.6971 31.5848 -22.9393 31.3426 -22.9395 31.0439C-22.9395 30.7451 -22.6972 30.5021 -22.3984 30.502ZM-13.877 30.502C-13.5781 30.502 -13.3359 30.7451 -13.3359 31.0439C-13.3361 31.3427 -13.5782 31.5849 -13.877 31.585C-14.1757 31.585 -14.4178 31.3427 -14.418 31.0439C-14.418 30.745 -14.1759 30.502 -13.877 30.502ZM-5.35645 30.502C-5.05754 30.502 -4.81445 30.745 -4.81445 31.0439C-4.81464 31.3427 -5.05766 31.585 -5.35645 31.585C-5.65504 31.5847 -5.89727 31.3425 -5.89746 31.0439C-5.89746 30.7452 -5.65515 30.5022 -5.35645 30.502ZM3.16504 30.502C3.4639 30.502 3.70605 30.7451 3.70605 31.0439C3.70587 31.3427 3.46378 31.5849 3.16504 31.585C2.86625 31.585 2.62421 31.3427 2.62402 31.0439C2.62402 30.745 2.86614 30.502 3.16504 30.502ZM11.6855 30.502C11.9844 30.502 12.2275 30.745 12.2275 31.0439C12.2274 31.3427 11.9843 31.585 11.6855 31.585C11.3869 31.5848 11.1447 31.3426 11.1445 31.0439C11.1445 30.7452 11.3868 30.5022 11.6855 30.502ZM20.207 30.502C20.5058 30.5021 20.748 30.7451 20.748 31.0439C20.7479 31.3426 20.5057 31.5848 20.207 31.585C19.9082 31.585 19.6652 31.3427 19.665 31.0439C19.665 30.745 19.9081 30.502 20.207 30.502ZM28.7275 30.502C29.0264 30.502 29.2695 30.745 29.2695 31.0439C29.2693 31.3427 29.0263 31.585 28.7275 31.585C28.4289 31.5848 28.1867 31.3426 28.1865 31.0439C28.1865 30.7452 28.4288 30.5021 28.7275 30.502ZM37.249 30.502C37.5479 30.502 37.79 30.745 37.79 31.0439C37.7898 31.3427 37.5478 31.585 37.249 31.585C36.9502 31.585 36.7082 31.3427 36.708 31.0439C36.708 30.745 36.9501 30.502 37.249 30.502ZM45.7695 30.502C46.0684 30.502 46.3105 30.745 46.3105 31.0439C46.3104 31.3427 46.0683 31.585 45.7695 31.585C45.4709 31.5848 45.2287 31.3426 45.2285 31.0439C45.2285 30.7451 45.4708 30.5021 45.7695 30.502ZM54.291 30.502C54.5898 30.5021 54.832 30.7451 54.832 31.0439C54.8318 31.3426 54.5897 31.5848 54.291 31.585C53.9922 31.585 53.7502 31.3427 53.75 31.0439C53.75 30.745 53.9921 30.502 54.291 30.502ZM62.8115 30.502C63.1104 30.502 63.3535 30.745 63.3535 31.0439C63.3533 31.3427 63.1103 31.585 62.8115 31.585C62.5129 31.5847 62.2707 31.3425 62.2705 31.0439C62.2705 30.7452 62.5128 30.5022 62.8115 30.502ZM71.333 30.502C71.6318 30.5021 71.874 30.7451 71.874 31.0439C71.8738 31.3426 71.6317 31.5848 71.333 31.585C71.0342 31.585 70.7922 31.3427 70.792 31.0439C70.792 30.745 71.0341 30.502 71.333 30.502ZM79.8535 30.502C80.1524 30.502 80.3955 30.745 80.3955 31.0439C80.3953 31.3427 80.1523 31.585 79.8535 31.585C79.5549 31.5848 79.3127 31.3426 79.3125 31.0439C79.3125 30.7452 79.5548 30.5022 79.8535 30.502ZM88.375 30.502C88.6738 30.5021 88.916 30.7452 88.916 31.0439C88.9158 31.3426 88.6736 31.5848 88.375 31.585C88.0762 31.585 87.8332 31.3427 87.833 31.0439C87.833 30.745 88.0761 30.502 88.375 30.502ZM96.8955 30.502C97.1944 30.502 97.4375 30.745 97.4375 31.0439C97.4373 31.3427 97.1943 31.585 96.8955 31.585C96.5969 31.5848 96.3547 31.3426 96.3545 31.0439C96.3545 30.7452 96.5968 30.5021 96.8955 30.502ZM105.417 30.502C105.716 30.5021 105.958 30.7451 105.958 31.0439C105.958 31.3426 105.716 31.5849 105.417 31.585C105.118 31.585 104.876 31.3427 104.876 31.0439C104.876 30.745 105.118 30.502 105.417 30.502ZM113.938 30.502C114.236 30.502 114.479 30.745 114.479 31.0439C114.478 31.3427 114.236 31.585 113.938 31.585C113.639 31.5848 113.397 31.3426 113.396 31.0439C113.396 30.7451 113.639 30.5021 113.938 30.502ZM122.459 30.502C122.758 30.5021 123 30.7451 123 31.0439C123 31.3426 122.758 31.5848 122.459 31.585C122.16 31.585 121.918 31.3427 121.918 31.0439C121.918 30.745 122.16 30.502 122.459 30.502ZM-30.9189 20.7607C-30.6201 20.7607 -30.378 21.0029 -30.3779 21.3018C-30.3779 21.6007 -30.62 21.8428 -30.9189 21.8428C-31.2178 21.8427 -31.46 21.6006 -31.46 21.3018C-31.4599 21.003 -31.2177 20.7608 -30.9189 20.7607ZM-22.3984 20.7607C-22.0996 20.7607 -21.8575 21.0029 -21.8574 21.3018C-21.8574 21.6007 -22.0995 21.8428 -22.3984 21.8428C-22.6972 21.8426 -22.9395 21.6006 -22.9395 21.3018C-22.9394 21.003 -22.6972 20.7609 -22.3984 20.7607ZM-13.877 20.7607C-13.5781 20.7608 -13.336 21.0029 -13.3359 21.3018C-13.3359 21.6006 -13.5781 21.8428 -13.877 21.8428C-14.1759 21.8428 -14.418 21.6007 -14.418 21.3018C-14.4179 21.0029 -14.1758 20.7607 -13.877 20.7607ZM-5.35645 20.7607C-5.05757 20.7607 -4.81449 21.0029 -4.81445 21.3018C-4.81445 21.6007 -5.05754 21.8428 -5.35645 21.8428C-5.65515 21.8425 -5.89746 21.6005 -5.89746 21.3018C-5.89742 21.003 -5.65513 20.761 -5.35645 20.7607ZM3.16504 20.7607C3.46387 20.7608 3.70602 21.0029 3.70605 21.3018C3.70605 21.6006 3.4639 21.8427 3.16504 21.8428C2.86614 21.8428 2.62402 21.6007 2.62402 21.3018C2.62406 21.0029 2.86616 20.7607 3.16504 20.7607ZM11.6855 20.7607C11.9844 20.7607 12.2275 21.0029 12.2275 21.3018C12.2275 21.6007 11.9844 21.8428 11.6855 21.8428C11.3868 21.8426 11.1445 21.6005 11.1445 21.3018C11.1446 21.003 11.3868 20.7609 11.6855 20.7607ZM20.207 20.7607C20.5058 20.7609 20.748 21.003 20.748 21.3018C20.748 21.6006 20.5058 21.8426 20.207 21.8428C19.9081 21.8428 19.665 21.6007 19.665 21.3018C19.6651 21.0029 19.9082 20.7607 20.207 20.7607ZM28.7275 20.7607C29.0264 20.7607 29.2695 21.0029 29.2695 21.3018C29.2695 21.6007 29.0264 21.8428 28.7275 21.8428C28.4288 21.8426 28.1865 21.6005 28.1865 21.3018C28.1866 21.003 28.4288 20.7609 28.7275 20.7607ZM37.249 20.7607C37.5479 20.7607 37.79 21.0029 37.79 21.3018C37.79 21.6007 37.5479 21.8428 37.249 21.8428C36.9501 21.8428 36.708 21.6007 36.708 21.3018C36.708 21.0029 36.9501 20.7607 37.249 20.7607ZM45.7695 20.7607C46.0684 20.7607 46.3105 21.0029 46.3105 21.3018C46.3105 21.6007 46.0684 21.8428 45.7695 21.8428C45.4708 21.8426 45.2285 21.6006 45.2285 21.3018C45.2286 21.003 45.4708 20.7609 45.7695 20.7607ZM54.291 20.7607C54.5898 20.7609 54.832 21.003 54.832 21.3018C54.832 21.6006 54.5898 21.8427 54.291 21.8428C53.9921 21.8428 53.75 21.6007 53.75 21.3018C53.75 21.0029 53.9921 20.7607 54.291 20.7607ZM62.8115 20.7607C63.1104 20.7607 63.3535 21.0029 63.3535 21.3018C63.3535 21.6007 63.1104 21.8428 62.8115 21.8428C62.5128 21.8425 62.2705 21.6005 62.2705 21.3018C62.2705 21.003 62.5128 20.761 62.8115 20.7607ZM71.333 20.7607C71.6318 20.7609 71.874 21.003 71.874 21.3018C71.874 21.6006 71.6318 21.8426 71.333 21.8428C71.0341 21.8428 70.792 21.6007 70.792 21.3018C70.792 21.0029 71.0341 20.7607 71.333 20.7607ZM79.8535 20.7607C80.1524 20.7607 80.3955 21.0029 80.3955 21.3018C80.3955 21.6007 80.1524 21.8428 79.8535 21.8428C79.5548 21.8426 79.3125 21.6005 79.3125 21.3018C79.3125 21.003 79.5548 20.7609 79.8535 20.7607ZM88.375 20.7607C88.6737 20.7609 88.916 21.003 88.916 21.3018C88.916 21.6006 88.6738 21.8426 88.375 21.8428C88.0761 21.8428 87.833 21.6007 87.833 21.3018C87.833 21.0029 88.0761 20.7607 88.375 20.7607ZM96.8955 20.7607C97.1944 20.7607 97.4375 21.0029 97.4375 21.3018C97.4375 21.6007 97.1944 21.8428 96.8955 21.8428C96.5968 21.8426 96.3545 21.6006 96.3545 21.3018C96.3545 21.003 96.5968 20.7609 96.8955 20.7607ZM105.417 20.7607C105.716 20.7608 105.958 21.003 105.958 21.3018C105.958 21.6006 105.716 21.8427 105.417 21.8428C105.118 21.8428 104.876 21.6007 104.876 21.3018C104.876 21.0029 105.118 20.7607 105.417 20.7607ZM113.938 20.7607C114.236 20.7607 114.478 21.0029 114.479 21.3018C114.479 21.6007 114.236 21.8428 113.938 21.8428C113.639 21.8426 113.396 21.6006 113.396 21.3018C113.397 21.003 113.639 20.7609 113.938 20.7607ZM122.459 20.7607C122.758 20.7609 123 21.003 123 21.3018C123 21.6006 122.758 21.8426 122.459 21.8428C122.16 21.8428 121.918 21.6007 121.918 21.3018C121.918 21.0029 122.16 20.7607 122.459 20.7607ZM-30.9189 11.0186C-30.6202 11.0186 -30.3782 11.2609 -30.3779 11.5596C-30.3779 11.8585 -30.62 12.1016 -30.9189 12.1016C-31.2178 12.1015 -31.46 11.8584 -31.46 11.5596C-31.4597 11.2609 -31.2176 11.0187 -30.9189 11.0186ZM-22.3984 11.0186C-22.0995 11.0186 -21.8574 11.2616 -21.8574 11.5605C-21.8577 11.8592 -22.0997 12.1016 -22.3984 12.1016C-22.6971 12.1014 -22.9392 11.8592 -22.9395 11.5605C-22.9395 11.2617 -22.6972 11.0187 -22.3984 11.0186ZM-13.877 11.0186C-13.5781 11.0186 -13.3359 11.2617 -13.3359 11.5605C-13.3362 11.8592 -13.5782 12.1015 -13.877 12.1016C-14.1757 12.1016 -14.4177 11.8592 -14.418 11.5605C-14.418 11.2616 -14.1759 11.0186 -13.877 11.0186ZM-5.35645 11.0186C-5.05754 11.0186 -4.81445 11.2616 -4.81445 11.5605C-4.81469 11.8592 -5.05769 12.1016 -5.35645 12.1016C-5.655 12.1013 -5.89722 11.8591 -5.89746 11.5605C-5.89746 11.2618 -5.65515 11.0188 -5.35645 11.0186ZM3.16504 11.0186C3.4639 11.0186 3.70605 11.2617 3.70605 11.5605C3.70582 11.8592 3.46376 12.1015 3.16504 12.1016C2.86628 12.1016 2.62426 11.8592 2.62402 11.5605C2.62402 11.2616 2.86614 11.0186 3.16504 11.0186ZM11.6855 11.0186C11.9844 11.0186 12.2275 11.2616 12.2275 11.5605C12.2273 11.8592 11.9843 12.1016 11.6855 12.1016C11.387 12.1014 11.1448 11.8591 11.1445 11.5605C11.1445 11.2618 11.3868 11.0188 11.6855 11.0186ZM20.207 11.0186C20.5058 11.0187 20.748 11.2618 20.748 11.5605C20.7478 11.8591 20.5056 12.1014 20.207 12.1016C19.9083 12.1016 19.6653 11.8592 19.665 11.5605C19.665 11.2616 19.9081 11.0186 20.207 11.0186ZM28.7275 11.0186C29.0264 11.0186 29.2695 11.2616 29.2695 11.5605C29.2693 11.8592 29.0263 12.1016 28.7275 12.1016C28.4289 12.1014 28.1868 11.8591 28.1865 11.5605C28.1865 11.2618 28.4288 11.0187 28.7275 11.0186ZM37.249 11.0186C37.5479 11.0186 37.79 11.2616 37.79 11.5605C37.7898 11.8592 37.5478 12.1016 37.249 12.1016C36.9503 12.1016 36.7082 11.8592 36.708 11.5605C36.708 11.2616 36.9501 11.0186 37.249 11.0186ZM45.7695 11.0186C46.0684 11.0186 46.3105 11.2616 46.3105 11.5605C46.3103 11.8592 46.0683 12.1016 45.7695 12.1016C45.4709 12.1014 45.2288 11.8592 45.2285 11.5605C45.2285 11.2617 45.4708 11.0187 45.7695 11.0186ZM54.291 11.0186C54.5898 11.0187 54.832 11.2617 54.832 11.5605C54.8318 11.8592 54.5897 12.1014 54.291 12.1016C53.9923 12.1016 53.7502 11.8592 53.75 11.5605C53.75 11.2616 53.9921 11.0186 54.291 11.0186ZM62.8115 11.0186C63.1104 11.0186 63.3535 11.2616 63.3535 11.5605C63.3533 11.8592 63.1103 12.1016 62.8115 12.1016C62.513 12.1013 62.2707 11.8591 62.2705 11.5605C62.2705 11.2618 62.5128 11.0188 62.8115 11.0186ZM71.333 11.0186C71.6318 11.0187 71.874 11.2617 71.874 11.5605C71.8738 11.8592 71.6316 12.1014 71.333 12.1016C71.0343 12.1016 70.7922 11.8592 70.792 11.5605C70.792 11.2616 71.0341 11.0186 71.333 11.0186ZM79.8535 11.0186C80.1524 11.0186 80.3955 11.2616 80.3955 11.5605C80.3953 11.8592 80.1523 12.1016 79.8535 12.1016C79.5549 12.1014 79.3127 11.8591 79.3125 11.5605C79.3125 11.2618 79.5548 11.0188 79.8535 11.0186ZM88.375 11.0186C88.6738 11.0187 88.916 11.2618 88.916 11.5605C88.9158 11.8591 88.6736 12.1014 88.375 12.1016C88.0762 12.1016 87.8332 11.8592 87.833 11.5605C87.833 11.2616 88.0761 11.0186 88.375 11.0186ZM96.8955 11.0186C97.1944 11.0186 97.4375 11.2616 97.4375 11.5605C97.4373 11.8592 97.1943 12.1016 96.8955 12.1016C96.5969 12.1014 96.3547 11.8591 96.3545 11.5605C96.3545 11.2618 96.5968 11.0187 96.8955 11.0186ZM105.417 11.0186C105.716 11.0187 105.958 11.2617 105.958 11.5605C105.958 11.8592 105.716 12.1015 105.417 12.1016C105.118 12.1016 104.876 11.8592 104.876 11.5605C104.876 11.2616 105.118 11.0186 105.417 11.0186ZM113.938 11.0186C114.236 11.0186 114.479 11.2616 114.479 11.5605C114.478 11.8592 114.236 12.1016 113.938 12.1016C113.639 12.1014 113.397 11.8592 113.396 11.5605C113.396 11.2617 113.639 11.0187 113.938 11.0186ZM122.459 11.0186C122.758 11.0187 123 11.2617 123 11.5605C123 11.8592 122.758 12.1014 122.459 12.1016C122.16 12.1016 121.918 11.8592 121.918 11.5605C121.918 11.2616 122.16 11.0186 122.459 11.0186Z" fill="url(#paint1_radial_4565_44638)"/>
</g>
</g>
<defs>
<filter id="filter0_ii_4565_44638" x="0" y="-1" width="93" height="93" filterUnits="userSpaceOnUse" color-interpolation-filters="sRGB">
<feFlood flood-opacity="0" result="BackgroundImageFix"/>
<feBlend mode="normal" in="SourceGraphic" in2="BackgroundImageFix" result="shape"/>
<feColorMatrix in="SourceAlpha" type="matrix" values="0 0 0 0 0 0 0 0 0 0 0 0 0 0 0 0 0 0 127 0" result="hardAlpha"/>
<feOffset dy="1.20588"/>
<feComposite in2="hardAlpha" operator="arithmetic" k2="-1" k3="1"/>
<feColorMatrix type="matrix" values="0 0 0 0 1 0 0 0 0 1 0 0 0 0 1 0 0 0 0.25 0"/>
<feBlend mode="normal" in2="shape" result="effect1_innerShadow_4565_44638"/>
<feColorMatrix in="SourceAlpha" type="matrix" values="0 0 0 0 0 0 0 0 0 0 0 0 0 0 0 0 0 0 127 0" result="hardAlpha"/>
<feOffset dx="1" dy="-1"/>
<feGaussianBlur stdDeviation="0.5"/>
<feComposite in2="hardAlpha" operator="arithmetic" k2="-1" k3="1"/>
<feColorMatrix type="matrix" values="0 0 0 0 0.486275 0 0 0 0 0.501961 0 0 0 0 0.521569 0 0 0 0.1 0"/>
<feBlend mode="normal" in2="effect1_innerShadow_4565_44638" result="effect2_innerShadow_4565_44638"/>
</filter>
<filter id="filter1_f_4565_44638" x="-28.9412" y="7.23529" width="138.677" height="138.676" filterUnits="userSpaceOnUse" color-interpolation-filters="sRGB">
<feFlood flood-opacity="0" result="BackgroundImageFix"/>
<feBlend mode="normal" in="SourceGraphic" in2="BackgroundImageFix" result="shape"/>
<feGaussianBlur stdDeviation="20.5" result="effect1_foregroundBlur_4565_44638"/>
</filter>
<filter id="filter2_f_4565_44638" x="9.29419" y="-3.05884" width="138.677" height="138.676" filterUnits="userSpaceOnUse" color-interpolation-filters="sRGB">
<feFlood flood-opacity="0" result="BackgroundImageFix"/>
<feBlend mode="normal" in="SourceGraphic" in2="BackgroundImageFix" result="shape"/>
<feGaussianBlur stdDeviation="20.5" result="effect1_foregroundBlur_4565_44638"/>
</filter>
<radialGradient id="paint0_radial_4565_44638" cx="0" cy="0" r="1" gradientUnits="userSpaceOnUse" gradientTransform="translate(70 33.5) rotate(135.963) scale(84.1576)">
<stop stop-color="#2D353D"/>
<stop offset="1" stop-color="#7C8791"/>
</radialGradient>
<radialGradient id="paint1_radial_4565_44638" cx="0" cy="0" r="1" gradientUnits="userSpaceOnUse" gradientTransform="translate(45.77 94.3647) rotate(90) scale(46.544 62.6463)">
<stop stop-color="#8D99A2"/>
<stop offset="1" stop-color="#8D99A2" stop-opacity="0"/>
</radialGradient>
<clipPath id="clip0_4565_44638">
<rect width="92" height="92" rx="10.8529" fill="white"/>
</clipPath>
</defs>
</svg>
