<svg width="18" height="18" viewBox="0 0 18 18" fill="none" xmlns="http://www.w3.org/2000/svg">
<mask id="mask0_5_27" style="mask-type:alpha" maskUnits="userSpaceOnUse" x="0" y="0" width="18" height="18">
<circle cx="9" cy="9" r="9" fill="#D9D9D9"/>
</mask>
<g mask="url(#mask0_5_27)">
<path d="M0 2.99631C0 1.3415 1.3415 0 2.99631 0H14.9816C16.6364 0 17.9779 1.3415 17.9779 2.99631V14.9816C17.9779 16.6364 16.6364 17.9779 14.9816 17.9779H2.99631C1.3415 17.9779 0 16.6364 0 14.9816V2.99631Z" fill="#F0B90B"/>
<path d="M5.39392 4.52411L8.82001 2.52L12.2461 4.52411L10.9865 5.26448L8.82001 4.00075L6.65351 5.26448L5.39392 4.52411ZM12.2461 7.05159L10.9865 6.31121L8.82001 7.57495L6.65351 6.31121L5.39392 7.05159V8.53233L7.56041 9.79607V12.3235L8.82001 13.0639L10.0796 12.3235V9.79607L12.2461 8.53233V7.05159ZM12.2461 11.0598V9.57906L10.9865 10.3194V11.8002L12.2461 11.0598ZM13.1404 11.5832L10.9739 12.8469V14.3276L14.4 12.3235V8.31532L13.1404 9.05569V11.5832ZM11.8808 5.78785L13.1404 6.52822V8.00896L14.4 7.26859V5.78785L13.1404 5.04748L11.8808 5.78785ZM7.56041 13.383V14.8638L8.82001 15.6041L10.0796 14.8638V13.383L8.82001 14.1234L7.56041 13.383ZM5.39392 11.0598L6.65351 11.8002V10.3194L5.39392 9.57906V11.0598ZM7.56041 5.78785L8.82001 6.52822L10.0796 5.78785L8.82001 5.04748L7.56041 5.78785ZM4.4996 6.52822L5.75919 5.78785L4.4996 5.04748L3.24001 5.78785V7.26859L4.4996 8.00896V6.52822ZM4.4996 9.05569L3.24001 8.31532V12.3235L6.6661 14.3276V12.8469L4.4996 11.5832V9.05569Z" fill="white"/>
</g>
</svg>
