<?xml version="1.0" encoding="UTF-8"?>
<svg width="18px" height="18px" viewBox="0 0 18 18" version="1.1" xmlns="http://www.w3.org/2000/svg" xmlns:xlink="http://www.w3.org/1999/xlink">
    <title>E8EBD6B2-C295-4217-AE29-D0D381C8F4CE@1x</title>
    <g id="✅-Currencies" stroke="none" stroke-width="1" fill="none" fill-rule="evenodd">
        <g id="All-Dropdowns-&amp;-Currencies" transform="translate(-495.000000, -278.000000)">
            <g id="USD" transform="translate(346.000000, 50.000000)">
                <g id="Balance-Selector" transform="translate(1.000000, 77.000000)">
                    <g id="BTC" transform="translate(6.000000, 143.000000)">
                        <g id="btc" transform="translate(142.000000, 8.000000)">
                            <path d="M9,0 C4.02943725,0 0,4.02943725 0,9 C0,13.9705627 4.02943725,18 9,18 C13.9705627,18 18,13.9705627 18,9 C18,4.02943725 13.9705627,0 9,0 Z" id="Path" fill="#F7931A"></path>
                            <path d="M13.0438125,7.88625 C13.2181875,6.70725 12.3181875,6.069375 11.09475,5.6475 L11.4885,4.05 L10.515375,3.808125 L10.125,5.360625 C9.86625,5.293125 9.6075,5.236875 9.343125,5.175 L9.73125,3.605625 L8.758125,3.358125 L8.35875,4.95 C8.145,4.899375 7.936875,4.854375 7.734375,4.80375 L7.734375,4.798125 L6.39,4.460625 L6.13125,5.495625 C6.13125,5.495625 6.85125,5.65875 6.834375,5.67 C7.228125,5.765625 7.295625,6.024375 7.284375,6.2325 L6.82875,8.049375 C6.85125,8.055 6.890625,8.06625 6.93,8.0775 L6.823125,8.049375 L6.1875,10.5975 C6.136875,10.715625 6.013125,10.895625 5.7375,10.828125 C5.743125,10.839375 5.02875,10.648125 5.02875,10.648125 L4.545,11.75625 L5.810625,12.07125 C6.04125,12.1275 6.271875,12.189375 6.5025,12.245625 L6.0975,13.861125 L7.065,14.103 L7.45875,12.5055 C7.723125,12.573 7.981875,12.6405 8.229375,12.702375 L7.83,14.288625 L8.7975,14.5305 L9.196875,12.916125 C10.850625,13.2255 12.099375,13.10175 12.6225,11.599875 C13.044375,10.3905 12.6,9.693 11.728125,9.241875 C12.36375,9.095625 12.841875,8.67375 12.965625,7.813125 L13.0438125,7.88625 Z M10.8219375,11.001375 C10.5181875,12.205125 8.4886875,11.552625 7.8294375,11.3895 L8.3638125,9.246375 C9.0219375,9.4095 11.1313125,9.73575 10.8219375,10.99575 L10.8219375,11.001375 Z M11.1200625,7.86825 C10.8444375,8.965125 9.1513125,8.40825 8.6056875,8.267625 L9.0894375,6.327 C9.6350625,6.462 11.4013125,6.715125 11.1200625,7.862625 L11.1200625,7.86825 Z" id="Shape" fill="#FFFFFF" fill-rule="nonzero"></path>
                        </g>
                    </g>
                </g>
            </g>
        </g>
    </g>
</svg>