<svg width="18" height="18" viewBox="0 0 18 18" fill="none" xmlns="http://www.w3.org/2000/svg">
<g clip-path="url(#clip0_1277_229)">
<path fill-rule="evenodd" clip-rule="evenodd" d="M9 0C4.02944 0 0 4.02944 0 9C0 13.9706 4.02944 18 9 18C13.9706 18 18 13.9706 18 9C18 4.02944 13.9706 0 9 0Z" fill="#10437A"/>
<path d="M10.7586 4.6195C10.7481 4.60376 10.7469 4.5837 10.7559 4.56704C10.7648 4.55038 10.7821 4.54004 10.8009 4.54004H11.649C11.6664 4.54004 11.683 4.5493 11.6921 4.56426L12.4084 5.71709L13.1245 4.56426C13.1339 4.5493 13.1501 4.54004 13.1678 4.54004H14.0031C14.0218 4.54004 14.0389 4.55038 14.048 4.56688C14.0571 4.58339 14.0562 4.60345 14.0455 4.61919L12.8558 6.42897C12.8463 6.44332 12.8302 6.45196 12.8134 6.45196H12.0033C11.9866 6.45196 11.9704 6.44347 11.961 6.42928L10.7586 4.6195ZM14.4569 13.1579L14.2038 12.2973C14.1995 12.2821 14.1884 12.2701 14.1742 12.2644C14.1594 12.2584 14.1434 12.2596 14.1296 12.2673C13.9024 12.3972 13.4986 12.5518 12.8642 12.5518C11.4043 12.5518 10.7509 11.4141 10.7509 10.2866C10.7509 8.94693 11.585 8.04697 12.8262 8.04697C13.4401 8.04697 13.8433 8.20141 14.1728 8.34629C14.1864 8.35246 14.2025 8.35215 14.2162 8.34521C14.2299 8.33842 14.2393 8.32577 14.243 8.31096L14.4328 7.47565C14.4376 7.45297 14.4271 7.42967 14.4063 7.41903C14.0881 7.25286 13.4301 7.05892 12.6235 7.05892C10.7687 7.05892 9.52202 8.33564 9.52202 10.2361C9.52202 12.1812 10.8961 13.54 12.8639 13.54C13.5454 13.54 14.1336 13.3665 14.4308 13.2184C14.453 13.2071 14.4641 13.1816 14.4569 13.1579ZM6.05767 9.0756L9.49548 4.77579C9.51878 4.74678 9.52264 4.70759 9.5052 4.67566C9.48839 4.64295 9.45429 4.62305 9.41664 4.62305H7.96974C7.9395 4.62305 7.90895 4.63755 7.89075 4.66069L4.85053 8.51971V4.71809C4.85053 4.66563 4.80625 4.62305 4.75132 4.62305H3.58584C3.53092 4.62305 3.48633 4.66563 3.48633 4.71809V13.2193C3.48633 13.272 3.53076 13.3145 3.58584 13.3145H4.75132C4.8061 13.3145 4.85053 13.272 4.85053 13.2193V10.0712L5.16574 10.0658L8.25502 13.2839C8.27369 13.3032 8.30022 13.3145 8.32769 13.3145H9.70763C9.74574 13.3145 9.78153 13.2927 9.79835 13.2589C9.81439 13.2253 9.80838 13.1858 9.7823 13.1566L6.05767 9.0756Z" fill="white"/>
</g>
<defs>
<clipPath id="clip0_1277_229">
<rect width="18" height="18" fill="white"/>
</clipPath>
</defs>
</svg>
