<svg width="33" height="32" viewBox="0 0 33 32" fill="none" xmlns="http://www.w3.org/2000/svg">
<path d="M12.3334 21.3332H16.3334C18.3334 21.3332 20.0667 20.2665 21 18.6665H12.3334V21.3332Z" fill="#FAB428"/>
<path d="M16.3334 10.6665H12.3334V13.3332H21C20.0667 11.7332 18.3334 10.6665 16.3334 10.6665Z" fill="#FAB428"/>
<path d="M16.3334 1.33325C8.20008 1.33325 1.66675 7.86659 1.66675 15.9999C1.66675 24.1333 8.20008 30.6666 16.3334 30.6666C24.4667 30.6666 31.0001 24.1333 31.0001 15.9999C31.0001 7.86659 24.4667 1.33325 16.3334 1.33325ZM24.3334 14.6666H22.8667C23.0001 15.0666 23.0001 15.5999 23.0001 15.9999C23.0001 16.3999 23.0001 16.9333 22.8667 17.3333H24.3334V18.6666H22.4667C21.4001 21.0666 19.1334 22.6666 16.3334 22.6666H11.0001V18.6666H9.00008V17.3333H11.0001V14.6666H9.00008V13.3333H11.0001V9.33325H16.3334C19.0001 9.33325 21.4001 10.9333 22.4667 13.3333H24.3334V14.6666Z" fill="#FAB428"/>
<path d="M12.3334 14.6665V17.3332H21.5334C21.6667 16.9332 21.6667 16.3998 21.6667 15.9998C21.6667 15.5998 21.6667 15.0665 21.5334 14.6665H12.3334Z" fill="#FAB428"/>
</svg>
