<svg width="18" height="18" viewBox="0 0 18 18" fill="none" xmlns="http://www.w3.org/2000/svg">
<g clip-path="url(#clip0_1_351)">
<path fill-rule="evenodd" clip-rule="evenodd" d="M9 0C4.02944 0 0 4.02944 0 9C0 13.9706 4.02944 18 9 18C13.9706 18 18 13.9706 18 9C18 4.02944 13.9706 0 9 0Z" fill="#C2A633"/>
<g clip-path="url(#clip1_1_351)">
<rect x="3.92361" y="3.62682" width="10.0825" height="10.9422" fill="white"/>
<path fill-rule="evenodd" clip-rule="evenodd" d="M0.015686 8.99995C0.015686 4.24086 3.87361 0.382935 8.6327 0.382935C13.3918 0.382935 17.2497 4.24086 17.2497 8.99995C17.2497 13.759 13.3918 17.617 8.6327 17.617C3.87361 17.617 0.015686 13.759 0.015686 8.99995ZM5.85061 13.654H8.97126H8.97135C8.97135 13.654 13.3592 14.0218 13.3592 9.07483C13.3592 4.31968 9.35227 4.33655 8.57784 4.33981C8.55972 4.33988 8.54336 4.33995 8.52886 4.33995H5.85052V8.48896H4.75056V9.50525H5.85061V13.654ZM7.60828 6.06169H8.83948C9.29997 6.06169 11.6167 6.24704 11.6204 9.10849C11.6241 11.9359 9.28828 11.9329 8.91252 11.9325C8.90799 11.9325 8.90375 11.9325 8.89979 11.9325H7.60828V9.50531H9.54529V8.48902H7.60828V6.06169Z" fill="#C2A633"/>
</g>
</g>
<defs>
<clipPath id="clip0_1_351">
<rect width="18" height="18" fill="white"/>
</clipPath>
<clipPath id="clip1_1_351">
<rect width="17.2653" height="17.2653" fill="white" transform="translate(0 0.367432)"/>
</clipPath>
</defs>
</svg>
