<?xml version="1.0" encoding="UTF-8"?>
<svg width="18px" height="18px" viewBox="0 0 18 18" version="1.1" xmlns="http://www.w3.org/2000/svg" xmlns:xlink="http://www.w3.org/1999/xlink">
    <title>89FF31D0-A46F-48A9-B221-FF225DE507FB@1x</title>
    <g id="✅-Currencies" stroke="none" stroke-width="1" fill="none" fill-rule="evenodd">
        <g id="All-Dropdowns-&amp;-Currencies" transform="translate(-121.000000, -102.000000)">
            <g id="Euro" transform="translate(50.000000, 50.000000)">
                <g id="Normal-Balance" transform="translate(0.000000, 41.000000)">
                    <g id="eur.1" transform="translate(71.000000, 11.000000)">
                        <path d="M9,0 C4.02943725,0 0,4.02943725 0,9 C0,13.9705627 4.02943725,18 9,18 C13.9705627,18 18,13.9705627 18,9 C18,4.02943725 13.9705627,0 9,0 Z" id="Path" fill="#0F8FF8"></path>
                        <path d="M4.5,10.68975 L4.955625,9.559125 L5.43375,9.559125 L5.428125,9.5535 C5.41125,9.356625 5.405625,9.165375 5.405625,8.974125 C5.405625,8.721 5.41125,8.48475 5.43375,8.271 L4.483125,8.271 L4.93875,7.1443125 L5.653125,7.1443125 C6.32025,4.9955625 7.824375,3.9268125 10.15875,3.9268125 C10.92375,3.9268125 11.655,4.0224375 12.346875,4.2260625 L12.346875,5.6435625 L12.34125,5.6379375 C11.68875,5.3454375 10.98,5.1935625 10.265625,5.1991875 C8.859375,5.1991875 7.961625,5.8404375 7.56,7.1285625 L11.73375,7.1285625 L11.278125,8.25525 L7.284375,8.25525 L7.27875,8.25525 C7.250625,8.43525 7.239375,8.6265 7.245,8.812125 C7.245,9.0765 7.250625,9.3223125 7.2675,9.532125 L10.74375,9.532125 L10.29375,10.6588125 L7.50375,10.6588125 C7.801875,11.4350625 8.1675,11.9806875 8.595,12.2900625 C9.0225,12.5938125 9.635625,12.7456875 10.434375,12.7456875 C11.0025,12.7456875 11.6296875,12.6050625 12.3075,12.3238125 L12.3075,13.6569375 C11.660625,13.8988125 10.89,14.0169375 10.00125,14.0169375 C7.655625,14.0169375 6.170625,12.8919375 5.551875,10.6419375 L4.5,10.68975 Z" id="Path" fill="#FFFFFF"></path>
                    </g>
                </g>
            </g>
        </g>
    </g>
</svg>