<svg width="32" height="32" viewBox="0 0 32 32" fill="none" xmlns="http://www.w3.org/2000/svg">
<g clip-path="url(#clip0_2735_35160)">
<path d="M16 32C24.8366 32 32 24.8366 32 16C32 7.16344 24.8366 0 16 0C7.16344 0 0 7.16344 0 16C0 24.8366 7.16344 32 16 32Z" fill="url(#paint0_linear_2735_35160)"/>
<path d="M15.9986 20.3584L10.6226 17.1824L15.9986 24.76L21.3794 17.1824L15.9986 20.3584Z" fill="white"/>
<path d="M21.3758 16.1632L15.9982 19.3408L10.6206 16.1632L15.9982 7.23999L21.3758 16.1632Z" fill="white"/>
<path d="M21.3761 16.1632L15.9985 13.7184V7.23999L21.3761 16.1632Z" fill="#C1CCF7"/>
<path d="M21.3793 17.1826L15.9985 24.7602V20.3586L21.3793 17.1826Z" fill="#C1CCF7"/>
<path d="M15.9986 13.7185V19.3409L10.6226 16.1633L15.9986 13.7185Z" fill="#C1CCF7"/>
<path d="M21.3756 16.1633L15.998 19.3409V13.7185L21.3756 16.1633Z" fill="#8198EE"/>
</g>
<defs>
<linearGradient id="paint0_linear_2735_35160" x1="16" y1="32" x2="16" y2="0" gradientUnits="userSpaceOnUse">
<stop stop-color="#3E5EBD"/>
<stop offset="1" stop-color="#94AEFF"/>
</linearGradient>
<clipPath id="clip0_2735_35160">
<rect width="32" height="32" fill="white"/>
</clipPath>
</defs>
</svg>
