<?xml version="1.0" encoding="UTF-8"?>
<svg width="18px" height="18px" viewBox="0 0 18 18" version="1.1" xmlns="http://www.w3.org/2000/svg" xmlns:xlink="http://www.w3.org/1999/xlink">
    <title>F0D5BB2D-39B6-4322-B98A-0D85B2F8B9AF@1x</title>
    <g id="✅-Currencies" stroke="none" stroke-width="1" fill="none" fill-rule="evenodd">
        <g id="All-Dropdowns-&amp;-Currencies" transform="translate(-1383.000000, -189.000000)">
            <g id="JPY" transform="translate(1234.000000, 50.000000)">
                <g id="Balance-Selector" transform="translate(1.000000, 77.000000)">
                    <g id="USD" transform="translate(14.000000, 62.000000)">
                        <g id="jpy" transform="translate(134.000000, 0.000000)">
                            <path d="M9,0 C4.02943725,0 0,4.02943725 0,9 C0,13.9705627 4.02943725,18 9,18 C13.9705627,18 18,13.9705627 18,9 C18,4.02943725 13.9705627,0 9,0 Z" id="Path" fill="#EAC749"></path>
                            <polygon id="Path" fill="#FFFFFF" points="9.87075 10.524375 9.87075 11.57625 12.717 11.57625 12.717 12.85875 9.865125 12.85875 9.865125 14.3325 8.1225 14.3325 8.1225 12.853125 5.270625 12.853125 5.270625 11.565 8.116875 11.565 8.116875 10.5075 5.265 10.5075 5.265 9.219375 7.610625 9.219375 4.201875 4.19625 6.31125 4.19625 9.01125 8.431875 11.71125 4.190625 13.75875 4.190625 10.333125 9.208125 12.69 9.208125 12.69 10.490625"></polygon>
                        </g>
                    </g>
                </g>
            </g>
        </g>
    </g>
</svg>