<?xml version="1.0" encoding="UTF-8"?>
<svg width="18px" height="18px" viewBox="0 0 18 18" version="1.1" xmlns="http://www.w3.org/2000/svg" xmlns:xlink="http://www.w3.org/1999/xlink">
    <title>CE7D6564-440C-4571-8139-BA00A8BB7CAC@1x</title>
    <g id="✅-Currencies" stroke="none" stroke-width="1" fill="none" fill-rule="evenodd">
        <g id="All-Dropdowns-&amp;-Currencies" transform="translate(-1975.000000, -189.000000)">
            <g id="JPY" transform="translate(1826.000000, 50.000000)">
                <g id="Balance-Selector" transform="translate(1.000000, 77.757359)">
                    <g id="USD" transform="translate(14.000000, 61.242641)">
                        <g id="krw" transform="translate(134.000000, 0.000000)">
                            <path d="M9,0 C4.02943725,0 0,4.02943725 0,9 C0,13.9705627 4.02943725,18 9,18 C13.9705627,18 18,13.9705627 18,9 C18,4.02943725 13.9705627,0 9,0 Z" id="Path" fill="#FDC653"></path>
                            <path d="M7.90231788,13 L8.41092715,9.79120879 L9.06788079,9.79120879 L9.56589404,13 L10.8850993,13 L11.5102649,9.79120879 L12.75,9.79120879 L12.75,8.91208791 L11.6850993,8.91208791 L11.8599338,8.02197802 L12.75,8.02197802 L12.75,7.14285714 L12.0294702,7.14285714 L12.4533113,5 L11.1182119,5 L10.7897351,7.14285714 L9.6718543,7.14285714 L9.34337748,5 L8.1513245,5 L7.8281457,7.14285714 L6.67847682,7.14285714 L6.34470199,5 L5.01490066,5 L5.43344371,7.14285714 L4.75,7.14285714 L4.75,8.02197802 L5.60827815,8.02197802 L5.78311258,8.91208791 L4.75,8.91208791 L4.75,9.79120879 L5.95264901,9.79120879 L6.58311258,13 L7.90231788,13 Z M7.55794702,8.91208791 L6.95397351,8.91208791 L6.81622517,8.02197802 L7.69569536,8.02197802 L7.55794702,8.91208791 Z M10.5195364,8.91208791 L9.94205298,8.91208791 L9.80430464,8.02197802 L10.6572848,8.02197802 L10.5195364,8.91208791 Z M8.93013245,8.91208791 L8.5486755,8.91208791 L8.69172185,8.02197802 L8.79238411,8.02197802 L8.93013245,8.91208791 Z M7.26125828,10.8736264 L7.09172185,9.79120879 L7.42549669,9.79120879 L7.26125828,10.8736264 Z M10.2334437,10.8186813 L10.0745033,9.79120879 L10.3870861,9.79120879 L10.2334437,10.8186813 Z" id="₩250.00" fill="#433009" fill-rule="nonzero"></path>
                        </g>
                    </g>
                </g>
            </g>
        </g>
    </g>
</svg>