<?xml version="1.0" encoding="UTF-8"?>
<svg width="18px" height="18px" viewBox="0 0 18 18" version="1.1" xmlns="http://www.w3.org/2000/svg" xmlns:xlink="http://www.w3.org/1999/xlink">
    <title>922D78A0-1C21-457F-8C82-FC230D9A81EB@1x</title>
    <g id="✅-Currencies" stroke="none" stroke-width="1" fill="none" fill-rule="evenodd">
        <g id="All-Dropdowns-&amp;-Currencies" transform="translate(-495.000000, -368.000000)">
            <g id="USD" transform="translate(346.000000, 50.000000)">
                <g id="Balance-Selector" transform="translate(1.000000, 77.000000)">
                    <g id="LTC" transform="translate(14.000000, 241.000000)">
                        <g id="ltc" transform="translate(134.000000, 0.000000)">
                            <path d="M9,0 C4.02943725,0 0,4.02943725 0,9 C0,13.9705627 4.02943725,18 9,18 C13.9705627,18 18,13.9705627 18,9 C18,4.02943725 13.9705627,0 9,0 Z" id="Path" fill="#BFBBBB"></path>
                            <polygon id="Path" fill="#FFFFFF" points="5.8651875 10.805625 5.0608125 11.115 5.4433125 9.5625 6.2533125 9.23625 7.4233125 4.494375 10.308375 4.494375 9.453375 7.979625 10.2465 7.653375 9.864 9.20025 9.059625 9.520875 8.5815 11.478375 12.924 11.478375 12.429 13.4865 5.180625 13.4865"></polygon>
                        </g>
                    </g>
                </g>
            </g>
        </g>
    </g>
</svg>