<svg width="32" height="32" viewBox="0 0 32 32" fill="none" xmlns="http://www.w3.org/2000/svg">
<g clip-path="url(#clip0_2627_46037)">
<path d="M16 32C24.8366 32 32 24.8366 32 16C32 7.16344 24.8366 0 16 0C7.16344 0 0 7.16344 0 16C0 24.8366 7.16344 32 16 32Z" fill="#8247E5"/>
<path d="M23.6112 15.3263L20 13.2431C19.8821 13.1739 19.7479 13.1374 19.6112 13.1374C19.4745 13.1374 19.3403 13.1739 19.2224 13.2431L12.784 16.9599C12.6648 17.0287 12.5296 17.065 12.392 17.065C12.2544 17.065 12.1192 17.0287 12 16.9599L9.9504 15.7759C9.83238 15.7074 9.73438 15.6092 9.66616 15.491C9.59794 15.3728 9.56189 15.2388 9.5616 15.1023V12.7279C9.56157 12.5914 9.59748 12.4573 9.66573 12.339C9.73398 12.2208 9.83216 12.1226 9.9504 12.0543L12 10.8671C12.1184 10.7995 12.2524 10.7639 12.3888 10.7639C12.5252 10.7639 12.6592 10.7995 12.7776 10.8671L14.8336 12.0543C14.9522 12.1222 15.0506 12.2203 15.1189 12.3387C15.1872 12.457 15.2229 12.5913 15.2224 12.7279V13.8687C15.2232 13.9024 15.2328 13.9352 15.2502 13.964C15.2677 13.9928 15.2924 14.0164 15.3219 14.0326C15.3514 14.0489 15.3846 14.057 15.4183 14.0563C15.4519 14.0556 15.4848 14.0461 15.5136 14.0287L16.584 13.4127C16.643 13.3783 16.6919 13.329 16.7259 13.2698C16.7598 13.2105 16.7777 13.1434 16.7776 13.0751V11.8287C16.7773 11.6923 16.7413 11.5583 16.673 11.4401C16.6048 11.3219 16.5068 11.2236 16.3888 11.1551L12.7776 9.07513C12.6594 9.00672 12.5253 8.9707 12.3888 8.9707C12.2523 8.9707 12.1182 9.00672 12 9.07513L8.3888 11.1551C8.27078 11.2236 8.17278 11.3219 8.10456 11.4401C8.03634 11.5583 8.00029 11.6923 8 11.8287V15.9999C8.00013 16.1364 8.03611 16.2705 8.10435 16.3887C8.17258 16.5069 8.27067 16.6051 8.3888 16.6735L12 18.7535C12.1182 18.8219 12.2523 18.858 12.3888 18.858C12.5253 18.858 12.6594 18.8219 12.7776 18.7535L19.216 15.0399C19.3352 14.9711 19.4704 14.9349 19.608 14.9349C19.7456 14.9349 19.8808 14.9711 20 15.0399L22.0624 16.2271C22.1789 16.2966 22.2753 16.3953 22.3421 16.5134C22.4089 16.6316 22.4437 16.765 22.4432 16.9007V19.2751C22.4437 19.4118 22.408 19.5461 22.3397 19.6644C22.2714 19.7827 22.173 19.8808 22.0544 19.9487L20 21.1327C19.8818 21.2011 19.7477 21.2372 19.6112 21.2372C19.4747 21.2372 19.3406 21.2011 19.2224 21.1327L17.1664 19.9455C17.0482 19.8773 16.95 19.7791 16.8817 19.6608C16.8135 19.5426 16.7776 19.4085 16.7776 19.2719V18.1327C16.7772 18.0812 16.7564 18.032 16.7199 17.9957C16.6833 17.9595 16.6339 17.9391 16.5824 17.9391C16.5487 17.9389 16.5155 17.9477 16.4864 17.9647L15.416 18.5823C15.357 18.6166 15.3081 18.6659 15.2744 18.7252C15.2407 18.7845 15.2233 18.8517 15.224 18.9199V20.1711C15.224 20.3075 15.2597 20.4414 15.3277 20.5596C15.3956 20.6778 15.4934 20.7761 15.6112 20.8447L19.2304 22.9247C19.3486 22.9931 19.4827 23.0292 19.6192 23.0292C19.7557 23.0292 19.8898 22.9931 20.008 22.9247L23.6192 20.8447C23.7373 20.7763 23.8354 20.6781 23.9037 20.5599C23.9719 20.4417 24.0079 20.3076 24.008 20.1711V15.9999C24.0071 15.8626 23.9699 15.7281 23.9002 15.6098C23.8305 15.4915 23.7308 15.3937 23.6112 15.3263Z" fill="white"/>
</g>
<defs>
<clipPath id="clip0_2627_46037">
<rect width="32" height="32" fill="white"/>
</clipPath>
</defs>
</svg>
