<svg width="18" height="18" viewBox="0 0 18 18" fill="none" xmlns="http://www.w3.org/2000/svg">
<g clip-path="url(#clip0_10_1169)">
<path fill-rule="evenodd" clip-rule="evenodd" d="M8.99999 0C4.02943 0 0 4.02943 0 8.99999C0 13.9705 4.02943 18 8.99999 18C13.9705 18 18 13.9705 18 8.99999C18 4.02943 13.9705 0 8.99999 0Z" fill="#294FF1"/>
<path d="M6.48006 5.98771L6.47385 7.96916L5.97484 8.00451C5.70039 8.02325 5.44051 8.03984 5.39885 8.03984L5.31982 8.04188V8.33304V8.62408H5.90203H6.48423V9.08978V9.55763L6.39686 9.56802C6.34695 9.57423 6.14318 9.5888 5.94358 9.60132C5.74397 9.61374 5.52147 9.6283 5.45079 9.63462L5.31982 9.64704V9.93607V10.2251H5.90203H6.48423V12.1067V13.9883H6.99363H7.50302V12.1067V10.2251L8.2224 10.2292L8.94178 10.2354L9.59884 12.1109L10.2538 13.9883H10.9066H11.5574V12.1067V10.2251H12.1188H12.6802V9.89236V9.55967H12.1188H11.5574V9.09193V8.62408H12.1188H12.6802V8.29138V7.95868H12.1188H11.5574V5.98344V4.0083H11.0584H10.5594V5.98354V7.95878L9.86909 7.95461L9.17886 7.9484L8.48647 5.98354C8.106 4.90233 7.79407 4.01665 7.79407 4.01247C7.79407 4.01043 7.49884 4.0083 7.13915 4.0083H6.48423L6.48006 5.98771ZM7.31584 5.18096C7.31584 5.18513 7.50302 5.79636 7.73164 6.53865C7.96037 7.27881 8.15376 7.90256 8.15998 7.92334C8.17036 7.95664 8.14745 7.95868 7.80028 7.9545L7.43021 7.9483L7.34283 6.66962C7.24303 5.18717 7.24099 5.1726 7.28458 5.1726C7.30139 5.1726 7.31584 5.17679 7.31584 5.18096ZM8.46987 8.89854C8.52394 9.05028 8.59879 9.26241 8.63831 9.36638L8.70694 9.55977H8.10611H7.50302V9.31445C7.50302 9.17717 7.49681 8.96718 7.48845 8.8466L7.47603 8.62408H7.9231H8.37221L8.46987 8.89854ZM10.5594 8.91931C10.5594 9.08358 10.5656 9.29357 10.574 9.38716L10.5863 9.55967H10.1622H9.73805L9.5801 9.09193L9.42205 8.62408H9.98966H10.5594V8.91931ZM10.6301 10.2708C10.6363 10.2978 10.6738 10.8467 10.7133 11.4934C10.7549 12.1401 10.7923 12.7035 10.7966 12.745C10.8028 12.8115 10.7986 12.824 10.7654 12.824C10.7446 12.824 10.7258 12.8199 10.7258 12.8137C10.7258 12.8075 10.0856 10.7137 9.94407 10.2605C9.93371 10.2272 9.95868 10.2252 10.2768 10.2252C10.6176 10.2251 10.6218 10.2251 10.6301 10.2708Z" fill="white"/>
</g>
<defs>
<clipPath id="clip0_10_1169">
<rect width="18" height="18" fill="white"/>
</clipPath>
</defs>
</svg>
