<svg width="18" height="18" viewBox="0 0 18 18" fill="none" xmlns="http://www.w3.org/2000/svg">
<g clip-path="url(#clip0_1277_201)">
<path fill-rule="evenodd" clip-rule="evenodd" d="M9 0C4.02944 0 0 4.02944 0 9C0 13.9706 4.02944 18 9 18C13.9706 18 18 13.9706 18 9C18 4.02944 13.9706 0 9 0Z" fill="#18236F"/>
<path fill-rule="evenodd" clip-rule="evenodd" d="M12.6565 10.7717C12.6565 12.2173 11.4808 13.1769 9.75059 13.3198V14.6192H8.56371V13.3029L8.55809 13.2973C7.38246 13.1623 6.26871 12.7123 5.33496 11.9923L6.20684 10.7942C6.98309 11.3961 7.72109 11.7898 8.60815 11.9248V9.34855C6.61127 8.84793 5.68877 8.12624 5.68877 6.6373C5.68877 5.21418 6.84809 4.24105 8.55359 4.11168V3.34668H9.74046V4.13418C10.663 4.23543 11.5517 4.57855 12.3055 5.1298L11.5405 6.36168C10.9386 5.92293 10.3255 5.6473 9.68421 5.51793V8.0098C11.7542 8.5048 12.643 9.30918 12.643 10.7267L12.6565 10.7717ZM8.61771 7.77355V5.45605C7.75709 5.51793 7.30877 5.97918 7.30877 6.55855C7.30877 7.1098 7.56752 7.46531 8.61377 7.76793L8.61771 7.77355ZM11.0421 10.8617C11.0421 10.2711 10.7552 9.91105 9.69152 9.61293V11.9923C10.5465 11.9248 11.0421 11.4917 11.0421 10.8617Z" fill="white"/>
</g>
<defs>
<clipPath id="clip0_1277_201">
<rect width="18" height="18" fill="white"/>
</clipPath>
</defs>
</svg>
