<svg width="32" height="32" viewBox="0 0 32 32" fill="none" xmlns="http://www.w3.org/2000/svg">
<rect width="32" height="32" rx="16" fill="#049E89"/>
<path d="M15.544 11.8149C15.544 11.0353 15.0226 10.667 14.2878 10.9275C12.9532 11.4018 11.619 11.8761 10.2885 12.3589C10.0736 12.4365 9.89072 12.4901 9.65929 12.6243C9.67842 12.6289 9.64132 12.7108 9.62946 12.7437C9.46344 13.195 9.55831 13.4322 9.99783 13.5978H9.99936C10.4802 13.778 10.9656 13.9467 11.4495 14.1196C11.6159 14.1793 11.7823 14.2386 11.9483 14.2998C12.1474 14.3719 12.3277 14.4881 12.4754 14.6398C12.4813 14.6458 12.4868 14.6522 12.4919 14.659C12.5773 14.7519 12.6489 14.8568 12.7042 14.9703C12.7053 14.9753 12.7068 14.978 12.7084 14.9826C12.7944 15.1631 12.8407 15.3674 12.8423 15.5877L12.8465 16.4228C12.848 16.6538 12.848 16.8864 12.8495 17.1174C12.8511 17.3722 12.8511 17.6273 12.8526 17.8821C13.4195 17.6839 13.9879 17.4869 14.5548 17.2842C15.2127 17.0501 15.5425 16.5731 15.544 15.8666V11.8149ZM9.61989 12.6653C9.62372 12.6653 9.62755 12.6614 9.63137 12.6576C9.62755 12.6576 9.62372 12.6614 9.61989 12.6653Z" fill="white"/>
<path d="M12.8479 16.4242L12.8433 15.5891C12.8436 15.3801 12.7981 15.1735 12.7098 14.984L12.7052 14.9721C12.6499 14.8586 12.5784 14.7537 12.4929 14.6607C12.4872 14.6546 12.4826 14.647 12.4769 14.6412C12.3299 14.4885 12.1494 14.3721 11.9498 14.3012C11.7834 14.24 11.617 14.1803 11.4509 14.121C10.9671 13.9477 10.4816 13.7779 10.0004 13.5992H9.99928C9.55938 13.4336 9.46451 13.1965 9.63091 12.7447C9.64277 12.7137 9.67987 12.6299 9.66075 12.6257C9.65769 12.6257 9.6531 12.6257 9.64736 12.6299C9.63703 12.6361 9.62823 12.6433 9.61905 12.6494C9.61752 12.651 9.61446 12.6525 9.61332 12.654C9.25528 12.9057 9.02538 13.2875 9.02232 13.7274C9.01352 15.4147 9.01199 17.1024 9.02232 18.7897C9.02538 19.2326 9.23003 19.5857 9.59687 19.8454C9.60261 19.8496 9.61026 19.8527 9.61752 19.8569C9.72157 19.9105 9.83135 19.9839 9.92507 20.0195C10.5291 20.2479 11.1289 20.4785 11.7405 20.6858C12.26 20.8633 12.8269 20.5129 12.8449 19.9763C12.867 19.2938 12.8418 18.6095 12.8361 17.9252C12.8406 17.911 12.8471 17.8975 12.8552 17.885C12.8537 17.6299 12.8537 17.3751 12.8525 17.12C12.8494 16.8878 12.8494 16.6556 12.8479 16.4242Z" fill="#23C6B0"/>
<path d="M19.2534 14.0776H19.255L19.5074 13.9869C19.5235 13.9777 19.5445 13.9678 19.574 13.9571C19.9496 13.8243 20.3253 13.6901 20.7009 13.5562L21.2632 13.3534V13.3546L21.9594 13.1044L21.9938 13.0926C22.4081 12.9418 22.4333 12.7273 22.4123 12.2858C22.4108 12.2426 22.402 12.1994 22.3962 12.1562C22.2891 12.0965 22.1927 12.0624 22.0753 12.0116C21.4728 11.7836 20.8776 11.5372 20.2675 11.3288C19.7477 11.1513 19.1808 11.5017 19.1628 12.0383C19.1406 12.7093 19.1658 13.4277 19.1716 14.1017L19.2297 14.0825C19.2297 14.0779 19.2534 14.0779 19.2534 14.0779V14.0776Z" fill="#23C6B0"/>
<path d="M22.4124 12.1638C22.4082 12.1607 22.4051 12.1592 22.4021 12.1561C22.4006 12.1546 22.399 12.1531 22.3963 12.1531V12.1546C22.4021 12.1978 22.4109 12.2411 22.4124 12.2847C22.4334 12.7257 22.4082 12.9418 21.9939 13.091L21.9595 13.1025L21.2633 13.3534V13.3519L20.701 13.5546C20.3254 13.6885 19.9497 13.8213 19.5741 13.9555C19.5511 13.9636 19.5288 13.9735 19.5075 13.9854L19.2551 14.0764H19.2298L19.1717 14.0955L18.7088 14.255C18.2663 14.4073 17.8596 14.5591 17.4247 14.7141C16.7668 14.9482 16.4493 15.4255 16.4478 16.1321C16.4478 17.4824 16.4539 18.8346 16.4539 20.1853C16.4539 20.9648 16.9779 21.3328 17.7124 21.0723C19.0474 20.598 20.3816 20.1241 21.7135 19.6425C21.9434 19.5591 22.0785 19.4818 22.3114 19.3445C22.6855 19.0836 22.886 18.7286 22.889 18.2757C22.8978 16.588 22.9946 14.9007 22.9839 13.213C22.9797 12.7762 22.7911 12.4052 22.4124 12.1638Z" fill="white"/>
</svg>
