<svg width="18" height="18" viewBox="0 0 18 18" fill="none" xmlns="http://www.w3.org/2000/svg">
<g clip-path="url(#clip0_1277_214)">
<path fill-rule="evenodd" clip-rule="evenodd" d="M9 0C4.02944 0 0 4.02944 0 9C0 13.9706 4.02944 18 9 18C13.9706 18 18 13.9706 18 9C18 4.02944 13.9706 0 9 0Z" fill="#D5133A"/>
<path d="M9.67241 14.0217H3.49414V12.7774L7.1223 7.92047H3.71172V6.30532H9.55063V7.67409L6.02096 12.4127H9.67241V14.0234V14.0217ZM13.8369 5.65979L14.4941 6.27088L12.5046 8.35495V14.0217H10.6842V10.265L9.58287 11.4228L8.92564 10.8126L10.6842 8.96869V4.02344H12.5072V7.05593L13.8396 5.65979H13.8369Z" fill="white"/>
</g>
<defs>
<clipPath id="clip0_1277_214">
<rect width="18" height="18" fill="white"/>
</clipPath>
</defs>
</svg>
