<?xml version="1.0" encoding="UTF-8"?>
<svg width="18px" height="18px" viewBox="0 0 18 18" version="1.1" xmlns="http://www.w3.org/2000/svg" xmlns:xlink="http://www.w3.org/1999/xlink">
    <title>0BD1FB39-DE19-443A-994F-D85D5D278B08@1x</title>
    <g id="✅-Currencies" stroke="none" stroke-width="1" fill="none" fill-rule="evenodd">
        <g id="All-Dropdowns-&amp;-Currencies" transform="translate(-1087.000000, -189.000000)">
            <g id="RUB" transform="translate(938.000000, 50.000000)">
                <g id="Balance-Selector" transform="translate(1.000000, 77.000000)">
                    <g id="USD" transform="translate(14.000000, 62.000000)">
                        <g id="rub_icon" transform="translate(134.000000, 0.000000)">
                            <path d="M9,0 C4.02943725,0 0,4.02943725 0,9 C0,13.9705627 4.02943725,18 9,18 C13.9705627,18 18,13.9705627 18,9 C18,4.02943725 13.9705627,0 9,0 Z" id="Path" fill="#64D1FF"></path>
                            <path d="M5.90625,8.566875 L6.89625,8.566875 L6.89625,3.931875 L9.45,3.931875 C9.9225,3.931875 10.355625,3.9825 10.749375,4.095 C11.1375,4.201875 11.475,4.37625 11.750625,4.60125 C12.02625,4.82625 12.245625,5.113125 12.403125,5.461875 C12.560625,5.810625 12.639375,6.226875 12.639375,6.7111875 C12.639375,7.1949375 12.555,7.6168125 12.38625,7.975125 L12.38625,7.9695 C12.223125,8.312625 11.9925,8.616375 11.7,8.85825 L11.7,8.852625 C11.39625,9.0945 11.0475,9.2745 10.67625,9.381375 L10.670625,9.381375 C10.254375,9.4995 9.826875,9.55575 9.39375,9.550125 L7.981875,9.550125 L7.981875,11.012625 L10.231875,11.012625 L10.231875,11.968875 L7.981875,11.968875 L7.981875,14.016375 L6.8625,14.016375 L6.8625,11.96325 L5.866875,11.96325 L5.866875,11.001375 L6.856875,11.001375 L6.856875,9.53325 L5.86125,9.53325 L5.90625,8.566875 Z M9.455625,8.566875 C10.096875,8.566875 10.603125,8.409375 10.96875,8.105625 C11.334375,7.79625 11.52,7.335 11.52,6.71625 C11.52,6.091875 11.334375,5.641875 10.963125,5.3656875 C10.591875,5.0844375 10.085625,4.9438125 9.444375,4.9438125 L8.004375,4.9438125 L8.004375,8.5606875 L9.455625,8.566875 Z" id="Shape" fill="#FFFFFF"></path>
                        </g>
                    </g>
                </g>
            </g>
        </g>
    </g>
</svg>