<svg width="18" height="18" viewBox="0 0 18 18" fill="none" xmlns="http://www.w3.org/2000/svg">
<rect width="18" height="18" rx="9" fill="url(#paint0_linear_78_138)"/>
<path fill-rule="evenodd" clip-rule="evenodd" d="M5.73116 5.10131C5.79813 5.03733 5.88654 5 5.97762 5H14.4807C14.6361 5 14.7138 5.18663 14.6039 5.29594L12.9242 6.96761C12.8599 7.0316 12.7715 7.06892 12.6777 7.06892H4.17467C4.01929 7.06892 3.9416 6.88229 4.05144 6.77298L5.73116 5.10131ZM5.73116 11.3427C5.79545 11.2787 5.88386 11.2414 5.97762 11.2414H14.4807C14.6361 11.2414 14.7138 11.428 14.6039 11.5374L12.9242 13.209C12.8599 13.273 12.7715 13.3103 12.6777 13.3103H4.17467C4.01929 13.3103 3.9416 13.1237 4.05144 13.0144L5.73116 11.3427ZM12.6777 8.10072C12.7715 8.10072 12.8599 8.13804 12.9242 8.20203L14.6039 9.8737C14.7138 9.98301 14.6361 10.1696 14.4807 10.1696H5.97762C5.88386 10.1696 5.79545 10.1323 5.73116 10.0683L4.05144 8.39666C3.9416 8.28735 4.01929 8.10072 4.17467 8.10072H12.6777Z" fill="white"/>
<defs>
<linearGradient id="paint0_linear_78_138" x1="18" y1="0" x2="0" y2="18" gradientUnits="userSpaceOnUse">
<stop stop-color="#16EAAC"/>
<stop offset="1" stop-color="#D427FC"/>
</linearGradient>
</defs>
</svg>
