<svg width="33" height="32" viewBox="0 0 33 32" fill="none" xmlns="http://www.w3.org/2000/svg">
<g clip-path="url(#clip0_2627_46033)">
<path d="M16.6666 32C25.5032 32 32.6666 24.8366 32.6666 16C32.6666 7.16344 25.5032 0 16.6666 0C7.83007 0 0.666626 7.16344 0.666626 16C0.666626 24.8366 7.83007 32 16.6666 32Z" fill="#0089CD"/>
<path fill-rule="evenodd" clip-rule="evenodd" d="M23.1082 11.2927C22.9409 10.974 22.6684 10.7229 22.337 10.5823C22.0394 10.4308 21.711 10.3498 21.377 10.3455H12.0378C11.6853 10.3235 11.3342 10.4059 11.0282 10.5823C10.8347 10.6459 10.6558 10.7474 10.5019 10.8809C10.3481 11.0144 10.2224 11.1773 10.1322 11.3599C9.93098 11.7015 9.84357 12.0982 9.88263 12.4927C9.91127 12.857 10.0409 13.2061 10.257 13.5007L16.0474 23.6127C16.1196 23.7185 16.2162 23.8054 16.3289 23.8661C16.4417 23.9268 16.5674 23.9595 16.6954 23.9615C16.8272 23.9725 16.9593 23.9455 17.0761 23.8837C17.1929 23.8218 17.2896 23.7278 17.3546 23.6127L23.1706 13.5007C23.375 13.1824 23.4751 12.8082 23.457 12.4303C23.4381 12.0279 23.3181 11.6366 23.1082 11.2927ZM15.961 20.4575L11.5018 12.6751C11.3866 12.4383 11.3274 12.3199 11.3274 12.3199C11.3107 12.2143 11.3317 12.1061 11.3866 12.0143C11.4313 11.9073 11.5164 11.8222 11.6234 11.7775H15.961V20.4575ZM21.913 12.3631C21.937 12.4825 21.937 12.6054 21.913 12.7247L17.3546 20.4959V11.8287H21.3146C21.4546 11.8134 21.5962 11.8343 21.7258 11.8895L21.7882 11.9519C21.8506 11.9519 21.8506 12.0639 21.913 12.0639C21.9418 12.1616 21.9418 12.2655 21.913 12.3631Z" fill="white"/>
</g>
<defs>
<clipPath id="clip0_2627_46033">
<rect width="32" height="32" fill="white" transform="translate(0.666626)"/>
</clipPath>
</defs>
</svg>
