<svg width="32" height="32" viewBox="0 0 32 32" fill="none" xmlns="http://www.w3.org/2000/svg">
<rect width="32" height="32" rx="16" fill="#F3CDCD"/>
<g clip-path="url(#clip0_2735_35176)">
<path fill-rule="evenodd" clip-rule="evenodd" d="M12.1899 11.2369C12.1899 10.0107 13.1857 9.01514 14.4116 9.01514C15.6374 9.01514 16.6332 10.0107 16.6332 11.2369C16.6332 12.4631 15.6374 13.4586 14.4116 13.4586C13.1857 13.4586 12.1899 12.466 12.1899 11.2369Z" fill="#F40000"/>
<path fill-rule="evenodd" clip-rule="evenodd" d="M19.8099 20.4595C19.5158 20.6172 19.1082 20.6084 19.1082 20.6084C18.5288 20.6084 18.0571 20.1355 18.0571 19.5603V16.5854H19.641V14.3403H18.0571V11.8704H17.367C16.971 13.2951 15.6578 14.3403 14.0972 14.3403V16.5854H15.5122V20.2552C15.5122 21.7616 16.7439 22.9849 18.2638 22.9849C18.7908 22.9849 19.3149 22.8915 19.8128 22.7105V20.4595H19.8099Z" fill="#F40000"/>
</g>
<defs>
<clipPath id="clip0_2735_35176">
<rect width="7.6199" height="13.9698" fill="white" transform="translate(12.1899 9.01514)"/>
</clipPath>
</defs>
</svg>
