<svg width="18" height="18" viewBox="0 0 18 18" fill="none" xmlns="http://www.w3.org/2000/svg">
<path fill-rule="evenodd" clip-rule="evenodd" d="M9 0C4.02944 0 0 4.02944 0 9C0 13.9706 4.02944 18 9 18C13.9706 18 18 13.9706 18 9C18 4.02944 13.9706 0 9 0Z" fill="#C63127"/>
<path fill-rule="evenodd" clip-rule="evenodd" d="M4 4L8.17842 14.4L14 7.38349L11.9389 5.44525L4 4ZM5.48131 4.82726L11.2037 5.86918L8.98249 7.69997L5.48131 4.82726ZM5.08448 5.21421L8.73332 8.20818L8.1628 12.8768L5.08448 5.21421ZM11.8112 6.08197L13.0256 7.22407L9.70421 7.81912L11.8112 6.08197ZM9.26148 8.45584L12.9394 7.79712L8.72078 12.8817L9.26148 8.45584Z" fill="white"/>
</svg>