<svg width="18" height="18" viewBox="0 0 18 18" fill="none" xmlns="http://www.w3.org/2000/svg">
<g clip-path="url(#clip0_10_1164)">
<path fill-rule="evenodd" clip-rule="evenodd" d="M8.99999 0C4.02943 0 0 4.02943 0 8.99999C0 13.9705 4.02943 18 8.99999 18C13.9705 18 18 13.9705 18 8.99999C18 4.02943 13.9705 0 8.99999 0Z" fill="#BD0100"/>
<path d="M13.5546 8.9629C13.5546 11.7396 11.2891 13.9913 8.49507 13.9913H7.37073V9.39311L5.6842 10.0077V8.81764L7.37073 8.20307V7.21416L5.6842 7.82315V6.6387L7.37073 6.02413V3.93457H8.49507V5.61068L11.3059 4.60502V5.78947L8.49507 6.80631V7.8008L11.3059 6.78396V7.974L8.49507 8.99084V12.8738C10.6707 12.8738 12.4303 11.1251 12.4303 8.9629H13.5546Z" fill="white"/>
</g>
<defs>
<clipPath id="clip0_10_1164">
<rect width="18" height="18" fill="white"/>
</clipPath>
</defs>
</svg>
