<svg width="33" height="32" viewBox="0 0 33 32" fill="none" xmlns="http://www.w3.org/2000/svg">
<g clip-path="url(#clip0_2627_46017)">
<path d="M16.3334 32C25.1699 32 32.3334 24.8366 32.3334 16C32.3334 7.16344 25.1699 0 16.3334 0C7.49682 0 0.333374 7.16344 0.333374 16C0.333374 24.8366 7.49682 32 16.3334 32Z" fill="#2E79CC"/>
<path d="M20.4806 18.2239C20.4806 16.0351 19.175 15.2783 16.5542 14.9743C14.6886 14.7183 14.3142 14.2287 14.3142 13.3439C14.3142 12.4591 14.943 11.9039 16.1894 11.9039C16.6344 11.8343 17.0895 11.9297 17.4691 12.1722C17.8486 12.4147 18.1265 12.7876 18.2502 13.2207C18.2828 13.3128 18.3426 13.3928 18.4218 13.45C18.501 13.5071 18.5958 13.5388 18.6934 13.5407H19.6742C19.7872 13.5412 19.8958 13.4974 19.9768 13.4187C20.0579 13.3401 20.1049 13.2328 20.1078 13.1199V13.0911C19.9882 12.4142 19.6479 11.7959 19.1399 11.3328C18.6319 10.8697 17.9849 10.5878 17.2998 10.5311V8.9759C17.2998 8.7295 17.1142 8.5439 16.8006 8.4751H15.8182C15.5734 8.4751 15.3862 8.6607 15.327 8.9759V10.4159C14.5259 10.447 13.7658 10.7788 13.1983 11.3451C12.6308 11.9115 12.2974 12.6708 12.2646 13.4719C12.2646 15.5343 13.511 16.3519 16.1318 16.6623C17.879 16.9663 18.4486 17.3503 18.4486 18.3407C18.4486 19.3311 17.575 20.0303 16.3878 20.0303C14.7574 20.0303 14.199 19.3423 14.0118 18.4095C13.9932 18.3056 13.9389 18.2116 13.8582 18.1435C13.7776 18.0754 13.6757 18.0376 13.5702 18.0367H12.5494C12.494 18.0354 12.4388 18.0451 12.387 18.0651C12.3353 18.0852 12.288 18.1153 12.2479 18.1536C12.2078 18.1919 12.1756 18.2378 12.1532 18.2886C12.1308 18.3393 12.1187 18.394 12.1174 18.4495V18.5279C12.2299 19.3403 12.6253 20.087 13.234 20.6366C13.8427 21.1862 14.6258 21.5035 15.4454 21.5327V23.0399C15.4454 23.2863 15.631 23.4719 15.9462 23.5311H16.927C17.0561 23.5244 17.1782 23.4708 17.2704 23.3803C17.3627 23.2898 17.4186 23.1688 17.4278 23.0399V21.5391C18.2628 21.4647 19.0415 21.087 19.6167 20.4773C20.192 19.8675 20.5238 19.0681 20.5494 18.2303L20.4806 18.2239Z" fill="white"/>
<path d="M13.151 24.7423C11.3426 24.09 9.77927 22.8958 8.67429 21.3226C7.5693 19.7494 6.9764 17.8736 6.9764 15.9511C6.9764 14.0286 7.5693 12.1529 8.67429 10.5796C9.77927 9.0064 11.3426 7.81223 13.151 7.15992C13.2699 7.10571 13.3694 7.01639 13.436 6.90398C13.5027 6.79157 13.5333 6.66146 13.5238 6.53112V5.68632C13.5289 5.57397 13.4943 5.4634 13.4262 5.37392C13.3581 5.28444 13.2607 5.22173 13.151 5.19672C13.0605 5.18618 12.9695 5.21081 12.8966 5.26552C10.6239 5.98902 8.64023 7.41672 7.23255 9.34213C5.82487 11.2675 5.06616 13.5908 5.06616 15.9759C5.06616 18.361 5.82487 20.6843 7.23255 22.6097C8.64023 24.5351 10.6239 25.9628 12.8966 26.6863C12.984 26.7376 13.0883 26.7521 13.1864 26.7266C13.2845 26.7011 13.3685 26.6377 13.4198 26.5503C13.4418 26.5132 13.4575 26.4726 13.4662 26.4303C13.5238 26.3727 13.5238 26.3135 13.5238 26.1855V25.3119C13.5065 25.1957 13.4641 25.0846 13.3998 24.9863C13.3354 24.888 13.2506 24.8047 13.151 24.7423ZM19.7686 5.25432C19.6837 5.20308 19.582 5.18761 19.4857 5.21131C19.3894 5.23501 19.3064 5.29593 19.255 5.38072C19.2324 5.41755 19.2166 5.45822 19.2086 5.50072C19.1494 5.56952 19.1494 5.62872 19.1494 5.75512V6.62872C19.1601 6.75357 19.1992 6.87431 19.2638 6.98166C19.3285 7.089 19.4169 7.18009 19.5222 7.24792C21.321 7.90591 22.8741 9.10068 23.9714 10.6705C25.0687 12.2403 25.6572 14.1094 25.6572 16.0247C25.6572 17.94 25.0687 19.8091 23.9714 21.3789C22.8741 22.9488 21.321 24.1435 19.5222 24.8015C19.4023 24.8544 19.3019 24.9434 19.2351 25.0562C19.1682 25.1689 19.1383 25.2997 19.1494 25.4303V26.3039C19.1416 26.4181 19.1749 26.5314 19.2433 26.6232C19.3116 26.715 19.4106 26.7794 19.5222 26.8047C19.61 26.813 19.6978 26.7885 19.7686 26.7359C22.0429 26.0052 24.0265 24.5715 25.4337 22.6412C26.8409 20.711 27.5992 18.3839 27.5992 15.9951C27.5992 13.6064 26.8409 11.2793 25.4337 9.34902C24.0265 7.41879 22.0429 5.98504 19.7686 5.25432Z" fill="white"/>
</g>
<defs>
<clipPath id="clip0_2627_46017">
<rect width="32" height="32" fill="white" transform="translate(0.333374)"/>
</clipPath>
</defs>
</svg>
