<svg width="18" height="18" viewBox="0 0 18 18" fill="none" xmlns="http://www.w3.org/2000/svg">
<g clip-path="url(#clip0_1_346)">
<path fill-rule="evenodd" clip-rule="evenodd" d="M9 0C4.02944 0 0 4.02944 0 9C0 13.9706 4.02944 18 9 18C13.9706 18 18 13.9706 18 9C18 4.02944 13.9706 0 9 0Z" fill="#696969"/>
<path d="M5.25497 4.77905H3.72412L6.90994 7.76665C8.06366 8.84801 9.9342 8.84801 11.0887 7.76665L14.2758 4.77905H12.7438L10.3233 7.04856C9.97067 7.37774 9.49541 7.56228 9.00027 7.56228C8.50513 7.56228 8.02987 7.37774 7.67723 7.04856L5.25497 4.77905Z" fill="white"/>
<path d="M12.7497 13.2207H14.2758L11.0815 10.2292C9.93213 9.15306 8.06868 9.15306 6.91851 10.2292L3.72414 13.2207H5.24919L7.68103 10.9439C8.03234 10.6163 8.5058 10.4326 8.99907 10.4326C9.49233 10.4326 9.96579 10.6163 10.3171 10.9439L12.7497 13.2207Z" fill="white"/>
</g>
<defs>
<clipPath id="clip0_1_346">
<rect width="18" height="18" fill="white"/>
</clipPath>
</defs>
</svg>
