<svg width="110" height="101" viewBox="0 0 110 101" fill="none" xmlns="http://www.w3.org/2000/svg">
<path d="M78.7106 90.1638C78.6225 90.6721 74.6806 92.7883 69.9918 94.9771C69.9918 94.9771 69.9814 94.9771 69.9762 94.9771C64.1463 97.7053 57.1754 100.537 55.0281 100.537C51.1588 100.537 31.5374 91.3049 31.3455 90.1586C31.1536 89.0123 33.4772 82.254 33.4772 82.254L55.0281 89.0331L76.5841 82.254C76.5841 82.254 77.5021 84.9407 78.1349 87.2125L78.1608 87.3111C78.5187 88.6026 78.7781 89.7437 78.7055 90.1586L78.7106 90.1638Z" fill="url(#paint0_linear_7399_1678)"/>
<path opacity="0.6" d="M78.166 87.3163C77.1183 85.7084 55.3081 94.002 54.7687 94.697C54.2293 95.3921 55.0436 98.9761 55.5364 99.697C56.0135 100.382 68.8507 95.4232 69.9762 94.9823C64.1463 97.7105 57.1754 100.542 55.0281 100.542C51.1588 100.542 31.5374 91.3101 31.3455 90.1638C31.1536 89.0176 33.4772 82.2593 33.4772 82.2593L55.0281 89.0383L76.5841 82.2593C76.5841 82.2593 77.5021 84.946 78.1349 87.2178L78.1608 87.3163H78.166Z" fill="url(#paint1_linear_7399_1678)" style="mix-blend-mode:multiply"/>
<path d="M31.8486 90.6565C31.8486 90.6565 51.2625 99.8992 55.8165 99.6658C60.3756 99.4272 76.4752 91.7198 76.4752 91.7198C76.4752 91.7198 59.5613 100.574 55.3393 100.522C51.1173 100.47 33.1816 91.8546 31.8486 90.6565Z" fill="#A977FF"/>
<g opacity="0.3" style="mix-blend-mode:soft-light">
<path d="M56.2002 93.976C54.4938 97.4823 57.4346 98.4314 57.4346 98.4314C57.4346 98.4314 67.5954 95.086 71.8693 93.0061C76.1431 90.9262 75.0954 87.7935 75.0954 87.7935L56.2002 93.9708V93.976Z" fill="#6DE2DB"/>
</g>
<g opacity="0.3" style="mix-blend-mode:soft-light">
<path d="M56.807 99.5363C54.5819 97.197 55.1421 95.0446 55.9512 94.4222C56.7603 93.7946 70.2977 89.0228 71.3454 89.9305C72.3879 90.8381 68.9699 95.2572 65.1732 96.8236C61.3765 98.39 56.8122 99.5415 56.8122 99.5415L56.807 99.5363Z" fill="#6DE2DB"/>
</g>
<path d="M55.0436 94.7852C54.831 95.4543 55.1422 98.7531 55.8217 99.6659C56.33 100.351 56.138 94.251 56.138 94.251C56.138 94.251 55.6142 94.1006 55.0436 94.78V94.7852Z" fill="url(#paint2_linear_7399_1678)" style="mix-blend-mode:screen"/>
<path opacity="0.8" d="M32.4502 85.4335C32.4502 85.4335 34.7635 93.115 54.307 94.4169C61.3973 93.0061 77.8133 86.3411 77.8133 86.3411L77.6162 85.4438C77.6162 85.4438 57.4346 93.9397 53.1297 93.6233C48.8247 93.3069 32.4502 85.4335 32.4502 85.4335Z" fill="url(#paint3_linear_7399_1678)" style="mix-blend-mode:multiply"/>
<path d="M88.4722 64.6607C88.4722 64.6607 97.9587 65.335 101.698 63.9657C105.438 62.5964 108.872 51.0559 108.872 51.0559L88.4722 64.6607Z" fill="#A977FF"/>
<path d="M101.745 63.4573C99.2346 64.4065 88.4722 64.6607 88.4722 64.6607L91.9732 43.727C91.9732 43.727 93.2647 43.5559 95.1527 43.3432C99.883 42.8142 108.337 42.0154 109.401 42.9905C109.722 43.2862 109.893 43.8567 109.94 44.6451C110.22 49.4428 105.76 61.9376 101.745 63.4677V63.4573Z" fill="url(#paint4_linear_7399_1678)"/>
<path d="M93.0935 49.2976C93.0935 49.2976 102.03 48.115 102.865 48.8775C104.146 50.0497 101.47 58.0165 98.8455 59.0175C97.4399 59.5518 91.4026 59.6918 91.4026 59.6918L93.0935 49.2976Z" fill="url(#paint5_linear_7399_1678)"/>
<path d="M92.8756 49.8629C92.8756 49.8629 100.977 48.7892 101.735 49.4843C102.896 50.5424 100.531 57.4822 98.1505 58.3899C96.8746 58.8774 91.4026 59.0019 91.4026 59.0019L92.8756 49.8629Z" fill="url(#paint6_linear_7399_1678)"/>
<path opacity="0.6" d="M101.745 63.4574C99.2346 64.4065 88.4722 64.6607 88.4722 64.6607L91.9732 43.7271C91.9732 43.7271 93.2647 43.5559 95.1527 43.3433C92.44 45.7966 94.9089 48.5144 96.7191 48.6285C98.5292 48.7375 101.916 48.3848 102.865 48.8827C103.814 49.3806 102.606 53.1825 102.606 53.1825C102.606 53.1825 102.689 52.0777 101.859 50.3713C101.029 48.67 95.5935 49.8526 94.1724 50.7136C92.7512 51.5746 91.968 58.9916 91.968 58.9916L91.5946 59.697C91.5946 59.697 96.745 60.5684 99.3591 59.0072C99.3591 59.0072 99.7688 62.6223 101.512 62.752C103.254 62.8765 106.34 57.1036 108.042 52.2074C109.743 47.3163 109.93 44.6399 109.93 44.6399C110.21 49.4377 105.749 61.9325 101.735 63.4626L101.745 63.4574Z" fill="url(#paint7_linear_7399_1678)" style="mix-blend-mode:multiply"/>
<g opacity="0.3" style="mix-blend-mode:soft-light">
<path d="M95.7646 50.3661C92.3621 51.0974 92.5489 56.2634 96.4285 56.8184C100.308 57.3733 101.802 52.0518 101.47 50.558C101.138 49.0642 97.3569 50.0237 95.7646 50.3661Z" fill="#6DE2DB"/>
</g>
<g opacity="0.3" style="mix-blend-mode:soft-light">
<path d="M94.8778 50.5009C91.9213 52.809 95.2875 55.3868 97.8705 55.5995C100.454 55.8069 101.361 52.4822 101.47 50.558C101.584 48.6337 96.2004 49.4739 94.8778 50.5009Z" fill="#6DE2DB"/>
</g>
<g opacity="0.6" style="mix-blend-mode:soft-light">
<path d="M96.7242 43.9086C94.3487 44.308 94.4835 47.5497 95.1837 47.975C95.8839 48.4055 101.766 48.2343 103.202 48.6181C104.634 49.002 103.306 54.2094 101.921 56.9221C100.536 59.6347 104.857 57.8661 106.688 54.5414C108.519 51.2167 110.334 45.2675 108.794 43.9034C107.253 42.5445 96.7294 43.9034 96.7294 43.9034L96.7242 43.9086Z" fill="#CEE2DB"/>
</g>
<g opacity="0.6" style="mix-blend-mode:soft-light">
<path d="M95.713 43.447C93.2752 44.7955 93.9391 47.2333 94.7171 48.0631C95.4951 48.893 100.314 47.6845 102.362 48.6233C104.416 49.5621 108.234 48.2291 109.012 44.5206C109.79 40.8069 95.713 43.4521 95.713 43.4521V43.447Z" fill="#CEE2DB"/>
</g>
<path d="M100.262 42.7934C100.262 42.7934 101.807 42.6897 102.419 43.1617C103.026 43.6337 102.528 46.4293 101.807 47.4304C101.086 48.4262 99.4785 48.6181 99.4785 48.6181C99.4785 48.6181 103.182 48.0009 103.229 49.8318C103.229 49.8318 103.234 47.42 105.101 45.0704C106.968 42.726 108.866 42.7416 108.866 42.7416C108.866 42.7416 105.993 42.3163 100.257 42.7934H100.262Z" fill="url(#paint8_linear_7399_1678)" style="mix-blend-mode:screen"/>
<path opacity="0.8" d="M93.8196 49.7436C93.8196 49.7436 99.7118 49.142 100.936 49.4947C102.16 49.8474 102.035 50.7499 102.035 50.7499C102.035 50.7499 102.471 49.6295 102.295 49.0797C102.118 48.5299 97.1599 49.1524 93.8145 49.7436H93.8196Z" fill="url(#paint9_linear_7399_1678)" style="mix-blend-mode:multiply"/>
<path d="M91.8902 59.6711L92.1651 58.9812C92.1651 58.9812 96.5738 58.9657 98.1506 58.3951C98.1506 58.3951 98.3165 58.9605 98.6381 59.0902C98.6381 59.0902 96.4856 59.7281 91.885 59.6763L91.8902 59.6711Z" fill="url(#paint10_linear_7399_1678)" style="mix-blend-mode:screen"/>
<path opacity="0.6" d="M90.8374 59.2716C90.8374 59.2716 90.0749 62.5392 90.4069 63.5247C90.7388 64.505 99.9038 63.8774 99.9038 63.8774C96.1642 64.3702 92.2378 64.4998 87.7876 64.6606L90.8374 59.2768V59.2716Z" fill="url(#paint11_linear_7399_1678)" style="mix-blend-mode:multiply"/>
<path d="M91.1018 59.2664L92.6526 49.6347L92.8445 49.6087C94.774 49.3546 101.123 48.5766 101.911 49.2975C102.43 49.7695 102.331 50.9365 102.165 51.8339C101.719 54.1731 100.07 57.9386 98.2491 58.6336C96.9472 59.1316 91.6412 59.2561 91.413 59.2612H91.1018V59.2664ZM93.0987 50.0911L91.7035 58.7374C92.8705 58.7011 97.0095 58.5507 98.0572 58.1513C99.525 57.5963 101.169 54.3027 101.652 51.7353C101.885 50.4957 101.755 49.8577 101.558 49.6762C101.143 49.3027 96.9628 49.5932 93.0935 50.0963L93.0987 50.0911Z" fill="#2C2797"/>
<path d="M96.9473 48.6234C96.9473 48.6234 102.985 48.1047 103.54 48.8671C104.1 49.6296 102.326 54.002 102.326 54.002C102.326 54.002 103.669 50.2727 103.052 49.2509C102.435 48.2292 96.9473 48.6234 96.9473 48.6234Z" fill="#F5F9F8"/>
<path d="M21.4856 64.6607C21.4856 64.6607 11.9991 65.335 8.25948 63.9657C4.51985 62.5964 1.08105 51.0559 1.08105 51.0559L21.4804 64.6607H21.4856Z" fill="#A977FF"/>
<path d="M8.2127 63.4573C10.7231 64.4065 21.4907 64.6607 21.4907 64.6607L17.9845 43.727C17.9845 43.727 16.6878 43.5559 14.805 43.3432C10.0747 42.8142 1.62037 42.0154 0.557094 42.9905C0.235517 43.2862 0.0591685 43.8567 0.0176747 44.6451C-0.262408 49.4428 4.19817 61.9376 8.2127 63.4677V63.4573Z" fill="url(#paint12_linear_7399_1678)"/>
<path d="M16.8643 49.2976C16.8643 49.2976 7.92759 48.115 7.09253 48.8775C5.81141 50.0497 8.48776 58.0165 11.1122 59.0175C12.5178 59.5518 18.5604 59.6918 18.5604 59.6918L16.8695 49.2976H16.8643Z" fill="url(#paint13_linear_7399_1678)"/>
<path d="M17.0822 49.8629C17.0822 49.8629 8.98053 48.7892 8.22326 49.4843C7.06144 50.5424 9.42658 57.4822 11.8073 58.3899C13.0832 58.8774 18.5552 59.0019 18.5552 59.0019L17.0822 49.8629Z" fill="url(#paint14_linear_7399_1678)"/>
<path opacity="0.6" d="M8.21276 63.4574C10.7231 64.4065 21.4908 64.6607 21.4908 64.6607L17.9845 43.7271C17.9845 43.7271 16.6879 43.5559 14.8051 43.3433C17.5177 45.7966 15.0489 48.5144 13.2387 48.6285C11.4285 48.7375 8.04159 48.3848 7.09761 48.8827C6.14844 49.3806 7.35695 53.1825 7.35695 53.1825C7.35695 53.1825 7.26877 52.0777 8.10383 50.3713C8.93371 48.67 14.3746 49.8526 15.7906 50.7136C17.2117 51.5746 17.9949 58.9916 17.9949 58.9916L18.3684 59.697C18.3684 59.697 13.2179 60.5684 10.6038 59.0072C10.6038 59.0072 10.1941 62.6223 8.45135 62.752C6.70342 62.8765 3.62251 57.1036 1.92126 52.2074C0.204457 47.3163 0.0125477 44.6399 0.0125477 44.6399C-0.267535 49.4377 4.19305 61.9325 8.20757 63.4626L8.21276 63.4574Z" fill="url(#paint15_linear_7399_1678)" style="mix-blend-mode:multiply"/>
<g opacity="0.3" style="mix-blend-mode:soft-light">
<path d="M14.1879 50.3661C17.5904 51.0974 17.3985 56.2634 13.524 56.8184C9.6495 57.3733 8.15053 52.0518 8.48248 50.558C8.81443 49.0642 12.5956 50.0237 14.1879 50.3661Z" fill="#6DE2DB"/>
</g>
<g opacity="0.3" style="mix-blend-mode:soft-light">
<path d="M15.0748 50.5009C18.0313 52.809 14.6651 55.3868 12.0821 55.5995C9.4991 55.8069 8.59661 52.4822 8.4825 50.558C8.36839 48.6337 13.7522 49.4739 15.0748 50.5009Z" fill="#6DE2DB"/>
</g>
<g opacity="0.6" style="mix-blend-mode:soft-light">
<path d="M13.2335 43.9086C15.609 44.308 15.4742 47.5497 14.774 47.975C14.0738 48.4055 8.19202 48.2343 6.7553 48.6181C5.32376 49.002 6.65156 54.2094 8.03642 56.9221C9.42127 59.6347 5.10073 57.8661 3.27501 54.5414C1.44409 51.2167 -0.371259 45.2675 1.1692 43.9034C2.70965 42.5445 13.2335 43.9034 13.2335 43.9034V43.9086Z" fill="#CEE2DB"/>
</g>
<g opacity="0.6" style="mix-blend-mode:soft-light">
<path d="M14.245 43.447C16.6827 44.7955 16.0188 47.2333 15.2408 48.0631C14.4628 48.893 9.64437 47.6845 7.59561 48.6233C5.54686 49.5621 1.72424 48.2291 0.946234 44.5206C0.173412 40.8069 14.245 43.4521 14.245 43.4521V43.447Z" fill="#CEE2DB"/>
</g>
<path d="M9.69614 42.7934C9.69614 42.7934 8.1505 42.6897 7.54365 43.1617C6.93162 43.6337 7.43473 46.4293 8.1505 47.4304C8.87145 48.4262 10.4793 48.6181 10.4793 48.6181C10.4793 48.6181 6.77602 48.0009 6.72934 49.8318C6.72934 49.8318 6.72415 47.42 4.85693 45.0704C2.98971 42.726 1.08618 42.7416 1.08618 42.7416C1.08618 42.7416 3.95963 42.3163 9.69614 42.7934Z" fill="url(#paint16_linear_7399_1678)" style="mix-blend-mode:screen"/>
<path opacity="0.8" d="M16.1382 49.7436C16.1382 49.7436 10.2461 49.142 9.02204 49.4947C7.79797 49.8474 7.92246 50.7499 7.92246 50.7499C7.92246 50.7499 7.48677 49.6295 7.66312 49.0797C7.83947 48.5299 12.798 49.1524 16.1434 49.7436H16.1382Z" fill="url(#paint17_linear_7399_1678)" style="mix-blend-mode:multiply"/>
<path d="M18.0676 59.6711L17.7875 58.9812C17.7875 58.9812 13.3788 58.9657 11.802 58.3951C11.802 58.3951 11.6308 58.9605 11.3145 59.0902C11.3145 59.0902 13.4669 59.7281 18.0676 59.6763V59.6711Z" fill="url(#paint18_linear_7399_1678)" style="mix-blend-mode:screen"/>
<path opacity="0.6" d="M19.1205 59.2716C19.1205 59.2716 19.8882 62.5392 19.551 63.5247C19.2191 64.505 10.0593 63.8774 10.0593 63.8774C13.7938 64.3702 17.7201 64.4998 22.1703 64.6606L19.1205 59.2768V59.2716Z" fill="url(#paint19_linear_7399_1678)" style="mix-blend-mode:multiply"/>
<path d="M18.8559 59.2665H18.5499C18.3269 59.251 13.0157 59.1265 11.7138 58.6285C9.89327 57.9335 8.2439 54.168 7.79784 51.8288C7.62668 50.9315 7.53332 49.7644 8.05199 49.2924C8.83518 48.5767 15.1889 49.3495 17.1184 49.6037L17.3103 49.6296L18.8611 59.2613L18.8559 59.2665ZM9.78435 49.4999C9.03228 49.4999 8.52398 49.5518 8.39431 49.6711C8.19203 49.8526 8.06236 50.4906 8.30095 51.7302C8.7885 54.2976 10.4327 57.586 11.8953 58.1462C12.9483 58.5456 17.0821 58.7012 18.2543 58.7323L16.859 50.086C14.2138 49.7437 11.4182 49.4999 9.78435 49.4999Z" fill="#2C2797"/>
<path d="M13.0105 48.6234C13.0105 48.6234 6.97319 48.1047 6.41821 48.8671C5.85804 49.6296 7.6319 54.002 7.6319 54.002C7.6319 54.002 6.28854 50.2727 6.90576 49.2509C7.52298 48.2292 13.0105 48.6234 13.0105 48.6234Z" fill="#F5F9F8"/>
<path d="M80.5884 83.5974C80.5054 84.0383 77.3259 85.6773 73.1973 87.529C73.1973 87.529 73.1662 87.5394 73.1039 87.5653C66.522 90.5165 57.6008 93.9761 55.0489 93.9761C51.2782 93.9761 33.6018 86.4242 30.106 84.1317C30.1008 84.1317 30.0956 84.1317 30.0956 84.1317C29.7326 83.8983 29.5303 83.7167 29.5095 83.6078C29.3021 82.4615 31.8072 75.7032 31.8072 75.7032L55.0541 82.4771L78.3062 75.7032C78.3062 75.7032 79.2035 78.1358 79.8778 80.3246C80.329 81.7925 80.6817 83.1462 80.5987 83.6078L80.5884 83.5974Z" fill="url(#paint20_linear_7399_1678)"/>
<path opacity="0.6" d="M79.8675 80.3142C78.5863 78.2499 55.6299 84.5674 55.0438 85.641C54.4525 86.7198 54.354 92.2645 55.5781 92.9854C56.7451 93.6701 71.771 88.058 73.104 87.5653C66.522 90.5165 57.6009 93.9761 55.049 93.9761C50.8737 93.9761 29.7119 84.7437 29.5044 83.5974C29.2969 82.4512 31.8021 75.6929 31.8021 75.6929L55.049 82.4667L78.3011 75.6929C78.3011 75.6929 79.1984 78.1254 79.8727 80.3142H79.8675Z" fill="url(#paint21_linear_7399_1678)" style="mix-blend-mode:multiply"/>
<path opacity="0.8" d="M30.3188 80.003C29.4993 83.6026 50.4847 86.1026 55.5781 84.5466C60.6715 82.9906 79.2399 78.307 79.2399 78.307L78.6175 76.6265C78.6175 76.6265 60.4692 83.4366 55.1735 83.4366C49.8779 83.4366 31.2161 77.3163 31.2161 77.3163L30.3136 80.0082L30.3188 80.003Z" fill="url(#paint22_linear_7399_1678)" style="mix-blend-mode:multiply"/>
<g opacity="0.3" style="mix-blend-mode:soft-light">
<path d="M55.0438 85.641C54.6393 88.0839 55.381 93.2084 56.4339 93.001C57.4868 92.7935 74.3903 87.7987 76.3353 85.8018C78.2803 83.8101 77.7461 78.6804 77.7461 78.6804C77.7461 78.6804 57.4038 82.8246 55.0386 85.641H55.0438Z" fill="#CEE2DB"/>
</g>
<path d="M55.0439 85.641C54.8312 86.3101 54.6756 92.3993 55.8115 92.4771C56.3406 92.5134 56.2628 85.4284 56.2628 85.4284C56.2628 85.4284 55.6144 84.9564 55.0439 85.6359V85.641Z" fill="url(#paint23_linear_7399_1678)" style="mix-blend-mode:screen"/>
<path d="M80.5883 83.5974C80.5053 84.0383 77.3259 85.6773 73.1972 87.5289C73.1972 87.5289 73.1661 87.5393 73.1039 87.5653C66.5219 90.5165 57.6008 93.976 55.0489 93.976C51.2782 93.976 33.6018 86.4242 30.106 84.1316C30.6713 84.4014 48.8145 93.1825 55.2408 93.1669C61.7709 93.1462 80.5935 83.6026 80.5935 83.6026L80.5883 83.5974Z" fill="#A977FF"/>
<g opacity="0.6" style="mix-blend-mode:soft-light">
<path d="M56.5012 93.0061C54.2761 90.6669 55.4587 85.6409 56.2678 85.0134C57.077 84.3858 71.3301 79.9096 72.3726 80.8173C73.4151 81.725 68.6589 88.7219 64.8622 90.2883C61.0656 91.8546 56.5012 93.0061 56.5012 93.0061Z" fill="#CEE2DB"/>
</g>
<path d="M90.9513 61.9791C90.9513 61.9791 90.9461 61.9947 90.9358 62.031C89.9451 65.8276 88.9596 68.8256 88.192 70.1845C85.0955 75.6565 59.4627 84.5776 55.0436 84.5776C50.6246 84.5776 24.9918 75.6565 21.9005 70.1845C21.221 68.9812 20.3704 66.5071 19.499 63.3276C19.4939 63.3121 19.4887 63.3017 19.4887 63.3017C16.3818 51.9791 12.9482 31.782 15.7075 28.6233C19.2449 24.5673 50.6194 5.92101 55.0385 6.32558C59.4575 5.92101 90.8372 24.5673 94.3694 28.6233C97.025 31.6679 93.9544 50.475 90.9461 61.9843L90.9513 61.9791Z" fill="url(#paint24_linear_7399_1678)"/>
<path d="M82.4244 34.2509C79.9607 31.4293 58.1194 18.4418 55.0437 18.727C51.968 18.447 30.1215 31.4293 27.663 34.2509C25.1993 37.0725 29.8155 59.3754 31.968 63.1824C34.1205 66.9947 51.968 73.2032 55.0437 73.2032C58.1194 73.2032 75.9618 66.9947 78.1194 63.1824C80.2719 59.3702 84.8881 37.0725 82.4244 34.2509Z" fill="url(#paint25_linear_7399_1678)"/>
<path d="M80.1578 46.4086C80.1578 46.4086 80.1578 46.4241 80.1474 46.4604C79.1516 52.8608 77.3829 59.8992 76.2937 61.8235C74.3123 65.3349 57.8808 71.0559 55.0437 71.0559C52.2065 71.0559 35.7802 65.3401 33.7989 61.8235C32.7978 60.0496 31.2107 53.9189 30.1837 47.9542C30.1681 47.8816 30.163 47.8505 30.163 47.8505C29.1775 42.0621 28.7159 36.4604 29.8258 35.1897C32.0924 32.5911 52.2117 20.6305 55.0437 20.8951C57.8808 20.6357 77.9949 32.5911 80.2563 35.1897C81.2729 36.3567 80.9721 41.1648 80.1578 46.4137V46.4086Z" fill="url(#paint26_linear_7399_1678)"/>
<g opacity="0.6" style="mix-blend-mode:soft-light">
<path d="M15.3499 29.2665C14.7067 32.7157 25.827 34.6296 25.827 34.6296C25.827 34.6296 44.8156 19.9097 54.0584 18.7219C63.3011 17.5342 84.0584 34.1213 84.0584 34.1213C84.0584 34.1213 91.6569 30.5788 92.2897 28.2966C92.9225 26.0196 62.0459 6.87025 55.1994 6.99992C48.353 7.1244 15.9256 26.1597 15.3499 29.2665Z" fill="#CEE2DB"/>
</g>
<g opacity="0.6" style="mix-blend-mode:soft-light">
<path d="M55.9358 6.39819C52.9224 8.51956 55.0697 18.727 55.0697 18.727C55.0697 18.727 71.5479 25.0911 81.9369 33.753C81.9369 33.753 92.0665 28.8619 92.1132 27.7779C92.1547 26.6887 71.4908 12.3474 55.941 6.39819H55.9358Z" fill="#CEE2DB"/>
</g>
<path d="M76.3301 29.7903C76.3301 29.7903 80.1371 32.2851 82.7305 31.9065C85.3239 31.5279 89.0583 28.4262 89.3124 26.6523C89.5666 24.8785 87.7512 23.6129 87.7512 23.6129C87.7512 23.6129 94.4577 27.6223 95.1112 30.3608C95.1112 30.3608 93.633 29.754 92.1029 30.449C90.578 31.144 83.1506 36.253 83.1506 36.253C83.1506 36.253 83.3685 35.392 82.4504 34.2509C81.5272 33.1098 76.3301 29.7903 76.3301 29.7903Z" fill="url(#paint27_linear_7399_1678)" style="mix-blend-mode:screen"/>
<path d="M60.0384 7.88165C58.2179 7.69493 56.7449 11.725 57.2895 15.2572C57.72 18.0528 60.0384 20.5113 60.0384 20.5113C60.0384 20.5113 54.8206 17.2541 51.4388 19.8889C51.4388 19.8889 52.72 14.308 52.388 11.4605C52.0561 8.61298 49.6909 8.18248 49.6909 8.18248C49.6909 8.18248 52.5747 6.69389 54.193 6.39306C55.8112 6.09223 60.0384 7.87646 60.0384 7.87646V7.88165Z" fill="url(#paint28_linear_7399_1678)" style="mix-blend-mode:screen"/>
<path d="M20.9514 24.4999C20.9514 24.4999 18.358 26.7768 18.0416 27.9802C17.7252 29.1835 25.2045 31.5746 27.4711 31.6524C29.7377 31.725 34.1879 29.5414 34.1879 29.5414C34.1879 29.5414 28.7781 32.7934 27.6785 34.2509C26.5841 35.7032 26.9731 39.8837 26.9731 39.8837C26.9731 39.8837 25.8839 36.4656 24.8103 35.5165C23.7314 34.5673 16.5167 31.8443 15.8217 31.8443C15.1267 31.8443 14.7169 33.5559 14.7169 33.5559C14.7169 33.5559 14.4161 31.2478 15.3445 29.2717C16.2678 27.2903 20.9514 24.5051 20.9514 24.5051V24.4999Z" fill="url(#paint29_linear_7399_1678)" style="mix-blend-mode:screen"/>
<path d="M29.0894 33.0165C29.0894 33.0165 48.6485 19.7229 54.0583 18.727C59.468 17.7312 81.0241 33.0165 81.0241 33.0165C81.0241 33.0165 61.3819 18.1202 54.8622 17.6326C51.0811 17.3474 29.0842 33.0165 29.0842 33.0165H29.0894Z" fill="#F5F9F8"/>
<path d="M20.9514 24.4998C20.9514 24.4998 49.022 6.52784 55.1993 6.99984C61.3715 7.47702 88.5448 24.1108 88.5448 24.1108C88.5448 24.1108 61.7709 6.33075 55.0645 6.32556C48.8664 6.32038 20.9514 24.505 20.9514 24.505V24.4998Z" fill="#F5F9F8"/>
<path d="M53.0415 7.29546C52.1598 8.89816 54.1515 10.6098 55.9565 10.4179C57.7615 10.226 60.8112 8.86185 60.8112 8.86185C60.8112 8.86185 58.0986 5.68757 53.0364 7.29027L53.0415 7.29546Z" fill="white"/>
<path opacity="0.8" d="M27.2948 34.9719C26.2419 37.8298 29.1983 39.4014 29.1983 39.4014C27.7305 37.223 40.8062 24.3754 55.049 23.8672C67.4763 23.4263 81.273 37.0933 80.91 39.4014C80.91 39.4014 82.4764 36.1545 82.4297 34.251C82.383 32.3474 59.328 18.9657 55.049 18.7271C50.7699 18.4885 27.938 33.224 27.2948 34.9719Z" fill="url(#paint30_linear_7399_1678)" style="mix-blend-mode:multiply"/>
<g opacity="0.3" style="mix-blend-mode:soft-light">
<path d="M36.1434 32.6378C26.2627 43.1565 35.8114 57.8401 51.522 62.5444C67.2326 67.2488 80.132 48.9345 78.8664 38.3017C77.6009 27.6689 50.2565 17.6119 36.1434 32.6378Z" fill="#6DE2DB"/>
</g>
<g opacity="0.3" style="mix-blend-mode:soft-light">
<path d="M54.022 24.3702C33.9079 29.4998 39.4992 47.8557 51.1485 52.8245C62.7979 57.7934 75.4898 50.7965 75.9981 38.4521C76.5064 26.1129 54.022 24.365 54.022 24.365V24.3702Z" fill="#6DE2DB"/>
</g>
<path opacity="0.5" d="M80.1475 46.4553C79.1517 52.8557 77.383 59.8941 76.2938 61.8184C74.3125 65.3298 57.8809 71.0508 55.0438 71.0508C52.2067 71.0508 35.7803 65.335 33.799 61.8184C32.7979 60.0445 31.2108 53.9138 30.1838 47.9491C30.3965 48.9968 32.1859 57.4356 34.0531 59.8111C36.0448 62.3526 49.2813 67.2281 55.5365 67.5134C61.7969 67.7935 72.4504 64.7541 75.6403 60.4854C78.6797 56.4242 80.0127 47.1296 80.1475 46.4553Z" fill="url(#paint31_linear_7399_1678)" style="mix-blend-mode:multiply"/>
<path opacity="0.3" d="M90.9358 62.0258C89.9451 65.8224 88.9596 68.8204 88.192 70.1793C85.0955 75.6513 59.4627 84.5724 55.0436 84.5724C50.6245 84.5724 24.9918 75.6513 21.9005 70.1793C21.221 68.976 20.3704 66.5019 19.499 63.3224C19.6391 63.7322 21.5841 69.3598 23.2283 70.3919C24.9347 71.4656 31.3507 63.9604 31.3507 63.9604C31.3507 63.9604 45.4638 72.949 55.0436 73.2031C64.6235 73.4573 78.1194 63.1824 78.1194 63.1824C78.1194 63.1824 82.7615 71.1285 85.609 70.3919C88.3216 69.6917 90.7179 62.6793 90.9358 62.0258Z" fill="url(#paint32_linear_7399_1678)" style="mix-blend-mode:multiply"/>
<path opacity="0.3" d="M25.8269 72.9231C25.0023 72.1658 30.0437 66.5901 31.3508 66.1492C32.663 65.7084 52.6008 73.2395 53.2958 73.8723C53.9908 74.505 54.3072 84.1264 54.3072 84.1264C54.3072 84.1264 38.1039 80.9003 25.8218 72.9231H25.8269Z" fill="url(#paint33_linear_7399_1678)" style="mix-blend-mode:multiply"/>
<path opacity="0.8" d="M43.9285 25.9574C43.9285 25.9574 51.5115 22.2852 55.22 22.4771C58.9285 22.669 63.8662 24.6918 63.8662 24.6918C63.8662 24.6918 57.4399 20.4491 54.8621 20.5113C52.2791 20.5735 43.9285 25.9574 43.9285 25.9574Z" fill="url(#paint34_linear_7399_1678)" style="mix-blend-mode:multiply"/>
<path opacity="0.8" d="M34.7637 62.9023C34.7637 62.9023 48.9597 69.6918 54.717 69.8837C60.4743 70.0756 73.6433 64.0953 73.6433 64.0953C73.6433 64.0953 60.3965 71.0766 55.0438 71.0507C49.6859 71.0247 35.5417 64.6606 34.7637 62.9023Z" fill="url(#paint35_linear_7399_1678)" style="mix-blend-mode:multiply"/>
<path d="M55.0438 71.31C52.1547 71.31 35.6039 65.5372 33.5707 61.948C32.5697 60.1793 30.9722 54.0486 29.9296 47.9957C29.9141 47.9231 29.9089 47.8816 29.9089 47.8816C29.2087 43.7685 28.2336 36.616 29.634 35.0133C31.8176 32.5133 51.9265 20.3453 55.0645 20.6305C58.1713 20.3608 78.2699 32.5133 80.4483 35.0133C81.6672 36.4137 81.0967 41.9998 80.4068 46.4449V46.476C79.3954 52.9179 77.6164 59.9874 76.5116 61.9428C74.4836 65.532 57.9276 71.3048 55.0386 71.3048L55.0438 71.31ZM54.9763 21.1388C51.885 21.1388 32.3467 32.6897 30.023 35.3505C29.1153 36.3878 29.2657 41.0403 30.4172 47.8038C30.4172 47.8142 30.4224 47.8453 30.4328 47.8971C31.4701 53.9137 33.0417 59.9666 34.0168 61.6938C35.9203 65.06 52.2689 70.7965 55.0386 70.7965C57.8083 70.7965 74.1672 65.06 76.0655 61.6938C77.1444 59.7851 78.8975 52.7882 79.8881 46.4189L79.8985 46.3671C80.8218 40.4179 80.884 36.2996 80.0593 35.3505C77.7149 32.6586 57.7772 20.8743 55.0593 21.1388C55.0282 21.1388 54.9971 21.1388 54.966 21.1388H54.9763Z" fill="#2C2797"/>
<path d="M22.5542 71.0507C22.5542 71.0507 44.6652 84.2509 54.7845 84.1264C64.909 83.9967 87.5335 71.0507 87.5335 71.0507C85.8789 74.0745 62.0252 84.2249 55.0438 84.5724C48.0625 84.92 22.8291 74.2457 22.5542 71.0507Z" fill="#A977FF"/>
<path d="M55.3445 72.8868C56.8175 72.1451 56.2418 71.1959 56.2418 71.1959L67.1702 67.5652C67.1702 67.5652 68.7418 68.5351 70.4742 67.9438C70.4742 67.9438 59.5198 72.9179 55.3445 72.8868Z" fill="url(#paint36_linear_7399_1678)" style="mix-blend-mode:screen"/>
<path opacity="0.8" d="M54.7585 26.3515C52.6371 26.3204 49.3332 36.144 48.0313 36.9532C46.7347 37.7623 36.5428 38.2032 35.5002 39.8785C34.4577 41.5538 43.3788 48.115 43.6641 49.3702C43.9494 50.6202 41.6413 61.6472 42.8654 62.9023C44.0894 64.1523 53.5033 57.5548 55.0386 57.6534C56.5739 57.7467 64.7274 63.8723 66.3664 63.0631C68.0054 62.254 65.4017 50.5994 65.9255 49.2353C66.4494 47.8712 74.0946 41.4656 74.0946 39.8837C74.0946 38.4003 63.5085 38.3795 61.5635 36.8131C59.6185 35.2467 56.8799 26.3878 54.7585 26.3567V26.3515Z" fill="url(#paint37_linear_7399_1678)" style="mix-blend-mode:multiply"/>
<path d="M64.7637 49.3754C64.7637 49.3754 67.7512 61.0507 66.3819 62.1244C65.1112 63.1202 54.7585 56.642 54.7585 56.642C54.7585 56.642 44.691 63.0165 43.135 62.1244C41.5998 61.2323 44.7533 49.3754 44.7533 49.3754C44.7533 49.3754 35.2201 41.7043 35.9566 40.0134C36.7554 38.1825 48.5811 37.6171 48.5811 37.6171C48.5811 37.6171 52.7097 26.3516 54.7585 26.3516C56.6672 26.3516 60.941 37.6171 60.941 37.6171C60.941 37.6171 73.0624 38.3744 73.5603 40.0134C73.9493 41.3049 64.7585 49.3754 64.7585 49.3754H64.7637Z" fill="url(#paint38_linear_7399_1678)"/>
<path opacity="0.3" d="M64.7637 49.3755C64.7637 49.3755 67.7512 61.0508 66.3819 62.1244C65.1112 63.1203 54.7585 56.6421 54.7585 56.6421C54.7585 56.6421 44.691 63.0165 43.135 62.1244C41.5998 61.2323 44.7533 49.3755 44.7533 49.3755C44.7533 49.3755 35.2201 41.7043 35.9566 40.0134C35.9566 40.0134 50.5261 44.334 55.5365 44.2873C60.1682 44.2458 73.5655 40.0134 73.5655 40.0134C73.9545 41.3049 64.7637 49.3755 64.7637 49.3755Z" fill="url(#paint39_linear_7399_1678)" style="mix-blend-mode:multiply"/>
<path opacity="0.5" d="M66.3818 62.1192L55.0436 44.2872C55.0436 44.2872 54.4731 54.1835 54.8621 56.0818C55.2511 57.9802 66.3766 62.1192 66.3766 62.1192H66.3818Z" fill="url(#paint40_linear_7399_1678)" style="mix-blend-mode:multiply"/>
<path opacity="0.5" d="M54.7584 26.3516L55.0437 44.2872C55.0437 44.2872 48.7003 38.2292 48.581 37.6171C48.4617 36.9999 52.8237 26.6524 54.7584 26.3516Z" fill="url(#paint41_linear_7399_1678)" style="mix-blend-mode:multiply"/>
<path opacity="0.5" d="M43.1402 62.1192L55.0438 44.2872C55.0438 44.2872 45.5676 48.67 44.7585 49.3702C43.9546 50.0704 42.2015 61.3827 43.1402 62.1192Z" fill="url(#paint42_linear_7399_1678)" style="mix-blend-mode:multiply"/>
<path opacity="0.5" d="M64.7636 49.3755C64.7636 49.3755 55.0593 44.6348 55.0437 44.2925C55.0333 43.9501 73.5655 40.0134 73.5655 40.0134C73.5655 40.0134 70.0645 44.6867 64.7636 49.3755Z" fill="url(#paint43_linear_7399_1678)" style="mix-blend-mode:multiply"/>
<g opacity="0.3" style="mix-blend-mode:soft-light">
<path d="M60.9462 37.6171C59.6495 37.6016 55.0437 44.2872 55.0437 44.2872C55.0437 44.2872 72.4815 40.6462 73.5655 40.0082C73.5655 40.0082 70.7802 38.4522 60.9462 37.6119V37.6171Z" fill="#CEE2DB"/>
</g>
<g opacity="0.3" style="mix-blend-mode:soft-light">
<path d="M36.7397 39.8837C38.0053 38.1721 47.6889 37.254 48.2646 37.6378C48.8456 38.0217 55.0437 44.2924 55.0437 44.2924C55.0437 44.2924 38.1298 40.6773 36.7397 39.8837Z" fill="#CEE2DB"/>
</g>
<path d="M60.3393 36.087C60.4741 37.8557 55.9202 43.3588 55.5364 43.2188C55.1525 43.0787 54.9658 42.2904 54.9658 42.2904L55.0436 44.2872L57.3569 43.7997C57.3569 43.7997 56.4388 43.696 56.3196 43.2655C56.2003 42.8401 60.9461 37.6171 60.9461 37.6171L60.3444 36.087H60.3393Z" fill="url(#paint44_linear_7399_1678)" style="mix-blend-mode:screen"/>
<path d="M40.6505 38.3951C37.8808 40.086 47.72 42.7779 47.72 42.7779C47.72 42.7779 36.5633 40.2001 36.3403 39.8837C36.1173 39.5673 40.3496 38.447 40.6453 38.4003L40.6505 38.3951Z" fill="url(#paint45_linear_7399_1678)" style="mix-blend-mode:screen"/>
<path d="M46.4233 37.7157C48.5862 37.6223 53.9233 43.3173 54.0686 43.7115C54.2086 44.1057 53.7626 44.0124 53.7626 44.0124L55.0489 44.2924L48.5862 37.6223L46.4233 37.7157Z" fill="url(#paint46_linear_7399_1678)" style="mix-blend-mode:screen"/>
<g opacity="0.3" style="mix-blend-mode:soft-light">
<path d="M54.7739 44.6918C54.7739 44.6918 44.9969 59.7385 44.5716 60.7862C44.1463 61.8287 53.7314 56.8443 54.3019 55.4698C54.8724 54.0901 54.7739 44.6918 54.7739 44.6918Z" fill="#CEE2DB"/>
</g>
<g opacity="0.3" style="mix-blend-mode:soft-light">
<path d="M56.7243 45.3557C55.3498 45.309 65.9307 60.6773 65.9307 60.6773C65.9307 60.6773 65.5676 51.5538 64.6029 49.9148C63.6382 48.2706 56.7243 45.3557 56.7243 45.3557Z" fill="#CEE2DB"/>
</g>
<path d="M65.6558 38.032C68.7004 38.9916 65.3446 41.3671 63.5085 41.9688C61.6724 42.5704 56.7087 43.6285 56.7087 43.6285C56.7087 43.6285 73.4255 40.2364 73.5604 40.0082C73.6953 39.78 72.2948 38.8101 65.6506 38.0269L65.6558 38.032Z" fill="url(#paint47_linear_7399_1678)" style="mix-blend-mode:screen"/>
<path d="M59.1569 33.2914C59.1569 33.2914 57.1963 28.0269 55.9359 29.059C55.1994 29.6659 54.966 43.6337 54.966 43.6337L54.7585 26.3516C54.7585 26.3516 56.5791 26.4501 59.1569 33.2914Z" fill="url(#paint48_linear_7399_1678)" style="mix-blend-mode:screen"/>
<g opacity="0.3" style="mix-blend-mode:soft-light">
<path d="M55.9409 44.8837C55.9409 44.8837 55.9617 44.9355 56.0083 45.0289C56.4596 46.0092 59.1463 51.7353 61.4544 53.9967C63.9855 56.4708 65.0332 56.3463 65.0644 56.2478C65.0955 56.1544 64.9762 50.226 64.3071 49.3754L55.9409 44.8837Z" fill="#CEE2DB"/>
</g>
<path opacity="0.3" d="M36.3352 40.3712C36.3352 40.3712 44.3694 42.5548 48.9597 43.3536C53.5499 44.1523 55.0437 44.2924 55.0437 44.2924L44.9555 49.2353C44.9555 49.2353 37.5904 43.5974 36.3352 40.3712Z" fill="url(#paint49_linear_7399_1678)" style="mix-blend-mode:multiply"/>
<path opacity="0.8" d="M50.3342 59.2717C50.3342 59.2717 54.2813 57.6431 55.4017 57.7313C56.522 57.8246 57.4089 58.2292 57.4089 58.2292L54.7533 56.5487L50.3342 59.2717Z" fill="url(#paint50_linear_7399_1678)" style="mix-blend-mode:multiply"/>
<path d="M55.0437 44.2924C55.0437 44.2924 60.5105 37.6171 60.9462 37.6223C61.3767 37.6223 71.0136 38.4781 73.0053 39.7126C73.0053 39.7126 62.3829 43.5144 55.0437 44.2976V44.2924Z" fill="url(#paint51_linear_7399_1678)" style="mix-blend-mode:screen"/>
<path d="M65.9981 62.3422C63.7522 62.3422 55.9981 57.56 54.7584 56.7872C53.441 57.6171 44.6184 63.1202 43.0727 62.2281C41.5271 61.3308 44.1983 50.9677 44.608 49.4169C43.3632 48.4107 35.0956 41.6524 35.8373 39.9563C36.6308 38.1409 47.331 37.5497 48.4877 37.4874C49.0323 36.004 52.72 26.2167 54.7584 26.2167C56.662 26.2167 60.469 36.0144 61.0344 37.4874C62.6163 37.5912 73.1869 38.3225 73.69 39.9667C74.0842 41.2737 66.0914 48.364 64.9088 49.4117C65.2927 50.9262 67.829 61.1441 66.4649 62.2125C66.3611 62.2955 66.2055 62.3318 66.0032 62.3318L65.9981 62.3422ZM54.7584 56.4864L54.8259 56.5279C58.9545 59.1109 65.412 62.7053 66.2989 62.0154C67.2532 61.2685 65.8269 54.059 64.6339 49.4013L64.6132 49.3235L64.6703 49.2717C68.2024 46.1752 73.7055 40.9262 73.4358 40.0445C73.0883 38.9034 65.7647 38.0424 60.9254 37.7416H60.8425L60.8113 37.6586C59.6339 34.5465 56.2418 26.476 54.7481 26.476C53.1402 26.476 49.831 34.5465 48.69 37.6586L48.6588 37.7364H48.5759C45.3082 37.8972 36.6931 38.6181 36.0655 40.06C35.552 41.2322 41.024 46.2115 44.8259 49.2665L44.8881 49.3183L44.8673 49.3961C43.607 54.1264 42.1236 61.3826 43.1869 61.9999C44.4109 62.6949 51.8954 58.281 54.6754 56.5175L54.7429 56.476L54.7584 56.4864Z" fill="#2C2797"/>
<path d="M58.8559 14.9667C57.6889 15.9522 61.0343 16.0196 62.2376 15.5787C63.4409 15.1379 61.999 12.3682 61.999 12.3682C61.999 12.3682 59.5664 14.3651 58.8559 14.9667Z" fill="white"/>
<path d="M63.8558 9.61923C64.0218 10.4491 56.0498 17.3526 54.8828 17.1452C53.7158 16.9481 46.7759 11.5591 46.2676 9.60886C45.9564 8.43147 53.721 0.00305176 54.8828 0.00305176C55.8527 0.00305176 61.3403 6.12338 63.223 8.62857C63.5965 9.12649 63.8299 9.47919 63.8558 9.61405V9.61923Z" fill="url(#paint52_linear_7399_1678)"/>
<path opacity="0.6" d="M63.8558 9.61923C64.0218 10.4491 56.0498 17.3526 54.8828 17.1452C53.7158 16.9481 46.7759 11.5591 46.2676 9.60886C45.9564 8.43147 53.721 0.00305176 54.8828 0.00305176C54.8828 0.00305176 53.2282 15.169 54.7428 16.1597C56.7085 17.4408 63.1245 9.98749 63.2179 8.63376C63.5913 9.13168 63.8247 9.47919 63.8506 9.61405L63.8558 9.61923Z" fill="url(#paint53_linear_7399_1678)" style="mix-blend-mode:multiply"/>
<g opacity="0.6" style="mix-blend-mode:soft-light">
<path d="M55.9411 0.656589C53.8352 0.620282 54.5821 10.9885 55.2979 13.836C56.0189 16.6836 62.466 9.80078 62.6579 8.94497C62.8498 8.08916 55.9411 0.656589 55.9411 0.656589Z" fill="#CEE2DB"/>
</g>
<g opacity="0.6" style="mix-blend-mode:soft-light">
<path d="M55.0591 0.355713C55.0591 0.355713 53.6846 12.8402 54.779 14.3132C55.8682 15.7862 59.8568 12.8402 60.9512 9.37542C62.0456 5.91069 55.0643 0.355713 55.0643 0.355713H55.0591Z" fill="#CEE2DB"/>
</g>
<path opacity="0.8" d="M46.2677 9.60876C46.2677 9.60876 40.3445 12.7467 39.442 13.8359C38.5395 14.9252 52.86 17.3681 54.8829 17.1451C56.9109 16.922 59.7273 13.8878 59.7273 13.8878C59.7273 13.8878 56.387 16.5434 54.7739 16.6368C53.1609 16.7353 46.2625 9.60876 46.2625 9.60876H46.2677Z" fill="url(#paint54_linear_7399_1678)" style="mix-blend-mode:multiply"/>
<path d="M54.5613 5.99888C56.3819 1.49681 60.5053 5.35054 60.5053 5.35054C60.5053 5.35054 55.2875 -0.147384 54.8881 0.003031C54.4887 0.153446 54.5613 5.99888 54.5613 5.99888Z" fill="url(#paint55_linear_7399_1678)" style="mix-blend-mode:screen"/>
<path d="M56.6152 3.48853C53.4513 3.48853 56.6827 9.60886 56.6827 9.60886C56.6827 9.60886 59.3331 3.48853 56.6152 3.48853Z" fill="url(#paint56_linear_7399_1678)" style="mix-blend-mode:screen"/>
<defs>
<linearGradient id="paint0_linear_7399_1678" x1="48.2905" y1="99.7385" x2="61.2573" y2="77.28" gradientUnits="userSpaceOnUse">
<stop stop-color="#315CFF"/>
<stop offset="1" stop-color="#6579FF"/>
</linearGradient>
<linearGradient id="paint1_linear_7399_1678" x1="54.7532" y1="100.542" x2="54.7532" y2="82.2593" gradientUnits="userSpaceOnUse">
<stop stop-color="#ABA6FF"/>
<stop offset="1" stop-color="#7F4AB1"/>
</linearGradient>
<linearGradient id="paint2_linear_7399_1678" x1="55.5779" y1="99.7178" x2="55.5779" y2="94.2354" gradientUnits="userSpaceOnUse">
<stop/>
<stop offset="0.99" stop-color="#757CFF"/>
</linearGradient>
<linearGradient id="paint3_linear_7399_1678" x1="55.1317" y1="94.4169" x2="55.1317" y2="85.4335" gradientUnits="userSpaceOnUse">
<stop stop-color="#CCC5FF"/>
<stop offset="1" stop-color="#7F4AB1"/>
</linearGradient>
<linearGradient id="paint4_linear_7399_1678" x1="90.1838" y1="79.8889" x2="102.041" y2="42.337" gradientUnits="userSpaceOnUse">
<stop offset="0.22" stop-color="#9A90BA"/>
<stop offset="0.39" stop-color="#9F98BD"/>
<stop offset="0.66" stop-color="#AEB1C5"/>
<stop offset="0.99" stop-color="#C7D8D3"/>
<stop offset="1" stop-color="#C8D9D4"/>
</linearGradient>
<linearGradient id="paint5_linear_7399_1678" x1="88.3794" y1="67.9095" x2="96.0839" y2="48.1744" gradientUnits="userSpaceOnUse">
<stop stop-color="#DAEAE2"/>
<stop offset="0.12" stop-color="#CDD8DA"/>
<stop offset="0.4" stop-color="#B1B1C8"/>
<stop offset="0.63" stop-color="#A098BD"/>
<stop offset="0.78" stop-color="#9A90BA"/>
</linearGradient>
<linearGradient id="paint6_linear_7399_1678" x1="88.4546" y1="66.3082" x2="95.2823" y2="48.8177" gradientUnits="userSpaceOnUse">
<stop stop-color="#315CFF"/>
<stop offset="1" stop-color="#6579FF"/>
</linearGradient>
<linearGradient id="paint7_linear_7399_1678" x1="99.2139" y1="64.6607" x2="99.2139" y2="43.3381" gradientUnits="userSpaceOnUse">
<stop stop-color="#7F4AB1"/>
<stop offset="0.99" stop-color="#CCC5FF"/>
</linearGradient>
<linearGradient id="paint8_linear_7399_1678" x1="104.173" y1="49.8318" x2="104.173" y2="42.5652" gradientUnits="userSpaceOnUse">
<stop/>
<stop offset="0.99" stop-color="white"/>
</linearGradient>
<linearGradient id="paint9_linear_7399_1678" x1="98.0779" y1="50.7499" x2="98.0779" y2="48.8671" gradientUnits="userSpaceOnUse">
<stop stop-color="#C2AEFF"/>
<stop offset="1" stop-color="#7F4AB1"/>
</linearGradient>
<linearGradient id="paint10_linear_7399_1678" x1="91.8902" y1="59.0331" x2="98.6381" y2="59.0331" gradientUnits="userSpaceOnUse">
<stop/>
<stop offset="0.99" stop-color="white"/>
</linearGradient>
<linearGradient id="paint11_linear_7399_1678" x1="93.8405" y1="0.00289561" x2="93.8405" y2="59.2716" gradientUnits="userSpaceOnUse">
<stop stop-color="#7F4AB1"/>
<stop offset="0.99" stop-color="#CCC5FF"/>
</linearGradient>
<linearGradient id="paint12_linear_7399_1678" x1="19.7687" y1="79.8889" x2="7.91186" y2="42.337" gradientUnits="userSpaceOnUse">
<stop offset="0.22" stop-color="#9A90BA"/>
<stop offset="0.39" stop-color="#9F98BD"/>
<stop offset="0.66" stop-color="#AEB1C5"/>
<stop offset="0.99" stop-color="#C7D8D3"/>
<stop offset="1" stop-color="#C8D9D4"/>
</linearGradient>
<linearGradient id="paint13_linear_7399_1678" x1="21.7494" y1="67.8711" x2="13.9945" y2="48.1714" gradientUnits="userSpaceOnUse">
<stop stop-color="#DAEAE2"/>
<stop offset="0.12" stop-color="#CDD8DA"/>
<stop offset="0.4" stop-color="#B1B1C8"/>
<stop offset="0.63" stop-color="#A098BD"/>
<stop offset="0.78" stop-color="#9A90BA"/>
</linearGradient>
<linearGradient id="paint14_linear_7399_1678" x1="21.6791" y1="66.2695" x2="14.8015" y2="48.8101" gradientUnits="userSpaceOnUse">
<stop stop-color="#315CFF"/>
<stop offset="1" stop-color="#6579FF"/>
</linearGradient>
<linearGradient id="paint15_linear_7399_1678" x1="10.7439" y1="64.6607" x2="10.7439" y2="43.3381" gradientUnits="userSpaceOnUse">
<stop stop-color="#7F4AB1"/>
<stop offset="0.99" stop-color="#CCC5FF"/>
</linearGradient>
<linearGradient id="paint16_linear_7399_1678" x1="5.78017" y1="49.8318" x2="5.78017" y2="0.0029775" gradientUnits="userSpaceOnUse">
<stop/>
<stop offset="0.99" stop-color="white"/>
</linearGradient>
<linearGradient id="paint17_linear_7399_1678" x1="11.8799" y1="50.7499" x2="11.8799" y2="48.8671" gradientUnits="userSpaceOnUse">
<stop stop-color="#C2AEFF"/>
<stop offset="1" stop-color="#7F4AB1"/>
</linearGradient>
<linearGradient id="paint18_linear_7399_1678" x1="18.0676" y1="59.0331" x2="11.3196" y2="59.0331" gradientUnits="userSpaceOnUse">
<stop/>
<stop offset="0.99" stop-color="white"/>
</linearGradient>
<linearGradient id="paint19_linear_7399_1678" x1="16.1122" y1="64.6606" x2="16.1122" y2="59.2716" gradientUnits="userSpaceOnUse">
<stop stop-color="#7F4AB1"/>
<stop offset="0.99" stop-color="#CCC5FF"/>
</linearGradient>
<linearGradient id="paint20_linear_7399_1678" x1="47.9431" y1="93.9449" x2="61.662" y2="70.1846" gradientUnits="userSpaceOnUse">
<stop offset="0.22" stop-color="#9A90BA"/>
<stop offset="0.39" stop-color="#9F98BD"/>
<stop offset="0.66" stop-color="#AEB1C5"/>
<stop offset="0.99" stop-color="#C7D8D3"/>
<stop offset="1" stop-color="#C8D9D4"/>
</linearGradient>
<linearGradient id="paint21_linear_7399_1678" x1="54.6807" y1="93.9761" x2="54.6807" y2="75.6981" gradientUnits="userSpaceOnUse">
<stop stop-color="#ABA6FF"/>
<stop offset="1" stop-color="#7F4AB1"/>
</linearGradient>
<linearGradient id="paint22_linear_7399_1678" x1="54.769" y1="85.0134" x2="54.769" y2="76.6213" gradientUnits="userSpaceOnUse">
<stop stop-color="#CCC5FF"/>
<stop offset="1" stop-color="#7F4AB1"/>
</linearGradient>
<linearGradient id="paint23_linear_7399_1678" x1="55.5833" y1="92.4823" x2="55.5833" y2="85.2728" gradientUnits="userSpaceOnUse">
<stop/>
<stop offset="0.99" stop-color="white"/>
</linearGradient>
<linearGradient id="paint24_linear_7399_1678" x1="35.4378" y1="77.9698" x2="68.0468" y2="21.4864" gradientUnits="userSpaceOnUse">
<stop offset="0.22" stop-color="#9A90BA"/>
<stop offset="0.39" stop-color="#9F98BD"/>
<stop offset="0.66" stop-color="#AEB1C5"/>
<stop offset="0.99" stop-color="#C7D8D3"/>
<stop offset="1" stop-color="#C8D9D4"/>
</linearGradient>
<linearGradient id="paint25_linear_7399_1678" x1="41.3923" y1="68.6078" x2="64.0946" y2="29.2872" gradientUnits="userSpaceOnUse">
<stop stop-color="#DAEAE2"/>
<stop offset="0.12" stop-color="#CDD8DA"/>
<stop offset="0.4" stop-color="#B1B1C8"/>
<stop offset="0.63" stop-color="#A098BD"/>
<stop offset="0.78" stop-color="#9A90BA"/>
</linearGradient>
<linearGradient id="paint26_linear_7399_1678" x1="42.4762" y1="66.8131" x2="63.3787" y2="30.6098" gradientUnits="userSpaceOnUse">
<stop stop-color="#315CFF"/>
<stop offset="1" stop-color="#6579FF"/>
</linearGradient>
<linearGradient id="paint27_linear_7399_1678" x1="76.3301" y1="29.9355" x2="95.1112" y2="29.9355" gradientUnits="userSpaceOnUse">
<stop/>
<stop offset="0.99" stop-color="white"/>
</linearGradient>
<linearGradient id="paint28_linear_7399_1678" x1="54.8621" y1="20.5113" x2="54.8621" y2="6.36194" gradientUnits="userSpaceOnUse">
<stop/>
<stop offset="0.99" stop-color="white"/>
</linearGradient>
<linearGradient id="paint29_linear_7399_1678" x1="24.4317" y1="39.8837" x2="24.4317" y2="24.4999" gradientUnits="userSpaceOnUse">
<stop/>
<stop offset="0.99" stop-color="white"/>
</linearGradient>
<linearGradient id="paint30_linear_7399_1678" x1="54.7481" y1="39.1109" x2="54.7481" y2="21.0559" gradientUnits="userSpaceOnUse">
<stop stop-color="#C2AEFF"/>
<stop offset="1" stop-color="#7F4AB1"/>
</linearGradient>
<linearGradient id="paint31_linear_7399_1678" x1="55.1683" y1="71.0508" x2="55.1683" y2="46.4553" gradientUnits="userSpaceOnUse">
<stop stop-color="#7F4AB1"/>
<stop offset="1" stop-color="#C2AEFF"/>
</linearGradient>
<linearGradient id="paint32_linear_7399_1678" x1="55.22" y1="84.5724" x2="55.22" y2="62.0258" gradientUnits="userSpaceOnUse">
<stop stop-color="#7F4AB1"/>
<stop offset="0.99" stop-color="#CCC5FF"/>
</linearGradient>
<linearGradient id="paint33_linear_7399_1678" x1="40.023" y1="84.1264" x2="40.023" y2="66.1285" gradientUnits="userSpaceOnUse">
<stop stop-color="#7F4AB1"/>
<stop offset="0.99" stop-color="#CCC5FF"/>
</linearGradient>
<linearGradient id="paint34_linear_7399_1678" x1="53.8973" y1="26.4501" x2="53.8973" y2="20.8744" gradientUnits="userSpaceOnUse">
<stop stop-color="#C2AEFF"/>
<stop offset="1" stop-color="#7F4AB1"/>
</linearGradient>
<linearGradient id="paint35_linear_7399_1678" x1="54.2087" y1="71.7924" x2="54.2087" y2="63.4469" gradientUnits="userSpaceOnUse">
<stop stop-color="#7F4AB1"/>
<stop offset="1" stop-color="#C2AEFF"/>
</linearGradient>
<linearGradient id="paint36_linear_7399_1678" x1="62.9067" y1="72.8142" x2="62.9067" y2="68.1668" gradientUnits="userSpaceOnUse">
<stop/>
<stop offset="0.99" stop-color="#FFFFC7"/>
</linearGradient>
<linearGradient id="paint37_linear_7399_1678" x1="54.7585" y1="63.1357" x2="54.7585" y2="26.3515" gradientUnits="userSpaceOnUse">
<stop stop-color="#7F4AB1"/>
<stop offset="1" stop-color="#C2AEFF"/>
</linearGradient>
<linearGradient id="paint38_linear_7399_1678" x1="43.2802" y1="68.67" x2="58.7471" y2="34.308" gradientUnits="userSpaceOnUse">
<stop offset="0.22" stop-color="#FF8B00"/>
<stop offset="0.39" stop-color="#FF9302"/>
<stop offset="0.67" stop-color="#FFAC07"/>
<stop offset="1" stop-color="#FFD110"/>
</linearGradient>
<linearGradient id="paint39_linear_7399_1678" x1="54.7481" y1="62.2282" x2="54.7481" y2="40.0134" gradientUnits="userSpaceOnUse">
<stop stop-color="#AE1DB1"/>
<stop offset="0.99" stop-color="#FF89FF"/>
</linearGradient>
<linearGradient id="paint40_linear_7399_1678" x1="60.5571" y1="62.1192" x2="60.5571" y2="44.2924" gradientUnits="userSpaceOnUse">
<stop stop-color="#FF10FF"/>
<stop offset="1" stop-color="#B10072"/>
</linearGradient>
<linearGradient id="paint41_linear_7399_1678" x1="51.8123" y1="44.2924" x2="51.8123" y2="26.3516" gradientUnits="userSpaceOnUse">
<stop stop-color="#FF10FF"/>
<stop offset="1" stop-color="#B10072"/>
</linearGradient>
<linearGradient id="paint42_linear_7399_1678" x1="48.9546" y1="0.00299172" x2="48.9546" y2="0.00299172" gradientUnits="userSpaceOnUse">
<stop stop-color="#FF10FF"/>
<stop offset="1" stop-color="#B10072"/>
</linearGradient>
<linearGradient id="paint43_linear_7399_1678" x1="64.3072" y1="49.3755" x2="64.3072" y2="40.0134" gradientUnits="userSpaceOnUse">
<stop stop-color="#FF10FF"/>
<stop offset="1" stop-color="#B10072"/>
</linearGradient>
<linearGradient id="paint44_linear_7399_1678" x1="57.9534" y1="44.2924" x2="57.9534" y2="36.087" gradientUnits="userSpaceOnUse">
<stop/>
<stop offset="0.99" stop-color="white"/>
</linearGradient>
<linearGradient id="paint45_linear_7399_1678" x1="42.0249" y1="42.7779" x2="42.0249" y2="38.3951" gradientUnits="userSpaceOnUse">
<stop/>
<stop offset="0.99" stop-color="white"/>
</linearGradient>
<linearGradient id="paint46_linear_7399_1678" x1="50.7335" y1="44.2924" x2="50.7335" y2="37.6171" gradientUnits="userSpaceOnUse">
<stop/>
<stop offset="0.99" stop-color="white"/>
</linearGradient>
<linearGradient id="paint47_linear_7399_1678" x1="56.7139" y1="40.8329" x2="73.576" y2="40.8329" gradientUnits="userSpaceOnUse">
<stop/>
<stop offset="0.99" stop-color="white"/>
</linearGradient>
<linearGradient id="paint48_linear_7399_1678" x1="56.9577" y1="43.6389" x2="56.9577" y2="26.3516" gradientUnits="userSpaceOnUse">
<stop/>
<stop offset="0.99" stop-color="white"/>
</linearGradient>
<linearGradient id="paint49_linear_7399_1678" x1="45.6869" y1="49.2353" x2="45.6869" y2="40.3712" gradientUnits="userSpaceOnUse">
<stop stop-color="#FF51FF"/>
<stop offset="1" stop-color="#9A25C7"/>
</linearGradient>
<linearGradient id="paint50_linear_7399_1678" x1="53.8664" y1="59.2717" x2="53.8664" y2="56.5539" gradientUnits="userSpaceOnUse">
<stop stop-color="#C2AEFF"/>
<stop offset="1" stop-color="#7F4AB1"/>
</linearGradient>
<linearGradient id="paint51_linear_7399_1678" x1="64.0219" y1="44.2924" x2="64.0219" y2="37.6171" gradientUnits="userSpaceOnUse">
<stop/>
<stop offset="0.99" stop-color="#FFE884"/>
</linearGradient>
<linearGradient id="paint52_linear_7399_1678" x1="51.7708" y1="15.195" x2="58.3112" y2="3.86716" gradientUnits="userSpaceOnUse">
<stop stop-color="#B3ACCB"/>
<stop offset="0.27" stop-color="#B6B4CC"/>
<stop offset="0.71" stop-color="#C0CCD0"/>
<stop offset="1" stop-color="#C8E0D4"/>
</linearGradient>
<linearGradient id="paint53_linear_7399_1678" x1="51.7708" y1="15.2001" x2="58.2853" y2="3.91384" gradientUnits="userSpaceOnUse">
<stop stop-color="#B8A9FF"/>
<stop offset="1" stop-color="#7F4AB1"/>
</linearGradient>
<linearGradient id="paint54_linear_7399_1678" x1="39.4005" y1="13.3847" x2="59.7273" y2="13.3847" gradientUnits="userSpaceOnUse">
<stop stop-color="#C2AEFF"/>
<stop offset="1" stop-color="#7F4AB1"/>
</linearGradient>
<linearGradient id="paint55_linear_7399_1678" x1="57.5281" y1="5.99888" x2="57.5281" y2="0.0030313" gradientUnits="userSpaceOnUse">
<stop/>
<stop offset="0.99" stop-color="white"/>
</linearGradient>
<linearGradient id="paint56_linear_7399_1678" x1="56.5322" y1="9.60886" x2="56.5322" y2="3.48853" gradientUnits="userSpaceOnUse">
<stop/>
<stop offset="0.99" stop-color="white"/>
</linearGradient>
</defs>
</svg>
