<svg width="125" height="101" viewBox="0 0 125 101" fill="none" xmlns="http://www.w3.org/2000/svg">
<path d="M99.0508 47.8765C99.0508 47.8765 114.621 49.0902 118.74 46.3049C122.853 43.5196 127.241 27.9076 124.383 20.3661L99.056 47.8765H99.0508Z" fill="#A977FF"/>
<path d="M124.445 30.0341C124.403 30.3038 124.362 30.5735 124.315 30.8536V30.864C124.17 31.7665 123.999 32.6793 123.807 33.587C123.807 33.5974 123.807 33.6077 123.807 33.6181C122.557 39.4947 120.353 45.226 117.697 46.4501C114.73 47.809 99.0508 47.8764 99.0508 47.8764L84.0093 27.2073C84.0093 27.2073 88.3713 26.1544 94.2064 24.8162C105.581 22.2177 122.578 18.5507 123.843 19.5621C125.083 20.5528 125.166 25.003 124.445 30.0289V30.0341Z" fill="url(#paint0_linear_7399_1792)"/>
<path d="M92.9565 31.616C92.9565 31.616 114.139 26.7301 115.218 27.586C116.867 28.8982 114.85 39.4169 111.748 40.838C110.083 41.6005 102.204 41.6212 102.204 41.6212L92.9565 31.616Z" fill="url(#paint1_linear_7399_1792)"/>
<path d="M114.383 33.3433C114.383 33.3433 114.383 33.3693 114.367 33.4211C113.983 36.2583 112.925 39.3392 111.38 40.0498C110.088 40.6462 104.175 40.7552 102.557 40.7759C102.298 40.7811 102.147 40.7811 102.147 40.7811L94.5281 31.6161C94.5281 31.6161 112.92 27.6276 113.895 28.4056C114.559 28.9346 114.694 31.0508 114.388 33.3433H114.383Z" fill="url(#paint2_linear_7399_1792)"/>
<path opacity="0.6" d="M123.807 33.6181C122.557 39.4947 120.353 45.226 117.697 46.4501C114.73 47.809 99.0508 47.8765 99.0508 47.8765L84.0093 27.2074C84.0093 27.2074 88.3713 26.1545 94.2064 24.8163L94.3205 24.8785C90.8972 28.9657 97.8008 30.0289 101.105 29.5829C104.403 29.1316 114.082 26.9169 115.218 27.586C116.343 28.2551 115.653 32.0206 115.653 32.0206C115.653 32.0206 115.363 29.2872 113.657 28.9708C111.95 28.6493 101.758 29.92 100.487 31.3101C99.2271 32.7053 102.749 37.1814 102.749 37.1814L103.221 40.7655L103.148 41.8754C103.148 41.8754 109.409 41.6939 111.753 40.8381C111.753 40.8381 112.386 45.9003 115.871 46.1026C118.693 46.2686 122.458 38.4262 123.812 33.6181H123.807Z" fill="url(#paint3_linear_7399_1792)" style="mix-blend-mode:multiply"/>
<path opacity="0.6" d="M124.445 30.0342C124.404 30.3039 124.362 30.5736 124.315 30.8537C124.321 30.4284 124.367 30.169 124.445 30.0342Z" fill="url(#paint4_linear_7399_1792)" style="mix-blend-mode:multiply"/>
<path opacity="0.6" d="M100.581 30.3402C100.581 30.3402 110.835 28.3018 112.495 28.5819C114.154 28.8671 114.611 29.4947 114.611 29.4947C114.611 29.4947 115.078 27.8557 114.274 27.6794C113.47 27.503 101.099 30.1794 100.581 30.335V30.3402Z" fill="url(#paint5_linear_7399_1792)" style="mix-blend-mode:multiply"/>
<path opacity="0.6" d="M114.367 33.4211C113.983 36.2582 112.925 39.3391 111.38 40.0497C110.088 40.6462 104.175 40.7551 102.557 40.7759L101.027 39.4377C102.095 39.8474 110.42 39.9149 112.256 37.4719C113.859 35.3402 114.284 33.7738 114.367 33.4159V33.4211Z" fill="url(#paint6_linear_7399_1792)" style="mix-blend-mode:multiply"/>
<path d="M111.214 40.2623C110.975 40.5217 111.644 40.8692 111.644 40.8692C111.644 40.8692 106.727 41.7561 103.024 41.5901V40.9366C103.024 40.9366 109.507 40.698 111.214 40.2623Z" fill="url(#paint7_linear_7399_1792)" style="mix-blend-mode:screen"/>
<g opacity="0.3" style="mix-blend-mode:soft-light">
<path d="M103.978 30.0341C98.0186 32.8557 103.646 38.5559 108.465 38.0787C113.283 37.6015 115.296 32.4044 113.688 30.0341C112.08 27.6689 103.978 30.0341 103.978 30.0341Z" fill="#6DE2DB"/>
</g>
<g opacity="0.3" style="mix-blend-mode:soft-light">
<path d="M106.131 29.8526C100.472 31.6524 105.84 35.6151 108.667 35.8329C111.488 36.0508 114.492 33.1047 112.707 30.6877C110.923 28.2655 106.136 29.8526 106.136 29.8526H106.131Z" fill="#6DE2DB"/>
</g>
<g opacity="0.6" style="mix-blend-mode:soft-light">
<path d="M93.6099 25.9729C91.4367 30.672 113.968 26.8183 115.425 27.3214C116.883 27.8245 115.866 36.6835 113.242 39.7229C113.242 39.7229 113.148 44.2198 115.996 44.7851C118.843 45.3557 123.345 35.4075 123.807 27.7571C124.263 20.1067 122.707 19.6088 122.707 19.6088C122.707 19.6088 94.7147 23.7374 93.6151 25.9677L93.6099 25.9729Z" fill="#CEE2DB"/>
</g>
<g opacity="0.6" style="mix-blend-mode:soft-light">
<path d="M98.0447 24.1835C93.6879 25.4595 97.386 29.0902 98.3974 29.3443C99.4088 29.5985 112.64 26.8754 114.917 27.3163C117.194 27.7572 115.804 34.0902 115.804 34.0902C115.804 34.0902 121.468 34.3754 123.273 29.3443C125.078 24.3132 124.315 21.3723 123.273 20.392C122.23 19.4065 100.41 23.4885 98.0447 24.1835Z" fill="#CEE2DB"/>
</g>
<path d="M106.618 22.0881C106.618 22.0881 110.073 21.336 111.12 22.0881C112.163 22.8402 111.079 26.9999 109.844 27.6742C108.605 28.3485 106.992 28.6337 106.992 28.6337C106.992 28.6337 114.04 26.9688 115.218 27.586C115.218 27.586 114.186 23.8464 117.012 21.751C119.839 19.6555 123.423 19.3962 123.423 19.3962C123.423 19.3962 120.695 18.9761 106.629 22.0881H106.618Z" fill="url(#paint8_linear_7399_1792)" style="mix-blend-mode:screen"/>
<path opacity="0.6" d="M103.138 41.8754C103.138 41.8754 103.325 45.1119 104.186 46.4345C105.047 47.7571 111.644 47.4407 111.644 47.4407C111.644 47.4407 106.385 47.7675 102.718 47.8245L103.138 41.8806V41.8754Z" fill="url(#paint9_linear_7399_1792)" style="mix-blend-mode:multiply"/>
<path d="M102.147 41.0351H102.028L94.0613 31.4552L94.471 31.3671C98.8123 30.4231 113.055 27.4148 114.051 28.2032C114.902 28.8826 114.912 31.3204 114.637 33.3743L114.621 33.4677C114.264 36.1077 113.226 39.4843 111.489 40.283C110.202 40.8743 104.819 41.004 102.562 41.0351C102.303 41.0351 102.153 41.0351 102.147 41.0351ZM94.9949 31.7768L102.272 40.5216C102.339 40.5216 102.438 40.5216 102.557 40.5216C106.131 40.4749 110.301 40.2675 111.281 39.8214C112.728 39.1523 113.75 36.1077 114.124 33.3899L114.139 33.3069C114.445 31.0144 114.279 29.0382 113.74 28.6129C112.905 28.1565 101.976 30.283 95.0001 31.7872L94.9949 31.7768Z" fill="#2C2797"/>
<path d="M101.904 29.3443C101.904 29.3443 113.709 26.9169 115.213 27.586C116.722 28.2551 115.213 34.365 115.213 34.365C115.213 34.365 116.961 28.9242 115.799 27.3267C115.016 26.2478 101.898 29.3495 101.898 29.3495L101.904 29.3443Z" fill="#F5F9F8"/>
<path d="M86.4626 90.1638C86.3744 90.6721 82.4325 92.7883 77.7437 94.9771C77.7437 94.9771 77.7333 94.9771 77.7282 94.9771C71.8983 97.7053 64.9273 100.537 62.78 100.537C58.9107 100.537 39.2894 91.3049 39.0974 90.1586C38.9055 89.0123 41.2292 82.254 41.2292 82.254L62.78 89.0331L84.336 82.254C84.336 82.254 85.2541 84.9407 85.8869 87.2125L85.9128 87.3111C86.2707 88.6026 86.53 89.7437 86.4574 90.1586L86.4626 90.1638Z" fill="url(#paint10_linear_7399_1792)"/>
<path opacity="0.6" d="M85.918 87.3163C84.8703 85.7084 63.0601 94.002 62.5207 94.697C61.9813 95.3921 62.7956 98.9761 63.2883 99.697C63.7655 100.382 76.6026 95.4232 77.7282 94.9823C71.8983 97.7105 64.9273 100.542 62.78 100.542C58.9107 100.542 39.2894 91.3101 39.0974 90.1638C38.9055 89.0176 41.2292 82.2593 41.2292 82.2593L62.78 89.0383L84.336 82.2593C84.336 82.2593 85.2541 84.946 85.8869 87.2178L85.9128 87.3163H85.918Z" fill="url(#paint11_linear_7399_1792)" style="mix-blend-mode:multiply"/>
<path d="M39.6006 90.6565C39.6006 90.6565 59.0145 99.8992 63.5684 99.6658C68.1276 99.4272 84.2271 91.7198 84.2271 91.7198C84.2271 91.7198 67.3132 100.574 63.0913 100.522C58.8693 100.47 40.9336 91.8546 39.6006 90.6565Z" fill="#A977FF"/>
<g opacity="0.3" style="mix-blend-mode:soft-light">
<path d="M63.947 93.976C62.2406 97.4823 65.1815 98.4314 65.1815 98.4314C65.1815 98.4314 75.3422 95.086 79.6161 93.0061C83.89 90.9262 82.8422 87.7935 82.8422 87.7935L63.947 93.9708V93.976Z" fill="#6DE2DB"/>
</g>
<g opacity="0.3" style="mix-blend-mode:soft-light">
<path d="M64.5592 99.5361C62.3341 97.1969 62.8943 95.0444 63.7034 94.422C64.5125 93.7944 78.0499 89.0227 79.0976 89.9303C80.1401 90.838 76.7221 95.2571 72.9254 96.8235C69.1287 98.3899 64.5644 99.5413 64.5644 99.5413L64.5592 99.5361Z" fill="#6DE2DB"/>
</g>
<path d="M62.7956 94.7852C62.5829 95.4543 62.8941 98.7531 63.5736 99.6659C64.0819 100.351 63.89 94.251 63.89 94.251C63.89 94.251 63.3661 94.1006 62.7956 94.78V94.7852Z" fill="url(#paint12_linear_7399_1792)" style="mix-blend-mode:screen"/>
<path opacity="0.8" d="M40.2021 85.4335C40.2021 85.4335 42.5154 93.115 62.059 94.4169C69.1492 93.0061 85.5652 86.3411 85.5652 86.3411L85.3681 85.4438C85.3681 85.4438 65.1866 93.9397 60.8816 93.6233C56.5766 93.3069 40.2021 85.4335 40.2021 85.4335Z" fill="url(#paint13_linear_7399_1792)" style="mix-blend-mode:multiply"/>
<path d="M96.2188 71.9065C96.2188 71.9065 105.705 72.5808 109.445 71.2115C113.185 69.8422 116.618 58.3018 116.618 58.3018L96.2188 71.9065Z" fill="#A977FF"/>
<path d="M109.497 70.7032C106.986 71.6524 96.2239 71.9065 96.2239 71.9065L99.7249 50.9729C99.7249 50.9729 101.016 50.8017 102.904 50.5891C107.635 50.06 116.089 49.2613 117.152 50.2364C117.474 50.532 117.645 51.1026 117.692 51.8909C117.972 56.6887 113.511 69.1835 109.497 70.7136V70.7032Z" fill="url(#paint14_linear_7399_1792)"/>
<path d="M100.845 56.5435C100.845 56.5435 109.782 55.3609 110.617 56.1233C111.898 57.2955 109.222 65.2623 106.597 66.2634C105.192 66.7976 99.1545 66.9377 99.1545 66.9377L100.845 56.5435Z" fill="url(#paint15_linear_7399_1792)"/>
<path d="M100.628 57.1087C100.628 57.1087 108.729 56.0351 109.486 56.7301C110.648 57.7882 108.283 64.728 105.902 65.6357C104.627 66.1233 99.1545 66.2478 99.1545 66.2478L100.628 57.1087Z" fill="url(#paint16_linear_7399_1792)"/>
<path opacity="0.6" d="M109.497 70.7032C106.986 71.6524 96.2239 71.9065 96.2239 71.9065L99.7249 50.9729C99.7249 50.9729 101.016 50.8018 102.904 50.5891C100.192 53.0424 102.661 55.7603 104.471 55.8744C106.281 55.9833 109.668 55.6306 110.617 56.1285C111.566 56.6265 110.358 60.4283 110.358 60.4283C110.358 60.4283 110.441 59.3236 109.611 57.6171C108.781 55.9159 103.345 57.0984 101.924 57.9594C100.503 58.8204 99.7197 66.2374 99.7197 66.2374L99.3463 66.9428C99.3463 66.9428 104.497 67.8142 107.111 66.253C107.111 66.253 107.521 69.8682 109.263 69.9978C111.006 70.1223 114.092 64.3495 115.793 59.4532C117.495 54.5621 117.681 51.8858 117.681 51.8858C117.961 56.6835 113.501 69.1783 109.486 70.7084L109.497 70.7032Z" fill="url(#paint17_linear_7399_1792)" style="mix-blend-mode:multiply"/>
<g opacity="0.3" style="mix-blend-mode:soft-light">
<path d="M103.517 57.6119C100.114 58.3432 100.301 63.5092 104.18 64.0642C108.06 64.6192 109.554 59.2976 109.222 57.8038C108.89 56.3101 105.109 57.2696 103.517 57.6119Z" fill="#6DE2DB"/>
</g>
<g opacity="0.3" style="mix-blend-mode:soft-light">
<path d="M102.629 57.7468C99.6731 60.0549 103.039 62.6327 105.622 62.8453C108.205 63.0528 109.113 59.7281 109.222 57.8038C109.336 55.8795 103.952 56.7198 102.629 57.7468Z" fill="#6DE2DB"/>
</g>
<g opacity="0.6" style="mix-blend-mode:soft-light">
<path d="M104.471 51.1544C102.095 51.5538 102.23 54.7955 102.93 55.2208C103.631 55.6513 109.512 55.4802 110.949 55.864C112.381 56.2478 111.053 61.4553 109.668 64.1679C108.283 66.8806 112.604 65.1119 114.434 61.7872C116.265 58.4625 118.081 52.5134 116.54 51.1493C115 49.7903 104.476 51.1493 104.476 51.1493L104.471 51.1544Z" fill="#CEE2DB"/>
</g>
<g opacity="0.6" style="mix-blend-mode:soft-light">
<path d="M103.46 50.6928C101.022 52.0413 101.686 54.4791 102.464 55.309C103.242 56.1389 108.06 54.9304 110.109 55.8691C112.163 56.8079 115.98 55.475 116.758 51.7665C117.536 48.0528 103.46 50.698 103.46 50.698V50.6928Z" fill="#CEE2DB"/>
</g>
<path d="M108.008 50.0393C108.008 50.0393 109.554 49.9355 110.166 50.4075C110.773 50.8795 110.275 53.6752 109.554 54.6762C108.833 55.6721 107.225 55.864 107.225 55.864C107.225 55.864 110.928 55.2468 110.975 57.0777C110.975 57.0777 110.98 54.6658 112.848 52.3163C114.715 49.9719 116.613 49.9874 116.613 49.9874C116.613 49.9874 113.74 49.5621 108.003 50.0393H108.008Z" fill="url(#paint18_linear_7399_1792)" style="mix-blend-mode:screen"/>
<path opacity="0.8" d="M101.566 56.9895C101.566 56.9895 107.458 56.3878 108.682 56.7405C109.906 57.0932 109.782 57.9957 109.782 57.9957C109.782 57.9957 110.218 56.8754 110.041 56.3256C109.865 55.7758 104.906 56.3982 101.561 56.9895H101.566Z" fill="url(#paint19_linear_7399_1792)" style="mix-blend-mode:multiply"/>
<path d="M99.6368 66.9169L99.9117 66.2271C99.9117 66.2271 104.32 66.2115 105.897 65.641C105.897 65.641 106.063 66.2063 106.385 66.336C106.385 66.336 104.232 66.974 99.6316 66.9221L99.6368 66.9169Z" fill="url(#paint20_linear_7399_1792)" style="mix-blend-mode:screen"/>
<path opacity="0.6" d="M98.5891 66.5175C98.5891 66.5175 97.8267 69.7851 98.1586 70.7706C98.4906 71.7509 107.655 71.1233 107.655 71.1233C103.916 71.616 99.9895 71.7457 95.5393 71.9065L98.5891 66.5226V66.5175Z" fill="url(#paint21_linear_7399_1792)" style="mix-blend-mode:multiply"/>
<path d="M98.8484 66.5123L100.399 56.8805L100.591 56.8546C102.521 56.6004 108.869 55.8224 109.658 56.5434C110.176 57.0154 110.078 58.1824 109.912 59.0797C109.466 61.4189 107.816 65.1845 105.996 65.8795C104.694 66.3774 99.3878 66.5019 99.1596 66.5071H98.8484V66.5123ZM100.85 57.337L99.4552 65.9832C100.622 65.9469 104.761 65.7965 105.809 65.3971C107.277 64.8422 108.921 61.5538 109.403 58.9812C109.637 57.7415 109.507 57.1036 109.31 56.922C108.895 56.5486 104.715 56.839 100.845 57.3422L100.85 57.337Z" fill="#2C2797"/>
<path d="M104.694 55.8692C104.694 55.8692 110.731 55.3505 111.286 56.113C111.846 56.8754 110.072 61.2478 110.072 61.2478C110.072 61.2478 111.416 57.5186 110.799 56.4968C110.181 55.475 104.694 55.8692 104.694 55.8692Z" fill="#F5F9F8"/>
<path d="M0.959559 20.6876C-2.2199 25.9262 3.1328 45.4542 7.75416 47.1295C12.3703 48.8048 26.4056 47.8764 26.4056 47.8764L0.959559 20.6876Z" fill="#A977FF"/>
<path d="M1.01149 30.0341C1.05817 30.3038 1.09966 30.5735 1.14115 30.8536V30.864C1.28638 31.7665 1.45754 32.6793 1.64945 33.587C1.64945 33.5974 1.64945 33.6077 1.64945 33.6181C2.89945 39.4947 5.10381 45.226 7.75941 46.4501C10.7262 47.809 26.4057 47.8764 26.4057 47.8764L41.4472 27.2073C41.4472 27.2073 37.0903 26.1544 31.2501 24.8162C19.8756 22.2177 2.87871 18.5507 1.61315 19.5621C0.373519 20.5528 0.290531 25.003 1.01149 30.0289V30.0341Z" fill="url(#paint22_linear_7399_1792)"/>
<path d="M32.5052 31.616C32.5052 31.616 11.3226 26.7301 10.2438 27.586C8.59439 28.8982 10.612 39.4169 13.7137 40.838C15.3786 41.6005 23.2572 41.6212 23.2572 41.6212L32.5052 31.616Z" fill="url(#paint23_linear_7399_1792)"/>
<path d="M11.0738 33.3433C11.0738 33.3433 11.0738 33.3693 11.0893 33.4211C11.4731 36.2583 12.5312 39.3392 14.0769 40.0498C15.3684 40.6462 21.2812 40.7552 22.8995 40.7759C23.1588 40.7811 23.3092 40.7811 23.3092 40.7811L30.9337 31.6161C30.9337 31.6161 12.5468 27.6276 11.5665 28.4056C10.9026 28.9346 10.7678 31.0508 11.0738 33.3433Z" fill="url(#paint24_linear_7399_1792)"/>
<path opacity="0.6" d="M1.65454 33.6181C2.90454 39.4947 5.1089 45.226 7.7645 46.4501C10.7313 47.809 26.4108 47.8765 26.4108 47.8765L41.4523 27.2074C41.4523 27.2074 37.0954 26.1545 31.2552 24.8163L31.1411 24.8785C34.5643 28.9657 27.6608 30.0289 24.3568 29.5829C21.0581 29.1316 11.3796 26.9169 10.2489 27.586C9.12342 28.2551 9.81325 32.0206 9.81325 32.0206C9.81325 32.0206 10.1037 29.2872 11.8101 28.9708C13.5166 28.6493 23.7137 29.92 24.9792 31.3101C26.2396 32.7053 22.7178 37.1814 22.7178 37.1814L22.2458 40.7655L22.3184 41.8754C22.3184 41.8754 16.0633 41.6939 13.7137 40.8381C13.7137 40.8381 13.0809 45.9003 9.59541 46.1026C6.77384 46.2686 3.00309 38.4262 1.65454 33.6181Z" fill="url(#paint25_linear_7399_1792)" style="mix-blend-mode:multiply"/>
<path opacity="0.6" d="M1.01147 30.0342C1.05816 30.3039 1.09965 30.5736 1.14114 30.8537C1.14114 30.4284 1.08928 30.169 1.01147 30.0342Z" fill="url(#paint26_linear_7399_1792)" style="mix-blend-mode:multiply"/>
<path opacity="0.6" d="M24.8755 30.3402C24.8755 30.3402 14.6214 28.3018 12.9616 28.5819C11.3019 28.8671 10.8455 29.4947 10.8455 29.4947C10.8455 29.4947 10.3787 27.8557 11.1826 27.6794C11.9865 27.503 24.3569 30.1794 24.8807 30.335L24.8755 30.3402Z" fill="url(#paint27_linear_7399_1792)" style="mix-blend-mode:multiply"/>
<path opacity="0.6" d="M11.0891 33.4211C11.4729 36.2582 12.531 39.3391 14.0767 40.0497C15.3682 40.6462 21.281 40.7551 22.8993 40.7759V39.6711C21.836 40.0808 15.031 39.9097 13.2001 37.4719C11.5974 35.3402 11.1721 33.7738 11.0891 33.4159V33.4211Z" fill="url(#paint28_linear_7399_1792)" style="mix-blend-mode:multiply"/>
<path d="M14.2428 40.2623C14.4813 40.5217 13.8123 40.8692 13.8123 40.8692C13.8123 40.8692 18.7293 41.7561 22.4326 41.5901V40.9366C22.4326 40.9366 15.9492 40.698 14.2428 40.2623Z" fill="url(#paint29_linear_7399_1792)" style="mix-blend-mode:screen"/>
<g opacity="0.3" style="mix-blend-mode:soft-light">
<path d="M21.4834 30.0341C27.4429 32.8557 21.8153 38.5559 16.9969 38.0787C12.1784 37.6015 10.166 32.4044 11.7739 30.0341C13.3817 27.6689 21.4834 30.0341 21.4834 30.0341Z" fill="#6DE2DB"/>
</g>
<g opacity="0.3" style="mix-blend-mode:soft-light">
<path d="M19.3256 29.8526C24.9844 31.6524 19.6161 35.6151 16.7893 35.8329C13.9678 36.0508 10.9647 33.1047 12.7489 30.6877C14.5331 28.2655 19.3205 29.8526 19.3205 29.8526H19.3256Z" fill="#6DE2DB"/>
</g>
<g opacity="0.6" style="mix-blend-mode:soft-light">
<path d="M31.8466 25.9729C34.025 30.672 11.4887 26.8183 10.0313 27.3214C8.57378 27.8245 9.59038 36.6835 12.2149 39.7229C12.2149 39.7229 12.3082 44.2198 9.46071 44.7851C6.6132 45.3557 2.10594 35.4075 1.64951 27.7571C1.19308 20.1067 2.7491 19.6088 2.7491 19.6088C2.7491 19.6088 30.7418 23.7374 31.8414 25.9677L31.8466 25.9729Z" fill="#CEE2DB"/>
</g>
<g opacity="0.6" style="mix-blend-mode:soft-light">
<path d="M27.4171 24.1835C31.7739 25.4595 28.0758 29.0902 27.0644 29.3443C26.053 29.5985 12.8216 26.8754 10.5447 27.3163C8.2677 27.7572 9.65774 34.0902 9.65774 34.0902C9.65774 34.0902 3.99384 34.3754 2.18886 29.3443C0.383879 24.3132 1.14633 21.3723 2.18886 20.392C3.23139 19.4065 25.0467 23.4885 27.4171 24.1835Z" fill="#CEE2DB"/>
</g>
<path d="M18.8383 22.0881C18.8383 22.0881 15.384 21.336 14.3414 22.0881C13.2989 22.8402 14.3829 26.9999 15.6174 27.6742C16.857 28.3485 18.4701 28.6337 18.4701 28.6337C18.4701 28.6337 11.4213 26.9688 10.2439 27.586C10.2439 27.586 11.2761 23.8464 8.4493 21.751C5.62773 19.6555 2.0437 19.3962 2.0437 19.3962C2.0437 19.3962 4.77192 18.9761 18.8383 22.0881Z" fill="url(#paint30_linear_7399_1792)" style="mix-blend-mode:screen"/>
<path opacity="0.6" d="M22.3185 41.8754C22.3185 41.8754 22.1318 45.1119 21.2708 46.4345C20.4098 47.7571 13.8123 47.4407 13.8123 47.4407C13.8123 47.4407 19.0716 47.7675 22.7386 47.8245L22.3185 41.8806V41.8754Z" fill="url(#paint31_linear_7399_1792)" style="mix-blend-mode:multiply"/>
<path d="M23.3091 41.0352C23.3091 41.0352 23.1587 41.0352 22.8942 41.0352C20.638 41.0041 15.2542 40.8796 13.9679 40.2832C12.2303 39.4844 11.1981 36.1027 10.8351 33.4522L10.8195 33.3693C10.5446 31.3153 10.555 28.8776 11.4056 28.1981C12.4015 27.4045 26.6442 30.418 30.9855 31.3568L31.3952 31.445L23.4284 41.0249H23.3091V41.0352ZM11.3278 33.3018L11.3434 33.3744C11.7168 36.1078 12.7386 39.1473 14.1857 39.8164C15.166 40.2676 19.3309 40.4751 22.9046 40.5166C23.0291 40.5166 23.1224 40.5166 23.195 40.5166L30.4668 31.7717C23.4907 30.2676 12.5623 28.1462 11.722 28.6027C11.193 29.0228 11.027 30.9989 11.333 33.2915L11.3278 33.3018Z" fill="#2C2797"/>
<path d="M23.5529 29.3443C23.5529 29.3443 11.7479 26.9169 10.2386 27.586C8.72924 28.2551 10.2386 34.365 10.2386 34.365C10.2386 34.365 8.49065 28.9242 9.64729 27.3267C10.4305 26.2478 23.5477 29.3495 23.5477 29.3495L23.5529 29.3443Z" fill="#F5F9F8"/>
<path d="M29.2376 71.9065C29.2376 71.9065 19.7511 72.5808 16.0114 71.2115C12.2718 69.8422 8.83301 58.3018 8.83301 58.3018L29.2324 71.9065H29.2376Z" fill="#A977FF"/>
<path d="M15.9649 70.7032C18.4753 71.6524 29.2429 71.9065 29.2429 71.9065L25.7367 50.9729C25.7367 50.9729 24.44 50.8017 22.5572 50.5891C17.8269 50.06 9.37257 49.2613 8.30929 50.2364C7.98771 50.532 7.81137 51.1026 7.76987 51.8909C7.48979 56.6887 11.9504 69.1835 15.9649 70.7136V70.7032Z" fill="url(#paint32_linear_7399_1792)"/>
<path d="M24.6163 56.5435C24.6163 56.5435 15.6795 55.3609 14.8445 56.1233C13.5634 57.2955 16.2397 65.2623 18.8642 66.2634C20.2698 66.7976 26.3123 66.9377 26.3123 66.9377L24.6215 56.5435H24.6163Z" fill="url(#paint33_linear_7399_1792)"/>
<path d="M24.829 57.1087C24.829 57.1087 16.7274 56.0351 15.9701 56.7301C14.8083 57.7882 17.1734 64.728 19.5541 65.6357C20.83 66.1233 26.302 66.2478 26.302 66.2478L24.829 57.1087Z" fill="url(#paint34_linear_7399_1792)"/>
<path opacity="0.6" d="M15.965 70.7032C18.4753 71.6524 29.243 71.9065 29.243 71.9065L25.7367 50.9729C25.7367 50.9729 24.4401 50.8018 22.5573 50.5891C25.2699 53.0424 22.8011 55.7603 20.9909 55.8744C19.1807 55.9833 15.7938 55.6306 14.8498 56.1285C13.9006 56.6265 15.1091 60.4283 15.1091 60.4283C15.1091 60.4283 15.021 59.3236 15.856 57.6171C16.6859 55.9159 22.1268 57.0984 23.5428 57.9594C24.9639 58.8204 25.7471 66.2374 25.7471 66.2374L26.1206 66.9428C26.1206 66.9428 20.9701 67.8142 18.356 66.253C18.356 66.253 17.9463 69.8682 16.2035 69.9978C14.4556 70.1223 11.3747 64.3495 9.67346 59.4532C7.97222 54.5621 7.7855 51.8858 7.7855 51.8858C7.50541 56.6835 11.966 69.1783 15.9805 70.7084L15.965 70.7032Z" fill="url(#paint35_linear_7399_1792)" style="mix-blend-mode:multiply"/>
<g opacity="0.3" style="mix-blend-mode:soft-light">
<path d="M21.9398 57.6119C25.3423 58.3432 25.1504 63.5092 21.2759 64.0642C17.4015 64.6192 15.9025 59.2976 16.2344 57.8038C16.5664 56.3101 20.3475 57.2696 21.9398 57.6119Z" fill="#6DE2DB"/>
</g>
<g opacity="0.3" style="mix-blend-mode:soft-light">
<path d="M22.8268 57.7468C25.7832 60.0549 22.417 62.6327 19.834 62.8453C17.2511 63.0528 16.3486 59.7281 16.2345 57.8038C16.1203 55.8795 21.5042 56.7198 22.8268 57.7468Z" fill="#6DE2DB"/>
</g>
<g opacity="0.6" style="mix-blend-mode:soft-light">
<path d="M20.9855 51.1544C23.361 51.5538 23.2261 54.7955 22.5259 55.2208C21.8257 55.6513 15.944 55.4802 14.5072 55.864C13.0757 56.2478 14.4035 61.4553 15.7884 64.1679C17.1732 66.8806 12.8527 65.1119 11.027 61.7872C9.19605 58.4625 7.38069 52.5134 8.92115 51.1493C10.4616 49.7903 20.9855 51.1493 20.9855 51.1493V51.1544Z" fill="#CEE2DB"/>
</g>
<g opacity="0.6" style="mix-blend-mode:soft-light">
<path d="M21.9969 50.6928C24.4347 52.0413 23.7708 54.4791 22.9928 55.309C22.2148 56.1389 17.3963 54.9304 15.3476 55.8691C13.2988 56.8079 9.47619 55.475 8.69819 51.7665C7.92537 48.0528 21.9969 50.698 21.9969 50.698V50.6928Z" fill="#CEE2DB"/>
</g>
<path d="M17.4483 50.0393C17.4483 50.0393 15.9027 49.9355 15.2958 50.4075C14.6838 50.8795 15.1869 53.6752 15.9027 54.6762C16.6236 55.6721 18.2315 55.864 18.2315 55.864C18.2315 55.864 14.5282 55.2468 14.4815 57.0777C14.4815 57.0777 14.4763 54.6658 12.6091 52.3163C10.7419 49.9719 8.83838 49.9874 8.83838 49.9874C8.83838 49.9874 11.7118 49.5621 17.4483 50.0393Z" fill="url(#paint36_linear_7399_1792)" style="mix-blend-mode:screen"/>
<path opacity="0.8" d="M23.8902 56.9895C23.8902 56.9895 17.9981 56.3878 16.774 56.7405C15.5499 57.0932 15.6744 57.9957 15.6744 57.9957C15.6744 57.9957 15.2387 56.8754 15.4151 56.3256C15.5914 55.7758 20.5499 56.3982 23.8954 56.9895H23.8902Z" fill="url(#paint37_linear_7399_1792)" style="mix-blend-mode:multiply"/>
<path d="M25.8195 66.9169L25.5394 66.2271C25.5394 66.2271 21.1307 66.2115 19.554 65.641C19.554 65.641 19.3828 66.2063 19.0664 66.336C19.0664 66.336 21.2189 66.974 25.8195 66.9221V66.9169Z" fill="url(#paint38_linear_7399_1792)" style="mix-blend-mode:screen"/>
<path opacity="0.6" d="M26.8725 66.5175C26.8725 66.5175 27.6401 69.7851 27.303 70.7706C26.971 71.7509 17.8113 71.1233 17.8113 71.1233C21.5457 71.616 25.4721 71.7457 29.9223 71.9065L26.8725 66.5226V66.5175Z" fill="url(#paint39_linear_7399_1792)" style="mix-blend-mode:multiply"/>
<path d="M26.6079 66.5124H26.3019C26.0788 66.4968 20.7676 66.3723 19.4658 65.8744C17.6452 65.1794 15.9958 61.4138 15.5498 59.0746C15.3786 58.1773 15.2853 57.0103 15.8039 56.5383C16.5871 55.8225 22.9409 56.5954 24.8703 56.8495L25.0622 56.8754L26.6131 66.5072L26.6079 66.5124ZM17.5363 56.751C16.7842 56.751 16.2759 56.8028 16.1463 56.9221C15.944 57.1037 15.8143 57.7416 16.0529 58.9812C16.5405 61.5487 18.1846 64.8371 19.6473 65.3972C20.7002 65.7966 24.834 65.9522 26.0062 65.9833L24.611 57.3371C21.9658 56.9947 19.1701 56.751 17.5363 56.751Z" fill="#2C2797"/>
<path d="M20.7625 55.8692C20.7625 55.8692 14.7251 55.3505 14.1702 56.113C13.61 56.8754 15.3839 61.2478 15.3839 61.2478C15.3839 61.2478 14.0405 57.5186 14.6577 56.4968C15.2749 55.475 20.7625 55.8692 20.7625 55.8692Z" fill="#F5F9F8"/>
<path d="M88.3403 83.5974C88.2573 84.0383 85.0779 85.6773 80.9492 87.529C80.9492 87.529 80.9181 87.5394 80.8559 87.5653C74.2739 90.5165 65.3528 93.9761 62.8009 93.9761C59.0302 93.9761 41.3538 86.4242 37.858 84.1317C37.8528 84.1317 37.8476 84.1317 37.8476 84.1317C37.4845 83.8983 37.2822 83.7167 37.2615 83.6078C37.054 82.4615 39.5592 75.7032 39.5592 75.7032L62.8061 82.4771L86.0582 75.7032C86.0582 75.7032 86.9555 78.1358 87.6297 80.3246C88.081 81.7925 88.4337 83.1462 88.3507 83.6078L88.3403 83.5974Z" fill="url(#paint40_linear_7399_1792)"/>
<path opacity="0.6" d="M87.6194 80.3142C86.3383 78.2499 63.3819 84.5674 62.7958 85.641C62.2045 86.7198 62.1059 92.2645 63.33 92.9854C64.497 93.6701 79.523 88.058 80.8559 87.5653C74.274 90.5165 65.3528 93.9761 62.801 93.9761C58.6256 93.9761 37.4638 84.7437 37.2564 83.5974C37.0489 82.4512 39.5541 75.6929 39.5541 75.6929L62.801 82.4667L86.053 75.6929C86.053 75.6929 86.9503 78.1254 87.6246 80.3142H87.6194Z" fill="url(#paint41_linear_7399_1792)" style="mix-blend-mode:multiply"/>
<path opacity="0.8" d="M38.0707 80.003C37.2512 83.6026 58.2367 86.1026 63.3301 84.5466C68.4234 82.9906 86.9919 78.307 86.9919 78.307L86.3695 76.6265C86.3695 76.6265 68.2211 83.4366 62.9255 83.4366C57.6298 83.4366 38.968 77.3163 38.968 77.3163L38.0655 80.0082L38.0707 80.003Z" fill="url(#paint42_linear_7399_1792)" style="mix-blend-mode:multiply"/>
<g opacity="0.3" style="mix-blend-mode:soft-light">
<path d="M62.7958 85.641C62.3912 88.0839 63.1329 93.2084 64.1858 93.001C65.2387 92.7935 82.1423 87.7987 84.0873 85.8018C86.0323 83.8101 85.4981 78.6804 85.4981 78.6804C85.4981 78.6804 65.1557 82.8246 62.7906 85.641H62.7958Z" fill="#CEE2DB"/>
</g>
<path d="M62.7958 85.641C62.5832 86.3101 62.4276 92.3993 63.5635 92.4771C64.0925 92.5134 64.0147 85.4284 64.0147 85.4284C64.0147 85.4284 63.3664 84.9564 62.7958 85.6359V85.641Z" fill="url(#paint43_linear_7399_1792)" style="mix-blend-mode:screen"/>
<path d="M88.3403 83.5974C88.2573 84.0383 85.0778 85.6773 80.9492 87.5289C80.9492 87.5289 80.9181 87.5393 80.8558 87.5653C74.2739 90.5165 65.3527 93.976 62.8009 93.976C59.0301 93.976 41.3538 86.4242 37.8579 84.1316C38.4233 84.4014 56.5664 93.1825 62.9928 93.1669C69.5228 93.1462 88.3455 83.6026 88.3455 83.6026L88.3403 83.5974Z" fill="#A977FF"/>
<g opacity="0.6" style="mix-blend-mode:soft-light">
<path d="M64.2532 93.0061C62.0281 90.6669 63.2107 85.6409 64.0198 85.0134C64.8289 84.3858 79.082 79.9096 80.1246 80.8173C81.1671 81.725 76.4109 88.7219 72.6142 90.2883C68.8175 91.8546 64.2532 93.0061 64.2532 93.0061Z" fill="#CEE2DB"/>
</g>
<path d="M98.7033 61.9791C98.7033 61.9791 98.6981 61.9947 98.6877 62.031C97.697 65.8276 96.7116 68.8256 95.9439 70.1845C92.8475 75.6565 67.2147 84.5776 62.7956 84.5776C58.3765 84.5776 32.7437 75.6565 29.6524 70.1845C28.973 68.9812 28.1224 66.5071 27.251 63.3276C27.2458 63.3121 27.2406 63.3017 27.2406 63.3017C24.1338 51.9791 20.7002 31.782 23.4595 28.6233C26.9968 24.5673 58.3713 5.92101 62.7904 6.32558C67.2095 5.92101 98.5892 24.5673 102.121 28.6233C104.777 31.6679 101.706 50.475 98.6981 61.9843L98.7033 61.9791Z" fill="url(#paint44_linear_7399_1792)"/>
<path d="M90.1764 34.2509C87.7127 31.4293 65.8714 18.4418 62.7957 18.727C59.7199 18.447 37.8735 31.4293 35.415 34.2509C32.9513 37.0725 37.5675 59.3754 39.7199 63.1824C41.8724 66.9947 59.7199 73.2032 62.7957 73.2032C65.8714 73.2032 83.7137 66.9947 85.8714 63.1824C88.0239 59.3702 92.6401 37.0725 90.1764 34.2509Z" fill="url(#paint45_linear_7399_1792)"/>
<path d="M87.9097 46.4086C87.9097 46.4086 87.9097 46.4241 87.8994 46.4604C86.9035 52.8608 85.1348 59.8992 84.0456 61.8235C82.0643 65.3349 65.6328 71.0559 62.7956 71.0559C59.9585 71.0559 43.5321 65.3401 41.5508 61.8235C40.5498 60.0496 38.9626 53.9189 37.9357 47.9542C37.9201 47.8816 37.9149 47.8505 37.9149 47.8505C36.9294 42.0621 36.4678 36.4604 37.5778 35.1897C39.8444 32.5911 59.9637 20.6305 62.7956 20.8951C65.6328 20.6357 85.7469 32.5911 88.0083 35.1897C89.0249 36.3567 88.724 41.1648 87.9097 46.4137V46.4086Z" fill="url(#paint46_linear_7399_1792)"/>
<g opacity="0.6" style="mix-blend-mode:soft-light">
<path d="M23.0964 29.2665C22.4533 32.7157 33.5736 34.6296 33.5736 34.6296C33.5736 34.6296 52.5622 19.9097 61.805 18.7219C71.0477 17.5342 91.805 34.1213 91.805 34.1213C91.805 34.1213 99.4035 30.5788 100.036 28.2966C100.669 26.0196 69.7925 6.87025 62.946 6.99992C56.0996 7.1244 23.6722 26.1597 23.0964 29.2665Z" fill="#CEE2DB"/>
</g>
<g opacity="0.6" style="mix-blend-mode:soft-light">
<path d="M63.6824 6.39819C60.6689 8.51956 62.8162 18.727 62.8162 18.727C62.8162 18.727 79.2945 25.0911 89.6835 33.753C89.6835 33.753 99.8131 28.8619 99.8598 27.7779C99.9013 26.6887 79.2374 12.3474 63.6876 6.39819H63.6824Z" fill="#CEE2DB"/>
</g>
<path d="M84.082 29.7903C84.082 29.7903 87.8891 32.2851 90.4824 31.9065C93.0758 31.5279 96.8102 28.4262 97.0644 26.6523C97.3185 24.8785 95.5032 23.6129 95.5032 23.6129C95.5032 23.6129 102.21 27.6223 102.863 30.3608C102.863 30.3608 101.385 29.754 99.8549 30.449C98.33 31.144 90.9026 36.253 90.9026 36.253C90.9026 36.253 91.1204 35.392 90.2024 34.2509C89.2791 33.1098 84.082 29.7903 84.082 29.7903Z" fill="url(#paint47_linear_7399_1792)" style="mix-blend-mode:screen"/>
<path d="M67.7853 7.88165C65.9647 7.69493 64.4917 11.725 65.0363 15.2572C65.4668 18.0528 67.7853 20.5113 67.7853 20.5113C67.7853 20.5113 62.5674 17.2541 59.1857 19.8889C59.1857 19.8889 60.4668 14.308 60.1348 11.4605C59.8029 8.61298 57.4377 8.18248 57.4377 8.18248C57.4377 8.18248 60.3216 6.69389 61.9398 6.39306C63.5581 6.09223 67.7853 7.87646 67.7853 7.87646V7.88165Z" fill="url(#paint48_linear_7399_1792)" style="mix-blend-mode:screen"/>
<path d="M28.7033 24.4999C28.7033 24.4999 26.11 26.7768 25.7936 27.9802C25.4772 29.1835 32.9564 31.5746 35.223 31.6524C37.4896 31.725 41.9398 29.5414 41.9398 29.5414C41.9398 29.5414 36.5301 32.7934 35.4305 34.2509C34.3361 35.7032 34.7251 39.8837 34.7251 39.8837C34.7251 39.8837 33.6359 36.4656 32.5622 35.5165C31.4834 34.5673 24.2687 31.8443 23.5737 31.8443C22.8786 31.8443 22.4689 33.5559 22.4689 33.5559C22.4689 33.5559 22.168 31.2478 23.0965 29.2717C24.0197 27.2903 28.7033 24.5051 28.7033 24.5051V24.4999Z" fill="url(#paint49_linear_7399_1792)" style="mix-blend-mode:screen"/>
<path d="M36.836 33.0165C36.836 33.0165 56.3951 19.7229 61.8049 18.727C67.2146 17.7312 88.7706 33.0165 88.7706 33.0165C88.7706 33.0165 69.1285 18.1202 62.6088 17.6326C58.8277 17.3474 36.8308 33.0165 36.8308 33.0165H36.836Z" fill="#F5F9F8"/>
<path d="M28.7032 24.4998C28.7032 24.4998 56.7737 6.52784 62.9459 6.99984C69.1181 7.47702 96.2914 24.1108 96.2914 24.1108C96.2914 24.1108 69.5175 6.33075 62.8111 6.32556C56.6129 6.32038 28.698 24.505 28.698 24.505L28.7032 24.4998Z" fill="#F5F9F8"/>
<path d="M60.7884 7.29546C59.9066 8.89816 61.8983 10.6098 63.7033 10.4179C65.5083 10.226 68.5581 8.86185 68.5581 8.86185C68.5581 8.86185 65.8454 5.68757 60.7832 7.29027L60.7884 7.29546Z" fill="white"/>
<path opacity="0.8" d="M35.0414 34.9719C33.9885 37.8298 36.9449 39.4014 36.9449 39.4014C35.4771 37.223 48.5528 24.3754 62.7955 23.8672C75.2229 23.4263 89.0196 37.0933 88.6565 39.4014C88.6565 39.4014 90.2229 36.1545 90.1763 34.251C90.1296 32.3474 67.0746 18.9657 62.7955 18.7271C58.5165 18.4885 35.6845 33.224 35.0414 34.9719Z" fill="url(#paint50_linear_7399_1792)" style="mix-blend-mode:multiply"/>
<g opacity="0.3" style="mix-blend-mode:soft-light">
<path d="M43.8951 32.6378C34.0144 43.1565 43.5631 57.8401 59.2737 62.5444C74.9843 67.2488 87.8837 48.9345 86.6181 38.3017C85.3526 27.6689 58.0082 17.6119 43.8951 32.6378Z" fill="#6DE2DB"/>
</g>
<g opacity="0.3" style="mix-blend-mode:soft-light">
<path d="M61.7686 24.3702C41.6545 29.4998 47.2457 47.8557 58.8951 52.8245C70.5445 57.7934 83.2364 50.7965 83.7447 38.4521C84.253 26.1129 61.7686 24.365 61.7686 24.365V24.3702Z" fill="#6DE2DB"/>
</g>
<path opacity="0.5" d="M87.8992 46.4553C86.9034 52.8557 85.1347 59.8941 84.0455 61.8184C82.0642 65.3298 65.6326 71.0508 62.7955 71.0508C59.9584 71.0508 43.532 65.335 41.5507 61.8184C40.5497 60.0445 38.9625 53.9138 37.9355 47.9491C38.1482 48.9968 39.9376 57.4356 41.8048 59.8111C43.7965 62.3526 57.0331 67.2281 63.2882 67.5134C69.5486 67.7935 80.2021 64.7541 83.392 60.4854C86.4314 56.4242 87.7644 47.1296 87.8992 46.4553Z" fill="url(#paint51_linear_7399_1792)" style="mix-blend-mode:multiply"/>
<path opacity="0.3" d="M98.6877 62.0258C97.697 65.8224 96.7116 68.8204 95.9439 70.1793C92.8475 75.6513 67.2147 84.5724 62.7956 84.5724C58.3765 84.5724 32.7437 75.6513 29.6524 70.1793C28.973 68.976 28.1223 66.5019 27.251 63.3224C27.391 63.7322 29.336 69.3598 30.9802 70.3919C32.6867 71.4656 39.1026 63.9604 39.1026 63.9604C39.1026 63.9604 53.2157 72.949 62.7956 73.2031C72.3755 73.4573 85.8713 63.1824 85.8713 63.1824C85.8713 63.1824 90.5134 71.1285 93.3609 70.3919C96.0736 69.6917 98.4699 62.6793 98.6877 62.0258Z" fill="url(#paint52_linear_7399_1792)" style="mix-blend-mode:multiply"/>
<path opacity="0.3" d="M33.5735 72.9231C32.7488 72.1658 37.7903 66.5901 39.0974 66.1492C40.4096 65.7084 60.3474 73.2395 61.0424 73.8723C61.7374 74.505 62.0538 84.1264 62.0538 84.1264C62.0538 84.1264 45.8505 80.9003 33.5683 72.9231H33.5735Z" fill="url(#paint53_linear_7399_1792)" style="mix-blend-mode:multiply"/>
<path opacity="0.8" d="M51.6804 25.9574C51.6804 25.9574 59.2634 22.2852 62.9719 22.4771C66.6804 22.669 71.6182 24.6918 71.6182 24.6918C71.6182 24.6918 65.1918 20.4491 62.614 20.5113C60.031 20.5735 51.6804 25.9574 51.6804 25.9574Z" fill="url(#paint54_linear_7399_1792)" style="mix-blend-mode:multiply"/>
<path opacity="0.8" d="M42.5156 62.9023C42.5156 62.9023 56.7117 69.6918 62.4689 69.8837C68.2262 70.0756 81.3953 64.0953 81.3953 64.0953C81.3953 64.0953 68.1484 71.0766 62.7957 71.0507C57.4378 71.0247 43.2936 64.6606 42.5156 62.9023Z" fill="url(#paint55_linear_7399_1792)" style="mix-blend-mode:multiply"/>
<path d="M62.7957 71.31C59.9067 71.31 43.3559 65.5372 41.3227 61.948C40.3216 60.1793 38.7241 54.0486 37.6816 47.9957C37.666 47.9231 37.6608 47.8816 37.6608 47.8816C36.9606 43.7685 35.9855 36.616 37.386 35.0133C39.5696 32.5133 59.6785 20.3453 62.8165 20.6305C65.9233 20.3608 86.0219 32.5133 88.2003 35.0133C89.4192 36.4137 88.8486 41.9998 88.1588 46.4449V46.476C87.1474 52.9179 85.3683 59.9874 84.2636 61.9428C82.2355 65.532 65.6795 71.3048 62.7905 71.3048L62.7957 71.31ZM62.7231 21.1388C59.6318 21.1388 40.0934 32.6897 37.7698 35.3505C36.8621 36.3878 37.0125 41.0403 38.164 47.8038C38.164 47.8142 38.1691 47.8453 38.1795 47.8971C39.2169 53.9137 40.7884 59.9666 41.7635 61.6938C43.6671 65.06 60.0156 70.7965 62.7853 70.7965C65.555 70.7965 81.914 65.06 83.8123 61.6938C84.8911 59.7851 86.6443 52.7882 87.6349 46.4189L87.6453 46.3671C88.5685 40.4179 88.6308 36.2996 87.8061 35.3505C85.4617 32.6586 65.5239 20.8743 62.8061 21.1388C62.775 21.1388 62.7438 21.1388 62.7127 21.1388H62.7231Z" fill="#2C2797"/>
<path d="M30.3059 71.0507C30.3059 71.0507 52.4169 84.2509 62.5362 84.1264C72.6607 83.9967 95.2852 71.0507 95.2852 71.0507C93.6306 74.0745 69.7769 84.2249 62.7955 84.5724C55.8142 84.92 30.5808 74.2457 30.3059 71.0507Z" fill="#A977FF"/>
<path d="M63.0964 72.8868C64.5695 72.1451 63.9937 71.1959 63.9937 71.1959L74.9222 67.5652C74.9222 67.5652 76.4937 68.5351 78.2261 67.9438C78.2261 67.9438 67.2717 72.9179 63.0964 72.8868Z" fill="url(#paint56_linear_7399_1792)" style="mix-blend-mode:screen"/>
<path opacity="0.8" d="M62.5105 26.3515C60.3891 26.3204 57.0852 36.144 55.7833 36.9532C54.4866 37.7623 44.2947 38.2032 43.2522 39.8785C42.2096 41.5538 51.1308 48.115 51.4161 49.3702C51.7013 50.6202 49.3933 61.6472 50.6173 62.9023C51.8414 64.1523 61.2553 57.5548 62.7906 57.6534C64.3258 57.7467 72.4794 63.8723 74.1184 63.0631C75.7574 62.254 73.1536 50.5994 73.6775 49.2353C74.2013 47.8712 81.8466 41.4656 81.8466 39.8837C81.8466 38.4003 71.2605 38.3795 69.3155 36.8131C67.3704 35.2467 64.6318 26.3878 62.5105 26.3567V26.3515Z" fill="url(#paint57_linear_7399_1792)" style="mix-blend-mode:multiply"/>
<path d="M72.5156 49.3754C72.5156 49.3754 75.5032 61.0507 74.1339 62.1244C72.8631 63.1202 62.5104 56.642 62.5104 56.642C62.5104 56.642 52.443 63.0165 50.887 62.1244C49.3517 61.2323 52.5052 49.3754 52.5052 49.3754C52.5052 49.3754 42.972 41.7043 43.7085 40.0134C44.5073 38.1825 56.333 37.6171 56.333 37.6171C56.333 37.6171 60.4617 26.3516 62.5104 26.3516C64.4191 26.3516 68.693 37.6171 68.693 37.6171C68.693 37.6171 80.8144 38.3744 81.3123 40.0134C81.7013 41.3049 72.5104 49.3754 72.5104 49.3754H72.5156Z" fill="url(#paint58_linear_7399_1792)"/>
<path opacity="0.3" d="M72.5156 49.3755C72.5156 49.3755 75.5032 61.0508 74.1339 62.1244C72.8631 63.1203 62.5104 56.6421 62.5104 56.6421C62.5104 56.6421 52.443 63.0165 50.887 62.1244C49.3517 61.2323 52.5052 49.3755 52.5052 49.3755C52.5052 49.3755 42.972 41.7043 43.7085 40.0134C43.7085 40.0134 58.2781 44.334 63.2884 44.2873C67.9202 44.2458 81.3175 40.0134 81.3175 40.0134C81.7065 41.3049 72.5156 49.3755 72.5156 49.3755Z" fill="url(#paint59_linear_7399_1792)" style="mix-blend-mode:multiply"/>
<path opacity="0.5" d="M74.1338 62.1192L62.7956 44.2872C62.7956 44.2872 62.225 54.1835 62.614 56.0818C63.0031 57.9802 74.1286 62.1192 74.1286 62.1192H74.1338Z" fill="url(#paint60_linear_7399_1792)" style="mix-blend-mode:multiply"/>
<path opacity="0.5" d="M62.5103 26.3516L62.7956 44.2872C62.7956 44.2872 56.4523 38.2292 56.333 37.6171C56.2137 36.9999 60.5757 26.6524 62.5103 26.3516Z" fill="url(#paint61_linear_7399_1792)" style="mix-blend-mode:multiply"/>
<path opacity="0.5" d="M50.8922 62.1192L62.7957 44.2872C62.7957 44.2872 53.3196 48.67 52.5105 49.3702C51.7065 50.0704 49.9534 61.3827 50.8922 62.1192Z" fill="url(#paint62_linear_7399_1792)" style="mix-blend-mode:multiply"/>
<path opacity="0.5" d="M72.5156 49.3755C72.5156 49.3755 62.8112 44.6348 62.7957 44.2925C62.7853 43.9501 81.3174 40.0134 81.3174 40.0134C81.3174 40.0134 77.8164 44.6867 72.5156 49.3755Z" fill="url(#paint63_linear_7399_1792)" style="mix-blend-mode:multiply"/>
<g opacity="0.3" style="mix-blend-mode:soft-light">
<path d="M68.693 37.6171C67.3963 37.6016 62.7905 44.2872 62.7905 44.2872C62.7905 44.2872 80.2283 40.6462 81.3123 40.0082C81.3123 40.0082 78.527 38.4522 68.693 37.6119V37.6171Z" fill="#CEE2DB"/>
</g>
<g opacity="0.3" style="mix-blend-mode:soft-light">
<path d="M44.4866 39.8837C45.7521 38.1721 55.4357 37.254 56.0115 37.6378C56.5924 38.0217 62.7905 44.2924 62.7905 44.2924C62.7905 44.2924 45.8766 40.6773 44.4866 39.8837Z" fill="#CEE2DB"/>
</g>
<path d="M68.0912 36.087C68.2261 37.8557 63.6721 43.3588 63.2883 43.2188C62.9045 43.0787 62.7178 42.2904 62.7178 42.2904L62.7956 44.2872L65.1089 43.7997C65.1089 43.7997 64.1908 43.696 64.0715 43.2655C63.9522 42.8401 68.6981 37.6171 68.6981 37.6171L68.0964 36.087H68.0912Z" fill="url(#paint64_linear_7399_1792)" style="mix-blend-mode:screen"/>
<path d="M48.3973 38.3951C45.6276 40.086 55.4668 42.7779 55.4668 42.7779C55.4668 42.7779 44.3102 40.2001 44.0871 39.8837C43.8641 39.5673 48.0965 38.447 48.3921 38.4003L48.3973 38.3951Z" fill="url(#paint65_linear_7399_1792)" style="mix-blend-mode:screen"/>
<path d="M54.1702 37.7157C56.333 37.6223 61.6702 43.3173 61.8154 43.7115C61.9554 44.1057 61.5094 44.0124 61.5094 44.0124L62.7957 44.2924L56.333 37.6223L54.1702 37.7157Z" fill="url(#paint66_linear_7399_1792)" style="mix-blend-mode:screen"/>
<g opacity="0.3" style="mix-blend-mode:soft-light">
<path d="M62.5258 44.6918C62.5258 44.6918 52.7489 59.7385 52.3236 60.7862C51.8982 61.8287 61.4833 56.8443 62.0538 55.4698C62.6244 54.0901 62.5258 44.6918 62.5258 44.6918Z" fill="#CEE2DB"/>
</g>
<g opacity="0.3" style="mix-blend-mode:soft-light">
<path d="M64.4711 45.3557C63.0966 45.309 73.6775 60.6773 73.6775 60.6773C73.6775 60.6773 73.3144 51.5538 72.3497 49.9148C71.385 48.2706 64.4711 45.3557 64.4711 45.3557Z" fill="#CEE2DB"/>
</g>
<path d="M73.4078 38.032C76.4524 38.9916 73.0966 41.3671 71.2605 41.9688C69.4244 42.5704 64.4607 43.6285 64.4607 43.6285C64.4607 43.6285 81.1775 40.2364 81.3124 40.0082C81.4472 39.78 80.0468 38.8101 73.4026 38.0269L73.4078 38.032Z" fill="url(#paint67_linear_7399_1792)" style="mix-blend-mode:screen"/>
<path d="M66.9088 33.2914C66.9088 33.2914 64.9483 28.0269 63.6879 29.059C62.9514 29.6659 62.718 43.6337 62.718 43.6337L62.5105 26.3516C62.5105 26.3516 64.331 26.4501 66.9088 33.2914Z" fill="url(#paint68_linear_7399_1792)" style="mix-blend-mode:screen"/>
<g opacity="0.3" style="mix-blend-mode:soft-light">
<path d="M63.6877 44.8837C63.6877 44.8837 63.7085 44.9355 63.7552 45.0289C64.2064 46.0092 66.8931 51.7353 69.2012 53.9967C71.7323 56.4708 72.7801 56.3463 72.8112 56.2478C72.8423 56.1544 72.723 50.226 72.0539 49.3754L63.6877 44.8837Z" fill="#CEE2DB"/>
</g>
<path opacity="0.3" d="M44.082 40.3712C44.082 40.3712 52.1163 42.5548 56.7065 43.3536C61.2968 44.1523 62.7905 44.2924 62.7905 44.2924L52.7024 49.2353C52.7024 49.2353 45.3372 43.5974 44.082 40.3712Z" fill="url(#paint69_linear_7399_1792)" style="mix-blend-mode:multiply"/>
<path opacity="0.8" d="M58.0808 59.2716C58.0808 59.2716 62.0279 57.643 63.1482 57.7312C64.2686 57.8245 65.1555 58.2291 65.1555 58.2291L62.4999 56.5486L58.0808 59.2716Z" fill="url(#paint70_linear_7399_1792)" style="mix-blend-mode:multiply"/>
<path d="M62.7957 44.2924C62.7957 44.2924 68.2625 37.6171 68.6981 37.6223C69.1286 37.6223 78.7656 38.4781 80.7573 39.7126C80.7573 39.7126 70.1349 43.5144 62.7957 44.2976V44.2924Z" fill="url(#paint71_linear_7399_1792)" style="mix-blend-mode:screen"/>
<path d="M73.75 62.3422C71.5042 62.3422 63.75 57.56 62.5104 56.7872C61.1929 57.6171 52.3703 63.1202 50.8247 62.2281C49.279 61.3308 51.9502 50.9677 52.36 49.4169C51.1151 48.4107 42.8475 41.6524 43.5892 39.9563C44.3828 38.1409 55.083 37.5497 56.2396 37.4874C56.7842 36.004 60.472 26.2167 62.5104 26.2167C64.4139 26.2167 68.221 36.0144 68.7863 37.4874C70.3683 37.5912 80.9388 38.3225 81.4419 39.9667C81.8361 41.2737 73.8434 48.364 72.6608 49.4117C73.0446 50.9262 75.5809 61.1441 74.2168 62.2125C74.1131 62.2955 73.9575 62.3318 73.7552 62.3318L73.75 62.3422ZM62.5104 56.4864L62.5778 56.5279C66.7064 59.1109 73.1639 62.7053 74.0508 62.0154C75.0052 61.2685 73.5788 54.059 72.3859 49.4013L72.3652 49.3235L72.4222 49.2717C75.9544 46.1752 81.4575 40.9262 81.1878 40.0445C80.8402 38.9034 73.5166 38.0424 68.6774 37.7416H68.5944L68.5633 37.6586C67.3859 34.5465 63.9938 26.476 62.5 26.476C60.8921 26.476 57.583 34.5465 56.4419 37.6586L56.4108 37.7364H56.3278C53.0602 37.8972 44.445 38.6181 43.8174 40.06C43.3039 41.2322 48.7759 46.2115 52.5778 49.2665L52.64 49.3183L52.6193 49.3961C51.3589 54.1264 49.8755 61.3826 50.9388 61.9999C52.1629 62.6949 59.6473 58.281 62.4274 56.5175L62.4948 56.476L62.5104 56.4864Z" fill="#2C2797"/>
<path d="M66.6027 14.9667C65.4357 15.9522 68.7811 16.0196 69.9844 15.5787C71.1877 15.1379 69.7458 12.3682 69.7458 12.3682C69.7458 12.3682 67.3133 14.3651 66.6027 14.9667Z" fill="white"/>
<path d="M71.6078 9.61923C71.7738 10.4491 63.8018 17.3526 62.6348 17.1452C61.4677 16.9481 54.5279 11.5591 54.0196 9.60886C53.7084 8.43147 61.4677 0.00305176 62.6348 0.00305176C63.6047 0.00305176 69.0922 6.12338 70.975 8.62857C71.3484 9.12649 71.5818 9.47919 71.6078 9.61405V9.61923Z" fill="url(#paint72_linear_7399_1792)"/>
<path opacity="0.6" d="M71.6078 9.61923C71.7738 10.4491 63.8018 17.3526 62.6348 17.1452C61.4677 16.9481 54.5279 11.5591 54.0196 9.60886C53.7084 8.43147 61.4677 0.00305176 62.6348 0.00305176C62.6348 0.00305176 60.9802 15.169 62.4947 16.1597C64.4605 17.4408 70.8765 9.98749 70.9698 8.63376C71.3433 9.13168 71.5767 9.47919 71.6026 9.61405L71.6078 9.61923Z" fill="url(#paint73_linear_7399_1792)" style="mix-blend-mode:multiply"/>
<g opacity="0.6" style="mix-blend-mode:soft-light">
<path d="M63.6876 0.656589C61.5818 0.620282 62.3287 10.9885 63.0445 13.836C63.7654 16.6836 70.2125 9.80078 70.4044 8.94497C70.5964 8.08916 63.6876 0.656589 63.6876 0.656589Z" fill="#CEE2DB"/>
</g>
<g opacity="0.6" style="mix-blend-mode:soft-light">
<path d="M62.8111 0.355713C62.8111 0.355713 61.4366 12.8402 62.531 14.3132C63.6202 15.7862 67.6088 12.8402 68.7032 9.37542C69.7976 5.91069 62.8163 0.355713 62.8163 0.355713H62.8111Z" fill="#CEE2DB"/>
</g>
<path opacity="0.8" d="M54.0197 9.60876C54.0197 9.60876 48.0964 12.7467 47.194 13.8359C46.2915 14.9252 60.612 17.3681 62.6348 17.1451C64.6628 16.922 67.4792 13.8878 67.4792 13.8878C67.4792 13.8878 64.139 16.5434 62.5259 16.6368C60.9128 16.7353 54.0145 9.60876 54.0145 9.60876H54.0197Z" fill="url(#paint74_linear_7399_1792)" style="mix-blend-mode:multiply"/>
<path d="M62.3079 5.99888C64.1284 1.49681 68.2519 5.35054 68.2519 5.35054C68.2519 5.35054 63.034 -0.147384 62.6347 0.003031C62.2353 0.153446 62.3079 5.99888 62.3079 5.99888Z" fill="url(#paint75_linear_7399_1792)" style="mix-blend-mode:screen"/>
<path d="M64.3621 3.48853C61.1982 3.48853 64.4295 9.60886 64.4295 9.60886C64.4295 9.60886 67.0799 3.48853 64.3621 3.48853Z" fill="url(#paint76_linear_7399_1792)" style="mix-blend-mode:screen"/>
<defs>
<linearGradient id="paint0_linear_7399_1792" x1="93.1898" y1="64.754" x2="108.309" y2="16.8702" gradientUnits="userSpaceOnUse">
<stop offset="0.22" stop-color="#9A90BA"/>
<stop offset="0.39" stop-color="#9F98BD"/>
<stop offset="0.66" stop-color="#AEB1C5"/>
<stop offset="0.99" stop-color="#C7D8D3"/>
<stop offset="1" stop-color="#C8D9D4"/>
</linearGradient>
<linearGradient id="paint1_linear_7399_1792" x1="98.3261" y1="50.3366" x2="106.048" y2="25.8187" gradientUnits="userSpaceOnUse">
<stop stop-color="#DAEAE2"/>
<stop offset="0.12" stop-color="#CDD8DA"/>
<stop offset="0.4" stop-color="#B1B1C8"/>
<stop offset="0.63" stop-color="#A098BD"/>
<stop offset="0.78" stop-color="#9A90BA"/>
</linearGradient>
<linearGradient id="paint2_linear_7399_1792" x1="99.6059" y1="48.3174" x2="106.338" y2="27" gradientUnits="userSpaceOnUse">
<stop stop-color="#315CFF"/>
<stop offset="1" stop-color="#6579FF"/>
</linearGradient>
<linearGradient id="paint3_linear_7399_1792" x1="103.906" y1="47.8765" x2="103.906" y2="24.8163" gradientUnits="userSpaceOnUse">
<stop stop-color="#7F4AB1"/>
<stop offset="0.99" stop-color="#CCC5FF"/>
</linearGradient>
<linearGradient id="paint4_linear_7399_1792" x1="124.383" y1="30.8485" x2="124.383" y2="30.0342" gradientUnits="userSpaceOnUse">
<stop stop-color="#7F4AB1"/>
<stop offset="0.99" stop-color="#CCC5FF"/>
</linearGradient>
<linearGradient id="paint5_linear_7399_1792" x1="107.666" y1="30.3402" x2="107.666" y2="27.6742" gradientUnits="userSpaceOnUse">
<stop stop-color="#CCC5FF"/>
<stop offset="1" stop-color="#7F4AB1"/>
</linearGradient>
<linearGradient id="paint6_linear_7399_1792" x1="107.702" y1="40.7759" x2="107.702" y2="33.4211" gradientUnits="userSpaceOnUse">
<stop stop-color="#7F4AB1"/>
<stop offset="0.99" stop-color="#CCC5FF"/>
</linearGradient>
<linearGradient id="paint7_linear_7399_1792" x1="103.024" y1="40.9366" x2="111.649" y2="40.9366" gradientUnits="userSpaceOnUse">
<stop/>
<stop offset="0.99" stop-color="white"/>
</linearGradient>
<linearGradient id="paint8_linear_7399_1792" x1="115.015" y1="28.6337" x2="115.015" y2="19.3754" gradientUnits="userSpaceOnUse">
<stop/>
<stop offset="0.99" stop-color="white"/>
</linearGradient>
<linearGradient id="paint9_linear_7399_1792" x1="107.184" y1="47.8193" x2="107.184" y2="41.8754" gradientUnits="userSpaceOnUse">
<stop stop-color="#7F4AB1"/>
<stop offset="0.99" stop-color="#CCC5FF"/>
</linearGradient>
<linearGradient id="paint10_linear_7399_1792" x1="56.0425" y1="99.7385" x2="69.0093" y2="77.28" gradientUnits="userSpaceOnUse">
<stop stop-color="#315CFF"/>
<stop offset="1" stop-color="#6579FF"/>
</linearGradient>
<linearGradient id="paint11_linear_7399_1792" x1="62.5051" y1="100.542" x2="62.5051" y2="82.2593" gradientUnits="userSpaceOnUse">
<stop stop-color="#ABA6FF"/>
<stop offset="1" stop-color="#7F4AB1"/>
</linearGradient>
<linearGradient id="paint12_linear_7399_1792" x1="63.3246" y1="99.7178" x2="63.3246" y2="94.2354" gradientUnits="userSpaceOnUse">
<stop/>
<stop offset="0.99" stop-color="#757CFF"/>
</linearGradient>
<linearGradient id="paint13_linear_7399_1792" x1="62.8837" y1="94.4169" x2="62.8837" y2="85.4335" gradientUnits="userSpaceOnUse">
<stop stop-color="#CCC5FF"/>
<stop offset="1" stop-color="#7F4AB1"/>
</linearGradient>
<linearGradient id="paint14_linear_7399_1792" x1="97.9355" y1="87.1347" x2="109.792" y2="49.588" gradientUnits="userSpaceOnUse">
<stop offset="0.22" stop-color="#9A90BA"/>
<stop offset="0.39" stop-color="#9F98BD"/>
<stop offset="0.66" stop-color="#AEB1C5"/>
<stop offset="0.99" stop-color="#C7D8D3"/>
<stop offset="1" stop-color="#C8D9D4"/>
</linearGradient>
<linearGradient id="paint15_linear_7399_1792" x1="96.3635" y1="75.171" x2="104.074" y2="55.4311" gradientUnits="userSpaceOnUse">
<stop stop-color="#DAEAE2"/>
<stop offset="0.12" stop-color="#CDD8DA"/>
<stop offset="0.4" stop-color="#B1B1C8"/>
<stop offset="0.63" stop-color="#A098BD"/>
<stop offset="0.78" stop-color="#9A90BA"/>
</linearGradient>
<linearGradient id="paint16_linear_7399_1792" x1="96.439" y1="73.5645" x2="103.267" y2="56.074" gradientUnits="userSpaceOnUse">
<stop stop-color="#315CFF"/>
<stop offset="1" stop-color="#6579FF"/>
</linearGradient>
<linearGradient id="paint17_linear_7399_1792" x1="106.96" y1="71.9065" x2="106.96" y2="50.5891" gradientUnits="userSpaceOnUse">
<stop stop-color="#7F4AB1"/>
<stop offset="0.99" stop-color="#CCC5FF"/>
</linearGradient>
<linearGradient id="paint18_linear_7399_1792" x1="111.924" y1="57.0777" x2="111.924" y2="49.8163" gradientUnits="userSpaceOnUse">
<stop/>
<stop offset="0.99" stop-color="white"/>
</linearGradient>
<linearGradient id="paint19_linear_7399_1792" x1="105.83" y1="57.9957" x2="105.83" y2="56.1129" gradientUnits="userSpaceOnUse">
<stop stop-color="#C2AEFF"/>
<stop offset="1" stop-color="#7F4AB1"/>
</linearGradient>
<linearGradient id="paint20_linear_7399_1792" x1="99.6368" y1="66.279" x2="106.39" y2="66.279" gradientUnits="userSpaceOnUse">
<stop/>
<stop offset="0.99" stop-color="white"/>
</linearGradient>
<linearGradient id="paint21_linear_7399_1792" x1="101.592" y1="71.9065" x2="101.592" y2="66.5175" gradientUnits="userSpaceOnUse">
<stop stop-color="#7F4AB1"/>
<stop offset="0.99" stop-color="#CCC5FF"/>
</linearGradient>
<linearGradient id="paint22_linear_7399_1792" x1="32.2719" y1="64.754" x2="17.1474" y2="16.8702" gradientUnits="userSpaceOnUse">
<stop offset="0.22" stop-color="#9A90BA"/>
<stop offset="0.39" stop-color="#9F98BD"/>
<stop offset="0.66" stop-color="#AEB1C5"/>
<stop offset="0.99" stop-color="#C7D8D3"/>
<stop offset="1" stop-color="#C8D9D4"/>
</linearGradient>
<linearGradient id="paint23_linear_7399_1792" x1="28.6233" y1="50.3381" x2="20.8328" y2="25.8653" gradientUnits="userSpaceOnUse">
<stop stop-color="#DAEAE2"/>
<stop offset="0.12" stop-color="#CDD8DA"/>
<stop offset="0.4" stop-color="#B1B1C8"/>
<stop offset="0.63" stop-color="#A098BD"/>
<stop offset="0.78" stop-color="#9A90BA"/>
</linearGradient>
<linearGradient id="paint24_linear_7399_1792" x1="25.8559" y1="48.3174" x2="19.1236" y2="27" gradientUnits="userSpaceOnUse">
<stop stop-color="#315CFF"/>
<stop offset="1" stop-color="#6579FF"/>
</linearGradient>
<linearGradient id="paint25_linear_7399_1792" x1="21.5508" y1="47.8765" x2="21.5508" y2="24.8163" gradientUnits="userSpaceOnUse">
<stop stop-color="#7F4AB1"/>
<stop offset="0.99" stop-color="#CCC5FF"/>
</linearGradient>
<linearGradient id="paint26_linear_7399_1792" x1="1.0789" y1="30.8485" x2="1.0789" y2="30.0342" gradientUnits="userSpaceOnUse">
<stop stop-color="#7F4AB1"/>
<stop offset="0.99" stop-color="#CCC5FF"/>
</linearGradient>
<linearGradient id="paint27_linear_7399_1792" x1="17.7957" y1="30.3402" x2="17.7957" y2="0.0030089" gradientUnits="userSpaceOnUse">
<stop stop-color="#CCC5FF"/>
<stop offset="1" stop-color="#7F4AB1"/>
</linearGradient>
<linearGradient id="paint28_linear_7399_1792" x1="16.9968" y1="40.7759" x2="16.9968" y2="33.4211" gradientUnits="userSpaceOnUse">
<stop stop-color="#7F4AB1"/>
<stop offset="0.99" stop-color="#CCC5FF"/>
</linearGradient>
<linearGradient id="paint29_linear_7399_1792" x1="22.4326" y1="0.00303345" x2="13.8123" y2="0.00303345" gradientUnits="userSpaceOnUse">
<stop/>
<stop offset="0.99" stop-color="white"/>
</linearGradient>
<linearGradient id="paint30_linear_7399_1792" x1="10.441" y1="28.6337" x2="10.441" y2="19.3754" gradientUnits="userSpaceOnUse">
<stop/>
<stop offset="0.99" stop-color="white"/>
</linearGradient>
<linearGradient id="paint31_linear_7399_1792" x1="18.278" y1="47.8193" x2="18.278" y2="41.8754" gradientUnits="userSpaceOnUse">
<stop stop-color="#7F4AB1"/>
<stop offset="0.99" stop-color="#CCC5FF"/>
</linearGradient>
<linearGradient id="paint32_linear_7399_1792" x1="27.5261" y1="87.1347" x2="15.6641" y2="49.588" gradientUnits="userSpaceOnUse">
<stop offset="0.22" stop-color="#9A90BA"/>
<stop offset="0.39" stop-color="#9F98BD"/>
<stop offset="0.66" stop-color="#AEB1C5"/>
<stop offset="0.99" stop-color="#C7D8D3"/>
<stop offset="1" stop-color="#C8D9D4"/>
</linearGradient>
<linearGradient id="paint33_linear_7399_1792" x1="30.0002" y1="75.1039" x2="22.2401" y2="55.4046" gradientUnits="userSpaceOnUse">
<stop stop-color="#DAEAE2"/>
<stop offset="0.12" stop-color="#CDD8DA"/>
<stop offset="0.4" stop-color="#B1B1C8"/>
<stop offset="0.63" stop-color="#A098BD"/>
<stop offset="0.78" stop-color="#9A90BA"/>
</linearGradient>
<linearGradient id="paint34_linear_7399_1792" x1="29.9248" y1="73.5026" x2="23.0524" y2="56.0428" gradientUnits="userSpaceOnUse">
<stop stop-color="#315CFF"/>
<stop offset="1" stop-color="#6579FF"/>
</linearGradient>
<linearGradient id="paint35_linear_7399_1792" x1="18.4961" y1="71.9065" x2="18.4961" y2="50.5891" gradientUnits="userSpaceOnUse">
<stop stop-color="#7F4AB1"/>
<stop offset="0.99" stop-color="#CCC5FF"/>
</linearGradient>
<linearGradient id="paint36_linear_7399_1792" x1="13.5375" y1="57.0777" x2="13.5375" y2="49.8163" gradientUnits="userSpaceOnUse">
<stop/>
<stop offset="0.99" stop-color="white"/>
</linearGradient>
<linearGradient id="paint37_linear_7399_1792" x1="19.6319" y1="57.9957" x2="19.6319" y2="56.1129" gradientUnits="userSpaceOnUse">
<stop stop-color="#C2AEFF"/>
<stop offset="1" stop-color="#7F4AB1"/>
</linearGradient>
<linearGradient id="paint38_linear_7399_1792" x1="25.8195" y1="66.279" x2="19.0716" y2="66.279" gradientUnits="userSpaceOnUse">
<stop/>
<stop offset="0.99" stop-color="white"/>
</linearGradient>
<linearGradient id="paint39_linear_7399_1792" x1="23.8694" y1="71.9065" x2="23.8694" y2="66.5175" gradientUnits="userSpaceOnUse">
<stop stop-color="#7F4AB1"/>
<stop offset="0.99" stop-color="#CCC5FF"/>
</linearGradient>
<linearGradient id="paint40_linear_7399_1792" x1="55.6951" y1="93.9449" x2="69.4088" y2="70.1846" gradientUnits="userSpaceOnUse">
<stop offset="0.22" stop-color="#9A90BA"/>
<stop offset="0.39" stop-color="#9F98BD"/>
<stop offset="0.66" stop-color="#AEB1C5"/>
<stop offset="0.99" stop-color="#C7D8D3"/>
<stop offset="1" stop-color="#C8D9D4"/>
</linearGradient>
<linearGradient id="paint41_linear_7399_1792" x1="62.4275" y1="93.9761" x2="62.4275" y2="75.6981" gradientUnits="userSpaceOnUse">
<stop stop-color="#ABA6FF"/>
<stop offset="1" stop-color="#7F4AB1"/>
</linearGradient>
<linearGradient id="paint42_linear_7399_1792" x1="62.5209" y1="85.0134" x2="62.5209" y2="76.6213" gradientUnits="userSpaceOnUse">
<stop stop-color="#CCC5FF"/>
<stop offset="1" stop-color="#7F4AB1"/>
</linearGradient>
<linearGradient id="paint43_linear_7399_1792" x1="63.3301" y1="92.4823" x2="63.3301" y2="85.2728" gradientUnits="userSpaceOnUse">
<stop/>
<stop offset="0.99" stop-color="white"/>
</linearGradient>
<linearGradient id="paint44_linear_7399_1792" x1="43.1898" y1="77.9698" x2="75.7987" y2="21.4864" gradientUnits="userSpaceOnUse">
<stop offset="0.22" stop-color="#9A90BA"/>
<stop offset="0.39" stop-color="#9F98BD"/>
<stop offset="0.66" stop-color="#AEB1C5"/>
<stop offset="0.99" stop-color="#C7D8D3"/>
<stop offset="1" stop-color="#C8D9D4"/>
</linearGradient>
<linearGradient id="paint45_linear_7399_1792" x1="49.1442" y1="68.6078" x2="71.8465" y2="29.2872" gradientUnits="userSpaceOnUse">
<stop stop-color="#DAEAE2"/>
<stop offset="0.12" stop-color="#CDD8DA"/>
<stop offset="0.4" stop-color="#B1B1C8"/>
<stop offset="0.63" stop-color="#A098BD"/>
<stop offset="0.78" stop-color="#9A90BA"/>
</linearGradient>
<linearGradient id="paint46_linear_7399_1792" x1="50.223" y1="66.8131" x2="71.1307" y2="30.6098" gradientUnits="userSpaceOnUse">
<stop stop-color="#315CFF"/>
<stop offset="1" stop-color="#6579FF"/>
</linearGradient>
<linearGradient id="paint47_linear_7399_1792" x1="84.082" y1="29.9355" x2="102.863" y2="29.9355" gradientUnits="userSpaceOnUse">
<stop/>
<stop offset="0.99" stop-color="white"/>
</linearGradient>
<linearGradient id="paint48_linear_7399_1792" x1="62.6141" y1="20.5113" x2="62.6141" y2="6.36194" gradientUnits="userSpaceOnUse">
<stop/>
<stop offset="0.99" stop-color="white"/>
</linearGradient>
<linearGradient id="paint49_linear_7399_1792" x1="32.1836" y1="39.8837" x2="32.1836" y2="24.4999" gradientUnits="userSpaceOnUse">
<stop/>
<stop offset="0.99" stop-color="white"/>
</linearGradient>
<linearGradient id="paint50_linear_7399_1792" x1="62.4947" y1="39.1109" x2="62.4947" y2="21.0559" gradientUnits="userSpaceOnUse">
<stop stop-color="#C2AEFF"/>
<stop offset="1" stop-color="#7F4AB1"/>
</linearGradient>
<linearGradient id="paint51_linear_7399_1792" x1="62.9148" y1="71.0508" x2="62.9148" y2="46.4553" gradientUnits="userSpaceOnUse">
<stop stop-color="#7F4AB1"/>
<stop offset="1" stop-color="#C2AEFF"/>
</linearGradient>
<linearGradient id="paint52_linear_7399_1792" x1="62.9719" y1="84.5724" x2="62.9719" y2="62.0258" gradientUnits="userSpaceOnUse">
<stop stop-color="#7F4AB1"/>
<stop offset="0.99" stop-color="#CCC5FF"/>
</linearGradient>
<linearGradient id="paint53_linear_7399_1792" x1="47.7748" y1="84.1264" x2="47.7748" y2="66.1285" gradientUnits="userSpaceOnUse">
<stop stop-color="#7F4AB1"/>
<stop offset="0.99" stop-color="#CCC5FF"/>
</linearGradient>
<linearGradient id="paint54_linear_7399_1792" x1="61.6493" y1="26.4501" x2="61.6493" y2="20.8744" gradientUnits="userSpaceOnUse">
<stop stop-color="#C2AEFF"/>
<stop offset="1" stop-color="#7F4AB1"/>
</linearGradient>
<linearGradient id="paint55_linear_7399_1792" x1="61.9555" y1="71.7924" x2="61.9555" y2="63.4469" gradientUnits="userSpaceOnUse">
<stop stop-color="#7F4AB1"/>
<stop offset="1" stop-color="#C2AEFF"/>
</linearGradient>
<linearGradient id="paint56_linear_7399_1792" x1="70.6587" y1="72.8142" x2="70.6587" y2="68.1668" gradientUnits="userSpaceOnUse">
<stop/>
<stop offset="0.99" stop-color="#FFFFC7"/>
</linearGradient>
<linearGradient id="paint57_linear_7399_1792" x1="62.5105" y1="63.1357" x2="62.5105" y2="26.3515" gradientUnits="userSpaceOnUse">
<stop stop-color="#7F4AB1"/>
<stop offset="1" stop-color="#C2AEFF"/>
</linearGradient>
<linearGradient id="paint58_linear_7399_1792" x1="51.027" y1="68.67" x2="66.499" y2="34.308" gradientUnits="userSpaceOnUse">
<stop offset="0.22" stop-color="#FF8B00"/>
<stop offset="0.39" stop-color="#FF9302"/>
<stop offset="0.67" stop-color="#FFAC07"/>
<stop offset="1" stop-color="#FFD110"/>
</linearGradient>
<linearGradient id="paint59_linear_7399_1792" x1="62.5" y1="62.2282" x2="62.5" y2="40.0134" gradientUnits="userSpaceOnUse">
<stop stop-color="#AE1DB1"/>
<stop offset="0.99" stop-color="#FF89FF"/>
</linearGradient>
<linearGradient id="paint60_linear_7399_1792" x1="68.3039" y1="62.1192" x2="68.3039" y2="44.2924" gradientUnits="userSpaceOnUse">
<stop stop-color="#FF10FF"/>
<stop offset="1" stop-color="#B10072"/>
</linearGradient>
<linearGradient id="paint61_linear_7399_1792" x1="59.5643" y1="44.2924" x2="59.5643" y2="26.3516" gradientUnits="userSpaceOnUse">
<stop stop-color="#FF10FF"/>
<stop offset="1" stop-color="#B10072"/>
</linearGradient>
<linearGradient id="paint62_linear_7399_1792" x1="56.7065" y1="0.00299172" x2="56.7065" y2="0.00299172" gradientUnits="userSpaceOnUse">
<stop stop-color="#FF10FF"/>
<stop offset="1" stop-color="#B10072"/>
</linearGradient>
<linearGradient id="paint63_linear_7399_1792" x1="72.054" y1="49.3755" x2="72.054" y2="40.0134" gradientUnits="userSpaceOnUse">
<stop stop-color="#FF10FF"/>
<stop offset="1" stop-color="#B10072"/>
</linearGradient>
<linearGradient id="paint64_linear_7399_1792" x1="65.7053" y1="44.2924" x2="65.7053" y2="36.087" gradientUnits="userSpaceOnUse">
<stop/>
<stop offset="0.99" stop-color="white"/>
</linearGradient>
<linearGradient id="paint65_linear_7399_1792" x1="49.777" y1="42.7779" x2="49.777" y2="38.3951" gradientUnits="userSpaceOnUse">
<stop/>
<stop offset="0.99" stop-color="white"/>
</linearGradient>
<linearGradient id="paint66_linear_7399_1792" x1="58.4803" y1="44.2924" x2="58.4803" y2="37.6171" gradientUnits="userSpaceOnUse">
<stop/>
<stop offset="0.99" stop-color="white"/>
</linearGradient>
<linearGradient id="paint67_linear_7399_1792" x1="64.4659" y1="40.8329" x2="81.3227" y2="40.8329" gradientUnits="userSpaceOnUse">
<stop/>
<stop offset="0.99" stop-color="white"/>
</linearGradient>
<linearGradient id="paint68_linear_7399_1792" x1="64.7097" y1="43.6389" x2="64.7097" y2="26.3516" gradientUnits="userSpaceOnUse">
<stop/>
<stop offset="0.99" stop-color="white"/>
</linearGradient>
<linearGradient id="paint69_linear_7399_1792" x1="53.4389" y1="49.2353" x2="53.4389" y2="40.3712" gradientUnits="userSpaceOnUse">
<stop stop-color="#FF51FF"/>
<stop offset="1" stop-color="#9A25C7"/>
</linearGradient>
<linearGradient id="paint70_linear_7399_1792" x1="61.6182" y1="59.2716" x2="61.6182" y2="56.5538" gradientUnits="userSpaceOnUse">
<stop stop-color="#C2AEFF"/>
<stop offset="1" stop-color="#7F4AB1"/>
</linearGradient>
<linearGradient id="paint71_linear_7399_1792" x1="71.7739" y1="44.2924" x2="71.7739" y2="37.6171" gradientUnits="userSpaceOnUse">
<stop/>
<stop offset="0.99" stop-color="#FFE884"/>
</linearGradient>
<linearGradient id="paint72_linear_7399_1792" x1="59.5227" y1="15.195" x2="66.0632" y2="3.86716" gradientUnits="userSpaceOnUse">
<stop stop-color="#B3ACCB"/>
<stop offset="0.27" stop-color="#B6B4CC"/>
<stop offset="0.71" stop-color="#C0CCD0"/>
<stop offset="1" stop-color="#C8E0D4"/>
</linearGradient>
<linearGradient id="paint73_linear_7399_1792" x1="59.5227" y1="15.2001" x2="66.0372" y2="3.91384" gradientUnits="userSpaceOnUse">
<stop stop-color="#B8A9FF"/>
<stop offset="1" stop-color="#7F4AB1"/>
</linearGradient>
<linearGradient id="paint74_linear_7399_1792" x1="47.1525" y1="13.3847" x2="67.4792" y2="13.3847" gradientUnits="userSpaceOnUse">
<stop stop-color="#C2AEFF"/>
<stop offset="1" stop-color="#7F4AB1"/>
</linearGradient>
<linearGradient id="paint75_linear_7399_1792" x1="65.2799" y1="5.99888" x2="65.2799" y2="0.0030313" gradientUnits="userSpaceOnUse">
<stop/>
<stop offset="0.99" stop-color="white"/>
</linearGradient>
<linearGradient id="paint76_linear_7399_1792" x1="64.2843" y1="9.60886" x2="64.2843" y2="3.48853" gradientUnits="userSpaceOnUse">
<stop/>
<stop offset="0.99" stop-color="white"/>
</linearGradient>
</defs>
</svg>
