<svg width="125" height="101" viewBox="0 0 125 101" fill="none" xmlns="http://www.w3.org/2000/svg">
<path d="M99.0508 40.6305C99.0508 40.6305 114.621 41.8442 118.74 39.0589C122.853 36.2736 127.241 20.6616 124.383 13.1201L99.056 40.6305H99.0508Z" fill="#A977FF"/>
<path d="M124.445 22.783C124.403 23.0527 124.362 23.3224 124.315 23.6025V23.6129C124.17 24.5154 123.999 25.4282 123.807 26.3359C123.807 26.3463 123.807 26.3566 123.807 26.367C122.557 32.2436 120.353 37.9749 117.697 39.199C114.73 40.5579 99.0508 40.6253 99.0508 40.6253L84.0093 19.9562C84.0093 19.9562 88.3713 18.9033 94.2064 17.5652C105.581 14.9666 122.578 11.2996 123.843 12.311C125.083 13.3017 125.166 17.7519 124.445 22.7778V22.783Z" fill="url(#paint0_linear_7399_2074)"/>
<path d="M92.9565 24.3702C92.9565 24.3702 114.139 19.4843 115.218 20.3401C116.867 21.6523 114.85 32.171 111.748 33.5922C110.083 34.3546 102.204 34.3754 102.204 34.3754L92.9565 24.3702Z" fill="url(#paint1_linear_7399_2074)"/>
<path d="M114.383 26.0921C114.383 26.0921 114.383 26.118 114.367 26.1699C113.983 29.007 112.925 32.088 111.38 32.7985C110.088 33.395 104.175 33.5039 102.557 33.5247C102.298 33.5299 102.147 33.5299 102.147 33.5299L94.5281 24.3649C94.5281 24.3649 112.92 20.3763 113.895 21.1543C114.559 21.6834 114.694 23.7996 114.388 26.0921H114.383Z" fill="url(#paint2_linear_7399_2074)"/>
<path opacity="0.6" d="M123.807 26.3671C122.557 32.2436 120.353 37.9749 117.697 39.199C114.73 40.5579 99.0508 40.6253 99.0508 40.6253L84.0093 19.9563C84.0093 19.9563 88.3713 18.9034 94.2064 17.5652L94.3205 17.6274C90.8972 21.7146 97.8008 22.7778 101.105 22.3318C104.403 21.8805 114.082 19.6658 115.218 20.3349C116.343 21.004 115.653 24.7695 115.653 24.7695C115.653 24.7695 115.363 22.0361 113.657 21.7197C111.95 21.3982 101.758 22.6689 100.487 24.059C99.2271 25.4542 102.749 29.9303 102.749 29.9303L103.221 33.5144L103.148 34.6243C103.148 34.6243 109.409 34.4428 111.753 33.587C111.753 33.587 112.386 38.6492 115.871 38.8515C118.693 39.0175 122.458 31.1751 123.812 26.3671H123.807Z" fill="url(#paint3_linear_7399_2074)" style="mix-blend-mode:multiply"/>
<path opacity="0.6" d="M124.445 22.7831C124.404 23.0528 124.362 23.3225 124.315 23.6026C124.321 23.1773 124.367 22.9179 124.445 22.7831Z" fill="url(#paint4_linear_7399_2074)" style="mix-blend-mode:multiply"/>
<path opacity="0.6" d="M100.581 23.0942C100.581 23.0942 110.835 21.0558 112.495 21.3359C114.154 21.6212 114.611 22.2487 114.611 22.2487C114.611 22.2487 115.078 20.6097 114.274 20.4334C113.47 20.257 101.099 22.9334 100.581 23.089V23.0942Z" fill="url(#paint5_linear_7399_2074)" style="mix-blend-mode:multiply"/>
<path opacity="0.6" d="M114.367 26.1751C113.983 29.0122 112.925 32.0932 111.38 32.8037C110.088 33.4002 104.175 33.5091 102.557 33.5299L101.027 32.1917C102.095 32.6015 110.42 32.6689 112.256 30.2259C113.859 28.0942 114.284 26.5278 114.367 26.1699V26.1751Z" fill="url(#paint6_linear_7399_2074)" style="mix-blend-mode:multiply"/>
<path d="M111.214 33.0165C110.975 33.2758 111.644 33.6233 111.644 33.6233C111.644 33.6233 106.727 34.5103 103.024 34.3443V33.6908C103.024 33.6908 109.507 33.4522 111.214 33.0165Z" fill="url(#paint7_linear_7399_2074)" style="mix-blend-mode:screen"/>
<g opacity="0.3" style="mix-blend-mode:soft-light">
<path d="M103.978 22.783C98.0186 25.6046 103.646 31.3048 108.465 30.8276C113.283 30.3504 115.296 25.1533 113.688 22.783C112.08 20.4178 103.978 22.783 103.978 22.783Z" fill="#6DE2DB"/>
</g>
<g opacity="0.3" style="mix-blend-mode:soft-light">
<path d="M106.131 22.6067C100.472 24.4065 105.84 28.3691 108.667 28.587C111.488 28.8048 114.492 25.8587 112.707 23.4417C110.923 21.0195 106.136 22.6067 106.136 22.6067H106.131Z" fill="#6DE2DB"/>
</g>
<g opacity="0.6" style="mix-blend-mode:soft-light">
<path d="M93.6099 18.727C91.4367 23.4262 113.968 19.5725 115.425 20.0756C116.883 20.5787 115.866 29.4376 113.242 32.477C113.242 32.477 113.148 36.9739 115.996 37.5393C118.843 38.1098 123.345 28.1617 123.807 20.5113C124.263 12.8608 122.707 12.3629 122.707 12.3629C122.707 12.3629 94.7147 16.4915 93.6151 18.7218L93.6099 18.727Z" fill="#CEE2DB"/>
</g>
<g opacity="0.6" style="mix-blend-mode:soft-light">
<path d="M98.0447 16.9375C93.6879 18.2135 97.386 21.8442 98.3974 22.0983C99.4088 22.3525 112.64 19.6295 114.917 20.0703C117.194 20.5112 115.804 26.8442 115.804 26.8442C115.804 26.8442 121.468 27.1295 123.273 22.0983C125.078 17.0672 124.315 14.1263 123.273 13.1461C122.23 12.1606 100.41 16.2425 98.0447 16.9375Z" fill="#CEE2DB"/>
</g>
<path d="M106.618 14.837C106.618 14.837 110.073 14.0849 111.12 14.837C112.163 15.5891 111.079 19.7488 109.844 20.4231C108.605 21.0974 106.992 21.3826 106.992 21.3826C106.992 21.3826 114.04 19.7177 115.218 20.3349C115.218 20.3349 114.186 16.5953 117.012 14.4999C119.839 12.4044 123.423 12.1451 123.423 12.1451C123.423 12.1451 120.695 11.725 106.629 14.837H106.618Z" fill="url(#paint8_linear_7399_2074)" style="mix-blend-mode:screen"/>
<path opacity="0.6" d="M103.138 34.6243C103.138 34.6243 103.325 37.8608 104.186 39.1834C105.047 40.506 111.644 40.1896 111.644 40.1896C111.644 40.1896 106.385 40.5164 102.718 40.5734L103.138 34.6295V34.6243Z" fill="url(#paint9_linear_7399_2074)" style="mix-blend-mode:multiply"/>
<path d="M102.147 33.7893H102.028L94.0613 24.2094L94.471 24.1212C98.8123 23.1772 113.055 20.1689 114.051 20.9573C114.902 21.6368 114.912 24.0745 114.637 26.1285L114.621 26.2218C114.264 28.8619 113.226 32.2384 111.489 33.0372C110.202 33.6285 104.819 33.7581 102.562 33.7893C102.303 33.7893 102.153 33.7893 102.147 33.7893ZM94.9949 24.531L102.272 33.2758C102.339 33.2758 102.438 33.2758 102.557 33.2758C106.131 33.2291 110.301 33.0216 111.281 32.5756C112.728 31.9065 113.75 28.8619 114.124 26.144L114.139 26.061C114.445 23.7685 114.279 21.7924 113.74 21.3671C112.905 20.9106 101.976 23.0372 95.0001 24.5413L94.9949 24.531Z" fill="#2C2797"/>
<path d="M101.904 22.0984C101.904 22.0984 113.709 19.6711 115.213 20.3401C116.722 21.0092 115.213 27.1192 115.213 27.1192C115.213 27.1192 116.961 21.6783 115.799 20.0808C115.016 19.002 101.898 22.1036 101.898 22.1036L101.904 22.0984Z" fill="#F5F9F8"/>
<path d="M86.4626 90.1638C86.3744 90.6721 82.4325 92.7883 77.7437 94.9771C77.7437 94.9771 77.7333 94.9771 77.7282 94.9771C71.8983 97.7053 64.9273 100.537 62.78 100.537C58.9107 100.537 39.2894 91.3049 39.0974 90.1586C38.9055 89.0123 41.2292 82.254 41.2292 82.254L62.78 89.0331L84.336 82.254C84.336 82.254 85.2541 84.9407 85.8869 87.2125L85.9128 87.3111C86.2707 88.6026 86.53 89.7437 86.4574 90.1586L86.4626 90.1638Z" fill="url(#paint10_linear_7399_2074)"/>
<path opacity="0.6" d="M85.918 87.3163C84.8703 85.7084 63.0601 94.002 62.5207 94.697C61.9813 95.3921 62.7956 98.9761 63.2883 99.697C63.7655 100.382 76.6026 95.4232 77.7282 94.9823C71.8983 97.7105 64.9273 100.542 62.78 100.542C58.9107 100.542 39.2894 91.3101 39.0974 90.1638C38.9055 89.0176 41.2292 82.2593 41.2292 82.2593L62.78 89.0383L84.336 82.2593C84.336 82.2593 85.2541 84.946 85.8869 87.2178L85.9128 87.3163H85.918Z" fill="url(#paint11_linear_7399_2074)" style="mix-blend-mode:multiply"/>
<path d="M39.6006 90.6565C39.6006 90.6565 59.0145 99.8992 63.5684 99.6658C68.1276 99.4272 84.2271 91.7198 84.2271 91.7198C84.2271 91.7198 67.3132 100.574 63.0913 100.522C58.8693 100.47 40.9336 91.8546 39.6006 90.6565Z" fill="#A977FF"/>
<g opacity="0.3" style="mix-blend-mode:soft-light">
<path d="M63.947 93.976C62.2406 97.4823 65.1815 98.4314 65.1815 98.4314C65.1815 98.4314 75.3422 95.086 79.6161 93.0061C83.89 90.9262 82.8422 87.7935 82.8422 87.7935L63.947 93.9708V93.976Z" fill="#6DE2DB"/>
</g>
<g opacity="0.3" style="mix-blend-mode:soft-light">
<path d="M64.5592 99.5361C62.3341 97.1969 62.8943 95.0444 63.7034 94.422C64.5125 93.7944 78.0499 89.0227 79.0976 89.9303C80.1401 90.838 76.7221 95.2571 72.9254 96.8235C69.1287 98.3899 64.5644 99.5413 64.5644 99.5413L64.5592 99.5361Z" fill="#6DE2DB"/>
</g>
<path d="M62.7956 94.7852C62.5829 95.4543 62.8941 98.7531 63.5736 99.6659C64.0819 100.351 63.89 94.251 63.89 94.251C63.89 94.251 63.3661 94.1006 62.7956 94.78V94.7852Z" fill="url(#paint12_linear_7399_2074)" style="mix-blend-mode:screen"/>
<path opacity="0.8" d="M40.2021 85.4335C40.2021 85.4335 42.5154 93.115 62.059 94.4169C69.1492 93.0061 85.5652 86.3411 85.5652 86.3411L85.3681 85.4438C85.3681 85.4438 65.1866 93.9397 60.8816 93.6233C56.5766 93.3069 40.2021 85.4335 40.2021 85.4335Z" fill="url(#paint13_linear_7399_2074)" style="mix-blend-mode:multiply"/>
<path d="M96.2188 64.6607C96.2188 64.6607 105.705 65.335 109.445 63.9657C113.185 62.5964 116.618 51.0559 116.618 51.0559L96.2188 64.6607Z" fill="#A977FF"/>
<path d="M109.497 63.4573C106.986 64.4065 96.2239 64.6607 96.2239 64.6607L99.7249 43.727C99.7249 43.727 101.016 43.5559 102.904 43.3432C107.635 42.8142 116.089 42.0154 117.152 42.9905C117.474 43.2862 117.645 43.8567 117.692 44.6451C117.972 49.4428 113.511 61.9376 109.497 63.4677V63.4573Z" fill="url(#paint14_linear_7399_2074)"/>
<path d="M100.845 49.2976C100.845 49.2976 109.782 48.115 110.617 48.8775C111.898 50.0497 109.222 58.0165 106.597 59.0175C105.192 59.5518 99.1545 59.6918 99.1545 59.6918L100.845 49.2976Z" fill="url(#paint15_linear_7399_2074)"/>
<path d="M100.628 49.8629C100.628 49.8629 108.729 48.7892 109.486 49.4843C110.648 50.5424 108.283 57.4822 105.902 58.3899C104.627 58.8774 99.1545 59.0019 99.1545 59.0019L100.628 49.8629Z" fill="url(#paint16_linear_7399_2074)"/>
<path opacity="0.6" d="M109.497 63.4574C106.986 64.4065 96.2239 64.6607 96.2239 64.6607L99.7249 43.7271C99.7249 43.7271 101.016 43.5559 102.904 43.3433C100.192 45.7966 102.661 48.5144 104.471 48.6285C106.281 48.7375 109.668 48.3848 110.617 48.8827C111.566 49.3806 110.358 53.1825 110.358 53.1825C110.358 53.1825 110.441 52.0777 109.611 50.3713C108.781 48.67 103.345 49.8526 101.924 50.7136C100.503 51.5746 99.7197 58.9916 99.7197 58.9916L99.3463 59.697C99.3463 59.697 104.497 60.5684 107.111 59.0072C107.111 59.0072 107.521 62.6223 109.263 62.752C111.006 62.8765 114.092 57.1036 115.793 52.2074C117.495 47.3163 117.681 44.6399 117.681 44.6399C117.961 49.4377 113.501 61.9325 109.486 63.4626L109.497 63.4574Z" fill="url(#paint17_linear_7399_2074)" style="mix-blend-mode:multiply"/>
<g opacity="0.3" style="mix-blend-mode:soft-light">
<path d="M103.517 50.3661C100.114 51.0974 100.301 56.2634 104.18 56.8184C108.06 57.3733 109.554 52.0518 109.222 50.558C108.89 49.0642 105.109 50.0237 103.517 50.3661Z" fill="#6DE2DB"/>
</g>
<g opacity="0.3" style="mix-blend-mode:soft-light">
<path d="M102.629 50.5009C99.6731 52.809 103.039 55.3868 105.622 55.5995C108.205 55.8069 109.113 52.4822 109.222 50.558C109.336 48.6337 103.952 49.4739 102.629 50.5009Z" fill="#6DE2DB"/>
</g>
<g opacity="0.6" style="mix-blend-mode:soft-light">
<path d="M104.471 43.9086C102.095 44.308 102.23 47.5497 102.93 47.975C103.631 48.4055 109.512 48.2343 110.949 48.6181C112.381 49.002 111.053 54.2094 109.668 56.9221C108.283 59.6347 112.604 57.8661 114.434 54.5414C116.265 51.2167 118.081 45.2675 116.54 43.9034C115 42.5445 104.476 43.9034 104.476 43.9034L104.471 43.9086Z" fill="#CEE2DB"/>
</g>
<g opacity="0.6" style="mix-blend-mode:soft-light">
<path d="M103.46 43.447C101.022 44.7955 101.686 47.2333 102.464 48.0631C103.242 48.893 108.06 47.6845 110.109 48.6233C112.163 49.5621 115.98 48.2291 116.758 44.5206C117.536 40.8069 103.46 43.4521 103.46 43.4521V43.447Z" fill="#CEE2DB"/>
</g>
<path d="M108.008 42.7934C108.008 42.7934 109.554 42.6897 110.166 43.1617C110.773 43.6337 110.275 46.4293 109.554 47.4304C108.833 48.4262 107.225 48.6181 107.225 48.6181C107.225 48.6181 110.928 48.0009 110.975 49.8318C110.975 49.8318 110.98 47.42 112.848 45.0704C114.715 42.726 116.613 42.7416 116.613 42.7416C116.613 42.7416 113.74 42.3163 108.003 42.7934H108.008Z" fill="url(#paint18_linear_7399_2074)" style="mix-blend-mode:screen"/>
<path opacity="0.8" d="M101.566 49.7436C101.566 49.7436 107.458 49.142 108.682 49.4947C109.906 49.8474 109.782 50.7499 109.782 50.7499C109.782 50.7499 110.218 49.6295 110.041 49.0797C109.865 48.5299 104.906 49.1524 101.561 49.7436H101.566Z" fill="url(#paint19_linear_7399_2074)" style="mix-blend-mode:multiply"/>
<path d="M99.6368 59.6711L99.9117 58.9812C99.9117 58.9812 104.32 58.9657 105.897 58.3951C105.897 58.3951 106.063 58.9605 106.385 59.0902C106.385 59.0902 104.232 59.7281 99.6316 59.6763L99.6368 59.6711Z" fill="url(#paint20_linear_7399_2074)" style="mix-blend-mode:screen"/>
<path opacity="0.6" d="M98.5891 59.2716C98.5891 59.2716 97.8267 62.5392 98.1586 63.5247C98.4906 64.505 107.655 63.8774 107.655 63.8774C103.916 64.3702 99.9895 64.4998 95.5393 64.6606L98.5891 59.2768V59.2716Z" fill="url(#paint21_linear_7399_2074)" style="mix-blend-mode:multiply"/>
<path d="M98.8484 59.2664L100.399 49.6347L100.591 49.6087C102.521 49.3546 108.869 48.5766 109.658 49.2975C110.176 49.7695 110.078 50.9365 109.912 51.8339C109.466 54.1731 107.816 57.9386 105.996 58.6336C104.694 59.1316 99.3878 59.2561 99.1596 59.2612H98.8484V59.2664ZM100.85 50.0911L99.4552 58.7374C100.622 58.7011 104.761 58.5507 105.809 58.1513C107.277 57.5963 108.921 54.3027 109.403 51.7353C109.637 50.4957 109.507 49.8577 109.31 49.6762C108.895 49.3027 104.715 49.5932 100.845 50.0963L100.85 50.0911Z" fill="#2C2797"/>
<path d="M104.694 48.6234C104.694 48.6234 110.731 48.1047 111.286 48.8671C111.846 49.6296 110.072 54.002 110.072 54.002C110.072 54.002 111.416 50.2727 110.799 49.2509C110.181 48.2292 104.694 48.6234 104.694 48.6234Z" fill="#F5F9F8"/>
<path d="M88.2988 76.9688C88.2988 76.9688 92.2719 79.0434 96.8206 78.2862C101.618 77.4874 103.091 70.2312 103.091 70.2312L88.2988 76.9688Z" fill="#A977FF"/>
<path d="M97.6298 77.7001C93.5011 79.0746 87.3237 76.9066 87.0229 76.4657C86.7221 76.03 93.164 66.5694 93.164 66.5694C93.164 66.5694 95.358 66.2686 97.7231 66.0715C100.233 65.8537 102.941 65.7499 103.403 66.2271C103.548 66.3775 103.626 66.6472 103.646 67.0155C103.807 69.5466 101.193 76.5227 97.6246 77.7053L97.6298 77.7001Z" fill="url(#paint22_linear_7399_2074)"/>
<path opacity="0.6" d="M97.6298 77.7002C93.5011 79.0746 87.3237 76.9066 87.0229 76.4657C86.7221 76.03 93.164 66.5695 93.164 66.5695C93.164 66.5695 95.358 66.2686 97.7231 66.0715C96.0634 67.0881 93.0758 74.1576 93.7138 76.1442C94.3621 78.1722 97.8372 77.612 100.664 74.3444C103.019 71.6161 103.605 67.7935 103.652 67.0155C103.812 69.5466 101.198 76.5228 97.6298 77.7054V77.7002Z" fill="url(#paint23_linear_7399_2074)" style="mix-blend-mode:multiply"/>
<g opacity="0.6" style="mix-blend-mode:soft-light">
<path d="M98.4855 66.4501C96.2811 66.7043 93.2988 73.9605 95.2957 75.8692C97.2874 77.7779 102.951 72.197 103.231 69.0953C103.511 65.9937 98.4855 66.4449 98.4855 66.4449V66.4501Z" fill="#CEE2DB"/>
</g>
<g opacity="0.6" style="mix-blend-mode:soft-light">
<path d="M97.8164 66.2479C96.7376 66.8288 95.0727 69.0746 96.9866 70.9833C98.9005 72.8921 103.511 69.1576 103.532 67.2852C103.553 65.418 97.8216 66.2479 97.8216 66.2479H97.8164Z" fill="#CEE2DB"/>
</g>
<path opacity="0.6" d="M94.9535 68.7893C94.9535 68.7893 93.7138 73.3536 92.7543 75.2623C91.7947 77.1762 93.413 78.1202 93.413 78.1202C93.413 78.1202 88.6671 77.6845 87.023 76.4605C85.8248 75.6306 94.9535 68.7893 94.9535 68.7893Z" fill="url(#paint24_linear_7399_2074)" style="mix-blend-mode:multiply"/>
<path d="M0.959559 13.4365C-2.2199 18.6751 3.1328 38.2031 7.75416 39.8784C12.3703 41.5537 26.4056 40.6253 26.4056 40.6253L0.959559 13.4365Z" fill="#A977FF"/>
<path d="M1.01149 22.7831C1.05817 23.0528 1.09966 23.3225 1.14115 23.6026V23.6129C1.28638 24.5154 1.45754 25.4283 1.64945 26.336C1.64945 26.3463 1.64945 26.3567 1.64945 26.3671C2.89945 32.2436 5.10381 37.975 7.75941 39.199C10.7262 40.558 26.4057 40.6254 26.4057 40.6254L41.4472 19.9563C41.4472 19.9563 37.0903 18.9034 31.2501 17.5652C19.8756 14.9719 2.87871 11.3048 1.61315 12.3163C0.373519 13.3069 0.290531 17.7571 1.01149 22.7831Z" fill="url(#paint25_linear_7399_2074)"/>
<path d="M32.5052 24.3702C32.5052 24.3702 11.3226 19.4843 10.2438 20.3401C8.59439 21.6523 10.612 32.171 13.7137 33.5922C15.3786 34.3546 23.2572 34.3754 23.2572 34.3754L32.5052 24.3702Z" fill="url(#paint26_linear_7399_2074)"/>
<path d="M11.0738 26.0921C11.0738 26.0921 11.0738 26.118 11.0893 26.1699C11.4731 29.007 12.5312 32.088 14.0769 32.7985C15.3684 33.395 21.2812 33.5039 22.8995 33.5247C23.1588 33.5299 23.3092 33.5299 23.3092 33.5299L30.9337 24.3649C30.9337 24.3649 12.5468 20.3763 11.5665 21.1543C10.9026 21.6834 10.7678 23.7996 11.0738 26.0921Z" fill="url(#paint27_linear_7399_2074)"/>
<path opacity="0.6" d="M1.65454 26.3671C2.90454 32.2436 5.1089 37.9749 7.7645 39.199C10.7313 40.5579 26.4108 40.6253 26.4108 40.6253L41.4523 19.9563C41.4523 19.9563 37.0954 18.9034 31.2552 17.5652L31.1411 17.6274C34.5643 21.7146 27.6608 22.7778 24.3568 22.3318C21.0581 21.8805 11.3796 19.6658 10.2489 20.3349C9.12342 21.004 9.81325 24.7695 9.81325 24.7695C9.81325 24.7695 10.1037 22.0361 11.8101 21.7197C13.5166 21.3982 23.7137 22.6689 24.9792 24.059C26.2396 25.4542 22.7178 29.9303 22.7178 29.9303L22.2458 33.5144L22.3184 34.6243C22.3184 34.6243 16.0633 34.4428 13.7137 33.587C13.7137 33.587 13.0809 38.6492 9.59541 38.8515C6.77384 39.0175 3.00309 31.1751 1.65454 26.3671Z" fill="url(#paint28_linear_7399_2074)" style="mix-blend-mode:multiply"/>
<path opacity="0.6" d="M1.01147 22.7831C1.05816 23.0528 1.09965 23.3225 1.14114 23.6026C1.14114 23.1773 1.08928 22.9179 1.01147 22.7831Z" fill="url(#paint29_linear_7399_2074)" style="mix-blend-mode:multiply"/>
<path opacity="0.6" d="M24.8755 23.0942C24.8755 23.0942 14.6214 21.0558 12.9616 21.3359C11.3019 21.6212 10.8455 22.2487 10.8455 22.2487C10.8455 22.2487 10.3787 20.6097 11.1826 20.4334C11.9865 20.257 24.3569 22.9334 24.8807 23.089L24.8755 23.0942Z" fill="url(#paint30_linear_7399_2074)" style="mix-blend-mode:multiply"/>
<path opacity="0.6" d="M11.0891 26.1751C11.4729 29.0122 12.531 32.0932 14.0767 32.8037C15.3682 33.4002 21.281 33.5091 22.8993 33.5299V32.4251C21.836 32.8349 15.031 32.6637 13.2001 30.2259C11.5974 28.0942 11.1721 26.5278 11.0891 26.1699V26.1751Z" fill="url(#paint31_linear_7399_2074)" style="mix-blend-mode:multiply"/>
<path d="M14.2428 33.0165C14.4813 33.2758 13.8123 33.6233 13.8123 33.6233C13.8123 33.6233 18.7293 34.5103 22.4326 34.3443V33.6908C22.4326 33.6908 15.9492 33.4522 14.2428 33.0165Z" fill="url(#paint32_linear_7399_2074)" style="mix-blend-mode:screen"/>
<g opacity="0.3" style="mix-blend-mode:soft-light">
<path d="M21.4834 22.783C27.4429 25.6046 21.8153 31.3048 16.9969 30.8276C12.1784 30.3504 10.166 25.1533 11.7739 22.783C13.3817 20.4178 21.4834 22.783 21.4834 22.783Z" fill="#6DE2DB"/>
</g>
<g opacity="0.3" style="mix-blend-mode:soft-light">
<path d="M19.3256 22.6067C24.9844 24.4065 19.6161 28.3691 16.7893 28.587C13.9678 28.8048 10.9647 25.8587 12.7489 23.4417C14.5331 21.0195 19.3205 22.6067 19.3205 22.6067H19.3256Z" fill="#6DE2DB"/>
</g>
<g opacity="0.6" style="mix-blend-mode:soft-light">
<path d="M31.8466 18.727C34.025 23.4262 11.4887 19.5725 10.0313 20.0756C8.57378 20.5787 9.59038 29.4376 12.2149 32.477C12.2149 32.477 12.3082 36.9739 9.46071 37.5393C6.6132 38.1098 2.10594 28.1617 1.64951 20.5113C1.19308 12.8608 2.7491 12.3629 2.7491 12.3629C2.7491 12.3629 30.7418 16.4915 31.8414 18.7218L31.8466 18.727Z" fill="#CEE2DB"/>
</g>
<g opacity="0.6" style="mix-blend-mode:soft-light">
<path d="M27.4171 16.9375C31.7739 18.2135 28.0758 21.8442 27.0644 22.0983C26.053 22.3525 12.8216 19.6295 10.5447 20.0703C8.2677 20.5112 9.65774 26.8442 9.65774 26.8442C9.65774 26.8442 3.99384 27.1295 2.18886 22.0983C0.383879 17.0672 1.14633 14.1263 2.18886 13.1461C3.23139 12.1606 25.0467 16.2425 27.4171 16.9375Z" fill="#CEE2DB"/>
</g>
<path d="M18.8383 14.837C18.8383 14.837 15.384 14.0849 14.3414 14.837C13.2989 15.5891 14.3829 19.7488 15.6174 20.4231C16.857 21.0974 18.4701 21.3826 18.4701 21.3826C18.4701 21.3826 11.4213 19.7177 10.2439 20.3349C10.2439 20.3349 11.2761 16.5953 8.4493 14.4999C5.62773 12.4044 2.0437 12.1451 2.0437 12.1451C2.0437 12.1451 4.77192 11.725 18.8383 14.837Z" fill="url(#paint33_linear_7399_2074)" style="mix-blend-mode:screen"/>
<path opacity="0.6" d="M22.3185 34.6243C22.3185 34.6243 22.1318 37.8608 21.2708 39.1834C20.4098 40.506 13.8123 40.1896 13.8123 40.1896C13.8123 40.1896 19.0716 40.5164 22.7386 40.5734L22.3185 34.6295V34.6243Z" fill="url(#paint34_linear_7399_2074)" style="mix-blend-mode:multiply"/>
<path d="M23.3091 33.7893C23.3091 33.7893 23.1587 33.7893 22.8942 33.7893C20.638 33.7581 15.2542 33.6337 13.9679 33.0372C12.2303 32.2384 11.1981 28.8567 10.8351 26.2063L10.8195 26.1233C10.5446 24.0693 10.555 21.6316 11.4056 20.9521C12.4015 20.1586 26.6442 23.172 30.9855 24.1108L31.3952 24.199L23.4284 33.7789H23.3091V33.7893ZM11.3278 26.0507L11.3434 26.1233C11.7168 28.8567 12.7386 31.8961 14.1857 32.5652C15.166 33.0164 19.3309 33.2239 22.9046 33.2654C23.0291 33.2654 23.1224 33.2654 23.195 33.2654L30.4668 24.5206C23.4907 23.0164 12.5623 20.8951 11.722 21.3515C11.193 21.7716 11.027 23.7478 11.333 26.0403L11.3278 26.0507Z" fill="#2C2797"/>
<path d="M23.5529 22.0984C23.5529 22.0984 11.7479 19.6711 10.2386 20.3401C8.72924 21.0092 10.2386 27.1192 10.2386 27.1192C10.2386 27.1192 8.49065 21.6783 9.64729 20.0808C10.4305 19.002 23.5477 22.1036 23.5477 22.1036L23.5529 22.0984Z" fill="#F5F9F8"/>
<path d="M29.2376 64.6607C29.2376 64.6607 19.7511 65.335 16.0114 63.9657C12.2718 62.5964 8.83301 51.0559 8.83301 51.0559L29.2324 64.6607H29.2376Z" fill="#A977FF"/>
<path d="M15.9649 63.4573C18.4753 64.4065 29.2429 64.6607 29.2429 64.6607L25.7367 43.727C25.7367 43.727 24.44 43.5559 22.5572 43.3432C17.8269 42.8142 9.37257 42.0154 8.30929 42.9905C7.98771 43.2862 7.81137 43.8567 7.76987 44.6451C7.48979 49.4428 11.9504 61.9376 15.9649 63.4677V63.4573Z" fill="url(#paint35_linear_7399_2074)"/>
<path d="M24.6163 49.2976C24.6163 49.2976 15.6795 48.115 14.8445 48.8775C13.5634 50.0497 16.2397 58.0165 18.8642 59.0175C20.2698 59.5518 26.3123 59.6918 26.3123 59.6918L24.6215 49.2976H24.6163Z" fill="url(#paint36_linear_7399_2074)"/>
<path d="M24.829 49.8629C24.829 49.8629 16.7274 48.7892 15.9701 49.4843C14.8083 50.5424 17.1734 57.4822 19.5541 58.3899C20.83 58.8774 26.302 59.0019 26.302 59.0019L24.829 49.8629Z" fill="url(#paint37_linear_7399_2074)"/>
<path opacity="0.6" d="M15.965 63.4574C18.4753 64.4065 29.243 64.6607 29.243 64.6607L25.7367 43.7271C25.7367 43.7271 24.4401 43.5559 22.5573 43.3433C25.2699 45.7966 22.8011 48.5144 20.9909 48.6285C19.1807 48.7375 15.7938 48.3848 14.8498 48.8827C13.9006 49.3806 15.1091 53.1825 15.1091 53.1825C15.1091 53.1825 15.021 52.0777 15.856 50.3713C16.6859 48.67 22.1268 49.8526 23.5428 50.7136C24.9639 51.5746 25.7471 58.9916 25.7471 58.9916L26.1206 59.697C26.1206 59.697 20.9701 60.5684 18.356 59.0072C18.356 59.0072 17.9463 62.6223 16.2035 62.752C14.4556 62.8765 11.3747 57.1036 9.67346 52.2074C7.97222 47.3163 7.7855 44.6399 7.7855 44.6399C7.50541 49.4377 11.966 61.9325 15.9805 63.4626L15.965 63.4574Z" fill="url(#paint38_linear_7399_2074)" style="mix-blend-mode:multiply"/>
<g opacity="0.3" style="mix-blend-mode:soft-light">
<path d="M21.9398 50.3661C25.3423 51.0974 25.1504 56.2634 21.2759 56.8184C17.4015 57.3733 15.9025 52.0518 16.2344 50.558C16.5664 49.0642 20.3475 50.0237 21.9398 50.3661Z" fill="#6DE2DB"/>
</g>
<g opacity="0.3" style="mix-blend-mode:soft-light">
<path d="M22.8268 50.5009C25.7832 52.809 22.417 55.3868 19.834 55.5995C17.2511 55.8069 16.3486 52.4822 16.2345 50.558C16.1203 48.6337 21.5042 49.4739 22.8268 50.5009Z" fill="#6DE2DB"/>
</g>
<g opacity="0.6" style="mix-blend-mode:soft-light">
<path d="M20.9855 43.9086C23.361 44.308 23.2261 47.5497 22.5259 47.975C21.8257 48.4055 15.944 48.2343 14.5072 48.6181C13.0757 49.002 14.4035 54.2094 15.7884 56.9221C17.1732 59.6347 12.8527 57.8661 11.027 54.5414C9.19605 51.2167 7.38069 45.2675 8.92115 43.9034C10.4616 42.5445 20.9855 43.9034 20.9855 43.9034V43.9086Z" fill="#CEE2DB"/>
</g>
<g opacity="0.6" style="mix-blend-mode:soft-light">
<path d="M21.9969 43.447C24.4347 44.7955 23.7708 47.2333 22.9928 48.0631C22.2148 48.893 17.3963 47.6845 15.3476 48.6233C13.2988 49.5621 9.47619 48.2291 8.69819 44.5206C7.92537 40.8069 21.9969 43.4521 21.9969 43.4521V43.447Z" fill="#CEE2DB"/>
</g>
<path d="M17.4483 42.7934C17.4483 42.7934 15.9027 42.6897 15.2958 43.1617C14.6838 43.6337 15.1869 46.4293 15.9027 47.4304C16.6236 48.4262 18.2315 48.6181 18.2315 48.6181C18.2315 48.6181 14.5282 48.0009 14.4815 49.8318C14.4815 49.8318 14.4763 47.42 12.6091 45.0704C10.7419 42.726 8.83838 42.7416 8.83838 42.7416C8.83838 42.7416 11.7118 42.3163 17.4483 42.7934Z" fill="url(#paint39_linear_7399_2074)" style="mix-blend-mode:screen"/>
<path opacity="0.8" d="M23.8902 49.7436C23.8902 49.7436 17.9981 49.142 16.774 49.4947C15.5499 49.8474 15.6744 50.7499 15.6744 50.7499C15.6744 50.7499 15.2387 49.6295 15.4151 49.0797C15.5914 48.5299 20.5499 49.1524 23.8954 49.7436H23.8902Z" fill="url(#paint40_linear_7399_2074)" style="mix-blend-mode:multiply"/>
<path d="M25.8195 59.6711L25.5394 58.9812C25.5394 58.9812 21.1307 58.9657 19.554 58.3951C19.554 58.3951 19.3828 58.9605 19.0664 59.0902C19.0664 59.0902 21.2189 59.7281 25.8195 59.6763V59.6711Z" fill="url(#paint41_linear_7399_2074)" style="mix-blend-mode:screen"/>
<path opacity="0.6" d="M26.8725 59.2716C26.8725 59.2716 27.6401 62.5392 27.303 63.5247C26.971 64.505 17.8113 63.8774 17.8113 63.8774C21.5457 64.3702 25.4721 64.4998 29.9223 64.6606L26.8725 59.2768V59.2716Z" fill="url(#paint42_linear_7399_2074)" style="mix-blend-mode:multiply"/>
<path d="M26.6079 59.2665H26.3019C26.0788 59.251 20.7676 59.1265 19.4658 58.6285C17.6452 57.9335 15.9958 54.168 15.5498 51.8288C15.3786 50.9315 15.2853 49.7644 15.8039 49.2924C16.5871 48.5767 22.9409 49.3495 24.8703 49.6037L25.0622 49.6296L26.6131 59.2613L26.6079 59.2665ZM17.5363 49.4999C16.7842 49.4999 16.2759 49.5518 16.1463 49.6711C15.944 49.8526 15.8143 50.4906 16.0529 51.7302C16.5405 54.2976 18.1846 57.586 19.6473 58.1462C20.7002 58.5456 24.834 58.7012 26.0062 58.7323L24.611 50.086C21.9658 49.7437 19.1701 49.4999 17.5363 49.4999Z" fill="#2C2797"/>
<path d="M20.7625 48.6234C20.7625 48.6234 14.7251 48.1047 14.1702 48.8671C13.61 49.6296 15.3839 54.002 15.3839 54.002C15.3839 54.002 14.0405 50.2727 14.6577 49.2509C15.2749 48.2292 20.7625 48.6234 20.7625 48.6234Z" fill="#F5F9F8"/>
<path d="M37.4739 76.9688C37.4739 76.9688 33.5009 79.0434 28.9521 78.2862C24.1544 77.4874 22.6814 70.2312 22.6814 70.2312L37.4739 76.9688Z" fill="#A977FF"/>
<path d="M28.1431 77.7001C32.2717 79.0746 38.4491 76.9066 38.7499 76.4657C39.0507 76.03 32.6036 66.5694 32.6036 66.5694C32.6036 66.5694 30.4097 66.2686 28.0445 66.0715C25.5341 65.8537 22.8319 65.7499 22.3651 66.2271C22.2198 66.3775 22.142 66.6472 22.1213 67.0155C21.9605 69.5466 24.5798 76.5227 28.1431 77.7053V77.7001Z" fill="url(#paint43_linear_7399_2074)"/>
<path opacity="0.6" d="M28.1431 77.7002C32.2718 79.0746 38.4491 76.9066 38.75 76.4657C39.0508 76.03 32.6037 66.5695 32.6037 66.5695C32.6037 66.5695 30.4097 66.2686 28.0446 66.0715C29.7043 67.0881 32.6919 74.1576 32.0539 76.1442C31.4056 78.1722 27.9305 77.612 25.1037 74.3444C22.7489 71.6161 22.1576 67.7935 22.1162 67.0155C21.9554 69.5466 24.5747 76.5228 28.1379 77.7054L28.1431 77.7002Z" fill="url(#paint44_linear_7399_2074)" style="mix-blend-mode:multiply"/>
<g opacity="0.6" style="mix-blend-mode:soft-light">
<path d="M27.2874 66.4501C29.4918 66.7043 32.4741 73.9605 30.4772 75.8692C28.4804 77.7779 22.8216 72.197 22.5416 69.0953C22.2615 65.9937 27.2874 66.4449 27.2874 66.4449V66.4501Z" fill="#CEE2DB"/>
</g>
<g opacity="0.6" style="mix-blend-mode:soft-light">
<path d="M27.9563 66.2479C29.0351 66.8288 30.7001 69.0746 28.7862 70.9833C26.8775 72.8921 22.2665 69.1576 22.2405 67.2852C22.2198 65.418 27.9511 66.2479 27.9511 66.2479H27.9563Z" fill="#CEE2DB"/>
</g>
<path opacity="0.6" d="M30.8196 68.7893C30.8196 68.7893 32.0592 73.3536 33.0188 75.2623C33.9783 77.1762 32.36 78.1202 32.36 78.1202C32.36 78.1202 37.1059 77.6845 38.7501 76.4605C39.9482 75.6306 30.8196 68.7893 30.8196 68.7893Z" fill="url(#paint45_linear_7399_2074)" style="mix-blend-mode:multiply"/>
<path d="M88.3403 83.5974C88.2573 84.0383 85.0779 85.6773 80.9492 87.529C80.9492 87.529 80.9181 87.5394 80.8559 87.5653C74.2739 90.5165 65.3528 93.9761 62.8009 93.9761C59.0302 93.9761 41.3538 86.4242 37.858 84.1317C37.8528 84.1317 37.8476 84.1317 37.8476 84.1317C37.4845 83.8983 37.2822 83.7167 37.2615 83.6078C37.054 82.4615 39.5592 75.7032 39.5592 75.7032L62.8061 82.4771L86.0582 75.7032C86.0582 75.7032 86.9555 78.1358 87.6297 80.3246C88.081 81.7925 88.4337 83.1462 88.3507 83.6078L88.3403 83.5974Z" fill="url(#paint46_linear_7399_2074)"/>
<path opacity="0.6" d="M87.6194 80.3142C86.3383 78.2499 63.3819 84.5674 62.7958 85.641C62.2045 86.7198 62.1059 92.2645 63.33 92.9854C64.497 93.6701 79.523 88.058 80.8559 87.5653C74.274 90.5165 65.3528 93.9761 62.801 93.9761C58.6256 93.9761 37.4638 84.7437 37.2564 83.5974C37.0489 82.4512 39.5541 75.6929 39.5541 75.6929L62.801 82.4667L86.053 75.6929C86.053 75.6929 86.9503 78.1254 87.6246 80.3142H87.6194Z" fill="url(#paint47_linear_7399_2074)" style="mix-blend-mode:multiply"/>
<path opacity="0.8" d="M38.0707 80.003C37.2512 83.6026 58.2367 86.1026 63.3301 84.5466C68.4234 82.9906 86.9919 78.307 86.9919 78.307L86.3695 76.6265C86.3695 76.6265 68.2211 83.4366 62.9255 83.4366C57.6298 83.4366 38.968 77.3163 38.968 77.3163L38.0655 80.0082L38.0707 80.003Z" fill="url(#paint48_linear_7399_2074)" style="mix-blend-mode:multiply"/>
<g opacity="0.3" style="mix-blend-mode:soft-light">
<path d="M62.7958 85.641C62.3912 88.0839 63.1329 93.2084 64.1858 93.001C65.2387 92.7935 82.1423 87.7987 84.0873 85.8018C86.0323 83.8101 85.4981 78.6804 85.4981 78.6804C85.4981 78.6804 65.1557 82.8246 62.7906 85.641H62.7958Z" fill="#CEE2DB"/>
</g>
<path d="M62.7958 85.641C62.5832 86.3101 62.4276 92.3993 63.5635 92.4771C64.0925 92.5134 64.0147 85.4284 64.0147 85.4284C64.0147 85.4284 63.3664 84.9564 62.7958 85.6359V85.641Z" fill="url(#paint49_linear_7399_2074)" style="mix-blend-mode:screen"/>
<path d="M88.3403 83.5974C88.2573 84.0383 85.0778 85.6773 80.9492 87.5289C80.9492 87.5289 80.9181 87.5393 80.8558 87.5653C74.2739 90.5165 65.3527 93.976 62.8009 93.976C59.0301 93.976 41.3538 86.4242 37.8579 84.1316C38.4233 84.4014 56.5664 93.1825 62.9928 93.1669C69.5228 93.1462 88.3455 83.6026 88.3455 83.6026L88.3403 83.5974Z" fill="#A977FF"/>
<g opacity="0.6" style="mix-blend-mode:soft-light">
<path d="M64.2532 93.0061C62.0281 90.6669 63.2107 85.6409 64.0198 85.0134C64.8289 84.3858 79.082 79.9096 80.1246 80.8173C81.1671 81.725 76.4109 88.7219 72.6142 90.2883C68.8175 91.8546 64.2532 93.0061 64.2532 93.0061Z" fill="#CEE2DB"/>
</g>
<path d="M98.7033 61.9791C98.7033 61.9791 98.6981 61.9947 98.6877 62.031C97.697 65.8276 96.7116 68.8256 95.9439 70.1845C92.8475 75.6565 67.2147 84.5776 62.7956 84.5776C58.3765 84.5776 32.7437 75.6565 29.6524 70.1845C28.973 68.9812 28.1224 66.5071 27.251 63.3276C27.2458 63.3121 27.2406 63.3017 27.2406 63.3017C24.1338 51.9791 20.7002 31.782 23.4595 28.6233C26.9968 24.5673 58.3713 5.92101 62.7904 6.32558C67.2095 5.92101 98.5892 24.5673 102.121 28.6233C104.777 31.6679 101.706 50.475 98.6981 61.9843L98.7033 61.9791Z" fill="url(#paint50_linear_7399_2074)"/>
<path d="M90.1764 34.2509C87.7127 31.4293 65.8714 18.4418 62.7957 18.727C59.7199 18.447 37.8735 31.4293 35.415 34.2509C32.9513 37.0725 37.5675 59.3754 39.7199 63.1824C41.8724 66.9947 59.7199 73.2032 62.7957 73.2032C65.8714 73.2032 83.7137 66.9947 85.8714 63.1824C88.0239 59.3702 92.6401 37.0725 90.1764 34.2509Z" fill="url(#paint51_linear_7399_2074)"/>
<path d="M87.9097 46.4086C87.9097 46.4086 87.9097 46.4241 87.8994 46.4604C86.9035 52.8608 85.1348 59.8992 84.0456 61.8235C82.0643 65.3349 65.6328 71.0559 62.7956 71.0559C59.9585 71.0559 43.5321 65.3401 41.5508 61.8235C40.5498 60.0496 38.9626 53.9189 37.9357 47.9542C37.9201 47.8816 37.9149 47.8505 37.9149 47.8505C36.9294 42.0621 36.4678 36.4604 37.5778 35.1897C39.8444 32.5911 59.9637 20.6305 62.7956 20.8951C65.6328 20.6357 85.7469 32.5911 88.0083 35.1897C89.0249 36.3567 88.724 41.1648 87.9097 46.4137V46.4086Z" fill="url(#paint52_linear_7399_2074)"/>
<g opacity="0.6" style="mix-blend-mode:soft-light">
<path d="M23.0964 29.2665C22.4533 32.7157 33.5736 34.6296 33.5736 34.6296C33.5736 34.6296 52.5622 19.9097 61.805 18.7219C71.0477 17.5342 91.805 34.1213 91.805 34.1213C91.805 34.1213 99.4035 30.5788 100.036 28.2966C100.669 26.0196 69.7925 6.87025 62.946 6.99992C56.0996 7.1244 23.6722 26.1597 23.0964 29.2665Z" fill="#CEE2DB"/>
</g>
<g opacity="0.6" style="mix-blend-mode:soft-light">
<path d="M63.6824 6.39819C60.6689 8.51956 62.8162 18.727 62.8162 18.727C62.8162 18.727 79.2945 25.0911 89.6835 33.753C89.6835 33.753 99.8131 28.8619 99.8598 27.7779C99.9013 26.6887 79.2374 12.3474 63.6876 6.39819H63.6824Z" fill="#CEE2DB"/>
</g>
<path d="M84.082 29.7903C84.082 29.7903 87.8891 32.2851 90.4824 31.9065C93.0758 31.5279 96.8102 28.4262 97.0644 26.6523C97.3185 24.8785 95.5032 23.6129 95.5032 23.6129C95.5032 23.6129 102.21 27.6223 102.863 30.3608C102.863 30.3608 101.385 29.754 99.8549 30.449C98.33 31.144 90.9026 36.253 90.9026 36.253C90.9026 36.253 91.1204 35.392 90.2024 34.2509C89.2791 33.1098 84.082 29.7903 84.082 29.7903Z" fill="url(#paint53_linear_7399_2074)" style="mix-blend-mode:screen"/>
<path d="M67.7853 7.88165C65.9647 7.69493 64.4917 11.725 65.0363 15.2572C65.4668 18.0528 67.7853 20.5113 67.7853 20.5113C67.7853 20.5113 62.5674 17.2541 59.1857 19.8889C59.1857 19.8889 60.4668 14.308 60.1348 11.4605C59.8029 8.61298 57.4377 8.18248 57.4377 8.18248C57.4377 8.18248 60.3216 6.69389 61.9398 6.39306C63.5581 6.09223 67.7853 7.87646 67.7853 7.87646V7.88165Z" fill="url(#paint54_linear_7399_2074)" style="mix-blend-mode:screen"/>
<path d="M28.7033 24.4999C28.7033 24.4999 26.11 26.7768 25.7936 27.9802C25.4772 29.1835 32.9564 31.5746 35.223 31.6524C37.4896 31.725 41.9398 29.5414 41.9398 29.5414C41.9398 29.5414 36.5301 32.7934 35.4305 34.2509C34.3361 35.7032 34.7251 39.8837 34.7251 39.8837C34.7251 39.8837 33.6359 36.4656 32.5622 35.5165C31.4834 34.5673 24.2687 31.8443 23.5737 31.8443C22.8786 31.8443 22.4689 33.5559 22.4689 33.5559C22.4689 33.5559 22.168 31.2478 23.0965 29.2717C24.0197 27.2903 28.7033 24.5051 28.7033 24.5051V24.4999Z" fill="url(#paint55_linear_7399_2074)" style="mix-blend-mode:screen"/>
<path d="M36.836 33.0165C36.836 33.0165 56.3951 19.7229 61.8049 18.727C67.2146 17.7312 88.7706 33.0165 88.7706 33.0165C88.7706 33.0165 69.1285 18.1202 62.6088 17.6326C58.8277 17.3474 36.8308 33.0165 36.8308 33.0165H36.836Z" fill="#F5F9F8"/>
<path d="M28.7032 24.4998C28.7032 24.4998 56.7737 6.52784 62.9459 6.99984C69.1181 7.47702 96.2914 24.1108 96.2914 24.1108C96.2914 24.1108 69.5175 6.33075 62.8111 6.32556C56.6129 6.32038 28.698 24.505 28.698 24.505L28.7032 24.4998Z" fill="#F5F9F8"/>
<path d="M60.7884 7.29546C59.9066 8.89816 61.8983 10.6098 63.7033 10.4179C65.5083 10.226 68.5581 8.86185 68.5581 8.86185C68.5581 8.86185 65.8454 5.68757 60.7832 7.29027L60.7884 7.29546Z" fill="white"/>
<path opacity="0.8" d="M35.0414 34.9719C33.9885 37.8298 36.9449 39.4014 36.9449 39.4014C35.4771 37.223 48.5528 24.3754 62.7955 23.8672C75.2229 23.4263 89.0196 37.0933 88.6565 39.4014C88.6565 39.4014 90.2229 36.1545 90.1763 34.251C90.1296 32.3474 67.0746 18.9657 62.7955 18.7271C58.5165 18.4885 35.6845 33.224 35.0414 34.9719Z" fill="url(#paint56_linear_7399_2074)" style="mix-blend-mode:multiply"/>
<g opacity="0.3" style="mix-blend-mode:soft-light">
<path d="M43.8951 32.6378C34.0144 43.1565 43.5631 57.8401 59.2737 62.5444C74.9843 67.2488 87.8837 48.9345 86.6181 38.3017C85.3526 27.6689 58.0082 17.6119 43.8951 32.6378Z" fill="#6DE2DB"/>
</g>
<g opacity="0.3" style="mix-blend-mode:soft-light">
<path d="M61.7686 24.3702C41.6545 29.4998 47.2457 47.8557 58.8951 52.8245C70.5445 57.7934 83.2364 50.7965 83.7447 38.4521C84.253 26.1129 61.7686 24.365 61.7686 24.365V24.3702Z" fill="#6DE2DB"/>
</g>
<path opacity="0.5" d="M87.8992 46.4553C86.9034 52.8557 85.1347 59.8941 84.0455 61.8184C82.0642 65.3298 65.6326 71.0508 62.7955 71.0508C59.9584 71.0508 43.532 65.335 41.5507 61.8184C40.5497 60.0445 38.9625 53.9138 37.9355 47.9491C38.1482 48.9968 39.9376 57.4356 41.8048 59.8111C43.7965 62.3526 57.0331 67.2281 63.2882 67.5134C69.5486 67.7935 80.2021 64.7541 83.392 60.4854C86.4314 56.4242 87.7644 47.1296 87.8992 46.4553Z" fill="url(#paint57_linear_7399_2074)" style="mix-blend-mode:multiply"/>
<path opacity="0.3" d="M98.6877 62.0258C97.697 65.8224 96.7116 68.8204 95.9439 70.1793C92.8475 75.6513 67.2147 84.5724 62.7956 84.5724C58.3765 84.5724 32.7437 75.6513 29.6524 70.1793C28.973 68.976 28.1223 66.5019 27.251 63.3224C27.391 63.7322 29.336 69.3598 30.9802 70.3919C32.6867 71.4656 39.1026 63.9604 39.1026 63.9604C39.1026 63.9604 53.2157 72.949 62.7956 73.2031C72.3755 73.4573 85.8713 63.1824 85.8713 63.1824C85.8713 63.1824 90.5134 71.1285 93.3609 70.3919C96.0736 69.6917 98.4699 62.6793 98.6877 62.0258Z" fill="url(#paint58_linear_7399_2074)" style="mix-blend-mode:multiply"/>
<path opacity="0.3" d="M33.5735 72.9231C32.7488 72.1658 37.7903 66.5901 39.0974 66.1492C40.4096 65.7084 60.3474 73.2395 61.0424 73.8723C61.7374 74.505 62.0538 84.1264 62.0538 84.1264C62.0538 84.1264 45.8505 80.9003 33.5683 72.9231H33.5735Z" fill="url(#paint59_linear_7399_2074)" style="mix-blend-mode:multiply"/>
<path opacity="0.8" d="M51.6804 25.9574C51.6804 25.9574 59.2634 22.2852 62.9719 22.4771C66.6804 22.669 71.6182 24.6918 71.6182 24.6918C71.6182 24.6918 65.1918 20.4491 62.614 20.5113C60.031 20.5735 51.6804 25.9574 51.6804 25.9574Z" fill="url(#paint60_linear_7399_2074)" style="mix-blend-mode:multiply"/>
<path opacity="0.8" d="M42.5156 62.9023C42.5156 62.9023 56.7117 69.6918 62.4689 69.8837C68.2262 70.0756 81.3953 64.0953 81.3953 64.0953C81.3953 64.0953 68.1484 71.0766 62.7957 71.0507C57.4378 71.0247 43.2936 64.6606 42.5156 62.9023Z" fill="url(#paint61_linear_7399_2074)" style="mix-blend-mode:multiply"/>
<path d="M62.7957 71.31C59.9067 71.31 43.3559 65.5372 41.3227 61.948C40.3216 60.1793 38.7241 54.0486 37.6816 47.9957C37.666 47.9231 37.6608 47.8816 37.6608 47.8816C36.9606 43.7685 35.9855 36.616 37.386 35.0133C39.5696 32.5133 59.6785 20.3453 62.8165 20.6305C65.9233 20.3608 86.0219 32.5133 88.2003 35.0133C89.4192 36.4137 88.8486 41.9998 88.1588 46.4449V46.476C87.1474 52.9179 85.3683 59.9874 84.2636 61.9428C82.2355 65.532 65.6795 71.3048 62.7905 71.3048L62.7957 71.31ZM62.7231 21.1388C59.6318 21.1388 40.0934 32.6897 37.7698 35.3505C36.8621 36.3878 37.0125 41.0403 38.164 47.8038C38.164 47.8142 38.1691 47.8453 38.1795 47.8971C39.2169 53.9137 40.7884 59.9666 41.7635 61.6938C43.6671 65.06 60.0156 70.7965 62.7853 70.7965C65.555 70.7965 81.914 65.06 83.8123 61.6938C84.8911 59.7851 86.6443 52.7882 87.6349 46.4189L87.6453 46.3671C88.5685 40.4179 88.6308 36.2996 87.8061 35.3505C85.4617 32.6586 65.5239 20.8743 62.8061 21.1388C62.775 21.1388 62.7438 21.1388 62.7127 21.1388H62.7231Z" fill="#2C2797"/>
<path d="M30.3059 71.0507C30.3059 71.0507 52.4169 84.2509 62.5362 84.1264C72.6607 83.9967 95.2852 71.0507 95.2852 71.0507C93.6306 74.0745 69.7769 84.2249 62.7955 84.5724C55.8142 84.92 30.5808 74.2457 30.3059 71.0507Z" fill="#A977FF"/>
<path d="M63.0964 72.8868C64.5695 72.1451 63.9937 71.1959 63.9937 71.1959L74.9222 67.5652C74.9222 67.5652 76.4937 68.5351 78.2261 67.9438C78.2261 67.9438 67.2717 72.9179 63.0964 72.8868Z" fill="url(#paint62_linear_7399_2074)" style="mix-blend-mode:screen"/>
<path opacity="0.8" d="M62.5105 26.3515C60.3891 26.3204 57.0852 36.144 55.7833 36.9532C54.4866 37.7623 44.2947 38.2032 43.2522 39.8785C42.2096 41.5538 51.1308 48.115 51.4161 49.3702C51.7013 50.6202 49.3933 61.6472 50.6173 62.9023C51.8414 64.1523 61.2553 57.5548 62.7906 57.6534C64.3258 57.7467 72.4794 63.8723 74.1184 63.0631C75.7574 62.254 73.1536 50.5994 73.6775 49.2353C74.2013 47.8712 81.8466 41.4656 81.8466 39.8837C81.8466 38.4003 71.2605 38.3795 69.3155 36.8131C67.3704 35.2467 64.6318 26.3878 62.5105 26.3567V26.3515Z" fill="url(#paint63_linear_7399_2074)" style="mix-blend-mode:multiply"/>
<path d="M72.5156 49.3754C72.5156 49.3754 75.5032 61.0507 74.1339 62.1244C72.8631 63.1202 62.5104 56.642 62.5104 56.642C62.5104 56.642 52.443 63.0165 50.887 62.1244C49.3517 61.2323 52.5052 49.3754 52.5052 49.3754C52.5052 49.3754 42.972 41.7043 43.7085 40.0134C44.5073 38.1825 56.333 37.6171 56.333 37.6171C56.333 37.6171 60.4617 26.3516 62.5104 26.3516C64.4191 26.3516 68.693 37.6171 68.693 37.6171C68.693 37.6171 80.8144 38.3744 81.3123 40.0134C81.7013 41.3049 72.5104 49.3754 72.5104 49.3754H72.5156Z" fill="url(#paint64_linear_7399_2074)"/>
<path opacity="0.3" d="M72.5156 49.3755C72.5156 49.3755 75.5032 61.0508 74.1339 62.1244C72.8631 63.1203 62.5104 56.6421 62.5104 56.6421C62.5104 56.6421 52.443 63.0165 50.887 62.1244C49.3517 61.2323 52.5052 49.3755 52.5052 49.3755C52.5052 49.3755 42.972 41.7043 43.7085 40.0134C43.7085 40.0134 58.2781 44.334 63.2884 44.2873C67.9202 44.2458 81.3175 40.0134 81.3175 40.0134C81.7065 41.3049 72.5156 49.3755 72.5156 49.3755Z" fill="url(#paint65_linear_7399_2074)" style="mix-blend-mode:multiply"/>
<path opacity="0.5" d="M74.1338 62.1192L62.7956 44.2872C62.7956 44.2872 62.225 54.1835 62.614 56.0818C63.0031 57.9802 74.1286 62.1192 74.1286 62.1192H74.1338Z" fill="url(#paint66_linear_7399_2074)" style="mix-blend-mode:multiply"/>
<path opacity="0.5" d="M62.5103 26.3516L62.7956 44.2872C62.7956 44.2872 56.4523 38.2292 56.333 37.6171C56.2137 36.9999 60.5757 26.6524 62.5103 26.3516Z" fill="url(#paint67_linear_7399_2074)" style="mix-blend-mode:multiply"/>
<path opacity="0.5" d="M50.8922 62.1192L62.7957 44.2872C62.7957 44.2872 53.3196 48.67 52.5105 49.3702C51.7065 50.0704 49.9534 61.3827 50.8922 62.1192Z" fill="url(#paint68_linear_7399_2074)" style="mix-blend-mode:multiply"/>
<path opacity="0.5" d="M72.5156 49.3755C72.5156 49.3755 62.8112 44.6348 62.7957 44.2925C62.7853 43.9501 81.3174 40.0134 81.3174 40.0134C81.3174 40.0134 77.8164 44.6867 72.5156 49.3755Z" fill="url(#paint69_linear_7399_2074)" style="mix-blend-mode:multiply"/>
<g opacity="0.3" style="mix-blend-mode:soft-light">
<path d="M68.693 37.6171C67.3963 37.6016 62.7905 44.2872 62.7905 44.2872C62.7905 44.2872 80.2283 40.6462 81.3123 40.0082C81.3123 40.0082 78.527 38.4522 68.693 37.6119V37.6171Z" fill="#CEE2DB"/>
</g>
<g opacity="0.3" style="mix-blend-mode:soft-light">
<path d="M44.4866 39.8837C45.7521 38.1721 55.4357 37.254 56.0115 37.6378C56.5924 38.0217 62.7905 44.2924 62.7905 44.2924C62.7905 44.2924 45.8766 40.6773 44.4866 39.8837Z" fill="#CEE2DB"/>
</g>
<path d="M68.0912 36.087C68.2261 37.8557 63.6721 43.3588 63.2883 43.2188C62.9045 43.0787 62.7178 42.2904 62.7178 42.2904L62.7956 44.2872L65.1089 43.7997C65.1089 43.7997 64.1908 43.696 64.0715 43.2655C63.9522 42.8401 68.6981 37.6171 68.6981 37.6171L68.0964 36.087H68.0912Z" fill="url(#paint70_linear_7399_2074)" style="mix-blend-mode:screen"/>
<path d="M48.3973 38.3951C45.6276 40.086 55.4668 42.7779 55.4668 42.7779C55.4668 42.7779 44.3102 40.2001 44.0871 39.8837C43.8641 39.5673 48.0965 38.447 48.3921 38.4003L48.3973 38.3951Z" fill="url(#paint71_linear_7399_2074)" style="mix-blend-mode:screen"/>
<path d="M54.1702 37.7157C56.333 37.6223 61.6702 43.3173 61.8154 43.7115C61.9554 44.1057 61.5094 44.0124 61.5094 44.0124L62.7957 44.2924L56.333 37.6223L54.1702 37.7157Z" fill="url(#paint72_linear_7399_2074)" style="mix-blend-mode:screen"/>
<g opacity="0.3" style="mix-blend-mode:soft-light">
<path d="M62.5258 44.6918C62.5258 44.6918 52.7489 59.7385 52.3236 60.7862C51.8982 61.8287 61.4833 56.8443 62.0538 55.4698C62.6244 54.0901 62.5258 44.6918 62.5258 44.6918Z" fill="#CEE2DB"/>
</g>
<g opacity="0.3" style="mix-blend-mode:soft-light">
<path d="M64.4711 45.3557C63.0966 45.309 73.6775 60.6773 73.6775 60.6773C73.6775 60.6773 73.3144 51.5538 72.3497 49.9148C71.385 48.2706 64.4711 45.3557 64.4711 45.3557Z" fill="#CEE2DB"/>
</g>
<path d="M73.4078 38.032C76.4524 38.9916 73.0966 41.3671 71.2605 41.9688C69.4244 42.5704 64.4607 43.6285 64.4607 43.6285C64.4607 43.6285 81.1775 40.2364 81.3124 40.0082C81.4472 39.78 80.0468 38.8101 73.4026 38.0269L73.4078 38.032Z" fill="url(#paint73_linear_7399_2074)" style="mix-blend-mode:screen"/>
<path d="M66.9088 33.2914C66.9088 33.2914 64.9483 28.0269 63.6879 29.059C62.9514 29.6659 62.718 43.6337 62.718 43.6337L62.5105 26.3516C62.5105 26.3516 64.331 26.4501 66.9088 33.2914Z" fill="url(#paint74_linear_7399_2074)" style="mix-blend-mode:screen"/>
<g opacity="0.3" style="mix-blend-mode:soft-light">
<path d="M63.6877 44.8837C63.6877 44.8837 63.7085 44.9355 63.7552 45.0289C64.2064 46.0092 66.8931 51.7353 69.2012 53.9967C71.7323 56.4708 72.7801 56.3463 72.8112 56.2478C72.8423 56.1544 72.723 50.226 72.0539 49.3754L63.6877 44.8837Z" fill="#CEE2DB"/>
</g>
<path opacity="0.3" d="M44.082 40.3712C44.082 40.3712 52.1163 42.5548 56.7065 43.3536C61.2968 44.1523 62.7905 44.2924 62.7905 44.2924L52.7024 49.2353C52.7024 49.2353 45.3372 43.5974 44.082 40.3712Z" fill="url(#paint75_linear_7399_2074)" style="mix-blend-mode:multiply"/>
<path opacity="0.8" d="M58.0808 59.2716C58.0808 59.2716 62.0279 57.643 63.1482 57.7312C64.2686 57.8245 65.1555 58.2291 65.1555 58.2291L62.4999 56.5486L58.0808 59.2716Z" fill="url(#paint76_linear_7399_2074)" style="mix-blend-mode:multiply"/>
<path d="M62.7957 44.2924C62.7957 44.2924 68.2625 37.6171 68.6981 37.6223C69.1286 37.6223 78.7656 38.4781 80.7573 39.7126C80.7573 39.7126 70.1349 43.5144 62.7957 44.2976V44.2924Z" fill="url(#paint77_linear_7399_2074)" style="mix-blend-mode:screen"/>
<path d="M73.75 62.3422C71.5042 62.3422 63.75 57.56 62.5104 56.7872C61.1929 57.6171 52.3703 63.1202 50.8247 62.2281C49.279 61.3308 51.9502 50.9677 52.36 49.4169C51.1151 48.4107 42.8475 41.6524 43.5892 39.9563C44.3828 38.1409 55.083 37.5497 56.2396 37.4874C56.7842 36.004 60.472 26.2167 62.5104 26.2167C64.4139 26.2167 68.221 36.0144 68.7863 37.4874C70.3683 37.5912 80.9388 38.3225 81.4419 39.9667C81.8361 41.2737 73.8434 48.364 72.6608 49.4117C73.0446 50.9262 75.5809 61.1441 74.2168 62.2125C74.1131 62.2955 73.9575 62.3318 73.7552 62.3318L73.75 62.3422ZM62.5104 56.4864L62.5778 56.5279C66.7064 59.1109 73.1639 62.7053 74.0508 62.0154C75.0052 61.2685 73.5788 54.059 72.3859 49.4013L72.3652 49.3235L72.4222 49.2717C75.9544 46.1752 81.4575 40.9262 81.1878 40.0445C80.8402 38.9034 73.5166 38.0424 68.6774 37.7416H68.5944L68.5633 37.6586C67.3859 34.5465 63.9938 26.476 62.5 26.476C60.8921 26.476 57.583 34.5465 56.4419 37.6586L56.4108 37.7364H56.3278C53.0602 37.8972 44.445 38.6181 43.8174 40.06C43.3039 41.2322 48.7759 46.2115 52.5778 49.2665L52.64 49.3183L52.6193 49.3961C51.3589 54.1264 49.8755 61.3826 50.9388 61.9999C52.1629 62.6949 59.6473 58.281 62.4274 56.5175L62.4948 56.476L62.5104 56.4864Z" fill="#2C2797"/>
<path d="M66.6027 14.9667C65.4357 15.9522 68.7811 16.0196 69.9844 15.5787C71.1877 15.1379 69.7458 12.3682 69.7458 12.3682C69.7458 12.3682 67.3133 14.3651 66.6027 14.9667Z" fill="white"/>
<path d="M71.6078 9.61923C71.7738 10.4491 63.8018 17.3526 62.6348 17.1452C61.4677 16.9481 54.5279 11.5591 54.0196 9.60886C53.7084 8.43147 61.4677 0.00305176 62.6348 0.00305176C63.6047 0.00305176 69.0922 6.12338 70.975 8.62857C71.3484 9.12649 71.5818 9.47919 71.6078 9.61405V9.61923Z" fill="url(#paint78_linear_7399_2074)"/>
<path opacity="0.6" d="M71.6078 9.61923C71.7738 10.4491 63.8018 17.3526 62.6348 17.1452C61.4677 16.9481 54.5279 11.5591 54.0196 9.60886C53.7084 8.43147 61.4677 0.00305176 62.6348 0.00305176C62.6348 0.00305176 60.9802 15.169 62.4947 16.1597C64.4605 17.4408 70.8765 9.98749 70.9698 8.63376C71.3433 9.13168 71.5767 9.47919 71.6026 9.61405L71.6078 9.61923Z" fill="url(#paint79_linear_7399_2074)" style="mix-blend-mode:multiply"/>
<g opacity="0.6" style="mix-blend-mode:soft-light">
<path d="M63.6876 0.656589C61.5818 0.620282 62.3287 10.9885 63.0445 13.836C63.7654 16.6836 70.2125 9.80078 70.4044 8.94497C70.5964 8.08916 63.6876 0.656589 63.6876 0.656589Z" fill="#CEE2DB"/>
</g>
<g opacity="0.6" style="mix-blend-mode:soft-light">
<path d="M62.8111 0.355713C62.8111 0.355713 61.4366 12.8402 62.531 14.3132C63.6202 15.7862 67.6088 12.8402 68.7032 9.37542C69.7976 5.91069 62.8163 0.355713 62.8163 0.355713H62.8111Z" fill="#CEE2DB"/>
</g>
<path opacity="0.8" d="M54.0197 9.60876C54.0197 9.60876 48.0964 12.7467 47.194 13.8359C46.2915 14.9252 60.612 17.3681 62.6348 17.1451C64.6628 16.922 67.4792 13.8878 67.4792 13.8878C67.4792 13.8878 64.139 16.5434 62.5259 16.6368C60.9128 16.7353 54.0145 9.60876 54.0145 9.60876H54.0197Z" fill="url(#paint80_linear_7399_2074)" style="mix-blend-mode:multiply"/>
<path d="M62.3079 5.99888C64.1284 1.49681 68.2519 5.35054 68.2519 5.35054C68.2519 5.35054 63.034 -0.147384 62.6347 0.003031C62.2353 0.153446 62.3079 5.99888 62.3079 5.99888Z" fill="url(#paint81_linear_7399_2074)" style="mix-blend-mode:screen"/>
<path d="M64.3621 3.48853C61.1982 3.48853 64.4295 9.60886 64.4295 9.60886C64.4295 9.60886 67.0799 3.48853 64.3621 3.48853Z" fill="url(#paint82_linear_7399_2074)" style="mix-blend-mode:screen"/>
<defs>
<linearGradient id="paint0_linear_7399_2074" x1="93.1898" y1="57.5081" x2="108.309" y2="9.62428" gradientUnits="userSpaceOnUse">
<stop offset="0.22" stop-color="#9A90BA"/>
<stop offset="0.39" stop-color="#9F98BD"/>
<stop offset="0.66" stop-color="#AEB1C5"/>
<stop offset="0.99" stop-color="#C7D8D3"/>
<stop offset="1" stop-color="#C8D9D4"/>
</linearGradient>
<linearGradient id="paint1_linear_7399_2074" x1="98.8086" y1="43.074" x2="106.535" y2="18.551" gradientUnits="userSpaceOnUse">
<stop stop-color="#DAEAE2"/>
<stop offset="0.12" stop-color="#CDD8DA"/>
<stop offset="0.4" stop-color="#B1B1C8"/>
<stop offset="0.63" stop-color="#A098BD"/>
<stop offset="0.78" stop-color="#9A90BA"/>
</linearGradient>
<linearGradient id="paint2_linear_7399_2074" x1="99.6059" y1="41.0714" x2="106.338" y2="19.7487" gradientUnits="userSpaceOnUse">
<stop stop-color="#315CFF"/>
<stop offset="1" stop-color="#6579FF"/>
</linearGradient>
<linearGradient id="paint3_linear_7399_2074" x1="103.906" y1="40.6305" x2="103.906" y2="17.5704" gradientUnits="userSpaceOnUse">
<stop stop-color="#7F4AB1"/>
<stop offset="0.99" stop-color="#CCC5FF"/>
</linearGradient>
<linearGradient id="paint4_linear_7399_2074" x1="124.383" y1="23.6026" x2="124.383" y2="22.7831" gradientUnits="userSpaceOnUse">
<stop stop-color="#7F4AB1"/>
<stop offset="0.99" stop-color="#CCC5FF"/>
</linearGradient>
<linearGradient id="paint5_linear_7399_2074" x1="107.666" y1="23.0942" x2="107.666" y2="20.4282" gradientUnits="userSpaceOnUse">
<stop stop-color="#CCC5FF"/>
<stop offset="1" stop-color="#7F4AB1"/>
</linearGradient>
<linearGradient id="paint6_linear_7399_2074" x1="107.702" y1="33.5299" x2="107.702" y2="26.1751" gradientUnits="userSpaceOnUse">
<stop stop-color="#7F4AB1"/>
<stop offset="0.99" stop-color="#CCC5FF"/>
</linearGradient>
<linearGradient id="paint7_linear_7399_2074" x1="103.024" y1="33.6908" x2="111.649" y2="33.6908" gradientUnits="userSpaceOnUse">
<stop/>
<stop offset="0.99" stop-color="white"/>
</linearGradient>
<linearGradient id="paint8_linear_7399_2074" x1="115.015" y1="21.3826" x2="115.015" y2="12.1295" gradientUnits="userSpaceOnUse">
<stop/>
<stop offset="0.99" stop-color="white"/>
</linearGradient>
<linearGradient id="paint9_linear_7399_2074" x1="107.184" y1="40.5734" x2="107.184" y2="34.6243" gradientUnits="userSpaceOnUse">
<stop stop-color="#7F4AB1"/>
<stop offset="0.99" stop-color="#CCC5FF"/>
</linearGradient>
<linearGradient id="paint10_linear_7399_2074" x1="56.0425" y1="99.7385" x2="69.0093" y2="77.28" gradientUnits="userSpaceOnUse">
<stop stop-color="#315CFF"/>
<stop offset="1" stop-color="#6579FF"/>
</linearGradient>
<linearGradient id="paint11_linear_7399_2074" x1="62.5051" y1="100.542" x2="62.5051" y2="82.2593" gradientUnits="userSpaceOnUse">
<stop stop-color="#ABA6FF"/>
<stop offset="1" stop-color="#7F4AB1"/>
</linearGradient>
<linearGradient id="paint12_linear_7399_2074" x1="63.3246" y1="99.7178" x2="63.3246" y2="94.2354" gradientUnits="userSpaceOnUse">
<stop/>
<stop offset="0.99" stop-color="#757CFF"/>
</linearGradient>
<linearGradient id="paint13_linear_7399_2074" x1="62.8837" y1="94.4169" x2="62.8837" y2="85.4335" gradientUnits="userSpaceOnUse">
<stop stop-color="#CCC5FF"/>
<stop offset="1" stop-color="#7F4AB1"/>
</linearGradient>
<linearGradient id="paint14_linear_7399_2074" x1="97.9355" y1="79.8889" x2="109.792" y2="42.337" gradientUnits="userSpaceOnUse">
<stop offset="0.22" stop-color="#9A90BA"/>
<stop offset="0.39" stop-color="#9F98BD"/>
<stop offset="0.66" stop-color="#AEB1C5"/>
<stop offset="0.99" stop-color="#C7D8D3"/>
<stop offset="1" stop-color="#C8D9D4"/>
</linearGradient>
<linearGradient id="paint15_linear_7399_2074" x1="97.5013" y1="67.9571" x2="105.206" y2="48.222" gradientUnits="userSpaceOnUse">
<stop stop-color="#DAEAE2"/>
<stop offset="0.12" stop-color="#CDD8DA"/>
<stop offset="0.4" stop-color="#B1B1C8"/>
<stop offset="0.63" stop-color="#A098BD"/>
<stop offset="0.78" stop-color="#9A90BA"/>
</linearGradient>
<linearGradient id="paint16_linear_7399_2074" x1="97.5712" y1="66.3554" x2="104.404" y2="48.8653" gradientUnits="userSpaceOnUse">
<stop stop-color="#315CFF"/>
<stop offset="1" stop-color="#6579FF"/>
</linearGradient>
<linearGradient id="paint17_linear_7399_2074" x1="106.96" y1="64.6607" x2="106.96" y2="43.3381" gradientUnits="userSpaceOnUse">
<stop stop-color="#7F4AB1"/>
<stop offset="0.99" stop-color="#CCC5FF"/>
</linearGradient>
<linearGradient id="paint18_linear_7399_2074" x1="111.924" y1="49.8318" x2="111.924" y2="42.5652" gradientUnits="userSpaceOnUse">
<stop/>
<stop offset="0.99" stop-color="white"/>
</linearGradient>
<linearGradient id="paint19_linear_7399_2074" x1="105.83" y1="50.7499" x2="105.83" y2="48.8671" gradientUnits="userSpaceOnUse">
<stop stop-color="#C2AEFF"/>
<stop offset="1" stop-color="#7F4AB1"/>
</linearGradient>
<linearGradient id="paint20_linear_7399_2074" x1="99.6368" y1="59.0331" x2="106.39" y2="59.0331" gradientUnits="userSpaceOnUse">
<stop/>
<stop offset="0.99" stop-color="white"/>
</linearGradient>
<linearGradient id="paint21_linear_7399_2074" x1="101.592" y1="64.6606" x2="101.592" y2="59.2716" gradientUnits="userSpaceOnUse">
<stop stop-color="#7F4AB1"/>
<stop offset="0.99" stop-color="#CCC5FF"/>
</linearGradient>
<linearGradient id="paint22_linear_7399_2074" x1="93.2833" y1="78.8983" x2="104.321" y2="43.9501" gradientUnits="userSpaceOnUse">
<stop offset="0.22" stop-color="#9A90BA"/>
<stop offset="0.39" stop-color="#9F98BD"/>
<stop offset="0.66" stop-color="#AEB1C5"/>
<stop offset="0.99" stop-color="#C7D8D3"/>
<stop offset="1" stop-color="#C8D9D4"/>
</linearGradient>
<linearGradient id="paint23_linear_7399_2074" x1="95.3372" y1="78.1462" x2="95.3372" y2="66.0612" gradientUnits="userSpaceOnUse">
<stop stop-color="#7F4AB1"/>
<stop offset="0.99" stop-color="#CCC5FF"/>
</linearGradient>
<linearGradient id="paint24_linear_7399_2074" x1="90.9337" y1="78.1202" x2="90.9337" y2="68.7893" gradientUnits="userSpaceOnUse">
<stop stop-color="#7F4AB1"/>
<stop offset="0.99" stop-color="#CCC5FF"/>
</linearGradient>
<linearGradient id="paint25_linear_7399_2074" x1="32.2719" y1="57.5082" x2="17.1474" y2="9.62435" gradientUnits="userSpaceOnUse">
<stop offset="0.22" stop-color="#9A90BA"/>
<stop offset="0.39" stop-color="#9F98BD"/>
<stop offset="0.66" stop-color="#AEB1C5"/>
<stop offset="0.99" stop-color="#C7D8D3"/>
<stop offset="1" stop-color="#C8D9D4"/>
</linearGradient>
<linearGradient id="paint26_linear_7399_2074" x1="27.489" y1="43.0723" x2="19.7037" y2="18.5943" gradientUnits="userSpaceOnUse">
<stop stop-color="#DAEAE2"/>
<stop offset="0.12" stop-color="#CDD8DA"/>
<stop offset="0.4" stop-color="#B1B1C8"/>
<stop offset="0.63" stop-color="#A098BD"/>
<stop offset="0.78" stop-color="#9A90BA"/>
</linearGradient>
<linearGradient id="paint27_linear_7399_2074" x1="25.8559" y1="41.0714" x2="19.1236" y2="19.7487" gradientUnits="userSpaceOnUse">
<stop stop-color="#315CFF"/>
<stop offset="1" stop-color="#6579FF"/>
</linearGradient>
<linearGradient id="paint28_linear_7399_2074" x1="21.5508" y1="40.6305" x2="21.5508" y2="17.5704" gradientUnits="userSpaceOnUse">
<stop stop-color="#7F4AB1"/>
<stop offset="0.99" stop-color="#CCC5FF"/>
</linearGradient>
<linearGradient id="paint29_linear_7399_2074" x1="1.0789" y1="23.6026" x2="1.0789" y2="22.7831" gradientUnits="userSpaceOnUse">
<stop stop-color="#7F4AB1"/>
<stop offset="0.99" stop-color="#CCC5FF"/>
</linearGradient>
<linearGradient id="paint30_linear_7399_2074" x1="17.7957" y1="23.0942" x2="17.7957" y2="20.4282" gradientUnits="userSpaceOnUse">
<stop stop-color="#CCC5FF"/>
<stop offset="1" stop-color="#7F4AB1"/>
</linearGradient>
<linearGradient id="paint31_linear_7399_2074" x1="16.9968" y1="33.5299" x2="16.9968" y2="26.1751" gradientUnits="userSpaceOnUse">
<stop stop-color="#7F4AB1"/>
<stop offset="0.99" stop-color="#CCC5FF"/>
</linearGradient>
<linearGradient id="paint32_linear_7399_2074" x1="22.4326" y1="0.0030251" x2="13.8123" y2="0.0030251" gradientUnits="userSpaceOnUse">
<stop/>
<stop offset="0.99" stop-color="white"/>
</linearGradient>
<linearGradient id="paint33_linear_7399_2074" x1="10.441" y1="21.3826" x2="10.441" y2="12.1295" gradientUnits="userSpaceOnUse">
<stop/>
<stop offset="0.99" stop-color="white"/>
</linearGradient>
<linearGradient id="paint34_linear_7399_2074" x1="18.278" y1="40.5734" x2="18.278" y2="34.6243" gradientUnits="userSpaceOnUse">
<stop stop-color="#7F4AB1"/>
<stop offset="0.99" stop-color="#CCC5FF"/>
</linearGradient>
<linearGradient id="paint35_linear_7399_2074" x1="27.5209" y1="79.8889" x2="15.6641" y2="42.337" gradientUnits="userSpaceOnUse">
<stop offset="0.22" stop-color="#9A90BA"/>
<stop offset="0.39" stop-color="#9F98BD"/>
<stop offset="0.66" stop-color="#AEB1C5"/>
<stop offset="0.99" stop-color="#C7D8D3"/>
<stop offset="1" stop-color="#C8D9D4"/>
</linearGradient>
<linearGradient id="paint36_linear_7399_2074" x1="29.522" y1="67.8767" x2="21.7672" y2="48.177" gradientUnits="userSpaceOnUse">
<stop stop-color="#DAEAE2"/>
<stop offset="0.12" stop-color="#CDD8DA"/>
<stop offset="0.4" stop-color="#B1B1C8"/>
<stop offset="0.63" stop-color="#A098BD"/>
<stop offset="0.78" stop-color="#9A90BA"/>
</linearGradient>
<linearGradient id="paint37_linear_7399_2074" x1="29.4518" y1="66.275" x2="22.5742" y2="48.8157" gradientUnits="userSpaceOnUse">
<stop stop-color="#315CFF"/>
<stop offset="1" stop-color="#6579FF"/>
</linearGradient>
<linearGradient id="paint38_linear_7399_2074" x1="18.4961" y1="64.6607" x2="18.4961" y2="43.3381" gradientUnits="userSpaceOnUse">
<stop stop-color="#7F4AB1"/>
<stop offset="0.99" stop-color="#CCC5FF"/>
</linearGradient>
<linearGradient id="paint39_linear_7399_2074" x1="13.5375" y1="49.8318" x2="13.5375" y2="42.5652" gradientUnits="userSpaceOnUse">
<stop/>
<stop offset="0.99" stop-color="white"/>
</linearGradient>
<linearGradient id="paint40_linear_7399_2074" x1="19.6319" y1="50.7499" x2="19.6319" y2="48.8671" gradientUnits="userSpaceOnUse">
<stop stop-color="#C2AEFF"/>
<stop offset="1" stop-color="#7F4AB1"/>
</linearGradient>
<linearGradient id="paint41_linear_7399_2074" x1="25.8195" y1="59.0331" x2="19.0716" y2="59.0331" gradientUnits="userSpaceOnUse">
<stop/>
<stop offset="0.99" stop-color="white"/>
</linearGradient>
<linearGradient id="paint42_linear_7399_2074" x1="23.8642" y1="64.6606" x2="23.8642" y2="59.2716" gradientUnits="userSpaceOnUse">
<stop stop-color="#7F4AB1"/>
<stop offset="0.99" stop-color="#CCC5FF"/>
</linearGradient>
<linearGradient id="paint43_linear_7399_2074" x1="32.4895" y1="78.8983" x2="21.4522" y2="43.9501" gradientUnits="userSpaceOnUse">
<stop offset="0.22" stop-color="#9A90BA"/>
<stop offset="0.39" stop-color="#9F98BD"/>
<stop offset="0.66" stop-color="#AEB1C5"/>
<stop offset="0.99" stop-color="#C7D8D3"/>
<stop offset="1" stop-color="#C8D9D4"/>
</linearGradient>
<linearGradient id="paint44_linear_7399_2074" x1="30.4408" y1="78.1462" x2="30.4408" y2="66.0612" gradientUnits="userSpaceOnUse">
<stop stop-color="#7F4AB1"/>
<stop offset="0.99" stop-color="#CCC5FF"/>
</linearGradient>
<linearGradient id="paint45_linear_7399_2074" x1="34.8393" y1="78.1202" x2="34.8393" y2="68.7893" gradientUnits="userSpaceOnUse">
<stop stop-color="#7F4AB1"/>
<stop offset="0.99" stop-color="#CCC5FF"/>
</linearGradient>
<linearGradient id="paint46_linear_7399_2074" x1="55.6951" y1="93.9449" x2="69.4088" y2="70.1846" gradientUnits="userSpaceOnUse">
<stop offset="0.22" stop-color="#9A90BA"/>
<stop offset="0.39" stop-color="#9F98BD"/>
<stop offset="0.66" stop-color="#AEB1C5"/>
<stop offset="0.99" stop-color="#C7D8D3"/>
<stop offset="1" stop-color="#C8D9D4"/>
</linearGradient>
<linearGradient id="paint47_linear_7399_2074" x1="62.4275" y1="93.9761" x2="62.4275" y2="75.6981" gradientUnits="userSpaceOnUse">
<stop stop-color="#ABA6FF"/>
<stop offset="1" stop-color="#7F4AB1"/>
</linearGradient>
<linearGradient id="paint48_linear_7399_2074" x1="62.5209" y1="85.0134" x2="62.5209" y2="76.6213" gradientUnits="userSpaceOnUse">
<stop stop-color="#CCC5FF"/>
<stop offset="1" stop-color="#7F4AB1"/>
</linearGradient>
<linearGradient id="paint49_linear_7399_2074" x1="63.3301" y1="92.4823" x2="63.3301" y2="85.2728" gradientUnits="userSpaceOnUse">
<stop/>
<stop offset="0.99" stop-color="white"/>
</linearGradient>
<linearGradient id="paint50_linear_7399_2074" x1="43.1898" y1="77.9698" x2="75.7987" y2="21.4864" gradientUnits="userSpaceOnUse">
<stop offset="0.22" stop-color="#9A90BA"/>
<stop offset="0.39" stop-color="#9F98BD"/>
<stop offset="0.66" stop-color="#AEB1C5"/>
<stop offset="0.99" stop-color="#C7D8D3"/>
<stop offset="1" stop-color="#C8D9D4"/>
</linearGradient>
<linearGradient id="paint51_linear_7399_2074" x1="49.1442" y1="68.6078" x2="71.8465" y2="29.2872" gradientUnits="userSpaceOnUse">
<stop stop-color="#DAEAE2"/>
<stop offset="0.12" stop-color="#CDD8DA"/>
<stop offset="0.4" stop-color="#B1B1C8"/>
<stop offset="0.63" stop-color="#A098BD"/>
<stop offset="0.78" stop-color="#9A90BA"/>
</linearGradient>
<linearGradient id="paint52_linear_7399_2074" x1="50.223" y1="66.8131" x2="71.1307" y2="30.6098" gradientUnits="userSpaceOnUse">
<stop stop-color="#315CFF"/>
<stop offset="1" stop-color="#6579FF"/>
</linearGradient>
<linearGradient id="paint53_linear_7399_2074" x1="84.082" y1="29.9355" x2="102.863" y2="29.9355" gradientUnits="userSpaceOnUse">
<stop/>
<stop offset="0.99" stop-color="white"/>
</linearGradient>
<linearGradient id="paint54_linear_7399_2074" x1="62.6141" y1="20.5113" x2="62.6141" y2="6.36194" gradientUnits="userSpaceOnUse">
<stop/>
<stop offset="0.99" stop-color="white"/>
</linearGradient>
<linearGradient id="paint55_linear_7399_2074" x1="32.1836" y1="39.8837" x2="32.1836" y2="24.4999" gradientUnits="userSpaceOnUse">
<stop/>
<stop offset="0.99" stop-color="white"/>
</linearGradient>
<linearGradient id="paint56_linear_7399_2074" x1="62.4947" y1="39.1109" x2="62.4947" y2="21.0559" gradientUnits="userSpaceOnUse">
<stop stop-color="#C2AEFF"/>
<stop offset="1" stop-color="#7F4AB1"/>
</linearGradient>
<linearGradient id="paint57_linear_7399_2074" x1="62.9148" y1="71.0508" x2="62.9148" y2="46.4553" gradientUnits="userSpaceOnUse">
<stop stop-color="#7F4AB1"/>
<stop offset="1" stop-color="#C2AEFF"/>
</linearGradient>
<linearGradient id="paint58_linear_7399_2074" x1="62.9719" y1="84.5724" x2="62.9719" y2="62.0258" gradientUnits="userSpaceOnUse">
<stop stop-color="#7F4AB1"/>
<stop offset="0.99" stop-color="#CCC5FF"/>
</linearGradient>
<linearGradient id="paint59_linear_7399_2074" x1="47.7748" y1="84.1264" x2="47.7748" y2="66.1285" gradientUnits="userSpaceOnUse">
<stop stop-color="#7F4AB1"/>
<stop offset="0.99" stop-color="#CCC5FF"/>
</linearGradient>
<linearGradient id="paint60_linear_7399_2074" x1="61.6493" y1="26.4501" x2="61.6493" y2="20.8744" gradientUnits="userSpaceOnUse">
<stop stop-color="#C2AEFF"/>
<stop offset="1" stop-color="#7F4AB1"/>
</linearGradient>
<linearGradient id="paint61_linear_7399_2074" x1="61.9555" y1="71.7924" x2="61.9555" y2="63.4469" gradientUnits="userSpaceOnUse">
<stop stop-color="#7F4AB1"/>
<stop offset="1" stop-color="#C2AEFF"/>
</linearGradient>
<linearGradient id="paint62_linear_7399_2074" x1="70.6587" y1="72.8142" x2="70.6587" y2="68.1668" gradientUnits="userSpaceOnUse">
<stop/>
<stop offset="0.99" stop-color="#FFFFC7"/>
</linearGradient>
<linearGradient id="paint63_linear_7399_2074" x1="62.5105" y1="63.1357" x2="62.5105" y2="26.3515" gradientUnits="userSpaceOnUse">
<stop stop-color="#7F4AB1"/>
<stop offset="1" stop-color="#C2AEFF"/>
</linearGradient>
<linearGradient id="paint64_linear_7399_2074" x1="51.027" y1="68.67" x2="66.499" y2="34.308" gradientUnits="userSpaceOnUse">
<stop offset="0.22" stop-color="#FF8B00"/>
<stop offset="0.39" stop-color="#FF9302"/>
<stop offset="0.67" stop-color="#FFAC07"/>
<stop offset="1" stop-color="#FFD110"/>
</linearGradient>
<linearGradient id="paint65_linear_7399_2074" x1="62.5" y1="62.2282" x2="62.5" y2="40.0134" gradientUnits="userSpaceOnUse">
<stop stop-color="#AE1DB1"/>
<stop offset="0.99" stop-color="#FF89FF"/>
</linearGradient>
<linearGradient id="paint66_linear_7399_2074" x1="68.3039" y1="62.1192" x2="68.3039" y2="44.2924" gradientUnits="userSpaceOnUse">
<stop stop-color="#FF10FF"/>
<stop offset="1" stop-color="#B10072"/>
</linearGradient>
<linearGradient id="paint67_linear_7399_2074" x1="59.5643" y1="44.2924" x2="59.5643" y2="26.3516" gradientUnits="userSpaceOnUse">
<stop stop-color="#FF10FF"/>
<stop offset="1" stop-color="#B10072"/>
</linearGradient>
<linearGradient id="paint68_linear_7399_2074" x1="56.7065" y1="0.00299172" x2="56.7065" y2="0.00299172" gradientUnits="userSpaceOnUse">
<stop stop-color="#FF10FF"/>
<stop offset="1" stop-color="#B10072"/>
</linearGradient>
<linearGradient id="paint69_linear_7399_2074" x1="72.054" y1="49.3755" x2="72.054" y2="40.0134" gradientUnits="userSpaceOnUse">
<stop stop-color="#FF10FF"/>
<stop offset="1" stop-color="#B10072"/>
</linearGradient>
<linearGradient id="paint70_linear_7399_2074" x1="65.7053" y1="44.2924" x2="65.7053" y2="36.087" gradientUnits="userSpaceOnUse">
<stop/>
<stop offset="0.99" stop-color="white"/>
</linearGradient>
<linearGradient id="paint71_linear_7399_2074" x1="49.777" y1="42.7779" x2="49.777" y2="38.3951" gradientUnits="userSpaceOnUse">
<stop/>
<stop offset="0.99" stop-color="white"/>
</linearGradient>
<linearGradient id="paint72_linear_7399_2074" x1="58.4803" y1="44.2924" x2="58.4803" y2="37.6171" gradientUnits="userSpaceOnUse">
<stop/>
<stop offset="0.99" stop-color="white"/>
</linearGradient>
<linearGradient id="paint73_linear_7399_2074" x1="64.4659" y1="40.8329" x2="81.3227" y2="40.8329" gradientUnits="userSpaceOnUse">
<stop/>
<stop offset="0.99" stop-color="white"/>
</linearGradient>
<linearGradient id="paint74_linear_7399_2074" x1="64.7097" y1="43.6389" x2="64.7097" y2="26.3516" gradientUnits="userSpaceOnUse">
<stop/>
<stop offset="0.99" stop-color="white"/>
</linearGradient>
<linearGradient id="paint75_linear_7399_2074" x1="53.4389" y1="49.2353" x2="53.4389" y2="40.3712" gradientUnits="userSpaceOnUse">
<stop stop-color="#FF51FF"/>
<stop offset="1" stop-color="#9A25C7"/>
</linearGradient>
<linearGradient id="paint76_linear_7399_2074" x1="61.6182" y1="59.2716" x2="61.6182" y2="56.5538" gradientUnits="userSpaceOnUse">
<stop stop-color="#C2AEFF"/>
<stop offset="1" stop-color="#7F4AB1"/>
</linearGradient>
<linearGradient id="paint77_linear_7399_2074" x1="71.7739" y1="44.2924" x2="71.7739" y2="37.6171" gradientUnits="userSpaceOnUse">
<stop/>
<stop offset="0.99" stop-color="#FFE884"/>
</linearGradient>
<linearGradient id="paint78_linear_7399_2074" x1="59.5227" y1="15.195" x2="66.0632" y2="3.86716" gradientUnits="userSpaceOnUse">
<stop stop-color="#B3ACCB"/>
<stop offset="0.27" stop-color="#B6B4CC"/>
<stop offset="0.71" stop-color="#C0CCD0"/>
<stop offset="1" stop-color="#C8E0D4"/>
</linearGradient>
<linearGradient id="paint79_linear_7399_2074" x1="59.5227" y1="15.2001" x2="66.0372" y2="3.91384" gradientUnits="userSpaceOnUse">
<stop stop-color="#B8A9FF"/>
<stop offset="1" stop-color="#7F4AB1"/>
</linearGradient>
<linearGradient id="paint80_linear_7399_2074" x1="47.1525" y1="13.3847" x2="67.4792" y2="13.3847" gradientUnits="userSpaceOnUse">
<stop stop-color="#C2AEFF"/>
<stop offset="1" stop-color="#7F4AB1"/>
</linearGradient>
<linearGradient id="paint81_linear_7399_2074" x1="65.2799" y1="5.99888" x2="65.2799" y2="0.0030313" gradientUnits="userSpaceOnUse">
<stop/>
<stop offset="0.99" stop-color="white"/>
</linearGradient>
<linearGradient id="paint82_linear_7399_2074" x1="64.2843" y1="9.60886" x2="64.2843" y2="3.48853" gradientUnits="userSpaceOnUse">
<stop/>
<stop offset="0.99" stop-color="white"/>
</linearGradient>
</defs>
</svg>
