<svg width="122" height="101" viewBox="0 0 122 101" fill="none" xmlns="http://www.w3.org/2000/svg">
<g clip-path="url(#clip0_7399_981)">
<path d="M95.8552 46.1254C95.8552 46.1254 110.923 47.3 114.908 44.6041C118.887 41.9082 123.135 26.8039 120.367 19.5027L95.8552 46.1254Z" fill="#73BFFF"/>
<path d="M120.429 28.8581C120.388 29.1168 120.346 29.3807 120.305 29.6498V29.6601C120.165 30.5346 119.999 31.4143 119.813 32.2991C119.813 32.3095 119.813 32.3198 119.813 32.3302C118.608 38.0169 116.47 43.564 113.904 44.7489C111.032 46.0632 95.8605 46.1305 95.8605 46.1305L81.3047 26.126C81.3047 26.126 85.5219 25.1066 91.1724 23.813C102.179 21.2982 118.628 17.7536 119.855 18.7316C121.055 19.6889 121.138 23.9993 120.434 28.8633L120.429 28.8581Z" fill="url(#paint0_linear_7399_981)"/>
<path d="M89.9563 30.3897C89.9563 30.3897 110.458 25.6602 111.498 26.4881C113.091 27.7611 111.141 37.9341 108.139 39.3105C106.53 40.0505 98.903 40.0712 98.903 40.0712L89.9512 30.3897H89.9563Z" fill="url(#paint1_linear_7399_981)"/>
<path d="M110.696 32.0559C110.696 32.0559 110.696 32.0818 110.68 32.1335C110.308 34.876 109.283 37.8617 107.788 38.5499C106.536 39.1242 100.818 39.2329 99.2499 39.2536C98.9963 39.2588 98.8514 39.2588 98.8514 39.2588L91.4778 30.3897C91.4778 30.3897 109.273 26.5296 110.22 27.2799C110.867 27.7921 110.991 29.8412 110.696 32.0559Z" fill="url(#paint2_linear_7399_981)"/>
<path opacity="0.6" d="M119.813 32.3251C118.608 38.0118 116.47 43.5589 113.904 44.7438C111.032 46.0581 95.8605 46.1254 95.8605 46.1254L81.3047 26.1209C81.3047 26.1209 85.5219 25.1015 91.1724 23.8079L91.2863 23.8648C87.9746 27.8233 94.6549 28.8478 97.8527 28.4183C101.045 27.9837 110.411 25.8414 111.508 26.4831C112.6 27.1299 111.927 30.7727 111.927 30.7727C111.927 30.7727 111.648 28.1234 109.992 27.8181C108.336 27.5076 98.4736 28.734 97.2473 30.0845C96.0261 31.435 99.4361 35.7661 99.4361 35.7661L99.8914 39.2382L99.819 40.3093C99.819 40.3093 105.873 40.1334 108.145 39.3054C108.145 39.3054 108.755 44.2057 112.129 44.4023C114.856 44.5627 118.504 36.9717 119.813 32.3199V32.3251Z" fill="url(#paint3_linear_7399_981)" style="mix-blend-mode:multiply"/>
<path opacity="0.6" d="M120.429 28.8582C120.387 29.1169 120.346 29.3808 120.305 29.6498C120.31 29.2359 120.351 28.9875 120.429 28.8582Z" fill="url(#paint4_linear_7399_981)" style="mix-blend-mode:multiply"/>
<path opacity="0.6" d="M97.3352 29.1531C97.3352 29.1531 107.26 27.1764 108.864 27.4507C110.473 27.7249 110.913 28.3355 110.913 28.3355C110.913 28.3355 111.363 26.747 110.587 26.5762C109.811 26.4054 97.8371 28.9927 97.3352 29.1479V29.1531Z" fill="url(#paint5_linear_7399_981)" style="mix-blend-mode:multiply"/>
<path opacity="0.6" d="M110.68 32.1335C110.308 34.876 109.283 37.8617 107.788 38.5499C106.536 39.1243 100.818 39.2329 99.2499 39.2536L97.77 37.96C98.8049 38.3584 106.862 38.4205 108.636 36.061C110.189 34.0015 110.603 32.4802 110.68 32.1387V32.1335Z" fill="url(#paint6_linear_7399_981)" style="mix-blend-mode:multiply"/>
<path d="M107.627 38.7568C107.4 39.0104 108.046 39.3467 108.046 39.3467C108.046 39.3467 103.286 40.2057 99.7051 40.0453V39.414C99.7051 39.414 105.977 39.1863 107.632 38.762L107.627 38.7568Z" fill="url(#paint7_linear_7399_981)" style="mix-blend-mode:screen"/>
<g opacity="0.3" style="mix-blend-mode:soft-light">
<path d="M100.621 28.8582C94.8566 31.5903 100.3 37.1011 104.962 36.6458C109.625 36.1852 111.575 31.1504 110.018 28.8582C108.46 26.5659 100.621 28.8582 100.621 28.8582Z" fill="#6DE2DB"/>
</g>
<g opacity="0.3" style="mix-blend-mode:soft-light">
<path d="M102.706 28.6822C97.2317 30.426 102.427 34.2602 105.159 34.4724C107.891 34.6846 110.794 31.8334 109.066 29.4894C107.337 27.1453 102.706 28.6822 102.706 28.6822Z" fill="#6DE2DB"/>
</g>
<g opacity="0.6" style="mix-blend-mode:soft-light">
<path d="M90.5929 24.9255C88.4868 29.4738 110.292 25.7482 111.705 26.2294C113.112 26.7158 112.134 35.2899 109.588 38.2291C109.588 38.2291 109.495 42.5808 112.253 43.1293C115.011 43.683 119.368 34.0532 119.813 26.6537C120.258 19.249 118.747 18.7678 118.747 18.7678C118.747 18.7678 91.6536 22.7625 90.5929 24.9255Z" fill="#CEE2DB"/>
</g>
<g opacity="0.6" style="mix-blend-mode:soft-light">
<path d="M94.8826 23.1973C90.6706 24.434 94.2462 27.9474 95.2241 28.1906C96.2021 28.4338 109.004 25.8 111.213 26.2295C113.418 26.659 112.072 32.7856 112.072 32.7856C112.072 32.7856 117.557 33.065 119.301 28.1906C121.05 23.3215 120.31 20.4755 119.301 19.5286C118.292 18.5765 97.1801 22.5246 94.8878 23.1973H94.8826Z" fill="#CEE2DB"/>
</g>
<path d="M103.182 21.1688C103.182 21.1688 106.525 20.4392 107.539 21.1688C108.548 21.8984 107.503 25.9242 106.303 26.5762C105.102 27.2281 103.539 27.5024 103.539 27.5024C103.539 27.5024 110.359 25.8879 111.498 26.4882C111.498 26.4882 110.499 22.8712 113.231 20.8377C115.963 18.8093 119.435 18.5609 119.435 18.5609C119.435 18.5609 116.796 18.1573 103.182 21.1688Z" fill="url(#paint8_linear_7399_981)" style="mix-blend-mode:screen"/>
<path opacity="0.6" d="M99.8138 40.3145C99.8138 40.3145 99.9949 43.445 100.828 44.7231C101.661 46.0064 108.046 45.6959 108.046 45.6959C108.046 45.6959 102.955 46.0116 99.405 46.0685L99.8138 40.3145Z" fill="url(#paint9_linear_7399_981)" style="mix-blend-mode:multiply"/>
<path d="M98.8514 39.5072H98.7376L91.0276 30.2345L91.426 30.1466C95.6277 29.2358 109.413 26.3226 110.375 27.0884C111.198 27.7456 111.208 30.1052 110.944 32.0922L110.929 32.1801C110.582 34.7363 109.578 38.0014 107.896 38.7776C106.655 39.352 101.439 39.4762 99.255 39.502C99.0015 39.502 98.8566 39.502 98.8566 39.502L98.8514 39.5072ZM91.9279 30.545L98.9704 39.0104C99.0377 39.0104 99.1308 39.0104 99.2447 39.0104C102.706 38.9691 106.737 38.7672 107.684 38.3326C109.087 37.6858 110.075 34.7415 110.432 32.1077L110.447 32.0249C110.742 29.805 110.582 27.8957 110.065 27.4817C109.257 27.0419 98.6806 29.0961 91.9279 30.5502V30.545Z" fill="#002801"/>
<path d="M98.6184 28.1905C98.6184 28.1905 110.038 25.8413 111.498 26.4881C112.957 27.1349 111.498 33.0442 111.498 33.0442C111.498 33.0442 113.19 27.7766 112.067 26.2346C111.306 25.1893 98.6184 28.1905 98.6184 28.1905Z" fill="#F5F9F8"/>
<path d="M84.3886 89.948C84.3007 90.4551 80.3681 92.5663 75.6903 94.7499C75.6903 94.7499 75.68 94.7499 75.6748 94.7499C69.8587 97.4717 62.9042 100.297 60.7619 100.297C56.9018 100.297 37.3267 91.0864 37.1353 89.9428C36.9438 88.7992 39.262 82.0569 39.262 82.0569L60.7619 88.8199L82.2671 82.0569C82.2671 82.0569 83.183 84.7373 83.8143 87.0037L83.8401 87.102C84.1972 88.3905 84.4559 89.5288 84.3835 89.9428L84.3886 89.948Z" fill="url(#paint10_linear_7399_981)"/>
<path opacity="0.6" d="M83.8402 87.1071C82.795 85.503 61.0362 93.777 60.4981 94.4704C59.96 95.1638 60.7723 98.7394 61.2639 99.4586C61.74 100.142 74.5468 95.1948 75.6697 94.755C69.8536 97.4768 62.8991 100.302 60.7568 100.302C56.8967 100.302 37.3216 91.0915 37.1301 89.9479C36.9387 88.8044 39.2568 82.062 39.2568 82.062L60.7568 88.8251L82.262 82.062C82.262 82.062 83.1779 84.7424 83.8092 87.0088L83.835 87.1071H83.8402Z" fill="url(#paint11_linear_7399_981)" style="mix-blend-mode:multiply"/>
<path d="M37.6372 90.4396C37.6372 90.4396 57.0053 99.6605 61.5485 99.4276C66.0969 99.1896 82.1585 91.5003 82.1585 91.5003C82.1585 91.5003 65.2845 100.333 61.0724 100.281C56.8604 100.23 38.967 91.6349 37.6372 90.4396Z" fill="#73BFFF"/>
<g opacity="0.3" style="mix-blend-mode:soft-light">
<path d="M61.9262 93.7512C60.2238 97.2492 63.1578 98.1961 63.1578 98.1961C63.1578 98.1961 73.2946 94.8586 77.5583 92.7836C81.8221 90.7086 80.7769 87.5833 80.7769 87.5833L61.9262 93.7461V93.7512Z" fill="#6DE2DB"/>
</g>
<g opacity="0.3" style="mix-blend-mode:soft-light">
<path d="M62.5369 99.2982C60.3171 96.9645 60.8759 94.8171 61.6832 94.1962C62.4904 93.5701 75.9958 88.8096 77.041 89.7151C78.0811 90.6206 74.6711 95.0293 70.8834 96.592C67.0957 98.1547 62.5421 99.3034 62.5421 99.3034L62.5369 99.2982Z" fill="#6DE2DB"/>
</g>
<path d="M60.7776 94.5585C60.5655 95.226 60.8759 98.5169 61.5538 99.4276C62.0609 100.111 61.8694 94.0255 61.8694 94.0255C61.8694 94.0255 61.3468 93.8754 60.7776 94.5533V94.5585Z" fill="url(#paint12_linear_7399_981)" style="mix-blend-mode:screen"/>
<path opacity="0.8" d="M38.2324 85.2289C38.2324 85.2289 40.5402 92.8923 60.0377 94.1911C67.1112 92.7836 83.4885 86.1344 83.4885 86.1344L83.2918 85.2392C83.2918 85.2392 63.1579 93.715 58.8631 93.3994C54.5683 93.0837 38.2324 85.2289 38.2324 85.2289Z" fill="url(#paint13_linear_7399_981)" style="mix-blend-mode:multiply"/>
<path d="M93.1182 69.3795C93.1182 69.3795 102.298 70.0314 105.915 68.7068C109.532 67.3769 112.859 56.2156 112.859 56.2156L93.1182 69.3795Z" fill="#73BFFF"/>
<path d="M105.961 68.2152C103.529 69.1362 93.113 69.3794 93.113 69.3794L96.5023 49.1213C96.5023 49.1213 97.7545 48.9557 99.5811 48.7488C104.161 48.2365 112.341 47.4655 113.371 48.4072C113.682 48.6918 113.852 49.2455 113.894 50.0062C114.168 54.6477 109.847 66.7404 105.961 68.2203V68.2152Z" fill="url(#paint14_linear_7399_981)"/>
<path d="M97.589 54.5132C97.589 54.5132 106.236 53.3696 107.048 54.1096C108.29 55.2428 105.697 62.9579 103.157 63.9204C101.796 64.4378 95.9539 64.5724 95.9539 64.5724L97.589 54.5132Z" fill="url(#paint15_linear_7399_981)"/>
<path d="M97.382 55.0617C97.382 55.0617 105.221 54.0268 105.956 54.6943C107.079 55.7188 104.792 62.4353 102.489 63.315C101.252 63.7859 95.959 63.9049 95.959 63.9049L97.3871 55.0617H97.382Z" fill="url(#paint16_linear_7399_981)"/>
<path opacity="0.6" d="M105.961 68.2152C103.529 69.1362 93.113 69.3794 93.113 69.3794L96.5023 49.1213C96.5023 49.1213 97.7545 48.9558 99.5811 48.7488C96.9525 51.1239 99.3431 53.7525 101.097 53.8612C102.851 53.9647 106.127 53.6231 107.043 54.1095C107.959 54.5908 106.794 58.2698 106.794 58.2698C106.794 58.2698 106.877 57.1987 106.07 55.5481C105.268 53.9026 100.005 55.0461 98.6342 55.8792C97.2578 56.7123 96.5023 63.8893 96.5023 63.8893L96.1401 64.5724C96.1401 64.5724 101.123 65.4158 103.659 63.9048C103.659 63.9048 104.057 67.4028 105.744 67.527C107.431 67.646 110.417 62.0627 112.062 57.3229C113.707 52.5934 113.889 50.001 113.889 50.001C114.163 54.6425 109.842 66.7353 105.956 68.2152H105.961Z" fill="url(#paint17_linear_7399_981)" style="mix-blend-mode:multiply"/>
<g opacity="0.3" style="mix-blend-mode:soft-light">
<path d="M100.176 55.548C96.8851 56.2569 97.0662 61.2555 100.818 61.7936C104.569 62.3266 106.018 57.1831 105.697 55.7343C105.376 54.2854 101.718 55.2168 100.176 55.548Z" fill="#6DE2DB"/>
</g>
<g opacity="0.3" style="mix-blend-mode:soft-light">
<path d="M99.3222 55.6774C96.4608 57.9076 99.7207 60.4069 102.215 60.6087C104.714 60.8105 105.589 57.592 105.697 55.7292C105.806 53.8663 100.595 54.6787 99.3171 55.6774H99.3222Z" fill="#6DE2DB"/>
</g>
<g opacity="0.6" style="mix-blend-mode:soft-light">
<path d="M101.102 49.2972C98.8049 49.6853 98.9342 52.8211 99.6121 53.235C100.29 53.649 105.982 53.4886 107.369 53.8611C108.755 54.2337 107.467 59.2736 106.127 61.8971C104.787 64.5257 108.968 62.8078 110.737 59.5945C112.507 56.3759 114.266 50.6167 112.776 49.3024C111.281 47.9881 101.102 49.3024 101.102 49.3024V49.2972Z" fill="#CEE2DB"/>
</g>
<g opacity="0.6" style="mix-blend-mode:soft-light">
<path d="M100.124 48.8522C97.7649 50.1562 98.4065 52.5158 99.162 53.3178C99.9123 54.1199 104.574 52.9504 106.561 53.856C108.548 54.7615 112.243 53.4782 112.993 49.882C113.744 46.2909 100.124 48.8471 100.124 48.8471V48.8522Z" fill="#CEE2DB"/>
</g>
<path d="M104.528 48.2158C104.528 48.2158 106.023 48.1175 106.613 48.5729C107.203 49.0282 106.722 51.7345 106.023 52.7021C105.325 53.6646 103.772 53.8508 103.772 53.8508C103.772 53.8508 107.358 53.2506 107.4 55.0254C107.4 55.0254 107.405 52.6918 109.211 50.4202C111.017 48.1486 112.859 48.1641 112.859 48.1641C112.859 48.1641 110.08 47.7501 104.528 48.2107V48.2158Z" fill="url(#paint18_linear_7399_981)" style="mix-blend-mode:screen"/>
<path opacity="0.8" d="M98.2927 54.9426C98.2927 54.9426 103.995 54.3579 105.18 54.6994C106.365 55.0409 106.246 55.9154 106.246 55.9154C106.246 55.9154 106.67 54.8339 106.499 54.301C106.329 53.768 101.532 54.3734 98.2927 54.9426Z" fill="url(#paint19_linear_7399_981)" style="mix-blend-mode:multiply"/>
<path d="M96.4246 64.5516L96.6936 63.8841C96.6936 63.8841 100.963 63.8686 102.489 63.3149C102.489 63.3149 102.649 63.8634 102.96 63.9876C102.96 63.9876 100.875 64.6086 96.4246 64.5516Z" fill="url(#paint20_linear_7399_981)" style="mix-blend-mode:screen"/>
<path opacity="0.6" d="M95.4053 64.1636C95.4053 64.1636 94.6653 67.3252 94.9861 68.2773C95.307 69.2242 104.176 68.6188 104.176 68.6188C100.559 69.0949 96.761 69.2242 92.4558 69.3795L95.4104 64.1687L95.4053 64.1636Z" fill="url(#paint21_linear_7399_981)" style="mix-blend-mode:multiply"/>
<path d="M95.6641 64.1584L97.1647 54.8391L97.351 54.8133C99.2138 54.5649 105.366 53.8146 106.122 54.508C106.624 54.9633 106.531 56.0914 106.365 56.9607C105.935 59.2219 104.337 62.8699 102.572 63.5426C101.309 64.0239 96.1764 64.148 95.9591 64.1532H95.6589L95.6641 64.1584ZM97.5942 55.279L96.2437 63.6461C97.3717 63.6099 101.377 63.465 102.396 63.0769C103.814 62.5388 105.408 59.3565 105.879 56.8675C106.106 55.6671 105.982 55.0513 105.785 54.8754C105.382 54.5132 101.335 54.7926 97.5942 55.279Z" fill="#002801"/>
<path d="M101.32 53.8612C101.32 53.8612 107.162 53.3592 107.7 54.0992C108.238 54.8391 106.525 59.0667 106.525 59.0667C106.525 59.0667 107.824 55.4601 107.229 54.4717C106.634 53.4834 101.32 53.8663 101.32 53.8663V53.8612Z" fill="#F5F9F8"/>
<path d="M0.929567 19.8131C-2.14925 24.8841 3.03558 43.7813 7.50116 45.4009C11.9667 47.0257 25.5498 46.1254 25.5498 46.1254L0.929567 19.8131Z" fill="#73BFFF"/>
<path d="M0.981348 28.8581C1.02792 29.1168 1.06414 29.3807 1.10554 29.6498V29.6601C1.24525 30.5346 1.41083 31.4143 1.59711 32.2991C1.59711 32.3095 1.59711 32.3198 1.59711 32.3302C2.80794 38.0169 4.93983 43.564 7.51155 44.7489C10.3834 46.0632 25.555 46.1305 25.555 46.1305L40.1108 26.126C40.1108 26.126 35.8936 25.1066 30.243 23.813C19.2369 21.2982 2.78724 17.7536 1.56089 18.7316C0.36041 19.6889 0.282793 23.9993 0.976173 28.8633L0.981348 28.8581Z" fill="url(#paint22_linear_7399_981)"/>
<path d="M31.4591 30.3897C31.4591 30.3897 10.9578 25.6602 9.91771 26.4881C8.32397 27.7611 10.2747 37.9341 13.2759 39.3105C14.8852 40.0505 22.5124 40.0712 22.5124 40.0712L31.4643 30.3897H31.4591Z" fill="url(#paint23_linear_7399_981)"/>
<path d="M10.7198 32.0559C10.7198 32.0559 10.7198 32.0818 10.7353 32.1335C11.1079 34.876 12.1324 37.8617 13.6278 38.5499C14.8801 39.1242 20.6031 39.2329 22.1657 39.2536C22.4193 39.2588 22.5642 39.2588 22.5642 39.2588L29.9378 30.3897C29.9378 30.3897 12.1428 26.5296 11.1958 27.2799C10.549 27.7921 10.4248 29.8412 10.7198 32.0559Z" fill="url(#paint24_linear_7399_981)"/>
<path opacity="0.6" d="M1.60229 32.3251C2.81312 38.0118 4.94501 43.5589 7.51673 44.7438C10.3886 46.0581 25.5602 46.1254 25.5602 46.1254L40.116 26.1209C40.116 26.1209 35.8988 25.1015 30.2482 23.8079L30.1344 23.8648C33.4461 27.8233 26.7658 28.8478 23.568 28.4183C20.3753 27.9837 11.0095 25.8414 9.91251 26.4831C8.8207 27.1299 9.48821 30.7727 9.48821 30.7727C9.48821 30.7727 9.76763 28.1234 11.4235 27.8181C13.0741 27.5076 22.9419 28.734 24.1682 30.0845C25.3894 31.435 21.9794 35.7661 21.9794 35.7661L21.5241 39.2382L21.5965 40.3093C21.5965 40.3093 15.5424 40.1334 13.2708 39.3054C13.2708 39.3054 12.6602 44.2057 9.2864 44.4023C6.55428 44.5627 2.91144 36.9717 1.60229 32.3199V32.3251Z" fill="url(#paint25_linear_7399_981)" style="mix-blend-mode:multiply"/>
<path opacity="0.6" d="M0.981201 28.8582C1.02777 29.1169 1.06399 29.3808 1.10539 29.6498C1.10539 29.2359 1.05882 28.9875 0.981201 28.8582Z" fill="url(#paint26_linear_7399_981)" style="mix-blend-mode:multiply"/>
<path opacity="0.6" d="M24.0751 29.1531C24.0751 29.1531 14.1505 27.1764 12.5464 27.4507C10.9371 27.7249 10.4973 28.3355 10.4973 28.3355C10.4973 28.3355 10.0471 26.747 10.8233 26.5762C11.5994 26.4054 23.5732 28.9927 24.0751 29.1479V29.1531Z" fill="url(#paint27_linear_7399_981)" style="mix-blend-mode:multiply"/>
<path opacity="0.6" d="M10.7351 32.1335C11.1077 34.876 12.1322 37.8617 13.6276 38.5499C14.8799 39.1243 20.6028 39.2329 22.1655 39.2536V38.1877C21.1358 38.5861 14.5539 38.4205 12.779 36.061C11.2267 34.0015 10.8127 32.4802 10.7351 32.1387V32.1335Z" fill="url(#paint28_linear_7399_981)" style="mix-blend-mode:multiply"/>
<path d="M13.7883 38.7568C14.016 39.0104 13.3691 39.3467 13.3691 39.3467C13.3691 39.3467 18.1297 40.2057 21.7104 40.0453V39.414C21.7104 39.414 15.4389 39.1863 13.7883 38.762V38.7568Z" fill="url(#paint29_linear_7399_981)" style="mix-blend-mode:screen"/>
<g opacity="0.3" style="mix-blend-mode:soft-light">
<path d="M20.7893 28.8582C26.5536 31.5903 21.1101 37.1011 16.4479 36.6458C11.7857 36.1904 9.83489 31.1504 11.3924 28.8582C12.9499 26.5659 20.7841 28.8582 20.7841 28.8582H20.7893Z" fill="#6DE2DB"/>
</g>
<g opacity="0.3" style="mix-blend-mode:soft-light">
<path d="M18.704 28.6822C24.1786 30.426 18.9834 34.2602 16.2513 34.4724C13.5192 34.6846 10.6163 31.8334 12.3446 29.4894C14.0728 27.1453 18.704 28.6822 18.704 28.6822Z" fill="#6DE2DB"/>
</g>
<g opacity="0.6" style="mix-blend-mode:soft-light">
<path d="M30.8226 24.9255C32.9286 29.4738 11.1234 25.7482 9.71074 26.2294C8.30328 26.7158 9.28126 35.2899 11.8219 38.2291C11.8219 38.2291 11.9151 42.5808 9.15707 43.1293C6.39907 43.683 2.04216 34.0532 1.59715 26.6537C1.15215 19.249 2.66309 18.7678 2.66309 18.7678C2.66309 18.7678 29.7567 22.7625 30.8175 24.9255H30.8226Z" fill="#CEE2DB"/>
</g>
<g opacity="0.6" style="mix-blend-mode:soft-light">
<path d="M26.5329 23.1973C30.7449 24.434 27.1693 27.9474 26.1914 28.1906C25.2134 28.4338 12.4117 25.8 10.2074 26.2295C8.00306 26.659 9.34842 32.7856 9.34842 32.7856C9.34842 32.7856 3.86347 33.065 2.11967 28.1906C0.375868 23.3215 1.11064 20.4755 2.11967 19.5286C3.12869 18.5765 24.2406 22.5246 26.5329 23.1973Z" fill="#CEE2DB"/>
</g>
<path d="M18.2329 21.1688C18.2329 21.1688 14.8902 20.4392 13.8812 21.1688C12.8722 21.8984 13.9174 25.9242 15.1179 26.5762C16.3184 27.2281 17.8811 27.5024 17.8811 27.5024C17.8811 27.5024 11.0611 25.8879 9.92272 26.4882C9.92272 26.4882 10.9214 22.8712 8.18926 20.8377C5.45714 18.8093 1.99023 18.5609 1.99023 18.5609C1.99023 18.5609 4.62922 18.1573 18.2433 21.1688H18.2329Z" fill="url(#paint30_linear_7399_981)" style="mix-blend-mode:screen"/>
<path opacity="0.6" d="M21.6017 40.3145C21.6017 40.3145 21.4206 43.445 20.5875 44.7231C19.7545 46.0064 13.3691 45.6959 13.3691 45.6959C13.3691 45.6959 18.4608 46.0116 22.0105 46.0685L21.6017 40.3145Z" fill="url(#paint31_linear_7399_981)" style="mix-blend-mode:multiply"/>
<path d="M22.5589 39.5071C22.5589 39.5071 22.414 39.5071 22.1553 39.5071C19.9716 39.4813 14.7609 39.3571 13.5139 38.7827C11.8322 38.0065 10.8335 34.7363 10.4816 32.1749L10.4661 32.0973C10.197 30.1103 10.2126 27.7507 11.0301 27.0936C11.9926 26.3277 25.7774 29.241 29.9791 30.1517L30.3775 30.2397L22.6676 39.5123H22.5485L22.5589 39.5071ZM10.9629 32.0197L10.9784 32.0921C11.3406 34.7363 12.3289 37.6806 13.726 38.3274C14.673 38.762 18.7039 38.9638 22.1656 39.0052C22.2846 39.0052 22.3778 39.0052 22.4451 39.0052L29.4824 30.5398C22.7296 29.0857 12.153 27.0315 11.3406 27.4765C10.8283 27.8853 10.6679 29.7946 10.9629 32.0145V32.0197Z" fill="#002801"/>
<path d="M22.7969 28.1905C22.7969 28.1905 11.3717 25.8413 9.91246 26.4881C8.45326 27.1349 9.91246 33.0442 9.91246 33.0442C9.91246 33.0442 8.22041 27.7766 9.34327 26.2346C10.1039 25.1893 22.7969 28.1905 22.7969 28.1905Z" fill="#F5F9F8"/>
<path d="M28.2973 69.3795C28.2973 69.3795 19.1178 70.0314 15.5008 68.7068C11.8838 67.3769 8.55664 56.2156 8.55664 56.2156L28.2973 69.3795Z" fill="#73BFFF"/>
<path d="M15.4491 68.2152C17.8811 69.1362 28.2973 69.3794 28.2973 69.3794L24.9081 49.1213C24.9081 49.1213 23.6558 48.9557 21.8292 48.7488C17.2498 48.2365 9.07413 47.4655 8.03924 48.4072C7.72877 48.6918 7.55801 49.2455 7.51661 50.0062C7.24754 54.6477 11.5631 66.7404 15.4491 68.2203V68.2152Z" fill="url(#paint32_linear_7399_981)"/>
<path d="M23.8213 54.5132C23.8213 54.5132 15.1748 53.3696 14.3624 54.1096C13.1205 55.2428 15.7129 62.9579 18.2536 63.9204C19.6145 64.4378 25.4616 64.5724 25.4616 64.5724L23.8265 54.5132H23.8213Z" fill="url(#paint33_linear_7399_981)"/>
<path d="M24.0336 55.0617C24.0336 55.0617 16.1943 54.0268 15.4595 54.6943C14.3366 55.7188 16.6238 62.4353 18.9264 63.315C20.1631 63.7859 25.4566 63.9049 25.4566 63.9049L24.0284 55.0617H24.0336Z" fill="url(#paint34_linear_7399_981)"/>
<path opacity="0.6" d="M15.4491 68.2152C17.8811 69.1362 28.2973 69.3794 28.2973 69.3794L24.9081 49.1213C24.9081 49.1213 23.6558 48.9558 21.8292 48.7488C24.4579 51.1239 22.0673 53.7525 20.3131 53.8612C18.559 53.9647 15.2835 53.6231 14.3676 54.1095C13.4517 54.5908 14.616 58.2698 14.616 58.2698C14.616 58.2698 14.5332 57.1987 15.3404 55.5481C16.1425 53.9026 21.4101 55.0461 22.7762 55.8792C24.1526 56.7123 24.9081 63.8893 24.9081 63.8893L25.2703 64.5724C25.2703 64.5724 20.2872 65.4158 17.7517 63.9048C17.7517 63.9048 17.3585 67.4028 15.6664 67.527C13.9795 67.646 10.9939 62.0627 9.34838 57.3229C7.70289 52.5934 7.51661 50.001 7.51661 50.001C7.24754 54.6425 11.5631 66.7353 15.4491 68.2152Z" fill="url(#paint35_linear_7399_981)" style="mix-blend-mode:multiply"/>
<g opacity="0.3" style="mix-blend-mode:soft-light">
<path d="M21.2341 55.548C24.5251 56.2569 24.3439 61.2555 20.5924 61.7936C16.8409 62.3266 15.3921 57.1831 15.7129 55.7343C16.0337 54.2854 19.6921 55.2168 21.2341 55.548Z" fill="#6DE2DB"/>
</g>
<g opacity="0.3" style="mix-blend-mode:soft-light">
<path d="M22.0932 55.6774C24.9547 57.9076 21.6948 60.4069 19.2007 60.6087C16.7014 60.8105 15.8269 57.592 15.7131 55.7292C15.6044 53.8663 20.8151 54.6787 22.0932 55.6774Z" fill="#6DE2DB"/>
</g>
<g opacity="0.6" style="mix-blend-mode:soft-light">
<path d="M20.3132 49.2972C22.6106 49.6853 22.4813 52.8211 21.8034 53.235C21.1256 53.649 15.4336 53.4886 14.0469 53.8611C12.6601 54.2337 13.9486 59.2736 15.2887 61.8971C16.6289 64.5257 12.448 62.8078 10.6783 59.5945C8.90861 56.3759 7.14928 50.6167 8.63953 49.3024C10.135 47.9881 20.3132 49.3024 20.3132 49.3024V49.2972Z" fill="#CEE2DB"/>
</g>
<g opacity="0.6" style="mix-blend-mode:soft-light">
<path d="M21.2912 48.8522C23.6507 50.1562 23.0091 52.5158 22.2536 53.3178C21.5033 54.1199 16.8411 52.9504 14.8541 53.856C12.8671 54.7615 9.17253 53.4782 8.42223 49.882C7.67193 46.2909 21.2912 48.8471 21.2912 48.8471V48.8522Z" fill="#CEE2DB"/>
</g>
<path d="M16.8876 48.2158C16.8876 48.2158 15.3921 48.1175 14.8022 48.5729C14.2124 49.0282 14.6936 51.7345 15.3921 52.7021C16.0907 53.6646 17.643 53.8508 17.643 53.8508C17.643 53.8508 14.0571 53.2506 14.0157 55.0254C14.0157 55.0254 14.0105 52.6918 12.2047 50.4202C10.3988 48.1486 8.55664 48.1641 8.55664 48.1641C8.55664 48.1641 11.3353 47.7501 16.8876 48.2107V48.2158Z" fill="url(#paint36_linear_7399_981)" style="mix-blend-mode:screen"/>
<path opacity="0.8" d="M23.1176 54.9426C23.1176 54.9426 17.4153 54.3579 16.2304 54.6994C15.0454 55.0409 15.1644 55.9154 15.1644 55.9154C15.1644 55.9154 14.7401 54.8339 14.9109 54.301C15.0816 53.768 19.8784 54.3734 23.1176 54.9426Z" fill="url(#paint37_linear_7399_981)" style="mix-blend-mode:multiply"/>
<path d="M24.9909 64.5516L24.7219 63.8841C24.7219 63.8841 20.4529 63.8686 18.9264 63.3149C18.9264 63.3149 18.7609 63.8634 18.4556 63.9876C18.4556 63.9876 20.5409 64.6086 24.9909 64.5516Z" fill="url(#paint38_linear_7399_981)" style="mix-blend-mode:screen"/>
<path opacity="0.6" d="M26.0051 64.1636C26.0051 64.1636 26.745 67.3252 26.4242 68.2773C26.1034 69.2242 17.2395 68.6188 17.2395 68.6188C20.8565 69.0949 24.6545 69.2242 28.9597 69.3795L26.0051 64.1687V64.1636Z" fill="url(#paint39_linear_7399_981)" style="mix-blend-mode:multiply"/>
<path d="M25.7516 64.1584H25.4514C25.2341 64.148 20.0958 64.0239 18.8384 63.5426C17.0791 62.8699 15.4802 59.2271 15.0456 56.9607C14.88 56.0914 14.7868 54.9633 15.2888 54.508C16.0494 53.8146 22.1967 54.5649 24.0647 54.8133L24.2458 54.8391L25.7464 64.1584H25.7516ZM16.9705 54.7098C16.2409 54.7098 15.7545 54.7615 15.6251 54.8754C15.4285 55.0513 15.3043 55.6671 15.532 56.8675C16.0028 59.3513 17.5914 62.5388 19.0092 63.0769C20.0234 63.465 24.0285 63.6099 25.1617 63.6461L23.8111 55.279C21.2498 54.9478 18.5487 54.7098 16.9653 54.7098H16.9705Z" fill="#002801"/>
<path d="M20.0959 53.8612C20.0959 53.8612 14.2539 53.3592 13.7157 54.0992C13.1776 54.8391 14.8903 59.0667 14.8903 59.0667C14.8903 59.0667 13.5915 55.4601 14.1866 54.4717C14.7817 53.4834 20.0959 53.8663 20.0959 53.8663V53.8612Z" fill="#F5F9F8"/>
<path d="M86.2569 83.3972C86.1741 83.837 83.0021 85.4721 78.8832 87.3194C78.8832 87.3194 78.8522 87.3298 78.7901 87.3557C72.2237 90.2999 63.3236 93.7513 60.7777 93.7513C57.0159 93.7513 39.3812 86.2173 35.8936 83.9301C35.8884 83.9301 35.8833 83.9301 35.8833 83.9301C35.5211 83.6973 35.3193 83.5162 35.2986 83.4075C35.0916 82.264 37.5909 75.5216 37.5909 75.5216L60.7829 82.2795L83.9801 75.5216C83.9801 75.5216 84.8753 77.9484 85.548 80.1321C85.9982 81.5965 86.35 82.947 86.2672 83.4075L86.2569 83.3972Z" fill="url(#paint40_linear_7399_981)"/>
<path opacity="0.6" d="M85.5428 80.1217C84.2647 78.0623 61.3624 84.3648 60.7777 85.4359C60.1878 86.5122 60.0895 92.0437 61.3107 92.763C62.4749 93.446 77.4654 87.8472 78.7953 87.3556C72.2289 90.2999 63.3287 93.7513 60.7829 93.7513C56.6174 93.7513 35.5055 84.5407 35.2986 83.3971C35.0916 82.2536 37.5909 75.5112 37.5909 75.5112L60.7829 82.2691L83.9801 75.5112C83.9801 75.5112 84.8753 77.9381 85.548 80.1217H85.5428Z" fill="url(#paint41_linear_7399_981)" style="mix-blend-mode:multiply"/>
<path opacity="0.8" d="M36.1109 79.8112C35.2934 83.4023 56.2293 85.8964 61.3107 84.3441C66.392 82.7917 84.9167 78.1192 84.9167 78.1192L84.2957 76.4426C84.2957 76.4426 66.1902 83.2367 60.9071 83.2367C55.6239 83.2367 37.0061 77.1308 37.0061 77.1308L36.1058 79.8164L36.1109 79.8112Z" fill="url(#paint42_linear_7399_981)" style="mix-blend-mode:multiply"/>
<g opacity="0.3" style="mix-blend-mode:soft-light">
<path d="M60.7777 85.4359C60.3741 87.873 61.114 92.9854 62.1645 92.7784C63.2149 92.5715 80.0785 87.5884 82.019 85.5963C83.9594 83.6093 83.4264 78.4917 83.4264 78.4917C83.4264 78.4917 63.1321 82.6261 60.7725 85.4359H60.7777Z" fill="#CEE2DB"/>
</g>
<path d="M60.7777 85.4359C60.5655 86.1034 60.4103 92.1783 61.5435 92.2559C62.0713 92.2921 61.9937 85.2238 61.9937 85.2238C61.9937 85.2238 61.3469 84.7529 60.7777 85.4308V85.4359Z" fill="url(#paint43_linear_7399_981)" style="mix-blend-mode:screen"/>
<path d="M86.2568 83.3971C86.174 83.8369 83.0021 85.4721 78.8832 87.3194C78.8832 87.3194 78.8521 87.3297 78.79 87.3556C72.2236 90.2999 63.3235 93.7512 60.7776 93.7512C57.0158 93.7512 39.3812 86.2172 35.8936 83.9301C36.4576 84.1991 54.5579 92.9595 60.9691 92.944C67.4838 92.9233 86.262 83.4023 86.262 83.4023L86.2568 83.3971Z" fill="#73BFFF"/>
<g opacity="0.6" style="mix-blend-mode:soft-light">
<path d="M62.2265 92.7837C60.0066 90.45 61.1864 85.4359 61.9936 84.8098C62.8009 84.1837 77.0203 79.7181 78.0604 80.6236C79.1005 81.5292 74.3555 88.5096 70.5678 90.0723C66.78 91.635 62.2265 92.7837 62.2265 92.7837Z" fill="#CEE2DB"/>
</g>
<path d="M96.6005 61.8298C96.6005 61.8298 96.5953 61.8453 96.585 61.8816C95.5966 65.6693 94.6135 68.6601 93.8477 70.0159C90.7585 75.4749 65.1862 84.3751 60.7775 84.3751C56.3689 84.3751 30.7966 75.4749 27.7126 70.0159C27.0347 68.8154 26.1861 66.3471 25.3168 63.1752C25.3116 63.1597 25.3065 63.1493 25.3065 63.1493C22.2069 51.8534 18.7814 31.704 21.5343 28.5527C25.0633 24.5063 56.3637 5.90401 60.7724 6.30762C65.181 5.90401 96.4867 24.5063 100.01 28.5527C102.66 31.5901 99.5965 50.3528 96.5953 61.835L96.6005 61.8298Z" fill="url(#paint44_linear_7399_981)"/>
<path d="M88.0936 34.167C85.6357 31.3521 63.846 18.3952 60.7775 18.6798C57.709 18.4004 35.9141 31.3521 33.4614 34.167C31.0035 36.9819 35.6088 59.2322 37.7562 63.0303C39.9036 66.8335 57.709 73.0274 60.7775 73.0274C63.846 73.0274 81.6462 66.8335 83.7988 63.0303C85.9462 59.227 90.5515 36.9819 88.0936 34.167Z" fill="url(#paint45_linear_7399_981)"/>
<path d="M85.8324 46.296C85.8324 46.296 85.8324 46.3115 85.8221 46.3477C84.8286 52.733 83.0641 59.7548 81.9774 61.6745C80.0008 65.1777 63.608 70.8851 60.7776 70.8851C57.9471 70.8851 41.5595 65.1828 39.5829 61.6745C38.5842 59.9049 37.0008 53.7886 35.9763 47.838C35.9607 47.7655 35.9556 47.7345 35.9556 47.7345C34.9724 41.9598 34.5119 36.3713 35.6192 35.1036C37.8805 32.5111 57.9523 20.5788 60.7776 20.8427C63.608 20.584 83.6746 32.5111 85.9307 35.1036C86.9449 36.2678 86.6448 41.0646 85.8324 46.3012V46.296Z" fill="url(#paint46_linear_7399_981)"/>
<g opacity="0.6" style="mix-blend-mode:soft-light">
<path d="M21.1721 29.1943C20.5304 32.6354 31.6245 34.5447 31.6245 34.5447C31.6245 34.5447 50.5683 19.8596 59.7892 18.6746C69.0102 17.4896 89.7184 34.0376 89.7184 34.0376C89.7184 34.0376 97.2991 30.5035 97.9303 28.2267C98.5616 25.9551 67.7579 6.85091 60.9276 6.98027C54.0973 7.10446 21.7464 26.0948 21.1721 29.1943Z" fill="#CEE2DB"/>
</g>
<g opacity="0.6" style="mix-blend-mode:soft-light">
<path d="M61.6623 6.38C58.6559 8.49637 60.7981 18.6798 60.7981 18.6798C60.7981 18.6798 77.2375 25.0288 87.602 33.6702C87.602 33.6702 97.7077 28.7907 97.7543 27.7092C97.7957 26.6226 77.1805 12.3151 61.6674 6.38H61.6623Z" fill="#CEE2DB"/>
</g>
<path d="M82.0085 29.717C82.0085 29.717 85.8066 32.2059 88.3939 31.8282C90.9811 31.4505 94.7067 28.3561 94.9603 26.5864C95.2138 24.8168 93.4028 23.5542 93.4028 23.5542C93.4028 23.5542 100.093 27.5541 100.745 30.2862C100.745 30.2862 99.2706 29.6808 97.7441 30.3742C96.2229 31.0675 88.813 36.1644 88.813 36.1644C88.813 36.1644 89.0303 35.3054 88.1144 34.1671C87.1934 33.0287 82.0085 29.717 82.0085 29.717Z" fill="url(#paint47_linear_7399_981)" style="mix-blend-mode:screen"/>
<path d="M65.7555 7.85999C63.9392 7.67371 62.4697 11.6943 63.013 15.2181C63.4425 18.0072 65.7555 20.4599 65.7555 20.4599C65.7555 20.4599 60.5499 17.2103 57.1762 19.8389C57.1762 19.8389 58.4543 14.2712 58.1231 11.4304C57.7919 8.58959 55.4324 8.16011 55.4324 8.16011C55.4324 8.16011 58.3094 6.67503 59.9238 6.37491C61.5383 6.07479 65.7555 7.85482 65.7555 7.85482V7.85999Z" fill="url(#paint48_linear_7399_981)" style="mix-blend-mode:screen"/>
<path d="M26.7656 24.439C26.7656 24.439 24.1784 26.7106 23.8628 27.911C23.5471 29.1115 31.0087 31.497 33.27 31.5746C35.5312 31.647 39.9709 29.4686 39.9709 29.4686C39.9709 29.4686 34.5739 32.713 33.477 34.167C32.3851 35.6158 32.7732 39.7865 32.7732 39.7865C32.7732 39.7865 31.6866 36.3765 30.6155 35.4296C29.5392 34.4826 22.3415 31.766 21.6481 31.766C20.9547 31.766 20.5459 33.4736 20.5459 33.4736C20.5459 33.4736 20.2458 31.171 21.172 29.1995C22.0931 27.2228 26.7656 24.4441 26.7656 24.4441V24.439Z" fill="url(#paint49_linear_7399_981)" style="mix-blend-mode:screen"/>
<path d="M34.8792 32.9355C34.8792 32.9355 54.3922 19.6733 59.7892 18.6798C65.1861 17.6863 86.6913 32.9355 86.6913 32.9355C86.6913 32.9355 67.0955 18.0743 60.5912 17.5879C56.819 17.3033 34.874 32.9355 34.874 32.9355H34.8792Z" fill="#F5F9F8"/>
<path d="M26.7657 24.439C26.7657 24.439 54.77 6.50942 60.9276 6.9803C67.0852 7.45635 94.1944 24.0509 94.1944 24.0509C94.1944 24.0509 67.4837 6.31279 60.7931 6.30762C54.6096 6.30244 26.7605 24.4442 26.7605 24.4442L26.7657 24.439Z" fill="#F5F9F8"/>
<path d="M58.7749 7.27521C57.8953 8.87413 59.8823 10.5817 61.683 10.3903C63.4837 10.1988 66.5263 8.83791 66.5263 8.83791C66.5263 8.83791 63.82 5.67113 58.7697 7.27004L58.7749 7.27521Z" fill="white"/>
<path opacity="0.8" d="M33.089 34.8863C32.0385 37.7375 34.988 39.3054 34.988 39.3054C33.5236 37.1321 46.5685 24.3149 60.7776 23.8078C73.1757 23.3679 86.9398 37.0027 86.5776 39.3054C86.5776 39.3054 88.1403 36.0661 88.0937 34.1671C88.0472 32.2681 65.0466 18.9179 60.7776 18.6799C56.5087 18.4418 33.7306 33.1425 33.089 34.8863Z" fill="url(#paint50_linear_7399_981)" style="mix-blend-mode:multiply"/>
<g opacity="0.3" style="mix-blend-mode:soft-light">
<path d="M41.9217 32.5578C32.0643 43.0516 41.5906 57.7006 57.2641 62.3939C72.9376 67.0871 85.8065 48.816 84.544 38.2083C83.2814 27.6006 56.0015 17.5673 41.9217 32.5578Z" fill="#6DE2DB"/>
</g>
<g opacity="0.3" style="mix-blend-mode:soft-light">
<path d="M59.7529 24.3096C39.6862 29.4272 45.2643 47.7397 56.8862 52.6968C68.5081 57.654 81.1701 50.6736 81.6772 38.3583C82.1843 26.0482 59.7529 24.3044 59.7529 24.3044V24.3096Z" fill="#6DE2DB"/>
</g>
<path opacity="0.5" d="M85.8221 46.3427C84.8286 52.728 83.0641 59.7497 81.9775 61.6695C80.0008 65.1726 63.6081 70.8801 60.7776 70.8801C57.9472 70.8801 41.5596 65.1778 39.5829 61.6695C38.5843 59.8998 37.0009 53.7836 35.9763 47.8329C36.1885 48.8782 37.9737 57.297 39.8365 59.6669C41.8235 62.2024 55.0288 67.0665 61.2692 67.3511C67.5148 67.6305 78.1432 64.5982 81.3255 60.3396C84.3577 56.288 85.6876 47.0153 85.8221 46.3427Z" fill="url(#paint51_linear_7399_981)" style="mix-blend-mode:multiply"/>
<path opacity="0.3" d="M96.5851 61.8763C95.5967 65.6641 94.6136 68.6549 93.8478 70.0106C90.7586 75.4697 65.1863 84.3698 60.7776 84.3698C56.369 84.3698 30.7967 75.4697 27.7127 70.0106C27.0348 68.8102 26.1862 66.3419 25.3169 63.17C25.4566 63.5787 27.397 69.1931 29.0373 70.2228C30.7398 71.2939 37.1406 63.8064 37.1406 63.8064C37.1406 63.8064 51.2204 72.7738 60.7776 73.0274C70.3349 73.2809 83.7989 63.0303 83.7989 63.0303C83.7989 63.0303 88.4301 70.9576 91.2709 70.2228C93.9771 69.5242 96.3677 62.5283 96.5851 61.8763Z" fill="url(#paint52_linear_7399_981)" style="mix-blend-mode:multiply"/>
<path opacity="0.3" d="M31.6246 72.748C30.8018 71.9925 35.8314 66.43 37.1354 65.9901C38.4445 65.5503 58.3353 73.0636 59.0286 73.6949C59.722 74.3262 60.0377 83.9249 60.0377 83.9249C60.0377 83.9249 43.8726 80.7064 31.6194 72.748H31.6246Z" fill="url(#paint53_linear_7399_981)" style="mix-blend-mode:multiply"/>
<path opacity="0.8" d="M49.6833 25.893C49.6833 25.893 57.2484 22.2295 60.9482 22.4209C64.648 22.6124 69.5741 24.6304 69.5741 24.6304C69.5741 24.6304 63.1629 20.3977 60.5912 20.4598C58.0143 20.5219 49.6833 25.893 49.6833 25.893Z" fill="url(#paint54_linear_7399_981)" style="mix-blend-mode:multiply"/>
<path opacity="0.8" d="M40.5454 62.7509C40.5454 62.7509 54.708 69.5243 60.4516 69.7157C66.1953 69.9072 79.3333 63.941 79.3333 63.941C79.3333 63.941 66.1177 70.9058 60.7776 70.88C55.4324 70.8541 41.3216 64.505 40.5454 62.7509Z" fill="url(#paint55_linear_7399_981)" style="mix-blend-mode:multiply"/>
<path d="M60.7775 71.1388C57.8953 71.1388 41.3836 65.3796 39.3552 61.7988C38.3565 60.0343 36.7627 53.9181 35.7227 47.8795C35.7072 47.807 35.702 47.7656 35.702 47.7656C35.0034 43.6623 34.0306 36.5267 35.4277 34.9277C37.6062 32.4336 57.6677 20.2943 60.7982 20.5789C63.8977 20.3098 83.9489 32.4336 86.1221 34.9277C87.3381 36.3249 86.769 41.8978 86.0807 46.3323V46.3633C85.0717 52.7901 83.2969 59.8429 82.1947 61.7937C80.1715 65.3744 63.6545 71.1336 60.7723 71.1336L60.7775 71.1388ZM60.7051 21.086C57.6211 21.086 38.1288 32.6096 35.8106 35.2641C34.9051 36.299 35.0552 40.9405 36.2039 47.688C36.2039 47.6984 36.2091 47.7294 36.2194 47.7812C37.2543 53.7836 38.8222 59.8222 39.795 61.5453C41.694 64.9035 58.004 70.6265 60.7672 70.6265C63.5303 70.6265 79.8507 64.9035 81.7445 61.5453C82.8208 59.6411 84.5698 52.6607 85.5581 46.3064L85.5685 46.2547C86.4895 40.3196 86.5516 36.211 85.7289 35.2641C83.39 32.5785 63.4993 20.8221 60.7879 21.086C60.7568 21.086 60.7258 21.086 60.6947 21.086H60.7051Z" fill="#002801"/>
<path d="M28.3645 70.88C28.3645 70.88 50.4233 84.0491 60.5187 83.9249C70.6193 83.7955 93.1904 70.88 93.1904 70.88C91.5398 73.9019 67.7423 84.0232 60.7775 84.3699C53.8126 84.7166 28.6387 74.0675 28.3645 70.88Z" fill="#73BFFF"/>
<path d="M61.0725 72.7117C62.5421 71.9718 61.9677 71.0248 61.9677 71.0248L72.8703 67.4027C72.8703 67.4027 74.4382 68.3703 76.1665 67.7805C76.1665 67.7805 65.238 72.7428 61.0725 72.7117Z" fill="url(#paint56_linear_7399_981)" style="mix-blend-mode:screen"/>
<path d="M64.5757 14.9284C63.4115 15.9115 66.749 15.9788 67.9495 15.5389C69.15 15.0991 67.7115 12.3359 67.7115 12.3359C67.7115 12.3359 65.2847 14.3281 64.5757 14.9284Z" fill="white"/>
<path d="M69.5638 9.59349C69.7294 10.4214 61.7762 17.3086 60.612 17.1017C59.4477 16.905 52.5242 11.5287 52.0171 9.58314C51.7067 8.40854 59.4529 0 60.6171 0C61.5848 0 67.0594 6.10589 68.9377 8.60517C69.3103 9.10192 69.5431 9.45378 69.569 9.58832L69.5638 9.59349Z" fill="url(#paint57_linear_7399_981)"/>
<path opacity="0.6" d="M69.5638 9.59349C69.7294 10.4214 61.7762 17.3086 60.612 17.1017C59.4477 16.905 52.5242 11.5287 52.0171 9.58314C51.7067 8.40854 59.4529 0 60.6171 0C60.6171 0 58.9665 15.1302 60.4774 16.1185C62.4386 17.3966 68.8394 9.96088 68.9325 8.61034C69.3051 9.10709 69.5379 9.45378 69.5638 9.58832V9.59349Z" fill="url(#paint58_linear_7399_981)" style="mix-blend-mode:multiply"/>
<g opacity="0.6" style="mix-blend-mode:soft-light">
<path d="M61.6675 0.65195C59.5667 0.615729 60.3118 10.9595 61.0259 13.8003C61.7452 16.6411 68.177 9.77457 68.3685 8.92078C68.5599 8.06699 61.6675 0.65195 61.6675 0.65195Z" fill="#CEE2DB"/>
</g>
<g opacity="0.6" style="mix-blend-mode:soft-light">
<path d="M60.7879 0.351807C60.7879 0.351807 59.4167 12.8068 60.5085 14.2763C61.5951 15.7459 65.5743 12.8068 66.6661 9.35023C67.758 5.89368 60.7931 0.351807 60.7931 0.351807H60.7879Z" fill="#CEE2DB"/>
</g>
<path opacity="0.8" d="M52.0171 9.58313C52.0171 9.58313 46.1079 12.7137 45.2075 13.8003C44.3072 14.887 58.5939 17.3242 60.612 17.1017C62.6352 16.8792 65.4449 13.8521 65.4449 13.8521C65.4449 13.8521 62.1126 16.5014 60.5033 16.5946C58.894 16.6929 52.012 9.58313 52.012 9.58313H52.0171Z" fill="url(#paint59_linear_7399_981)" style="mix-blend-mode:multiply"/>
<path d="M60.291 5.98167C62.1073 1.49022 66.221 5.33486 66.221 5.33486C66.221 5.33486 61.0155 -0.150088 60.617 -2.79107e-05C60.2186 0.150032 60.291 5.98167 60.291 5.98167Z" fill="url(#paint60_linear_7399_981)" style="mix-blend-mode:screen"/>
<path d="M62.3402 3.47717C59.1838 3.47717 62.4075 9.58306 62.4075 9.58306C62.4075 9.58306 65.0516 3.47717 62.3402 3.47717Z" fill="url(#paint61_linear_7399_981)" style="mix-blend-mode:screen"/>
<path d="M64.5706 30.5812H56.0017L49.9424 36.6405V55.0772L56.0017 61.1417H64.5706L70.63 55.0772V36.6405L64.5706 30.5812Z" fill="url(#paint62_radial_7399_981)"/>
<mask id="mask0_7399_981" style="mask-type:luminance" maskUnits="userSpaceOnUse" x="49" y="30" width="22" height="32">
<path d="M64.5706 30.5812H56.0017L49.9424 36.6405V55.0772L56.0017 61.1417H64.5706L70.63 55.0772V36.6405L64.5706 30.5812Z" fill="white"/>
</mask>
<g mask="url(#mask0_7399_981)">
<path opacity="0.22" d="M70.6299 55.0772L67.9288 52.9143L63.4529 57.5506L64.3067 61.1417L70.6299 55.0772Z" fill="url(#paint63_radial_7399_981)" style="mix-blend-mode:color-dodge"/>
<path opacity="0.7" d="M49.9423 36.6405L52.6434 38.8086V52.9143L49.9423 55.0772L48.8091 56.138L49.9423 36.6405Z" fill="url(#paint64_radial_7399_981)" style="mix-blend-mode:color-dodge"/>
</g>
<path d="M63.453 34.1722H57.1195L52.6436 38.8086V52.9142L57.1195 57.5506H63.453L67.929 52.9142V38.8086L63.453 34.1722Z" fill="url(#paint65_radial_7399_981)"/>
<mask id="mask1_7399_981" style="mask-type:luminance" maskUnits="userSpaceOnUse" x="52" y="34" width="16" height="24">
<path d="M63.453 34.1722H57.1195L52.6436 38.8086V52.9142L57.1195 57.5506H63.453L67.929 52.9142V38.8086L63.453 34.1722Z" fill="white"/>
</mask>
<g mask="url(#mask1_7399_981)">
<path opacity="0.22" d="M52.6436 38.8086L60.2863 45.3802L52.6436 50.0372V38.8086Z" fill="url(#paint66_radial_7399_981)" style="mix-blend-mode:color-dodge"/>
<path opacity="0.22" d="M68.2289 30.0896L59.4375 35.5901L68.2289 41.3131V30.0896Z" fill="url(#paint67_radial_7399_981)" style="mix-blend-mode:color-dodge"/>
<path opacity="0.55" d="M61.8282 34.1722L59.7273 45.2819L52.4158 50.1355V38.8086L56.8917 34.1722H61.8282Z" fill="url(#paint68_radial_7399_981)" style="mix-blend-mode:color-dodge"/>
<path opacity="0.25" d="M74.1796 43.5432L70.6299 62.3266L58.2681 70.5333L60.2861 45.8614L67.9288 42.3065L74.1796 43.5432Z" fill="url(#paint69_radial_7399_981)" style="mix-blend-mode:color-dodge"/>
</g>
<path opacity="0.7" d="M49.9424 36.6405L52.6435 38.8086L57.1194 34.1723L56.0017 30.5812L49.9424 36.6405Z" fill="url(#paint70_radial_7399_981)" style="mix-blend-mode:color-dodge"/>
<path opacity="0.22" d="M70.6299 36.6405L67.9288 38.8086L63.4529 34.1723L64.5706 30.5812L70.6299 36.6405Z" fill="url(#paint71_radial_7399_981)" style="mix-blend-mode:color-dodge"/>
<g style="mix-blend-mode:color-dodge">
<path d="M49.9424 55.0772C50.3201 54.627 50.7289 54.2131 51.1377 53.794C51.5516 53.3852 51.9708 52.9867 52.4003 52.5987L52.6486 52.371L52.9384 52.6297C53.3368 52.9919 53.7198 53.3696 54.113 53.737L55.2462 54.8806C55.9862 55.6619 56.7158 56.4485 57.404 57.2764L57.1297 57.1625C57.6575 57.1936 58.1853 57.2505 58.7131 57.3074C59.2409 57.3747 59.7687 57.4368 60.2965 57.5455C59.7687 57.6489 59.2409 57.7162 58.7131 57.7835C58.1853 57.8404 57.6575 57.8921 57.1297 57.9284L56.9952 57.9387L56.8555 57.8145C56.0534 57.1005 55.2876 56.3398 54.5373 55.574L53.43 54.3994C53.0729 53.9958 52.7107 53.6025 52.364 53.1885L52.9022 53.2248C52.4313 53.5559 51.9501 53.8819 51.4585 54.1924C50.9618 54.4977 50.4702 54.8082 49.9476 55.0772H49.9424Z" fill="url(#paint72_radial_7399_981)"/>
</g>
<g style="mix-blend-mode:color-dodge" opacity="0.32">
<path d="M56.0018 61.1416C55.8983 60.7794 55.8931 60.4534 55.9087 60.1274C55.9345 59.8066 55.9914 59.4961 56.0846 59.196C56.1777 58.8959 56.3019 58.6061 56.4675 58.3319C56.6383 58.0576 56.8297 57.7886 57.1195 57.5505C57.223 57.9128 57.2281 58.2439 57.2126 58.5647C57.1867 58.8856 57.1298 59.196 57.0315 59.4961C56.9384 59.7963 56.8142 60.086 56.6486 60.3603C56.4778 60.6345 56.2864 60.9036 55.9966 61.1416H56.0018Z" fill="url(#paint73_radial_7399_981)"/>
</g>
<g style="mix-blend-mode:color-dodge">
<path d="M54.8531 36.5215C54.2787 37.4374 53.6164 38.2756 52.9333 39.0932L53.0472 38.8138C53.1403 40.2368 53.1662 41.6597 53.1041 43.0827C53.0782 43.7968 53.0316 44.5057 52.9592 45.2198C52.8868 45.9339 52.7936 46.6428 52.6384 47.3568C52.4883 46.6428 52.3952 45.9339 52.3176 45.2198C52.2451 44.5057 52.1986 43.7968 52.1727 43.0827C52.1158 41.6597 52.1365 40.2368 52.2296 38.8138L52.2399 38.6223L52.3434 38.5292C53.1351 37.8203 53.9475 37.1321 54.8427 36.5215H54.8531Z" fill="url(#paint74_radial_7399_981)"/>
</g>
<path opacity="0.22" d="M62.1231 56.138L64.1877 53.4886L61.0054 54.0785L62.1231 56.138Z" fill="url(#paint75_radial_7399_981)" style="mix-blend-mode:color-dodge"/>
<path opacity="0.22" d="M54.3821 45.2818L56.4467 42.6273L53.2644 43.2172L54.3821 45.2818Z" fill="url(#paint76_radial_7399_981)" style="mix-blend-mode:color-dodge"/>
</g>
<defs>
<linearGradient id="paint0_linear_7399_981" x1="90.1841" y1="62.456" x2="104.818" y2="16.1185" gradientUnits="userSpaceOnUse">
<stop offset="0.22" stop-color="#6FA4BA"/>
<stop offset="0.37" stop-color="#77A9BC"/>
<stop offset="0.6" stop-color="#90B7C3"/>
<stop offset="0.89" stop-color="#B7CECF"/>
<stop offset="1" stop-color="#C8D9D4"/>
</linearGradient>
<linearGradient id="paint1_linear_7399_981" x1="95.1767" y1="48.5017" x2="102.648" y2="24.7767" gradientUnits="userSpaceOnUse">
<stop stop-color="#DAEAE2"/>
<stop offset="0.2" stop-color="#B7D3D4"/>
<stop offset="0.45" stop-color="#90B9C6"/>
<stop offset="0.65" stop-color="#77A9BD"/>
<stop offset="0.78" stop-color="#6FA4BA"/>
</linearGradient>
<linearGradient id="paint2_linear_7399_981" x1="96.3935" y1="46.5496" x2="102.908" y2="25.919" gradientUnits="userSpaceOnUse">
<stop stop-color="#00BA77"/>
<stop offset="1" stop-color="#003D31"/>
</linearGradient>
<linearGradient id="paint3_linear_7399_981" x1="100.554" y1="46.1254" x2="100.554" y2="23.8079" gradientUnits="userSpaceOnUse">
<stop stop-color="#486BB1"/>
<stop offset="0.99" stop-color="#92F9FF"/>
</linearGradient>
<linearGradient id="paint4_linear_7399_981" x1="120.367" y1="29.6498" x2="120.367" y2="28.8582" gradientUnits="userSpaceOnUse">
<stop stop-color="#486BB1"/>
<stop offset="0.99" stop-color="#92F9FF"/>
</linearGradient>
<linearGradient id="paint5_linear_7399_981" x1="104.191" y1="29.1531" x2="104.191" y2="26.5762" gradientUnits="userSpaceOnUse">
<stop stop-color="#92F9FF"/>
<stop offset="1" stop-color="#486BB1"/>
</linearGradient>
<linearGradient id="paint6_linear_7399_981" x1="104.228" y1="39.2536" x2="104.228" y2="32.1335" gradientUnits="userSpaceOnUse">
<stop stop-color="#486BB1"/>
<stop offset="0.99" stop-color="#92F9FF"/>
</linearGradient>
<linearGradient id="paint7_linear_7399_981" x1="99.6999" y1="39.4088" x2="108.046" y2="39.4088" gradientUnits="userSpaceOnUse">
<stop/>
<stop offset="0.99" stop-color="white"/>
</linearGradient>
<linearGradient id="paint8_linear_7399_981" x1="111.306" y1="27.5024" x2="111.306" y2="18.5402" gradientUnits="userSpaceOnUse">
<stop/>
<stop offset="0.99" stop-color="white"/>
</linearGradient>
<linearGradient id="paint9_linear_7399_981" x1="103.726" y1="46.0685" x2="103.726" y2="40.3145" gradientUnits="userSpaceOnUse">
<stop stop-color="#486BB1"/>
<stop offset="0.99" stop-color="#92F9FF"/>
</linearGradient>
<linearGradient id="paint10_linear_7399_981" x1="54.0403" y1="99.5001" x2="66.9765" y2="77.0946" gradientUnits="userSpaceOnUse">
<stop stop-color="#00BA77"/>
<stop offset="1" stop-color="#003D31"/>
</linearGradient>
<linearGradient id="paint11_linear_7399_981" x1="60.4826" y1="100.302" x2="60.4826" y2="82.062" gradientUnits="userSpaceOnUse">
<stop stop-color="#7BE9FF"/>
<stop offset="1" stop-color="#486BB1"/>
</linearGradient>
<linearGradient id="paint12_linear_7399_981" x1="61.3054" y1="99.4794" x2="61.3054" y2="94.01" gradientUnits="userSpaceOnUse">
<stop/>
<stop offset="0.99" stop-color="#07E274"/>
</linearGradient>
<linearGradient id="paint13_linear_7399_981" x1="60.8656" y1="94.1911" x2="60.8656" y2="85.2289" gradientUnits="userSpaceOnUse">
<stop stop-color="#92F9FF"/>
<stop offset="1" stop-color="#486BB1"/>
</linearGradient>
<linearGradient id="paint14_linear_7399_981" x1="94.7792" y1="84.1112" x2="106.251" y2="47.7811" gradientUnits="userSpaceOnUse">
<stop offset="0.22" stop-color="#6FA4BA"/>
<stop offset="0.37" stop-color="#77A9BC"/>
<stop offset="0.6" stop-color="#90B7C3"/>
<stop offset="0.89" stop-color="#B7CECF"/>
<stop offset="1" stop-color="#C8D9D4"/>
</linearGradient>
<linearGradient id="paint15_linear_7399_981" x1="86.6901" y1="72.3087" x2="94.1452" y2="53.2116" gradientUnits="userSpaceOnUse">
<stop stop-color="#DAEAE2"/>
<stop offset="0.2" stop-color="#B7D3D4"/>
<stop offset="0.45" stop-color="#90B9C6"/>
<stop offset="0.65" stop-color="#77A9BD"/>
<stop offset="0.78" stop-color="#6FA4BA"/>
</linearGradient>
<linearGradient id="paint16_linear_7399_981" x1="86.7564" y1="70.7625" x2="93.3675" y2="53.8341" gradientUnits="userSpaceOnUse">
<stop stop-color="#00BA77"/>
<stop offset="1" stop-color="#003D31"/>
</linearGradient>
<linearGradient id="paint17_linear_7399_981" x1="103.514" y1="69.3794" x2="103.514" y2="48.7488" gradientUnits="userSpaceOnUse">
<stop stop-color="#486BB1"/>
<stop offset="0.99" stop-color="#92F9FF"/>
</linearGradient>
<linearGradient id="paint18_linear_7399_981" x1="108.316" y1="55.0306" x2="108.316" y2="47.9985" gradientUnits="userSpaceOnUse">
<stop/>
<stop offset="0.99" stop-color="white"/>
</linearGradient>
<linearGradient id="paint19_linear_7399_981" x1="102.417" y1="55.9154" x2="102.417" y2="54.094" gradientUnits="userSpaceOnUse">
<stop stop-color="#8FD8FF"/>
<stop offset="1" stop-color="#486BB1"/>
</linearGradient>
<linearGradient id="paint20_linear_7399_981" x1="96.4246" y1="63.9307" x2="102.96" y2="63.9307" gradientUnits="userSpaceOnUse">
<stop/>
<stop offset="0.99" stop-color="white"/>
</linearGradient>
<linearGradient id="paint21_linear_7399_981" x1="98.3185" y1="69.3795" x2="98.3185" y2="64.1636" gradientUnits="userSpaceOnUse">
<stop stop-color="#486BB1"/>
<stop offset="0.99" stop-color="#92F9FF"/>
</linearGradient>
<linearGradient id="paint22_linear_7399_981" x1="31.2262" y1="62.456" x2="16.5928" y2="16.1185" gradientUnits="userSpaceOnUse">
<stop offset="0.22" stop-color="#6FA4BA"/>
<stop offset="0.37" stop-color="#77A9BC"/>
<stop offset="0.6" stop-color="#90B7C3"/>
<stop offset="0.89" stop-color="#B7CECF"/>
<stop offset="1" stop-color="#C8D9D4"/>
</linearGradient>
<linearGradient id="paint23_linear_7399_981" x1="34.2386" y1="48.534" x2="26.7007" y2="24.8525" gradientUnits="userSpaceOnUse">
<stop stop-color="#DAEAE2"/>
<stop offset="0.2" stop-color="#B7D3D4"/>
<stop offset="0.45" stop-color="#90B9C6"/>
<stop offset="0.65" stop-color="#77A9BD"/>
<stop offset="0.78" stop-color="#6FA4BA"/>
</linearGradient>
<linearGradient id="paint24_linear_7399_981" x1="25.0169" y1="46.5496" x2="18.5022" y2="25.919" gradientUnits="userSpaceOnUse">
<stop stop-color="#00BA77"/>
<stop offset="1" stop-color="#003D31"/>
</linearGradient>
<linearGradient id="paint25_linear_7399_981" x1="20.8565" y1="6.37496e-05" x2="20.8565" y2="6.37496e-05" gradientUnits="userSpaceOnUse">
<stop stop-color="#486BB1"/>
<stop offset="0.99" stop-color="#92F9FF"/>
</linearGradient>
<linearGradient id="paint26_linear_7399_981" x1="1.04329" y1="29.6498" x2="1.04329" y2="28.8582" gradientUnits="userSpaceOnUse">
<stop stop-color="#486BB1"/>
<stop offset="0.99" stop-color="#92F9FF"/>
</linearGradient>
<linearGradient id="paint27_linear_7399_981" x1="17.2189" y1="6.06887e-05" x2="17.2189" y2="26.5762" gradientUnits="userSpaceOnUse">
<stop stop-color="#92F9FF"/>
<stop offset="1" stop-color="#486BB1"/>
</linearGradient>
<linearGradient id="paint28_linear_7399_981" x1="16.4426" y1="39.2536" x2="16.4426" y2="32.1335" gradientUnits="userSpaceOnUse">
<stop stop-color="#486BB1"/>
<stop offset="0.99" stop-color="#92F9FF"/>
</linearGradient>
<linearGradient id="paint29_linear_7399_981" x1="21.7052" y1="-1.36771e-05" x2="13.364" y2="-1.36771e-05" gradientUnits="userSpaceOnUse">
<stop/>
<stop offset="0.99" stop-color="white"/>
</linearGradient>
<linearGradient id="paint30_linear_7399_981" x1="10.1038" y1="27.5024" x2="10.1038" y2="18.5402" gradientUnits="userSpaceOnUse">
<stop/>
<stop offset="0.99" stop-color="white"/>
</linearGradient>
<linearGradient id="paint31_linear_7399_981" x1="17.6847" y1="46.0685" x2="17.6847" y2="40.3145" gradientUnits="userSpaceOnUse">
<stop stop-color="#486BB1"/>
<stop offset="0.99" stop-color="#92F9FF"/>
</linearGradient>
<linearGradient id="paint32_linear_7399_981" x1="26.6312" y1="84.1164" x2="15.1593" y2="47.7811" gradientUnits="userSpaceOnUse">
<stop offset="0.22" stop-color="#6FA4BA"/>
<stop offset="0.37" stop-color="#77A9BC"/>
<stop offset="0.6" stop-color="#90B7C3"/>
<stop offset="0.89" stop-color="#B7CECF"/>
<stop offset="1" stop-color="#C8D9D4"/>
</linearGradient>
<linearGradient id="paint33_linear_7399_981" x1="28.9768" y1="72.4261" x2="21.4729" y2="53.3631" gradientUnits="userSpaceOnUse">
<stop stop-color="#DAEAE2"/>
<stop offset="0.2" stop-color="#B7D3D4"/>
<stop offset="0.45" stop-color="#90B9C6"/>
<stop offset="0.65" stop-color="#77A9BD"/>
<stop offset="0.78" stop-color="#6FA4BA"/>
</linearGradient>
<linearGradient id="paint34_linear_7399_981" x1="28.9098" y1="70.8749" x2="22.2559" y2="53.9812" gradientUnits="userSpaceOnUse">
<stop stop-color="#00BA77"/>
<stop offset="1" stop-color="#003D31"/>
</linearGradient>
<linearGradient id="paint35_linear_7399_981" x1="17.8966" y1="69.3794" x2="17.8966" y2="48.7488" gradientUnits="userSpaceOnUse">
<stop stop-color="#486BB1"/>
<stop offset="0.99" stop-color="#92F9FF"/>
</linearGradient>
<linearGradient id="paint36_linear_7399_981" x1="13.0947" y1="55.0306" x2="13.0947" y2="47.9985" gradientUnits="userSpaceOnUse">
<stop/>
<stop offset="0.99" stop-color="white"/>
</linearGradient>
<linearGradient id="paint37_linear_7399_981" x1="18.9935" y1="8.82192e-06" x2="18.9935" y2="54.094" gradientUnits="userSpaceOnUse">
<stop stop-color="#8FD8FF"/>
<stop offset="1" stop-color="#486BB1"/>
</linearGradient>
<linearGradient id="paint38_linear_7399_981" x1="24.9858" y1="63.9307" x2="18.4504" y2="63.9307" gradientUnits="userSpaceOnUse">
<stop/>
<stop offset="0.99" stop-color="white"/>
</linearGradient>
<linearGradient id="paint39_linear_7399_981" x1="23.097" y1="69.3795" x2="23.097" y2="64.1636" gradientUnits="userSpaceOnUse">
<stop stop-color="#486BB1"/>
<stop offset="0.99" stop-color="#92F9FF"/>
</linearGradient>
<linearGradient id="paint40_linear_7399_981" x1="53.6938" y1="93.7203" x2="67.3752" y2="70.016" gradientUnits="userSpaceOnUse">
<stop offset="0.22" stop-color="#6FA4BA"/>
<stop offset="0.37" stop-color="#77A9BC"/>
<stop offset="0.6" stop-color="#90B7C3"/>
<stop offset="0.89" stop-color="#B7CECF"/>
<stop offset="1" stop-color="#C8D9D4"/>
</linearGradient>
<linearGradient id="paint41_linear_7399_981" x1="60.4103" y1="93.7513" x2="60.4103" y2="75.5164" gradientUnits="userSpaceOnUse">
<stop stop-color="#7BE9FF"/>
<stop offset="1" stop-color="#486BB1"/>
</linearGradient>
<linearGradient id="paint42_linear_7399_981" x1="60.4983" y1="84.8098" x2="60.4983" y2="76.4375" gradientUnits="userSpaceOnUse">
<stop stop-color="#92F9FF"/>
<stop offset="1" stop-color="#486BB1"/>
</linearGradient>
<linearGradient id="paint43_linear_7399_981" x1="61.3106" y1="92.2611" x2="61.3106" y2="85.0685" gradientUnits="userSpaceOnUse">
<stop/>
<stop offset="0.99" stop-color="white"/>
</linearGradient>
<linearGradient id="paint44_linear_7399_981" x1="41.2128" y1="77.7828" x2="73.7448" y2="21.4326" gradientUnits="userSpaceOnUse">
<stop offset="0.22" stop-color="#6FA4BA"/>
<stop offset="0.37" stop-color="#77A9BC"/>
<stop offset="0.6" stop-color="#90B7C3"/>
<stop offset="0.89" stop-color="#B7CECF"/>
<stop offset="1" stop-color="#C8D9D4"/>
</linearGradient>
<linearGradient id="paint45_linear_7399_981" x1="47.1583" y1="68.4428" x2="69.807" y2="29.215" gradientUnits="userSpaceOnUse">
<stop stop-color="#DAEAE2"/>
<stop offset="0.2" stop-color="#B7D3D4"/>
<stop offset="0.45" stop-color="#90B9C6"/>
<stop offset="0.65" stop-color="#77A9BD"/>
<stop offset="0.78" stop-color="#6FA4BA"/>
</linearGradient>
<linearGradient id="paint46_linear_7399_981" x1="48.2346" y1="66.6524" x2="69.0878" y2="30.5345" gradientUnits="userSpaceOnUse">
<stop stop-color="#00BA77"/>
<stop offset="1" stop-color="#003D31"/>
</linearGradient>
<linearGradient id="paint47_linear_7399_981" x1="82.0085" y1="29.8619" x2="100.751" y2="29.8619" gradientUnits="userSpaceOnUse">
<stop/>
<stop offset="0.99" stop-color="white"/>
</linearGradient>
<linearGradient id="paint48_linear_7399_981" x1="60.5965" y1="20.4599" x2="60.5965" y2="6.34387" gradientUnits="userSpaceOnUse">
<stop/>
<stop offset="0.99" stop-color="white"/>
</linearGradient>
<linearGradient id="paint49_linear_7399_981" x1="30.2377" y1="39.7865" x2="30.2377" y2="24.439" gradientUnits="userSpaceOnUse">
<stop/>
<stop offset="0.99" stop-color="white"/>
</linearGradient>
<linearGradient id="paint50_linear_7399_981" x1="60.4775" y1="39.0156" x2="60.4775" y2="21.0032" gradientUnits="userSpaceOnUse">
<stop stop-color="#8FD8FF"/>
<stop offset="1" stop-color="#486BB1"/>
</linearGradient>
<linearGradient id="paint51_linear_7399_981" x1="60.8966" y1="70.8801" x2="60.8966" y2="46.3427" gradientUnits="userSpaceOnUse">
<stop stop-color="#486BB1"/>
<stop offset="1" stop-color="#8FD8FF"/>
</linearGradient>
<linearGradient id="paint52_linear_7399_981" x1="60.9484" y1="84.3698" x2="60.9484" y2="61.8763" gradientUnits="userSpaceOnUse">
<stop stop-color="#486BB1"/>
<stop offset="0.99" stop-color="#92F9FF"/>
</linearGradient>
<linearGradient id="paint53_linear_7399_981" x1="45.7871" y1="83.9249" x2="45.7871" y2="65.9694" gradientUnits="userSpaceOnUse">
<stop stop-color="#486BB1"/>
<stop offset="0.99" stop-color="#92F9FF"/>
</linearGradient>
<linearGradient id="paint54_linear_7399_981" x1="59.6287" y1="26.3846" x2="59.6287" y2="20.822" gradientUnits="userSpaceOnUse">
<stop stop-color="#8FD8FF"/>
<stop offset="1" stop-color="#486BB1"/>
</linearGradient>
<linearGradient id="paint55_linear_7399_981" x1="59.9394" y1="71.6199" x2="59.9394" y2="63.2942" gradientUnits="userSpaceOnUse">
<stop stop-color="#486BB1"/>
<stop offset="1" stop-color="#8FD8FF"/>
</linearGradient>
<linearGradient id="paint56_linear_7399_981" x1="68.6169" y1="72.6393" x2="68.6169" y2="68.003" gradientUnits="userSpaceOnUse">
<stop/>
<stop offset="0.99" stop-color="#FFFFC7"/>
</linearGradient>
<linearGradient id="paint57_linear_7399_981" x1="57.5073" y1="15.1561" x2="64.0375" y2="3.85499" gradientUnits="userSpaceOnUse">
<stop stop-color="#84BFCB"/>
<stop offset="0.22" stop-color="#8CC3CC"/>
<stop offset="0.59" stop-color="#A5CFCF"/>
<stop offset="1" stop-color="#C8E0D4"/>
</linearGradient>
<linearGradient id="paint58_linear_7399_981" x1="57.5073" y1="15.1612" x2="64.0064" y2="3.90156" gradientUnits="userSpaceOnUse">
<stop stop-color="#8CE2FF"/>
<stop offset="1" stop-color="#486BB1"/>
</linearGradient>
<linearGradient id="paint59_linear_7399_981" x1="45.1713" y1="13.3502" x2="65.4501" y2="13.3502" gradientUnits="userSpaceOnUse">
<stop stop-color="#8FD8FF"/>
<stop offset="1" stop-color="#486BB1"/>
</linearGradient>
<linearGradient id="paint60_linear_7399_981" x1="63.256" y1="5.98168" x2="63.256" y2="-2.76087e-05" gradientUnits="userSpaceOnUse">
<stop/>
<stop offset="0.99" stop-color="white"/>
</linearGradient>
<linearGradient id="paint61_linear_7399_981" x1="62.2574" y1="9.58306" x2="62.2574" y2="3.47717" gradientUnits="userSpaceOnUse">
<stop/>
<stop offset="0.99" stop-color="white"/>
</linearGradient>
<radialGradient id="paint62_radial_7399_981" cx="0" cy="0" r="1" gradientUnits="userSpaceOnUse" gradientTransform="translate(60.2862 45.7933) scale(13.05 18.4006)">
<stop offset="0.13" stop-color="#00996D"/>
<stop offset="0.17" stop-color="#009167"/>
<stop offset="0.34" stop-color="#007756"/>
<stop offset="0.5" stop-color="#00644A"/>
<stop offset="0.68" stop-color="#005943"/>
<stop offset="0.87" stop-color="#005641"/>
</radialGradient>
<radialGradient id="paint63_radial_7399_981" cx="0" cy="0" r="1" gradientUnits="userSpaceOnUse" gradientTransform="translate(67.0388 57.028) rotate(180) scale(3.86017)">
<stop stop-color="#9CDFEB"/>
<stop offset="0.34" stop-color="#9ADCE9"/>
<stop offset="0.55" stop-color="#93D4E2"/>
<stop offset="0.71" stop-color="#88C5D7"/>
<stop offset="0.86" stop-color="#78B2C7"/>
<stop offset="0.99" stop-color="#6498B3"/>
<stop offset="1" stop-color="#6397B2"/>
</radialGradient>
<radialGradient id="paint64_radial_7399_981" cx="0" cy="0" r="1" gradientUnits="userSpaceOnUse" gradientTransform="translate(50.7288 46.3202) scale(7.02695 9.908)">
<stop stop-color="#9CDFEB"/>
<stop offset="0.34" stop-color="#9ADCE9"/>
<stop offset="0.55" stop-color="#93D4E2"/>
<stop offset="0.71" stop-color="#88C5D7"/>
<stop offset="0.86" stop-color="#78B2C7"/>
<stop offset="0.99" stop-color="#6498B3"/>
<stop offset="1" stop-color="#6397B2"/>
</radialGradient>
<radialGradient id="paint65_radial_7399_981" cx="0" cy="0" r="1" gradientUnits="userSpaceOnUse" gradientTransform="translate(60.2863 45.7342) scale(14.0022 20.4431)">
<stop offset="0.13" stop-color="#00996D"/>
<stop offset="0.46" stop-color="#007D5A"/>
<stop offset="0.87" stop-color="#005641"/>
</radialGradient>
<radialGradient id="paint66_radial_7399_981" cx="0" cy="0" r="1" gradientUnits="userSpaceOnUse" gradientTransform="translate(56.4675 44.4229) scale(4.80192)">
<stop stop-color="#9CDFEB"/>
<stop offset="0.34" stop-color="#9ADCE9"/>
<stop offset="0.55" stop-color="#93D4E2"/>
<stop offset="0.71" stop-color="#88C5D7"/>
<stop offset="0.86" stop-color="#78B2C7"/>
<stop offset="0.99" stop-color="#6498B3"/>
<stop offset="1" stop-color="#6397B2"/>
</radialGradient>
<radialGradient id="paint67_radial_7399_981" cx="0" cy="0" r="1" gradientUnits="userSpaceOnUse" gradientTransform="translate(63.8306 35.7039) rotate(180) scale(5.03995 5.03995)">
<stop stop-color="#9CDFEB"/>
<stop offset="0.34" stop-color="#9ADCE9"/>
<stop offset="0.55" stop-color="#93D4E2"/>
<stop offset="0.71" stop-color="#88C5D7"/>
<stop offset="0.86" stop-color="#78B2C7"/>
<stop offset="0.99" stop-color="#6498B3"/>
<stop offset="1" stop-color="#6397B2"/>
</radialGradient>
<radialGradient id="paint68_radial_7399_981" cx="0" cy="0" r="1" gradientUnits="userSpaceOnUse" gradientTransform="translate(45.751 26.157) scale(20.5272 20.5272)">
<stop stop-color="#9CDFEB"/>
<stop offset="0.34" stop-color="#9ADCE9"/>
<stop offset="0.55" stop-color="#93D4E2"/>
<stop offset="0.71" stop-color="#88C5D7"/>
<stop offset="0.86" stop-color="#78B2C7"/>
<stop offset="0.99" stop-color="#6498B3"/>
<stop offset="1" stop-color="#6397B2"/>
</radialGradient>
<radialGradient id="paint69_radial_7399_981" cx="0" cy="0" r="1" gradientUnits="userSpaceOnUse" gradientTransform="translate(66.2212 56.4225) rotate(180) scale(11.4563 11.4563)">
<stop stop-color="#9CDFEB"/>
<stop offset="0.34" stop-color="#9ADCE9"/>
<stop offset="0.55" stop-color="#93D4E2"/>
<stop offset="0.71" stop-color="#88C5D7"/>
<stop offset="0.86" stop-color="#78B2C7"/>
<stop offset="0.99" stop-color="#6498B3"/>
<stop offset="1" stop-color="#6397B2"/>
</radialGradient>
<radialGradient id="paint70_radial_7399_981" cx="0" cy="0" r="1" gradientUnits="userSpaceOnUse" gradientTransform="translate(53.5335 34.6434) scale(5.60914 7.90889)">
<stop stop-color="#9CDFEB"/>
<stop offset="0.34" stop-color="#9ADCE9"/>
<stop offset="0.55" stop-color="#93D4E2"/>
<stop offset="0.71" stop-color="#88C5D7"/>
<stop offset="0.86" stop-color="#78B2C7"/>
<stop offset="0.99" stop-color="#6498B3"/>
<stop offset="1" stop-color="#6397B2"/>
</radialGradient>
<radialGradient id="paint71_radial_7399_981" cx="0" cy="0" r="1" gradientUnits="userSpaceOnUse" gradientTransform="translate(67.044 34.6434) rotate(180) scale(5.60914 7.90889)">
<stop stop-color="#9CDFEB"/>
<stop offset="0.34" stop-color="#9ADCE9"/>
<stop offset="0.55" stop-color="#93D4E2"/>
<stop offset="0.71" stop-color="#88C5D7"/>
<stop offset="0.86" stop-color="#78B2C7"/>
<stop offset="0.99" stop-color="#6498B3"/>
<stop offset="1" stop-color="#6397B2"/>
</radialGradient>
<radialGradient id="paint72_radial_7399_981" cx="0" cy="0" r="1" gradientUnits="userSpaceOnUse" gradientTransform="translate(54.9565 53.9954) scale(4.28965 6.26289)">
<stop stop-color="#9CDFEB"/>
<stop offset="0.34" stop-color="#9ADCE9"/>
<stop offset="0.55" stop-color="#93D4E2"/>
<stop offset="0.71" stop-color="#88C5D7"/>
<stop offset="0.86" stop-color="#78B2C7"/>
<stop offset="0.99" stop-color="#6498B3"/>
<stop offset="1" stop-color="#6397B2"/>
</radialGradient>
<radialGradient id="paint73_radial_7399_981" cx="0" cy="0" r="1" gradientUnits="userSpaceOnUse" gradientTransform="translate(56.5606 58.1882) scale(1.55752 2.27398)">
<stop stop-color="#9CDFEB"/>
<stop offset="0.34" stop-color="#9ADCE9"/>
<stop offset="0.55" stop-color="#93D4E2"/>
<stop offset="0.71" stop-color="#88C5D7"/>
<stop offset="0.86" stop-color="#78B2C7"/>
<stop offset="0.99" stop-color="#6498B3"/>
<stop offset="1" stop-color="#6397B2"/>
</radialGradient>
<radialGradient id="paint74_radial_7399_981" cx="0" cy="0" r="1" gradientUnits="userSpaceOnUse" gradientTransform="translate(53.6785 41.7632) scale(4.09819 4.09819)">
<stop stop-color="#9CDFEB"/>
<stop offset="0.34" stop-color="#9ADCE9"/>
<stop offset="0.55" stop-color="#93D4E2"/>
<stop offset="0.71" stop-color="#88C5D7"/>
<stop offset="0.86" stop-color="#78B2C7"/>
<stop offset="0.99" stop-color="#6498B3"/>
<stop offset="1" stop-color="#6397B2"/>
</radialGradient>
<radialGradient id="paint75_radial_7399_981" cx="0" cy="0" r="1" gradientUnits="userSpaceOnUse" gradientTransform="translate(62.5939 54.8133) scale(1.46438 1.46438)">
<stop stop-color="#9CDFEB"/>
<stop offset="0.34" stop-color="#9ADCE9"/>
<stop offset="0.55" stop-color="#93D4E2"/>
<stop offset="0.71" stop-color="#88C5D7"/>
<stop offset="0.86" stop-color="#78B2C7"/>
<stop offset="0.99" stop-color="#6498B3"/>
<stop offset="1" stop-color="#6397B2"/>
</radialGradient>
<radialGradient id="paint76_radial_7399_981" cx="0" cy="0" r="1" gradientUnits="userSpaceOnUse" gradientTransform="translate(54.853 43.952) scale(1.46438 1.46438)">
<stop stop-color="#9CDFEB"/>
<stop offset="0.34" stop-color="#9ADCE9"/>
<stop offset="0.55" stop-color="#93D4E2"/>
<stop offset="0.71" stop-color="#88C5D7"/>
<stop offset="0.86" stop-color="#78B2C7"/>
<stop offset="0.99" stop-color="#6498B3"/>
<stop offset="1" stop-color="#6397B2"/>
</radialGradient>
<clipPath id="clip0_7399_981">
<rect width="121.248" height="100.302" fill="white"/>
</clipPath>
</defs>
</svg>
