<svg width="125" height="101" viewBox="0 0 125 101" fill="none" xmlns="http://www.w3.org/2000/svg">
<g clip-path="url(#clip0_7399_1407)">
<path d="M98.8171 40.5316C98.8171 40.5316 114.351 41.7425 118.459 38.9638C122.563 36.1851 126.94 20.6099 124.089 13.0862L98.8223 40.5316H98.8171Z" fill="#73BFFF"/>
<path d="M124.151 22.7263C124.11 22.9953 124.069 23.2644 124.022 23.5438V23.5542C123.877 24.4545 123.706 25.3652 123.515 26.2708C123.515 26.2811 123.515 26.2915 123.515 26.3018C122.268 32.1645 120.069 37.8823 117.419 39.1035C114.46 40.4592 98.817 40.5265 98.817 40.5265L83.811 19.9062C83.811 19.9062 88.1628 18.8557 93.9841 17.5207C105.332 14.9283 122.288 11.27 123.551 12.279C124.788 13.2673 124.871 17.707 124.151 22.7211V22.7263Z" fill="url(#paint0_linear_7399_1407)"/>
<path d="M92.7371 24.3097C92.7371 24.3097 113.87 19.4353 114.946 20.2891C116.591 21.5982 114.579 32.0921 111.484 33.5099C109.823 34.2705 101.963 34.2912 101.963 34.2912L92.7371 24.3097Z" fill="url(#paint1_linear_7399_1407)"/>
<path d="M114.113 26.0276C114.113 26.0276 114.113 26.0535 114.097 26.1052C113.714 28.9357 112.659 32.0093 111.117 32.7182C109.828 33.3133 103.929 33.4219 102.315 33.4426C102.056 33.4478 101.906 33.4478 101.906 33.4478L94.3049 24.3045C94.3049 24.3045 112.654 20.3253 113.626 21.1015C114.289 21.6293 114.423 23.7405 114.118 26.0276H114.113Z" fill="url(#paint2_linear_7399_1407)"/>
<path opacity="0.6" d="M123.515 26.3019C122.268 32.1645 120.069 37.8823 117.419 39.1035C114.46 40.4592 98.817 40.5265 98.817 40.5265L83.811 19.9062C83.811 19.9062 88.1628 18.8558 93.9841 17.5208L94.0979 17.5828C90.6828 21.6603 97.57 22.7211 100.866 22.2761C104.157 21.8259 113.813 19.6164 114.946 20.2839C116.069 20.9514 115.381 24.7081 115.381 24.7081C115.381 24.7081 115.091 21.9812 113.388 21.6655C111.686 21.3447 101.518 22.6124 100.25 23.9992C98.993 25.3911 102.506 29.8567 102.506 29.8567L102.977 33.4323L102.905 34.5396C102.905 34.5396 109.15 34.3585 111.489 33.5047C111.489 33.5047 112.121 38.555 115.598 38.7568C118.413 38.9224 122.169 31.0986 123.52 26.3019H123.515Z" fill="url(#paint3_linear_7399_1407)" style="mix-blend-mode:multiply"/>
<path opacity="0.6" d="M124.151 22.7263C124.11 22.9954 124.069 23.2645 124.022 23.5439C124.027 23.1196 124.074 22.8609 124.151 22.7263Z" fill="url(#paint4_linear_7399_1407)" style="mix-blend-mode:multiply"/>
<path opacity="0.6" d="M100.344 23.0367C100.344 23.0367 110.573 21.0032 112.229 21.2826C113.885 21.5672 114.34 22.1933 114.34 22.1933C114.34 22.1933 114.806 20.5582 114.004 20.3822C113.202 20.2063 100.861 22.8763 100.344 23.0316V23.0367Z" fill="url(#paint5_linear_7399_1407)" style="mix-blend-mode:multiply"/>
<path opacity="0.6" d="M114.097 26.1104C113.714 28.9408 112.659 32.0145 111.117 32.7234C109.828 33.3185 103.929 33.4271 102.315 33.4478L100.789 32.1128C101.855 32.5216 110.16 32.5889 111.991 30.1517C113.59 28.025 114.015 26.4623 114.097 26.1052V26.1104Z" fill="url(#paint6_linear_7399_1407)" style="mix-blend-mode:multiply"/>
<path d="M110.951 32.9355C110.713 33.1943 111.381 33.541 111.381 33.541C111.381 33.541 106.475 34.4258 102.781 34.2602V33.6082C102.781 33.6082 109.249 33.3702 110.951 32.9355Z" fill="url(#paint7_linear_7399_1407)" style="mix-blend-mode:screen"/>
<g opacity="0.3" style="mix-blend-mode:soft-light">
<path d="M103.733 22.7263C97.7874 25.5412 103.402 31.228 108.209 30.7519C113.016 30.2759 115.024 25.091 113.42 22.7263C111.815 20.3667 103.733 22.7263 103.733 22.7263Z" fill="#6DE2DB"/>
</g>
<g opacity="0.3" style="mix-blend-mode:soft-light">
<path d="M105.88 22.5504C100.235 24.3459 105.59 28.2993 108.41 28.5166C111.225 28.7339 114.221 25.7948 112.441 23.3835C110.661 20.967 105.885 22.5504 105.885 22.5504H105.88Z" fill="#6DE2DB"/>
</g>
<g opacity="0.6" style="mix-blend-mode:soft-light">
<path d="M93.3889 18.6799C91.2208 23.368 113.699 19.5233 115.153 20.0253C116.607 20.5272 115.593 29.3652 112.974 32.3975C112.974 32.3975 112.881 36.8837 115.722 37.4478C118.563 38.0169 123.054 28.0923 123.515 20.4599C123.97 12.8276 122.418 12.3308 122.418 12.3308C122.418 12.3308 94.4911 16.4497 93.3941 18.6747L93.3889 18.6799Z" fill="#CEE2DB"/>
</g>
<g opacity="0.6" style="mix-blend-mode:soft-light">
<path d="M97.8133 16.8947C93.4667 18.1676 97.1561 21.7897 98.1651 22.0433C99.1742 22.2968 112.374 19.5802 114.646 20.0201C116.917 20.4599 115.531 26.7779 115.531 26.7779C115.531 26.7779 121.181 27.0625 122.982 22.0433C124.783 17.024 124.022 14.0901 122.982 13.1121C121.942 12.129 100.173 16.2013 97.8133 16.8947Z" fill="#CEE2DB"/>
</g>
<path d="M106.367 14.799C106.367 14.799 109.813 14.0487 110.858 14.799C111.898 15.5493 110.817 19.6992 109.585 20.3719C108.349 21.0446 106.739 21.3292 106.739 21.3292C106.739 21.3292 113.771 19.6682 114.946 20.2839C114.946 20.2839 113.916 16.5531 116.736 14.4626C119.556 12.3722 123.132 12.1134 123.132 12.1134C123.132 12.1134 120.41 11.6943 106.377 14.799H106.367Z" fill="url(#paint8_linear_7399_1407)" style="mix-blend-mode:screen"/>
<path opacity="0.6" d="M102.894 34.5397C102.894 34.5397 103.081 37.7686 103.94 39.088C104.799 40.4075 111.381 40.0919 111.381 40.0919C111.381 40.0919 106.134 40.4179 102.475 40.4748L102.894 34.5448V34.5397Z" fill="url(#paint9_linear_7399_1407)" style="mix-blend-mode:multiply"/>
<path d="M101.906 33.7066H101.787L93.8391 24.1493L94.2479 24.0613C98.5789 23.1196 112.788 20.1184 113.782 20.9049C114.63 21.5827 114.641 24.0147 114.366 26.0638L114.351 26.157C113.994 28.7908 112.959 32.1594 111.225 32.9563C109.942 33.5461 104.571 33.6755 102.32 33.7066C102.061 33.7066 101.911 33.7066 101.906 33.7066ZM94.7705 24.4701L102.03 33.1943C102.098 33.1943 102.196 33.1943 102.315 33.1943C105.88 33.1477 110.04 32.9407 111.018 32.4957C112.462 31.8282 113.481 28.7908 113.854 26.0794L113.87 25.9966C114.175 23.7095 114.009 21.738 113.471 21.3137C112.638 20.8583 101.735 22.9798 94.7757 24.4804L94.7705 24.4701Z" fill="#002801"/>
<path d="M101.663 22.0432C101.663 22.0432 113.44 19.6216 114.941 20.2891C116.446 20.9566 114.941 27.0521 114.941 27.0521C114.941 27.0521 116.684 21.6241 115.525 20.0303C114.744 18.9541 101.658 22.0484 101.658 22.0484L101.663 22.0432Z" fill="#F5F9F8"/>
<path d="M86.2588 89.948C86.1708 90.4551 82.2382 92.5663 77.5605 94.7499C77.5605 94.7499 77.5501 94.7499 77.5449 94.7499C71.7288 97.4717 64.7743 100.297 62.6321 100.297C58.7719 100.297 39.1968 91.0864 39.0054 89.9428C38.8139 88.7992 41.1321 82.0569 41.1321 82.0569L62.6321 88.8199L84.1372 82.0569C84.1372 82.0569 85.0531 84.7373 85.6844 87.0037L85.7103 87.102C86.0673 88.3905 86.326 89.5288 86.2536 89.9428L86.2588 89.948Z" fill="url(#paint10_linear_7399_1407)"/>
<path opacity="0.6" d="M85.7154 87.1071C84.6702 85.503 62.9115 93.777 62.3733 94.4704C61.8352 95.1638 62.6476 98.7394 63.1392 99.4586C63.6152 100.142 76.4221 95.1948 77.5449 94.755C71.7288 97.4768 64.7743 100.302 62.6321 100.302C58.7719 100.302 39.1968 91.0915 39.0054 89.9479C38.8139 88.8044 41.1321 82.062 41.1321 82.062L62.6321 88.8251L84.1372 82.062C84.1372 82.062 85.0531 84.7424 85.6844 87.0088L85.7103 87.1071H85.7154Z" fill="url(#paint11_linear_7399_1407)" style="mix-blend-mode:multiply"/>
<path d="M39.5073 90.4396C39.5073 90.4396 58.8754 99.6605 63.4186 99.4276C67.967 99.1896 84.0286 91.5003 84.0286 91.5003C84.0286 91.5003 67.1546 100.333 62.9426 100.281C58.7305 100.23 40.8372 91.6349 39.5073 90.4396Z" fill="#73BFFF"/>
<g opacity="0.3" style="mix-blend-mode:soft-light">
<path d="M63.7963 93.7512C62.0939 97.2492 65.0279 98.1961 65.0279 98.1961C65.0279 98.1961 75.1647 94.8586 79.4285 92.7836C83.6922 90.7086 82.647 87.5833 82.647 87.5833L63.7963 93.7461V93.7512Z" fill="#6DE2DB"/>
</g>
<g opacity="0.3" style="mix-blend-mode:soft-light">
<path d="M64.4068 99.2982C62.187 96.9645 62.7458 94.8171 63.553 94.1962C64.3602 93.5701 77.8657 88.8096 78.9109 89.7151C79.951 90.6206 76.541 95.0293 72.7533 96.592C68.9655 98.1547 64.412 99.3034 64.412 99.3034L64.4068 99.2982Z" fill="#6DE2DB"/>
</g>
<path d="M62.6475 94.5585C62.4353 95.226 62.7458 98.5169 63.4237 99.4276C63.9308 100.111 63.7393 94.0255 63.7393 94.0255C63.7393 94.0255 63.2167 93.8754 62.6475 94.5533V94.5585Z" fill="url(#paint12_linear_7399_1407)" style="mix-blend-mode:screen"/>
<path opacity="0.8" d="M40.1077 85.2289C40.1077 85.2289 42.4155 92.8923 61.9129 94.1911C68.9865 92.7836 85.3637 86.1344 85.3637 86.1344L85.1671 85.2392C85.1671 85.2392 65.0332 93.715 60.7383 93.3994C56.4435 93.0837 40.1077 85.2289 40.1077 85.2289Z" fill="url(#paint13_linear_7399_1407)" style="mix-blend-mode:multiply"/>
<path d="M95.9917 64.505C95.9917 64.505 105.456 65.1777 109.187 63.8117C112.917 62.4456 116.343 50.9324 116.343 50.9324L95.9917 64.505Z" fill="#73BFFF"/>
<path d="M109.239 63.3046C106.734 64.2515 95.9971 64.505 95.9971 64.505L99.4898 43.6208C99.4898 43.6208 100.778 43.4501 102.662 43.2379C107.381 42.7101 115.815 41.9133 116.876 42.8861C117.197 43.181 117.368 43.7502 117.414 44.5367C117.694 49.3231 113.244 61.7884 109.239 63.3149V63.3046Z" fill="url(#paint14_linear_7399_1407)"/>
<path d="M100.608 49.1782C100.608 49.1782 109.523 47.9984 110.356 48.7591C111.634 49.9285 108.964 57.8765 106.346 58.8752C104.944 59.4082 98.9207 59.5479 98.9207 59.5479L100.608 49.1782Z" fill="url(#paint15_linear_7399_1407)"/>
<path d="M100.39 49.7422C100.39 49.7422 108.473 48.6711 109.228 49.3645C110.387 50.42 108.028 57.3435 105.653 58.249C104.38 58.7354 98.9207 58.8596 98.9207 58.8596L100.39 49.7422Z" fill="url(#paint16_linear_7399_1407)"/>
<path opacity="0.6" d="M109.239 63.3046C106.734 64.2515 95.9971 64.505 95.9971 64.505L99.4898 43.6208C99.4898 43.6208 100.778 43.4501 102.662 43.2379C99.9555 45.6854 102.419 48.3969 104.224 48.5107C106.03 48.6194 109.409 48.2675 110.356 48.7643C111.303 49.261 110.098 53.0539 110.098 53.0539C110.098 53.0539 110.18 51.9517 109.352 50.2493C108.524 48.5521 103.102 49.7319 101.684 50.5909C100.266 51.4498 99.4847 58.8493 99.4847 58.8493L99.1121 59.5531C99.1121 59.5531 104.25 60.4224 106.858 58.8649C106.858 58.8649 107.267 62.4715 109.006 62.6008C110.744 62.725 113.823 56.9658 115.52 52.0811C117.218 47.2016 117.404 44.5315 117.404 44.5315C117.683 49.3179 113.233 61.7833 109.228 63.3097L109.239 63.3046Z" fill="url(#paint17_linear_7399_1407)" style="mix-blend-mode:multiply"/>
<g opacity="0.3" style="mix-blend-mode:soft-light">
<path d="M103.272 50.2441C99.8779 50.9737 100.064 56.1275 103.935 56.6812C107.805 57.2348 109.295 51.9258 108.964 50.4356C108.633 48.9453 104.861 49.9026 103.272 50.2441Z" fill="#6DE2DB"/>
</g>
<g opacity="0.3" style="mix-blend-mode:soft-light">
<path d="M102.388 50.3787C99.4381 52.6813 102.796 55.2531 105.373 55.4652C107.95 55.6722 108.856 52.3553 108.964 50.4356C109.078 48.5159 103.707 49.3541 102.388 50.3787Z" fill="#6DE2DB"/>
</g>
<g opacity="0.6" style="mix-blend-mode:soft-light">
<path d="M104.224 43.8019C101.854 44.2004 101.989 47.4344 102.688 47.8587C103.386 48.2882 109.254 48.1174 110.687 48.5004C112.115 48.8833 110.791 54.0785 109.409 56.7847C108.028 59.491 112.338 57.7265 114.165 54.4096C115.991 51.0928 117.802 45.1576 116.265 43.7968C114.729 42.441 104.23 43.7968 104.23 43.7968L104.224 43.8019Z" fill="#CEE2DB"/>
</g>
<g opacity="0.6" style="mix-blend-mode:soft-light">
<path d="M103.215 43.3414C100.783 44.6868 101.446 47.1188 102.222 47.9467C102.998 48.7746 107.805 47.569 109.849 48.5055C111.898 49.4421 115.706 48.1123 116.483 44.4125C117.259 40.7076 103.215 43.3466 103.215 43.3466V43.3414Z" fill="#CEE2DB"/>
</g>
<path d="M107.754 42.6894C107.754 42.6894 109.296 42.5859 109.906 43.0568C110.512 43.5276 110.015 46.3167 109.296 47.3154C108.576 48.3089 106.972 48.5003 106.972 48.5003C106.972 48.5003 110.667 47.8846 110.713 49.7112C110.713 49.7112 110.718 47.305 112.581 44.961C114.444 42.6221 116.338 42.6376 116.338 42.6376C116.338 42.6376 113.471 42.2133 107.748 42.6894H107.754Z" fill="url(#paint18_linear_7399_1407)" style="mix-blend-mode:screen"/>
<path opacity="0.8" d="M101.327 49.6233C101.327 49.6233 107.205 49.023 108.426 49.3749C109.647 49.7268 109.523 50.6271 109.523 50.6271C109.523 50.6271 109.958 49.5094 109.782 48.961C109.606 48.4125 104.659 49.0334 101.322 49.6233H101.327Z" fill="url(#paint19_linear_7399_1407)" style="mix-blend-mode:multiply"/>
<path d="M99.4019 59.5272L99.6762 58.839C99.6762 58.839 104.074 58.8235 105.648 58.2543C105.648 58.2543 105.813 58.8183 106.134 58.9477C106.134 58.9477 103.986 59.5841 99.3967 59.5324L99.4019 59.5272Z" fill="url(#paint20_linear_7399_1407)" style="mix-blend-mode:screen"/>
<path opacity="0.6" d="M98.3566 59.1288C98.3566 59.1288 97.5959 62.3887 97.9271 63.3719C98.2582 64.3498 107.402 63.7237 107.402 63.7237C103.671 64.2153 99.7537 64.3447 95.314 64.5051L98.3566 59.134V59.1288Z" fill="url(#paint21_linear_7399_1407)" style="mix-blend-mode:multiply"/>
<path d="M98.6152 59.1235L100.162 49.5145L100.354 49.4887C102.279 49.2351 108.612 48.4589 109.399 49.1782C109.916 49.6491 109.818 50.8133 109.652 51.7085C109.207 54.0422 107.562 57.7989 105.746 58.4923C104.447 58.989 99.1534 59.1132 98.9257 59.1184H98.6152V59.1235ZM100.613 49.9699L99.2206 58.5957C100.385 58.5595 104.514 58.4095 105.559 58.011C107.024 57.4574 108.664 54.1767 109.145 51.6102C109.378 50.3735 109.249 49.737 109.052 49.5559C108.638 49.1834 104.468 49.4731 100.607 49.9751L100.613 49.9699Z" fill="#002801"/>
<path d="M104.447 48.5055C104.447 48.5055 110.47 47.9881 111.024 48.7487C111.583 49.5094 109.813 53.8715 109.813 53.8715C109.813 53.8715 111.153 50.151 110.537 49.1316C109.922 48.1123 104.447 48.5055 104.447 48.5055Z" fill="#F5F9F8"/>
<path d="M88.0906 76.784C88.0906 76.784 92.0542 78.8538 96.5922 78.0983C101.379 77.3015 102.848 70.0624 102.848 70.0624L88.0906 76.784Z" fill="#73BFFF"/>
<path d="M97.3994 77.5137C93.2805 78.8849 87.1177 76.722 86.8176 76.2822C86.5174 75.8475 92.9442 66.4093 92.9442 66.4093C92.9442 66.4093 95.133 66.1091 97.4925 65.9125C99.997 65.6952 102.698 65.5917 103.159 66.0677C103.303 66.2178 103.381 66.4869 103.402 66.8543C103.562 69.3794 100.954 76.3391 97.3942 77.5189L97.3994 77.5137Z" fill="url(#paint22_linear_7399_1407)"/>
<path opacity="0.6" d="M97.3994 77.5137C93.2805 78.8849 87.1177 76.722 86.8176 76.2821C86.5174 75.8475 92.9442 66.4092 92.9442 66.4092C92.9442 66.4092 95.133 66.1091 97.4925 65.9125C95.8367 66.9267 92.8562 73.9795 93.4926 75.9613C94.1395 77.9845 97.6064 77.4257 100.426 74.1658C102.776 71.444 103.36 67.6304 103.407 66.8542C103.567 69.3794 100.959 76.3391 97.3994 77.5188V77.5137Z" fill="url(#paint23_linear_7399_1407)" style="mix-blend-mode:multiply"/>
<g opacity="0.6" style="mix-blend-mode:soft-light">
<path d="M98.2533 66.2902C96.0541 66.5438 93.0788 73.7829 95.071 75.6871C97.058 77.5913 102.708 72.0236 102.988 68.9292C103.267 65.8349 98.2533 66.2851 98.2533 66.2851V66.2902Z" fill="#CEE2DB"/>
</g>
<g opacity="0.6" style="mix-blend-mode:soft-light">
<path d="M97.5856 66.0885C96.5093 66.668 94.8483 68.9086 96.7577 70.8128C98.6671 72.717 103.267 68.9914 103.288 67.1234C103.309 65.2606 97.5908 66.0885 97.5908 66.0885H97.5856Z" fill="#CEE2DB"/>
</g>
<path opacity="0.6" d="M94.7294 68.6239C94.7294 68.6239 93.4927 73.1775 92.5354 75.0817C91.5781 76.991 93.1926 77.9328 93.1926 77.9328C93.1926 77.9328 88.4579 77.4981 86.8176 76.277C85.6223 75.449 94.7294 68.6239 94.7294 68.6239Z" fill="url(#paint24_linear_7399_1407)" style="mix-blend-mode:multiply"/>
<path d="M0.957293 13.4019C-2.21466 18.6281 3.1254 38.11 7.73587 39.7814C12.3412 41.4527 26.3433 40.5265 26.3433 40.5265L0.957293 13.4019Z" fill="#73BFFF"/>
<path d="M1.00894 22.7263C1.05551 22.9954 1.09691 23.2645 1.1383 23.5439V23.5543C1.28319 24.4546 1.45395 25.3653 1.6454 26.2709C1.6454 26.2812 1.6454 26.2916 1.6454 26.3019C2.89245 32.1646 5.09161 37.8824 7.74095 39.1036C10.7008 40.4593 26.3432 40.5266 26.3432 40.5266L41.3492 19.9063C41.3492 19.9063 37.0027 18.8558 31.1762 17.5208C19.8285 14.9336 2.87176 11.2752 1.60918 12.2842C0.372481 13.2726 0.289689 17.7123 1.00894 22.7263Z" fill="url(#paint25_linear_7399_1407)"/>
<path d="M32.4285 24.3097C32.4285 24.3097 11.296 19.4353 10.2197 20.2891C8.57418 21.5982 10.5871 32.0921 13.6814 33.5099C15.3424 34.2705 23.2024 34.2912 23.2024 34.2912L32.4285 24.3097Z" fill="url(#paint26_linear_7399_1407)"/>
<path d="M11.0475 26.0276C11.0475 26.0276 11.0475 26.0535 11.063 26.1052C11.446 28.9357 12.5016 32.0093 14.0435 32.7182C15.332 33.3133 21.2309 33.4219 22.8453 33.4426C23.1041 33.4478 23.2541 33.4478 23.2541 33.4478L30.8606 24.3045C30.8606 24.3045 12.5171 20.3253 11.5391 21.1015C10.8768 21.6293 10.7422 23.7405 11.0475 26.0276Z" fill="url(#paint27_linear_7399_1407)"/>
<path opacity="0.6" d="M1.65063 26.3019C2.89769 32.1645 5.09684 37.8823 7.74618 39.1035C10.706 40.4592 26.3484 40.5265 26.3484 40.5265L41.3544 19.9062C41.3544 19.9062 37.0079 18.8558 31.1814 17.5208L31.0676 17.5828C34.4827 21.6603 27.5955 22.7211 24.2993 22.2761C21.0084 21.8259 11.3528 19.6164 10.2248 20.2839C9.10189 20.9514 9.7901 24.7081 9.7901 24.7081C9.7901 24.7081 10.0799 21.9812 11.7823 21.6655C13.4847 21.3447 23.6577 22.6124 24.9203 23.9992C26.1777 25.3911 22.6642 29.8567 22.6642 29.8567L22.1933 33.4323L22.2658 34.5396C22.2658 34.5396 16.0253 34.3585 13.6813 33.5047C13.6813 33.5047 13.05 38.555 9.57277 38.7568C6.75785 38.9224 2.996 31.0986 1.65063 26.3019Z" fill="url(#paint28_linear_7399_1407)" style="mix-blend-mode:multiply"/>
<path opacity="0.6" d="M1.00903 22.7263C1.0556 22.9954 1.097 23.2645 1.1384 23.5439C1.1384 23.1196 1.08665 22.8609 1.00903 22.7263Z" fill="url(#paint29_linear_7399_1407)" style="mix-blend-mode:multiply"/>
<path opacity="0.6" d="M24.8167 23.0367C24.8167 23.0367 14.5868 21.0032 12.9309 21.2826C11.2751 21.5672 10.8198 22.1933 10.8198 22.1933C10.8198 22.1933 10.3541 20.5582 11.1561 20.3822C11.9581 20.2063 24.2993 22.8763 24.8219 23.0316L24.8167 23.0367Z" fill="url(#paint30_linear_7399_1407)" style="mix-blend-mode:multiply"/>
<path opacity="0.6" d="M11.063 26.1104C11.4459 28.9408 12.5015 32.0145 14.0435 32.7234C15.3319 33.3185 21.2308 33.4271 22.8453 33.4478V32.3457C21.7845 32.7544 14.9956 32.5837 13.169 30.1517C11.5701 28.025 11.1458 26.4623 11.063 26.1052V26.1104Z" fill="url(#paint31_linear_7399_1407)" style="mix-blend-mode:multiply"/>
<path d="M14.2093 32.9355C14.4473 33.1943 13.7798 33.541 13.7798 33.541C13.7798 33.541 18.6852 34.4258 22.3798 34.2602V33.6082C22.3798 33.6082 15.9117 33.3702 14.2093 32.9355Z" fill="url(#paint32_linear_7399_1407)" style="mix-blend-mode:screen"/>
<g opacity="0.3" style="mix-blend-mode:soft-light">
<path d="M21.4328 22.7263C27.3783 25.5412 21.764 31.228 16.9569 30.7519C12.1498 30.2759 10.1421 25.091 11.7462 22.7263C13.3503 20.3667 21.4328 22.7263 21.4328 22.7263Z" fill="#6DE2DB"/>
</g>
<g opacity="0.3" style="mix-blend-mode:soft-light">
<path d="M19.2801 22.5504C24.9254 24.3459 19.5698 28.2993 16.7497 28.5166C13.9348 28.7339 10.9388 25.7948 12.7188 23.3835C14.4988 20.967 19.2749 22.5504 19.2749 22.5504H19.2801Z" fill="#6DE2DB"/>
</g>
<g opacity="0.6" style="mix-blend-mode:soft-light">
<path d="M31.7712 18.6799C33.9445 23.368 11.4614 19.5233 10.0074 20.0253C8.55334 20.5272 9.56754 29.3652 12.1858 32.3975C12.1858 32.3975 12.279 36.8837 9.43818 37.4478C6.59739 38.0169 2.10076 28.0923 1.64541 20.4599C1.19005 12.8276 2.7424 12.3308 2.7424 12.3308C2.7424 12.3308 30.6691 16.4497 31.7661 18.6747L31.7712 18.6799Z" fill="#CEE2DB"/>
</g>
<g opacity="0.6" style="mix-blend-mode:soft-light">
<path d="M27.3523 16.8947C31.6989 18.1676 28.0095 21.7897 27.0004 22.0433C25.9914 22.2968 12.7913 19.5802 10.5197 20.0201C8.2481 20.4599 9.63487 26.7779 9.63487 26.7779C9.63487 26.7779 3.98433 27.0625 2.18361 22.0433C0.38289 17.024 1.14354 14.0901 2.18361 13.1121C3.22368 12.129 24.9876 16.2013 27.3523 16.8947Z" fill="#CEE2DB"/>
</g>
<path d="M18.7938 14.799C18.7938 14.799 15.3476 14.0487 14.3075 14.799C13.2674 15.5493 14.3489 19.6992 15.5804 20.3719C16.8171 21.0446 18.4264 21.3292 18.4264 21.3292C18.4264 21.3292 11.3943 19.6682 10.2197 20.2839C10.2197 20.2839 11.2494 16.5531 8.42931 14.4626C5.61439 12.3722 2.03882 12.1134 2.03882 12.1134C2.03882 12.1134 4.7606 11.6943 18.7938 14.799Z" fill="url(#paint33_linear_7399_1407)" style="mix-blend-mode:screen"/>
<path opacity="0.6" d="M22.2659 34.5397C22.2659 34.5397 22.0797 37.7686 21.2207 39.088C20.3617 40.4075 13.7798 40.0919 13.7798 40.0919C13.7798 40.0919 19.0267 40.4179 22.6851 40.4748L22.2659 34.5448V34.5397Z" fill="url(#paint34_linear_7399_1407)" style="mix-blend-mode:multiply"/>
<path d="M23.2541 33.7065C23.2541 33.7065 23.1041 33.7065 22.8402 33.7065C20.5893 33.6755 15.2182 33.5513 13.9349 32.9562C12.2015 32.1594 11.1717 28.7856 10.8095 26.1414L10.794 26.0586C10.5197 24.0096 10.5301 21.5775 11.3787 20.8997C12.3722 20.108 26.5813 23.1144 30.9124 24.0509L31.3212 24.1389L23.3732 33.6962H23.2541V33.7065ZM11.3011 25.9862L11.3166 26.0586C11.6892 28.7856 12.7085 31.8178 14.1522 32.4854C15.1302 32.9355 19.2853 33.1425 22.8505 33.1839C22.9747 33.1839 23.0679 33.1839 23.1403 33.1839L30.3949 24.4597C23.4353 22.9591 12.5326 20.8428 11.6944 21.2981C11.1666 21.7173 11.001 23.6887 11.3063 25.9759L11.3011 25.9862Z" fill="#002801"/>
<path d="M23.4974 22.0432C23.4974 22.0432 11.7203 19.6216 10.2145 20.2891C8.70874 20.9566 10.2145 27.0521 10.2145 27.0521C10.2145 27.0521 8.47072 21.6241 9.62463 20.0303C10.406 18.9541 23.4922 22.0484 23.4922 22.0484L23.4974 22.0432Z" fill="#F5F9F8"/>
<path d="M29.1684 64.505C29.1684 64.505 19.7043 65.1777 15.9735 63.8117C12.2427 62.4456 8.81201 50.9324 8.81201 50.9324L29.1633 64.505H29.1684Z" fill="#73BFFF"/>
<path d="M15.927 63.3046C18.4314 64.2515 29.1737 64.505 29.1737 64.505L25.6757 43.6208C25.6757 43.6208 24.3821 43.4501 22.5037 43.2379C17.7846 42.7101 9.3502 41.9133 8.28943 42.8861C7.96862 43.181 7.79268 43.7502 7.75129 44.5367C7.47187 49.3231 11.9219 61.7884 15.927 63.3149V63.3046Z" fill="url(#paint35_linear_7399_1407)"/>
<path d="M24.558 49.1782C24.558 49.1782 15.6424 47.9984 14.8093 48.7591C13.5312 49.9285 16.2012 57.8765 18.8195 58.8752C20.2218 59.4082 26.2501 59.5479 26.2501 59.5479L24.5632 49.1782H24.558Z" fill="url(#paint36_linear_7399_1407)"/>
<path d="M24.7703 49.7422C24.7703 49.7422 16.6877 48.6711 15.9323 49.3645C14.7732 50.42 17.1327 57.3435 19.5078 58.249C20.7808 58.7354 26.2398 58.8596 26.2398 58.8596L24.7703 49.7422Z" fill="url(#paint37_linear_7399_1407)"/>
<path opacity="0.6" d="M15.9271 63.3046C18.4315 64.2515 29.1737 64.505 29.1737 64.505L25.6758 43.6208C25.6758 43.6208 24.3822 43.4501 22.5038 43.2379C25.2101 45.6854 22.747 48.3969 20.9411 48.5107C19.1353 48.6194 15.7563 48.2675 14.8146 48.7643C13.8676 49.261 15.0733 53.0539 15.0733 53.0539C15.0733 53.0539 14.9853 51.9517 15.8184 50.2493C16.6463 48.5521 22.0744 49.7319 23.487 50.5909C24.9048 51.4498 25.6861 58.8493 25.6861 58.8493L26.0587 59.5531C26.0587 59.5531 20.9204 60.4224 18.3125 58.8649C18.3125 58.8649 17.9037 62.4715 16.1651 62.6008C14.4213 62.725 11.3477 56.9658 9.65042 52.0811C7.95319 47.2016 7.76691 44.5315 7.76691 44.5315C7.48749 49.3179 11.9375 61.7833 15.9426 63.3097L15.9271 63.3046Z" fill="url(#paint38_linear_7399_1407)" style="mix-blend-mode:multiply"/>
<g opacity="0.3" style="mix-blend-mode:soft-light">
<path d="M21.8879 50.2441C25.2824 50.9737 25.0909 56.1275 21.2256 56.6812C17.3603 57.2348 15.8648 51.9258 16.196 50.4356C16.5272 48.9453 20.2994 49.9026 21.8879 50.2441Z" fill="#6DE2DB"/>
</g>
<g opacity="0.3" style="mix-blend-mode:soft-light">
<path d="M22.7729 50.3787C25.7223 52.6813 22.3641 55.2531 19.7872 55.4652C17.2103 55.6722 16.31 52.3553 16.1961 50.4356C16.0823 48.5159 21.4534 49.3541 22.7729 50.3787Z" fill="#6DE2DB"/>
</g>
<g opacity="0.6" style="mix-blend-mode:soft-light">
<path d="M20.9359 43.8019C23.3058 44.2004 23.1712 47.4344 22.4727 47.8587C21.7741 48.2882 15.9063 48.1174 14.4729 48.5004C13.0448 48.8833 14.3694 54.0785 15.751 56.7847C17.1326 59.491 12.8223 57.7265 11.0008 54.4096C9.17425 51.0928 7.36319 45.1576 8.90001 43.7968C10.4368 42.441 20.9359 43.7968 20.9359 43.7968V43.8019Z" fill="#CEE2DB"/>
</g>
<g opacity="0.6" style="mix-blend-mode:soft-light">
<path d="M21.945 43.3414C24.377 44.6868 23.7147 47.1188 22.9385 47.9467C22.1623 48.7746 17.3552 47.569 15.3113 48.5055C13.2674 49.4421 9.45378 48.1123 8.67761 44.4125C7.90661 40.7076 21.945 43.3466 21.945 43.3466V43.3414Z" fill="#CEE2DB"/>
</g>
<path d="M17.4068 42.6894C17.4068 42.6894 15.8648 42.5859 15.2594 43.0568C14.6488 43.5276 15.1507 46.3167 15.8648 47.3154C16.584 48.3089 18.1881 48.5003 18.1881 48.5003C18.1881 48.5003 14.4935 47.8846 14.447 49.7112C14.447 49.7112 14.4418 47.305 12.579 44.961C10.7162 42.6221 8.81714 42.6376 8.81714 42.6376C8.81714 42.6376 11.6838 42.2133 17.4068 42.6894Z" fill="url(#paint39_linear_7399_1407)" style="mix-blend-mode:screen"/>
<path opacity="0.8" d="M23.8337 49.6233C23.8337 49.6233 17.9555 49.023 16.7343 49.3749C15.5131 49.7268 15.6373 50.6271 15.6373 50.6271C15.6373 50.6271 15.2027 49.5094 15.3786 48.961C15.5545 48.4125 20.5013 49.0334 23.8389 49.6233H23.8337Z" fill="url(#paint40_linear_7399_1407)" style="mix-blend-mode:multiply"/>
<path d="M25.7584 59.5272L25.479 58.839C25.479 58.839 21.0807 58.8235 19.5076 58.2543C19.5076 58.2543 19.3369 58.8183 19.0212 58.9477C19.0212 58.9477 21.1687 59.5841 25.7584 59.5324V59.5272Z" fill="url(#paint41_linear_7399_1407)" style="mix-blend-mode:screen"/>
<path opacity="0.6" d="M26.8089 59.1288C26.8089 59.1288 27.5747 62.3887 27.2383 63.3719C26.9072 64.3498 17.769 63.7237 17.769 63.7237C21.4947 64.2153 25.4118 64.3447 29.8515 64.5051L26.8089 59.134V59.1288Z" fill="url(#paint42_linear_7399_1407)" style="mix-blend-mode:multiply"/>
<path d="M26.5451 59.1236H26.2398C26.0173 59.1081 20.7186 58.9839 19.4198 58.4872C17.6036 57.7938 15.9581 54.0371 15.5131 51.7034C15.3423 50.8082 15.2492 49.644 15.7666 49.1731C16.548 48.459 22.8867 49.23 24.8116 49.4836L25.0031 49.5094L26.5503 59.1185L26.5451 59.1236ZM17.4949 49.3801C16.7446 49.3801 16.2375 49.4318 16.1082 49.5508C15.9064 49.7319 15.777 50.3684 16.015 51.6051C16.5014 54.1665 18.1417 57.4471 19.6009 58.0059C20.6514 58.4044 24.7754 58.5596 25.9449 58.5907L24.5529 49.9648C21.9139 49.6233 19.1249 49.3801 17.4949 49.3801Z" fill="#002801"/>
<path d="M20.7135 48.5055C20.7135 48.5055 14.6904 47.9881 14.1367 48.7487C13.5779 49.5094 15.3475 53.8715 15.3475 53.8715C15.3475 53.8715 14.0073 50.151 14.6231 49.1316C15.2389 48.1123 20.7135 48.5055 20.7135 48.5055Z" fill="#F5F9F8"/>
<path d="M37.3858 76.784C37.3858 76.784 33.4221 78.8538 28.8841 78.0983C24.0977 77.3015 22.6282 70.0624 22.6282 70.0624L37.3858 76.784Z" fill="#73BFFF"/>
<path d="M28.0768 77.5137C32.1957 78.8849 38.3585 76.722 38.6587 76.2822C38.9588 75.8475 32.5269 66.4093 32.5269 66.4093C32.5269 66.4093 30.3381 66.1091 27.9785 65.9125C25.4741 65.6952 22.7782 65.5917 22.3125 66.0677C22.1676 66.2178 22.09 66.4869 22.0693 66.8543C21.9088 69.3794 24.522 76.3391 28.0768 77.5189V77.5137Z" fill="url(#paint43_linear_7399_1407)"/>
<path opacity="0.6" d="M28.0769 77.5137C32.1958 78.8849 38.3586 76.722 38.6587 76.2821C38.9588 75.8475 32.5269 66.4092 32.5269 66.4092C32.5269 66.4092 30.3381 66.1091 27.9786 65.9125C29.6344 66.9267 32.6149 73.9795 31.9784 75.9613C31.3316 77.9845 27.8647 77.4257 25.0446 74.1658C22.6954 71.444 22.1055 67.6304 22.0641 66.8542C21.9037 69.3794 24.5168 76.3391 28.0717 77.5188L28.0769 77.5137Z" fill="url(#paint44_linear_7399_1407)" style="mix-blend-mode:multiply"/>
<g opacity="0.6" style="mix-blend-mode:soft-light">
<path d="M27.2232 66.2902C29.4224 66.5438 32.3977 73.7829 30.4055 75.6871C28.4133 77.5913 22.768 72.0236 22.4886 68.9292C22.2091 65.8349 27.2232 66.2851 27.2232 66.2851V66.2902Z" fill="#CEE2DB"/>
</g>
<g opacity="0.6" style="mix-blend-mode:soft-light">
<path d="M27.8906 66.0885C28.9669 66.668 30.6279 68.9086 28.7185 70.8128C26.8143 72.717 22.2142 68.9914 22.1883 67.1234C22.1676 65.2606 27.8854 66.0885 27.8854 66.0885H27.8906Z" fill="#CEE2DB"/>
</g>
<path opacity="0.6" d="M30.7468 68.6239C30.7468 68.6239 31.9835 73.1775 32.9408 75.0817C33.8981 76.991 32.2836 77.9328 32.2836 77.9328C32.2836 77.9328 37.0183 77.4981 38.6586 76.277C39.8539 75.449 30.7468 68.6239 30.7468 68.6239Z" fill="url(#paint45_linear_7399_1407)" style="mix-blend-mode:multiply"/>
<path d="M88.1319 83.3972C88.0491 83.837 84.8771 85.4721 80.7582 87.3194C80.7582 87.3194 80.7272 87.3298 80.6651 87.3557C74.0987 90.2999 65.1986 93.7513 62.6527 93.7513C58.8909 93.7513 41.2562 86.2173 37.7686 83.9301C37.7634 83.9301 37.7583 83.9301 37.7583 83.9301C37.3961 83.6973 37.1943 83.5162 37.1736 83.4075C36.9666 82.264 39.4659 75.5216 39.4659 75.5216L62.6579 82.2795L85.8551 75.5216C85.8551 75.5216 86.7503 77.9484 87.423 80.1321C87.8732 81.5965 88.225 82.947 88.1422 83.4075L88.1319 83.3972Z" fill="url(#paint46_linear_7399_1407)"/>
<path opacity="0.6" d="M87.4127 80.1217C86.1346 78.0623 63.2323 84.3648 62.6476 85.4359C62.0577 86.5122 61.9594 92.0437 63.1806 92.763C64.3448 93.446 79.3353 87.8472 80.6651 87.3556C74.0987 90.2999 65.1986 93.7513 62.6528 93.7513C58.4873 93.7513 37.3754 84.5407 37.1684 83.3971C36.9615 82.2536 39.4607 75.5112 39.4607 75.5112L62.6528 82.2691L85.85 75.5112C85.85 75.5112 86.7452 77.9381 87.4178 80.1217H87.4127Z" fill="url(#paint47_linear_7399_1407)" style="mix-blend-mode:multiply"/>
<path opacity="0.8" d="M37.9808 79.8112C37.1633 83.4023 58.0992 85.8964 63.1806 84.3441C68.2619 82.7917 86.7865 78.1192 86.7865 78.1192L86.1656 76.4426C86.1656 76.4426 68.0601 83.2367 62.7769 83.2367C57.4938 83.2367 38.876 77.1308 38.876 77.1308L37.9756 79.8164L37.9808 79.8112Z" fill="url(#paint48_linear_7399_1407)" style="mix-blend-mode:multiply"/>
<g opacity="0.3" style="mix-blend-mode:soft-light">
<path d="M62.6476 85.4359C62.244 87.873 62.9839 92.9854 64.0343 92.7784C65.0848 92.5715 81.9484 87.5884 83.8888 85.5963C85.8293 83.6093 85.2963 78.4917 85.2963 78.4917C85.2963 78.4917 65.002 82.6261 62.6424 85.4359H62.6476Z" fill="#CEE2DB"/>
</g>
<path d="M62.6475 85.4359C62.4354 86.1034 62.2802 92.1783 63.4134 92.2559C63.9412 92.2921 63.8635 85.2238 63.8635 85.2238C63.8635 85.2238 63.2167 84.7529 62.6475 85.4308V85.4359Z" fill="url(#paint49_linear_7399_1407)" style="mix-blend-mode:screen"/>
<path d="M88.1318 83.3971C88.049 83.8369 84.8771 85.4721 80.7582 87.3194C80.7582 87.3194 80.7271 87.3297 80.665 87.3556C74.0986 90.2999 65.1985 93.7512 62.6526 93.7512C58.8908 93.7512 41.2562 86.2172 37.7686 83.9301C38.3326 84.1991 56.4329 92.9595 62.8441 92.944C69.3588 92.9233 88.137 83.4023 88.137 83.4023L88.1318 83.3971Z" fill="#73BFFF"/>
<g opacity="0.6" style="mix-blend-mode:soft-light">
<path d="M64.1015 92.7837C61.8816 90.45 63.0614 85.4359 63.8686 84.8098C64.6759 84.1837 78.8953 79.7181 79.9354 80.6236C80.9755 81.5292 76.2305 88.5096 72.4428 90.0723C68.655 91.635 64.1015 92.7837 64.1015 92.7837Z" fill="#CEE2DB"/>
</g>
<path d="M98.4704 61.8298C98.4704 61.8298 98.4652 61.8453 98.4548 61.8816C97.4665 65.6693 96.4834 68.6601 95.7175 70.0159C92.6284 75.4749 67.0561 84.3751 62.6474 84.3751C58.2388 84.3751 32.6665 75.4749 29.5825 70.0159C28.9046 68.8154 28.056 66.3471 27.1867 63.1752C27.1815 63.1597 27.1763 63.1493 27.1763 63.1493C24.0768 51.8534 20.6513 31.704 23.4041 28.5527C26.9331 24.5063 58.2336 5.90401 62.6422 6.30762C67.0509 5.90401 98.3565 24.5063 101.88 28.5527C104.53 31.5901 101.466 50.3528 98.4652 61.835L98.4704 61.8298Z" fill="url(#paint50_linear_7399_1407)"/>
<path d="M89.9635 34.167C87.5056 31.3521 65.7158 18.3952 62.6474 18.6798C59.5789 18.4004 37.784 31.3521 35.3313 34.167C32.8734 36.9819 37.4787 59.2322 39.6261 63.0303C41.7735 66.8335 59.5789 73.0274 62.6474 73.0274C65.7158 73.0274 83.5161 66.8335 85.6686 63.0303C87.8161 59.227 92.4214 36.9819 89.9635 34.167Z" fill="url(#paint51_linear_7399_1407)"/>
<path d="M87.7023 46.296C87.7023 46.296 87.7023 46.3115 87.6919 46.3477C86.6984 52.733 84.9339 59.7548 83.8473 61.6745C81.8706 65.1777 65.4779 70.8851 62.6474 70.8851C59.817 70.8851 43.4294 65.1828 41.4528 61.6745C40.4541 59.9049 38.8707 53.7886 37.8461 47.838C37.8306 47.7655 37.8254 47.7345 37.8254 47.7345C36.8423 41.9598 36.3818 36.3713 37.4891 35.1036C39.7503 32.5111 59.8222 20.5788 62.6474 20.8427C65.4779 20.584 85.5445 32.5111 87.8006 35.1036C88.8148 36.2678 88.5147 41.0646 87.7023 46.3012V46.296Z" fill="url(#paint52_linear_7399_1407)"/>
<g opacity="0.6" style="mix-blend-mode:soft-light">
<path d="M23.0419 29.1943C22.4003 32.6354 33.4944 34.5447 33.4944 34.5447C33.4944 34.5447 52.4382 19.8596 61.6591 18.6746C70.88 17.4896 91.5883 34.0376 91.5883 34.0376C91.5883 34.0376 99.1689 30.5035 99.8002 28.2267C100.432 25.9551 69.6278 6.85091 62.7975 6.98027C55.9672 7.10446 23.6163 26.0948 23.0419 29.1943Z" fill="#CEE2DB"/>
</g>
<g opacity="0.6" style="mix-blend-mode:soft-light">
<path d="M63.5321 6.38C60.5258 8.49637 62.668 18.6798 62.668 18.6798C62.668 18.6798 79.1073 25.0288 89.4718 33.6702C89.4718 33.6702 99.5776 28.7907 99.6242 27.7092C99.6656 26.6226 79.0504 12.3151 63.5373 6.38H63.5321Z" fill="#CEE2DB"/>
</g>
<path d="M83.8835 29.717C83.8835 29.717 87.6816 32.2059 90.2689 31.8282C92.8561 31.4505 96.5817 28.3561 96.8353 26.5864C97.0888 24.8168 95.2778 23.5542 95.2778 23.5542C95.2778 23.5542 101.968 27.5541 102.62 30.2862C102.62 30.2862 101.146 29.6808 99.6192 30.3742C98.0979 31.0675 90.688 36.1644 90.688 36.1644C90.688 36.1644 90.9053 35.3054 89.9894 34.1671C89.0684 33.0287 83.8835 29.717 83.8835 29.717Z" fill="url(#paint53_linear_7399_1407)" style="mix-blend-mode:screen"/>
<path d="M67.6253 7.85999C65.8091 7.67371 64.3395 11.6943 64.8829 15.2181C65.3123 18.0072 67.6253 20.4599 67.6253 20.4599C67.6253 20.4599 62.4198 17.2103 59.046 19.8389C59.046 19.8389 60.3241 14.2712 59.993 11.4304C59.6618 8.58959 57.3022 8.16011 57.3022 8.16011C57.3022 8.16011 60.1793 6.67503 61.7937 6.37491C63.4081 6.07479 67.6253 7.85482 67.6253 7.85482V7.85999Z" fill="url(#paint54_linear_7399_1407)" style="mix-blend-mode:screen"/>
<path d="M28.6355 24.439C28.6355 24.439 26.0483 26.7106 25.7326 27.911C25.417 29.1115 32.8786 31.497 35.1398 31.5746C37.4011 31.647 41.8408 29.4686 41.8408 29.4686C41.8408 29.4686 36.4438 32.713 35.3468 34.167C34.255 35.6158 34.6431 39.7865 34.6431 39.7865C34.6431 39.7865 33.5565 36.3765 32.4853 35.4296C31.409 34.4826 24.2113 31.766 23.518 31.766C22.8246 31.766 22.4158 33.4736 22.4158 33.4736C22.4158 33.4736 22.1157 31.171 23.0419 29.1995C23.963 27.2228 28.6355 24.4441 28.6355 24.4441V24.439Z" fill="url(#paint55_linear_7399_1407)" style="mix-blend-mode:screen"/>
<path d="M36.7491 32.9355C36.7491 32.9355 56.262 19.6733 61.659 18.6798C67.056 17.6863 88.5612 32.9355 88.5612 32.9355C88.5612 32.9355 68.9654 18.0743 62.4611 17.5879C58.6889 17.3033 36.7439 32.9355 36.7439 32.9355H36.7491Z" fill="#F5F9F8"/>
<path d="M28.6355 24.439C28.6355 24.439 56.6398 6.50942 62.7975 6.9803C68.9551 7.45635 96.0642 24.0509 96.0642 24.0509C96.0642 24.0509 69.3536 6.31279 62.6629 6.30762C56.4794 6.30244 28.6304 24.4442 28.6304 24.4442L28.6355 24.439Z" fill="#F5F9F8"/>
<path d="M60.6448 7.27521C59.7651 8.87413 61.7521 10.5817 63.5529 10.3903C65.3536 10.1988 68.3962 8.83791 68.3962 8.83791C68.3962 8.83791 65.6899 5.67113 60.6396 7.27004L60.6448 7.27521Z" fill="white"/>
<path opacity="0.8" d="M34.9588 34.8863C33.9084 37.7375 36.8579 39.3054 36.8579 39.3054C35.3935 37.1321 48.4384 24.3149 62.6475 23.8078C75.0456 23.3679 88.8097 37.0027 88.4475 39.3054C88.4475 39.3054 90.0102 36.0661 89.9636 34.1671C89.917 32.2681 66.9164 18.9179 62.6475 18.6799C58.3785 18.4418 35.6005 33.1425 34.9588 34.8863Z" fill="url(#paint56_linear_7399_1407)" style="mix-blend-mode:multiply"/>
<g opacity="0.3" style="mix-blend-mode:soft-light">
<path d="M43.7916 32.5578C33.9342 43.0516 43.4604 57.7006 59.134 62.3939C74.8075 67.0871 87.6764 48.816 86.4138 38.2083C85.1513 27.6006 57.8714 17.5673 43.7916 32.5578Z" fill="#6DE2DB"/>
</g>
<g opacity="0.3" style="mix-blend-mode:soft-light">
<path d="M61.6228 24.3096C41.5561 29.4272 47.1342 47.7397 58.7561 52.6968C70.378 57.654 83.04 50.6736 83.547 38.3583C84.0541 26.0482 61.6228 24.3044 61.6228 24.3044V24.3096Z" fill="#6DE2DB"/>
</g>
<path opacity="0.5" d="M87.692 46.3427C86.6985 52.728 84.934 59.7497 83.8473 61.6695C81.8707 65.1726 65.4779 70.8801 62.6475 70.8801C59.817 70.8801 43.4295 65.1778 41.4528 61.6695C40.4541 59.8998 38.8707 53.7836 37.8462 47.8329C38.0583 48.8782 39.8435 57.297 41.7064 59.6669C43.6934 62.2024 56.8986 67.0665 63.1391 67.3511C69.3847 67.6305 80.0131 64.5982 83.1954 60.3396C86.2276 56.288 87.5575 47.0153 87.692 46.3427Z" fill="url(#paint57_linear_7399_1407)" style="mix-blend-mode:multiply"/>
<path opacity="0.3" d="M98.4549 61.8763C97.4666 65.6641 96.4835 68.6549 95.7176 70.0106C92.6285 75.4697 67.0562 84.3698 62.6475 84.3698C58.2388 84.3698 32.6665 75.4697 29.5826 70.0106C28.9047 68.8102 28.0561 66.3419 27.1868 63.17C27.3265 63.5787 29.2669 69.1931 30.9072 70.2228C32.6096 71.2939 39.0105 63.8064 39.0105 63.8064C39.0105 63.8064 53.0902 72.7738 62.6475 73.0274C72.2048 73.2809 85.6688 63.0303 85.6688 63.0303C85.6688 63.0303 90.2999 70.9576 93.1407 70.2228C95.847 69.5242 98.2376 62.5283 98.4549 61.8763Z" fill="url(#paint58_linear_7399_1407)" style="mix-blend-mode:multiply"/>
<path opacity="0.3" d="M33.4945 72.748C32.6717 71.9925 37.7013 66.43 39.0053 65.9901C40.3144 65.5503 60.2051 73.0636 60.8985 73.6949C61.5919 74.3262 61.9075 83.9249 61.9075 83.9249C61.9075 83.9249 45.7425 80.7064 33.4893 72.748H33.4945Z" fill="url(#paint59_linear_7399_1407)" style="mix-blend-mode:multiply"/>
<path opacity="0.8" d="M51.5586 25.893C51.5586 25.893 59.1237 22.2295 62.8234 22.4209C66.5232 22.6124 71.4493 24.6304 71.4493 24.6304C71.4493 24.6304 65.0381 20.3977 62.4664 20.4598C59.8895 20.5219 51.5586 25.893 51.5586 25.893Z" fill="url(#paint60_linear_7399_1407)" style="mix-blend-mode:multiply"/>
<path opacity="0.8" d="M42.4153 62.7509C42.4153 62.7509 56.5778 69.5243 62.3215 69.7157C68.0652 69.9072 81.2032 63.941 81.2032 63.941C81.2032 63.941 67.9876 70.9058 62.6475 70.88C57.3023 70.8541 43.1915 64.505 42.4153 62.7509Z" fill="url(#paint61_linear_7399_1407)" style="mix-blend-mode:multiply"/>
<path d="M62.6474 71.1388C59.7652 71.1388 43.2534 65.3796 41.225 61.7988C40.2264 60.0343 38.6326 53.9181 37.5925 47.8795C37.577 47.807 37.5718 47.7656 37.5718 47.7656C36.8733 43.6623 35.9005 36.5267 37.2976 34.9277C39.4761 32.4336 59.5375 20.2943 62.6681 20.5789C65.7676 20.3098 85.8187 32.4336 87.992 34.9277C89.208 36.3249 88.6388 41.8978 87.9506 46.3323V46.3633C86.9416 52.7901 85.1668 59.8429 84.0646 61.7937C82.0414 65.3744 65.5244 71.1336 62.6422 71.1336L62.6474 71.1388ZM62.575 21.086C59.491 21.086 39.9987 32.6096 37.6805 35.2641C36.775 36.299 36.925 40.9405 38.0738 47.688C38.0738 47.6984 38.0789 47.7294 38.0893 47.7812C39.1242 53.7836 40.6921 59.8222 41.6649 61.5453C43.5639 64.9035 59.8739 70.6265 62.637 70.6265C65.4002 70.6265 81.7205 64.9035 83.6144 61.5453C84.6907 59.6411 86.4397 52.6607 87.428 46.3064L87.4383 46.2547C88.3594 40.3196 88.4215 36.211 87.5988 35.2641C85.2599 32.5785 65.3692 20.8221 62.6577 21.086C62.6267 21.086 62.5957 21.086 62.5646 21.086H62.575Z" fill="#002801"/>
<path d="M30.2344 70.88C30.2344 70.88 52.2932 84.0491 62.3886 83.9249C72.4892 83.7955 95.0603 70.88 95.0603 70.88C93.4096 73.9019 69.6122 84.0232 62.6473 84.3699C55.6825 84.7166 30.5086 74.0675 30.2344 70.88Z" fill="#73BFFF"/>
<path d="M62.9475 72.7117C64.4171 71.9718 63.8427 71.0248 63.8427 71.0248L74.7453 67.4027C74.7453 67.4027 76.3132 68.3703 78.0415 67.7805C78.0415 67.7805 67.113 72.7428 62.9475 72.7117Z" fill="url(#paint62_linear_7399_1407)" style="mix-blend-mode:screen"/>
<path d="M66.4456 14.9284C65.2814 15.9115 68.6189 15.9788 69.8194 15.5389C71.0199 15.0991 69.5814 12.3359 69.5814 12.3359C69.5814 12.3359 67.1545 14.3281 66.4456 14.9284Z" fill="white"/>
<path d="M71.4388 9.59349C71.6044 10.4214 63.6512 17.3086 62.487 17.1017C61.3227 16.905 54.3992 11.5287 53.8921 9.58314C53.5817 8.40854 61.3227 0 62.487 0C63.4546 0 68.9292 6.10589 70.8075 8.60517C71.1801 9.10192 71.4129 9.45378 71.4388 9.58832V9.59349Z" fill="url(#paint63_linear_7399_1407)"/>
<path opacity="0.6" d="M71.4388 9.59349C71.6044 10.4214 63.6512 17.3086 62.487 17.1017C61.3227 16.905 54.3992 11.5287 53.8921 9.58314C53.5817 8.40854 61.3227 0 62.487 0C62.487 0 60.8363 15.1302 62.3472 16.1185C64.3084 17.3966 70.7092 9.96088 70.8024 8.61034C71.1749 9.10709 71.4078 9.45378 71.4336 9.58832L71.4388 9.59349Z" fill="url(#paint64_linear_7399_1407)" style="mix-blend-mode:multiply"/>
<g opacity="0.6" style="mix-blend-mode:soft-light">
<path d="M63.5374 0.65195C61.4366 0.615729 62.1817 10.9595 62.8958 13.8003C63.615 16.6411 70.0469 9.77457 70.2384 8.92078C70.4298 8.06699 63.5374 0.65195 63.5374 0.65195Z" fill="#CEE2DB"/>
</g>
<g opacity="0.6" style="mix-blend-mode:soft-light">
<path d="M62.6629 0.351807C62.6629 0.351807 61.2917 12.8068 62.3835 14.2763C63.4701 15.7459 67.4493 12.8068 68.5411 9.35023C69.633 5.89368 62.6681 0.351807 62.6681 0.351807H62.6629Z" fill="#CEE2DB"/>
</g>
<path opacity="0.8" d="M53.8921 9.58313C53.8921 9.58313 47.9829 12.7137 47.0825 13.8003C46.1822 14.887 60.4689 17.3242 62.487 17.1017C64.5102 16.8792 67.3199 13.8521 67.3199 13.8521C67.3199 13.8521 63.9876 16.5014 62.3783 16.5946C60.769 16.6929 53.887 9.58313 53.887 9.58313H53.8921Z" fill="url(#paint65_linear_7399_1407)" style="mix-blend-mode:multiply"/>
<path d="M62.1609 5.98167C63.9772 1.49022 68.0909 5.33486 68.0909 5.33486C68.0909 5.33486 62.8853 -0.150088 62.4869 -2.79107e-05C62.0885 0.150032 62.1609 5.98167 62.1609 5.98167Z" fill="url(#paint66_linear_7399_1407)" style="mix-blend-mode:screen"/>
<path d="M64.2101 3.47717C61.0537 3.47717 64.2774 9.58306 64.2774 9.58306C64.2774 9.58306 66.9215 3.47717 64.2101 3.47717Z" fill="url(#paint67_linear_7399_1407)" style="mix-blend-mode:screen"/>
<path d="M66.4508 30.5812H57.8767L51.8174 36.6405V55.0772L57.8767 61.1417H66.4508L72.5101 55.0772V36.6405L66.4508 30.5812Z" fill="url(#paint68_radial_7399_1407)"/>
<mask id="mask0_7399_1407" style="mask-type:luminance" maskUnits="userSpaceOnUse" x="51" y="30" width="22" height="32">
<path d="M66.4508 30.5812H57.8767L51.8174 36.6405V55.0772L57.8767 61.1417H66.4508L72.5101 55.0772V36.6405L66.4508 30.5812Z" fill="white"/>
</mask>
<g mask="url(#mask0_7399_1407)">
<path opacity="0.22" d="M72.5101 55.0772L69.8038 52.9143L65.3279 57.5506L66.1817 61.1417L72.5101 55.0772Z" fill="url(#paint69_radial_7399_1407)" style="mix-blend-mode:color-dodge"/>
<path opacity="0.7" d="M51.8173 36.6405L54.5236 38.8086V52.9143L51.8173 55.0772L50.6841 56.138L51.8173 36.6405Z" fill="url(#paint70_radial_7399_1407)" style="mix-blend-mode:color-dodge"/>
</g>
<path d="M65.328 34.1722H58.9996L54.5237 38.8086V52.9142L58.9996 57.5506H65.328L69.8039 52.9142V38.8086L65.328 34.1722Z" fill="url(#paint71_radial_7399_1407)"/>
<mask id="mask1_7399_1407" style="mask-type:luminance" maskUnits="userSpaceOnUse" x="54" y="34" width="16" height="24">
<path d="M65.328 34.1722H58.9996L54.5237 38.8086V52.9142L58.9996 57.5506H65.328L69.8039 52.9142V38.8086L65.328 34.1722Z" fill="white"/>
</mask>
<g mask="url(#mask1_7399_1407)">
<path opacity="0.22" d="M54.5237 38.8086L62.1612 45.3802L54.5237 50.0372V38.8086Z" fill="url(#paint72_radial_7399_1407)" style="mix-blend-mode:color-dodge"/>
<path opacity="0.22" d="M70.1039 30.0896L61.3125 35.5901L70.1039 41.3131V30.0896Z" fill="url(#paint73_radial_7399_1407)" style="mix-blend-mode:color-dodge"/>
<path opacity="0.55" d="M63.7032 34.1722L61.6023 45.2819L54.2908 50.1355V38.8086L58.7667 34.1722H63.7032Z" fill="url(#paint74_radial_7399_1407)" style="mix-blend-mode:color-dodge"/>
<path opacity="0.25" d="M76.0546 43.5432L72.5049 62.3266L60.1431 70.5333L62.1611 45.8614L69.8038 42.3065L76.0546 43.5432Z" fill="url(#paint75_radial_7399_1407)" style="mix-blend-mode:color-dodge"/>
</g>
<path opacity="0.7" d="M51.8174 36.6405L54.5236 38.8086L58.9996 34.1723L57.8767 30.5812L51.8174 36.6405Z" fill="url(#paint76_radial_7399_1407)" style="mix-blend-mode:color-dodge"/>
<path opacity="0.22" d="M72.5101 36.6405L69.8038 38.8086L65.3279 34.1723L66.4507 30.5812L72.5101 36.6405Z" fill="url(#paint77_radial_7399_1407)" style="mix-blend-mode:color-dodge"/>
<g style="mix-blend-mode:color-dodge">
<path d="M51.8174 55.0772C52.1951 54.627 52.6039 54.2131 53.0127 53.794C53.4266 53.3852 53.8458 52.9867 54.2753 52.5987L54.5236 52.371L54.8134 52.6297C55.2118 52.9919 55.5948 53.3696 55.988 53.737L57.1212 54.8806C57.8612 55.6619 58.5908 56.4485 59.279 57.2764L59.0047 57.1625C59.5325 57.1936 60.0603 57.2505 60.5881 57.3074C61.1159 57.3747 61.6437 57.4368 62.1715 57.5455C61.6437 57.6489 61.1159 57.7162 60.5881 57.7835C60.0603 57.8404 59.5325 57.8921 59.0047 57.9284L58.8702 57.9387L58.7305 57.8145C57.9284 57.1005 57.1626 56.3398 56.4123 55.574L55.305 54.3994C54.9479 53.9958 54.5857 53.6025 54.239 53.1885L54.7772 53.2248C54.3063 53.5559 53.8251 53.8819 53.3335 54.1924C52.8368 54.4977 52.3452 54.8082 51.8226 55.0772H51.8174Z" fill="url(#paint78_radial_7399_1407)"/>
</g>
<g style="mix-blend-mode:color-dodge" opacity="0.32">
<path d="M57.8768 61.1416C57.7733 60.7794 57.7681 60.4534 57.7837 60.1274C57.8095 59.8066 57.8664 59.4961 57.9596 59.196C58.0527 58.8959 58.1769 58.6061 58.3425 58.3319C58.5133 58.0576 58.7047 57.7886 58.9945 57.5505C59.098 57.9128 59.1031 58.2439 59.0876 58.5647C59.0618 58.8856 59.0048 59.196 58.9065 59.4961C58.8134 59.7963 58.6892 60.086 58.5236 60.3603C58.3528 60.6345 58.1614 60.9036 57.8716 61.1416H57.8768Z" fill="url(#paint79_radial_7399_1407)"/>
</g>
<g style="mix-blend-mode:color-dodge">
<path d="M56.7332 36.5215C56.1588 37.4374 55.4965 38.2756 54.8135 39.0932L54.9273 38.8138C55.0204 40.2368 55.0463 41.6597 54.9842 43.0827C54.9583 43.7968 54.9118 44.5057 54.8393 45.2198C54.7669 45.9339 54.6737 46.6428 54.5185 47.3568C54.3684 46.6428 54.2753 45.9339 54.1977 45.2198C54.1252 44.5057 54.0787 43.7968 54.0528 43.0827C53.9959 41.6597 54.0166 40.2368 54.1097 38.8138L54.1201 38.6223L54.2236 38.5292C55.0153 37.8203 55.8277 37.1321 56.7228 36.5215H56.7332Z" fill="url(#paint80_radial_7399_1407)"/>
</g>
<path opacity="0.22" d="M64.0032 56.138L66.0627 53.4886L62.8804 54.0785L64.0032 56.138Z" fill="url(#paint81_radial_7399_1407)" style="mix-blend-mode:color-dodge"/>
<path opacity="0.22" d="M56.2623 45.2818L58.3217 42.6273L55.1394 43.2172L56.2623 45.2818Z" fill="url(#paint82_radial_7399_1407)" style="mix-blend-mode:color-dodge"/>
</g>
<defs>
<linearGradient id="paint0_linear_7399_1407" x1="92.9699" y1="57.3694" x2="108.053" y2="9.5986" gradientUnits="userSpaceOnUse">
<stop offset="0.22" stop-color="#6FA4BA"/>
<stop offset="0.37" stop-color="#77A9BC"/>
<stop offset="0.6" stop-color="#90B7C3"/>
<stop offset="0.89" stop-color="#B7CECF"/>
<stop offset="1" stop-color="#C8D9D4"/>
</linearGradient>
<linearGradient id="paint1_linear_7399_1407" x1="98.5591" y1="42.9669" x2="106.262" y2="18.507" gradientUnits="userSpaceOnUse">
<stop stop-color="#DAEAE2"/>
<stop offset="0.2" stop-color="#B7D3D4"/>
<stop offset="0.45" stop-color="#90B9C6"/>
<stop offset="0.65" stop-color="#77A9BD"/>
<stop offset="0.78" stop-color="#6FA4BA"/>
</linearGradient>
<linearGradient id="paint2_linear_7399_1407" x1="99.3708" y1="40.9715" x2="106.087" y2="19.6992" gradientUnits="userSpaceOnUse">
<stop stop-color="#00BA77"/>
<stop offset="1" stop-color="#003D31"/>
</linearGradient>
<linearGradient id="paint3_linear_7399_1407" x1="103.66" y1="40.5317" x2="103.66" y2="17.5259" gradientUnits="userSpaceOnUse">
<stop stop-color="#486BB1"/>
<stop offset="0.99" stop-color="#92F9FF"/>
</linearGradient>
<linearGradient id="paint4_linear_7399_1407" x1="124.089" y1="23.5439" x2="124.089" y2="22.7263" gradientUnits="userSpaceOnUse">
<stop stop-color="#486BB1"/>
<stop offset="0.99" stop-color="#92F9FF"/>
</linearGradient>
<linearGradient id="paint5_linear_7399_1407" x1="107.412" y1="23.0367" x2="107.412" y2="20.377" gradientUnits="userSpaceOnUse">
<stop stop-color="#92F9FF"/>
<stop offset="1" stop-color="#486BB1"/>
</linearGradient>
<linearGradient id="paint6_linear_7399_1407" x1="107.448" y1="33.4478" x2="107.448" y2="26.1104" gradientUnits="userSpaceOnUse">
<stop stop-color="#486BB1"/>
<stop offset="0.99" stop-color="#92F9FF"/>
</linearGradient>
<linearGradient id="paint7_linear_7399_1407" x1="102.781" y1="33.6082" x2="111.386" y2="33.6082" gradientUnits="userSpaceOnUse">
<stop/>
<stop offset="0.99" stop-color="white"/>
</linearGradient>
<linearGradient id="paint8_linear_7399_1407" x1="114.744" y1="21.3292" x2="114.744" y2="12.0979" gradientUnits="userSpaceOnUse">
<stop/>
<stop offset="0.99" stop-color="white"/>
</linearGradient>
<linearGradient id="paint9_linear_7399_1407" x1="106.931" y1="40.4748" x2="106.931" y2="34.5397" gradientUnits="userSpaceOnUse">
<stop stop-color="#486BB1"/>
<stop offset="0.99" stop-color="#92F9FF"/>
</linearGradient>
<linearGradient id="paint10_linear_7399_1407" x1="55.9104" y1="99.5001" x2="68.8466" y2="77.0946" gradientUnits="userSpaceOnUse">
<stop stop-color="#00BA77"/>
<stop offset="1" stop-color="#003D31"/>
</linearGradient>
<linearGradient id="paint11_linear_7399_1407" x1="62.3578" y1="100.302" x2="62.3578" y2="82.062" gradientUnits="userSpaceOnUse">
<stop stop-color="#7BE9FF"/>
<stop offset="1" stop-color="#486BB1"/>
</linearGradient>
<linearGradient id="paint12_linear_7399_1407" x1="63.1753" y1="99.4794" x2="63.1753" y2="94.01" gradientUnits="userSpaceOnUse">
<stop/>
<stop offset="0.99" stop-color="#07E274"/>
</linearGradient>
<linearGradient id="paint13_linear_7399_1407" x1="62.7357" y1="94.1911" x2="62.7357" y2="85.2289" gradientUnits="userSpaceOnUse">
<stop stop-color="#92F9FF"/>
<stop offset="1" stop-color="#486BB1"/>
</linearGradient>
<linearGradient id="paint14_linear_7399_1407" x1="97.7047" y1="79.6973" x2="109.534" y2="42.2341" gradientUnits="userSpaceOnUse">
<stop offset="0.22" stop-color="#6FA4BA"/>
<stop offset="0.37" stop-color="#77A9BC"/>
<stop offset="0.6" stop-color="#90B7C3"/>
<stop offset="0.89" stop-color="#B7CECF"/>
<stop offset="1" stop-color="#C8D9D4"/>
</linearGradient>
<linearGradient id="paint15_linear_7399_1407" x1="90.7585" y1="67.5799" x2="98.4504" y2="47.8866" gradientUnits="userSpaceOnUse">
<stop stop-color="#DAEAE2"/>
<stop offset="0.2" stop-color="#B7D3D4"/>
<stop offset="0.45" stop-color="#90B9C6"/>
<stop offset="0.65" stop-color="#77A9BD"/>
<stop offset="0.78" stop-color="#6FA4BA"/>
</linearGradient>
<linearGradient id="paint16_linear_7399_1407" x1="90.8339" y1="65.9772" x2="97.6455" y2="48.528" gradientUnits="userSpaceOnUse">
<stop stop-color="#00BA77"/>
<stop offset="1" stop-color="#003D31"/>
</linearGradient>
<linearGradient id="paint17_linear_7399_1407" x1="106.708" y1="64.505" x2="106.708" y2="43.2327" gradientUnits="userSpaceOnUse">
<stop stop-color="#486BB1"/>
<stop offset="0.99" stop-color="#92F9FF"/>
</linearGradient>
<linearGradient id="paint18_linear_7399_1407" x1="111.66" y1="49.7112" x2="111.66" y2="42.4617" gradientUnits="userSpaceOnUse">
<stop/>
<stop offset="0.99" stop-color="white"/>
</linearGradient>
<linearGradient id="paint19_linear_7399_1407" x1="105.58" y1="50.6271" x2="105.58" y2="48.7488" gradientUnits="userSpaceOnUse">
<stop stop-color="#8FD8FF"/>
<stop offset="1" stop-color="#486BB1"/>
</linearGradient>
<linearGradient id="paint20_linear_7399_1407" x1="99.4019" y1="58.8907" x2="106.139" y2="58.8907" gradientUnits="userSpaceOnUse">
<stop/>
<stop offset="0.99" stop-color="white"/>
</linearGradient>
<linearGradient id="paint21_linear_7399_1407" x1="101.353" y1="64.5051" x2="101.353" y2="59.1288" gradientUnits="userSpaceOnUse">
<stop stop-color="#486BB1"/>
<stop offset="0.99" stop-color="#92F9FF"/>
</linearGradient>
<linearGradient id="paint22_linear_7399_1407" x1="93.0632" y1="78.709" x2="104.074" y2="43.8433" gradientUnits="userSpaceOnUse">
<stop offset="0.22" stop-color="#6FA4BA"/>
<stop offset="0.37" stop-color="#77A9BC"/>
<stop offset="0.6" stop-color="#90B7C3"/>
<stop offset="0.89" stop-color="#B7CECF"/>
<stop offset="1" stop-color="#C8D9D4"/>
</linearGradient>
<linearGradient id="paint23_linear_7399_1407" x1="95.1123" y1="77.9587" x2="95.1123" y2="65.9021" gradientUnits="userSpaceOnUse">
<stop stop-color="#486BB1"/>
<stop offset="0.99" stop-color="#92F9FF"/>
</linearGradient>
<linearGradient id="paint24_linear_7399_1407" x1="90.7192" y1="77.9328" x2="90.7192" y2="68.6239" gradientUnits="userSpaceOnUse">
<stop stop-color="#486BB1"/>
<stop offset="0.99" stop-color="#92F9FF"/>
</linearGradient>
<linearGradient id="paint25_linear_7399_1407" x1="32.1904" y1="57.3695" x2="17.1068" y2="9.59868" gradientUnits="userSpaceOnUse">
<stop offset="0.22" stop-color="#6FA4BA"/>
<stop offset="0.37" stop-color="#77A9BC"/>
<stop offset="0.6" stop-color="#90B7C3"/>
<stop offset="0.89" stop-color="#B7CECF"/>
<stop offset="1" stop-color="#C8D9D4"/>
</linearGradient>
<linearGradient id="paint26_linear_7399_1407" x1="33.9195" y1="42.9923" x2="26.1526" y2="18.5772" gradientUnits="userSpaceOnUse">
<stop stop-color="#DAEAE2"/>
<stop offset="0.2" stop-color="#B7D3D4"/>
<stop offset="0.45" stop-color="#90B9C6"/>
<stop offset="0.65" stop-color="#77A9BD"/>
<stop offset="0.78" stop-color="#6FA4BA"/>
</linearGradient>
<linearGradient id="paint27_linear_7399_1407" x1="25.7896" y1="40.9715" x2="19.0783" y2="19.6992" gradientUnits="userSpaceOnUse">
<stop stop-color="#00BA77"/>
<stop offset="1" stop-color="#003D31"/>
</linearGradient>
<linearGradient id="paint28_linear_7399_1407" x1="21.5" y1="-4.83955e-05" x2="21.5" y2="-4.83955e-05" gradientUnits="userSpaceOnUse">
<stop stop-color="#486BB1"/>
<stop offset="0.99" stop-color="#92F9FF"/>
</linearGradient>
<linearGradient id="paint29_linear_7399_1407" x1="1.07113" y1="23.5439" x2="1.07113" y2="22.7263" gradientUnits="userSpaceOnUse">
<stop stop-color="#486BB1"/>
<stop offset="0.99" stop-color="#92F9FF"/>
</linearGradient>
<linearGradient id="paint30_linear_7399_1407" x1="17.7484" y1="-6.9897e-05" x2="17.7484" y2="20.377" gradientUnits="userSpaceOnUse">
<stop stop-color="#92F9FF"/>
<stop offset="1" stop-color="#486BB1"/>
</linearGradient>
<linearGradient id="paint31_linear_7399_1407" x1="16.9516" y1="33.4478" x2="16.9516" y2="26.1104" gradientUnits="userSpaceOnUse">
<stop stop-color="#486BB1"/>
<stop offset="0.99" stop-color="#92F9FF"/>
</linearGradient>
<linearGradient id="paint32_linear_7399_1407" x1="22.3798" y1="-1.11855e-05" x2="13.7798" y2="-1.11855e-05" gradientUnits="userSpaceOnUse">
<stop/>
<stop offset="0.99" stop-color="white"/>
</linearGradient>
<linearGradient id="paint33_linear_7399_1407" x1="10.4163" y1="21.3292" x2="10.4163" y2="12.0979" gradientUnits="userSpaceOnUse">
<stop/>
<stop offset="0.99" stop-color="white"/>
</linearGradient>
<linearGradient id="paint34_linear_7399_1407" x1="18.2298" y1="40.4748" x2="18.2298" y2="34.5397" gradientUnits="userSpaceOnUse">
<stop stop-color="#486BB1"/>
<stop offset="0.99" stop-color="#92F9FF"/>
</linearGradient>
<linearGradient id="paint35_linear_7399_1407" x1="27.4557" y1="79.6973" x2="15.6268" y2="42.2341" gradientUnits="userSpaceOnUse">
<stop offset="0.22" stop-color="#6FA4BA"/>
<stop offset="0.37" stop-color="#77A9BC"/>
<stop offset="0.6" stop-color="#90B7C3"/>
<stop offset="0.89" stop-color="#B7CECF"/>
<stop offset="1" stop-color="#C8D9D4"/>
</linearGradient>
<linearGradient id="paint36_linear_7399_1407" x1="29.4222" y1="67.6716" x2="21.6856" y2="48.0184" gradientUnits="userSpaceOnUse">
<stop stop-color="#DAEAE2"/>
<stop offset="0.2" stop-color="#B7D3D4"/>
<stop offset="0.45" stop-color="#90B9C6"/>
<stop offset="0.65" stop-color="#77A9BD"/>
<stop offset="0.78" stop-color="#6FA4BA"/>
</linearGradient>
<linearGradient id="paint37_linear_7399_1407" x1="29.3522" y1="66.0738" x2="22.4908" y2="48.6556" gradientUnits="userSpaceOnUse">
<stop stop-color="#00BA77"/>
<stop offset="1" stop-color="#003D31"/>
</linearGradient>
<linearGradient id="paint38_linear_7399_1407" x1="18.4522" y1="64.505" x2="18.4522" y2="43.2327" gradientUnits="userSpaceOnUse">
<stop stop-color="#486BB1"/>
<stop offset="0.99" stop-color="#92F9FF"/>
</linearGradient>
<linearGradient id="paint39_linear_7399_1407" x1="13.5" y1="49.7112" x2="13.5" y2="42.4617" gradientUnits="userSpaceOnUse">
<stop/>
<stop offset="0.99" stop-color="white"/>
</linearGradient>
<linearGradient id="paint40_linear_7399_1407" x1="19.5803" y1="7.47905e-05" x2="19.5803" y2="7.47905e-05" gradientUnits="userSpaceOnUse">
<stop stop-color="#8FD8FF"/>
<stop offset="1" stop-color="#486BB1"/>
</linearGradient>
<linearGradient id="paint41_linear_7399_1407" x1="25.7584" y1="58.8907" x2="19.0212" y2="58.8907" gradientUnits="userSpaceOnUse">
<stop/>
<stop offset="0.99" stop-color="white"/>
</linearGradient>
<linearGradient id="paint42_linear_7399_1407" x1="23.8077" y1="64.5051" x2="23.8077" y2="59.1288" gradientUnits="userSpaceOnUse">
<stop stop-color="#486BB1"/>
<stop offset="0.99" stop-color="#92F9FF"/>
</linearGradient>
<linearGradient id="paint43_linear_7399_1407" x1="32.4131" y1="78.709" x2="21.4017" y2="43.8433" gradientUnits="userSpaceOnUse">
<stop offset="0.22" stop-color="#6FA4BA"/>
<stop offset="0.37" stop-color="#77A9BC"/>
<stop offset="0.6" stop-color="#90B7C3"/>
<stop offset="0.89" stop-color="#B7CECF"/>
<stop offset="1" stop-color="#C8D9D4"/>
</linearGradient>
<linearGradient id="paint44_linear_7399_1407" x1="30.364" y1="77.9587" x2="30.364" y2="65.9021" gradientUnits="userSpaceOnUse">
<stop stop-color="#486BB1"/>
<stop offset="0.99" stop-color="#92F9FF"/>
</linearGradient>
<linearGradient id="paint45_linear_7399_1407" x1="34.7571" y1="77.9328" x2="34.7571" y2="68.6239" gradientUnits="userSpaceOnUse">
<stop stop-color="#486BB1"/>
<stop offset="0.99" stop-color="#92F9FF"/>
</linearGradient>
<linearGradient id="paint46_linear_7399_1407" x1="55.5637" y1="93.7203" x2="69.245" y2="70.016" gradientUnits="userSpaceOnUse">
<stop offset="0.22" stop-color="#6FA4BA"/>
<stop offset="0.37" stop-color="#77A9BC"/>
<stop offset="0.6" stop-color="#90B7C3"/>
<stop offset="0.89" stop-color="#B7CECF"/>
<stop offset="1" stop-color="#C8D9D4"/>
</linearGradient>
<linearGradient id="paint47_linear_7399_1407" x1="62.2802" y1="93.7513" x2="62.2802" y2="75.5164" gradientUnits="userSpaceOnUse">
<stop stop-color="#7BE9FF"/>
<stop offset="1" stop-color="#486BB1"/>
</linearGradient>
<linearGradient id="paint48_linear_7399_1407" x1="62.3733" y1="84.8098" x2="62.3733" y2="76.4375" gradientUnits="userSpaceOnUse">
<stop stop-color="#92F9FF"/>
<stop offset="1" stop-color="#486BB1"/>
</linearGradient>
<linearGradient id="paint49_linear_7399_1407" x1="63.1805" y1="92.2611" x2="63.1805" y2="85.0685" gradientUnits="userSpaceOnUse">
<stop/>
<stop offset="0.99" stop-color="white"/>
</linearGradient>
<linearGradient id="paint50_linear_7399_1407" x1="43.0879" y1="77.7828" x2="75.6198" y2="21.4326" gradientUnits="userSpaceOnUse">
<stop offset="0.22" stop-color="#6FA4BA"/>
<stop offset="0.37" stop-color="#77A9BC"/>
<stop offset="0.6" stop-color="#90B7C3"/>
<stop offset="0.89" stop-color="#B7CECF"/>
<stop offset="1" stop-color="#C8D9D4"/>
</linearGradient>
<linearGradient id="paint51_linear_7399_1407" x1="49.0281" y1="68.4428" x2="71.6768" y2="29.215" gradientUnits="userSpaceOnUse">
<stop stop-color="#DAEAE2"/>
<stop offset="0.2" stop-color="#B7D3D4"/>
<stop offset="0.45" stop-color="#90B9C6"/>
<stop offset="0.65" stop-color="#77A9BD"/>
<stop offset="0.78" stop-color="#6FA4BA"/>
</linearGradient>
<linearGradient id="paint52_linear_7399_1407" x1="50.1045" y1="66.6524" x2="70.9628" y2="30.5345" gradientUnits="userSpaceOnUse">
<stop stop-color="#00BA77"/>
<stop offset="1" stop-color="#003D31"/>
</linearGradient>
<linearGradient id="paint53_linear_7399_1407" x1="83.8835" y1="29.8619" x2="102.62" y2="29.8619" gradientUnits="userSpaceOnUse">
<stop/>
<stop offset="0.99" stop-color="white"/>
</linearGradient>
<linearGradient id="paint54_linear_7399_1407" x1="62.4664" y1="20.4599" x2="62.4664" y2="6.34387" gradientUnits="userSpaceOnUse">
<stop/>
<stop offset="0.99" stop-color="white"/>
</linearGradient>
<linearGradient id="paint55_linear_7399_1407" x1="32.1076" y1="39.7865" x2="32.1076" y2="24.439" gradientUnits="userSpaceOnUse">
<stop/>
<stop offset="0.99" stop-color="white"/>
</linearGradient>
<linearGradient id="paint56_linear_7399_1407" x1="62.3474" y1="39.0156" x2="62.3474" y2="21.0032" gradientUnits="userSpaceOnUse">
<stop stop-color="#8FD8FF"/>
<stop offset="1" stop-color="#486BB1"/>
</linearGradient>
<linearGradient id="paint57_linear_7399_1407" x1="62.7665" y1="70.8801" x2="62.7665" y2="46.3427" gradientUnits="userSpaceOnUse">
<stop stop-color="#486BB1"/>
<stop offset="1" stop-color="#8FD8FF"/>
</linearGradient>
<linearGradient id="paint58_linear_7399_1407" x1="62.8234" y1="84.3698" x2="62.8234" y2="61.8763" gradientUnits="userSpaceOnUse">
<stop stop-color="#486BB1"/>
<stop offset="0.99" stop-color="#92F9FF"/>
</linearGradient>
<linearGradient id="paint59_linear_7399_1407" x1="47.6622" y1="83.9249" x2="47.6622" y2="65.9694" gradientUnits="userSpaceOnUse">
<stop stop-color="#486BB1"/>
<stop offset="0.99" stop-color="#92F9FF"/>
</linearGradient>
<linearGradient id="paint60_linear_7399_1407" x1="61.504" y1="26.3846" x2="61.504" y2="20.822" gradientUnits="userSpaceOnUse">
<stop stop-color="#8FD8FF"/>
<stop offset="1" stop-color="#486BB1"/>
</linearGradient>
<linearGradient id="paint61_linear_7399_1407" x1="61.8092" y1="71.6199" x2="61.8092" y2="63.2942" gradientUnits="userSpaceOnUse">
<stop stop-color="#486BB1"/>
<stop offset="1" stop-color="#8FD8FF"/>
</linearGradient>
<linearGradient id="paint62_linear_7399_1407" x1="70.4919" y1="72.6393" x2="70.4919" y2="68.003" gradientUnits="userSpaceOnUse">
<stop/>
<stop offset="0.99" stop-color="#FFFFC7"/>
</linearGradient>
<linearGradient id="paint63_linear_7399_1407" x1="59.3823" y1="15.1561" x2="65.9073" y2="3.85499" gradientUnits="userSpaceOnUse">
<stop stop-color="#84BFCB"/>
<stop offset="0.22" stop-color="#8CC3CC"/>
<stop offset="0.59" stop-color="#A5CFCF"/>
<stop offset="1" stop-color="#C8E0D4"/>
</linearGradient>
<linearGradient id="paint64_linear_7399_1407" x1="59.3823" y1="15.1612" x2="65.8814" y2="3.90156" gradientUnits="userSpaceOnUse">
<stop stop-color="#8CE2FF"/>
<stop offset="1" stop-color="#486BB1"/>
</linearGradient>
<linearGradient id="paint65_linear_7399_1407" x1="47.0411" y1="13.3502" x2="67.3199" y2="13.3502" gradientUnits="userSpaceOnUse">
<stop stop-color="#8FD8FF"/>
<stop offset="1" stop-color="#486BB1"/>
</linearGradient>
<linearGradient id="paint66_linear_7399_1407" x1="65.1259" y1="5.98168" x2="65.1259" y2="-2.76087e-05" gradientUnits="userSpaceOnUse">
<stop/>
<stop offset="0.99" stop-color="white"/>
</linearGradient>
<linearGradient id="paint67_linear_7399_1407" x1="64.1325" y1="9.58306" x2="64.1325" y2="3.47717" gradientUnits="userSpaceOnUse">
<stop/>
<stop offset="0.99" stop-color="white"/>
</linearGradient>
<radialGradient id="paint68_radial_7399_1407" cx="0" cy="0" r="1" gradientUnits="userSpaceOnUse" gradientTransform="translate(62.1612 45.7933) scale(13.05 18.4006)">
<stop offset="0.13" stop-color="#00996D"/>
<stop offset="0.17" stop-color="#009167"/>
<stop offset="0.34" stop-color="#007756"/>
<stop offset="0.5" stop-color="#00644A"/>
<stop offset="0.68" stop-color="#005943"/>
<stop offset="0.87" stop-color="#005641"/>
</radialGradient>
<radialGradient id="paint69_radial_7399_1407" cx="0" cy="0" r="1" gradientUnits="userSpaceOnUse" gradientTransform="translate(68.919 57.028) rotate(180) scale(3.86017)">
<stop stop-color="#9CDFEB"/>
<stop offset="0.34" stop-color="#9ADCE9"/>
<stop offset="0.55" stop-color="#93D4E2"/>
<stop offset="0.71" stop-color="#88C5D7"/>
<stop offset="0.86" stop-color="#78B2C7"/>
<stop offset="0.99" stop-color="#6498B3"/>
<stop offset="1" stop-color="#6397B2"/>
</radialGradient>
<radialGradient id="paint70_radial_7399_1407" cx="0" cy="0" r="1" gradientUnits="userSpaceOnUse" gradientTransform="translate(52.6038 46.3202) scale(7.02695 9.908)">
<stop stop-color="#9CDFEB"/>
<stop offset="0.34" stop-color="#9ADCE9"/>
<stop offset="0.55" stop-color="#93D4E2"/>
<stop offset="0.71" stop-color="#88C5D7"/>
<stop offset="0.86" stop-color="#78B2C7"/>
<stop offset="0.99" stop-color="#6498B3"/>
<stop offset="1" stop-color="#6397B2"/>
</radialGradient>
<radialGradient id="paint71_radial_7399_1407" cx="0" cy="0" r="1" gradientUnits="userSpaceOnUse" gradientTransform="translate(62.1612 45.7342) scale(14.0021 20.4431)">
<stop offset="0.13" stop-color="#00996D"/>
<stop offset="0.46" stop-color="#007D5A"/>
<stop offset="0.87" stop-color="#005641"/>
</radialGradient>
<radialGradient id="paint72_radial_7399_1407" cx="0" cy="0" r="1" gradientUnits="userSpaceOnUse" gradientTransform="translate(58.3424 44.4229) scale(4.80192 4.80192)">
<stop stop-color="#9CDFEB"/>
<stop offset="0.34" stop-color="#9ADCE9"/>
<stop offset="0.55" stop-color="#93D4E2"/>
<stop offset="0.71" stop-color="#88C5D7"/>
<stop offset="0.86" stop-color="#78B2C7"/>
<stop offset="0.99" stop-color="#6498B3"/>
<stop offset="1" stop-color="#6397B2"/>
</radialGradient>
<radialGradient id="paint73_radial_7399_1407" cx="0" cy="0" r="1" gradientUnits="userSpaceOnUse" gradientTransform="translate(65.7108 35.7039) rotate(180) scale(5.03995)">
<stop stop-color="#9CDFEB"/>
<stop offset="0.34" stop-color="#9ADCE9"/>
<stop offset="0.55" stop-color="#93D4E2"/>
<stop offset="0.71" stop-color="#88C5D7"/>
<stop offset="0.86" stop-color="#78B2C7"/>
<stop offset="0.99" stop-color="#6498B3"/>
<stop offset="1" stop-color="#6397B2"/>
</radialGradient>
<radialGradient id="paint74_radial_7399_1407" cx="0" cy="0" r="1" gradientUnits="userSpaceOnUse" gradientTransform="translate(47.626 26.157) scale(20.5272 20.5272)">
<stop stop-color="#9CDFEB"/>
<stop offset="0.34" stop-color="#9ADCE9"/>
<stop offset="0.55" stop-color="#93D4E2"/>
<stop offset="0.71" stop-color="#88C5D7"/>
<stop offset="0.86" stop-color="#78B2C7"/>
<stop offset="0.99" stop-color="#6498B3"/>
<stop offset="1" stop-color="#6397B2"/>
</radialGradient>
<radialGradient id="paint75_radial_7399_1407" cx="0" cy="0" r="1" gradientUnits="userSpaceOnUse" gradientTransform="translate(68.1014 56.4225) rotate(180) scale(11.4563 11.4563)">
<stop stop-color="#9CDFEB"/>
<stop offset="0.34" stop-color="#9ADCE9"/>
<stop offset="0.55" stop-color="#93D4E2"/>
<stop offset="0.71" stop-color="#88C5D7"/>
<stop offset="0.86" stop-color="#78B2C7"/>
<stop offset="0.99" stop-color="#6498B3"/>
<stop offset="1" stop-color="#6397B2"/>
</radialGradient>
<radialGradient id="paint76_radial_7399_1407" cx="0" cy="0" r="1" gradientUnits="userSpaceOnUse" gradientTransform="translate(55.4085 34.6434) scale(5.60914 7.90889)">
<stop stop-color="#9CDFEB"/>
<stop offset="0.34" stop-color="#9ADCE9"/>
<stop offset="0.55" stop-color="#93D4E2"/>
<stop offset="0.71" stop-color="#88C5D7"/>
<stop offset="0.86" stop-color="#78B2C7"/>
<stop offset="0.99" stop-color="#6498B3"/>
<stop offset="1" stop-color="#6397B2"/>
</radialGradient>
<radialGradient id="paint77_radial_7399_1407" cx="0" cy="0" r="1" gradientUnits="userSpaceOnUse" gradientTransform="translate(68.919 34.6434) rotate(180) scale(5.60914 7.90889)">
<stop stop-color="#9CDFEB"/>
<stop offset="0.34" stop-color="#9ADCE9"/>
<stop offset="0.55" stop-color="#93D4E2"/>
<stop offset="0.71" stop-color="#88C5D7"/>
<stop offset="0.86" stop-color="#78B2C7"/>
<stop offset="0.99" stop-color="#6498B3"/>
<stop offset="1" stop-color="#6397B2"/>
</radialGradient>
<radialGradient id="paint78_radial_7399_1407" cx="0" cy="0" r="1" gradientUnits="userSpaceOnUse" gradientTransform="translate(56.8366 53.9954) scale(4.28965 6.26289)">
<stop stop-color="#9CDFEB"/>
<stop offset="0.34" stop-color="#9ADCE9"/>
<stop offset="0.55" stop-color="#93D4E2"/>
<stop offset="0.71" stop-color="#88C5D7"/>
<stop offset="0.86" stop-color="#78B2C7"/>
<stop offset="0.99" stop-color="#6498B3"/>
<stop offset="1" stop-color="#6397B2"/>
</radialGradient>
<radialGradient id="paint79_radial_7399_1407" cx="0" cy="0" r="1" gradientUnits="userSpaceOnUse" gradientTransform="translate(58.4408 58.1882) scale(1.55752 2.27398)">
<stop stop-color="#9CDFEB"/>
<stop offset="0.34" stop-color="#9ADCE9"/>
<stop offset="0.55" stop-color="#93D4E2"/>
<stop offset="0.71" stop-color="#88C5D7"/>
<stop offset="0.86" stop-color="#78B2C7"/>
<stop offset="0.99" stop-color="#6498B3"/>
<stop offset="1" stop-color="#6397B2"/>
</radialGradient>
<radialGradient id="paint80_radial_7399_1407" cx="0" cy="0" r="1" gradientUnits="userSpaceOnUse" gradientTransform="translate(55.5586 41.7632) scale(4.09819 4.09819)">
<stop stop-color="#9CDFEB"/>
<stop offset="0.34" stop-color="#9ADCE9"/>
<stop offset="0.55" stop-color="#93D4E2"/>
<stop offset="0.71" stop-color="#88C5D7"/>
<stop offset="0.86" stop-color="#78B2C7"/>
<stop offset="0.99" stop-color="#6498B3"/>
<stop offset="1" stop-color="#6397B2"/>
</radialGradient>
<radialGradient id="paint81_radial_7399_1407" cx="0" cy="0" r="1" gradientUnits="userSpaceOnUse" gradientTransform="translate(64.4741 54.8133) scale(1.46438 1.46438)">
<stop stop-color="#9CDFEB"/>
<stop offset="0.34" stop-color="#9ADCE9"/>
<stop offset="0.55" stop-color="#93D4E2"/>
<stop offset="0.71" stop-color="#88C5D7"/>
<stop offset="0.86" stop-color="#78B2C7"/>
<stop offset="0.99" stop-color="#6498B3"/>
<stop offset="1" stop-color="#6397B2"/>
</radialGradient>
<radialGradient id="paint82_radial_7399_1407" cx="0" cy="0" r="1" gradientUnits="userSpaceOnUse" gradientTransform="translate(56.7331 43.952) scale(1.46438)">
<stop stop-color="#9CDFEB"/>
<stop offset="0.34" stop-color="#9ADCE9"/>
<stop offset="0.55" stop-color="#93D4E2"/>
<stop offset="0.71" stop-color="#88C5D7"/>
<stop offset="0.86" stop-color="#78B2C7"/>
<stop offset="0.99" stop-color="#6498B3"/>
<stop offset="1" stop-color="#6397B2"/>
</radialGradient>
<clipPath id="clip0_7399_1407">
<rect width="125" height="100.302" fill="white"/>
</clipPath>
</defs>
</svg>
