<svg width="110" height="94" viewBox="0 0 110 94" fill="none" xmlns="http://www.w3.org/2000/svg">
<g clip-path="url(#clip0_7399_1292)">
<path d="M88.2612 64.505C88.2612 64.505 97.7254 65.1777 101.456 63.8117C105.187 62.4456 108.612 50.9324 108.612 50.9324L88.2612 64.505Z" fill="#73BFFF"/>
<path d="M101.503 63.3046C98.9983 64.2515 88.2612 64.505 88.2612 64.505L91.754 43.6208C91.754 43.6208 93.0424 43.4501 94.926 43.2379C99.6451 42.7101 108.079 41.9133 109.14 42.8861C109.461 43.181 109.632 43.7502 109.678 44.5367C109.958 49.3231 105.508 61.7884 101.503 63.3149V63.3046Z" fill="url(#paint0_linear_7399_1292)"/>
<path d="M92.8717 49.1782C92.8717 49.1782 101.787 47.9984 102.62 48.7591C103.899 49.9285 101.228 57.8765 98.6102 58.8752C97.2079 59.4082 91.1848 59.5479 91.1848 59.5479L92.8717 49.1782Z" fill="url(#paint1_linear_7399_1292)"/>
<path d="M92.6544 49.7422C92.6544 49.7422 100.737 48.6711 101.492 49.3645C102.651 50.42 100.292 57.3435 97.9168 58.249C96.6439 58.7354 91.1848 58.8596 91.1848 58.8596L92.6544 49.7422Z" fill="url(#paint2_linear_7399_1292)"/>
<path opacity="0.6" d="M101.503 63.3046C98.9983 64.2515 88.2612 64.505 88.2612 64.505L91.754 43.6208C91.754 43.6208 93.0424 43.4501 94.926 43.2379C92.2197 45.6854 94.6828 48.3969 96.4887 48.5107C98.2945 48.6194 101.673 48.2675 102.62 48.7643C103.567 49.261 102.362 53.0539 102.362 53.0539C102.362 53.0539 102.444 51.9517 101.617 50.2493C100.789 48.5521 95.3658 49.7319 93.948 50.5909C92.5302 51.4498 91.7488 58.8493 91.7488 58.8493L91.3763 59.5531C91.3763 59.5531 96.5145 60.4224 99.1225 58.8649C99.1225 58.8649 99.5313 62.4715 101.27 62.6008C103.009 62.725 106.087 56.9658 107.785 52.0811C109.482 47.2016 109.668 44.5315 109.668 44.5315C109.947 49.3179 105.497 61.7833 101.492 63.3097L101.503 63.3046Z" fill="url(#paint3_linear_7399_1292)" style="mix-blend-mode:multiply"/>
<g opacity="0.3" style="mix-blend-mode:soft-light">
<path d="M95.5365 50.2441C92.1421 50.9737 92.3283 56.1275 96.1989 56.6812C100.069 57.2349 101.56 51.9258 101.228 50.4356C100.897 48.9453 97.1251 49.9026 95.5365 50.2441Z" fill="#6DE2DB"/>
</g>
<g opacity="0.3" style="mix-blend-mode:soft-light">
<path d="M94.6517 50.3787C91.7022 52.6813 95.0605 55.2531 97.6374 55.4652C100.214 55.6722 101.12 52.3553 101.228 50.4356C101.342 48.5159 95.9712 49.3541 94.6517 50.3787Z" fill="#6DE2DB"/>
</g>
<g opacity="0.6" style="mix-blend-mode:soft-light">
<path d="M96.4937 43.8019C94.1237 44.2004 94.2583 47.4344 94.9568 47.8587C95.6554 48.2882 101.523 48.1174 102.957 48.5004C104.385 48.8833 103.06 54.0785 101.678 56.7847C100.297 59.491 104.607 57.7265 106.434 54.4096C108.26 51.0928 110.072 45.1576 108.535 43.7968C106.998 42.441 96.4988 43.7968 96.4988 43.7968L96.4937 43.8019Z" fill="#CEE2DB"/>
</g>
<g opacity="0.6" style="mix-blend-mode:soft-light">
<path d="M95.4848 43.3414C93.0528 44.6868 93.7151 47.1188 94.4913 47.9467C95.2675 48.7746 100.075 47.569 102.119 48.5055C104.168 49.4421 107.976 48.1123 108.752 44.4125C109.528 40.7076 95.4848 43.3466 95.4848 43.3466V43.3414Z" fill="#CEE2DB"/>
</g>
<path d="M100.023 42.6894C100.023 42.6894 101.565 42.5859 102.175 43.0568C102.781 43.5276 102.284 46.3167 101.565 47.3154C100.846 48.3089 99.2415 48.5003 99.2415 48.5003C99.2415 48.5003 102.936 47.8846 102.983 49.7112C102.983 49.7112 102.988 47.305 104.851 44.961C106.713 42.6221 108.607 42.6376 108.607 42.6376C108.607 42.6376 105.741 42.2133 100.018 42.6894H100.023Z" fill="url(#paint4_linear_7399_1292)" style="mix-blend-mode:screen"/>
<path opacity="0.8" d="M93.596 49.6233C93.596 49.6233 99.4742 49.023 100.695 49.3749C101.917 49.7268 101.792 50.6271 101.792 50.6271C101.792 50.6271 102.227 49.5094 102.051 48.961C101.875 48.4125 96.9284 49.0334 93.5908 49.6233H93.596Z" fill="url(#paint5_linear_7399_1292)" style="mix-blend-mode:multiply"/>
<path d="M91.6712 59.5272L91.9454 58.839C91.9454 58.839 96.3437 58.8235 97.9168 58.2543C97.9168 58.2543 98.0824 58.8183 98.4032 58.9477C98.4032 58.9477 96.2558 59.5841 91.666 59.5324L91.6712 59.5272Z" fill="url(#paint6_linear_7399_1292)" style="mix-blend-mode:screen"/>
<path opacity="0.6" d="M90.6207 59.1288C90.6207 59.1288 89.8601 62.3887 90.1912 63.3719C90.5224 64.3498 99.6657 63.7237 99.6657 63.7237C95.9349 64.2153 92.0178 64.3447 87.5781 64.5051L90.6207 59.134V59.1288Z" fill="url(#paint7_linear_7399_1292)" style="mix-blend-mode:multiply"/>
<path d="M90.8845 59.1235L92.4317 49.5145L92.6231 49.4887C94.5481 49.2351 100.882 48.4589 101.668 49.1782C102.186 49.6491 102.087 50.8133 101.922 51.7085C101.477 54.0422 99.8312 57.7989 98.015 58.4923C96.7162 58.989 91.4227 59.1132 91.195 59.1184H90.8845V59.1235ZM92.8767 49.9699L91.4848 58.5957C92.649 58.5595 96.7783 58.4095 97.8235 58.011C99.2879 57.4574 100.928 54.1767 101.409 51.6102C101.642 50.3735 101.513 49.737 101.316 49.5559C100.902 49.1834 96.7317 49.4731 92.8715 49.9751L92.8767 49.9699Z" fill="#002801"/>
<path d="M96.7163 48.5055C96.7163 48.5055 102.739 47.9881 103.293 48.7487C103.852 49.5094 102.082 53.8715 102.082 53.8715C102.082 53.8715 103.422 50.151 102.807 49.1316C102.191 48.1123 96.7163 48.5055 96.7163 48.5055Z" fill="#F5F9F8"/>
<path d="M21.4326 64.505C21.4326 64.505 11.9685 65.1777 8.23766 63.8117C4.50685 62.4456 1.07617 50.9324 1.07617 50.9324L21.4274 64.505H21.4326Z" fill="#73BFFF"/>
<path d="M8.19113 63.3046C10.6956 64.2515 21.4378 64.505 21.4378 64.505L17.9399 43.6208C17.9399 43.6208 16.6462 43.4501 14.7679 43.2379C10.0488 42.7101 1.61436 41.9133 0.553594 42.8861C0.232776 43.181 0.0568437 43.7502 0.0154478 44.5367C-0.263974 49.3231 4.18608 61.7884 8.19113 63.3149V63.3046Z" fill="url(#paint8_linear_7399_1292)"/>
<path d="M16.8222 49.1782C16.8222 49.1782 7.90653 47.9984 7.07344 48.7591C5.79534 49.9285 8.46537 57.8765 11.0837 58.8752C12.4859 59.4082 18.5142 59.5479 18.5142 59.5479L16.8273 49.1782H16.8222Z" fill="url(#paint9_linear_7399_1292)"/>
<path d="M17.0396 49.7422C17.0396 49.7422 8.95702 48.6711 8.20155 49.3645C7.04246 50.42 9.40203 57.3435 11.7771 58.249C13.05 58.7354 18.5091 58.8596 18.5091 58.8596L17.0396 49.7422Z" fill="url(#paint10_linear_7399_1292)"/>
<path opacity="0.6" d="M8.19118 63.3046C10.6956 64.2515 21.4379 64.505 21.4379 64.505L17.9399 43.6208C17.9399 43.6208 16.6463 43.4501 14.7679 43.2379C17.4742 45.6854 15.0111 48.3969 13.2053 48.5107C11.3994 48.6194 8.02042 48.2675 7.07867 48.7643C6.13173 49.261 7.33739 53.0539 7.33739 53.0539C7.33739 53.0539 7.24942 51.9517 8.08251 50.2493C8.91043 48.5521 14.3385 49.7319 15.7511 50.5909C17.1689 51.4498 17.9503 58.8493 17.9503 58.8493L18.3228 59.5531C18.3228 59.5531 13.1846 60.4224 10.5766 58.8649C10.5766 58.8649 10.1678 62.4715 8.42921 62.6008C6.6854 62.725 3.61176 56.9658 1.91453 52.0811C0.201777 47.2016 0.0103209 44.5315 0.0103209 44.5315C-0.269101 49.3179 4.18095 61.7833 8.186 63.3097L8.19118 63.3046Z" fill="url(#paint11_linear_7399_1292)" style="mix-blend-mode:multiply"/>
<g opacity="0.3" style="mix-blend-mode:soft-light">
<path d="M14.1521 50.2441C17.5466 50.9737 17.3551 56.1275 13.4898 56.6812C9.62442 57.2349 8.12899 51.9258 8.46016 50.4356C8.79133 48.9453 12.5635 49.9026 14.1521 50.2441Z" fill="#6DE2DB"/>
</g>
<g opacity="0.3" style="mix-blend-mode:soft-light">
<path d="M15.037 50.3787C17.9865 52.6813 14.6283 55.2531 12.0514 55.4652C9.47448 55.6722 8.57412 52.3553 8.46028 50.4356C8.34644 48.5159 13.7176 49.3541 15.037 50.3787Z" fill="#6DE2DB"/>
</g>
<g opacity="0.6" style="mix-blend-mode:soft-light">
<path d="M13.2 43.8019C15.5699 44.2004 15.4354 47.4344 14.7368 47.8587C14.0383 48.2882 8.17042 48.1174 6.73709 48.5004C5.30893 48.8833 6.6336 54.0785 8.01518 56.7847C9.39677 59.491 5.08643 57.7265 3.26501 54.4096C1.43842 51.0928 -0.372654 45.1576 1.16417 43.7968C2.70099 42.441 13.2 43.7968 13.2 43.7968V43.8019Z" fill="#CEE2DB"/>
</g>
<g opacity="0.6" style="mix-blend-mode:soft-light">
<path d="M14.2091 43.3414C16.6411 44.6868 15.9788 47.1188 15.2026 47.9467C14.4265 48.7746 9.61938 47.569 7.57545 48.5055C5.53153 49.4421 1.71794 48.1123 0.941767 44.4125C0.170768 40.7076 14.2091 43.3466 14.2091 43.3466V43.3414Z" fill="#CEE2DB"/>
</g>
<path d="M9.67119 42.6894C9.67119 42.6894 8.12919 42.5859 7.52378 43.0568C6.91319 43.5276 7.41511 46.3167 8.12919 47.3154C8.84844 48.3089 10.4525 48.5003 10.4525 48.5003C10.4525 48.5003 6.75795 47.8846 6.71138 49.7112C6.71138 49.7112 6.70621 47.305 4.84339 44.961C2.98058 42.6221 1.08154 42.6376 1.08154 42.6376C1.08154 42.6376 3.94821 42.2133 9.67119 42.6894Z" fill="url(#paint12_linear_7399_1292)" style="mix-blend-mode:screen"/>
<path opacity="0.8" d="M16.0979 49.6233C16.0979 49.6233 10.2196 49.023 8.99847 49.3749C7.77729 49.7268 7.90148 50.6271 7.90148 50.6271C7.90148 50.6271 7.46682 49.5094 7.64276 48.961C7.81869 48.4125 12.7655 49.0334 16.103 49.6233H16.0979Z" fill="url(#paint13_linear_7399_1292)" style="mix-blend-mode:multiply"/>
<path d="M18.0226 59.5272L17.7432 58.839C17.7432 58.839 13.3448 58.8235 11.7718 58.2543C11.7718 58.2543 11.601 58.8183 11.2854 58.9477C11.2854 58.9477 13.4328 59.5841 18.0226 59.5324V59.5272Z" fill="url(#paint14_linear_7399_1292)" style="mix-blend-mode:screen"/>
<path opacity="0.6" d="M19.073 59.1288C19.073 59.1288 19.8388 62.3887 19.5025 63.3719C19.1713 64.3498 10.0332 63.7237 10.0332 63.7237C13.7588 64.2153 17.6759 64.3447 22.1156 64.5051L19.073 59.134V59.1288Z" fill="url(#paint15_linear_7399_1292)" style="mix-blend-mode:multiply"/>
<path d="M18.8093 59.1236H18.504C18.2815 59.1081 12.9828 58.9839 11.684 58.4872C9.86775 57.7938 8.22226 54.0371 7.77725 51.7034C7.6065 50.8082 7.51336 49.644 8.0308 49.1731C8.81215 48.459 15.1509 49.23 17.0758 49.4836L17.2673 49.5094L18.8144 59.1185L18.8093 59.1236ZM9.75908 49.3801C9.00878 49.3801 8.50168 49.4318 8.37232 49.5508C8.17052 49.7319 8.04115 50.3684 8.27918 51.6051C8.76558 54.1665 10.4059 57.4471 11.8651 58.0059C12.9155 58.4044 17.0396 58.5596 18.209 58.5907L16.8171 49.9648C14.1781 49.6233 11.389 49.3801 9.75908 49.3801Z" fill="#002801"/>
<path d="M12.9776 48.5055C12.9776 48.5055 6.95453 47.9881 6.40086 48.7487C5.84202 49.5094 7.61169 53.8715 7.61169 53.8715C7.61169 53.8715 6.2715 50.151 6.88726 49.1316C7.50303 48.1123 12.9776 48.5055 12.9776 48.5055Z" fill="#F5F9F8"/>
<path d="M80.3958 83.3972C80.313 83.837 77.141 85.4721 73.0221 87.3194C73.0221 87.3194 72.9911 87.3298 72.929 87.3557C66.3626 90.2999 57.4625 93.7513 54.9166 93.7513C51.1548 93.7513 33.5201 86.2173 30.0325 83.9301C30.0274 83.9301 30.0222 83.9301 30.0222 83.9301C29.66 83.6973 29.4582 83.5162 29.4375 83.4075C29.2305 82.264 31.7298 75.5216 31.7298 75.5216L54.9218 82.2795L78.119 75.5216C78.119 75.5216 79.0142 77.9484 79.6869 80.1321C80.1371 81.5965 80.4889 82.947 80.4061 83.4075L80.3958 83.3972Z" fill="url(#paint16_linear_7399_1292)"/>
<path opacity="0.6" d="M79.6766 80.1217C78.3985 78.0623 55.4962 84.3648 54.9115 85.4359C54.3216 86.5122 54.2233 92.0437 55.4445 92.763C56.6087 93.446 71.5992 87.8472 72.9291 87.3556C66.3626 90.2999 57.4625 93.7513 54.9167 93.7513C50.7512 93.7513 29.6393 84.5407 29.4323 83.3971C29.2254 82.2536 31.7246 75.5112 31.7246 75.5112L54.9167 82.2691L78.1139 75.5112C78.1139 75.5112 79.0091 77.9381 79.6818 80.1217H79.6766Z" fill="url(#paint17_linear_7399_1292)" style="mix-blend-mode:multiply"/>
<path opacity="0.8" d="M30.2447 79.8112C29.4272 83.4023 50.3631 85.8964 55.4445 84.3441C60.5258 82.7917 79.0505 78.1192 79.0505 78.1192L78.4295 76.4426C78.4295 76.4426 60.324 83.2367 55.0409 83.2367C49.7577 83.2367 31.1399 77.1308 31.1399 77.1308L30.2396 79.8164L30.2447 79.8112Z" fill="url(#paint18_linear_7399_1292)" style="mix-blend-mode:multiply"/>
<g opacity="0.3" style="mix-blend-mode:soft-light">
<path d="M54.9115 85.4359C54.5079 87.873 55.2478 92.9854 56.2982 92.7784C57.3487 92.5715 74.2123 87.5884 76.1527 85.5963C78.0932 83.6093 77.5602 78.4917 77.5602 78.4917C77.5602 78.4917 57.2659 82.6261 54.9063 85.4359H54.9115Z" fill="#CEE2DB"/>
</g>
<path d="M54.9115 85.4359C54.6993 86.1034 54.5441 92.1783 55.6773 92.2559C56.2051 92.2921 56.1275 85.2238 56.1275 85.2238C56.1275 85.2238 55.4806 84.7529 54.9115 85.4308V85.4359Z" fill="url(#paint19_linear_7399_1292)" style="mix-blend-mode:screen"/>
<path d="M80.3957 83.3971C80.3129 83.8369 77.141 85.4721 73.0221 87.3194C73.0221 87.3194 72.991 87.3297 72.9289 87.3556C66.3625 90.2999 57.4624 93.7512 54.9166 93.7512C51.1547 93.7512 33.5201 86.2172 30.0325 83.9301C30.5965 84.1991 48.6968 92.9595 55.108 92.944C61.6227 92.9233 80.4009 83.4023 80.4009 83.4023L80.3957 83.3971Z" fill="#73BFFF"/>
<g opacity="0.6" style="mix-blend-mode:soft-light">
<path d="M56.3654 92.7837C54.1456 90.45 55.3253 85.4359 56.1326 84.8098C56.9398 84.1837 71.1593 79.7181 72.1993 80.6236C73.2394 81.5292 68.4944 88.5096 64.7067 90.0723C60.919 91.635 56.3654 92.7837 56.3654 92.7837Z" fill="#CEE2DB"/>
</g>
<path d="M90.7345 61.8298C90.7345 61.8298 90.7294 61.8453 90.719 61.8816C89.7307 65.6693 88.7475 68.6601 87.9817 70.0159C84.8925 75.4749 59.3202 84.3751 54.9116 84.3751C50.5029 84.3751 24.9306 75.4749 21.8466 70.0159C21.1688 68.8154 20.3202 66.3471 19.4508 63.1752C19.4457 63.1597 19.4405 63.1493 19.4405 63.1493C16.341 51.8534 12.9155 31.704 15.6683 28.5527C19.1973 24.5063 50.4977 5.90401 54.9064 6.30762C59.3151 5.90401 90.6207 24.5063 94.1445 28.5527C96.7939 31.5901 93.7306 50.3528 90.7294 61.835L90.7345 61.8298Z" fill="url(#paint20_linear_7399_1292)"/>
<path d="M82.2276 34.167C79.7698 31.3521 57.98 18.3952 54.9115 18.6798C51.8431 18.4004 30.0481 31.3521 27.5954 34.167C25.1376 36.9819 29.7428 59.2322 31.8903 63.0303C34.0377 66.8335 51.8431 73.0274 54.9115 73.0274C57.98 73.0274 75.7802 66.8335 77.9328 63.0303C80.0802 59.227 84.6855 36.9819 82.2276 34.167Z" fill="url(#paint21_linear_7399_1292)"/>
<path d="M79.9664 46.296C79.9664 46.296 79.9665 46.3115 79.9561 46.3477C78.9626 52.733 77.1981 59.7548 76.1115 61.6745C74.1348 65.1777 57.742 70.8851 54.9116 70.8851C52.0812 70.8851 35.6936 65.1828 33.7169 61.6745C32.7182 59.9049 31.1348 53.7886 30.1103 47.838C30.0948 47.7655 30.0896 47.7345 30.0896 47.7345C29.1064 41.9598 28.6459 36.3713 29.7533 35.1036C32.0145 32.5111 52.0863 20.5788 54.9116 20.8427C57.742 20.584 77.8087 32.5111 80.0648 35.1036C81.079 36.2678 80.7788 41.0646 79.9664 46.3012V46.296Z" fill="url(#paint22_linear_7399_1292)"/>
<g opacity="0.6" style="mix-blend-mode:soft-light">
<path d="M15.3112 29.1943C14.6696 32.6354 25.7637 34.5447 25.7637 34.5447C25.7637 34.5447 44.7075 19.8596 53.9284 18.6746C63.1493 17.4896 83.8576 34.0376 83.8576 34.0376C83.8576 34.0376 91.4382 30.5035 92.0695 28.2267C92.7008 25.9551 61.8971 6.85091 55.0668 6.98027C48.2365 7.10446 15.8856 26.0948 15.3112 29.1943Z" fill="#CEE2DB"/>
</g>
<g opacity="0.6" style="mix-blend-mode:soft-light">
<path d="M55.8017 6.38C52.7953 8.49637 54.9375 18.6798 54.9375 18.6798C54.9375 18.6798 71.3769 25.0288 81.7414 33.6702C81.7414 33.6702 91.8471 28.7907 91.8937 27.7092C91.9351 26.6226 71.32 12.3151 55.8069 6.38H55.8017Z" fill="#CEE2DB"/>
</g>
<path d="M76.1477 29.717C76.1477 29.717 79.9458 32.2059 82.533 31.8282C85.1203 31.4505 88.8459 28.3561 89.0994 26.5864C89.353 24.8168 87.5419 23.5542 87.5419 23.5542C87.5419 23.5542 94.2325 27.5541 94.8845 30.2862C94.8845 30.2862 93.4098 29.6808 91.8833 30.3742C90.362 31.0675 82.9521 36.1644 82.9521 36.1644C82.9521 36.1644 83.1695 35.3055 82.2536 34.1671C81.3325 33.0287 76.1477 29.717 76.1477 29.717Z" fill="url(#paint23_linear_7399_1292)" style="mix-blend-mode:screen"/>
<path d="M59.8946 7.85999C58.0784 7.67371 56.6088 11.6943 57.1521 15.2181C57.5816 18.0072 59.8946 20.4599 59.8946 20.4599C59.8946 20.4599 54.6891 17.2103 51.3153 19.8389C51.3153 19.8389 52.5934 14.2712 52.2623 11.4304C51.9311 8.58959 49.5715 8.16011 49.5715 8.16011C49.5715 8.16011 52.4485 6.67503 54.063 6.37491C55.6774 6.07479 59.8946 7.85482 59.8946 7.85482V7.85999Z" fill="url(#paint24_linear_7399_1292)" style="mix-blend-mode:screen"/>
<path d="M20.8997 24.439C20.8997 24.439 18.3124 26.7106 17.9968 27.911C17.6811 29.1115 25.1428 31.497 27.404 31.5746C29.6653 31.647 34.105 29.4686 34.105 29.4686C34.105 29.4686 28.708 32.713 27.611 34.167C26.5192 35.6158 26.9073 39.7865 26.9073 39.7865C26.9073 39.7865 25.8206 36.3765 24.7495 35.4296C23.6732 34.4826 16.4755 31.766 15.7821 31.766C15.0887 31.766 14.68 33.4736 14.68 33.4736C14.68 33.4736 14.3798 31.171 15.3061 29.1995C16.2271 27.2228 20.8997 24.4441 20.8997 24.4441V24.439Z" fill="url(#paint25_linear_7399_1292)" style="mix-blend-mode:screen"/>
<path d="M29.0184 32.9355C29.0184 32.9355 48.5313 19.6733 53.9283 18.6798C59.3253 17.6863 80.8305 32.9355 80.8305 32.9355C80.8305 32.9355 61.2347 18.0743 54.7304 17.5879C50.9582 17.3033 29.0132 32.9355 29.0132 32.9355H29.0184Z" fill="#F5F9F8"/>
<path d="M20.8997 24.439C20.8997 24.439 48.904 6.50942 55.0668 6.9803C61.2244 7.45635 88.3335 24.0509 88.3335 24.0509C88.3335 24.0509 61.6228 6.31279 54.9322 6.30762C48.7487 6.30244 20.8997 24.4442 20.8997 24.4442V24.439Z" fill="#F5F9F8"/>
<path d="M52.9143 7.27521C52.0347 8.87413 54.0217 10.5817 55.8224 10.3903C57.6231 10.1988 60.6657 8.83791 60.6657 8.83791C60.6657 8.83791 57.9594 5.67112 52.9091 7.27004L52.9143 7.27521Z" fill="white"/>
<path opacity="0.8" d="M27.2281 34.8863C26.1777 37.7375 29.1272 39.3054 29.1272 39.3054C27.6628 37.1321 40.7076 24.3149 54.9168 23.8078C67.3148 23.3679 81.079 37.0027 80.7168 39.3054C80.7168 39.3054 82.2794 36.0661 82.2329 34.1671C82.1863 32.2681 59.1857 18.9179 54.9168 18.6799C50.6478 18.4418 27.8698 33.1425 27.2281 34.8863Z" fill="url(#paint26_linear_7399_1292)" style="mix-blend-mode:multiply"/>
<g opacity="0.3" style="mix-blend-mode:soft-light">
<path d="M36.0558 32.5578C26.1984 43.0517 35.7246 57.7006 51.3981 62.3939C67.0716 67.0871 79.9406 48.816 78.678 38.2083C77.4154 27.6006 50.1355 17.5673 36.0558 32.5578Z" fill="#6DE2DB"/>
</g>
<g opacity="0.3" style="mix-blend-mode:soft-light">
<path d="M53.8923 24.3096C33.8256 29.4272 39.4037 47.7397 51.0256 52.6968C62.6475 57.654 75.3095 50.6736 75.8166 38.3583C76.3237 26.0482 53.8923 24.3044 53.8923 24.3044V24.3096Z" fill="#6DE2DB"/>
</g>
<path opacity="0.5" d="M79.9561 46.3427C78.9626 52.728 77.1981 59.7497 76.1115 61.6695C74.1349 65.1726 57.7421 70.8801 54.9117 70.8801C52.0812 70.8801 35.6936 65.1778 33.717 61.6695C32.7183 59.8998 31.1349 53.7836 30.1104 47.8329C30.3225 48.8782 32.1077 57.297 33.9705 59.6669C35.9575 62.2024 49.1628 67.0665 55.4032 67.3511C61.6488 67.6305 72.2772 64.5982 75.4595 60.3396C78.4918 56.288 79.8216 47.0153 79.9561 46.3427Z" fill="url(#paint27_linear_7399_1292)" style="mix-blend-mode:multiply"/>
<path opacity="0.3" d="M90.7191 61.8763C89.7308 65.6641 88.7476 68.6549 87.9818 70.0106C84.8926 75.4697 59.3203 84.3698 54.9117 84.3698C50.503 84.3698 24.9307 75.4697 21.8467 70.0106C21.1689 68.8102 20.3202 66.3419 19.4509 63.17C19.5906 63.5787 21.5311 69.1931 23.1714 70.2228C24.8738 71.2939 31.2746 63.8064 31.2746 63.8064C31.2746 63.8064 45.3544 72.7738 54.9117 73.0274C64.4689 73.2809 77.9329 63.0303 77.9329 63.0303C77.9329 63.0303 82.5641 70.9576 85.4049 70.2228C88.1112 69.5242 90.5018 62.5283 90.7191 61.8763Z" fill="url(#paint28_linear_7399_1292)" style="mix-blend-mode:multiply"/>
<path opacity="0.3" d="M25.7637 72.748C24.941 71.9925 29.9706 66.43 31.2746 65.9901C32.5837 65.5503 52.4744 73.0636 53.1678 73.6949C53.8612 74.3262 54.1768 83.9249 54.1768 83.9249C54.1768 83.9249 38.0117 80.7064 25.7586 72.748H25.7637Z" fill="url(#paint29_linear_7399_1292)" style="mix-blend-mode:multiply"/>
<path opacity="0.8" d="M43.8228 25.893C43.8228 25.893 51.3878 22.2295 55.0876 22.4209C58.7874 22.6124 63.7135 24.6304 63.7135 24.6304C63.7135 24.6304 57.3023 20.3977 54.7306 20.4598C52.1537 20.5219 43.8228 25.893 43.8228 25.893Z" fill="url(#paint30_linear_7399_1292)" style="mix-blend-mode:multiply"/>
<path opacity="0.8" d="M34.6794 62.7509C34.6794 62.7509 48.842 69.5243 54.5857 69.7157C60.3294 69.9072 73.4674 63.941 73.4674 63.941C73.4674 63.941 60.2517 70.9058 54.9117 70.88C49.5664 70.8541 35.4556 64.505 34.6794 62.7509Z" fill="url(#paint31_linear_7399_1292)" style="mix-blend-mode:multiply"/>
<path d="M54.9116 71.1388C52.0294 71.1388 35.5176 65.3796 33.4892 61.7988C32.4905 60.0343 30.8968 53.9181 29.8567 47.8795C29.8412 47.807 29.836 47.7656 29.836 47.7656C29.1375 43.6623 28.1647 36.5267 29.5618 34.9277C31.7402 32.4336 51.8017 20.2943 54.9323 20.5789C58.0318 20.3098 78.0829 32.4336 80.2562 34.9277C81.4722 36.3249 80.903 41.8978 80.2148 46.3323V46.3633C79.2058 52.7901 77.4309 59.8429 76.3287 61.7937C74.3055 65.3744 57.7886 71.1336 54.9064 71.1336L54.9116 71.1388ZM54.8443 21.086C51.7603 21.086 32.268 32.6096 29.9498 35.2641C29.0443 36.299 29.1944 40.9405 30.3431 47.688C30.3431 47.6984 30.3483 47.7294 30.3586 47.7812C31.3935 53.7836 32.9614 59.8222 33.9342 61.5453C35.8332 64.9035 52.1432 70.6265 54.9064 70.6265C57.6696 70.6265 73.9899 64.9035 75.8837 61.5453C76.96 59.6411 78.709 52.6607 79.6973 46.3064L79.7077 46.2547C80.6287 40.3196 80.6908 36.211 79.8681 35.2641C77.5292 32.5785 57.6385 20.8221 54.9271 21.086C54.896 21.086 54.865 21.086 54.8339 21.086H54.8443Z" fill="#002801"/>
<path d="M22.4985 70.88C22.4985 70.88 44.5574 84.0491 54.6528 83.9249C64.7534 83.7955 87.3245 70.88 87.3245 70.88C85.6738 73.9019 61.8764 84.0232 54.9115 84.3699C47.9466 84.7166 22.7728 74.0675 22.4985 70.88Z" fill="#73BFFF"/>
<path d="M55.2117 72.7117C56.6812 71.9718 56.1069 71.0248 56.1069 71.0248L67.0095 67.4027C67.0095 67.4027 68.5774 68.3703 70.3056 67.7805C70.3056 67.7805 59.3771 72.7428 55.2117 72.7117Z" fill="url(#paint32_linear_7399_1292)" style="mix-blend-mode:screen"/>
<path d="M58.7149 14.9284C57.5507 15.9115 60.8882 15.9788 62.0887 15.5389C63.2892 15.0991 61.8506 12.3359 61.8506 12.3359C61.8506 12.3359 59.4238 14.3281 58.7149 14.9284Z" fill="white"/>
<path d="M63.703 9.59349C63.8686 10.4214 55.9154 17.3086 54.7511 17.1017C53.5869 16.905 46.6634 11.5287 46.1563 9.58314C45.8458 8.40854 53.592 0 54.7511 0C55.7187 0 61.1933 6.10589 63.0717 8.60517C63.4442 9.10192 63.6771 9.45378 63.703 9.58832V9.59349Z" fill="url(#paint33_linear_7399_1292)"/>
<path opacity="0.6" d="M63.703 9.59349C63.8686 10.4214 55.9154 17.3086 54.7511 17.1017C53.5869 16.905 46.6634 11.5287 46.1563 9.58314C45.8458 8.40854 53.592 0 54.7511 0C54.7511 0 53.1005 15.1302 54.6114 16.1185C56.5725 17.3966 62.9734 9.96088 63.0665 8.61034C63.4391 9.10709 63.6719 9.45378 63.6978 9.58832L63.703 9.59349Z" fill="url(#paint34_linear_7399_1292)" style="mix-blend-mode:multiply"/>
<g opacity="0.6" style="mix-blend-mode:soft-light">
<path d="M55.8067 0.65195C53.7059 0.615729 54.451 10.9595 55.1651 13.8003C55.8843 16.6411 62.3162 9.77457 62.5077 8.92078C62.6991 8.06699 55.8067 0.65195 55.8067 0.65195Z" fill="#CEE2DB"/>
</g>
<g opacity="0.6" style="mix-blend-mode:soft-light">
<path d="M54.9271 0.351807C54.9271 0.351807 53.5558 12.8068 54.6477 14.2763C55.7343 15.7459 59.7135 12.8068 60.8053 9.35023C61.8971 5.89368 54.9323 0.351807 54.9323 0.351807H54.9271Z" fill="#CEE2DB"/>
</g>
<path opacity="0.8" d="M46.1563 9.58313C46.1563 9.58313 40.247 12.7137 39.3467 13.8003C38.4463 14.887 52.7331 17.3242 54.7511 17.1017C56.7743 16.8792 59.5841 13.8521 59.5841 13.8521C59.5841 13.8521 56.2517 16.5014 54.6425 16.5946C53.0332 16.6929 46.1511 9.58313 46.1511 9.58313H46.1563Z" fill="url(#paint35_linear_7399_1292)" style="mix-blend-mode:multiply"/>
<path d="M54.4302 5.98168C56.2464 1.49022 60.3602 5.33487 60.3602 5.33487C60.3602 5.33487 55.1546 -0.150088 54.7562 -2.79104e-05C54.3578 0.150032 54.4302 5.98168 54.4302 5.98168Z" fill="url(#paint36_linear_7399_1292)" style="mix-blend-mode:screen"/>
<path d="M56.4794 3.47717C53.3229 3.47717 56.5466 9.58306 56.5466 9.58306C56.5466 9.58306 59.1908 3.47717 56.4794 3.47717Z" fill="url(#paint37_linear_7399_1292)" style="mix-blend-mode:screen"/>
<path d="M59.015 30.5812H50.446L44.3867 36.6405V55.0772L50.446 61.1417H59.015L65.0795 55.0772V36.6405L59.015 30.5812Z" fill="url(#paint38_radial_7399_1292)"/>
<mask id="mask0_7399_1292" style="mask-type:luminance" maskUnits="userSpaceOnUse" x="44" y="30" width="22" height="32">
<path d="M59.015 30.5812H50.446L44.3867 36.6405V55.0772L50.446 61.1417H59.015L65.0795 55.0772V36.6405L59.015 30.5812Z" fill="white"/>
</mask>
<g mask="url(#mask0_7399_1292)">
<path opacity="0.22" d="M65.0794 55.0772L62.3731 52.9143L57.8972 57.5506L58.751 61.1417L65.0794 55.0772Z" fill="url(#paint39_radial_7399_1292)" style="mix-blend-mode:color-dodge"/>
<path opacity="0.7" d="M44.3866 36.6405L47.0929 38.8086V52.9143L44.3866 55.0772L43.2534 56.138L44.3866 36.6405Z" fill="url(#paint40_radial_7399_1292)" style="mix-blend-mode:color-dodge"/>
</g>
<path d="M57.8973 34.1722H51.5689L47.093 38.8086V52.9142L51.5689 57.5506H57.8973L62.3733 52.9142V38.8086L57.8973 34.1722Z" fill="url(#paint41_radial_7399_1292)"/>
<mask id="mask1_7399_1292" style="mask-type:luminance" maskUnits="userSpaceOnUse" x="47" y="34" width="16" height="24">
<path d="M57.8973 34.1722H51.5689L47.093 38.8086V52.9142L51.5689 57.5506H57.8973L62.3733 52.9142V38.8086L57.8973 34.1722Z" fill="white"/>
</mask>
<g mask="url(#mask1_7399_1292)">
<path opacity="0.22" d="M47.093 38.8086L54.7306 45.3802L47.093 50.0372V38.8086Z" fill="url(#paint42_radial_7399_1292)" style="mix-blend-mode:color-dodge"/>
<path opacity="0.22" d="M62.6733 30.0896L53.8818 35.5901L62.6733 41.3131V30.0896Z" fill="url(#paint43_radial_7399_1292)" style="mix-blend-mode:color-dodge"/>
<path opacity="0.55" d="M56.2725 34.1722L54.1717 45.2819L46.8601 50.1355V38.8086L51.336 34.1722H56.2725Z" fill="url(#paint44_radial_7399_1292)" style="mix-blend-mode:color-dodge"/>
<path opacity="0.25" d="M68.6239 43.5432L65.0742 62.3266L52.7124 70.5333L54.7304 45.8614L62.3732 42.3065L68.6239 43.5432Z" fill="url(#paint45_radial_7399_1292)" style="mix-blend-mode:color-dodge"/>
</g>
<path opacity="0.7" d="M44.3867 36.6405L47.093 38.8086L51.5689 34.1723L50.446 30.5812L44.3867 36.6405Z" fill="url(#paint46_radial_7399_1292)" style="mix-blend-mode:color-dodge"/>
<path opacity="0.22" d="M65.0794 36.6405L62.3731 38.8086L57.8972 34.1723L59.0149 30.5812L65.0794 36.6405Z" fill="url(#paint47_radial_7399_1292)" style="mix-blend-mode:color-dodge"/>
<g style="mix-blend-mode:color-dodge">
<path d="M44.3867 55.0772C44.7645 54.627 45.1732 54.2131 45.582 53.794C45.996 53.3852 46.4151 52.9867 46.8446 52.5987L47.093 52.371L47.3827 52.6297C47.7812 52.9919 48.1641 53.3696 48.5574 53.737L49.6906 54.8806C50.4305 55.6619 51.1601 56.4485 51.8483 57.2764L51.5741 57.1625C52.1019 57.1936 52.6297 57.2505 53.1575 57.3074C53.6853 57.3747 54.2131 57.4368 54.7409 57.5455C54.2131 57.6489 53.6853 57.7162 53.1575 57.7835C52.6297 57.8404 52.1019 57.8921 51.5741 57.9284L51.4395 57.9387L51.2998 57.8145C50.4978 57.1005 49.732 56.3398 48.9817 55.574L47.8743 54.3994C47.5173 53.9958 47.1551 53.6025 46.8084 53.1885L47.3465 53.2248C46.8756 53.5559 46.3944 53.8819 45.9028 54.1924C45.4061 54.4977 44.9145 54.8082 44.3919 55.0772H44.3867Z" fill="url(#paint48_radial_7399_1292)"/>
</g>
<g style="mix-blend-mode:color-dodge" opacity="0.32">
<path d="M50.4461 61.1416C50.3426 60.7794 50.3375 60.4534 50.353 60.1274C50.3789 59.8066 50.4358 59.4961 50.5289 59.196C50.6221 58.8959 50.7462 58.6061 50.9118 58.3319C51.0826 58.0576 51.274 57.7886 51.5638 57.5505C51.6673 57.9128 51.6725 58.2439 51.657 58.5647C51.6311 58.8856 51.5742 59.196 51.4759 59.4961C51.3827 59.7963 51.2585 60.086 51.0929 60.3603C50.9222 60.6345 50.7307 60.9036 50.441 61.1416H50.4461Z" fill="url(#paint49_radial_7399_1292)"/>
</g>
<g style="mix-blend-mode:color-dodge">
<path d="M49.3025 36.5215C48.7282 37.4374 48.0658 38.2756 47.3828 39.0932L47.4966 38.8138C47.5898 40.2368 47.6156 41.6597 47.5536 43.0827C47.5277 43.7968 47.4811 44.5057 47.4087 45.2198C47.3362 45.9339 47.2431 46.6428 47.0878 47.3569C46.9378 46.6428 46.8446 45.9339 46.767 45.2198C46.6946 44.5057 46.648 43.7968 46.6221 43.0827C46.5652 41.6597 46.5859 40.2368 46.6791 38.8138L46.6894 38.6223L46.7929 38.5292C47.5846 37.8203 48.397 37.1321 49.2922 36.5215H49.3025Z" fill="url(#paint50_radial_7399_1292)"/>
</g>
<path opacity="0.22" d="M56.5674 56.138L58.632 53.4886L55.4497 54.0785L56.5674 56.138Z" fill="url(#paint51_radial_7399_1292)" style="mix-blend-mode:color-dodge"/>
<path opacity="0.22" d="M48.8264 45.2818L50.891 42.6273L47.7087 43.2172L48.8264 45.2818Z" fill="url(#paint52_radial_7399_1292)" style="mix-blend-mode:color-dodge"/>
</g>
<defs>
<linearGradient id="paint0_linear_7399_1292" x1="89.9688" y1="79.6973" x2="101.798" y2="42.2341" gradientUnits="userSpaceOnUse">
<stop offset="0.22" stop-color="#6FA4BA"/>
<stop offset="0.37" stop-color="#77A9BC"/>
<stop offset="0.6" stop-color="#90B7C3"/>
<stop offset="0.89" stop-color="#B7CECF"/>
<stop offset="1" stop-color="#C8D9D4"/>
</linearGradient>
<linearGradient id="paint1_linear_7399_1292" x1="81.5172" y1="67.5224" x2="89.2035" y2="47.8339" gradientUnits="userSpaceOnUse">
<stop stop-color="#DAEAE2"/>
<stop offset="0.2" stop-color="#B7D3D4"/>
<stop offset="0.45" stop-color="#90B9C6"/>
<stop offset="0.65" stop-color="#77A9BD"/>
<stop offset="0.78" stop-color="#6FA4BA"/>
</linearGradient>
<linearGradient id="paint2_linear_7399_1292" x1="81.587" y1="65.9245" x2="88.3986" y2="48.4753" gradientUnits="userSpaceOnUse">
<stop stop-color="#00BA77"/>
<stop offset="1" stop-color="#003D31"/>
</linearGradient>
<linearGradient id="paint3_linear_7399_1292" x1="98.9776" y1="64.505" x2="98.9776" y2="43.2327" gradientUnits="userSpaceOnUse">
<stop stop-color="#486BB1"/>
<stop offset="0.99" stop-color="#92F9FF"/>
</linearGradient>
<linearGradient id="paint4_linear_7399_1292" x1="103.924" y1="49.7112" x2="103.924" y2="42.4617" gradientUnits="userSpaceOnUse">
<stop/>
<stop offset="0.99" stop-color="white"/>
</linearGradient>
<linearGradient id="paint5_linear_7399_1292" x1="97.8442" y1="50.6271" x2="97.8442" y2="48.7488" gradientUnits="userSpaceOnUse">
<stop stop-color="#8FD8FF"/>
<stop offset="1" stop-color="#486BB1"/>
</linearGradient>
<linearGradient id="paint6_linear_7399_1292" x1="91.6712" y1="58.8907" x2="98.4032" y2="58.8907" gradientUnits="userSpaceOnUse">
<stop/>
<stop offset="0.99" stop-color="white"/>
</linearGradient>
<linearGradient id="paint7_linear_7399_1292" x1="93.6167" y1="-8.23889e-05" x2="93.6167" y2="59.1288" gradientUnits="userSpaceOnUse">
<stop stop-color="#486BB1"/>
<stop offset="0.99" stop-color="#92F9FF"/>
</linearGradient>
<linearGradient id="paint8_linear_7399_1292" x1="19.7199" y1="79.6973" x2="7.89101" y2="42.2341" gradientUnits="userSpaceOnUse">
<stop offset="0.22" stop-color="#6FA4BA"/>
<stop offset="0.37" stop-color="#77A9BC"/>
<stop offset="0.6" stop-color="#90B7C3"/>
<stop offset="0.89" stop-color="#B7CECF"/>
<stop offset="1" stop-color="#C8D9D4"/>
</linearGradient>
<linearGradient id="paint9_linear_7399_1292" x1="21.6622" y1="67.6609" x2="13.9256" y2="48.0077" gradientUnits="userSpaceOnUse">
<stop stop-color="#DAEAE2"/>
<stop offset="0.2" stop-color="#B7D3D4"/>
<stop offset="0.45" stop-color="#90B9C6"/>
<stop offset="0.65" stop-color="#77A9BD"/>
<stop offset="0.78" stop-color="#6FA4BA"/>
</linearGradient>
<linearGradient id="paint10_linear_7399_1292" x1="21.5921" y1="66.0631" x2="14.7359" y2="48.6445" gradientUnits="userSpaceOnUse">
<stop stop-color="#00BA77"/>
<stop offset="1" stop-color="#003D31"/>
</linearGradient>
<linearGradient id="paint11_linear_7399_1292" x1="10.7163" y1="-7.65225e-05" x2="10.7163" y2="-7.65225e-05" gradientUnits="userSpaceOnUse">
<stop stop-color="#486BB1"/>
<stop offset="0.99" stop-color="#92F9FF"/>
</linearGradient>
<linearGradient id="paint12_linear_7399_1292" x1="5.76963" y1="-0.000106316" x2="5.76963" y2="-0.000106316" gradientUnits="userSpaceOnUse">
<stop/>
<stop offset="0.99" stop-color="white"/>
</linearGradient>
<linearGradient id="paint13_linear_7399_1292" x1="11.8496" y1="7.47905e-05" x2="11.8496" y2="7.47905e-05" gradientUnits="userSpaceOnUse">
<stop stop-color="#8FD8FF"/>
<stop offset="1" stop-color="#486BB1"/>
</linearGradient>
<linearGradient id="paint14_linear_7399_1292" x1="18.0226" y1="58.8907" x2="11.2906" y2="58.8907" gradientUnits="userSpaceOnUse">
<stop/>
<stop offset="0.99" stop-color="white"/>
</linearGradient>
<linearGradient id="paint15_linear_7399_1292" x1="16.077" y1="-8.23889e-05" x2="16.077" y2="59.1288" gradientUnits="userSpaceOnUse">
<stop stop-color="#486BB1"/>
<stop offset="0.99" stop-color="#92F9FF"/>
</linearGradient>
<linearGradient id="paint16_linear_7399_1292" x1="47.8276" y1="93.7203" x2="61.5141" y2="70.016" gradientUnits="userSpaceOnUse">
<stop offset="0.22" stop-color="#6FA4BA"/>
<stop offset="0.37" stop-color="#77A9BC"/>
<stop offset="0.6" stop-color="#90B7C3"/>
<stop offset="0.89" stop-color="#B7CECF"/>
<stop offset="1" stop-color="#C8D9D4"/>
</linearGradient>
<linearGradient id="paint17_linear_7399_1292" x1="54.5493" y1="93.7513" x2="54.5493" y2="75.5164" gradientUnits="userSpaceOnUse">
<stop stop-color="#7BE9FF"/>
<stop offset="1" stop-color="#486BB1"/>
</linearGradient>
<linearGradient id="paint18_linear_7399_1292" x1="54.6373" y1="84.8098" x2="54.6373" y2="76.4375" gradientUnits="userSpaceOnUse">
<stop stop-color="#92F9FF"/>
<stop offset="1" stop-color="#486BB1"/>
</linearGradient>
<linearGradient id="paint19_linear_7399_1292" x1="55.4496" y1="92.2611" x2="55.4496" y2="85.0685" gradientUnits="userSpaceOnUse">
<stop/>
<stop offset="0.99" stop-color="white"/>
</linearGradient>
<linearGradient id="paint20_linear_7399_1292" x1="35.352" y1="77.7828" x2="67.884" y2="21.4326" gradientUnits="userSpaceOnUse">
<stop offset="0.22" stop-color="#6FA4BA"/>
<stop offset="0.37" stop-color="#77A9BC"/>
<stop offset="0.6" stop-color="#90B7C3"/>
<stop offset="0.89" stop-color="#B7CECF"/>
<stop offset="1" stop-color="#C8D9D4"/>
</linearGradient>
<linearGradient id="paint21_linear_7399_1292" x1="41.2923" y1="68.4428" x2="63.941" y2="29.215" gradientUnits="userSpaceOnUse">
<stop stop-color="#DAEAE2"/>
<stop offset="0.2" stop-color="#B7D3D4"/>
<stop offset="0.45" stop-color="#90B9C6"/>
<stop offset="0.65" stop-color="#77A9BD"/>
<stop offset="0.78" stop-color="#6FA4BA"/>
</linearGradient>
<linearGradient id="paint22_linear_7399_1292" x1="42.3738" y1="66.6524" x2="63.227" y2="30.5345" gradientUnits="userSpaceOnUse">
<stop stop-color="#00BA77"/>
<stop offset="1" stop-color="#003D31"/>
</linearGradient>
<linearGradient id="paint23_linear_7399_1292" x1="76.1477" y1="29.8619" x2="94.8845" y2="29.8619" gradientUnits="userSpaceOnUse">
<stop/>
<stop offset="0.99" stop-color="white"/>
</linearGradient>
<linearGradient id="paint24_linear_7399_1292" x1="54.7305" y1="20.4599" x2="54.7305" y2="6.34387" gradientUnits="userSpaceOnUse">
<stop/>
<stop offset="0.99" stop-color="white"/>
</linearGradient>
<linearGradient id="paint25_linear_7399_1292" x1="24.3718" y1="39.7865" x2="24.3718" y2="24.439" gradientUnits="userSpaceOnUse">
<stop/>
<stop offset="0.99" stop-color="white"/>
</linearGradient>
<linearGradient id="paint26_linear_7399_1292" x1="54.6167" y1="39.0156" x2="54.6167" y2="21.0032" gradientUnits="userSpaceOnUse">
<stop stop-color="#8FD8FF"/>
<stop offset="1" stop-color="#486BB1"/>
</linearGradient>
<linearGradient id="paint27_linear_7399_1292" x1="55.0358" y1="70.8801" x2="55.0358" y2="46.3427" gradientUnits="userSpaceOnUse">
<stop stop-color="#486BB1"/>
<stop offset="1" stop-color="#8FD8FF"/>
</linearGradient>
<linearGradient id="paint28_linear_7399_1292" x1="55.0876" y1="84.3698" x2="55.0876" y2="61.8763" gradientUnits="userSpaceOnUse">
<stop stop-color="#486BB1"/>
<stop offset="0.99" stop-color="#92F9FF"/>
</linearGradient>
<linearGradient id="paint29_linear_7399_1292" x1="39.9263" y1="83.9249" x2="39.9263" y2="65.9694" gradientUnits="userSpaceOnUse">
<stop stop-color="#486BB1"/>
<stop offset="0.99" stop-color="#92F9FF"/>
</linearGradient>
<linearGradient id="paint30_linear_7399_1292" x1="53.7681" y1="26.3846" x2="53.7681" y2="20.822" gradientUnits="userSpaceOnUse">
<stop stop-color="#8FD8FF"/>
<stop offset="1" stop-color="#486BB1"/>
</linearGradient>
<linearGradient id="paint31_linear_7399_1292" x1="54.0786" y1="71.6199" x2="54.0786" y2="63.2942" gradientUnits="userSpaceOnUse">
<stop stop-color="#486BB1"/>
<stop offset="1" stop-color="#8FD8FF"/>
</linearGradient>
<linearGradient id="paint32_linear_7399_1292" x1="62.7561" y1="72.6393" x2="62.7561" y2="68.003" gradientUnits="userSpaceOnUse">
<stop/>
<stop offset="0.99" stop-color="#FFFFC7"/>
</linearGradient>
<linearGradient id="paint33_linear_7399_1292" x1="51.6464" y1="15.1561" x2="58.1714" y2="3.85499" gradientUnits="userSpaceOnUse">
<stop stop-color="#84BFCB"/>
<stop offset="0.22" stop-color="#8CC3CC"/>
<stop offset="0.59" stop-color="#A5CFCF"/>
<stop offset="1" stop-color="#C8E0D4"/>
</linearGradient>
<linearGradient id="paint34_linear_7399_1292" x1="51.6464" y1="15.1612" x2="58.1456" y2="3.90156" gradientUnits="userSpaceOnUse">
<stop stop-color="#8CE2FF"/>
<stop offset="1" stop-color="#486BB1"/>
</linearGradient>
<linearGradient id="paint35_linear_7399_1292" x1="39.3053" y1="13.3502" x2="59.5841" y2="13.3502" gradientUnits="userSpaceOnUse">
<stop stop-color="#8FD8FF"/>
<stop offset="1" stop-color="#486BB1"/>
</linearGradient>
<linearGradient id="paint36_linear_7399_1292" x1="57.39" y1="5.98168" x2="57.39" y2="-2.76085e-05" gradientUnits="userSpaceOnUse">
<stop/>
<stop offset="0.99" stop-color="white"/>
</linearGradient>
<linearGradient id="paint37_linear_7399_1292" x1="56.3966" y1="9.58306" x2="56.3966" y2="3.47717" gradientUnits="userSpaceOnUse">
<stop/>
<stop offset="0.99" stop-color="white"/>
</linearGradient>
<radialGradient id="paint38_radial_7399_1292" cx="0" cy="0" r="1" gradientUnits="userSpaceOnUse" gradientTransform="translate(54.7305 45.7933) scale(13.05 18.4006)">
<stop offset="0.13" stop-color="#00996D"/>
<stop offset="0.17" stop-color="#009167"/>
<stop offset="0.34" stop-color="#007756"/>
<stop offset="0.5" stop-color="#00644A"/>
<stop offset="0.68" stop-color="#005943"/>
<stop offset="0.87" stop-color="#005641"/>
</radialGradient>
<radialGradient id="paint39_radial_7399_1292" cx="0" cy="0" r="1" gradientUnits="userSpaceOnUse" gradientTransform="translate(61.4883 57.028) rotate(180) scale(3.86016 3.86017)">
<stop stop-color="#9CDFEB"/>
<stop offset="0.34" stop-color="#9ADCE9"/>
<stop offset="0.55" stop-color="#93D4E2"/>
<stop offset="0.71" stop-color="#88C5D7"/>
<stop offset="0.86" stop-color="#78B2C7"/>
<stop offset="0.99" stop-color="#6498B3"/>
<stop offset="1" stop-color="#6397B2"/>
</radialGradient>
<radialGradient id="paint40_radial_7399_1292" cx="0" cy="0" r="1" gradientUnits="userSpaceOnUse" gradientTransform="translate(45.1732 46.3202) scale(7.02695 9.908)">
<stop stop-color="#9CDFEB"/>
<stop offset="0.34" stop-color="#9ADCE9"/>
<stop offset="0.55" stop-color="#93D4E2"/>
<stop offset="0.71" stop-color="#88C5D7"/>
<stop offset="0.86" stop-color="#78B2C7"/>
<stop offset="0.99" stop-color="#6498B3"/>
<stop offset="1" stop-color="#6397B2"/>
</radialGradient>
<radialGradient id="paint41_radial_7399_1292" cx="0" cy="0" r="1" gradientUnits="userSpaceOnUse" gradientTransform="translate(54.7306 45.7342) scale(14.0022 20.4431)">
<stop offset="0.13" stop-color="#00996D"/>
<stop offset="0.46" stop-color="#007D5A"/>
<stop offset="0.87" stop-color="#005641"/>
</radialGradient>
<radialGradient id="paint42_radial_7399_1292" cx="0" cy="0" r="1" gradientUnits="userSpaceOnUse" gradientTransform="translate(50.9118 44.4229) scale(4.80192 4.80192)">
<stop stop-color="#9CDFEB"/>
<stop offset="0.34" stop-color="#9ADCE9"/>
<stop offset="0.55" stop-color="#93D4E2"/>
<stop offset="0.71" stop-color="#88C5D7"/>
<stop offset="0.86" stop-color="#78B2C7"/>
<stop offset="0.99" stop-color="#6498B3"/>
<stop offset="1" stop-color="#6397B2"/>
</radialGradient>
<radialGradient id="paint43_radial_7399_1292" cx="0" cy="0" r="1" gradientUnits="userSpaceOnUse" gradientTransform="translate(58.2801 35.7039) rotate(180) scale(5.03995 5.03995)">
<stop stop-color="#9CDFEB"/>
<stop offset="0.34" stop-color="#9ADCE9"/>
<stop offset="0.55" stop-color="#93D4E2"/>
<stop offset="0.71" stop-color="#88C5D7"/>
<stop offset="0.86" stop-color="#78B2C7"/>
<stop offset="0.99" stop-color="#6498B3"/>
<stop offset="1" stop-color="#6397B2"/>
</radialGradient>
<radialGradient id="paint44_radial_7399_1292" cx="0" cy="0" r="1" gradientUnits="userSpaceOnUse" gradientTransform="translate(40.1954 26.157) scale(20.5272 20.5272)">
<stop stop-color="#9CDFEB"/>
<stop offset="0.34" stop-color="#9ADCE9"/>
<stop offset="0.55" stop-color="#93D4E2"/>
<stop offset="0.71" stop-color="#88C5D7"/>
<stop offset="0.86" stop-color="#78B2C7"/>
<stop offset="0.99" stop-color="#6498B3"/>
<stop offset="1" stop-color="#6397B2"/>
</radialGradient>
<radialGradient id="paint45_radial_7399_1292" cx="0" cy="0" r="1" gradientUnits="userSpaceOnUse" gradientTransform="translate(60.6708 56.4225) rotate(180) scale(11.4563 11.4563)">
<stop stop-color="#9CDFEB"/>
<stop offset="0.34" stop-color="#9ADCE9"/>
<stop offset="0.55" stop-color="#93D4E2"/>
<stop offset="0.71" stop-color="#88C5D7"/>
<stop offset="0.86" stop-color="#78B2C7"/>
<stop offset="0.99" stop-color="#6498B3"/>
<stop offset="1" stop-color="#6397B2"/>
</radialGradient>
<radialGradient id="paint46_radial_7399_1292" cx="0" cy="0" r="1" gradientUnits="userSpaceOnUse" gradientTransform="translate(47.9778 34.6434) scale(5.60914 7.90889)">
<stop stop-color="#9CDFEB"/>
<stop offset="0.34" stop-color="#9ADCE9"/>
<stop offset="0.55" stop-color="#93D4E2"/>
<stop offset="0.71" stop-color="#88C5D7"/>
<stop offset="0.86" stop-color="#78B2C7"/>
<stop offset="0.99" stop-color="#6498B3"/>
<stop offset="1" stop-color="#6397B2"/>
</radialGradient>
<radialGradient id="paint47_radial_7399_1292" cx="0" cy="0" r="1" gradientUnits="userSpaceOnUse" gradientTransform="translate(61.4883 34.6434) rotate(180) scale(5.60914 7.90889)">
<stop stop-color="#9CDFEB"/>
<stop offset="0.34" stop-color="#9ADCE9"/>
<stop offset="0.55" stop-color="#93D4E2"/>
<stop offset="0.71" stop-color="#88C5D7"/>
<stop offset="0.86" stop-color="#78B2C7"/>
<stop offset="0.99" stop-color="#6498B3"/>
<stop offset="1" stop-color="#6397B2"/>
</radialGradient>
<radialGradient id="paint48_radial_7399_1292" cx="0" cy="0" r="1" gradientUnits="userSpaceOnUse" gradientTransform="translate(49.406 53.9954) scale(4.28965 6.26289)">
<stop stop-color="#9CDFEB"/>
<stop offset="0.34" stop-color="#9ADCE9"/>
<stop offset="0.55" stop-color="#93D4E2"/>
<stop offset="0.71" stop-color="#88C5D7"/>
<stop offset="0.86" stop-color="#78B2C7"/>
<stop offset="0.99" stop-color="#6498B3"/>
<stop offset="1" stop-color="#6397B2"/>
</radialGradient>
<radialGradient id="paint49_radial_7399_1292" cx="0" cy="0" r="1" gradientUnits="userSpaceOnUse" gradientTransform="translate(51.005 58.1882) scale(1.55752 2.27398)">
<stop stop-color="#9CDFEB"/>
<stop offset="0.34" stop-color="#9ADCE9"/>
<stop offset="0.55" stop-color="#93D4E2"/>
<stop offset="0.71" stop-color="#88C5D7"/>
<stop offset="0.86" stop-color="#78B2C7"/>
<stop offset="0.99" stop-color="#6498B3"/>
<stop offset="1" stop-color="#6397B2"/>
</radialGradient>
<radialGradient id="paint50_radial_7399_1292" cx="0" cy="0" r="1" gradientUnits="userSpaceOnUse" gradientTransform="translate(48.1279 41.7632) scale(4.09819 4.09819)">
<stop stop-color="#9CDFEB"/>
<stop offset="0.34" stop-color="#9ADCE9"/>
<stop offset="0.55" stop-color="#93D4E2"/>
<stop offset="0.71" stop-color="#88C5D7"/>
<stop offset="0.86" stop-color="#78B2C7"/>
<stop offset="0.99" stop-color="#6498B3"/>
<stop offset="1" stop-color="#6397B2"/>
</radialGradient>
<radialGradient id="paint51_radial_7399_1292" cx="0" cy="0" r="1" gradientUnits="userSpaceOnUse" gradientTransform="translate(57.0434 54.8133) scale(1.46438)">
<stop stop-color="#9CDFEB"/>
<stop offset="0.34" stop-color="#9ADCE9"/>
<stop offset="0.55" stop-color="#93D4E2"/>
<stop offset="0.71" stop-color="#88C5D7"/>
<stop offset="0.86" stop-color="#78B2C7"/>
<stop offset="0.99" stop-color="#6498B3"/>
<stop offset="1" stop-color="#6397B2"/>
</radialGradient>
<radialGradient id="paint52_radial_7399_1292" cx="0" cy="0" r="1" gradientUnits="userSpaceOnUse" gradientTransform="translate(49.3025 43.952) scale(1.46438)">
<stop stop-color="#9CDFEB"/>
<stop offset="0.34" stop-color="#9ADCE9"/>
<stop offset="0.55" stop-color="#93D4E2"/>
<stop offset="0.71" stop-color="#88C5D7"/>
<stop offset="0.86" stop-color="#78B2C7"/>
<stop offset="0.99" stop-color="#6498B3"/>
<stop offset="1" stop-color="#6397B2"/>
</radialGradient>
<clipPath id="clip0_7399_1292">
<rect width="109.694" height="93.7513" fill="white"/>
</clipPath>
</defs>
</svg>
