<svg width="21" height="22" viewBox="0 0 21 22" fill="none" xmlns="http://www.w3.org/2000/svg">
<g clip-path="url(#clip0_4778_4065)">
<path d="M10.3434 2.76099C5.67508 2.76099 1.89099 6.54842 1.89099 11.2208C1.89099 15.8933 5.67508 19.6807 10.3434 19.6807C15.0116 19.6807 18.7957 15.8933 18.7957 11.2208C18.7957 6.54842 15.0116 2.76099 10.3434 2.76099ZM10.3434 19.4072C5.83404 19.4072 2.16529 15.7352 2.16529 11.2219C2.16529 6.70857 5.83404 3.03553 10.3434 3.03553C14.8527 3.03553 18.5214 6.70753 18.5214 11.2219C18.5214 15.7362 14.8527 19.4072 10.3434 19.4072Z" fill="url(#paint0_linear_4778_4065)"/>
<path d="M10.3435 3.71484C6.2082 3.71484 2.84387 7.08215 2.84387 11.2211C2.84387 15.36 6.2082 18.7273 10.3435 18.7273C14.4787 18.7273 17.8431 15.36 17.8431 11.2211C17.8431 7.08215 14.4787 3.71484 10.3435 3.71484ZM10.3435 18.4746C6.34119 18.4746 3.09635 15.2269 3.09635 11.2211C3.09635 7.21526 6.34119 3.96755 10.3435 3.96755C14.3457 3.96755 17.5906 7.21526 17.5906 11.2211C17.5906 15.2269 14.3457 18.4746 10.3435 18.4746Z" fill="url(#paint1_linear_4778_4065)"/>
<path d="M10.3434 19.5403C5.76027 19.5403 2.03125 15.808 2.03125 11.2208C2.03125 6.63369 5.76027 2.90137 10.3434 2.90137C14.9264 2.90137 18.6555 6.63369 18.6555 11.2208C18.6555 15.808 14.9264 19.5403 10.3434 19.5403ZM10.3434 3.82691C6.27042 3.82691 2.95597 7.1443 2.95597 11.2208C2.95597 15.2974 6.26938 18.6148 10.3434 18.6148C14.4173 18.6148 17.7307 15.2984 17.7307 11.2208C17.7307 7.14326 14.4173 3.82691 10.3434 3.82691Z" fill="url(#paint2_linear_4778_4065)"/>
<path d="M10.3434 1.8667C5.14313 1.8667 0.927856 6.08675 0.927856 11.2916C0.927856 16.4965 5.14313 20.7155 10.3434 20.7155C15.5436 20.7155 19.7589 16.4965 19.7589 11.2916C19.7589 6.08675 15.5436 1.8667 10.3434 1.8667ZM10.3434 20.3276C5.35717 20.3276 1.31541 16.2823 1.31541 11.2916C1.31541 6.30098 5.35717 2.25459 10.3434 2.25459C15.3296 2.25459 19.3714 6.29993 19.3714 11.2906C19.3714 16.2812 15.3296 20.3266 10.3434 20.3266V20.3276Z" fill="url(#paint3_linear_4778_4065)"/>
<path d="M8.34434 3.38934C8.43369 3.52661 8.85657 3.25935 9.69921 3.20631C10.6229 3.14912 11.159 3.41222 11.239 3.14912C11.3357 2.82986 10.5761 2.77786 9.73454 2.87042C8.94489 2.95777 8.18849 3.14808 8.3433 3.3883L8.34434 3.38934Z" fill="#FFFDE0"/>
<path d="M10.3434 1.79712C5.14313 1.79712 0.927856 6.01613 0.927856 11.221C0.927856 16.4259 5.14313 20.6449 10.3434 20.6449C15.5436 20.6449 19.7589 16.4259 19.7589 11.221C19.7589 6.01613 15.5436 1.79712 10.3434 1.79712ZM10.3434 20.257C5.35717 20.257 1.31541 16.2116 1.31541 11.221C1.31541 6.23036 5.35717 2.18501 10.3434 2.18501C15.3296 2.18501 19.3714 6.23036 19.3714 11.221C19.3714 16.2116 15.3296 20.257 10.3434 20.257Z" fill="url(#paint4_linear_4778_4065)"/>
<g style="mix-blend-mode:overlay">
<path d="M16.19 15.7352C16.5163 15.7352 16.8425 15.7352 17.1688 15.7414C17.2176 15.7414 17.2664 15.7435 17.3163 15.7445C18.1631 14.4415 18.6556 12.8878 18.6556 11.2208C18.6556 10.7768 18.6203 10.341 18.5527 9.91673C18.2296 9.85121 17.9054 9.79089 17.5802 9.73682C17.6779 10.2162 17.7298 10.7133 17.7298 11.2218C17.7298 12.9201 17.1542 14.4862 16.189 15.7352H16.19Z" fill="#9D9E9E"/>
<path d="M5.00918 16.3444C5.00918 16.3444 5.01749 16.3424 5.02269 16.3413C3.90471 15.1776 3.16182 13.6521 2.9935 11.958C2.69842 12.1088 2.40646 12.2679 2.12073 12.4353C2.35554 14.0306 3.04441 15.4782 4.05121 16.646C4.36915 16.5389 4.68709 16.436 5.01022 16.3444H5.00918Z" fill="#9D9E9E"/>
<path d="M18.1422 15.7748C18.2866 15.7821 18.4311 15.7904 18.5744 15.7998C19.3288 14.4437 19.7589 12.8828 19.7589 11.2209C19.7589 10.8674 19.7392 10.519 19.7007 10.1748C19.5677 10.1415 19.4337 10.1103 19.2997 10.0791C19.3464 10.4535 19.3714 10.8341 19.3714 11.2209C19.3714 12.8817 18.9235 14.4375 18.1422 15.7748Z" fill="#9D9E9E"/>
<path d="M3.3177 16.8945C3.3177 16.8945 3.3177 16.8945 3.31874 16.8945C2.38883 15.7433 1.73529 14.3602 1.46099 12.844C1.34358 12.9209 1.22617 12.9989 1.11084 13.078C1.40384 14.5474 2.03972 15.8931 2.92911 17.0287C3.05795 16.9819 3.18783 16.9382 3.31666 16.8945H3.3177Z" fill="#9D9E9E"/>
</g>
<path d="M10.3434 1.91671C15.5239 1.91671 19.7267 6.10348 19.7589 11.2813C19.7589 11.2616 19.7589 11.2418 19.7589 11.222C19.7589 6.01717 15.5436 1.79712 10.3434 1.79712C5.14313 1.79712 0.927856 6.01613 0.927856 11.221C0.927856 11.2408 0.927856 11.2605 0.927856 11.2803C0.960066 6.10348 5.16287 1.91567 10.3434 1.91567V1.91671Z" fill="url(#paint5_linear_4778_4065)"/>
<path d="M10.3435 20.3775C15.3297 20.3775 19.3715 16.3322 19.3715 11.3416C19.3715 11.3218 19.3715 11.302 19.3715 11.2812C19.3392 16.2438 15.31 20.2569 10.3445 20.2569C5.37907 20.2569 1.34874 16.2438 1.31653 11.2812C1.31653 11.301 1.31653 11.3208 1.31653 11.3416C1.31653 16.3322 5.35829 20.3775 10.3445 20.3775H10.3435Z" fill="#B05B22"/>
<path d="M18.7074 10.0198C18.7074 10.0198 18.3677 6.45383 14.1243 3.96839C10.6021 1.90412 11.6837 0 11.6837 0C11.6837 0 12.2427 1.39975 14.9576 3.00437C18.7957 5.27246 18.722 7.13914 18.7074 10.0187V10.0198Z" fill="url(#paint6_linear_4778_4065)"/>
<path d="M18.7074 10.0198C18.7074 10.0198 18.3677 6.45383 14.1243 3.96839C10.6021 1.90412 11.6837 0 11.6837 0C11.6837 0 11.5309 1.6015 14.569 3.54929C17.7733 5.60316 18.217 7.22234 18.7064 10.0198H18.7074Z" fill="url(#paint7_linear_4778_4065)"/>
<g style="mix-blend-mode:overlay">
<path d="M18.6344 9.54663C18.6583 9.67766 18.6822 9.81285 18.7061 9.94908C18.7061 9.94908 18.6926 9.80141 18.6344 9.54663Z" fill="url(#paint8_linear_4778_4065)"/>
<path d="M14.5687 3.5494C17.4997 5.42856 18.1211 6.94374 18.5803 9.32831C18.6011 9.40839 18.6198 9.48118 18.6343 9.5467C18.1668 6.99262 17.6442 5.41712 14.5967 3.46413C11.9493 1.76592 11.7488 0.375524 11.6823 0.00634766C11.6761 0.117621 11.6408 1.67232 14.5687 3.54836V3.5494Z" fill="#A4987F"/>
</g>
<path d="M10.3434 18.4743C10.3434 18.4743 12.2853 18.6053 14.6719 18.6823C16.5089 18.7415 18.9506 16.9289 19.5709 16.3923C19.655 16.6544 19.5199 17.4146 19.5199 17.4146C19.5199 17.4146 18.0996 21.2811 13.7711 20.4335C11.9164 20.0706 10.3434 18.4743 10.3434 18.4743Z" fill="url(#paint9_linear_4778_4065)"/>
<path d="M10.3435 18.474C10.3435 18.474 12.2854 18.1152 14.672 18.1922C16.9308 18.2649 19.571 16.3931 19.571 16.3931C19.571 16.3931 18.7959 20.845 13.7369 20.2575C11.8594 20.0391 10.3435 18.475 10.3435 18.475V18.474Z" fill="url(#paint10_linear_4778_4065)"/>
<path d="M10.3435 18.4742C10.3435 18.4742 12.2854 18.1155 14.672 18.1924C16.1287 18.2392 17.7454 17.4769 18.7086 16.9299C18.2764 17.7161 16.4061 19.8865 13.7245 19.8053C11.8355 19.7482 10.3435 18.4753 10.3435 18.4753V18.4742Z" fill="#E8D6C8"/>
<path d="M13.7369 20.2034C12.0485 20.0068 10.6542 18.7236 10.3892 18.4667C10.3591 18.4719 10.3435 18.475 10.3435 18.475C10.3435 18.475 11.8594 20.0391 13.7369 20.2575C18.7959 20.845 19.571 16.3931 19.571 16.3931C19.571 16.3931 19.5658 16.3972 19.5585 16.4024C19.4421 16.937 18.4437 20.7514 13.7369 20.2044V20.2034Z" fill="#9D9E9E"/>
<path d="M15.2519 17.6985C15.2519 17.6985 18.9726 17.2024 19.224 11.4308C19.3217 9.1887 17.8037 7.19619 16.1901 7.6756C16.1901 7.6756 16.0997 7.60072 16.0633 7.50505C16.2784 6.89877 17.5086 4.1263 20.6828 3.46387C20.6828 3.54082 20.6901 3.63962 20.6828 3.67393C20.6828 3.67393 19.5368 4.73571 20.2724 9.71907C20.662 12.3563 20.3752 18.4316 14.0186 19.2137L15.2508 17.6995L15.2519 17.6985Z" fill="url(#paint11_linear_4778_4065)"/>
<path d="M10.3435 18.6845C10.3435 18.6845 12.2491 17.2879 15.2508 17.6987L14.0185 19.2128C14.0185 19.2128 13.5541 18.201 10.3435 18.6835V18.6845Z" fill="url(#paint12_linear_4778_4065)"/>
<path d="M10.3435 18.4743C10.3435 18.4743 12.2491 17.0777 15.2508 17.4885L14.1245 19.0182C14.1245 19.0182 13.5541 17.9907 10.3435 18.4743Z" fill="url(#paint13_linear_4778_4065)"/>
<path d="M14.2824 17.4148C14.5712 17.8017 14.3852 18.3247 13.9416 18.5088C13.8221 18.5577 13.6932 18.591 13.5592 18.6128C14.0039 18.801 14.1255 19.0184 14.1255 19.0184L15.2518 17.4886C14.9141 17.4418 14.5909 17.42 14.2824 17.4148Z" fill="#9D9E9E"/>
<path d="M15.2508 17.4885C14.3188 17.3606 13.4928 17.4074 12.7967 17.5322C11.2496 17.8098 10.3425 18.4744 10.3425 18.4744C10.3924 18.4671 11.2122 17.9086 12.7936 17.6091C13.9209 17.3959 15.2498 17.4885 15.2498 17.4885H15.2508Z" fill="#C9B287"/>
<path d="M15.2519 17.4884C15.2519 17.4884 18.9726 16.9913 19.224 11.2207C19.3217 8.97863 17.8442 6.88837 16.0644 7.50505C16.0644 7.50505 17.0224 4.18246 20.6839 3.46387C20.6839 3.46387 19.5378 4.52564 20.2734 9.509C20.6631 12.1463 20.4792 18.1103 14.1256 19.0192L15.2519 17.4894V17.4884Z" fill="url(#paint14_linear_4778_4065)"/>
<path d="M15.2518 17.4886C15.2518 17.4886 18.9725 16.9915 19.224 11.2209C19.3216 8.97884 17.8442 6.88858 16.0643 7.50526C16.0643 7.50526 17.4047 6.32597 18.9279 7.52293C18.9279 7.52293 19.6915 9.09219 19.6915 10.9131C19.6915 17.0612 15.2518 17.4886 15.2518 17.4886Z" fill="url(#paint15_linear_4778_4065)"/>
<path d="M16.0645 7.50511C16.6349 7.07666 18.1165 6.96019 18.928 7.52279C19.3727 4.61098 20.6849 3.46289 20.6849 3.46289C17.0235 4.18252 16.0655 7.50407 16.0655 7.50407L16.0645 7.50511Z" fill="url(#paint16_linear_4778_4065)"/>
<path d="M20.5894 3.58456C20.6465 3.49825 20.6839 3.46289 20.6839 3.46289C17.0224 4.18252 16.0645 7.50407 16.0645 7.50407C16.0832 7.49783 16.1019 7.49263 16.1206 7.48639C16.3263 6.90299 17.4214 4.2626 20.5894 3.58352V3.58456Z" fill="#F2C778"/>
<g style="mix-blend-mode:overlay">
<path d="M20.0273 6.45894C20.0398 4.05981 20.684 3.46289 20.684 3.46289C20.6663 3.46601 20.6487 3.47017 20.631 3.47433C20.4752 3.68024 20.0305 4.44459 20.0273 6.45894Z" fill="#A4987F"/>
<path d="M19.2281 10.9857C19.2396 8.82266 17.8047 6.86862 16.082 7.44891C16.0695 7.4853 16.0643 7.5061 16.0643 7.5061C17.7808 6.91126 19.2167 8.83722 19.2281 10.9868V10.9857Z" fill="#A4987F"/>
<path d="M14.1246 18.9672C14.1246 18.9672 13.5656 17.945 10.3436 18.4743C13.5542 17.9907 14.1246 19.0182 14.1246 19.0182C19.3155 18.2757 20.3878 14.1596 20.395 11.2395C20.3763 14.1565 19.2854 18.2289 14.1246 18.9672Z" fill="#9D9E9E"/>
</g>
<path d="M17.0037 6.32487C16.8488 6.2448 17.0691 5.67388 17.7299 5.06136C18.5217 4.3282 19.0942 4.1015 19.2271 4.27621C19.3311 4.41348 18.7949 4.66098 18.159 5.2267C17.7185 5.61876 17.279 6.46735 17.0037 6.32487Z" fill="#FFFDE0"/>
<path d="M10.3435 20.8796C10.3435 20.8796 11.2786 19.3312 12.3748 20.0279C13.6341 20.8287 15.1999 22.0402 17.5906 20.2578C13.7598 21.5421 12.9722 18.0032 10.3435 18.4753V20.8807V20.8796Z" fill="url(#paint17_linear_4778_4065)"/>
<path d="M10.3435 20.8797C10.3435 20.8797 10.6552 18.7832 12.2771 19.4529C13.6112 20.0041 14.9578 21.9758 17.5906 20.2578C14.9713 21.2343 13.6777 19.613 12.3509 18.8508C11.5072 18.3662 10.5596 18.4192 10.3435 18.4192V20.8807V20.8797Z" fill="url(#paint18_linear_4778_4065)"/>
<path d="M12.2771 19.3896C10.6562 18.7199 10.3435 20.8164 10.3435 20.8164V20.8788C10.3435 20.8788 10.6552 18.7823 12.2771 19.452C13.6112 20.0031 14.9578 21.9748 17.5906 20.2569C17.5875 20.2569 17.5854 20.259 17.5823 20.26C14.992 21.9021 13.5998 19.9366 12.2761 19.3906L12.2771 19.3896Z" fill="#9D9E9E"/>
<path d="M12.3508 18.8883C12.9617 19.2387 13.5654 19.7493 14.2937 20.1102C13.5643 19.7327 12.9607 19.2002 12.3508 18.8498C11.5071 18.3652 10.5595 18.4182 10.3434 18.4182V18.5035C10.5595 18.5035 11.5071 18.4037 12.3508 18.8883Z" fill="#C9B287"/>
<path d="M1.97953 10.0198C1.97953 10.0198 2.31929 6.45383 6.56261 3.96839C10.0849 1.90412 9.00325 0 9.00325 0C9.00325 0 8.44427 1.39975 5.72933 3.00437C1.89121 5.2735 1.96498 7.13914 1.97953 10.0198Z" fill="url(#paint19_linear_4778_4065)"/>
<path d="M1.97937 10.0198C1.97937 10.0198 2.31913 6.45383 6.56245 3.96839C10.0847 1.90412 9.0031 0 9.0031 0C9.0031 0 9.15583 1.6015 6.11776 3.54929C2.91344 5.60316 2.46978 7.22234 1.97937 10.0198Z" fill="url(#paint20_linear_4778_4065)"/>
<g style="mix-blend-mode:overlay">
<path d="M2.05204 9.54663C2.02814 9.67766 2.00424 9.81285 1.98035 9.94908C1.98035 9.94908 1.99489 9.80141 2.05204 9.54663Z" fill="url(#paint21_linear_4778_4065)"/>
<path d="M6.11766 3.5494C3.1866 5.42856 2.56527 6.94374 2.10603 9.32831C2.08525 9.40839 2.06655 9.48118 2.052 9.5467C2.51956 6.99262 3.04218 5.41712 6.08961 3.46413C8.73805 1.76592 8.93754 0.375524 9.00404 0.00634766C9.01027 0.117621 9.0456 1.67232 6.11766 3.54836V3.5494Z" fill="#A4987F"/>
</g>
<path d="M10.3435 18.4743C10.3435 18.4743 8.40159 18.6053 6.01497 18.6823C4.178 18.7415 1.73528 16.9289 1.11499 16.3923C1.03083 16.6544 1.16694 17.4146 1.16694 17.4146C1.16694 17.4146 2.58727 21.2811 6.9158 20.4335C8.77043 20.0706 10.3435 18.4743 10.3435 18.4743Z" fill="url(#paint22_linear_4778_4065)"/>
<path d="M10.3436 18.474C10.3436 18.474 8.40171 18.1152 6.0151 18.1922C3.75628 18.2649 1.11511 16.3931 1.11511 16.3931C1.11511 16.3931 1.89125 20.845 6.94917 20.2575C8.82666 20.0391 10.3426 18.475 10.3426 18.475L10.3436 18.474Z" fill="url(#paint23_linear_4778_4065)"/>
<path d="M10.3436 18.4742C10.3436 18.4742 8.40169 18.1155 6.01508 18.1924C4.55838 18.2392 2.94168 17.4769 1.97852 16.9299C2.41074 17.7161 4.28097 19.8865 6.96266 19.8053C8.85158 19.7482 10.3436 18.4753 10.3436 18.4753V18.4742Z" fill="#E8D6C8"/>
<path d="M6.95039 20.2034C8.63878 20.0068 10.0331 18.7236 10.2981 18.4667C10.3272 18.4719 10.3438 18.475 10.3438 18.475C10.3438 18.475 8.82789 20.0391 6.95039 20.2575C1.89144 20.845 1.11633 16.3931 1.11633 16.3931C1.11633 16.3931 1.12153 16.3972 1.1288 16.4024C1.24517 16.937 2.2447 20.7514 6.95039 20.2044V20.2034Z" fill="#9D9E9E"/>
<path d="M5.4362 17.6985C5.4362 17.6985 1.71446 17.2025 1.46406 11.4309C1.36639 9.18876 2.88439 7.19625 4.49797 7.67566C4.49797 7.67566 4.58837 7.60079 4.62473 7.50511C4.40758 6.89883 3.17843 4.12637 0.00320599 3.46289C0.00320599 3.53985 -0.00510612 3.63864 0.00320599 3.67296C0.00320599 3.67296 1.14924 4.73473 0.413616 9.71809C0.0239863 12.3554 0.310753 18.4307 6.66743 19.2127L5.43516 17.6985H5.4362Z" fill="url(#paint24_linear_4778_4065)"/>
<path d="M10.3435 18.6845C10.3435 18.6845 8.43903 17.2879 5.43628 17.6987L6.66855 19.2128C6.66855 19.2128 7.13299 18.201 10.3435 18.6835V18.6845Z" fill="url(#paint25_linear_4778_4065)"/>
<path d="M10.3435 18.4743C10.3435 18.4743 8.43903 17.0777 5.43628 17.4885L6.56257 19.0182C6.56257 19.0182 7.13299 17.9907 10.3435 18.4743Z" fill="url(#paint26_linear_4778_4065)"/>
<path d="M6.4047 17.4148C6.11586 17.8017 6.30184 18.3247 6.7455 18.5088C6.86498 18.5577 6.99382 18.591 7.12785 18.6128C6.6842 18.801 6.56159 19.0184 6.56159 19.0184L5.4353 17.4886C5.77298 17.4418 6.09611 17.42 6.4047 17.4148Z" fill="#9D9E9E"/>
<path d="M5.43628 17.4885C6.36827 17.3606 7.19325 17.4074 7.88939 17.5322C9.43752 17.8098 10.3435 18.4744 10.3435 18.4744C10.2937 18.4671 9.47388 17.9086 7.89251 17.6091C6.76518 17.3959 5.43628 17.4885 5.43628 17.4885Z" fill="#C9B287"/>
<path d="M5.43623 17.4884C5.43623 17.4884 1.71449 16.9913 1.46409 11.2207C1.36642 8.97863 2.84389 6.88837 4.62372 7.50505C4.62372 7.50505 3.66575 4.18246 0.00427246 3.46387C0.00427246 3.46387 1.1503 4.52564 0.414682 9.509C0.0250527 12.1463 0.208958 18.1103 6.56252 19.0192L5.43623 17.4894V17.4884Z" fill="url(#paint27_linear_4778_4065)"/>
<path d="M5.43628 17.4886C5.43628 17.4886 1.71454 16.9915 1.46414 11.2209C1.36647 8.97884 2.84395 6.88858 4.62378 7.50526C4.62378 7.50526 3.28345 6.32597 1.76026 7.52293C1.76026 7.52293 0.996582 9.09219 0.996582 10.9131C0.996582 17.0612 5.43628 17.4886 5.43628 17.4886Z" fill="url(#paint28_linear_4778_4065)"/>
<path d="M4.62366 7.50511C4.05325 7.07666 2.57161 6.96019 1.76014 7.52279C1.31545 4.61098 0.00317383 3.46289 0.00317383 3.46289C3.66465 4.18252 4.62262 7.50407 4.62262 7.50407L4.62366 7.50511Z" fill="url(#paint29_linear_4778_4065)"/>
<path d="M0.097724 3.58456C0.0405783 3.49825 0.00317383 3.46289 0.00317383 3.46289C3.66465 4.18252 4.62262 7.50407 4.62262 7.50407C4.60288 7.49783 4.58522 7.49263 4.56548 7.48639C4.35975 6.90299 3.26463 4.2626 0.097724 3.58352V3.58456Z" fill="#F2C778"/>
<g style="mix-blend-mode:overlay">
<path d="M0.65983 6.45894C0.647362 4.05981 0.00317383 3.46289 0.00317383 3.46289C0.020837 3.46601 0.0385003 3.47017 0.0561635 3.47433C0.212015 3.68024 0.656713 4.44459 0.65983 6.45894Z" fill="#A4987F"/>
<path d="M1.45893 10.9857C1.4475 8.82266 2.88238 6.86862 4.60506 7.44891C4.61753 7.4853 4.62272 7.5061 4.62272 7.5061C2.90628 6.91126 1.47036 8.83722 1.45893 10.9868V10.9857Z" fill="#A4987F"/>
<path d="M6.56268 18.9672C6.56268 18.9672 7.12167 17.945 10.3436 18.4743C7.1331 17.9907 6.56268 19.0182 6.56268 19.0182C1.37177 18.2757 0.299509 14.1596 0.292236 11.2395C0.310939 14.1565 1.40086 18.2289 6.56164 18.9672H6.56268Z" fill="#9D9E9E"/>
</g>
<path d="M3.6834 6.32487C3.83822 6.2448 3.61691 5.67388 2.9561 5.06136C2.16437 4.3282 1.59187 4.1015 1.45888 4.27621C1.35498 4.41348 1.89111 4.66098 2.52698 5.2267C2.96752 5.61876 3.40703 6.46735 3.6834 6.32487Z" fill="#FFFDE0"/>
<path d="M10.3438 20.8796C10.3438 20.8796 9.40868 19.3312 8.31252 20.0279C7.05324 20.8287 5.48745 22.0402 3.09668 20.2578C6.92752 21.5421 7.71509 18.0032 10.3438 18.4753V20.8807V20.8796Z" fill="url(#paint30_linear_4778_4065)"/>
<path d="M10.3438 20.8797C10.3438 20.8797 10.0321 18.7832 8.41019 19.4529C7.0761 20.0041 5.72954 21.9758 3.09668 20.2578C5.71603 21.2343 7.0096 19.613 8.33642 18.8508C9.1801 18.3662 10.1277 18.4192 10.3438 18.4192V20.8807V20.8797Z" fill="url(#paint31_linear_4778_4065)"/>
<path d="M8.41019 19.3896C10.0311 18.7199 10.3438 20.8164 10.3438 20.8164V20.8788C10.3438 20.8788 10.0321 18.7823 8.41019 19.452C7.0761 20.0031 5.72954 21.9748 3.09668 20.2569C3.0998 20.2569 3.10187 20.259 3.10499 20.26C5.69525 21.9021 7.08753 19.9366 8.41123 19.3906L8.41019 19.3896Z" fill="#9D9E9E"/>
<path d="M8.33639 18.8883C7.72545 19.2387 7.12178 19.7493 6.39343 20.1102C7.12282 19.7327 7.72649 19.2002 8.33639 18.8498C9.18007 18.3652 10.1276 18.4182 10.3438 18.4182V18.5035C10.1276 18.5035 9.18007 18.4037 8.33639 18.8883Z" fill="#C9B287"/>
</g>
<defs>
<linearGradient id="paint0_linear_4778_4065" x1="10.0348" y1="3.98603" x2="10.6572" y2="18.5274" gradientUnits="userSpaceOnUse">
<stop stop-color="#FDFDFD"/>
<stop offset="0.05" stop-color="#FAF6E6"/>
<stop offset="0.14" stop-color="#F4E4AD"/>
<stop offset="0.27" stop-color="#EBC752"/>
<stop offset="0.28" stop-color="#EBC64E"/>
<stop offset="0.38" stop-color="#D79538"/>
<stop offset="0.4" stop-color="#D48C34"/>
<stop offset="0.57" stop-color="#A86D2A"/>
<stop offset="0.76" stop-color="#7C4F21"/>
<stop offset="0.91" stop-color="#613C1C"/>
<stop offset="1" stop-color="#57351A"/>
</linearGradient>
<linearGradient id="paint1_linear_4778_4065" x1="10.0692" y1="4.80157" x2="10.6219" y2="17.704" gradientUnits="userSpaceOnUse">
<stop stop-color="#8C5F2D"/>
<stop offset="0.07" stop-color="#90612D"/>
<stop offset="0.14" stop-color="#9D692E"/>
<stop offset="0.22" stop-color="#B37631"/>
<stop offset="0.3" stop-color="#D18834"/>
<stop offset="0.37" stop-color="#F89F39"/>
<stop offset="0.39" stop-color="#FFA33A"/>
<stop offset="0.45" stop-color="#FFAA43"/>
<stop offset="0.55" stop-color="#FFBC5E"/>
<stop offset="0.69" stop-color="#FFDB88"/>
<stop offset="0.7" stop-color="#FFDD8B"/>
<stop offset="0.81" stop-color="#FCD472"/>
<stop offset="0.91" stop-color="#FACE64"/>
<stop offset="1" stop-color="#FACD5F"/>
</linearGradient>
<linearGradient id="paint2_linear_4778_4065" x1="10.04" y1="4.10561" x2="10.652" y2="18.4057" gradientUnits="userSpaceOnUse">
<stop stop-color="#FFFDA1"/>
<stop offset="0.19" stop-color="#FFF5A1"/>
<stop offset="0.2" stop-color="#FFF19C"/>
<stop offset="0.3" stop-color="#FFD67A"/>
<stop offset="0.38" stop-color="#FFC261"/>
<stop offset="0.46" stop-color="#FFB753"/>
<stop offset="0.53" stop-color="#FFB34E"/>
<stop offset="0.74" stop-color="#D3A260"/>
<stop offset="0.92" stop-color="#A54714"/>
<stop offset="1" stop-color="#6D4922"/>
</linearGradient>
<linearGradient id="paint3_linear_4778_4065" x1="9.99948" y1="3.23109" x2="10.6927" y2="19.4301" gradientUnits="userSpaceOnUse">
<stop stop-color="#B96A30"/>
<stop offset="0.13" stop-color="#A8612C"/>
<stop offset="0.52" stop-color="#7C4922"/>
<stop offset="0.82" stop-color="#613A1C"/>
<stop offset="1" stop-color="#57351A"/>
</linearGradient>
<linearGradient id="paint4_linear_4778_4065" x1="9.99948" y1="3.16047" x2="10.6927" y2="19.3605" gradientUnits="userSpaceOnUse">
<stop stop-color="#FFFAA1"/>
<stop offset="0.12" stop-color="#FFE589"/>
<stop offset="0.27" stop-color="#FFD070"/>
<stop offset="0.41" stop-color="#FFC362"/>
<stop offset="0.52" stop-color="#FFBF5D"/>
<stop offset="1" stop-color="#7C491E"/>
</linearGradient>
<linearGradient id="paint5_linear_4778_4065" x1="9.97558" y1="2.51571" x2="10.5293" y2="15.4535" gradientUnits="userSpaceOnUse">
<stop stop-color="#FFF5D0"/>
<stop offset="0.06" stop-color="#FBE8B9"/>
<stop offset="0.17" stop-color="#F3C780"/>
<stop offset="0.34" stop-color="#E79425"/>
<stop offset="0.41" stop-color="#E28001"/>
<stop offset="0.58" stop-color="#ECAB4F"/>
<stop offset="0.72" stop-color="#F4CE8D"/>
<stop offset="0.85" stop-color="#FAE7BA"/>
<stop offset="0.94" stop-color="#FDF7D5"/>
<stop offset="1" stop-color="#FFFDE0"/>
</linearGradient>
<linearGradient id="paint6_linear_4778_4065" x1="14.9389" y1="0.603161" x2="15.3188" y2="9.46441" gradientUnits="userSpaceOnUse">
<stop stop-color="#FFC96A"/>
<stop offset="0.15" stop-color="#FFE386"/>
<stop offset="0.32" stop-color="#FFFDA1"/>
<stop offset="0.37" stop-color="#FBDA75"/>
<stop offset="0.41" stop-color="#F8BE53"/>
<stop offset="0.45" stop-color="#F6AA3A"/>
<stop offset="0.49" stop-color="#F59F2C"/>
<stop offset="0.52" stop-color="#F59B27"/>
<stop offset="1" stop-color="#AF5B24"/>
</linearGradient>
<linearGradient id="paint7_linear_4778_4065" x1="14.9119" y1="0.604201" x2="15.2918" y2="9.46545" gradientUnits="userSpaceOnUse">
<stop stop-color="#B5652D"/>
<stop offset="0.15" stop-color="#AE622B"/>
<stop offset="0.37" stop-color="#9B5A29"/>
<stop offset="0.62" stop-color="#7C4E24"/>
<stop offset="0.73" stop-color="#6D4922"/>
<stop offset="1" stop-color="#D79337"/>
</linearGradient>
<linearGradient id="paint8_linear_4778_4065" x1="11.83" y1="2.41581" x2="17.8734" y2="8.88192" gradientUnits="userSpaceOnUse">
<stop stop-color="#C5AB7C"/>
<stop offset="1" stop-color="#A08352"/>
</linearGradient>
<linearGradient id="paint9_linear_4778_4065" x1="14.329" y1="19.0306" x2="19.9868" y2="18.0382" gradientUnits="userSpaceOnUse">
<stop offset="0.19" stop-color="#643604"/>
<stop offset="1" stop-color="#905C2D"/>
</linearGradient>
<linearGradient id="paint10_linear_4778_4065" x1="19.2936" y1="16.0873" x2="12.4354" y2="19.8042" gradientUnits="userSpaceOnUse">
<stop stop-color="#FFB34E"/>
<stop offset="0.11" stop-color="#D8883B"/>
<stop offset="0.23" stop-color="#B35E29"/>
<stop offset="0.42" stop-color="#985526"/>
<stop offset="0.63" stop-color="#804E23"/>
<stop offset="0.83" stop-color="#714A22"/>
<stop offset="1" stop-color="#6D4922"/>
</linearGradient>
<linearGradient id="paint11_linear_4778_4065" x1="20.8833" y1="3.22676" x2="15.0006" y2="19.0449" gradientUnits="userSpaceOnUse">
<stop stop-color="#87481C"/>
<stop offset="0.62" stop-color="#A54F1B"/>
</linearGradient>
<linearGradient id="paint12_linear_4778_4065" x1="11.3856" y1="17.7923" x2="14.1061" y2="18.5616" gradientUnits="userSpaceOnUse">
<stop stop-color="#87481C"/>
<stop offset="1" stop-color="#A34E1B"/>
</linearGradient>
<linearGradient id="paint13_linear_4778_4065" x1="13.3546" y1="19.8273" x2="12.4471" y2="16.8244" gradientUnits="userSpaceOnUse">
<stop stop-color="#FFE28A"/>
<stop offset="1" stop-color="#FFB34E"/>
</linearGradient>
<linearGradient id="paint14_linear_4778_4065" x1="20.8605" y1="3.22156" x2="15.0538" y2="18.8359" gradientUnits="userSpaceOnUse">
<stop offset="0.11" stop-color="#B86B32"/>
<stop offset="0.51" stop-color="#FFBE5C"/>
<stop offset="0.63" stop-color="#FFE28A"/>
<stop offset="0.81" stop-color="#FFB652"/>
<stop offset="1" stop-color="#B7682F"/>
</linearGradient>
<linearGradient id="paint15_linear_4778_4065" x1="18.959" y1="7.19743" x2="15.3793" y2="16.8231" gradientUnits="userSpaceOnUse">
<stop stop-color="#764920"/>
<stop offset="0.37" stop-color="#D89549"/>
<stop offset="0.67" stop-color="#FFF9B4"/>
<stop offset="1" stop-color="#FFB451"/>
</linearGradient>
<linearGradient id="paint16_linear_4778_4065" x1="17.9929" y1="4.89072" x2="19.958" y2="7.94862" gradientUnits="userSpaceOnUse">
<stop stop-color="#FFFDE0"/>
<stop offset="0.2" stop-color="#FFFBA1"/>
<stop offset="1" stop-color="#FFB34E"/>
</linearGradient>
<linearGradient id="paint17_linear_4778_4065" x1="11.0698" y1="19.7118" x2="17.0942" y2="20.5589" gradientUnits="userSpaceOnUse">
<stop stop-color="#87481C"/>
<stop offset="0.18" stop-color="#904A1B"/>
<stop offset="0.67" stop-color="#A34E1B"/>
<stop offset="1" stop-color="#AA501B"/>
</linearGradient>
<linearGradient id="paint18_linear_4778_4065" x1="13.8772" y1="18.4649" x2="13.9782" y2="20.8298" gradientUnits="userSpaceOnUse">
<stop stop-color="#FFF7A1"/>
<stop offset="0.12" stop-color="#FFE389"/>
<stop offset="0.27" stop-color="#FFCF70"/>
<stop offset="0.41" stop-color="#FFC362"/>
<stop offset="0.52" stop-color="#FFBF5D"/>
<stop offset="1" stop-color="#B4622A"/>
</linearGradient>
<linearGradient id="paint19_linear_4778_4065" x1="5.74803" y1="0.603161" x2="5.36916" y2="9.46441" gradientUnits="userSpaceOnUse">
<stop stop-color="#FFC96A"/>
<stop offset="0.15" stop-color="#FFE386"/>
<stop offset="0.32" stop-color="#FFFDA1"/>
<stop offset="0.37" stop-color="#FBDA75"/>
<stop offset="0.41" stop-color="#F8BE53"/>
<stop offset="0.45" stop-color="#F6AA3A"/>
<stop offset="0.49" stop-color="#F59F2C"/>
<stop offset="0.52" stop-color="#F59B27"/>
<stop offset="1" stop-color="#AF5B24"/>
</linearGradient>
<linearGradient id="paint20_linear_4778_4065" x1="5.77488" y1="0.604201" x2="5.39497" y2="9.46545" gradientUnits="userSpaceOnUse">
<stop stop-color="#B5652D"/>
<stop offset="0.15" stop-color="#AE622B"/>
<stop offset="0.37" stop-color="#9B5A29"/>
<stop offset="0.62" stop-color="#7C4E24"/>
<stop offset="0.73" stop-color="#6D4922"/>
<stop offset="1" stop-color="#D79337"/>
</linearGradient>
<linearGradient id="paint21_linear_4778_4065" x1="8.85656" y1="2.41581" x2="2.81314" y2="8.882" gradientUnits="userSpaceOnUse">
<stop stop-color="#C5AB7C"/>
<stop offset="1" stop-color="#A08352"/>
</linearGradient>
<linearGradient id="paint22_linear_4778_4065" x1="6.35785" y1="19.0306" x2="0.700124" y2="18.0382" gradientUnits="userSpaceOnUse">
<stop offset="0.19" stop-color="#643604"/>
<stop offset="1" stop-color="#905C2D"/>
</linearGradient>
<linearGradient id="paint23_linear_4778_4065" x1="1.39357" y1="16.0873" x2="8.25173" y2="19.8042" gradientUnits="userSpaceOnUse">
<stop stop-color="#FFB34E"/>
<stop offset="0.11" stop-color="#D8883B"/>
<stop offset="0.23" stop-color="#B35E29"/>
<stop offset="0.42" stop-color="#985526"/>
<stop offset="0.63" stop-color="#804E23"/>
<stop offset="0.83" stop-color="#714A22"/>
<stop offset="1" stop-color="#6D4922"/>
</linearGradient>
<linearGradient id="paint24_linear_4778_4065" x1="-0.195246" y1="3.22683" x2="5.68744" y2="19.0439" gradientUnits="userSpaceOnUse">
<stop stop-color="#87481C"/>
<stop offset="0.62" stop-color="#A54F1B"/>
</linearGradient>
<linearGradient id="paint25_linear_4778_4065" x1="9.30141" y1="17.7923" x2="6.58091" y2="18.5616" gradientUnits="userSpaceOnUse">
<stop stop-color="#87481C"/>
<stop offset="1" stop-color="#A34E1B"/>
</linearGradient>
<linearGradient id="paint26_linear_4778_4065" x1="7.33248" y1="19.8273" x2="8.24101" y2="16.8244" gradientUnits="userSpaceOnUse">
<stop stop-color="#FFE28A"/>
<stop offset="1" stop-color="#FFB34E"/>
</linearGradient>
<linearGradient id="paint27_linear_4778_4065" x1="-0.17236" y1="3.22156" x2="5.63436" y2="18.8359" gradientUnits="userSpaceOnUse">
<stop offset="0.11" stop-color="#B86B32"/>
<stop offset="0.51" stop-color="#FFBE5C"/>
<stop offset="0.63" stop-color="#FFE28A"/>
<stop offset="0.81" stop-color="#FFB652"/>
<stop offset="1" stop-color="#B7682F"/>
</linearGradient>
<linearGradient id="paint28_linear_4778_4065" x1="1.72805" y1="7.19744" x2="5.30782" y2="16.8231" gradientUnits="userSpaceOnUse">
<stop stop-color="#764920"/>
<stop offset="0.37" stop-color="#D89549"/>
<stop offset="0.67" stop-color="#FFF9B4"/>
<stop offset="1" stop-color="#FFB451"/>
</linearGradient>
<linearGradient id="paint29_linear_4778_4065" x1="2.69422" y1="4.89072" x2="0.730099" y2="7.94862" gradientUnits="userSpaceOnUse">
<stop stop-color="#FFFDE0"/>
<stop offset="0.2" stop-color="#FFFBA1"/>
<stop offset="1" stop-color="#FFB34E"/>
</linearGradient>
<linearGradient id="paint30_linear_4778_4065" x1="9.61752" y1="19.7118" x2="3.59312" y2="20.5589" gradientUnits="userSpaceOnUse">
<stop stop-color="#87481C"/>
<stop offset="0.18" stop-color="#904A1B"/>
<stop offset="0.67" stop-color="#A34E1B"/>
<stop offset="1" stop-color="#AA501B"/>
</linearGradient>
<linearGradient id="paint31_linear_4778_4065" x1="6.81011" y1="18.4649" x2="6.70915" y2="20.8298" gradientUnits="userSpaceOnUse">
<stop stop-color="#FFF7A1"/>
<stop offset="0.12" stop-color="#FFE389"/>
<stop offset="0.27" stop-color="#FFCF70"/>
<stop offset="0.41" stop-color="#FFC362"/>
<stop offset="0.52" stop-color="#FFBF5D"/>
<stop offset="1" stop-color="#B4622A"/>
</linearGradient>
<clipPath id="clip0_4778_4065">
<rect width="20.6867" height="21.3541" fill="white"/>
</clipPath>
</defs>
</svg>
