<svg width="57" height="57" viewBox="0 0 57 57" fill="none" xmlns="http://www.w3.org/2000/svg">
<rect width="57" height="57" rx="28.5" fill="white"/>
<path d="M18.8442 10.8057H40.1557C41.739 10.8057 43.0219 12.0885 43.0219 13.6718V41.3282C43.0219 42.9116 41.739 44.1944 40.1557 44.1944H18.8442C17.2609 44.206 15.978 42.9231 15.978 41.3398V13.6718C15.978 12.0885 17.2609 10.8057 18.8442 10.8057Z" fill="white"/>
<path d="M18.8443 11.2102H40.1557C41.5195 11.2102 42.6174 12.3081 42.6174 13.6719V41.3398C42.6174 42.692 41.5195 43.8015 40.1557 43.8015H18.8443C17.4805 43.8015 16.3826 42.7036 16.3826 41.3398V13.6719C16.3826 12.3197 17.4921 11.2102 18.8443 11.2102Z" fill="white"/>
<path d="M40.9763 24.004V27.1938C40.9763 27.9912 40.3291 28.6269 39.5432 28.6269H19.4568C18.6593 28.6269 18.0237 27.9797 18.0237 27.1938V14.2844C18.0237 13.4985 18.6709 12.8513 19.4568 12.8513H39.5316C40.3291 12.8513 40.9647 13.4985 40.9647 14.2844V17.3586C40.7105 17.0928 40.3406 16.9195 39.9361 16.9195C39.1502 16.9195 38.503 17.5551 38.503 18.3525C38.503 19.15 39.1387 19.7856 39.9361 19.7856C40.3406 19.7856 40.7105 19.6238 40.9647 19.3465V24.004H40.9763ZM23.7214 24.004C23.7907 24.212 23.8832 24.4894 23.9988 24.813C23.5133 24.5703 21.9647 25.2637 21.4099 25.4487C21.4099 25.4487 21.1095 25.1713 20.913 25.0788C20.809 25.0326 20.5894 25.0673 20.4738 25.1597C20.4391 25.1366 20.4045 25.0788 20.3351 25.1828C20.2889 25.2522 20.312 25.2637 20.3582 25.2984C20.3351 25.3331 20.3004 25.4024 20.2773 25.4371C20.2427 25.4255 20.208 25.3793 20.1502 25.4833C20.0924 25.5989 20.1502 25.5989 20.1964 25.622C20.0462 25.9341 19.7804 26.1305 19.6301 26.4541C19.5839 26.431 19.5492 26.4079 19.4914 26.535C19.4568 26.6275 19.4914 26.6391 19.5492 26.6737C19.5261 26.7662 19.503 26.8586 19.4914 26.928C19.4799 26.928 19.399 26.9049 19.3874 26.9973C19.3643 27.1245 19.3874 27.1476 19.4683 27.1591C19.4683 27.2169 19.4683 27.2747 19.4683 27.344C19.5146 27.5405 19.6879 27.5752 19.7804 27.4943C20.312 27.0898 20.7165 26.824 21.017 26.6044C21.8029 26.535 23.9641 26.3848 24.5997 26.327C24.9118 26.3501 25.8479 25.5411 25.8595 25.2637C25.8826 24.7437 25.8595 24.3854 25.8248 23.9809C25.8017 23.6457 25.767 23.2759 25.7323 22.7327L25.8826 22.6865L25.8941 21.5654L26.1946 21.577C26.1946 21.577 26.1946 21.577 26.2293 21.4499C26.9921 21.5308 28.4367 21.7619 29.396 21.6926C29.5809 21.681 29.7427 21.7504 29.8582 21.8775C30.1009 22.0855 31.8923 22.2704 33.3832 22.282C33.5681 22.7789 33.9726 22.8714 33.9726 22.8714C34.0073 22.8945 34.0304 22.8714 34.1113 22.8252C34.1575 22.8714 34.1806 22.9061 34.2731 22.8598C34.3424 22.8252 34.3424 22.7905 34.3193 22.7327L34.3887 22.6865C34.4349 22.7327 34.4696 22.7558 34.5389 22.7096C34.6083 22.6634 34.6083 22.6518 34.562 22.5709C34.7123 22.4669 35.5906 21.8197 35.5906 21.8197C35.6253 21.8544 35.6368 21.8659 35.66 21.8659C35.6831 21.8659 35.7755 21.7966 35.7871 21.7619C35.7986 21.7388 35.7755 21.7041 35.7409 21.6695L35.8911 21.5539C35.9142 21.5886 35.9373 21.6117 35.9604 21.6001C35.9951 21.5886 36.0298 21.5539 36.0529 21.5192C36.0645 21.4961 36.0413 21.4614 36.0182 21.4383L36.1222 21.3227C36.0876 21.1494 35.9142 21.1725 35.764 21.1841C35.3826 21.2072 34.3193 21.369 33.9033 21.3574C33.1405 21.1032 30.2165 20.0168 30.0432 19.9474C29.8582 19.8781 29.6964 19.855 29.4884 19.8665C28.7025 19.4505 27.2117 19.1269 27.0845 19.0806C27.0498 19.0691 27.0614 18.9997 27.0499 18.9535C27.0499 18.9535 26.4026 18.8379 25.8826 18.8379C25.975 18.4566 26.1253 17.3124 26.1253 16.9657C26.2062 17.0119 26.264 17.0466 26.368 17.0581C26.5529 17.0813 26.7494 16.9426 26.9805 16.8501C27.1076 16.8039 27.1192 16.8732 27.1885 16.827C27.3388 16.7345 27.4197 16.4456 27.6508 16.2722C27.8011 16.1567 27.9513 16.1913 28.0091 16.0527C28.1131 15.8331 28.0669 15.6713 28.0207 15.4286C27.9513 15.0703 27.882 14.8276 27.593 14.5965C27.3619 14.4231 27.1885 14.3538 26.8996 14.3538C26.5644 14.3538 25.9981 14.5156 25.6861 15.3014C25.3394 15.105 25.2007 15.001 24.8309 14.8738C24.1606 14.6311 22.0456 15.0934 21.8029 15.209C21.826 15.3246 21.826 15.417 21.826 15.417C21.826 15.417 21.5717 15.4286 21.4677 15.5673C20.9708 16.2838 20.3929 17.3008 20.3929 17.3008C20.1849 17.3471 20.0462 17.4858 19.9537 17.6938C19.8497 17.9018 19.7573 17.9365 19.5492 18.0636C19.399 18.1098 19.4568 18.2716 19.5377 18.2716C19.6879 18.2601 19.8266 18.1792 19.9768 18.0636C19.8959 18.3179 19.5955 18.5028 19.5839 18.6068C19.6186 18.7455 19.9422 18.942 20.3582 18.6184C20.4969 18.5143 20.6356 18.4219 20.7281 18.2948C20.7859 18.2254 20.809 17.948 20.8668 17.7516C20.9592 17.7053 21.6758 17.0581 22.1843 16.5381C22.1843 16.5381 23.236 16.33 23.7445 16.2491C23.7445 16.2491 23.3515 16.434 22.9702 16.5727C22.323 18.9882 22.3692 20.0515 22.7159 20.167C22.4501 20.6409 23.0626 22.6056 23.3862 23.4262L23.548 23.4493C23.5365 23.4839 23.6058 23.6689 23.7214 24.004Z" fill="#E31018"/>
<path d="M18.0237 33.7466H20.0809C20.9014 33.7466 21.3522 33.6195 21.3522 32.6602C21.3522 32.1748 21.2597 31.8281 20.6818 31.7934V31.7472C21.1904 31.6663 21.2944 31.3427 21.2944 30.8457C21.2944 29.9905 20.8436 29.8518 20.0693 29.8518H18.0237V33.7466ZM19.0638 30.7186H19.9306C20.2195 30.7302 20.2542 30.8111 20.2542 31.0538C20.2542 31.3658 20.1618 31.4236 19.8035 31.4236H19.0523V30.7186H19.0638ZM19.0638 32.1401H19.8728C20.208 32.1401 20.3236 32.1864 20.3236 32.51C20.3236 32.822 20.1849 32.9029 19.8497 32.9029H19.0638V32.1401Z" fill="black"/>
<path d="M24.1723 29.8635V32.383C24.1723 32.8337 24.022 32.88 23.5829 32.88C23.1437 32.88 22.901 32.88 22.901 32.4292V29.8635H21.8608V32.4523C21.8608 33.3885 22.0226 33.7814 23.5829 33.7814C24.727 33.7814 25.2124 33.4925 25.2124 32.4523V29.8635H24.1723Z" fill="black"/>
<path d="M26.8187 30.765H26.8649L27.9629 33.7467H29.7311V29.8635H28.691L28.7603 32.8453H28.7141L27.6046 29.8635H25.8479V33.7467H26.888L26.8187 30.765Z" fill="black"/>
<path d="M30.3206 33.7467H32.424C33.5103 33.7467 33.8455 33.2498 33.8455 32.1865V31.3775C33.8455 30.268 33.3601 29.8635 32.2853 29.8635H30.3206V33.7467ZM31.3491 30.765H32.2506C32.6089 30.765 32.7707 30.869 32.7707 31.366V32.175C32.7707 32.5795 32.632 32.8337 32.2506 32.8337H31.3491V30.765Z" fill="black"/>
<path d="M35.4291 30.7188H37.1973V29.8635H34.3889V33.7467H37.232V32.9031H35.4291V32.1403H37.0817V31.4237H35.4291V30.7188Z" fill="black"/>
<path d="M39.2312 31.3544C38.9538 31.3313 38.8036 31.3197 38.8036 31.0077C38.8036 30.7881 38.8498 30.6725 39.4045 30.6725C39.8206 30.6725 39.9824 30.6725 39.9824 31.077H40.9763V30.9152C40.9763 29.8404 40.2482 29.8289 39.4045 29.8289C38.3875 29.8289 37.7634 29.8982 37.7634 31.0192C37.7634 32.1287 38.3182 32.1287 39.2774 32.1981L39.5086 32.2096C39.994 32.2443 40.0518 32.2328 40.0518 32.5679C40.0518 32.8915 39.89 32.9262 39.4045 32.9262C38.896 32.9262 38.7573 32.88 38.7573 32.4755H37.7634C37.7634 33.7467 38.4222 33.7699 39.4161 33.7699C41.1266 33.7699 41.1035 33.1342 41.1035 32.4986C41.1035 31.6087 40.8145 31.4584 39.6704 31.3775L39.2312 31.3544Z" fill="black"/>
<path d="M20.0462 34.5789H18.0237V42.1604H22.9239V40.3921H20.0462V34.5789Z" fill="black"/>
<path d="M25.8365 34.5789H23.814V42.1604H25.8365V34.5789Z" fill="black"/>
<path d="M33.7069 36.9828C33.7069 34.5789 32.3084 34.5674 30.3553 34.5674C28.1363 34.5674 26.761 34.9372 26.761 37.4451V39.4098C26.761 41.8715 27.9745 42.2645 30.3553 42.2645C33.0597 42.2645 33.7069 41.8022 33.7069 39.248V37.919H30.2628V39.3289H31.6612C31.6612 40.3807 31.3839 40.6118 30.3553 40.6118C29.3036 40.6118 28.8413 40.4731 28.8413 39.1209V37.8843C28.8644 36.6592 28.8991 36.2201 30.3553 36.2201C30.9562 36.2201 31.615 36.2085 31.6612 36.9828H33.7069Z" fill="black"/>
<path d="M39.0464 40.8544L39.4393 42.1604H41.4965L39.2082 34.5789H36.1339L33.8572 42.1604H35.9606L36.3304 40.8544H39.0464ZM38.6419 39.3751H36.758L37.6826 36.0929H37.7057L38.6419 39.3751Z" fill="black"/>
</svg>
