<svg width="57" height="57" viewBox="0 0 57 57" fill="none" xmlns="http://www.w3.org/2000/svg">
<rect width="57" height="57" rx="28.5" fill="white"/>
<path fill-rule="evenodd" clip-rule="evenodd" d="M25.2915 11.1011C26.9331 10.2554 29.9924 8.86258 32.6538 9.01181C32.2061 9.40977 29.7686 11.325 28.9229 12.1457C30.1168 12.6183 32.604 13.5386 33.3502 14.1355C31.8579 14.2102 28.9478 14.3594 27.2067 14.3843C26.6098 15.2797 25.5651 17.7918 25.3413 19.2593C24.3713 18.5628 23.4261 16.7969 22.6053 15.4786C21.3617 15.6776 19.2475 16.573 18.1034 16.8964C19.1729 15.404 20.0683 14.4589 21.5109 13.3147C21.0632 12.5188 20.5658 11.1757 20.3917 10.2803C23.3017 10.3301 24.5702 10.9767 25.2915 11.1011Z" fill="black"/>
<path fill-rule="evenodd" clip-rule="evenodd" d="M19.4714 27.4174C20.7897 26.4474 23.1028 25.3779 24.5205 25.1043C24.4211 22.4927 24.8439 21.0252 25.1175 19.0603C26.3362 20.8014 27.157 22.2937 28.326 23.6866C30.4402 23.1145 32.8031 22.3683 34.7182 21.9455C33.0767 24.2835 32.1066 25.5023 30.863 27.2185C32.231 29.0342 33.6487 30.5514 35.0665 32.0437L35.0913 32.0686C33.0269 31.8696 30.6143 31.1732 28.7489 30.626C27.5799 32.1432 26.6844 33.9589 25.6149 35.6502C25.0677 33.9838 24.62 31.6209 24.5205 29.3575C22.8541 28.7606 21.2125 28.1387 19.4714 27.4174Z" fill="black"/>
<path fill-rule="evenodd" clip-rule="evenodd" d="M42.0058 17.0954C44.4185 18.3639 45.7616 20.0054 46.8311 21.448C45.7118 21.2988 44.518 21.1496 43.2246 21.0998C43.4982 22.5922 43.5728 24.6317 43.4982 26.3977C42.4038 24.582 41.0607 22.7912 40.1155 21.1744C38.1257 21.2739 35.9618 21.7465 34.7182 21.9952C35.539 20.9506 36.9319 19.2344 37.678 18.0903C36.8075 17.2943 35.0664 15.3792 33.2507 14.1107C35.8623 14.1107 37.5785 14.7822 38.9714 15.3294C39.4688 14.7574 39.8171 13.2899 40.1901 12.3447C41.185 13.8868 41.7571 15.5284 42.0058 17.0954Z" fill="black"/>
<path fill-rule="evenodd" clip-rule="evenodd" d="M34.9668 32.0438C37.5038 32.1682 38.9464 32.1682 40.7372 32.1931C41.8565 30.2779 42.9011 27.7409 43.498 26.0496C43.8463 27.4424 44.1199 29.6063 44.1199 31.3723C45.4381 31.0241 46.8807 30.452 48 29.9297C47.4776 31.6956 46.3584 33.4864 44.4183 35.2275C44.6173 36.8691 44.7417 37.8888 44.667 39.2071C43.6473 38.8837 42.6275 38.3117 41.5331 37.7147C40.1651 38.5107 38.3246 39.2568 36.5835 39.5056C37.4043 38.2619 38.3743 36.4462 38.7723 35.7498C37.4789 34.8047 36.0612 33.4864 34.9668 32.0438Z" fill="black"/>
<path fill-rule="evenodd" clip-rule="evenodd" d="M28.7737 43.2862C30.3904 43.4105 31.9325 43.5349 33.3502 43.51C34.6933 42.1172 35.7628 40.6248 36.6582 39.4558C36.7826 40.7243 36.8323 41.4456 36.7577 43.4105C38.4988 43.311 40.4637 42.7887 41.9312 42.6644C40.8368 43.8582 37.0811 47.2658 30.8132 47.9622C30.0422 48.0368 29.0224 47.9871 28.4503 47.9124C29.5696 47.216 30.7386 46.3704 31.236 45.6491C30.3904 44.9526 29.495 44.2313 28.7737 43.2862Z" fill="black"/>
<path fill-rule="evenodd" clip-rule="evenodd" d="M16.9592 35.3518C18.3769 36.6452 20.0682 37.8391 21.4611 38.8837C22.9286 37.8142 24.5204 36.5208 25.6397 35.6254C25.4407 37.3416 25.1173 39.2319 24.8935 40.973C26.162 41.7192 27.6046 42.6146 28.8482 43.3359C27.6543 43.4354 26.2863 43.4851 24.7194 43.5597C24.6696 45.1764 24.8437 46.3454 24.9432 47.788C24.6199 47.6885 24.2965 47.6637 23.8737 47.2408C22.8539 46.1962 21.486 44.4302 20.9139 43.2612C19.2474 43.311 16.5115 42.8384 14.4719 41.744C16.2379 41.3461 17.8546 40.7491 18.9738 40.0527C18.4764 38.5355 17.581 36.7944 16.9592 35.3518Z" fill="black"/>
<path fill-rule="evenodd" clip-rule="evenodd" d="M14.3227 24.01C14.5217 25.179 14.7207 26.945 14.8202 27.7906C16.4866 27.4424 18.0287 27.318 19.5708 27.3429C18.5261 28.2135 16.8846 29.4571 15.6161 31.422C16.2379 33.0885 16.7353 34.5559 17.0587 35.5508C16.0389 35.0285 14.8699 34.2575 13.8004 33.5859C13.4024 34.3072 12.2832 35.7498 11.4375 37.466C11.0893 37.267 10.9898 36.8442 10.7659 36.3965C10.5918 35.3021 10.9152 32.9143 11.2634 31.4717C10.4923 30.8997 9.4477 30.3027 9 29.5317C9.94515 28.8601 11.1639 28.5865 12.2583 28.3378C12.7309 26.6465 13.5517 24.9303 14.3227 24.01Z" fill="black"/>
<path fill-rule="evenodd" clip-rule="evenodd" d="M9.62183 24.6567C9.62183 21.0253 13.2283 14.6331 16.3374 13.0662C15.8399 14.2103 15.4171 15.4788 15.243 16.9463C16.2379 16.9463 17.1333 16.9214 18.1282 16.8965C16.7105 17.8417 15.8151 18.6376 14.6212 19.8315C14.4471 20.702 14.3227 22.7167 14.3476 24.1593C13.676 23.4131 13.0791 22.6918 12.4324 21.7715C11.6116 22.3685 10.5172 23.4877 9.62183 24.6567Z" fill="black"/>
</svg>
