<svg width="57" height="57" viewBox="0 0 57 57" fill="none" xmlns="http://www.w3.org/2000/svg">
<rect width="57" height="57" rx="28.5" fill="white"/>
<path d="M30.0534 51.2375C31.596 51.1311 33.0957 50.8333 34.5312 50.4292C34.5955 50.4292 34.5955 50.3654 34.5955 50.3654C34.5955 50.3654 34.5955 50.3654 34.5955 50.3016C32.7529 48.3022 29.882 44.261 27.9323 40.6025C28.9179 44.5375 29.7749 48.8765 29.9463 51.1524C30.0105 51.2375 30.0105 51.2375 30.0534 51.2375Z" fill="black"/>
<path d="M38.3449 10.1443C38.3449 10.0805 38.3449 10.038 38.2806 10.038L31.3818 6.08179C31.3818 6.08179 31.3818 6.08179 31.3175 6.08179C31.2532 6.08179 31.2532 6.1456 31.2104 6.1456C30.8676 7.63449 27.6538 22.2469 32.8173 39.6456C30.9747 28.2875 35.4525 15.7383 38.3449 10.1443Z" fill="black"/>
<path d="M36.2023 49.9401C26.4753 34.4131 28.0393 12.4413 29.132 5.7626C29.132 5.69879 29.0677 5.65625 29.0249 5.65625C27.7608 6.16673 19.1908 9.59117 18.2695 9.93149C18.2053 9.93149 18.2053 9.9953 18.2053 10.0378C19.9407 17.9077 24.3542 36.5826 36.2023 49.9401Z" fill="#F18800"/>
<path d="M22.9187 50.4931C22.9187 50.557 22.9187 50.5995 22.983 50.5995C24.6541 51.0462 26.4324 51.2801 28.2107 51.3439C28.275 51.3439 28.3178 51.2801 28.3178 51.2376C28.0821 47.4728 27.2251 39.7093 24.0114 32.7966C25.0612 39.7731 23.9043 47.0687 22.9187 50.4931Z" fill="#F18800"/>
<path d="M20.3906 49.7698C20.4549 49.7698 20.4549 49.7698 20.4549 49.706C20.5192 49.5997 20.562 49.3019 20.562 49.1955C20.562 49.1317 20.4978 49.1317 20.4978 49.0892C13.5346 46.1114 8.8854 38.0714 8.8854 30.0314C8.8854 23.7568 11.585 16.9079 16.2556 13.3559V13.2921C16.2556 13.1857 16.1485 12.9517 16.1485 12.7816C16.1485 12.7178 16.0842 12.7178 16.0414 12.7178H15.9771C10.5137 16.5889 7 22.8635 7 30.074C7.06428 38.9222 12.5705 46.5581 20.3906 49.7698Z" fill="#F18800"/>
<path d="M40.2945 12.2073C40.2302 12.2073 40.2945 12.2073 40.2945 12.2073C40.2302 12.2073 40.1873 12.2073 40.1873 12.2711L39.9517 12.7178C39.9517 12.7178 39.9517 12.7178 39.9517 12.7816C39.9517 12.8454 39.9517 12.8454 40.016 12.8454C45.2008 16.3336 48.1146 23.3527 48.1146 30.0314C48.1146 37.5184 44.4938 44.9203 38.2805 48.2384L38.2162 48.3022C38.2162 48.3022 38.2162 48.3022 38.2162 48.366L38.4948 48.8127L38.559 48.8765H38.6233C45.4151 45.2819 50 38.199 50 30.0952C49.9572 22.587 46.1007 16.0146 40.2945 12.2073Z" fill="#F18800"/>
</svg>
