<svg width="57" height="57" viewBox="0 0 57 57" fill="none" xmlns="http://www.w3.org/2000/svg">
<rect width="57" height="57" rx="28.5" fill="white"/>
<path fill-rule="evenodd" clip-rule="evenodd" d="M30.2196 20.5292L29.2094 12.998C29.2094 12.998 37.0344 11.6938 42.1776 16.8371L37.2916 22.8252C37.2916 22.8252 34.7934 20.3271 30.2196 20.5292Z" fill="#ED1C24"/>
<path fill-rule="evenodd" clip-rule="evenodd" d="M35.9874 25.1398L41.2225 19.6108C41.2225 19.6108 47.1556 24.8826 46.3841 32.1199L38.6509 32.0832C38.6509 32.0832 39.0366 28.5747 35.9874 25.1398Z" fill="#F58220"/>
<path fill-rule="evenodd" clip-rule="evenodd" d="M36.0058 32.5791L43.5737 33.222C43.5737 33.222 43.1512 41.1389 37.0161 45.0514L32.2402 38.9714C32.2402 38.9898 35.216 37.0978 36.0058 32.5791Z" fill="#FEEF36"/>
<path fill-rule="evenodd" clip-rule="evenodd" d="M30.2013 37.2449L34.4077 43.5821C34.4077 43.5821 27.942 48.1926 21.0537 45.823L22.8355 38.2919C22.8355 38.2735 26.1786 39.4307 30.2013 37.2449Z" fill="#4FB964"/>
<path fill-rule="evenodd" clip-rule="evenodd" d="M22.9456 35.5916L20.6128 42.8288C20.6128 42.8288 12.9898 40.643 10.5468 33.7915L17.5452 30.4851C17.5452 30.4851 18.7208 33.8098 22.9456 35.5916Z" fill="#A09ACB"/>
<path fill-rule="evenodd" clip-rule="evenodd" d="M19.6944 28.887L12.5857 31.5872C12.5857 31.5872 9.53655 24.2581 13.394 18.0679L20.3373 21.4844C20.3373 21.4844 18.4637 24.4785 19.6944 28.887Z" fill="#7670B3"/>
<path fill-rule="evenodd" clip-rule="evenodd" d="M22.9272 22.1825L16.3879 18.2883C16.3879 18.2883 20.227 11.345 27.4642 10.5L29.1174 18.0495C29.1174 18.0495 25.609 18.4536 22.9272 22.1825Z" fill="#C657A0"/>
<path d="M26.3255 23.1561C25.6091 23.45 24.9662 23.8725 24.4151 24.4236C23.8641 24.9746 23.4416 25.6175 23.1477 26.3339C22.8722 27.0319 22.7252 27.7483 22.7252 28.5014C22.7252 29.2545 22.8722 29.9709 23.1477 30.6689C23.4416 31.3853 23.8641 32.0282 24.4151 32.5792C24.9662 33.1303 25.6091 33.5528 26.3255 33.8467C27.0235 34.1222 27.7399 34.2692 28.493 34.2692C29.2461 34.2692 29.9625 34.1222 30.6605 33.8467C31.3769 33.5528 32.0198 33.1303 32.5708 32.5792C33.1219 32.0282 33.5444 31.3853 33.8383 30.6689C34.1138 29.9709 34.2607 29.2545 34.2607 28.5014C34.2607 27.7483 34.1138 27.0319 33.8383 26.3339C33.5444 25.6175 33.1219 24.9746 32.5708 24.4236C32.0198 23.8725 31.3769 23.45 30.6605 23.1561C29.9625 22.8806 29.2461 22.7336 28.493 22.7336C27.7399 22.7336 27.0235 22.8806 26.3255 23.1561Z" fill="#211316"/>
<path d="M24.1764 30.9076C23.9009 30.7422 23.6437 30.5402 23.4233 30.3014C23.0743 29.3279 23.0192 28.2808 23.2396 27.2706C23.3498 27.0501 23.4784 26.8481 23.607 26.6644C23.6437 26.6093 23.6805 26.5358 23.7356 26.4807L25.0398 27.2522C25.0398 27.2706 25.0398 27.2706 25.0398 27.2889C25.0398 27.9869 25.1132 28.685 25.2418 29.3646L24.2315 30.9443C24.2315 30.9443 24.1948 30.9259 24.1764 30.9076Z" fill="white"/>
<path d="M28.0522 33.5895C28.2726 33.6997 28.5114 33.7915 28.7502 33.8834C27.7399 33.9201 26.7297 33.6997 25.8296 33.167L28.0155 33.5527C28.0155 33.5711 28.0338 33.5711 28.0522 33.5895Z" fill="white"/>
<path d="M28.0337 33.2037L25.4621 32.7445C25.1682 32.3771 24.8927 31.9914 24.6539 31.5873C24.5988 31.4771 24.5253 31.3852 24.4702 31.275L25.4805 29.6953C25.4989 29.6953 25.5356 29.7137 25.554 29.7137C26.1785 29.879 26.8214 30.0076 27.4643 30.0994C27.501 30.0994 27.5378 30.1178 27.5561 30.1178L28.7685 32.2118C28.5664 32.5057 28.346 32.7996 28.1256 33.0935C28.1256 33.1119 28.0705 33.1486 28.0337 33.2037Z" fill="white"/>
<path d="M32.3136 32.3037C32.1115 32.5058 31.8911 32.6895 31.6707 32.8548C31.6339 32.5609 31.5605 32.2486 31.4686 31.9731L32.7544 29.5668C33.1034 29.4015 33.4524 29.2178 33.7647 28.9974C33.8014 28.9606 33.8382 28.9423 33.8749 28.9055C33.7831 30.1362 33.2688 31.3669 32.3136 32.3037Z" fill="white"/>
<path d="M32.2585 29.1808C32.3136 29.2726 32.3503 29.3645 32.4054 29.4563L31.1563 31.7708H31.138C30.4583 31.8994 29.7787 31.9545 29.099 31.9728L27.85 29.8237C28.052 29.4563 28.2357 29.1073 28.4194 28.74C28.548 28.5012 28.6766 28.244 28.8051 28.0052L31.3768 27.748C31.7074 28.2256 32.0013 28.6848 32.2585 29.1808Z" fill="white"/>
<path d="M31.7442 26.4441C31.6156 26.7747 31.487 27.087 31.3585 27.3993L28.8603 27.6564C28.8236 27.6197 28.8052 27.583 28.7685 27.5462C28.4746 27.2156 28.1807 26.885 27.8868 26.5359C27.7582 26.4074 27.648 26.2972 27.5194 26.1686L28.2174 24.0745C28.2725 24.0562 28.3093 24.0562 28.3644 24.0378C28.7501 24.0011 29.1175 23.9643 29.5032 23.9276C29.742 23.9092 29.9624 23.9092 30.2012 23.9276L31.9279 25.8747C31.8728 26.0584 31.7993 26.2604 31.7442 26.4441Z" fill="white"/>
<path d="M32.3136 24.6807C32.7912 25.1583 33.1586 25.691 33.4157 26.2788C33.0851 26.0584 32.7545 25.8747 32.3871 25.7277C32.332 25.7094 32.2769 25.691 32.2218 25.6726L30.5319 23.7623C30.5502 23.6888 30.5502 23.597 30.5502 23.5051C31.1931 23.7623 31.7993 24.148 32.3136 24.6807Z" fill="white"/>
<path d="M26.7663 23.3949C26.7846 23.3949 26.7846 23.4133 26.7663 23.3949C27.1704 23.5418 27.5194 23.7439 27.85 23.9643L27.2071 25.9298C27.2071 25.9298 27.2071 25.9298 27.1888 25.9298C27.0602 25.9849 26.9132 26.04 26.7846 26.0951C26.252 26.3339 25.7193 26.6094 25.2233 26.94L23.9375 26.1869C23.9375 26.1502 23.9375 26.1134 23.9559 26.0767C24.0477 25.8379 24.1212 25.6175 24.2314 25.3971C24.3049 25.2317 24.3967 25.0481 24.4886 24.9011C24.5437 24.8276 24.6171 24.7725 24.6722 24.6991C25.2784 24.0929 25.9948 23.652 26.7663 23.3949C26.7846 23.3949 26.7846 23.3765 26.7663 23.3949Z" fill="white"/>
</svg>
