<svg width="57" height="57" viewBox="0 0 57 57" fill="none" xmlns="http://www.w3.org/2000/svg">
<rect width="57" height="57" rx="28.5" fill="white"/>
<path d="M40.9386 25.8807C40.1085 26.5531 39.4202 26.9402 39.4202 26.9402V29.1001C40.0073 29.7521 40.5944 30.2819 41.0196 31.2599C41.8497 29.7928 41.7079 27.6534 40.9386 25.8807ZM40.2705 32.9511C40.2705 32.9511 40.1085 32.0546 39.3797 31.2395L37.7398 31.2803C37.7398 31.2803 35.533 33.1345 34.1968 33.1752C34.1968 33.1752 34.9459 34.5201 35.3103 35.2332C36.0594 35.0702 37.3551 34.4997 37.8815 33.9088C37.8815 33.9088 38.2257 35.0091 38.165 36.2928C38.8938 35.8852 39.9061 34.7442 40.2705 32.9511ZM38.165 29.0593V26.8995C38.165 26.8995 37.1932 26.5938 36.1404 25.7992C34.0349 26.1048 31.5042 28.1831 31.5042 28.1831C31.5042 28.1831 32.3545 29.7725 33.306 31.5044C34.9459 31.7285 37.3754 29.691 38.165 29.0593ZM43.7528 38.0043L42.3963 36.5373C42.0116 40.4902 40.0276 43.8726 36.4036 46.2158L35.857 44.0764C32.7796 46.2566 27.4955 47.6829 22.9403 45.1563C23.5072 42.324 24.0133 39.4714 22.9403 36.0279C20.4298 39.8585 18.2028 41.346 18.2028 41.346C16.5022 38.5341 16.6642 32.9307 17.1703 31.2599L14.3157 32.1361C14.3157 30.2411 15.6924 26.2474 17.7169 23.9857L15.9353 23.7208C17.1501 21.3165 18.9317 19.2381 21.1182 17.6692C20.4501 18.688 20.4501 21.2146 22.3734 22.1722C21.5636 20.7663 21.4624 19.014 22.3127 18.1174C23.163 17.2005 24.6004 17.5265 25.5317 18.2193C25.2483 17.4247 24.4587 16.4466 23.2642 16.3855C25.5317 15.2444 28.1029 14.5924 30.8361 14.5924C31.3422 14.5924 31.8483 14.6128 32.3545 14.6535C33.1441 14.9592 34.3183 16.0595 34.8447 16.7522C34.8447 16.7522 34.8852 15.9576 34.4195 14.9795C37.3754 15.6927 38.7723 16.8541 39.3595 17.4247C39.4809 18.6676 39.8656 19.4215 40.3717 20.6237C39.4202 19.5641 37.011 17.8729 35.8772 17.4654C35.8772 17.4654 35.776 18.5453 35.3913 19.0751C33.1036 17.4654 31.9901 17.0579 31.9901 17.0579C29.4796 17.4043 27.86 18.3416 26.9894 19.0955L27.7587 19.7271C26.2403 20.1958 25.2483 21.4591 25.2483 21.4591C25.2685 21.4795 26.6047 21.6628 26.6047 21.6628C26.6047 21.6628 26.463 23.2114 28.4268 24.1691C30.1072 25.0045 32.5367 23.9653 34.8244 24.8619C33.3263 23.1503 32.2938 22.3964 32.2938 22.3964C32.2938 22.3964 31.7066 22.2741 31.2815 22.2741C30.7551 22.2741 29.9655 22.376 29.1152 22.05C28.7103 21.887 28.2244 21.6221 27.86 21.3776C27.86 21.3776 28.9127 20.318 30.4514 20.0735C30.4514 20.0735 31.8483 20.4607 32.9416 21.2553C33.6705 20.5625 34.4398 20.5829 34.4398 20.5829C34.4398 20.5829 33.6907 21.2757 33.9134 22.1111C35.0067 23.0688 36.2011 24.4543 36.2011 24.4543C37.4159 23.8023 40.0478 23.9449 40.5944 24.5766C39.9061 23.7004 38.9141 22.9669 38.1447 22.3353C38.0435 22.0092 37.2134 20.8682 37.0717 20.7663C37.0717 20.7663 37.8613 21.0108 38.5699 21.6425C38.7723 21.3572 39.157 21.0719 39.6834 20.9293C40.2098 21.3776 40.311 22.05 40.2908 22.1519C40.0478 22.4371 39.8049 22.5594 39.8049 22.5594L41.1006 23.9246L41.2221 22.9465C44.2184 27.144 45.8178 31.9527 43.7528 38.0043ZM20.3084 11.6786C22.0292 12.4529 23.1225 13.4106 23.325 13.5736C23.244 13.1457 22.8998 11.047 22.6973 9.74293C23.6894 10.4153 26.0176 12.0047 26.7667 12.5141C27.0906 11.5768 28.1637 8.5 28.1637 8.5C28.1637 8.5 30.1072 11.5971 30.4312 12.0862C30.8361 11.6786 33.1643 9.13165 33.7514 8.5C33.8527 9.96707 33.9944 12.0454 34.0146 12.3714C34.1361 12.2084 35.0269 10.9859 36.5048 9.86519C35.857 11.1081 35.5533 12.8401 35.4116 14.2256C33.9539 13.8181 32.395 13.6144 30.7956 13.6144C27.779 13.594 24.9041 14.3886 22.4139 15.7742C21.9685 14.4294 21.2599 12.7789 20.3084 11.6786Z" fill="#3F1052"/>
</svg>
