<svg width="57" height="57" viewBox="0 0 57 57" fill="none" xmlns="http://www.w3.org/2000/svg">
<rect width="57" height="57" rx="28.5" fill="white"/>
<path d="M14.8412 40.4786C15.0474 44.4095 28.9038 46.4178 29.4639 46.4978L29.473 46.5002H29.4843L29.4921 46.4978C30.0522 46.4178 43.9402 44.4095 44.1464 40.4786L44.1589 13.957C44.1408 11.9194 42.643 11.1237 42.3624 10.9761C42.1697 10.8746 37.6257 8.50006 29.4921 8.50006C21.3541 8.50006 16.8292 10.8645 16.6297 10.9716C15.4994 11.5801 14.8502 12.6699 14.8502 13.957" fill="white"/>
<path d="M28.8756 26.3572H30.2904V26.1849H28.8756V26.3572Z" fill="#AC965A"/>
<path d="M24.0239 26.4812V26.6807H22.8992C22.9104 26.6052 22.9488 26.5341 23.0096 26.4654C23.0716 26.3978 23.1911 26.3088 23.3691 26.1983C23.5111 26.1104 23.5968 26.0507 23.6295 26.0191L23.7027 25.8828L23.6419 25.7723L23.4852 25.7351C23.3432 25.7351 23.2666 25.7937 23.2553 25.9098L22.9364 25.8884C22.9555 25.7746 23.0141 25.6901 23.1099 25.6371C23.2057 25.5841 23.3342 25.5571 23.4942 25.5571C23.6689 25.5571 23.8008 25.5875 23.8909 25.6506C23.98 25.7137 24.0239 25.7847 24.0239 25.8659L23.9901 25.9989L23.8853 26.1285C23.838 26.1724 23.758 26.2288 23.6486 26.2953C23.545 26.3595 23.4796 26.4012 23.4525 26.4215L23.3861 26.4812" fill="#AC965A"/>
<path d="M24.7835 25.7352L24.6325 25.804C24.5942 25.8502 24.575 25.9584 24.575 26.1286C24.575 26.2999 24.5942 26.4081 24.6325 26.4543L24.7835 26.5219L24.9357 26.4531C24.9728 26.4069 24.992 26.2999 24.992 26.1286C24.992 25.9584 24.9729 25.8502 24.9357 25.804L24.7835 25.7352ZM24.7825 25.5572C24.9448 25.5572 25.0766 25.5989 25.1769 25.6845C25.2772 25.7691 25.3268 25.9178 25.3268 26.1286C25.3268 26.3404 25.2772 26.4881 25.1769 26.5726C25.0766 26.6583 24.9459 26.7 24.7847 26.7C24.6213 26.7 24.4906 26.6583 24.3903 26.5737C24.29 26.4903 24.2393 26.3416 24.2393 26.1263C24.2393 25.9167 24.29 25.7691 24.3903 25.6845C24.4906 25.5989 24.6213 25.5572 24.7825 25.5572Z" fill="#AC965A"/>
<path d="M26.3613 26.6819H26.0412V25.8727C25.9217 25.9471 25.7831 26 25.6265 26.035V25.84C25.7155 25.8209 25.8079 25.7859 25.9037 25.7341C25.9984 25.6834 26.066 25.6248 26.1032 25.5583H26.3613" fill="#AC965A"/>
<path d="M26.8458 26.3935L27.1659 26.371L27.2482 26.486L27.4014 26.5276L27.5716 26.4747C27.6178 26.4386 27.6426 26.3834 27.6426 26.309L27.5716 26.1535C27.5254 26.1197 27.4645 26.1028 27.3935 26.1028C27.3011 26.1028 27.2177 26.1309 27.1433 26.185L26.8819 26.1602L27.0476 25.5776H27.8962V25.7782H27.2921L27.2403 25.9686C27.3135 25.9438 27.3857 25.9314 27.46 25.9314C27.5919 25.9314 27.7046 25.9608 27.7959 26.0171C27.9131 26.0903 27.9695 26.1861 27.9695 26.3056C27.9695 26.4036 27.921 26.4949 27.8218 26.5772C27.7226 26.6595 27.5818 26.7012 27.3981 26.7012C27.2504 26.7012 27.1265 26.6741 27.0262 26.6212C26.927 26.5671 26.8661 26.4916 26.8458 26.3935" fill="#AC965A"/>
<path d="M32.2216 26.6819H31.0935C31.1194 26.514 31.2445 26.3956 31.5646 26.1916C31.79 26.0519 31.8982 25.9831 31.9004 25.8738C31.898 25.7363 31.7415 25.7228 31.6818 25.7228C31.5319 25.7228 31.4643 25.7859 31.453 25.9009L31.1318 25.8784C31.1408 25.8254 31.1645 25.7059 31.2975 25.6282C31.4125 25.5639 31.5747 25.5425 31.6897 25.5425C32.0785 25.5425 32.2216 25.7172 32.2216 25.8603C32.2216 26.0575 32.0086 26.1905 31.8441 26.292C31.6795 26.3956 31.6266 26.4283 31.5815 26.479H32.2216" fill="#AC965A"/>
<path d="M32.7773 26.123C32.7773 26.4239 32.8314 26.5209 32.9835 26.5209C33.1379 26.5209 33.192 26.4228 33.192 26.123C33.192 25.8221 33.1379 25.7241 32.9835 25.7241C32.8314 25.7241 32.7773 25.8199 32.7773 26.123ZM33.4569 25.7725C33.5245 25.8999 33.5301 26.0441 33.5301 26.123C33.5301 26.1963 33.5277 26.3405 33.4569 26.4668C33.3893 26.593 33.2529 26.7012 32.9858 26.7012C32.7164 26.7012 32.5789 26.5952 32.5102 26.4701C32.4392 26.3428 32.4392 26.1997 32.4392 26.1196C32.4392 26.0441 32.4426 25.8999 32.5102 25.7748C32.5801 25.6497 32.7164 25.5438 32.9835 25.5438C33.2506 25.5438 33.387 25.6486 33.4569 25.7725Z" fill="#AC965A"/>
<path d="M34.2436 26.6819V25.8626C34.1726 25.9077 34.0351 25.982 33.8289 26.0271V25.831C33.8616 25.8231 34.2041 25.7352 34.3044 25.5425H34.567V26.6819" fill="#AC965A"/>
<path d="M35.6444 26.5197C35.8506 26.5197 35.8506 26.3484 35.8506 26.3169C35.8506 26.2898 35.8506 26.105 35.6286 26.105C35.5857 26.105 35.4077 26.1163 35.4077 26.2977C35.4077 26.4104 35.49 26.5197 35.6444 26.5197ZM35.8247 25.848C35.82 25.821 35.7988 25.7229 35.6376 25.7229C35.4122 25.7229 35.3908 25.919 35.3795 26.0374L35.3842 26.0398C35.4879 25.9541 35.6164 25.9462 35.6772 25.9462C35.9421 25.9462 36.1664 26.0928 36.1664 26.317C36.1664 26.5436 35.95 26.7002 35.6288 26.7002C35.4811 26.7002 35.2276 26.6641 35.1092 26.4387C35.0585 26.3396 35.0472 26.2347 35.0472 26.1288C35.0472 26.0251 35.0472 25.5428 35.6581 25.5428C35.8091 25.5428 35.9545 25.5811 36.0458 25.6656L36.1348 25.8245" fill="#AC965A"/>
<path d="M15.675 35.2358V39.8745L15.6852 39.959C15.8813 43.6713 28.9432 45.567 29.4763 45.6436L29.4841 45.646L29.4888 45.645L29.4955 45.646L29.5034 45.6436C30.0354 45.567 43.0972 43.6713 43.2945 39.959L43.3057 39.8745V35.2358H15.6752" fill="url(#paint0_radial_5469_6421)"/>
<path d="M43.3057 35.238H15.6741V39.8745L15.6865 39.959C15.8815 43.6713 28.9445 45.5681 29.4764 45.6436L29.4854 45.646L29.4901 45.645L29.4957 45.646L29.5036 45.6436C30.0355 45.5681 43.0985 43.6713 43.2946 39.959L43.3059 39.8745V35.238H43.3057ZM42.7761 35.7677V39.8463L42.767 39.8768L42.7646 39.9309C42.7263 40.6589 41.8461 42.1116 36.3813 43.6545C33.2291 44.5437 29.9867 45.0373 29.4897 45.1094C28.9927 45.0373 25.7526 44.5448 22.5993 43.6545C17.1345 42.1116 16.2543 40.6589 16.2148 39.9309L16.2124 39.879L16.2045 39.8463V35.7677H42.7757" fill="#084C7F"/>
<path d="M38.2431 36.9599H37.9174C37.5004 36.9599 37.4745 37.0061 37.4418 37.0771L36.7972 38.6279C36.5819 39.1429 36.3599 39.6963 36.2754 39.9825C36.1976 39.6963 36.0545 39.312 35.7547 38.602L35.1101 37.0771C35.0707 36.9859 34.9083 36.9599 34.5556 36.9599H34.1905C33.8332 36.9599 33.7611 36.9926 33.7611 37.0636V41.7418C33.7611 41.8263 33.8332 41.8455 34.204 41.8455H34.4068C34.7708 41.8455 34.8757 41.8263 34.8757 41.7418V38.966H34.9016C34.9016 38.966 34.9331 39.0967 34.9861 39.2139L35.7288 40.9529C35.7615 41.0318 35.8009 41.0644 36.1458 41.0644H36.3667C36.7183 41.0644 36.7453 41.0374 36.778 40.9529L37.4553 39.2793C37.5207 39.1226 37.5658 38.966 37.5658 38.966H37.5917V41.7418C37.5917 41.8263 37.6638 41.8455 38.0482 41.8455H38.2431C38.6015 41.8455 38.7052 41.8263 38.7052 41.7418V37.0636C38.7052 36.9926 38.6015 36.9599 38.2431 36.9599H38.2431ZM32.8369 37.0636C32.8369 36.9937 32.7321 36.9599 32.3737 36.9599H32.1652C31.7877 36.9599 31.7223 36.9937 31.7223 37.0636V41.7418C31.7223 41.8263 31.7877 41.8455 32.1652 41.8455H32.3737C32.7321 41.8455 32.8369 41.8263 32.8369 41.7418V37.0636ZM30.8489 36.9599C30.947 36.9599 30.9672 36.9735 30.9672 37.3183V37.6373C30.9672 37.9697 30.9402 38.0092 30.8489 38.0092H29.7422V41.7418C29.7422 41.8263 29.6374 41.8455 29.2666 41.8455H29.0705C28.693 41.8455 28.6287 41.8263 28.6287 41.7418V38.0092H27.5209C27.4296 38.0092 27.4037 37.9832 27.4037 37.6373V37.3183C27.4037 36.9599 27.4228 36.9599 27.5209 36.9599" fill="white"/>
<path d="M22.5893 40.7996H20.5314C20.4536 40.7996 20.3838 40.8312 20.3319 40.883C20.2823 40.9326 20.2496 41.0036 20.2496 41.0802V41.5637C20.2496 41.6415 20.2823 41.7113 20.3319 41.7609C20.3815 41.8128 20.4536 41.8455 20.5314 41.8455H22.5893V40.7996ZM26.0165 40.883C25.9646 40.8312 25.8936 40.7996 25.817 40.7996H23.758V41.8455H25.817C25.8936 41.8455 25.9646 41.8128 26.0165 41.7609C26.0661 41.7113 26.0976 41.6415 26.0976 41.5637V41.0802C26.0976 41.0036 26.0661 40.9337 26.0165 40.883ZM26.0165 38.9637C25.9646 38.9108 25.8936 38.8792 25.817 38.8792H23.758V39.9239H25.817C25.8936 39.9239 25.9646 39.8935 26.0165 39.8417C26.0661 39.791 26.0976 39.7211 26.0976 39.6444V39.161C26.0976 39.0832 26.0661 39.0133 26.0165 38.9637ZM22.5893 38.8792H20.5314C20.4536 38.8792 20.3838 38.9108 20.3319 38.9626C20.2823 39.0133 20.2496 39.0832 20.2496 39.161V39.6444C20.2496 39.7211 20.2823 39.791 20.3319 39.8417C20.3815 39.8935 20.4536 39.9239 20.5314 39.9239H22.5893V38.8792ZM25.817 38.0047H20.5314C20.4536 38.0047 20.3815 37.9731 20.3319 37.9213C20.2823 37.8717 20.2496 37.8018 20.2496 37.724V37.2406C20.2496 37.1639 20.2823 37.094 20.3319 37.0433C20.3838 36.9915 20.4536 36.9599 20.5314 36.9599H25.817C25.8936 36.9599 25.9646 36.9926 26.0165 37.0433C26.0661 37.094 26.0976 37.1639 26.0976 37.2406V37.724C26.0976 37.8018 26.0661 37.8717 26.0165 37.9213C25.9646 37.9731 25.8936 38.0047 25.817 38.0047Z" fill="#E31E26"/>
<path d="M19.3447 28.8165C19.3447 30.4078 22.0292 30.1024 22.0292 31.3657C22.0292 31.8278 21.5648 32.1805 21.0137 32.1805C20.4063 32.1805 19.9284 31.9315 19.6005 31.5889L19.463 31.5967L19.3278 32.0915L19.3762 32.2279C19.7684 32.3879 20.2068 32.5547 20.9506 32.5547C21.8455 32.5547 22.6208 32.1805 22.6208 31.1978C22.6208 29.4002 19.9284 29.815 19.9284 28.5291C19.9284 28.1526 20.2542 27.9137 20.7038 27.9137C21.3654 27.9137 21.797 28.1301 22.125 28.3217L22.2523 28.2823L22.3492 27.7943L22.2918 27.6906C21.9255 27.6658 21.4386 27.5463 20.7185 27.5463C19.9206 27.5463 19.3447 28.0106 19.3447 28.8165V28.8165ZM37.0802 27.6973L35.2894 32.3406C35.2657 32.4037 35.2827 32.46 35.3536 32.46H35.9126C35.9847 32.46 36.0163 32.4352 36.0411 32.371L36.4322 31.1414L36.5279 31.0772H38.0156L38.1103 31.1414L38.3672 31.8199C38.4382 32.0205 38.5565 32.3642 38.5565 32.3642C38.5814 32.4273 38.6309 32.46 38.7019 32.46H39.5573C39.6283 32.46 39.652 32.4273 39.6204 32.3642C39.6204 32.3642 39.4367 32.0284 39.3567 31.8278L37.6865 27.6973C37.6674 27.6455 37.5242 27.6207 37.38 27.6207C37.238 27.6207 37.0959 27.6455 37.0802 27.6973ZM36.5922 30.6625L37.2075 28.8886H37.2876L37.9581 30.6625L37.9108 30.7425H36.6474L36.5922 30.6625ZM31.6007 28.2518L31.5083 28.3364L31.5162 30.3559L31.5083 32.3755L31.6007 32.46H34.0768L34.1804 32.3901V32.0318L34.0768 31.9687C34.0768 31.9687 33.2495 32.1028 32.89 32.1028H32.2589C32.1687 32.1028 32.091 32.0239 32.091 31.9326L32.0842 30.5036L32.1338 30.4551L33.4659 30.4889L33.5358 30.4393V30.1114L33.4659 30.0606L32.1338 30.0967L32.0842 30.0482L32.091 28.7702C32.091 28.6789 32.1687 28.6091 32.2589 28.6091H32.89C33.2495 28.6091 33.999 28.7161 33.999 28.7161L34.1038 28.6519V28.3217L33.999 28.2518H31.6007V28.2518ZM30.1142 28.2518L30.0241 28.3363L30.0297 30.3559L30.0241 32.3755L30.1142 32.46H30.5211L30.6124 32.3755L30.6056 30.3559L30.6124 28.3363L30.5211 28.2518H30.1142ZM26.4876 28.2518L26.4244 28.3363L26.4323 30.3559L26.4244 32.3755L26.5146 32.46H26.9226L27.0138 32.3755L27.006 30.6016L27.1401 30.4889H27.6089C27.7419 30.4889 27.8546 30.5881 27.9662 30.7695L28.9478 32.3755L29.0695 32.46H29.6026L29.6657 32.3755L29.4685 32.1084L28.5432 30.7898C28.4091 30.5948 28.3381 30.5036 28.2818 30.4607L28.2964 30.4055C28.8779 30.2714 29.2927 29.8296 29.2927 29.2481C29.2927 28.6733 28.7957 28.2518 28.1781 28.2518H26.4876H26.4876ZM27.006 30.0888L27.0139 28.6936C27.0139 28.6023 27.104 28.5324 27.1953 28.5324H27.9324C28.3674 28.5324 28.6615 28.8548 28.6615 29.2965C28.6615 29.9705 28.2693 30.2162 27.6439 30.2162H27.1401L27.006 30.0888H27.006ZM23.3308 28.2518L23.2407 28.3363L23.2463 30.3559L23.2407 32.3755L23.3308 32.46H25.808L25.9117 32.3901V32.0318L25.808 31.9686C25.808 31.9686 24.9808 32.1028 24.6224 32.1028H23.9901C23.9 32.1028 23.8222 32.0239 23.8222 31.9326L23.8143 30.5035L23.8639 30.4551L25.1972 30.4889L25.2671 30.4393V30.1113L25.1972 30.0606L23.8639 30.0967L23.8143 30.0482L23.8222 28.7702C23.8222 28.6789 23.9 28.6091 23.9901 28.6091H24.6224C24.9808 28.6091 25.7302 28.7161 25.7302 28.7161L25.835 28.6519V28.3217L25.7302 28.2518H23.3308" fill="url(#paint1_linear_5469_6421)"/>
<path d="M34.0766 32.4599H31.5995L31.5082 32.3754L31.5161 30.3558L31.5082 28.3351L31.5995 28.2517H33.9988L34.1048 28.3216V28.6518L33.9988 28.7149C33.9988 28.7149 33.2494 28.609 32.8899 28.609H32.2599C32.1686 28.609 32.0908 28.6789 32.0908 28.7713L32.0841 30.0482L32.1337 30.0966L33.4658 30.0606L33.5357 30.1102V30.4392L33.4658 30.4888L32.1337 30.455L32.0841 30.5035L32.0908 31.9325C32.0908 32.0249 32.1686 32.1027 32.2599 32.1027H32.8899C33.2494 32.1027 34.0766 31.9686 34.0766 31.9686L34.1814 32.0328V32.3901L34.0766 32.46V32.4599Z" stroke="#19427A" stroke-width="0.378361"/>
<path d="M37.2875 28.8885H37.2075L36.5922 30.6624L36.6474 30.7424H37.9119L37.9581 30.6624L37.2875 28.8885V28.8885Z" stroke="#19427A" stroke-width="0.378361"/>
<path d="M39.5573 32.46H38.7019C38.6309 32.46 38.5813 32.4273 38.5577 32.3642C38.5577 32.3642 38.4382 32.0204 38.3672 31.8198L38.1102 31.1414L38.0156 31.0771H36.5291L36.4322 31.1414L36.0411 32.3709C36.0174 32.4352 35.9859 32.46 35.9126 32.46H35.3548C35.2826 32.46 35.2657 32.4036 35.2905 32.3394L37.0802 27.6973C37.1129 27.5947 37.647 27.5947 37.6865 27.6973L39.3567 31.8277C39.4367 32.0272 39.6216 32.3642 39.6216 32.3642C39.6531 32.4273 39.6294 32.46 39.5573 32.46V32.46Z" stroke="#19427A" stroke-width="0.378361"/>
<path d="M30.5221 32.46H30.1152L30.0239 32.3754L30.0307 30.3559L30.0239 28.3352L30.1152 28.2518H30.5221L30.6133 28.3352L30.6066 30.3559L30.6133 32.3754L30.5221 32.46Z" stroke="#19427A" stroke-width="0.378361"/>
<path d="M27.9324 28.5323H27.1953C27.1052 28.5323 27.0139 28.6033 27.0139 28.6935L27.006 30.0898L27.1401 30.2161H27.645C28.2693 30.2161 28.6615 29.9704 28.6615 29.2964C28.6615 28.8558 28.3674 28.5323 27.9324 28.5323Z" stroke="#19427A" stroke-width="0.378361"/>
<path d="M29.6027 32.46H29.0696L28.949 32.3754L27.9674 30.7695C27.8558 30.5869 27.7431 30.4888 27.609 30.4888H27.1402L27.0061 30.6015L27.014 32.3754L26.9227 32.46H26.5147L26.4257 32.3754L26.4324 30.3559L26.4257 28.3352L26.4876 28.2518H28.1781C28.7957 28.2518 29.2939 28.6721 29.2939 29.248C29.2939 29.8296 28.8791 30.2725 28.2976 30.4054L28.2829 30.4607C28.3393 30.5035 28.4103 30.5948 28.5433 30.7909L29.4697 32.1095L29.6669 32.3754L29.6027 32.46Z" stroke="#19427A" stroke-width="0.378361"/>
<path d="M25.8081 32.46H23.331L23.2408 32.3754L23.2465 30.3559L23.2408 28.3352L23.331 28.2518H25.7304L25.8352 28.3216V28.6518L25.7304 28.715C25.7304 28.715 24.9798 28.609 24.6225 28.609H23.9903C23.9001 28.609 23.8224 28.6789 23.8224 28.7713L23.8156 30.0482L23.8652 30.0967L25.1973 30.0606L25.2672 30.1102V30.4393L25.1973 30.4888L23.8652 30.455L23.8156 30.5035L23.8224 31.9325C23.8224 32.0249 23.9001 32.1027 23.9903 32.1027H24.6225C24.9798 32.1027 25.8081 31.9686 25.8081 31.9686L25.913 32.0328V32.3901L25.8081 32.46Z" stroke="#19427A" stroke-width="0.378361"/>
<path d="M20.9506 32.5547C20.2068 32.5547 19.7673 32.389 19.3762 32.2279L19.3289 32.0926L19.4641 31.5967L19.6005 31.5889C19.9273 31.9326 20.4074 32.1794 21.0137 32.1794C21.5659 32.1794 22.0291 31.8278 22.0291 31.3646C22.0291 30.1023 19.3435 30.4066 19.3435 28.8164C19.3435 28.0106 19.9194 27.5463 20.7184 27.5463C21.4375 27.5463 21.9255 27.6669 22.2929 27.6906L22.3481 27.7943L22.2534 28.2822L22.1249 28.3217C21.797 28.129 21.3653 27.9137 20.7027 27.9137C20.2552 27.9137 19.9273 28.1526 19.9273 28.5291C19.9273 29.815 22.6208 29.4002 22.6208 31.1978C22.6208 32.1794 21.8454 32.5547 20.9506 32.5547Z" stroke="#19427A" stroke-width="0.378361"/>
<path d="M19.3447 28.8165C19.3447 30.4078 22.0292 30.1024 22.0292 31.3657C22.0292 31.8278 21.5648 32.1805 21.0137 32.1805C20.4063 32.1805 19.9284 31.9315 19.6005 31.5889L19.463 31.5967L19.3278 32.0915L19.3762 32.2279C19.7684 32.3879 20.2068 32.5547 20.9506 32.5547C21.8455 32.5547 22.6208 32.1805 22.6208 31.1978C22.6208 29.4002 19.9284 29.815 19.9284 28.5291C19.9284 28.1526 20.2542 27.9137 20.7038 27.9137C21.3654 27.9137 21.797 28.1301 22.125 28.3217L22.2523 28.2823L22.3492 27.7943L22.2918 27.6906C21.9255 27.6658 21.4386 27.5463 20.7185 27.5463C19.9206 27.5463 19.3447 28.0106 19.3447 28.8165V28.8165ZM37.0802 27.6973L35.2894 32.3406C35.2657 32.4037 35.2827 32.46 35.3536 32.46H35.9126C35.9847 32.46 36.0163 32.4352 36.0411 32.371L36.4322 31.1414L36.5279 31.0772H38.0156L38.1103 31.1414L38.3672 31.8199C38.4382 32.0205 38.5565 32.3642 38.5565 32.3642C38.5814 32.4273 38.6309 32.46 38.7019 32.46H39.5573C39.6283 32.46 39.652 32.4273 39.6204 32.3642C39.6204 32.3642 39.4367 32.0284 39.3567 31.8278L37.6865 27.6973C37.6674 27.6455 37.5242 27.6207 37.38 27.6207C37.238 27.6207 37.0959 27.6455 37.0802 27.6973ZM36.5922 30.6625L37.2075 28.8886H37.2876L37.9581 30.6625L37.9108 30.7425H36.6474L36.5922 30.6625ZM31.6007 28.2518L31.5083 28.3364L31.5162 30.3559L31.5083 32.3755L31.6007 32.46H34.0768L34.1804 32.3901V32.0318L34.0768 31.9687C34.0768 31.9687 33.2495 32.1028 32.89 32.1028H32.2589C32.1687 32.1028 32.091 32.0239 32.091 31.9326L32.0842 30.5036L32.1338 30.4551L33.4659 30.4889L33.5358 30.4393V30.1114L33.4659 30.0606L32.1338 30.0967L32.0842 30.0482L32.091 28.7702C32.091 28.6789 32.1687 28.6091 32.2589 28.6091H32.89C33.2495 28.6091 33.999 28.7161 33.999 28.7161L34.1038 28.6519V28.3217L33.999 28.2518H31.6007V28.2518ZM30.1142 28.2518L30.0241 28.3363L30.0297 30.3559L30.0241 32.3755L30.1142 32.46H30.5211L30.6124 32.3755L30.6056 30.3559L30.6124 28.3363L30.5211 28.2518H30.1142ZM26.4876 28.2518L26.4244 28.3363L26.4323 30.3559L26.4244 32.3755L26.5146 32.46H26.9226L27.0138 32.3755L27.006 30.6016L27.1401 30.4889H27.6089C27.7419 30.4889 27.8546 30.5881 27.9662 30.7695L28.9478 32.3755L29.0695 32.46H29.6026L29.6657 32.3755L29.4685 32.1084L28.5432 30.7898C28.4091 30.5948 28.3381 30.5036 28.2818 30.4607L28.2964 30.4055C28.8779 30.2714 29.2927 29.8296 29.2927 29.2481C29.2927 28.6733 28.7957 28.2518 28.1781 28.2518H26.4876H26.4876ZM27.006 30.0888L27.0139 28.6936C27.0139 28.6023 27.104 28.5324 27.1953 28.5324H27.9324C28.3674 28.5324 28.6615 28.8548 28.6615 29.2965C28.6615 29.9705 28.2693 30.2162 27.6439 30.2162H27.1401L27.006 30.0888H27.006ZM23.3308 28.2518L23.2407 28.3363L23.2463 30.3559L23.2407 32.3755L23.3308 32.46H25.808L25.9117 32.3901V32.0318L25.808 31.9686C25.808 31.9686 24.9808 32.1028 24.6224 32.1028H23.9901C23.9 32.1028 23.8222 32.0239 23.8222 31.9326L23.8143 30.5035L23.8639 30.4551L25.1972 30.4889L25.2671 30.4393V30.1113L25.1972 30.0606L23.8639 30.0967L23.8143 30.0482L23.8222 28.7702C23.8222 28.6789 23.9 28.6091 23.9901 28.6091H24.6224C24.9808 28.6091 25.7302 28.7161 25.7302 28.7161L25.835 28.6519V28.3217L25.7302 28.2518H23.3308" fill="url(#paint2_linear_5469_6421)"/>
<path d="M43.344 34.7354L43.353 14.0167C43.3406 12.6767 42.5078 12.0399 42.0119 11.7796C41.8271 11.6827 37.3721 9.40162 29.5361 9.40162C21.5457 9.40162 17.1211 11.7458 17.0749 11.7717C16.2161 12.2338 15.7416 13.0283 15.7416 14.0088L15.7349 34.7354H43.344H43.344ZM16.5068 33.9622L16.5135 14.0088C16.5135 13.3157 16.8336 12.777 17.44 12.4513C17.4816 12.4288 21.8183 10.1725 29.536 10.1725C33.5154 10.1725 36.5729 10.7844 38.4381 11.2972C40.4994 11.8652 41.6084 12.4389 41.6546 12.4637C42.0727 12.6823 42.5742 13.132 42.5821 14.0246L42.573 33.9622" fill="#AA9A4A"/>
<path d="M17.0309 11.7199C16.1721 12.182 15.6976 12.9765 15.6976 13.9582L15.692 34.6836H43.3012L43.309 13.9649C43.2977 12.6249 42.4627 11.9882 41.969 11.7278C41.7819 11.6309 37.3281 9.34988 29.4932 9.34988C21.5017 9.34988 17.0782 11.6952 17.0309 11.7199ZM16.4696 13.9582C16.4696 13.2639 16.7908 12.7252 17.396 12.3995C17.4377 12.377 21.7744 10.1207 29.4932 10.1207C33.4704 10.1207 36.529 10.7327 38.3942 11.2466C40.4555 11.8135 41.5656 12.3871 41.6118 12.4119C42.0288 12.6306 42.5303 13.0814 42.5382 13.9717L42.5303 33.9116H16.4629L16.4696 13.9582" fill="url(#paint3_linear_5469_6421)"/>
<path d="M25.302 23.5477C22.748 22.7542 20.7953 21.0984 20.6828 19.5369C20.6246 18.7521 20.9716 17.9946 21.6195 17.3236C22.9057 15.9957 25.3313 14.9388 28.2362 14.7759C31.1324 14.613 34.3324 15.3747 35.8146 17.0348C36.189 16.4706 36.3029 15.8236 36.2135 15.2036C35.8492 12.6991 33.0568 11.4971 29.2417 11.4361C28.9913 11.4361 28.7375 11.4399 28.4823 11.4505C28.2252 11.4606 27.9757 11.4769 27.7248 11.4952C21.8473 11.9369 17.43 14.8028 17.7265 18.0845C17.9341 20.327 20.2733 22.2817 23.6208 23.2886C24.4778 23.5477 25.6577 23.6582 25.302 23.5477" fill="#05A34C"/>
<path d="M27.5843 11.7286C22.1442 12.2587 17.4322 14.7844 17.7297 18.0742C17.9368 20.3231 20.2808 22.2825 23.6355 23.2914C23.6903 23.3082 23.7475 23.325 23.8057 23.3404C24.4271 23.5067 25.1423 23.5975 25.3225 23.5893C24.8568 23.437 24.4146 23.2534 24.0008 23.0458C22.1105 22.1662 20.7744 20.82 20.6826 19.5367C20.6245 18.7524 20.9715 17.9949 21.6198 17.3235C22.9055 15.9955 25.3312 14.9387 28.2365 14.7758C30.9587 14.6224 33.9506 15.2881 35.5309 16.7468C35.6525 16.8304 35.7558 16.9145 35.8351 17.0001C35.8851 16.9227 35.9284 16.8443 35.9692 16.7646C36.0269 16.6377 36.1884 16.308 36.2316 15.8201C36.2485 15.6149 36.2437 15.4082 36.2139 15.2035C36.148 14.7469 35.9995 14.3345 35.7798 13.9635C34.7278 12.4529 32.056 11.6527 29.1468 11.6527C28.6306 11.6527 28.1077 11.6781 27.5843 11.7286Z" fill="url(#paint4_radial_5469_6421)"/>
<path d="M17.6873 18.126C17.9473 20.941 21.5707 23.3057 26.3317 23.906C26.3567 23.9084 26.3961 23.9117 26.4033 23.8704C26.4086 23.8291 26.3606 23.8214 26.3606 23.8214C25.6209 23.6705 24.9115 23.4499 24.2608 23.1759C20.6306 22.2219 18.0483 20.1807 17.8315 17.8204C17.7782 17.2297 17.8868 16.6674 18.1208 16.1151C17.7868 16.7572 17.6239 17.4262 17.6873 18.126Z" fill="url(#paint5_linear_5469_6421)"/>
<g opacity="0.300003">
<g opacity="0.300003">
<g opacity="0.300003">
<g opacity="0.300003">
<g opacity="0.300003">
<path opacity="0.300003" d="M35.5481 16.7594C35.6606 16.8382 35.7336 16.9478 35.81 17.0295C35.8595 16.9526 35.9283 16.8445 35.9696 16.7647C36.1066 16.435 36.1931 16.2562 36.2316 15.8202C36.2484 15.615 36.2436 15.4083 36.2133 15.2036C36.1479 14.747 35.9994 14.3347 35.7798 13.9636C34.5407 12.1849 31.0572 11.3913 27.5838 11.7287C26.7167 11.8138 25.8679 11.9484 25.0562 12.1296C20.6628 13.2475 18.9749 15.8544 21.6909 17.2559C22.0182 16.9305 22.4128 16.6224 22.867 16.3408C22.8819 16.3316 22.8967 16.3235 22.9112 16.3143C22.99 16.2658 23.0688 16.2177 23.1505 16.1716C24.4722 15.4084 26.2313 14.8691 28.2364 14.7557C30.9678 14.6004 33.9717 15.2767 35.5481 16.7594Z" fill="url(#paint6_linear_5469_6421)"/>
</g>
</g>
</g>
</g>
</g>
<g opacity="0.5">
<g opacity="0.5">
<path opacity="0.5" d="M27.0705 13.3455C20.1202 14.2135 19.4426 19.0187 20.8777 20.7398C21.2184 21.2945 21.9826 21.852 22.6108 22.2471C21.4823 21.4478 20.7513 20.476 20.6826 19.5373C20.6508 19.1077 20.7417 18.6876 20.9349 18.2844C20.9988 18.1224 21.1228 17.9614 21.2175 17.8066C22.1018 16.3537 24.2497 15.2637 26.7682 14.8008C30.2882 14.2279 34.2976 14.908 35.9355 16.8065C35.9365 16.8021 35.9807 16.7401 35.9826 16.7353C35.9985 15.6885 33.6463 12.5261 27.0705 13.3455Z" fill="#059B4F"/>
</g>
</g>
<path d="M28.4475 14.5581C25.5571 14.7225 23.0924 15.7044 21.8116 17.0309C21.5684 17.2828 21.3694 17.5336 21.2175 17.8066C21.3358 17.6389 21.4713 17.4885 21.6251 17.3294C22.9103 16.0014 25.3365 14.9441 28.2423 14.7816C31.1342 14.6182 34.3293 15.3795 35.8144 17.0353C35.8856 16.9324 35.9601 16.793 35.973 16.7541C34.6143 15.2348 31.9228 14.5341 29.2919 14.5341C29.0093 14.5341 28.7272 14.5423 28.4475 14.5581Z" fill="url(#paint7_linear_5469_6421)"/>
<path d="M29.7769 16.8585C28.2524 16.6561 27.6415 17.4203 28.0356 17.6986L29.7769 16.9623V16.8585ZM29.1338 18.0965C29.9297 18.0884 30.5728 17.7861 30.5709 17.4501C30.5689 17.341 30.5382 17.2708 30.4171 17.1829L28.733 17.9466L28.732 18.0802C28.8719 18.0965 28.981 18.098 29.1338 18.0965ZM32.7731 15.9626L30.6694 16.9589L30.6723 17.093C30.9371 17.2458 30.9861 17.3867 30.9871 17.6063C30.9904 18.0956 30.2075 18.4988 29.24 18.5104C28.8204 18.5132 28.349 18.4041 28.0466 18.2835L25.8267 19.374C25.8267 19.374 27.1412 19.8647 29.3828 19.8647C32.3189 19.8647 34.8541 18.7242 34.8354 17.5049C34.8253 16.8618 33.953 16.3245 32.7731 15.9626ZM27.5333 17.7765C27.5333 17.7765 27.4911 17.6923 27.5098 17.601C27.6871 16.6234 29.6303 16.6153 30.0792 16.8503L32.5414 15.8194C31.5643 15.5541 30.294 15.4584 29.24 15.4685C26.2982 15.5007 23.6687 16.4403 23.6855 17.6601C23.6942 18.1585 24.1632 18.6305 24.9077 19.0193L27.5324 17.9259L27.5333 17.7765Z" fill="#988A50"/>
<path d="M29.2472 15.3973C26.5413 15.4011 23.7398 16.3758 23.7052 17.5803C23.7134 18.0719 24.0584 18.4723 24.8121 18.8563L27.5329 17.7764C27.4704 17.6562 27.4684 17.5389 27.4684 17.5389C27.43 17.0785 28.2543 16.6599 29.2342 16.6498C29.6389 16.6455 29.9157 16.7099 30.083 16.7594L32.4943 15.8068C31.5138 15.5468 30.3305 15.3973 29.2703 15.3973C29.2626 15.3973 29.2549 15.3973 29.2472 15.3973ZM30.6694 16.9588C30.94 17.1093 31.012 17.2856 31.013 17.5038C31.0188 17.9854 30.2277 18.3815 29.2491 18.3935C28.8238 18.3968 28.4667 18.3392 28.1601 18.219L25.9901 19.3095C26.971 19.5946 28.1596 19.7517 29.3919 19.7282C32.3679 19.6743 34.8806 18.6852 34.8628 17.4827C34.8522 16.8502 34.015 16.2398 32.8201 15.8837L30.6694 16.9588ZM28.0351 17.5755L29.7769 16.8589C29.539 16.8233 29.3246 16.8074 29.1333 16.8074C28.0212 16.8074 27.6866 17.3366 28.0351 17.5755ZM28.7402 17.9455C28.8815 17.9638 28.9862 17.9643 29.1405 17.9633C29.946 17.9542 30.5963 17.6802 30.5934 17.3486C30.5925 17.2419 30.5612 17.1717 30.4387 17.0867L28.7402 17.9455Z" fill="url(#paint8_radial_5469_6421)"/>
<g opacity="0.199997">
<g opacity="0.199997">
<path opacity="0.199997" d="M34.3606 16.6429C33.5532 15.8946 31.5696 15.3813 29.2492 15.4087C31.5052 15.3823 33.4518 15.8893 34.3606 16.6429ZM29.2473 15.4087C26.923 15.4366 24.9481 16.0008 24.1604 16.7708C25.0496 15.9922 26.9869 15.4356 29.2473 15.4087ZM34.3606 16.6429C34.6057 16.8708 34.7465 17.1188 34.7504 17.3812C34.7634 18.5063 32.3189 19.4483 29.2934 19.4853C26.2689 19.5223 23.8057 18.6394 23.7918 17.5143C23.7889 17.2533 23.923 17.0029 24.1604 16.7708C23.8245 17.0644 23.6341 17.3884 23.6375 17.7291C23.6519 18.973 26.1862 19.9501 29.3002 19.9136C32.4127 19.8751 34.9249 18.836 34.909 17.5926C34.9061 17.25 34.7062 16.9294 34.3606 16.6429Z" fill="white"/>
</g>
</g>
<g opacity="0.149994">
<g opacity="0.149994">
<path opacity="0.149994" d="M27.9464 18.259C28.0536 18.2619 28.1136 18.1359 28.2184 18.1383C28.3208 18.1412 28.4683 18.272 28.5698 18.2734C31.6731 18.3268 33.7148 18.0336 34.8721 17.3439C34.5501 16.2207 32.1508 15.3738 29.2474 15.4084C26.1345 15.4459 23.6237 16.486 23.6376 17.7289C23.6376 17.7942 23.6472 17.8586 23.6621 17.9206C24.1288 18.0071 24.645 18.0735 25.2203 18.1148C26.2022 18.185 27.1101 18.233 27.9464 18.259Z" fill="white"/>
</g>
</g>
<path d="M33.4069 11.5401C36.009 12.2154 38.0348 13.7197 38.214 15.2582C38.3025 16.0315 37.9857 16.7952 37.3609 17.4839C36.1224 18.8503 33.6717 19.9274 30.7548 20.2119C27.848 20.496 24.6466 19.9471 23.0865 18.3697C22.8597 18.8249 22.8116 19.6313 22.9279 20.2412C23.3956 22.7006 26.0885 23.7243 29.9291 23.6234C30.1834 23.6118 30.4386 23.5984 30.6938 23.5782C30.9533 23.557 31.2047 23.5292 31.456 23.5018C37.3532 22.8159 41.6807 19.7991 41.2463 16.5683C40.9473 14.3623 38.5135 12.5287 35.1049 11.6742C34.2302 11.4565 33.0426 11.4454 33.4069 11.5401Z" fill="#F48366"/>
<path d="M33.5022 11.5625C36.0111 12.2411 38.035 13.72 38.2138 15.2584C38.3022 16.0318 37.986 16.795 37.3607 17.4842C36.1226 18.8506 33.6714 19.9277 30.755 20.2122C27.8478 20.4962 24.6391 19.9051 23.08 18.3286C21.6872 22.3447 26.5683 24.0437 31.7677 23.2238C37.3587 22.3418 41.506 19.571 41.1071 16.608C40.8096 14.4015 38.5137 12.5285 35.1051 11.6745C34.5923 11.5471 34.005 11.4966 33.6796 11.4966C33.4499 11.4966 33.3513 11.5216 33.5022 11.5625Z" fill="url(#paint9_radial_5469_6421)"/>
<path d="M32.2132 11.248C32.2088 11.2888 32.2569 11.2946 32.2569 11.2946C33.0105 11.4124 33.7156 11.6085 34.3933 11.844C38.1022 12.6288 40.7975 14.5277 41.1128 16.84C41.1926 17.4206 41.1388 17.982 40.9258 18.5356C41.2373 17.8882 41.3382 17.2221 41.2459 16.5343C40.8677 13.7746 37.1131 11.6008 32.2829 11.211C32.2771 11.2105 32.2704 11.2095 32.2632 11.2095C32.2401 11.2095 32.2156 11.2163 32.2132 11.248Z" fill="url(#paint10_linear_5469_6421)"/>
<g opacity="0.649994">
<g opacity="0.649994">
<g opacity="0.649994">
<g opacity="0.649994">
<g opacity="0.649994">
<path opacity="0.649994" d="M33.6886 19.8281C37.4365 18.7025 39.9722 16.7214 39.4772 14.8902C39.1984 13.8559 37.3908 12.7765 35.1761 12.1661C36.8612 12.9413 38.0767 14.0823 38.2141 15.2584C38.2684 15.7323 38.1699 16.2004 37.9426 16.6527C37.796 17.0348 37.5557 17.4053 37.2341 17.7576C36.4594 18.6021 35.2165 19.3321 33.6886 19.8281Z" fill="url(#paint11_linear_5469_6421)"/>
</g>
</g>
</g>
</g>
</g>
<path d="M37.3674 17.4505C36.1207 18.8097 33.6642 19.8733 30.7469 20.142C27.8377 20.4088 24.6468 19.846 23.0968 18.2604C23.0565 18.394 23.0295 18.4661 22.9988 18.5771C24.581 20.1906 27.7031 20.7159 30.6104 20.4491C33.5287 20.1804 35.9875 19.1178 37.2343 17.7581C37.5683 17.3919 37.8153 17.0064 37.9605 16.6075C37.8144 16.8978 37.6154 17.179 37.3674 17.4505Z" fill="url(#paint12_linear_5469_6421)"/>
<defs>
<radialGradient id="paint0_radial_5469_6421" cx="0" cy="0" r="1" gradientUnits="userSpaceOnUse" gradientTransform="translate(29.554 45.0981) scale(26.4675 8.20813)">
<stop stop-color="#0087CA"/>
<stop offset="1" stop-color="#0B4B7F"/>
</radialGradient>
<linearGradient id="paint1_linear_5469_6421" x1="29.4726" y1="32.3873" x2="29.4726" y2="28.5592" gradientUnits="userSpaceOnUse">
<stop stop-color="#19427A"/>
<stop offset="1" stop-color="#007FC0"/>
</linearGradient>
<linearGradient id="paint2_linear_5469_6421" x1="29.4726" y1="32.3873" x2="29.4726" y2="28.5592" gradientUnits="userSpaceOnUse">
<stop stop-color="#19427A"/>
<stop offset="1" stop-color="#007FC0"/>
</linearGradient>
<linearGradient id="paint3_linear_5469_6421" x1="17.152" y1="36.1274" x2="41.837" y2="11.4425" gradientUnits="userSpaceOnUse">
<stop stop-color="#C3AB80"/>
<stop offset="1" stop-color="#CCB185"/>
</linearGradient>
<radialGradient id="paint4_radial_5469_6421" cx="0" cy="0" r="1" gradientTransform="matrix(9.09427 -0.00153274 -0.00153275 9.09732 23.2735 12.4817)" gradientUnits="userSpaceOnUse">
<stop stop-color="#DBE1CC"/>
<stop offset="0.0414276" stop-color="#DBE1CC"/>
<stop offset="0.230774" stop-color="#A3C053"/>
<stop offset="0.301305" stop-color="#A3C053"/>
<stop offset="0.520706" stop-color="#17AE4B"/>
<stop offset="0.835146" stop-color="#187B45"/>
<stop offset="1" stop-color="#187B45"/>
</radialGradient>
<linearGradient id="paint5_linear_5469_6421" x1="24.6542" y1="20.2862" x2="18.3136" y2="19.5672" gradientUnits="userSpaceOnUse">
<stop stop-color="#988A50"/>
<stop offset="0.017746" stop-color="#988A50"/>
<stop offset="0.50296" stop-color="#EBE1CA"/>
<stop offset="1" stop-color="#988A50"/>
</linearGradient>
<linearGradient id="paint6_linear_5469_6421" x1="23.7643" y1="16.1449" x2="37.2279" y2="13.0752" gradientUnits="userSpaceOnUse">
<stop stop-color="#DBE1CC"/>
<stop offset="0.0236664" stop-color="#DBE1CC"/>
<stop offset="0.360947" stop-color="white"/>
<stop offset="0.843927" stop-color="#05A34C"/>
<stop offset="0.964493" stop-color="#05A34C"/>
<stop offset="1" stop-color="#05A34C"/>
</linearGradient>
<linearGradient id="paint7_linear_5469_6421" x1="30.3724" y1="19.1131" x2="24.2065" y2="12.7712" gradientUnits="userSpaceOnUse">
<stop stop-color="#988A50"/>
<stop offset="0.0295868" stop-color="#988A50"/>
<stop offset="0.50296" stop-color="#EBE1CA"/>
<stop offset="1" stop-color="#988A50"/>
</linearGradient>
<radialGradient id="paint8_radial_5469_6421" cx="0" cy="0" r="1" gradientUnits="userSpaceOnUse" gradientTransform="translate(29.2248 14.9137) scale(5.5701)">
<stop stop-color="#EBE1CA"/>
<stop offset="0.08284" stop-color="#EBE1CA"/>
<stop offset="0.196991" stop-color="#EBE1CA"/>
<stop offset="0.822479" stop-color="#988A50"/>
<stop offset="1" stop-color="#988A50"/>
</radialGradient>
<radialGradient id="paint9_radial_5469_6421" cx="0" cy="0" r="1" gradientUnits="userSpaceOnUse" gradientTransform="translate(30.4763 16.0074) scale(10.1233 10.1233)">
<stop stop-color="#FBE6DB"/>
<stop offset="0.0414276" stop-color="#FBE6DB"/>
<stop offset="0.25444" stop-color="#E17C35"/>
<stop offset="0.327851" stop-color="#E17C35"/>
<stop offset="0.556213" stop-color="#D73A3B"/>
<stop offset="0.883268" stop-color="#9E363A"/>
<stop offset="1" stop-color="#9E363A"/>
</radialGradient>
<linearGradient id="paint10_linear_5469_6421" x1="34.5094" y1="12.055" x2="39.79" y2="15.8175" gradientUnits="userSpaceOnUse">
<stop stop-color="#988A50"/>
<stop offset="0.0295868" stop-color="#988A50"/>
<stop offset="0.50296" stop-color="#EBE1CA"/>
<stop offset="1" stop-color="#988A50"/>
</linearGradient>
<linearGradient id="paint11_linear_5469_6421" x1="33.312" y1="17.3865" x2="38.6085" y2="14.3772" gradientUnits="userSpaceOnUse">
<stop stop-color="#C5D8C8"/>
<stop offset="0.727814" stop-color="#F0DED1"/>
<stop offset="0.861132" stop-color="#F0DED1"/>
<stop offset="1" stop-color="#DC6749"/>
</linearGradient>
<linearGradient id="paint12_linear_5469_6421" x1="22.9989" y1="18.5025" x2="37.9498" y2="18.5862" gradientUnits="userSpaceOnUse">
<stop stop-color="#988A50"/>
<stop offset="0.017746" stop-color="#988A50"/>
<stop offset="0.50296" stop-color="#EBE1CA"/>
<stop offset="1" stop-color="#988A50"/>
</linearGradient>
</defs>
</svg>
