<svg width="57" height="57" viewBox="0 0 57 57" fill="none" xmlns="http://www.w3.org/2000/svg">
<rect width="57" height="57" rx="28.5" fill="white"/>
<path d="M29.08 23.9833C25.8586 23.876 22.1541 22.8559 18.2348 20.3325C18.2348 20.3325 19.3623 28.4932 22.3152 32.8957L22.2078 35.6875C22.2078 35.6875 17.1074 29.1375 17 17.2186L17.3221 16.8964C17.3221 16.8964 22.3152 21.7821 29.08 22.0506C32.0328 22.1579 35.3615 21.3526 38.7439 18.8829C39.4956 18.346 40.2472 17.7018 40.9988 17.0038C40.9988 17.0038 41.8042 15.8764 41.9652 17.5944C41.9652 17.5944 43.6296 42.6133 23.9258 44.5461C23.9258 44.5461 23.0668 44.224 22.7984 41.1637C22.7984 41.1637 40.0861 43.7408 40.623 20.8157C40.623 20.8157 40.3009 21.0305 39.764 21.4063C38.046 22.319 34.1804 24.1981 29.08 23.9833Z" fill="black"/>
<path d="M32.3014 10.4539L34.2342 12.0108L36.5965 11.3129L35.7375 13.6215L37.1334 15.608L34.6637 15.5006L33.1604 17.4871L32.5161 15.0711L30.2075 14.2658L32.2477 12.9235L32.3014 10.4539Z" fill="#ED1C24"/>
</svg>
