<svg width="44" height="44" viewBox="0 0 44 44" fill="none" xmlns="http://www.w3.org/2000/svg">
<g clip-path="url(#clip0_4662_6868)">
<path d="M14.9208 12.1873C16.5001 11.2749 18.2415 10.5883 20.0782 10.367C21.1831 10.3143 22.2952 10.2833 23.3977 10.3911C24.6612 10.594 25.921 10.9046 27.0665 11.4709C28.5075 12.1071 29.7507 13.0918 30.8461 14.1807C31.4421 14.7642 31.9129 15.4497 32.3396 16.1546C33.9785 18.7705 34.4588 22.0133 33.6996 24.9731C33.1262 27.1992 31.9045 29.2888 30.1226 30.8283C29.1869 31.7476 28.0403 32.4411 26.8198 32.957C24.0485 34.2465 20.7743 34.3635 17.8541 33.4808C18.2796 31.0576 18.7659 28.6423 19.2248 26.2237C20.1545 26.6592 21.201 26.9344 22.2392 26.7865C23.4669 26.6673 24.6218 26.0517 25.3954 25.1278C27.051 23.3889 26.8293 20.4062 25.0438 18.8266C23.2631 17.0568 19.9364 17.0763 18.2224 18.9275C17.5358 19.5683 17.0507 20.3982 16.8815 21.3061C16.2521 24.5455 15.649 27.7906 15.0209 31.0301C14.9672 31.3808 14.8945 31.7293 14.7944 32.0709C13.9767 31.4725 13.1543 30.8707 12.4737 30.1256C11.5643 29.1123 10.7788 27.9832 10.2532 26.7406C9.78355 25.6666 9.52014 24.5249 9.34254 23.3763C8.98734 19.8377 10.3247 16.1523 13.0065 13.6855C13.6108 13.1502 14.2139 12.5988 14.9208 12.1873Z" fill="url(#paint0_linear_4662_6868)"/>
<path d="M20.1109 22.2101C20.0061 21.3894 20.8035 20.6088 21.6509 20.6523C22.527 20.5813 23.316 21.386 23.2624 22.2147C23.2827 22.7753 22.875 23.2716 22.3839 23.5307C22.0097 23.7347 21.5615 23.651 21.1515 23.643C20.5841 23.3748 20.0537 22.867 20.1109 22.2101Z" fill="#F4C845"/>
</g>
<defs>
<linearGradient id="paint0_linear_4662_6868" x1="36.631" y1="1.54809" x2="10.3186" y2="32.5039" gradientUnits="userSpaceOnUse">
<stop stop-color="#000FC7"/>
<stop offset="1" stop-color="#73F8FC"/>
</linearGradient>
<clipPath id="clip0_4662_6868">
<rect width="24.7647" height="23.7328" fill="white" transform="translate(9.28668 10.3188)"/>
</clipPath>
</defs>
</svg>
