<svg width="44" height="44" viewBox="0 0 44 44" fill="none" xmlns="http://www.w3.org/2000/svg">
<path d="M12.3354 19.2298C11.7445 19.2298 11.3505 18.8358 11.3505 18.2448V14.305C11.3505 12.6305 12.6309 11.3501 14.3053 11.3501H18.2452C18.8361 11.3501 19.2301 11.7441 19.2301 12.3351C19.2301 12.926 18.8361 13.32 18.2452 13.32H14.3053C13.7144 13.32 13.3204 13.714 13.3204 14.305V18.2448C13.3204 18.8358 12.9264 19.2298 12.3354 19.2298Z" fill="#9BBC14"/>
<path d="M32.0344 19.2298C31.4435 19.2298 31.0495 18.8358 31.0495 18.2448V14.305C31.0495 13.714 30.6555 13.32 30.0645 13.32H26.1247C25.5337 13.32 25.1397 12.926 25.1397 12.335C25.1397 11.7441 25.5337 11.3501 26.1247 11.3501H30.0645C31.7389 11.3501 33.0194 12.6305 33.0194 14.305V18.2448C33.0194 18.8358 32.6254 19.2298 32.0344 19.2298Z" fill="#9BBC14"/>
<path d="M18.2451 33.0192H14.3053C12.6309 33.0192 11.3504 31.7388 11.3504 30.0643V26.1245C11.3504 25.5335 11.7444 25.1395 12.3354 25.1395C12.9264 25.1395 13.3204 25.5335 13.3204 26.1245V30.0643C13.3204 30.6553 13.7143 31.0493 14.3053 31.0493H18.2451C18.8361 31.0493 19.2301 31.4433 19.2301 32.0343C19.2301 32.6252 18.8361 33.0192 18.2451 33.0192Z" fill="#9BBC14"/>
<path d="M30.0645 33.0192H26.1247C25.5337 33.0192 25.1397 32.6252 25.1397 32.0343C25.1397 31.4433 25.5337 31.0493 26.1247 31.0493H30.0645C30.6555 31.0493 31.0495 30.6553 31.0495 30.0643V26.1245C31.0495 25.5335 31.4435 25.1395 32.0345 25.1395C32.6254 25.1395 33.0194 25.5335 33.0194 26.1245V30.0643C33.0194 31.7388 31.7389 33.0192 30.0645 33.0192Z" fill="#9BBC14"/>
<path d="M20.215 21.1998H16.2751C15.6842 21.1998 15.2902 20.8058 15.2902 20.2148V16.275C15.2902 15.684 15.6842 15.29 16.2751 15.29H20.215C20.806 15.29 21.1999 15.684 21.1999 16.275V20.2148C21.1999 20.8058 20.806 21.1998 20.215 21.1998ZM17.2601 19.2299H19.2301V17.2599H17.2601V19.2299Z" fill="#9BBC14"/>
<path d="M20.215 29.0794H16.2751C15.6842 29.0794 15.2902 28.6854 15.2902 28.0945V24.1546C15.2902 23.5637 15.6842 23.1697 16.2751 23.1697H20.215C20.806 23.1697 21.1999 23.5637 21.1999 24.1546V28.0945C21.1999 28.6854 20.806 29.0794 20.215 29.0794ZM17.2601 27.1095H19.2301V25.1396H17.2601V27.1095Z" fill="#9BBC14"/>
<path d="M28.0948 21.1998H24.1549C23.564 21.1998 23.17 20.8058 23.17 20.2148V16.275C23.17 15.684 23.564 15.29 24.1549 15.29H28.0948C28.6857 15.29 29.0797 15.684 29.0797 16.275V20.2148C29.0797 20.8058 28.6857 21.1998 28.0948 21.1998ZM25.1399 19.2299H27.1098V17.2599H25.1399V19.2299Z" fill="#9BBC14"/>
<path d="M24.1549 26.1245C23.564 26.1245 23.17 25.7305 23.17 25.1395V24.1545C23.17 23.5636 23.564 23.1696 24.1549 23.1696C24.7459 23.1696 25.1399 23.5636 25.1399 24.1545V25.1395C25.1399 25.7305 24.7459 26.1245 24.1549 26.1245Z" fill="#9BBC14"/>
<path d="M28.0947 25.1396H27.1097C26.5187 25.1396 26.1247 24.7456 26.1247 24.1546C26.1247 23.5637 26.5187 23.1697 27.1097 23.1697H28.0947C28.6856 23.1697 29.0796 23.5637 29.0796 24.1546C29.0796 24.7456 28.6856 25.1396 28.0947 25.1396Z" fill="#9BBC14"/>
<path d="M28.0948 29.0794H25.1399C24.549 29.0794 24.155 28.6854 24.155 28.0945C24.155 27.5035 24.549 27.1095 25.1399 27.1095H28.0948C28.6858 27.1095 29.0798 27.5035 29.0798 28.0945C29.0798 28.6854 28.6858 29.0794 28.0948 29.0794Z" fill="#9BBC14"/>
</svg>
