<svg width="44" height="44" viewBox="0 0 44 44" fill="none" xmlns="http://www.w3.org/2000/svg">
<path d="M11.3506 14.9619C11.3506 14.107 12.0436 13.4141 12.8984 13.4141H31.4719C32.3267 13.4141 33.0197 14.107 33.0197 14.9619C33.0197 15.8167 32.3267 16.5096 31.4719 16.5096H12.8984C12.0436 16.5096 11.3506 15.8167 11.3506 14.9619Z" fill="#E6BC8F"/>
<path d="M11.3506 22.185C11.3506 21.3302 12.0436 20.6372 12.8984 20.6372H31.4719C32.3267 20.6372 33.0197 21.3302 33.0197 22.185C33.0197 23.0398 32.3267 23.7328 31.4719 23.7328H12.8984C12.0436 23.7328 11.3506 23.0398 11.3506 22.185Z" fill="#D3A0B8"/>
<path d="M11.3506 29.4081C11.3506 28.5533 12.0436 27.8604 12.8984 27.8604H31.4719C32.3267 27.8604 33.0197 28.5533 33.0197 29.4081C33.0197 30.263 32.3267 30.9559 31.4719 30.9559H12.8984C12.0436 30.9559 11.3506 30.263 11.3506 29.4081Z" fill="#A8ACC7"/>
</svg>
