<svg width="44" height="44" viewBox="0 0 44 44" fill="none" xmlns="http://www.w3.org/2000/svg">
<g clip-path="url(#clip0_4662_6859)">
<path fill-rule="evenodd" clip-rule="evenodd" d="M13.4142 13.9292C13.4142 11.9366 15.0324 10.3188 17.0243 10.3188C19.0163 10.3188 20.6345 11.9366 20.6345 13.9292C20.6345 15.9217 19.0163 17.5395 17.0243 17.5395C15.0324 17.5395 13.4142 15.9265 13.4142 13.9292Z" fill="#F40000"/>
<path fill-rule="evenodd" clip-rule="evenodd" d="M25.7965 28.916C25.3186 29.1722 24.6562 29.158 24.6562 29.158C23.7146 29.158 22.9481 28.3894 22.9481 27.4548V22.6205H25.5221V18.9722H22.9481V14.9586H21.8268C21.1833 17.2738 19.0494 18.9722 16.5133 18.9722V22.6205H18.8128V28.5839C18.8128 31.0319 20.8142 33.0197 23.2841 33.0197C24.1405 33.0197 24.9922 32.8679 25.8012 32.5738V28.916H25.7965Z" fill="#F40000"/>
</g>
<defs>
<clipPath id="clip0_4662_6859">
<rect width="12.3823" height="22.7009" fill="white" transform="translate(13.4142 10.3188)"/>
</clipPath>
</defs>
</svg>
