<svg width="44" height="44" viewBox="0 0 44 44" fill="none" xmlns="http://www.w3.org/2000/svg">
<path d="M33.7328 17.3583V16.1068C33.7328 14.6732 32.5706 13.511 31.137 13.511H12.5958C11.1622 13.511 10 14.6732 10 16.1068V17.3583C10 17.4863 10.1038 17.5901 10.2318 17.5901H33.501C33.629 17.5901 33.7328 17.4863 33.7328 17.3583Z" fill="#23A6EF"/>
<path d="M10.0001 19.3051V27.2315C10.0001 28.6651 11.1622 29.8273 12.5958 29.8273H31.1371C32.5707 29.8273 33.7329 28.6651 33.7329 27.2315V19.3051C33.7329 19.1771 33.6291 19.0734 33.5011 19.0734H10.2318C10.1038 19.0734 10.0001 19.1771 10.0001 19.3051ZM15.9333 25.3774C15.9333 25.787 15.6012 26.119 15.1916 26.119H14.45C14.0404 26.119 13.7083 25.787 13.7083 25.3774V24.6357C13.7083 24.2262 14.0404 23.8941 14.45 23.8941H15.1916C15.6012 23.8941 15.9333 24.2262 15.9333 24.6357V25.3774Z" fill="#C3C7D9"/>
</svg>
