<svg width="44" height="44" viewBox="0 0 44 44" fill="none" xmlns="http://www.w3.org/2000/svg">
<path d="M20.9278 14.991C20.9278 13.7242 20.0806 13.1256 18.8865 13.5489C16.7177 14.3197 14.5496 15.0905 12.3877 15.8749C12.0384 16.0011 11.7412 16.0881 11.3652 16.3063C11.3963 16.3138 11.336 16.4468 11.3167 16.5002C11.0469 17.2337 11.2011 17.6191 11.9153 17.8883H11.9178C12.6991 18.181 13.4879 18.4552 14.2743 18.7361C14.5446 18.8331 14.815 18.9294 15.0848 19.0289C15.4084 19.146 15.7013 19.335 15.9414 19.5815C15.951 19.5912 15.9599 19.6016 15.9681 19.6126C16.107 19.7636 16.2232 19.9341 16.3131 20.1186C16.315 20.1266 16.3174 20.131 16.3199 20.1384C16.4598 20.4318 16.535 20.7638 16.5375 21.1218L16.5443 22.4788C16.5468 22.8542 16.5468 23.2321 16.5493 23.6076C16.5518 24.0216 16.5518 24.4362 16.5543 24.8502C17.4755 24.5282 18.3992 24.208 19.3204 23.8786C20.3895 23.4982 20.9253 22.723 20.9278 21.575V14.991ZM11.3012 16.3728C11.3074 16.3728 11.3136 16.3666 11.3198 16.3604C11.3136 16.3604 11.3074 16.3666 11.3012 16.3728Z" fill="#C3C7D9"/>
<path d="M16.5469 22.4813L16.5394 21.1244C16.5399 20.7846 16.4659 20.449 16.3225 20.141L16.315 20.1217C16.2252 19.9372 16.1089 19.7668 15.97 19.6157C15.9607 19.6058 15.9533 19.5934 15.9439 19.584C15.7051 19.3359 15.4119 19.1467 15.0874 19.0314C14.817 18.932 14.5466 18.835 14.2768 18.7387C13.4905 18.4571 12.7017 18.1811 11.9197 17.8908H11.9179C11.203 17.6217 11.0489 17.2363 11.3193 16.5022C11.3385 16.4518 11.3988 16.3157 11.3677 16.3088C11.3628 16.3088 11.3553 16.3088 11.346 16.3157C11.3292 16.3256 11.3149 16.3374 11.3 16.3474C11.2975 16.3499 11.2925 16.3523 11.2907 16.3548C10.7088 16.7638 10.3353 17.3842 10.3303 18.099C10.316 20.8409 10.3135 23.5834 10.3303 26.3253C10.3353 27.0451 10.6678 27.6188 11.2639 28.0409C11.2733 28.0477 11.2857 28.0527 11.2975 28.0595C11.4666 28.1465 11.645 28.2659 11.7973 28.3237C12.7788 28.6948 13.7534 29.0696 14.7474 29.4065C15.5915 29.6949 16.5127 29.1255 16.5419 28.2534C16.578 27.1445 16.5369 26.0325 16.5276 24.9204C16.535 24.8974 16.5455 24.8755 16.5587 24.8552C16.5562 24.4406 16.5562 24.0266 16.5543 23.612C16.5494 23.2347 16.5494 22.8574 16.5469 22.4813Z" fill="#23C6B0"/>
<path d="M26.956 18.6678H26.9585L27.3687 18.5205C27.3948 18.5055 27.429 18.4894 27.4769 18.472C28.0873 18.2563 28.6977 18.0381 29.3081 17.8205L30.2219 17.4911V17.493L31.3532 17.0864L31.4091 17.0672C32.0823 16.8223 32.1233 16.4735 32.0891 15.7562C32.0867 15.686 32.0724 15.6157 32.063 15.5455C31.889 15.4485 31.7323 15.3932 31.5415 15.3105C30.5625 14.9401 29.5953 14.5397 28.6038 14.201C27.7591 13.9126 26.8379 14.4819 26.8087 15.354C26.7726 16.4443 26.8136 17.6117 26.823 18.7069L26.9175 18.6759C26.9175 18.6684 26.956 18.6684 26.956 18.6684V18.6678Z" fill="#23C6B0"/>
<path d="M32.0892 15.5579C32.0823 15.553 32.0774 15.5505 32.0724 15.5455C32.0699 15.543 32.0674 15.5405 32.0631 15.5405V15.543C32.0724 15.6133 32.0867 15.6835 32.0892 15.7544C32.1234 16.4711 32.0823 16.8223 31.4091 17.0647L31.3532 17.0833L30.2219 17.4911V17.4886L29.3081 17.8181C28.6977 18.0356 28.0873 18.2513 27.4769 18.4695C27.4396 18.4826 27.4034 18.4988 27.3688 18.518L26.9585 18.6659H26.9175L26.823 18.697L26.0709 18.9562C25.3517 19.2036 24.6909 19.4504 23.9842 19.7021C22.915 20.0825 22.3991 20.8583 22.3966 22.0064C22.3966 24.2006 22.4066 26.398 22.4066 28.5928C22.4066 29.8596 23.2581 30.4576 24.4516 30.0343C26.621 29.2635 28.7891 28.4934 30.9535 27.7108C31.3271 27.5753 31.5465 27.4497 31.9251 27.2266C32.533 26.8026 32.8587 26.2258 32.8637 25.4898C32.878 22.7473 33.0352 20.0055 33.0178 17.263C33.011 16.5531 32.7046 15.9502 32.0892 15.5579Z" fill="#C3C7D9"/>
</svg>
