<svg width="46" height="43" viewBox="0 0 46 43" fill="none" xmlns="http://www.w3.org/2000/svg">
<rect x="7" y="6" width="32" height="32" rx="16" fill="#049E89"/>
<path d="M22.4804 17.2341C22.4804 16.3463 21.8866 15.9267 21.0498 16.2234C19.5298 16.7636 18.0103 17.3038 16.4952 17.8535C16.2504 17.942 16.0421 18.003 15.7786 18.1559C15.8004 18.1611 15.7581 18.2543 15.7446 18.2918C15.5555 18.8058 15.6636 19.0759 16.1641 19.2646H16.1659C16.7135 19.4698 17.2663 19.6619 17.8174 19.8588C18.0069 19.9267 18.1964 19.9943 18.3854 20.064C18.6122 20.1461 18.8174 20.2785 18.9857 20.4512C18.9924 20.4581 18.9987 20.4653 19.0045 20.473C19.1018 20.5789 19.1832 20.6983 19.2462 20.8276C19.2475 20.8333 19.2493 20.8363 19.251 20.8416C19.349 21.0472 19.4018 21.2798 19.4035 21.5307L19.4083 22.4817C19.41 22.7449 19.41 23.0097 19.4118 23.2728C19.4135 23.563 19.4135 23.8535 19.4153 24.1437C20.0609 23.918 20.7082 23.6937 21.3538 23.4628C22.1031 23.1962 22.4786 22.6529 22.4804 21.8483V17.2341ZM15.7337 18.2025C15.7381 18.2025 15.7424 18.1981 15.7468 18.1938C15.7424 18.1938 15.7381 18.1981 15.7337 18.2025Z" fill="white"/>
<path d="M19.4104 22.4841L19.4051 21.5331C19.4055 21.295 19.3536 21.0597 19.2531 20.8439L19.2479 20.8304C19.1849 20.7011 19.1035 20.5816 19.0061 20.4758C18.9996 20.4688 18.9943 20.4601 18.9878 20.4536C18.8204 20.2797 18.6149 20.1471 18.3875 20.0663C18.198 19.9966 18.0085 19.9286 17.8194 19.8611C17.2684 19.6638 16.7155 19.4703 16.1675 19.2669H16.1662C15.6652 19.0783 15.5572 18.8082 15.7467 18.2937C15.7602 18.2584 15.8024 18.163 15.7807 18.1582C15.7772 18.1582 15.772 18.1582 15.7654 18.163C15.7537 18.17 15.7436 18.1782 15.7332 18.1852C15.7314 18.187 15.728 18.1887 15.7266 18.1904C15.3189 18.4771 15.0571 18.9119 15.0536 19.4128C15.0436 21.3344 15.0418 23.2564 15.0536 25.178C15.0571 25.6825 15.2901 26.0846 15.7079 26.3804C15.7144 26.3852 15.7232 26.3886 15.7314 26.3934C15.8499 26.4544 15.975 26.5381 16.0817 26.5786C16.7696 26.8387 17.4526 27.1013 18.1492 27.3375C18.7408 27.5396 19.3864 27.1406 19.4069 26.5294C19.4322 25.7522 19.4034 24.9728 19.3969 24.1935C19.4021 24.1773 19.4094 24.162 19.4186 24.1477C19.4169 23.8572 19.4169 23.567 19.4156 23.2765C19.4121 23.012 19.4121 22.7476 19.4104 22.4841Z" fill="#23C6B0"/>
<path d="M26.7048 19.8114H26.7065L26.994 19.7081C27.0123 19.6977 27.0363 19.6864 27.0698 19.6742C27.4976 19.523 27.9254 19.3701 28.3532 19.2176L28.9936 18.9867V18.988L29.7864 18.7031L29.8257 18.6896C30.2974 18.518 30.3262 18.2736 30.3022 17.7709C30.3005 17.7217 30.2905 17.6724 30.2839 17.6232C30.162 17.5552 30.0522 17.5165 29.9184 17.4585C29.2323 17.1989 28.5545 16.9183 27.8596 16.6809C27.2676 16.4788 26.622 16.8778 26.6015 17.489C26.5763 18.2531 26.605 19.0712 26.6115 19.8388L26.6778 19.8171C26.6778 19.8118 26.7048 19.8118 26.7048 19.8118V19.8114Z" fill="#23C6B0"/>
<path d="M30.3031 17.6313C30.2983 17.6279 30.2948 17.6261 30.2913 17.6226C30.2896 17.6209 30.2879 17.6191 30.2848 17.6191V17.6209C30.2913 17.6701 30.3014 17.7193 30.3031 17.769C30.3271 18.2713 30.2983 18.5174 29.8265 18.6873L29.7873 18.7004L28.9945 18.9862V18.9844L28.3541 19.2153C27.9263 19.3678 27.4985 19.5189 27.0707 19.6719C27.0445 19.681 27.0192 19.6924 26.9949 19.7058L26.7074 19.8095H26.6786L26.6124 19.8313L26.0853 20.013C25.5813 20.1863 25.1182 20.3593 24.6229 20.5357C23.8736 20.8023 23.512 21.346 23.5103 22.1506C23.5103 23.6884 23.5172 25.2284 23.5172 26.7666C23.5172 27.6544 24.114 28.0735 24.9505 27.7768C26.4708 27.2366 27.9903 26.6969 29.5072 26.1484C29.769 26.0535 29.9228 25.9655 30.1881 25.8091C30.6141 25.512 30.8424 25.1077 30.8459 24.5919C30.8559 22.6699 30.9661 20.7483 30.9539 18.8263C30.9492 18.3288 30.7344 17.9062 30.3031 17.6313Z" fill="white"/>
</svg>
