<svg width="44" height="44" viewBox="0 0 44 44" fill="none" xmlns="http://www.w3.org/2000/svg">
<path fill-rule="evenodd" clip-rule="evenodd" d="M28.9517 12.8049C28.1879 11.9448 27.3294 11.3703 26.2795 10.9877C25.2295 10.5092 24.0849 10.3184 22.9392 10.3184C20.9351 10.3184 18.8352 10.8918 17.1182 12.0397C15.3045 13.1865 14.446 15.2905 14.446 18.4454V35.083H16.6406C17.3087 35.083 17.881 34.8922 18.2629 34.4137C18.7405 33.9351 18.9309 33.3617 18.9309 32.7883V26.1908C19.4086 27.1468 20.1713 27.8162 21.0308 28.2947C21.8893 28.6773 22.9392 28.8681 23.8934 28.8681C25.9933 28.8681 27.6156 28.008 28.9517 26.2867C30.2878 24.5654 30.9558 22.2706 30.9558 19.4973C30.9558 16.724 30.2878 14.5252 28.9517 12.8039V12.8049ZM25.3253 23.5144C24.7529 24.4705 23.703 24.949 22.6531 24.949C21.4127 24.949 20.4585 24.4705 19.7904 23.5144C19.1224 22.6543 18.8362 21.4105 18.8362 19.6902C18.8362 17.873 19.2181 16.5343 19.7904 15.6741C20.4585 14.7181 21.4127 14.2395 22.5584 14.2395C23.7987 14.2395 24.7529 14.7181 25.421 15.6741C26.089 16.6302 26.3752 17.9689 26.3752 19.6902C26.3752 21.3156 26.089 22.5584 25.3253 23.5144Z" fill="url(#paint0_linear_4662_6852)"/>
<defs>
<linearGradient id="paint0_linear_4662_6852" x1="13.9258" y1="14.6628" x2="26.0061" y2="29.0317" gradientUnits="userSpaceOnUse">
<stop stop-color="#E14A55"/>
<stop offset="1" stop-color="#8E278F"/>
</linearGradient>
</defs>
</svg>
