<svg width="44" height="44" viewBox="0 0 44 44" fill="none" xmlns="http://www.w3.org/2000/svg">
<g clip-path="url(#clip0_4662_6898)">
<path d="M31.6449 20.6083C30.6737 26.179 25.7296 30.6868 20.5962 30.6868C19.0953 30.6868 17.7332 30.2898 16.6106 29.5983L15.9296 33.5298H10.8088L13.0539 20.6083C13.6719 17.0354 15.9548 13.885 18.8557 12.0921L16.4971 25.6411H18.5908L19.8521 18.3544C20.0287 17.3555 20.4449 16.5743 21.1007 15.9852C21.7566 15.3962 22.5133 15.1016 23.371 15.1016C24.2287 15.1016 24.8719 15.3962 25.3133 15.9724C25.7548 16.5487 25.8935 17.3427 25.7169 18.3544L24.4557 25.6411H26.562L27.9494 17.6629C28.1007 16.792 28.0503 16.0109 27.7602 15.3065C27.4953 14.6022 27.0287 14.0515 26.4233 13.6545C25.8052 13.2447 25.0611 13.0398 24.2034 13.0398C23.4593 13.0398 22.7782 13.1935 22.135 13.488C21.4917 13.7826 20.9368 14.218 20.4827 14.7558L21.126 11.0164C22.0845 10.6963 23.0935 10.5298 24.0899 10.5298C29.2233 10.5298 32.6034 15.0504 31.6323 20.6083H31.6449Z" fill="#E91F80"/>
</g>
<defs>
<clipPath id="clip0_4662_6898">
<rect width="21" height="23" fill="white" transform="translate(10.8088 10.5298)"/>
</clipPath>
</defs>
</svg>
