<svg width="44" height="44" viewBox="0 0 44 44" fill="none" xmlns="http://www.w3.org/2000/svg">
<path d="M16.1226 30.2866V12.5068H23.4377C24.5553 12.5068 25.5374 12.7354 26.3841 13.1926C27.2477 13.6329 27.9165 14.2594 28.3907 15.0722C28.8817 15.885 29.1272 16.8502 29.1272 17.9678V18.3234C29.1272 19.424 28.8732 20.3892 28.3653 21.2189C27.8742 22.0317 27.1969 22.6667 26.3333 23.1239C25.4866 23.5642 24.5214 23.7843 23.4377 23.7843H19.4754V30.2866H16.1226ZM19.4754 20.7363H23.1075C23.9034 20.7363 24.5468 20.5162 25.0379 20.0759C25.529 19.6357 25.7745 19.0345 25.7745 18.2726V18.0186C25.7745 17.2566 25.529 16.6554 25.0379 16.2152C24.5468 15.7749 23.9034 15.5548 23.1075 15.5548H19.4754V20.7363Z" fill="#FC0F00"/>
</svg>
