<svg width="44" height="44" viewBox="0 0 44 44" fill="none" xmlns="http://www.w3.org/2000/svg">
<path d="M22.9599 20.1039V21.9695C22.8804 21.9767 22.4532 22.0128 21.6009 22.0128C20.8899 22.0128 20.3761 21.9819 20.1976 21.9695V20.1018C17.4549 20.2225 15.4056 20.7013 15.4056 21.273C15.4056 21.8446 17.4528 22.3224 20.1976 22.4441C20.374 22.4534 20.8745 22.473 21.5885 22.473C22.4811 22.473 22.8814 22.4503 22.9599 22.4441C25.6974 22.3203 27.7405 21.8446 27.7405 21.273C27.7405 20.7013 25.6984 20.2256 22.9599 20.1018V20.1039Z" fill="#00AD45"/>
<path d="M21.7619 10.1692C19.5393 10.1692 17.3665 10.8283 15.5184 12.0631C13.6703 13.298 12.23 15.0531 11.3794 17.1066C10.5288 19.1601 10.3062 21.4196 10.7399 23.5996C11.1735 25.7796 12.2438 27.782 13.8155 29.3536C15.3871 30.9253 17.3895 31.9956 19.5695 32.4292C21.7495 32.8629 24.009 32.6403 26.0625 31.7897C28.116 30.9392 29.8711 29.4988 31.106 27.6507C32.3408 25.8026 32.9999 23.6299 32.9999 21.4072C32.9999 18.4267 31.8159 15.5683 29.7084 13.4607C27.6009 11.3532 24.7424 10.1692 21.7619 10.1692ZM22.962 22.9003V28.2474H20.1997V22.9003C17.0959 22.7558 14.7597 22.1408 14.7597 21.4041C14.7597 20.6673 17.0948 20.0524 20.1997 19.91V18.2383H16.3818V15.6958H26.784V18.2383H22.9661V19.9079C26.0617 20.0513 28.3968 20.6673 28.3968 21.402C28.3968 22.1367 26.0669 22.7538 22.9661 22.8962L22.962 22.9003Z" fill="#00AD45"/>
</svg>
