<svg width="44" height="44" viewBox="0 0 44 44" fill="none" xmlns="http://www.w3.org/2000/svg">
<path d="M30.751 16.4615H12.5871C12.3903 16.4615 12.2307 16.6211 12.2307 16.818V18.1145C12.2307 18.3113 12.3903 18.4709 12.5871 18.4709H30.751C30.9479 18.4709 31.1074 18.3113 31.1074 18.1145V16.818C31.1074 16.6211 30.9479 16.4615 30.751 16.4615Z" fill="#FF9900"/>
<path d="M22.6391 10.2776C22.0649 9.84692 21.2736 9.84692 20.7028 10.2776L13.1247 15.9595H30.2172L22.6391 10.2776ZM18.6933 13.4666L16.5658 15.0622C16.4555 15.1452 16.2978 15.1228 16.2153 15.0123C16.1322 14.9014 16.1547 14.7446 16.2652 14.6618L18.3927 13.0663C18.5039 12.9832 18.661 13.006 18.7432 13.1162C18.8263 13.227 18.8038 13.3838 18.6933 13.4666ZM19.7177 12.6986L19.4529 12.8971C19.3427 12.9802 19.185 12.9578 19.1025 12.8472C19.0193 12.7364 19.0418 12.5796 19.1523 12.4968L19.4171 12.2982C19.5279 12.2148 19.6854 12.2379 19.7675 12.3481C19.8507 12.4589 19.8282 12.6158 19.7177 12.6986ZM21.6709 14.6976C20.9766 14.6976 20.4123 14.1367 20.4123 13.4457C20.4123 12.7513 20.9766 12.1905 21.6709 12.1905C22.3653 12.1905 22.9262 12.7513 22.9262 13.4457C22.9262 14.1367 22.3653 14.6976 21.6709 14.6976Z" fill="#FF9900"/>
<path d="M30.751 29.3074H12.587C12.3902 29.3074 12.2306 29.467 12.2306 29.6638V30.9628C12.2306 31.1597 12.3902 31.3192 12.587 31.3192H30.751C30.9479 31.3192 31.1074 31.1597 31.1074 30.9628V29.6638C31.1074 29.467 30.9479 29.3074 30.751 29.3074Z" fill="#FF9900"/>
<path d="M13.7756 27.2565C13.3918 27.2565 13.0812 27.567 13.0812 27.9509V28.8056H17.4278V27.9509C17.4278 27.567 17.1174 27.2565 16.7368 27.2565H16.7268V20.5197H16.7334C17.1174 20.5197 17.4278 20.2093 17.4278 19.8253V18.9707H13.0812V19.8253C13.0812 20.2093 13.3918 20.5197 13.7756 20.5197H13.7857V27.2565H13.7756Z" fill="#FF9900"/>
<path d="M26.605 27.2565C26.2212 27.2565 25.9107 27.567 25.9107 27.9509V28.8056H30.2572V27.9509C30.2572 27.567 29.9467 27.2565 29.5662 27.2565H29.5528V20.5197H29.5629C29.9467 20.5197 30.2572 20.2093 30.2572 19.8253V18.9707H25.9107V19.8253C25.9107 20.2093 26.2212 20.5197 26.6017 20.5197H26.6151V27.2565H26.605Z" fill="#FF9900"/>
<path d="M20.1887 27.2565C19.8048 27.2565 19.4943 27.567 19.4943 27.9509V28.8056H23.8442V27.9509C23.8442 27.567 23.5337 27.2565 23.1499 27.2565H23.1398V20.5197H23.1499C23.5337 20.5197 23.8442 20.2093 23.8442 19.8253V18.9707H19.4943V19.8253C19.4943 20.2093 19.8048 20.5197 20.1887 20.5197H20.2021V27.2565H20.1887Z" fill="#FF9900"/>
</svg>
