<svg width="24" height="24" viewBox="0 0 24 24" fill="none" xmlns="http://www.w3.org/2000/svg"><circle cx="12" cy="12" r="11" fill="#FDD663"/><path d="M12 12L3.5 12C3.5 6.8 7.8 2.5 13 2.5C16.6 2.5 19.7 4.5 21.3 7.4H12Z" fill="#E84235"/><path d="M12 12L16.6 20C15.2 20.9 13.7 21.5 12 21.5C7.8 21.5 4.2 18.8 2.9 15H12Z" fill="#31A853"/><path d="M12 12L21.3 7.4C22.1 8.8 22.5 10.4 22.5 12C22.5 15.3 20.9 18.3 18.4 20.1L12 12Z" fill="#FABB05"/><circle cx="12" cy="12" r="5" fill="#4285F4" stroke="white" stroke-width="1.5"/></svg>
