<svg width="24" height="24" viewBox="0 0 24 24" fill="none" xmlns="http://www.w3.org/2000/svg"><circle cx="12" cy="12" r="11" fill="#BEC6CF"/><path d="M9.2 9.1C9.35 7.35 10.6 6.2 12.45 6.2C14.35 6.2 15.7 7.35 15.7 9.05C15.7 10.25 15.1 10.95 14.05 11.6C13.05 12.2 12.75 12.65 12.75 13.55V14.05H10.95V13.4C10.95 12.25 11.45 11.55 12.45 10.95C13.4 10.35 13.75 10 13.75 9.15C13.75 8.35 13.2 7.85 12.35 7.85C11.45 7.85 10.85 8.35 10.75 9.25L9.2 9.1ZM10.85 16.7C10.85 16 11.35 15.55 12.05 15.55C12.75 15.55 13.25 16 13.25 16.7C13.25 17.4 12.75 17.85 12.05 17.85C11.35 17.85 10.85 17.4 10.85 16.7Z" fill="#282D30"/></svg>
