<svg width="68" height="68" viewBox="0 0 68 68" fill="none" xmlns="http://www.w3.org/2000/svg">
<g filter="url(#filter0_i_5724_52704)">
<g clip-path="url(#clip0_5724_52704)">
<rect width="68" height="68" rx="34" fill="#FF9898"/>
<g filter="url(#filter1_f_5724_52704)">
<circle cx="33.5" cy="63.5" r="23.5" fill="#FF3E3E"/>
</g>
<g filter="url(#filter2_f_5724_52704)">
<circle cx="73.5" cy="13.5" r="23.5" fill="#FFEB69" fill-opacity="0.7"/>
</g>
<path d="M34 38.375C33.825 38.375 33.6719 38.2656 33.6063 38.1125C33.475 37.8719 30.7188 31.7687 30.7188 26.7812C30.7188 24.9656 32.1844 23.5 34 23.5C35.8156 23.5 37.2812 24.9656 37.2812 26.7812C37.2812 31.7687 34.525 37.8719 34.3938 38.1125C34.3281 38.2656 34.175 38.375 34 38.375ZM34 24.375C32.6656 24.375 31.5938 25.4469 31.5938 26.7812C31.5938 30.4781 33.2344 34.9188 34 36.8219C34.7656 34.9188 36.4062 30.4562 36.4062 26.7812C36.4062 25.4469 35.3344 24.375 34 24.375Z" fill="white"/>
<path d="M34 44.1719C32.6656 44.1719 31.5938 43.1 31.5938 41.7656C31.5938 40.4313 32.6656 39.3594 34 39.3594C35.3344 39.3594 36.4062 40.4313 36.4062 41.7656C36.4062 43.1 35.3344 44.1719 34 44.1719ZM34 40.2344C33.1469 40.2344 32.4688 40.9125 32.4688 41.7656C32.4688 42.6188 33.1469 43.2969 34 43.2969C34.8531 43.2969 35.5312 42.6188 35.5312 41.7656C35.5312 40.9125 34.8531 40.2344 34 40.2344Z" fill="white"/>
</g>
</g>
<defs>
<filter id="filter0_i_5724_52704" x="0" y="0" width="68" height="68" filterUnits="userSpaceOnUse" color-interpolation-filters="sRGB">
<feFlood flood-opacity="0" result="BackgroundImageFix"/>
<feBlend mode="normal" in="SourceGraphic" in2="BackgroundImageFix" result="shape"/>
<feColorMatrix in="SourceAlpha" type="matrix" values="0 0 0 0 0 0 0 0 0 0 0 0 0 0 0 0 0 0 127 0" result="hardAlpha"/>
<feOffset dy="1"/>
<feComposite in2="hardAlpha" operator="arithmetic" k2="-1" k3="1"/>
<feColorMatrix type="matrix" values="0 0 0 0 1 0 0 0 0 0.623529 0 0 0 0 0.596078 0 0 0 0.35 0"/>
<feBlend mode="normal" in2="shape" result="effect1_innerShadow_5724_52704"/>
</filter>
<filter id="filter1_f_5724_52704" x="-24" y="6" width="115" height="115" filterUnits="userSpaceOnUse" color-interpolation-filters="sRGB">
<feFlood flood-opacity="0" result="BackgroundImageFix"/>
<feBlend mode="normal" in="SourceGraphic" in2="BackgroundImageFix" result="shape"/>
<feGaussianBlur stdDeviation="17" result="effect1_foregroundBlur_5724_52704"/>
</filter>
<filter id="filter2_f_5724_52704" x="16" y="-44" width="115" height="115" filterUnits="userSpaceOnUse" color-interpolation-filters="sRGB">
<feFlood flood-opacity="0" result="BackgroundImageFix"/>
<feBlend mode="normal" in="SourceGraphic" in2="BackgroundImageFix" result="shape"/>
<feGaussianBlur stdDeviation="17" result="effect1_foregroundBlur_5724_52704"/>
</filter>
<clipPath id="clip0_5724_52704">
<rect width="68" height="68" rx="34" fill="white"/>
</clipPath>
</defs>
</svg>
