<svg width="40" height="40" viewBox="0 0 40 40" fill="none" xmlns="http://www.w3.org/2000/svg">
<path d="M25 8.125C25 7.25971 24.7434 6.41385 24.2627 5.69438C23.782 4.97492 23.0987 4.41416 22.2992 4.08303C21.4998 3.7519 20.6201 3.66526 19.7715 3.83407C18.9228 4.00288 18.1433 4.41956 17.5314 5.03141C16.9196 5.64326 16.5029 6.42282 16.3341 7.27148C16.1653 8.12015 16.2519 8.99982 16.583 9.79924C16.9142 10.5987 17.4749 11.282 18.1944 11.7627C18.9138 12.2434 19.7597 12.5 20.625 12.5C21.7849 12.4987 22.8969 12.0373 23.7171 11.2171C24.5373 10.3969 24.9987 9.28492 25 8.125ZM17.5 8.125C17.5 7.50694 17.6833 6.90275 18.0267 6.38885C18.37 5.87494 18.8581 5.4744 19.4291 5.23788C20.0001 5.00135 20.6285 4.93947 21.2347 5.06005C21.8409 5.18063 22.3977 5.47825 22.8347 5.91529C23.2718 6.35233 23.5694 6.90915 23.69 7.51534C23.8105 8.12154 23.7486 8.74987 23.5121 9.32089C23.2756 9.89191 22.8751 10.38 22.3612 10.7233C21.8473 11.0667 21.2431 11.25 20.625 11.25C19.7965 11.249 19.0022 10.9195 18.4164 10.3336C17.8306 9.74778 17.501 8.9535 17.5 8.125Z" fill="white"/>
<path d="M30.625 1.25H10.625C9.96196 1.25 9.32607 1.51339 8.85723 1.98223C8.38839 2.45107 8.125 3.08696 8.125 3.75C8.125 4.41304 8.38839 5.04893 8.85723 5.51777C9.32607 5.98661 9.96196 6.25 10.625 6.25H11.875V11.6313L9.225 16.2188C8.08586 18.1787 7.61016 20.4541 7.86875 22.7063L8.75 30.6625V32.5H8.125C7.95924 32.5 7.80027 32.5658 7.68306 32.6831C7.56585 32.8003 7.5 32.9592 7.5 33.125V38.125C7.5 38.2908 7.56585 38.4497 7.68306 38.5669C7.80027 38.6842 7.95924 38.75 8.125 38.75H19.375C19.5408 38.75 19.6997 38.6842 19.8169 38.5669C19.9342 38.4497 20 38.2908 20 38.125V33.125C20 32.9592 19.9342 32.8003 19.8169 32.6831C19.6997 32.5658 19.5408 32.5 19.375 32.5H18.8562L19.6438 31.1875C20.287 30.1175 20.6263 28.8923 20.625 27.6437V26.8312C20.6262 25.9554 20.4585 25.0875 20.1312 24.275L19.9188 23.75H28.75C28.9158 23.75 29.0747 23.6842 29.1919 23.5669C29.3092 23.4497 29.375 23.2908 29.375 23.125V6.25H30.625C31.288 6.25 31.9239 5.98661 32.3928 5.51777C32.8616 5.04893 33.125 4.41304 33.125 3.75C33.125 3.08696 32.8616 2.45107 32.3928 1.98223C31.9239 1.51339 31.288 1.25 30.625 1.25ZM13.125 18.1688C13.5547 18.2222 13.9752 18.3337 14.375 18.5V22.5H13.125V18.1688ZM10.625 5C10.2938 4.99901 9.97642 4.867 9.74221 4.63279C9.508 4.39858 9.37599 4.08122 9.375 3.75C9.37745 3.41924 9.50994 3.10272 9.74383 2.86883C9.97772 2.63494 10.2942 2.50245 10.625 2.5H11.875V5H10.625ZM18.75 37.5H8.75V33.75H18.75V37.5ZM19.375 27.6437C19.3764 28.6659 19.0976 29.669 18.5687 30.5437L17.5875 32.1813C17.5303 32.2777 17.5 32.3878 17.5 32.5H10V30.625C10.001 30.6019 9.99892 30.5788 9.99375 30.5562L9.10625 22.5688C8.88322 20.5804 9.30616 18.5731 10.3125 16.8438L11.875 14.1313V23.125C11.875 23.2908 11.9408 23.4497 12.0581 23.5669C12.1753 23.6842 12.3342 23.75 12.5 23.75H14.375V24.375H15.625V18.125C15.626 17.7938 15.758 17.4764 15.9922 17.2422C16.2264 17.008 16.5438 16.876 16.875 16.875C17.2058 16.8775 17.5223 17.0099 17.7562 17.2438C17.9901 17.4777 18.1225 17.7942 18.125 18.125V22.5C18.1238 22.5793 18.1387 22.6579 18.1687 22.7312L18.9688 24.7437C19.2388 25.4065 19.3768 26.1156 19.375 26.8312V27.6437ZM28.125 22.5H23.7938C23.9332 21.4 24.4344 20.3775 25.2185 19.5935C26.0025 18.8094 27.025 18.3082 28.125 18.1688V22.5ZM28.125 16.9062C26.691 17.0518 25.3512 17.6879 24.3321 18.7071C23.3129 19.7262 22.6768 21.066 22.5312 22.5H19.425L19.375 22.3813V18.125C19.376 17.5418 19.1727 16.9766 18.8004 16.5276C18.4281 16.0786 17.9103 15.7743 17.337 15.6673C16.7636 15.5604 16.1709 15.6576 15.6618 15.9422C15.1527 16.2267 14.7593 16.6806 14.55 17.225C14.089 17.0649 13.6107 16.96 13.125 16.9125V2.5H28.125V16.9062ZM31.5063 4.63125C31.3911 4.74796 31.2539 4.84064 31.1026 4.90394C30.9513 4.96724 30.789 4.99989 30.625 5H29.375V2.5H30.625C30.9562 2.50099 31.2736 2.633 31.5078 2.86721C31.742 3.10142 31.874 3.41878 31.875 3.75C31.8749 3.91398 31.8422 4.07631 31.7789 4.22758C31.7156 4.37885 31.623 4.51606 31.5063 4.63125Z" fill="white"/>
<path d="M38.0665 14.6398C38.0161 14.7474 37.9361 14.8384 37.8358 14.9022C37.7355 14.9659 37.6191 14.9998 37.5003 14.9998H36.2503V26.2498H35.0003V14.3748C35.0003 14.209 35.0661 14.05 35.1833 13.9328C35.3005 13.8156 35.4595 13.7498 35.6253 13.7498H36.1659L34.3753 11.601L32.5846 13.7498H33.1253C33.291 13.7498 33.45 13.8156 33.5672 13.9328C33.6844 14.05 33.7503 14.209 33.7503 14.3748V26.2498H32.5003V14.9998H31.2503C31.1315 14.9997 31.0152 14.9658 30.915 14.9021C30.8148 14.8383 30.7348 14.7474 30.6845 14.6398C30.6341 14.5323 30.6154 14.4126 30.6306 14.2948C30.6458 14.177 30.6942 14.066 30.7703 13.9748L33.8953 10.2248C33.9539 10.1544 34.0273 10.0978 34.1103 10.059C34.1932 10.0202 34.2837 10 34.3753 10C34.4668 10 34.5573 10.0202 34.6403 10.059C34.7232 10.0978 34.7966 10.1544 34.8553 10.2248L37.9803 13.9748C38.0563 14.066 38.1048 14.1769 38.1201 14.2947C38.1354 14.4125 38.1168 14.5322 38.0665 14.6398Z" fill="white"/>
<path d="M7.98301 5.88975C7.93262 5.99739 7.85258 6.08842 7.75229 6.15219C7.652 6.21595 7.5356 6.24979 7.41676 6.24975H6.16676V17.4998H4.91676V5.62475C4.91676 5.45899 4.98261 5.30002 5.09982 5.18281C5.21703 5.0656 5.376 4.99975 5.54176 4.99975H6.08238L4.29176 2.851L2.50113 4.99975H3.04176C3.20752 4.99975 3.36649 5.0656 3.4837 5.18281C3.60091 5.30002 3.66676 5.45899 3.66676 5.62475V17.4998H2.41676V6.24975H1.16676C1.048 6.24971 0.931711 6.21583 0.831511 6.15209C0.731311 6.08834 0.651346 5.99736 0.600981 5.88981C0.550616 5.78226 0.531936 5.66259 0.547127 5.54481C0.562318 5.42702 0.610753 5.31601 0.686758 5.22476L3.81176 1.47475C3.87041 1.40442 3.94381 1.34783 4.02676 1.309C4.10971 1.27016 4.20017 1.25004 4.29176 1.25004C4.38334 1.25004 4.47381 1.27016 4.55676 1.309C4.6397 1.34783 4.7131 1.40442 4.77176 1.47475L7.89676 5.22476C7.97283 5.31595 8.02134 5.42694 8.03662 5.54471C8.05189 5.66248 8.0333 5.78217 7.98301 5.88975Z" fill="white"/>
</svg>
