<svg width="37" height="38" viewBox="0 0 37 38" fill="none" xmlns="http://www.w3.org/2000/svg">
<path d="M23.2607 17.9011V26.9679C23.2607 28.0893 22.3459 29.0041 21.2245 29.0041C20.804 29.0041 20.3983 28.8713 20.0515 28.6278L18.0154 27.1966L15.9792 28.6352C15.6325 28.8786 15.2267 29.0114 14.8062 29.0114C14.2824 29.0114 13.7807 28.8122 13.3971 28.4507C12.9914 28.0671 12.7627 27.536 12.7627 26.9753V17.9011H2.40479V35.5257C2.40479 36.7651 3.40811 37.7758 4.65489 37.7758H31.3832C32.6226 37.7758 33.6333 36.7725 33.6333 35.5257V17.9011H23.2607Z" fill="url(#paint0_linear_4565_46043)"/>
<path d="M34.5041 10.0884H25.2971C26.4185 9.73428 27.4144 9.27688 28.2628 8.72357C29.7752 7.72762 30.7785 6.43658 31.0958 5.07914C31.4868 3.38971 30.8007 1.79619 29.244 0.814996C28.0268 0.0403687 26.7726 -0.173576 25.5332 0.180539C23.106 0.85926 21.3207 3.54464 20.2288 5.75048C19.6091 5.30046 18.8419 5.02749 18.0156 5.02749C17.1894 5.02749 16.4221 5.29308 15.8024 5.75048C14.7105 3.54464 12.9252 0.85926 10.498 0.165784C9.25864 -0.188331 8.00448 0.0256139 6.78721 0.800241C5.23796 1.78144 4.54448 3.38233 4.93548 5.06438C5.25271 6.42182 6.25604 7.72025 7.76841 8.70882C8.61681 9.26212 9.61276 9.7269 10.7341 10.0736H1.52712C0.686099 10.0736 0 10.7597 0 11.6008V14.8689C0 15.71 0.686099 16.3961 1.52712 16.3961H12.7629V10.5679C13.2203 10.6491 13.6925 10.7228 14.172 10.7745C14.2015 10.7745 14.2236 10.7819 14.2531 10.7819V11.7704V26.9605C14.2531 27.4032 14.7548 27.6614 15.1163 27.4105L17.691 25.5883C17.8828 25.4555 18.1337 25.4555 18.3255 25.5883L20.9002 27.4105C21.2617 27.6687 21.7633 27.4105 21.7633 26.9605V11.7852V10.7966C21.7929 10.7966 21.815 10.7966 21.8445 10.7892C22.324 10.7376 22.7962 10.6712 23.2536 10.5827V16.4108H34.4894C35.3304 16.4108 36.0165 15.7247 36.0165 14.8837V11.6155C36.0312 10.7671 35.3451 10.0884 34.5041 10.0884ZM8.5873 7.46941C7.39954 6.68741 6.61753 5.71359 6.38883 4.7324C6.138 3.6553 6.56589 2.71099 7.58397 2.06178C8.43975 1.51585 9.25864 1.3683 10.0923 1.60438C12.2391 2.2167 14.1056 5.66195 14.7401 6.96037C14.4376 7.49892 14.2605 8.126 14.2605 8.78997V9.29901C11.9735 9.0408 10.0111 8.41372 8.5873 7.46941ZM21.7707 9.29901V8.78997C21.7707 8.126 21.5937 7.49892 21.2912 6.96037C22.0068 5.52178 23.888 2.18719 25.939 1.60438C26.7652 1.3683 27.5841 1.52323 28.4473 2.06178C29.4654 2.71099 29.8932 3.6553 29.6424 4.7324C29.4137 5.71359 28.6317 6.68741 27.4439 7.46941C26.0201 8.41372 24.0577 9.0408 21.7707 9.29901Z" fill="url(#paint1_linear_4565_46043)"/>
<defs>
<linearGradient id="paint0_linear_4565_46043" x1="18.0191" y1="17.9011" x2="18.0191" y2="37.7758" gradientUnits="userSpaceOnUse">
<stop stop-color="#EBF2F7"/>
<stop offset="1" stop-color="#7B8790"/>
</linearGradient>
<linearGradient id="paint1_linear_4565_46043" x1="18.0084" y1="0" x2="18.0084" y2="27.5131" gradientUnits="userSpaceOnUse">
<stop stop-color="#EBF2F7"/>
<stop offset="1" stop-color="#7B8790"/>
</linearGradient>
</defs>
</svg>
