<svg width="43" height="43" viewBox="0 0 43 43" fill="none" xmlns="http://www.w3.org/2000/svg">
<path d="M0.911505 30.2012C0.408111 30.7046 0.408111 31.5208 0.911505 32.0242L10.6748 41.7875C11.1781 42.2908 11.9944 42.2908 12.4978 41.7875C13.0012 41.2841 13.0012 40.4678 12.4978 39.9644L2.73451 30.2012C2.23106 29.6977 1.4149 29.6978 0.911505 30.2012Z" fill="black"/>
<path d="M0.911505 30.2012C0.408111 30.7046 0.408111 31.5208 0.911505 32.0242L10.6748 41.7875C11.1781 42.2908 11.9944 42.2908 12.4978 41.7875C13.0012 41.2841 13.0012 40.4678 12.4978 39.9644L2.73451 30.2012C2.23106 29.6977 1.4149 29.6978 0.911505 30.2012Z" fill="url(#paint0_linear_4565_47121)"/>
<path d="M19.4616 11.6511L4.5575 26.5552C4.05411 27.0586 4.05411 27.8748 4.5575 28.3782L14.3208 38.1415C14.8241 38.6449 15.6404 38.6449 16.1438 38.1415L31.0479 23.2373C31.2897 22.9955 31.4254 22.6676 31.4254 22.3258V20.8903L21.8087 11.2736L20.3731 11.2736C20.0313 11.2735 19.7034 11.4093 19.4616 11.6511Z" fill="black"/>
<path d="M19.4616 11.6511L4.5575 26.5552C4.05411 27.0586 4.05411 27.8748 4.5575 28.3782L14.3208 38.1415C14.8241 38.6449 15.6404 38.6449 16.1438 38.1415L31.0479 23.2373C31.2897 22.9955 31.4254 22.6676 31.4254 22.3258V20.8903L21.8087 11.2736L20.3731 11.2736C20.0313 11.2735 19.7034 11.4093 19.4616 11.6511Z" fill="url(#paint1_linear_4565_47121)"/>
<path d="M36.4019 5.48173C33.5862 4.54319 30.1778 5.32781 26.2712 7.81391C25.3364 8.40882 24.4898 9.02901 23.7744 9.59329L33.1057 18.9245C33.67 18.2092 34.2901 17.3626 34.8851 16.4278C37.3711 12.5212 38.1556 9.11274 37.2172 6.29711C37.0888 5.91202 36.7868 5.61001 36.4019 5.48173Z" fill="black"/>
<path d="M36.4019 5.48173C33.5862 4.54319 30.1778 5.32781 26.2712 7.81391C25.3364 8.40882 24.4898 9.02901 23.7744 9.59329L33.1057 18.9245C33.67 18.2092 34.2901 17.3626 34.8851 16.4278C37.3711 12.5212 38.1556 9.11274 37.2172 6.29711C37.0888 5.91202 36.7868 5.61001 36.4019 5.48173Z" fill="url(#paint2_linear_4565_47121)"/>
<defs>
<linearGradient id="paint0_linear_4565_47121" x1="0.911505" y1="30.2012" x2="12.4978" y2="41.7875" gradientUnits="userSpaceOnUse">
<stop stop-color="#EBF2F7"/>
<stop offset="1" stop-color="#7B8790"/>
</linearGradient>
<linearGradient id="paint1_linear_4565_47121" x1="12.235" y1="18.8777" x2="23.8212" y2="30.464" gradientUnits="userSpaceOnUse">
<stop stop-color="#EBF2F7"/>
<stop offset="1" stop-color="#7B8790"/>
</linearGradient>
<linearGradient id="paint2_linear_4565_47121" x1="28.0073" y1="5.36041" x2="37.3385" y2="14.6917" gradientUnits="userSpaceOnUse">
<stop stop-color="#EBF2F7"/>
<stop offset="1" stop-color="#7B8790"/>
</linearGradient>
</defs>
</svg>
