<svg width="43" height="39" viewBox="0 0 43 39" fill="none" xmlns="http://www.w3.org/2000/svg">
<path d="M21.4501 6.98375C23.3786 6.98375 24.942 5.42039 24.942 3.49188C24.942 1.56337 23.3786 0 21.4501 0C19.5216 0 17.9583 1.56337 17.9583 3.49188C17.9583 5.42039 19.5216 6.98375 21.4501 6.98375Z" fill="black"/>
<path d="M21.4501 6.98375C23.3786 6.98375 24.942 5.42039 24.942 3.49188C24.942 1.56337 23.3786 0 21.4501 0C19.5216 0 17.9583 1.56337 17.9583 3.49188C17.9583 5.42039 19.5216 6.98375 21.4501 6.98375Z" fill="url(#paint0_linear_4565_47135)"/>
<path d="M39.4084 12.9698C41.3369 12.9698 42.9003 11.4065 42.9003 9.47796C42.9003 7.54945 41.3369 5.98608 39.4084 5.98608C37.4799 5.98608 35.9165 7.54945 35.9165 9.47796C35.9165 11.4065 37.4799 12.9698 39.4084 12.9698Z" fill="black"/>
<path d="M39.4084 12.9698C41.3369 12.9698 42.9003 11.4065 42.9003 9.47796C42.9003 7.54945 41.3369 5.98608 39.4084 5.98608C37.4799 5.98608 35.9165 7.54945 35.9165 9.47796C35.9165 11.4065 37.4799 12.9698 39.4084 12.9698Z" fill="url(#paint1_linear_4565_47135)"/>
<path d="M3.49188 12.9698C5.42039 12.9698 6.98375 11.4065 6.98375 9.47796C6.98375 7.54945 5.42039 5.98608 3.49188 5.98608C1.56337 5.98608 0 7.54945 0 9.47796C0 11.4065 1.56337 12.9698 3.49188 12.9698Z" fill="black"/>
<path d="M3.49188 12.9698C5.42039 12.9698 6.98375 11.4065 6.98375 9.47796C6.98375 7.54945 5.42039 5.98608 3.49188 5.98608C1.56337 5.98608 0 7.54945 0 9.47796C0 11.4065 1.56337 12.9698 3.49188 12.9698Z" fill="url(#paint2_linear_4565_47135)"/>
<path fill-rule="evenodd" clip-rule="evenodd" d="M39.8774 11.7666C40.0051 11.1321 39.7098 10.4896 39.1491 10.1703C38.5864 9.85308 37.882 9.9309 37.4031 10.3659C37.4031 10.3659 35.316 12.2635 32.9615 14.4045C31.86 15.4062 30.3336 15.7953 28.887 15.4461C27.4403 15.0969 26.2611 14.0533 25.7383 12.6586L22.851 4.96246C22.6315 4.37782 22.0748 3.99072 21.4503 3.99072C20.8257 3.99072 20.269 4.37782 20.0495 4.96246L17.1622 12.6586C16.6395 14.0533 15.4602 15.0969 14.0136 15.4461C12.5669 15.7953 11.0405 15.4062 9.93904 14.4045C7.58452 12.2635 5.49738 10.3659 5.49738 10.3659C5.01849 9.9309 4.31413 9.85308 3.75144 10.1703C3.19074 10.4896 2.89543 11.1321 3.02313 11.7666C3.02313 11.7666 5.24396 22.8708 6.37134 28.5117C6.88415 31.0777 9.13691 32.9234 11.7528 32.9234H31.1477C33.7636 32.9234 36.0164 31.0777 36.5292 28.5117C37.6566 22.8708 39.8774 11.7666 39.8774 11.7666Z" fill="black"/>
<path fill-rule="evenodd" clip-rule="evenodd" d="M39.8774 11.7666C40.0051 11.1321 39.7098 10.4896 39.1491 10.1703C38.5864 9.85308 37.882 9.9309 37.4031 10.3659C37.4031 10.3659 35.316 12.2635 32.9615 14.4045C31.86 15.4062 30.3336 15.7953 28.887 15.4461C27.4403 15.0969 26.2611 14.0533 25.7383 12.6586L22.851 4.96246C22.6315 4.37782 22.0748 3.99072 21.4503 3.99072C20.8257 3.99072 20.269 4.37782 20.0495 4.96246L17.1622 12.6586C16.6395 14.0533 15.4602 15.0969 14.0136 15.4461C12.5669 15.7953 11.0405 15.4062 9.93904 14.4045C7.58452 12.2635 5.49738 10.3659 5.49738 10.3659C5.01849 9.9309 4.31413 9.85308 3.75144 10.1703C3.19074 10.4896 2.89543 11.1321 3.02313 11.7666C3.02313 11.7666 5.24396 22.8708 6.37134 28.5117C6.88415 31.0777 9.13691 32.9234 11.7528 32.9234H31.1477C33.7636 32.9234 36.0164 31.0777 36.5292 28.5117C37.6566 22.8708 39.8774 11.7666 39.8774 11.7666Z" fill="url(#paint3_linear_4565_47135)"/>
<path fill-rule="evenodd" clip-rule="evenodd" d="M33.4225 35.9164H9.47821C8.65213 35.9164 7.98169 36.5869 7.98169 37.413C7.98169 38.239 8.65213 38.9095 9.47821 38.9095H33.4225C34.2486 38.9095 34.919 38.239 34.919 37.413C34.919 36.5869 34.2486 35.9164 33.4225 35.9164Z" fill="black"/>
<path fill-rule="evenodd" clip-rule="evenodd" d="M33.4225 35.9164H9.47821C8.65213 35.9164 7.98169 36.5869 7.98169 37.413C7.98169 38.239 8.65213 38.9095 9.47821 38.9095H33.4225C34.2486 38.9095 34.919 38.239 34.919 37.413C34.919 36.5869 34.2486 35.9164 33.4225 35.9164Z" fill="url(#paint4_linear_4565_47135)"/>
<defs>
<linearGradient id="paint0_linear_4565_47135" x1="21.4501" y1="0" x2="21.4501" y2="6.98375" gradientUnits="userSpaceOnUse">
<stop stop-color="#EBF2F7"/>
<stop offset="1" stop-color="#7B8790"/>
</linearGradient>
<linearGradient id="paint1_linear_4565_47135" x1="39.4084" y1="5.98608" x2="39.4084" y2="12.9698" gradientUnits="userSpaceOnUse">
<stop stop-color="#EBF2F7"/>
<stop offset="1" stop-color="#7B8790"/>
</linearGradient>
<linearGradient id="paint2_linear_4565_47135" x1="3.49188" y1="5.98608" x2="3.49188" y2="12.9698" gradientUnits="userSpaceOnUse">
<stop stop-color="#EBF2F7"/>
<stop offset="1" stop-color="#7B8790"/>
</linearGradient>
<linearGradient id="paint3_linear_4565_47135" x1="21.4503" y1="3.99072" x2="21.4503" y2="32.9234" gradientUnits="userSpaceOnUse">
<stop stop-color="#EBF2F7"/>
<stop offset="1" stop-color="#7B8790"/>
</linearGradient>
<linearGradient id="paint4_linear_4565_47135" x1="21.4504" y1="35.9164" x2="21.4504" y2="38.9095" gradientUnits="userSpaceOnUse">
<stop stop-color="#EBF2F7"/>
<stop offset="1" stop-color="#7B8790"/>
</linearGradient>
</defs>
</svg>
