<svg width="74" height="74" viewBox="0 0 74 74" fill="none" xmlns="http://www.w3.org/2000/svg">
<g clip-path="url(#clip0_4562_58872)">
<rect width="74" height="74" rx="37" fill="#AE98FF"/>
<g filter="url(#filter0_f_4562_58872)">
<circle cx="33.5" cy="63.5" r="23.5" fill="#5B3EFF"/>
</g>
<g filter="url(#filter1_f_4562_58872)">
<circle cx="73.5" cy="13.5" r="23.5" fill="#EE69FF" fill-opacity="0.7"/>
</g>
<path d="M27.1663 21.4167C29.3027 21.4167 31.1939 22.7795 31.8697 24.8053L31.9943 25.1836C32.0907 25.474 32.3613 25.6695 32.6673 25.6695L49.0411 25.6667C49.4179 25.6667 49.8104 25.7233 50.2793 25.8452C50.3388 25.8607 50.3983 25.8678 50.4578 25.8678C50.6122 25.8678 50.7652 25.8168 50.8913 25.7205C51.0641 25.5859 51.1661 25.3791 51.1661 25.1595V23.5417C51.1661 21.5895 49.5766 20 47.6244 20H27.1663C26.7753 20 26.458 20.3173 26.458 20.7083C26.458 21.0993 26.7739 21.4167 27.1663 21.4167Z" fill="white"/>
<path d="M49.0417 27.0835H32.6664C31.7512 27.0835 30.9409 26.4998 30.6519 25.6314L30.5258 25.2546C30.0427 23.8067 28.6927 22.8335 27.1669 22.8335H23.5417C21.5895 22.8335 20 24.423 20 26.3752V43.3752C20 45.3273 21.5895 46.9168 23.5417 46.9168H26.375C26.766 46.9168 27.0833 46.5995 27.0833 46.2085C27.0833 41.1312 31.2143 37.0002 36.2917 37.0002C41.369 37.0002 45.5 41.1312 45.5 46.2085C45.5 46.5995 45.8173 46.9168 46.2083 46.9168H49.0417C50.9938 46.9168 52.5833 45.3273 52.5833 43.3752V30.6252C52.5833 28.673 50.9938 27.0835 49.0417 27.0835Z" fill="white"/>
<path d="M36.2917 38.4165C31.9949 38.4165 28.5 41.9114 28.5 46.2082C28.5 50.5049 31.9949 53.9998 36.2917 53.9998C40.5884 53.9998 44.0833 50.5049 44.0833 46.2082C44.0833 41.9114 40.5884 38.4165 36.2917 38.4165ZM36.8017 50.954C36.66 51.0957 36.4758 51.1665 36.2917 51.1665C36.1075 51.1665 35.9375 51.0957 35.7958 50.9682C35.6542 50.8265 35.5833 50.6423 35.5833 50.4582C35.5833 50.274 35.6542 50.0898 35.7958 49.9623C36.065 49.6932 36.5325 49.6932 36.8017 49.9623C36.9292 50.0898 37 50.274 37 50.4582C37 50.6423 36.9292 50.8265 36.8017 50.954ZM37.0014 46.7862L37 47.6248C37 48.0158 36.6827 48.3332 36.2917 48.3332C35.9007 48.3332 35.5833 48.0144 35.5833 47.6248L35.5848 46.2082C35.5848 45.8724 35.8213 45.5834 36.15 45.5154L36.3044 45.4857C37.7452 45.2193 38.4167 44.7731 38.4167 44.0832C38.4167 43.3153 37.442 42.6665 36.2902 42.6665C35.181 42.6665 34.2262 43.2672 34.1652 44.0067C34.1327 44.3963 33.7941 44.6923 33.4002 44.6527C33.0107 44.6201 32.7217 44.2773 32.7543 43.8877C32.8789 42.3846 34.4004 41.2498 36.2902 41.2498C38.2438 41.2498 39.8333 42.5206 39.8333 44.0832C39.8333 45.4361 38.8813 46.3442 37.0014 46.7862Z" fill="white"/>
</g>
<defs>
<filter id="filter0_f_4562_58872" x="-24" y="6" width="115" height="115" filterUnits="userSpaceOnUse" color-interpolation-filters="sRGB">
<feFlood flood-opacity="0" result="BackgroundImageFix"/>
<feBlend mode="normal" in="SourceGraphic" in2="BackgroundImageFix" result="shape"/>
<feGaussianBlur stdDeviation="17" result="effect1_foregroundBlur_4562_58872"/>
</filter>
<filter id="filter1_f_4562_58872" x="16" y="-44" width="115" height="115" filterUnits="userSpaceOnUse" color-interpolation-filters="sRGB">
<feFlood flood-opacity="0" result="BackgroundImageFix"/>
<feBlend mode="normal" in="SourceGraphic" in2="BackgroundImageFix" result="shape"/>
<feGaussianBlur stdDeviation="17" result="effect1_foregroundBlur_4562_58872"/>
</filter>
<clipPath id="clip0_4562_58872">
<rect width="74" height="74" rx="37" fill="white"/>
</clipPath>
</defs>
</svg>
