<svg width="43" height="36" viewBox="0 0 43 36" fill="none" xmlns="http://www.w3.org/2000/svg">
<path fill-rule="evenodd" clip-rule="evenodd" d="M22.0536 0.00939353C18.5957 -0.105762 15.1021 0.837647 12.0859 2.85098C8.69825 5.11462 6.3308 8.45737 5.24034 12.1942C4.93921 12.1575 4.5786 12.1737 4.15042 12.2948C2.55176 12.7484 1.34938 14.0584 0.808747 15.2121C0.107542 16.7156 -0.188186 18.704 0.123761 20.7568C0.433546 22.8031 1.29802 24.4899 2.37929 25.5371C3.46381 26.5849 4.68835 26.9255 5.90478 26.6698C7.71591 26.2832 8.61391 25.994 8.36035 24.3067L7.13257 16.1274C7.38018 11.7006 9.67193 7.53342 13.505 4.97081C18.6357 1.54372 25.3623 1.76322 30.2561 5.5201C33.6605 8.13029 35.6371 12.0412 35.8652 16.1468L35.0067 21.8684C33.0917 27.1088 28.3444 30.7386 22.851 31.2538H19.1931C18.2491 31.2538 17.489 32.014 17.489 32.9568V33.8554C17.489 34.7988 18.2491 35.5589 19.1931 35.5589H23.8052C24.7486 35.5589 25.5055 34.7988 25.5055 33.8554V33.3856C29.6479 32.3746 33.2637 29.8287 35.6181 26.2784L37.0957 26.6703C38.2981 26.9823 39.5372 26.5849 40.6212 25.5377C41.7024 24.4899 42.5664 22.8037 42.8767 20.7574C43.1897 18.7046 42.8854 16.7194 42.1923 15.2126C41.4965 13.7059 40.4601 12.7489 39.2636 12.4056C38.7625 12.2613 38.2186 12.2083 37.752 12.1942C36.7659 8.81527 34.7358 5.7423 31.8099 3.49866C28.9332 1.29124 25.5115 0.122927 22.0536 0.00939353Z" fill="black"/>
<path fill-rule="evenodd" clip-rule="evenodd" d="M22.0536 0.00939353C18.5957 -0.105762 15.1021 0.837647 12.0859 2.85098C8.69825 5.11462 6.3308 8.45737 5.24034 12.1942C4.93921 12.1575 4.5786 12.1737 4.15042 12.2948C2.55176 12.7484 1.34938 14.0584 0.808747 15.2121C0.107542 16.7156 -0.188186 18.704 0.123761 20.7568C0.433546 22.8031 1.29802 24.4899 2.37929 25.5371C3.46381 26.5849 4.68835 26.9255 5.90478 26.6698C7.71591 26.2832 8.61391 25.994 8.36035 24.3067L7.13257 16.1274C7.38018 11.7006 9.67193 7.53342 13.505 4.97081C18.6357 1.54372 25.3623 1.76322 30.2561 5.5201C33.6605 8.13029 35.6371 12.0412 35.8652 16.1468L35.0067 21.8684C33.0917 27.1088 28.3444 30.7386 22.851 31.2538H19.1931C18.2491 31.2538 17.489 32.014 17.489 32.9568V33.8554C17.489 34.7988 18.2491 35.5589 19.1931 35.5589H23.8052C24.7486 35.5589 25.5055 34.7988 25.5055 33.8554V33.3856C29.6479 32.3746 33.2637 29.8287 35.6181 26.2784L37.0957 26.6703C38.2981 26.9823 39.5372 26.5849 40.6212 25.5377C41.7024 24.4899 42.5664 22.8037 42.8767 20.7574C43.1897 18.7046 42.8854 16.7194 42.1923 15.2126C41.4965 13.7059 40.4601 12.7489 39.2636 12.4056C38.7625 12.2613 38.2186 12.2083 37.752 12.1942C36.7659 8.81527 34.7358 5.7423 31.8099 3.49866C28.9332 1.29124 25.5115 0.122927 22.0536 0.00939353Z" fill="url(#paint0_linear_4565_47110)"/>
<path fill-rule="evenodd" clip-rule="evenodd" d="M27.452 14.7244C28.6711 14.7244 29.6594 15.7127 29.6621 16.9351C29.6594 18.1542 28.6711 19.1452 27.452 19.1452C26.2296 19.1452 25.2386 18.1542 25.2386 16.9351C25.2386 15.7133 26.2301 14.7244 27.452 14.7244ZM21.4995 14.7244C22.7214 14.7244 23.7097 15.7127 23.7097 16.9351C23.7097 18.1542 22.7214 19.1452 21.4995 19.1452C20.2766 19.1452 19.2883 18.1542 19.2883 16.9351C19.2883 15.7133 20.2766 14.7244 21.4995 14.7244ZM15.5493 14.7244C16.7684 14.7244 17.7594 15.7127 17.7594 16.9351C17.7594 18.1542 16.7684 19.1452 15.5493 19.1452C14.3275 19.1452 13.3387 18.1542 13.3387 16.9351C13.3387 15.7133 14.3275 14.7244 15.5493 14.7244ZM21.4995 5.2298C15.0173 5.2298 9.7937 10.2815 9.7937 16.9351C9.7937 20.1308 11.002 22.9551 12.9705 25.0273L12.272 28.1587C12.0417 29.1892 12.7564 29.8823 13.6825 29.3665L16.7403 27.6608C18.1936 28.2917 19.8009 28.6404 21.4995 28.6404C27.9839 28.6404 33.2043 23.592 33.2043 16.9351C33.2043 10.2815 27.9839 5.2298 21.4995 5.2298Z" fill="black"/>
<path fill-rule="evenodd" clip-rule="evenodd" d="M27.452 14.7244C28.6711 14.7244 29.6594 15.7127 29.6621 16.9351C29.6594 18.1542 28.6711 19.1452 27.452 19.1452C26.2296 19.1452 25.2386 18.1542 25.2386 16.9351C25.2386 15.7133 26.2301 14.7244 27.452 14.7244ZM21.4995 14.7244C22.7214 14.7244 23.7097 15.7127 23.7097 16.9351C23.7097 18.1542 22.7214 19.1452 21.4995 19.1452C20.2766 19.1452 19.2883 18.1542 19.2883 16.9351C19.2883 15.7133 20.2766 14.7244 21.4995 14.7244ZM15.5493 14.7244C16.7684 14.7244 17.7594 15.7127 17.7594 16.9351C17.7594 18.1542 16.7684 19.1452 15.5493 19.1452C14.3275 19.1452 13.3387 18.1542 13.3387 16.9351C13.3387 15.7133 14.3275 14.7244 15.5493 14.7244ZM21.4995 5.2298C15.0173 5.2298 9.7937 10.2815 9.7937 16.9351C9.7937 20.1308 11.002 22.9551 12.9705 25.0273L12.272 28.1587C12.0417 29.1892 12.7564 29.8823 13.6825 29.3665L16.7403 27.6608C18.1936 28.2917 19.8009 28.6404 21.4995 28.6404C27.9839 28.6404 33.2043 23.592 33.2043 16.9351C33.2043 10.2815 27.9839 5.2298 21.4995 5.2298Z" fill="url(#paint1_linear_4565_47110)"/>
<defs>
<linearGradient id="paint0_linear_4565_47110" x1="21.4999" y1="0" x2="21.4999" y2="35.5589" gradientUnits="userSpaceOnUse">
<stop stop-color="#EBF2F7"/>
<stop offset="1" stop-color="#7B8790"/>
</linearGradient>
<linearGradient id="paint1_linear_4565_47110" x1="21.499" y1="5.2298" x2="21.499" y2="29.5412" gradientUnits="userSpaceOnUse">
<stop stop-color="#EBF2F7"/>
<stop offset="1" stop-color="#7B8790"/>
</linearGradient>
</defs>
</svg>
