<svg width="20" height="20" viewBox="0 0 20 20" fill="none" xmlns="http://www.w3.org/2000/svg">
<g clip-path="url(#clip0_5959_5208)">
<path d="M5.88234 9.41162C4.26061 9.41162 2.94116 10.731 2.94116 12.3528C2.94116 13.9746 4.26061 15.294 5.88234 15.294C7.5041 15.294 8.82351 13.9746 8.82351 12.3528C8.82351 10.731 7.5041 9.41162 5.88234 9.41162ZM5.88234 14.1175C4.90928 14.1175 4.11763 13.3259 4.11763 12.3528C4.11763 11.3797 4.90932 10.5881 5.88234 10.5881C6.85544 10.5881 7.64704 11.3797 7.64704 12.3528C7.64704 13.3259 6.85544 14.1175 5.88234 14.1175Z" fill="#AAB0B4"/>
<path d="M14.4622 6.47052L13.2857 7.64699H11.7647V6.47052H5.88235C5.66122 6.47052 5.44302 6.48318 5.22816 6.5071C4.97918 5.47503 4.04859 4.70581 2.94118 4.70581C1.64376 4.70581 0.588235 5.76134 0.588235 7.05875C0.588235 7.68899 0.837373 8.2782 1.2658 8.7115C0.473529 9.71377 0 10.979 0 12.3529C0 15.5964 2.63878 18.2352 5.88235 18.2352C8.75082 18.2352 11.1723 16.1845 11.671 13.4027L20 11.0324V6.47052H14.4622ZM2.94118 5.88228C3.48416 5.88228 3.94235 6.25201 4.07737 6.75291C3.34682 6.98805 2.6698 7.36467 2.0822 7.86279C1.88102 7.64836 1.76471 7.36307 1.76471 7.05875C1.76471 6.41005 2.29247 5.88228 2.94118 5.88228ZM18.8235 10.144L10.6025 12.4835L10.5591 12.8765C10.2955 15.2608 8.28494 17.0588 5.88235 17.0588C3.28753 17.0588 1.17647 14.9477 1.17647 12.3529C1.17647 10.2047 2.62337 8.38801 4.59384 7.82632C4.59494 7.82597 4.59608 7.82565 4.59722 7.82538C5.00584 7.70918 5.43698 7.64699 5.88235 7.64699H10.5882V8.82346H13.7731L14.9495 7.64699H18.8235V10.144Z" fill="#AAB0B4"/>
<path d="M12.3529 1.76465H13.5294V4.11759H12.3529V1.76465Z" fill="#AAB0B4"/>
<path d="M14.8765 4.39233L16.54 2.7288L17.3718 3.56057L15.7082 5.2241L14.8765 4.39233Z" fill="#AAB0B4"/>
<path d="M8.5072 3.55957L9.33894 2.72783L11.0025 4.39136L10.1707 5.2231L8.5072 3.55957Z" fill="#AAB0B4"/>
</g>
<defs>
<clipPath id="clip0_5959_5208">
<rect width="20" height="20" fill="white"/>
</clipPath>
</defs>
</svg>
