<svg width="20" height="20" viewBox="0 0 20 20" fill="none" xmlns="http://www.w3.org/2000/svg">
<g clip-path="url(#clip0_5959_5201)">
<path d="M18.2244 1.25523L11.2919 0.032843C10.1253 -0.172816 9.00884 0.608883 8.8031 1.77553L8.63822 2.71055C8.55611 2.7227 8.4742 2.7391 8.39284 2.7609L1.59324 4.58284C1.03896 4.73136 0.575653 5.08686 0.288746 5.5838C0.00183902 6.08078 -0.0744091 6.65975 0.0741419 7.21403L3.07321 18.4067C3.22172 18.961 3.57722 19.4243 4.0742 19.7112C4.40524 19.9023 4.77258 19.9999 5.14487 19.9999C5.33147 19.9999 5.51936 19.9754 5.70443 19.9258L12.504 18.1038C13.0583 17.9553 13.5216 17.5998 13.8085 17.1029C13.8938 16.9552 13.9599 16.8003 14.0076 16.6409L15.4662 16.8981C15.5918 16.9203 15.7168 16.931 15.8403 16.931C16.8627 16.931 17.7714 16.1964 17.955 15.1554L19.9671 3.74404C20.1728 2.57743 19.391 1.46097 18.2244 1.25523ZM12.8912 15.776C12.9587 16.0279 12.9241 16.2911 12.7936 16.517C12.6632 16.7429 12.4526 16.9044 12.2007 16.972L5.40108 18.7939C5.14913 18.8615 4.88597 18.8268 4.66008 18.6964C4.43419 18.5659 4.27259 18.3553 4.20509 18.1034L1.20603 6.91075C1.13853 6.65881 1.17318 6.39561 1.3036 6.16972C1.43403 5.94383 1.64461 5.78227 1.89656 5.71473L8.69615 3.89278C8.78029 3.87025 8.86568 3.85907 8.95048 3.85907C9.11969 3.85907 9.28668 3.90345 9.43715 3.99032C9.66304 4.12075 9.82464 4.33133 9.89214 4.58327L12.8912 15.776ZM11.7176 6.86845C11.7219 6.83498 11.7264 6.80154 11.7322 6.76834C11.7955 6.40975 12.1084 6.15675 12.4607 6.15675C12.5032 6.15675 12.5463 6.16042 12.5895 6.16808C12.8621 6.21616 13.0835 6.41049 13.167 6.67525C13.2327 6.88357 13.4089 7.03802 13.624 7.07595C13.8392 7.11391 14.0575 7.02899 14.1905 6.85576C14.3596 6.63553 14.6339 6.52862 14.9066 6.57666C15.1013 6.611 15.2709 6.71908 15.3843 6.88099C15.4977 7.0429 15.5412 7.23926 15.5069 7.43394C15.2739 8.75559 13.7843 9.88025 13.044 10.3655C12.8583 10.1168 12.6131 9.76275 12.3828 9.35104L11.7176 6.86845ZM18.813 3.54057L16.8009 14.952C16.7074 15.4823 16.1999 15.8375 15.6696 15.7441L14.0178 15.4529L13.0153 11.7118C13.0747 11.7007 13.1333 11.6803 13.1886 11.6501C13.3135 11.582 16.2521 9.95591 16.6609 7.63742C16.844 6.59924 16.1483 5.60567 15.1101 5.42263C14.6813 5.34704 14.2509 5.41958 13.8814 5.6161C13.6014 5.30505 13.2219 5.08967 12.793 5.01404C12.2902 4.92534 11.7828 5.03783 11.3644 5.33076C11.3477 5.34247 11.3316 5.35482 11.3153 5.36697L11.024 4.28C10.8755 3.72572 10.52 3.26241 10.023 2.9755C9.95069 2.93375 9.87647 2.89699 9.801 2.86422L9.95709 1.979C10.0506 1.44874 10.5581 1.0934 11.0884 1.18688L18.0209 2.40927C18.5512 2.50278 18.9066 3.01027 18.813 3.54057Z" fill="#AAB0B4"/>
<path d="M7.56222 15.1443C7.67046 15.2396 7.80847 15.2903 7.94928 15.2903C7.99987 15.2903 8.05084 15.2838 8.10088 15.2704C8.29021 15.2196 8.44165 15.0776 8.50435 14.8919L9.84205 10.931C9.91767 10.7071 9.85138 10.4598 9.67393 10.3036L6.53502 7.54226C6.38784 7.41281 6.18566 7.36547 5.99636 7.41621C5.80703 7.46695 5.65559 7.60898 5.5929 7.79468L4.2552 11.7556C4.17957 11.9795 4.24586 12.2269 4.42332 12.383L7.56222 15.1443ZM6.42163 9.00324L8.60696 10.9257L7.67566 13.6834L5.49032 11.7608L6.42163 9.00324Z" fill="#AAB0B4"/>
</g>
<defs>
<clipPath id="clip0_5959_5201">
<rect width="20" height="20" fill="white"/>
</clipPath>
</defs>
</svg>
