<svg width="20" height="20" viewBox="0 0 20 20" fill="none" xmlns="http://www.w3.org/2000/svg">
<g clip-path="url(#clip0_5959_5179)">
<path d="M17.8452 2.5H2.15485C0.966644 2.5 0 3.46664 0 4.655V15.3242C0 16.5125 0.966644 17.4792 2.15485 17.4792H17.8452C19.0334 17.4792 20 16.5125 20 15.3242V4.655C20 3.46664 19.0334 2.5 17.8452 2.5ZM18.8281 12.5417H17.8452C17.303 12.5417 16.8619 12.1007 16.8619 11.5585V8.42056C16.8619 7.87857 17.303 7.43744 17.8452 7.43744H18.8281V12.5417ZM9.41406 12.473C8.28842 12.2075 7.44781 11.1952 7.44781 9.98962C7.44781 8.78403 8.28842 7.77176 9.41406 7.5061V12.473ZM10.5859 7.5061C11.7116 7.77176 12.5522 8.78403 12.5522 9.98962C12.5522 11.1952 11.7116 12.2075 10.5859 12.473V7.5061ZM1.17188 7.43744H2.15485C2.69699 7.43744 3.13812 7.87857 3.13812 8.42056V11.5585C3.13812 12.1007 2.69699 12.5417 2.15485 12.5417H1.17188V7.43744ZM1.17188 15.3242V13.7135H2.15485C3.3432 13.7135 4.31 12.7469 4.31 11.5585V8.42056C4.31 7.23236 3.3432 6.26556 2.15485 6.26556H1.17188V4.655C1.17188 4.11285 1.61285 3.67188 2.15485 3.67188H9.41406V6.31195C7.63809 6.59378 6.27594 8.13553 6.27594 9.98962C6.27594 11.8437 7.63809 13.3855 9.41406 13.6673V16.3072H2.15485C1.61285 16.3072 1.17188 15.8662 1.17188 15.3242ZM17.8452 16.3072H10.5859V13.6673C12.3619 13.3853 13.7241 11.8436 13.7241 9.98962C13.7241 8.13553 12.3619 6.59378 10.5859 6.31195V3.67188H17.8452C18.3871 3.67188 18.8281 4.11285 18.8281 4.655V6.26556H17.8452C16.6568 6.26556 15.69 7.23236 15.69 8.42056V11.5585C15.69 12.7469 16.6568 13.7135 17.8452 13.7135H18.8281V15.3242C18.8281 15.8662 18.3871 16.3072 17.8452 16.3072Z" fill="#AAB0B4"/>
</g>
<defs>
<clipPath id="clip0_5959_5179">
<rect width="20" height="20" fill="white"/>
</clipPath>
</defs>
</svg>
