<svg width="24" height="24" viewBox="0 0 24 24" fill="none" xmlns="http://www.w3.org/2000/svg">
<g clip-path="url(#clip0_4810_258903)">
<path d="M22.667 6.49763C22.1125 5.4233 21.3857 4.41493 20.4852 3.51436C19.5845 2.61375 18.5761 1.88696 17.5018 1.33252L9.04798 9.04843L1.33203 17.5023C1.88652 18.5766 2.61331 19.585 3.51387 20.4856C4.41444 21.3862 5.42286 22.113 6.49714 22.6674L14.951 14.9515L22.667 6.49763Z" fill="#FFDA44"/>
<path d="M3.51358 20.4855C4.01697 20.9889 4.55411 21.4379 5.1175 21.8332L21.8324 5.11823C21.4372 4.55484 20.9882 4.0177 20.4848 3.51431C19.9814 3.01092 19.4443 2.562 18.8809 2.16675L2.16602 18.8816C2.56122 19.4449 3.01014 19.9822 3.51358 20.4855Z" fill="#D80027"/>
<path d="M3.51441 3.51431C-0.271541 7.30026 -0.998338 12.9861 1.33257 17.5023L17.5024 1.33251C12.9862 -0.998347 7.30032 -0.271457 3.51441 3.51431Z" fill="#338AF3"/>
<path d="M20.486 20.4857C24.2719 16.6998 24.9986 11.014 22.6679 6.4978L6.49805 22.6676C11.0142 24.9984 16.7001 24.2717 20.486 20.4857Z" fill="#338AF3"/>
<path d="M6.39547 3.65186L7.043 5.64484H9.1385L7.44322 6.87653L8.09075 8.86946L6.39547 7.63773L4.70009 8.86946L5.34772 6.87653L3.65234 5.64484H5.74784L6.39547 3.65186Z" fill="#FFDA44"/>
</g>
<defs>
<clipPath id="clip0_4810_258903">
<rect width="24" height="24" fill="white"/>
</clipPath>
</defs>
</svg>
