<svg width="24" height="24" viewBox="0 0 24 24" fill="none" xmlns="http://www.w3.org/2000/svg">
<g clip-path="url(#clip0_4810_258941)">
<path d="M12.0003 24C13.4682 24 14.8743 23.736 16.1742 23.2536L16.696 12L16.1743 0.746391C14.8743 0.264047 13.4682 0 12.0003 0C10.5325 0 9.12639 0.264047 7.82645 0.746391L7.30469 12L7.82641 23.2536C9.12639 23.736 10.5325 24 12.0003 24Z" fill="#0052B4"/>
<path d="M0 11.9999C0 17.1595 3.2565 21.558 7.82611 23.2536V0.746338C3.2565 2.44185 0 6.84037 0 11.9999Z" fill="#A2001D"/>
<path d="M16.1738 0.746338V23.2536C20.7434 21.558 23.9999 17.1595 23.9999 11.9999C23.9999 6.84037 20.7434 2.44185 16.1738 0.746338Z" fill="#A2001D"/>
<path d="M5.73828 12H6.78177V16.1739H5.73828V12Z" fill="#FFDA44"/>
<path d="M1.56445 12H2.60794V16.1739H1.56445V12Z" fill="#FFDA44"/>
<path d="M4.17239 14.6085C4.74869 14.6085 5.21588 14.1413 5.21588 13.565C5.21588 12.9887 4.74869 12.5215 4.17239 12.5215C3.59609 12.5215 3.12891 12.9887 3.12891 13.565C3.12891 14.1413 3.59609 14.6085 4.17239 14.6085Z" fill="#FFDA44"/>
<path d="M4.17406 10.4346C4.4622 10.4346 4.69578 10.201 4.69578 9.91283C4.69578 9.62469 4.4622 9.39111 4.17406 9.39111C3.88593 9.39111 3.65234 9.62469 3.65234 9.91283C3.65234 10.201 3.88593 10.4346 4.17406 10.4346Z" fill="#FFDA44"/>
<path d="M3.12891 15.1304H5.21588V16.1739H3.12891V15.1304Z" fill="#FFDA44"/>
<path d="M3.12891 10.9563H5.21588V11.9998H3.12891V10.9563Z" fill="#FFDA44"/>
<path d="M4.17262 6.26074L4.54219 7.39793H5.73787L4.77061 8.10077L5.13989 9.23796L4.17262 8.53512L3.20541 9.23796L3.57469 8.10077L2.60742 7.39793H3.80311L4.17262 6.26074Z" fill="#FFDA44"/>
</g>
<defs>
<clipPath id="clip0_4810_258941">
<rect width="24" height="24" fill="white"/>
</clipPath>
</defs>
</svg>
