<svg width="24" height="24" viewBox="0 0 24 24" fill="none" xmlns="http://www.w3.org/2000/svg">
<g clip-path="url(#clip0_4810_258962)">
<path d="M12 24C18.6274 24 24 18.6274 24 12C24 5.37258 18.6274 0 12 0C5.37258 0 0 5.37258 0 12C0 18.6274 5.37258 24 12 24Z" fill="#F0F0F0"/>
<path d="M23.9292 13.3045C23.9292 13.3044 23.9293 13.3043 23.9293 13.3041L10.7693 0.0625C10.1757 0.123016 9.59475 0.226797 9.02986 0.370656C3.83897 1.6923 0 12.0001 0 12.0001C0 12.0001 16.7999 23.2424 18.7165 21.9453C19.1 21.6858 19.4677 21.4047 19.8177 21.1038L12.0185 13.3045H23.9292Z" fill="#0052B4"/>
<path d="M20.8695 12.0001L9.19898 0.32959C3.92287 1.59132 0 6.33723 0 12.0001C0 18.6275 5.37262 24.0001 12 24.0001C14.5139 24.0001 16.8467 23.2266 18.7748 21.9053L8.86955 12.0001H20.8695Z" fill="#D80027"/>
<path d="M11.4136 17.7183L9.94802 17.029L10.7284 15.6097L9.13703 15.9141L8.93538 14.3064L7.82692 15.4888L6.71847 14.3064L6.51677 15.9141L4.92541 15.6096L5.70583 17.029L4.24023 17.7183L5.70583 18.4076L4.92541 19.827L6.51686 19.5226L6.71842 21.1302L7.82692 19.9478L8.93538 21.1302L9.13703 19.5226L10.7284 19.8271L9.94797 18.4077L11.4136 17.7183Z" fill="#F0F0F0"/>
<path d="M10.4362 6.65539L9.37023 6.15406L9.93784 5.12173L8.78036 5.34317L8.63369 4.17383L7.82748 5.03384L7.02128 4.17383L6.87456 5.34317L5.71708 5.12173L6.28473 6.15406L5.21875 6.65539L7.82748 7.1772L10.4362 6.65539Z" fill="#F0F0F0"/>
<path d="M10.9582 6.65527C10.9582 8.38416 9.55661 9.78573 7.82772 9.78573C6.09883 9.78573 4.69727 8.38416 4.69727 6.65527" fill="#F0F0F0"/>
</g>
<defs>
<clipPath id="clip0_4810_258962">
<rect width="24" height="24" fill="white"/>
</clipPath>
</defs>
</svg>
