<svg width="24" height="24" viewBox="0 0 24 24" fill="none" xmlns="http://www.w3.org/2000/svg">
<g clip-path="url(#clip0_4810_258972)">
<path d="M24 12C24 18.6274 18.6274 24 12 24C5.37262 24 0 18.6274 0 12C4.12172 7.87828 7.61737 4.38263 12 0C18.6274 0 24 5.37262 24 12Z" fill="#D80027"/>
<path d="M12 12C12 5.37262 12 4.59131 12 0C5.37262 0 0 5.37262 0 12H12Z" fill="#0052B4"/>
<path d="M9.61195 7.82593L9.80625 8.42382H10.4348L9.92625 8.79324L10.1205 9.39113L9.61195 9.02162L9.10336 9.39113L9.29766 8.79324L8.78906 8.42382H9.41766L9.61195 7.82593Z" fill="#F0F0F0"/>
<path d="M6.45545 3.13037L6.77922 4.12689H7.82697L6.97928 4.74259L7.30314 5.73906L6.45545 5.12317L5.60781 5.73906L5.93163 4.74259L5.08398 4.12689H6.13164L6.45545 3.13037Z" fill="#F0F0F0"/>
<path d="M9.58436 4.17383L9.90812 5.17039H10.9558L10.1082 5.78609L10.432 6.78256L9.58436 6.16667L8.73672 6.78256L9.06053 5.78609L8.21289 5.17039H9.26055L9.58436 4.17383Z" fill="#F0F0F0"/>
<path d="M7.10975 8.34766L7.43356 9.34417H8.48122L7.63358 9.95987L7.95739 10.9563L7.10975 10.3405L6.26211 10.9563L6.58592 9.95987L5.73828 9.34417H6.78598L7.10975 8.34766Z" fill="#F0F0F0"/>
<path d="M4.36752 5.73901L4.69133 6.73553H5.73903L4.89134 7.35123L5.21516 8.3477L4.36752 7.73186L3.51992 8.3477L3.84369 7.35123L2.99609 6.73553H4.04375L4.36752 5.73901Z" fill="#F0F0F0"/>
</g>
<defs>
<clipPath id="clip0_4810_258972">
<rect width="24" height="24" fill="white"/>
</clipPath>
</defs>
</svg>
