<svg width="24" height="24" viewBox="0 0 24 24" fill="none" xmlns="http://www.w3.org/2000/svg">
<g clip-path="url(#clip0_4810_259189)">
<path d="M1.19072 6.78274C0.427875 8.36037 0 10.1302 0 12.0001C0 13.87 0.427875 15.6399 1.19072 17.2175L12 18.261L22.8093 17.2175C23.5721 15.6399 24 13.87 24 12.0001C24 10.1302 23.5721 8.36037 22.8093 6.78274L12 5.73926L1.19072 6.78274Z" fill="#F0F0F0"/>
<path d="M1.19141 17.2173C3.13231 21.2312 7.24278 23.9999 12.0003 23.9999C16.7578 23.9999 20.8682 21.2312 22.8091 17.2173H1.19141Z" fill="#496E2D"/>
<path d="M1.19141 6.78262H22.8091C20.8682 2.76867 16.7578 0 12.0003 0C7.24273 0 3.13231 2.76867 1.19141 6.78262Z" fill="black"/>
<path d="M3.51471 3.51465C-1.17157 8.20093 -1.17157 15.7989 3.51471 20.4853C5.45126 18.5487 7.31374 16.6862 12 12L3.51471 3.51465Z" fill="#D80027"/>
<path d="M15.1297 12.0001C15.1297 10.2517 16.3584 8.79115 17.9993 8.43284C17.7471 8.37776 17.4854 8.3479 17.2166 8.3479C15.1995 8.3479 13.5645 9.98299 13.5645 12.0001C13.5645 14.0172 15.1995 15.6522 17.2166 15.6522C17.4854 15.6522 17.747 15.6224 17.9993 15.5673C16.3584 15.209 15.1297 13.7484 15.1297 12.0001Z" fill="#D80027"/>
<path d="M18.1533 9.6521L18.6714 11.2465H20.3477L18.9915 12.2317L19.5096 13.826L18.1533 12.8407L16.7972 13.826L17.3153 12.2317L15.959 11.2465H17.6353L18.1533 9.6521Z" fill="#D80027"/>
</g>
<defs>
<clipPath id="clip0_4810_259189">
<rect width="24" height="24" fill="white"/>
</clipPath>
</defs>
</svg>
