<svg width="24" height="24" viewBox="0 0 24 24" fill="none" xmlns="http://www.w3.org/2000/svg">
<g clip-path="url(#clip0_4810_259248)">
<path d="M24 12C24 18.6274 18.6274 24 12 24C5.37262 24 0 18.6274 0 12C0.521719 12 12 10.4348 12 10.4348L24 12Z" fill="#D80027"/>
<path d="M0 12C0 5.37262 5.37262 0 12 0C18.6274 0 24 5.37262 24 12" fill="#0052B4"/>
<path d="M8.87023 8.34773C8.87023 7.48331 8.16945 6.78253 7.30503 6.78253C6.90402 6.78253 6.53853 6.93346 6.26155 7.18138V6.26076H6.78327V5.21728H6.26155V4.69556H5.21806V5.21728H4.69634V6.26076H5.21806V7.18138C4.94108 6.93346 4.57559 6.78253 4.17458 6.78253C3.31016 6.78253 2.60938 7.48331 2.60938 8.34773C2.60938 8.81118 2.81098 9.22743 3.13109 9.51407V10.4347H8.34847V9.51407C8.66867 9.22743 8.87023 8.81118 8.87023 8.34773Z" fill="#FFDA44"/>
</g>
<defs>
<clipPath id="clip0_4810_259248">
<rect width="24" height="24" fill="white"/>
</clipPath>
</defs>
</svg>
