<svg width="24" height="24" viewBox="0 0 24 24" fill="none" xmlns="http://www.w3.org/2000/svg">
<g clip-path="url(#clip0_4810_259252)">
<path d="M12 24C18.6274 24 24 18.6274 24 12C24 5.37258 18.6274 0 12 0C5.37258 0 0 5.37258 0 12C0 18.6274 5.37258 24 12 24Z" fill="#F0F0F0"/>
<path d="M2.90387 4.17383C2.4828 4.66287 2.10053 5.18614 1.76172 5.73903H22.2392C21.9003 5.18614 21.5181 4.66283 21.097 4.17383H2.90387Z" fill="#D80027"/>
<path d="M2.90383 19.8259H21.097C21.5181 19.3369 21.9003 18.8136 22.2392 18.2607H1.76172C2.10048 18.8136 2.48275 19.3369 2.90383 19.8259Z" fill="#D80027"/>
<path d="M10.4648 9.80542L11.4493 11.1622L13.0439 10.6452L12.0578 12.0008L13.0422 13.3576L11.4483 12.8386L10.4621 14.1942L10.4631 12.5179L8.86914 11.9989L10.4637 11.4819L10.4648 9.80542Z" fill="#D80027"/>
<path d="M7.77706 15.3912C5.90412 15.3912 4.38575 13.8728 4.38575 11.9999C4.38575 10.1269 5.90412 8.60855 7.77706 8.60855C8.36103 8.60855 8.91055 8.75621 9.39027 9.01618C8.63769 8.28019 7.60845 7.82593 6.47272 7.82593C4.1675 7.82593 2.29883 9.69465 2.29883 11.9998C2.29883 14.305 4.16755 16.1737 6.47272 16.1737C7.60845 16.1737 8.63769 15.7194 9.39027 14.9835C8.91055 15.2435 8.36108 15.3912 7.77706 15.3912Z" fill="#D80027"/>
</g>
<defs>
<clipPath id="clip0_4810_259252">
<rect width="24" height="24" fill="white"/>
</clipPath>
</defs>
</svg>
