<svg width="24" height="24" viewBox="0 0 24 24" fill="none" xmlns="http://www.w3.org/2000/svg">
<g clip-path="url(#clip0_4810_259259)">
<path d="M24 12C24 18.6274 18.6274 24 12 24C5.37262 24 0 18.6274 0 12C0.521719 12 12 10.4348 12 10.4348L24 12Z" fill="#338AF3"/>
<path d="M0 12C0 5.37262 5.37262 0 12 0C18.6274 0 24 5.37262 24 12" fill="#F0F0F0"/>
<path d="M16.7641 8.28027L12.0008 13.0436L7.23756 8.28027C6.62158 9.19466 6.26172 10.2952 6.26172 11.4783V13.0435C6.26172 15.5568 7.8857 17.6977 10.1393 18.4726C9.83852 19.0621 9.88923 19.7978 10.33 20.3479C10.9154 19.8787 11.5214 19.393 12.0355 18.9811C12.5497 19.3931 13.1558 19.8787 13.7411 20.3479C14.187 19.7914 14.2341 19.0446 13.9214 18.4517C16.1442 17.66 17.7399 15.5347 17.7399 13.0435V11.4784C17.74 10.2952 17.38 9.19471 16.7641 8.28027Z" fill="#6DA544"/>
<path d="M12.0001 17.2174C9.69855 17.2174 7.82617 15.345 7.82617 13.0435V11.4783C7.82617 9.17682 9.69859 7.30444 12.0001 7.30444C14.3015 7.30444 16.174 9.17687 16.174 11.4783V13.0435C16.174 15.345 14.3016 17.2174 12.0001 17.2174Z" fill="#FFDA44"/>
<path d="M14.608 13.0435V11.4783C14.608 10.0399 13.4377 8.86963 11.9993 8.86963C10.5609 8.86963 9.39062 10.0399 9.39062 11.4783V13.0435L11.9993 13.5652L14.608 13.0435Z" fill="#338AF3"/>
<path d="M9.39062 13.0435C9.39062 14.4819 10.5609 15.6521 11.9993 15.6521C13.4377 15.6521 14.608 14.4819 14.608 13.0435H9.39062Z" fill="#6DA544"/>
<path d="M15.13 7.30427C15.13 6.43985 14.4292 5.73907 13.5648 5.73907C13.1638 5.73907 12.7983 5.89001 12.5213 6.13793V5.2173H13.043V4.17382H12.5213V3.6521H11.4778V4.17382H10.9561V5.2173H11.4778V6.13793C11.2008 5.89001 10.8353 5.73907 10.4343 5.73907C9.56992 5.73907 8.86914 6.43985 8.86914 7.30427C8.86914 7.76772 9.07075 8.18397 9.39086 8.47061V9.39124H14.6082V8.47061C14.9284 8.18397 15.13 7.76772 15.13 7.30427Z" fill="#FFDA44"/>
</g>
<defs>
<clipPath id="clip0_4810_259259">
<rect width="24" height="24" fill="white"/>
</clipPath>
</defs>
</svg>
