<svg width="24" height="24" viewBox="0 0 24 24" fill="none" xmlns="http://www.w3.org/2000/svg">
<g clip-path="url(#clip0_4810_259314)">
<path d="M12 24C18.6274 24 24 18.6274 24 12C24 5.37258 18.6274 0 12 0C5.37258 0 0 5.37258 0 12C0 18.6274 5.37258 24 12 24Z" fill="#F0F0F0"/>
<path d="M12.0008 0C7.24297 0 3.13203 2.77031 1.19141 6.78281H22.8102C20.8695 2.77031 16.7586 0 12.0008 0Z" fill="#FF9811"/>
<path d="M12.0008 24.0001C16.7586 24.0001 20.8695 21.2298 22.8102 17.2173H1.19141C3.13203 21.2298 7.24297 24.0001 12.0008 24.0001Z" fill="#6DA544"/>
</g>
<defs>
<clipPath id="clip0_4810_259314">
<rect width="24" height="24" fill="white"/>
</clipPath>
</defs>
</svg>
