<svg width="24" height="24" viewBox="0 0 24 24" fill="none" xmlns="http://www.w3.org/2000/svg">
<g clip-path="url(#clip0_4810_259323)">
<path d="M12 24C18.6274 24 24 18.6274 24 12C24 5.37258 18.6274 0 12 0C5.37258 0 0 5.37258 0 12C0 18.6274 5.37258 24 12 24Z" fill="#338AF3"/>
<path d="M11.999 5.21729L12.517 6.8116H14.1935L12.8373 7.79696L13.3552 9.39122L11.999 8.40591L10.6428 9.39122L11.1609 7.79696L9.80469 6.8116H11.4811L11.999 5.21729Z" fill="#F0F0F0"/>
<path d="M5.2168 11.9999L6.81111 11.4819V9.80542L7.79647 11.1617L9.39073 10.6437L8.40542 11.9999L9.39073 13.356L7.79647 12.838L6.81111 14.1942V12.5178L5.2168 11.9999Z" fill="#F0F0F0"/>
<path d="M11.9991 18.7826L11.4811 17.1883H9.80469L11.161 16.2029L10.643 14.6086L11.9991 15.594L13.3553 14.6086L12.8372 16.2029L14.1935 17.1883H12.5171L11.9991 18.7826Z" fill="#F0F0F0"/>
<path d="M18.7814 11.9998L17.187 12.5178V14.1942L16.2017 12.838L14.6074 13.356L15.5927 11.9998L14.6074 10.6436L16.2017 11.1617L17.187 9.80542V11.4818L18.7814 11.9998Z" fill="#F0F0F0"/>
</g>
<defs>
<clipPath id="clip0_4810_259323">
<rect width="24" height="24" fill="white"/>
</clipPath>
</defs>
</svg>
