<svg width="24" height="24" viewBox="0 0 24 24" fill="none" xmlns="http://www.w3.org/2000/svg">
<g clip-path="url(#clip0_4810_259365)">
<path d="M20.4853 20.4852C15.799 25.1715 8.20104 25.1715 3.51471 20.4852C-1.17157 15.7989 -1.17157 8.20093 3.51471 3.5146C3.5164 3.5146 14.2987 0.32865 18.985 5.01493C23.6713 9.70121 20.4885 20.4819 20.4853 20.4852Z" fill="#FFDA44"/>
<path d="M20.4862 20.4854C25.1725 15.7991 25.1725 8.20106 20.4862 3.51473C15.7999 -1.1716 8.20195 -1.17155 3.51562 3.51473L20.4862 20.4854Z" fill="#D80027"/>
<path d="M15.1372 15.1378C14.6443 15.3314 14.0715 15.3108 13.5746 15.032C12.6966 14.5392 12.3832 13.4239 12.8761 12.5458L12.7265 12.4619C14.2298 12.0994 15.342 10.7348 15.3225 9.12458C15.3104 8.12348 14.8631 7.22783 14.1634 6.61499L13.0678 7.73746C13.482 8.06755 13.7505 8.5739 13.7574 9.14357C13.7696 10.1504 12.9604 10.9795 11.9536 10.9917L11.9557 11.1631C10.8901 10.0425 9.15236 9.76157 7.76762 10.5836C6.90672 11.0947 6.35481 11.9298 6.17383 12.8422L7.6937 13.2299C7.7725 12.7061 8.07667 12.2204 8.56656 11.9295C9.43239 11.4156 10.555 11.7019 11.0689 12.5676L11.2165 12.4801C10.7788 13.9632 11.4043 15.6086 12.8087 16.3969C13.6817 16.8869 14.6809 16.9473 15.5616 16.6478L15.1372 15.1378Z" fill="#FF9811"/>
<path d="M16.4437 8.12717L15.5955 11.1539L13.0507 10.684L11.4126 7.30737L6.98727 8.87773L6.63828 7.89429L5.48047 7.75165L6.35286 10.2102L9.39828 9.43133L10.2637 11.8702L8.15848 14.9771L11.7312 18.0243L11.054 18.8182L11.5093 19.8923L13.2024 17.9075L11.0052 15.6595L12.6845 13.6906L16.4279 13.9603L17.2805 9.34264L18.3066 9.53215L19.0093 8.60075L16.4437 8.12717Z" fill="#FFEACF"/>
</g>
<defs>
<clipPath id="clip0_4810_259365">
<rect width="24" height="24" fill="white"/>
</clipPath>
</defs>
</svg>
