<svg width="24" height="24" viewBox="0 0 24 24" fill="none" xmlns="http://www.w3.org/2000/svg">
<g clip-path="url(#clip0_4810_259414)">
<path d="M11.9995 0C11.1035 0 10.2308 0.0990469 9.39086 0.285234L8.86914 12L9.39086 23.7147C10.2308 23.9009 11.1036 24 11.9995 24C18.6269 24 23.9995 18.6274 23.9995 12C23.9995 5.37258 18.6269 0 11.9995 0Z" fill="#496E2D"/>
<path d="M3.13041 3.91748C1.18584 6.05011 0 8.88651 0 12C0 15.1136 1.18589 17.95 3.13045 20.0827L3.65217 12L3.13041 3.91748Z" fill="#496E2D"/>
<path d="M17.5522 9.05156C18.1425 7.40596 17.4793 5.61623 16.0558 4.72485C16.3118 4.75818 16.5682 4.81846 16.8211 4.90917C18.7197 5.59035 19.7066 7.68154 19.0254 9.58007C18.3442 11.4787 16.253 12.4656 14.3544 11.7844C14.1015 11.6936 13.8652 11.5771 13.6465 11.4401C15.312 11.657 16.9618 10.6972 17.5522 9.05156Z" fill="#F0F0F0"/>
<path d="M14.2766 4.27368L13.7636 4.93659L12.9747 4.65351L13.4465 5.34623L12.9336 6.00904L13.7382 5.77438L14.2101 6.46701L14.2355 5.62926L15.0401 5.39456L14.2513 5.11157L14.2766 4.27368Z" fill="#F0F0F0"/>
<path d="M15.6634 6.43359L15.1503 7.09645L14.3614 6.81338L14.8333 7.50609L14.3203 8.16891L15.1249 7.93416L15.5969 8.62692L15.6223 7.78912L16.4269 7.55438L15.638 7.27134L15.6634 6.43359Z" fill="#F0F0F0"/>
<path d="M11.8352 5.0603L11.3222 5.72312L10.5333 5.44013L11.0052 6.1328L10.4922 6.79566L11.2968 6.56096L11.7687 7.25363L11.7941 6.41588L12.5987 6.18118L11.8098 5.8981L11.8352 5.0603Z" fill="#F0F0F0"/>
<path d="M11.7786 7.53442L11.2656 8.19728L10.4767 7.91425L10.9486 8.60697L10.4355 9.26978L11.2402 9.03513L11.7121 9.72775L11.7375 8.89L12.5422 8.6553L11.7532 8.37222L11.7786 7.53442Z" fill="#F0F0F0"/>
<path d="M14.1321 8.37915L13.6191 9.04196L12.8302 8.75893L13.3022 9.45165L12.7891 10.1144L13.5938 9.87976L14.0657 10.5725L14.091 9.73464L14.8957 9.49998L14.1067 9.21695L14.1321 8.37915Z" fill="#F0F0F0"/>
<path d="M3.13086 3.91731V20.0825C4.76586 21.8756 6.93758 23.1706 9.39172 23.7146V0.285156C6.93753 0.829187 4.76591 2.12411 3.13086 3.91731Z" fill="#D80027"/>
<path d="M5.51888 6.31797L4.4707 5.53713V4.4329L5.51888 3.6521H7.0013L8.04947 4.4329V5.53713L7.0013 6.31797H5.51888Z" fill="#F0F0F0"/>
<path d="M6.26011 3.6521H5.51888L4.4707 4.4329V4.97276H6.26011V3.6521Z" fill="#FF9811"/>
<path d="M6.25977 6.31802H7.00095L8.04913 5.53717V4.97388H6.25977V6.31802Z" fill="#FF9811"/>
<path d="M5.51888 20.3478L4.4707 19.5669V18.4627L5.51888 17.6819H7.0013L8.04947 18.4627V19.5669L7.0013 20.3478H5.51888Z" fill="#F0F0F0"/>
<path d="M6.26011 17.6819H5.51888L4.4707 18.4627V19.0026H6.26011V17.6819Z" fill="#FF9811"/>
<path d="M6.25977 20.3478H7.00095L8.04913 19.5669V19.0037H6.25977V20.3478Z" fill="#FF9811"/>
<path d="M5.52083 13.3329L4.47266 12.552V11.4478L5.52083 10.667H7.00325L8.05142 11.4478V12.552L7.00325 13.3329H5.52083Z" fill="#496E2D"/>
<path d="M8.08767 15.0509H7.63111V14.5944H6.82884L6.26156 14.0271L5.69433 14.5944H4.89206V15.0509H4.43555V15.9639H4.89206V16.4204H5.69428L6.26161 16.9878L6.82884 16.4204H7.63111V15.9639H8.08767V15.0509Z" fill="#496E2D"/>
<path d="M8.08767 8.03605H7.63111V7.57949H6.82884L6.26156 7.01221L5.69433 7.57949H4.89206V8.03605H4.43555V8.94908H4.89206V9.4056H5.69428L6.26161 9.97297L6.82884 9.4056H7.63111V8.94908H8.08767V8.03605Z" fill="#496E2D"/>
<path d="M5.73828 11.478H6.78177V12.5215H5.73828V11.478Z" fill="#D80027"/>
<path d="M6.26 9.0139C6.54814 9.0139 6.78172 8.78032 6.78172 8.49218C6.78172 8.20404 6.54814 7.97046 6.26 7.97046C5.97186 7.97046 5.73828 8.20404 5.73828 8.49218C5.73828 8.78032 5.97186 9.0139 6.26 9.0139Z" fill="#D80027"/>
<path d="M6.26 16.0293C6.54814 16.0293 6.78172 15.7957 6.78172 15.5076C6.78172 15.2194 6.54814 14.9858 6.26 14.9858C5.97186 14.9858 5.73828 15.2194 5.73828 15.5076C5.73828 15.7957 5.97186 16.0293 6.26 16.0293Z" fill="#D80027"/>
</g>
<defs>
<clipPath id="clip0_4810_259414">
<rect width="24" height="24" fill="white"/>
</clipPath>
</defs>
</svg>
