<svg width="24" height="24" viewBox="0 0 24 24" fill="none" xmlns="http://www.w3.org/2000/svg">
<g clip-path="url(#clip0_4810_259442)">
<path d="M24 12C24 18.6274 18.6274 24 12 24C5.37263 24 0 18.6274 0 12C0 12.0029 12 0.0013125 12 0C18.6274 0 24 5.37262 24 12Z" fill="#338AF3"/>
<path d="M5.73828 12.0001H9.78556L6.26 7.82617L5.73828 9.39138V12.0001Z" fill="#0052B4"/>
<path d="M12.0001 9.78659L7.82617 5.73926H12.0001L12.0001 9.78659Z" fill="#0052B4"/>
<path d="M11.9688 11.9999H12.0009C12.0009 11.9891 12.0009 11.9786 12.0009 11.9678C11.9902 11.9785 11.9795 11.9892 11.9688 11.9999Z" fill="#F0F0F0"/>
<path d="M12 6.26086C12 4.14938 12 2.76581 12 0H11.998C5.3715 0.001125 0 5.37323 0 12H6.26091V8.47448L9.78642 12H11.968C11.9787 11.9893 11.9894 11.9786 12.0001 11.9679C12.0001 11.1594 12.0001 10.4381 12.0001 9.78647L8.47444 6.26086H12Z" fill="#F0F0F0"/>
<path d="M6.07027 1.56519C4.19344 2.63389 2.63316 4.19417 1.56445 6.071V12H4.69491V4.69573V4.69564H11.9993C11.9993 3.70831 11.9993 2.76772 11.9993 1.56519H6.07027Z" fill="#D80027"/>
<path d="M11.9989 10.5244L7.73539 6.26099H6.25977V6.26108L11.9988 12.0001H11.9989C11.9989 12.0001 11.9989 10.9826 11.9989 10.5244Z" fill="#D80027"/>
<path d="M13.0972 19.8262L13.3562 20.6233H14.1944L13.5163 21.116L13.7753 21.9131L13.0972 21.4205L12.4191 21.9131L12.6781 21.116L12 20.6233H12.8381L13.0972 19.8262Z" fill="#FFDA44"/>
<path d="M19.773 14.6089L20.032 15.406H20.8701L20.1921 15.8987L20.4512 16.6959L19.773 16.2032L19.0949 16.6959L19.354 15.8987L18.6758 15.406H19.514L19.773 14.6089Z" fill="#FFDA44"/>
<path d="M21.4448 6.78271L21.7038 7.57987H22.542L21.864 8.07253L22.123 8.86964L21.4448 8.37703L20.7668 8.86964L21.0258 8.07253L20.3477 7.57987H21.1858L21.4448 6.78271Z" fill="#FFDA44"/>
<path d="M21.8589 12.5217L22.1179 13.3189H22.9561L22.278 13.8116L22.5371 14.6087L21.8589 14.1161L21.1809 14.6087L21.4399 13.8116L20.7617 13.3189H21.5999L21.8589 12.5217Z" fill="#FFDA44"/>
<path d="M14.3 17.9513L15.0469 18.3319L15.6395 17.7393L15.5085 18.567L16.2552 18.9476L15.4273 19.0787L15.2962 19.9066L14.9158 19.1597L14.0879 19.2909L14.6805 18.6983L14.3 17.9513Z" fill="#FFDA44"/>
<path d="M14.3 14.821L15.0469 15.2015L15.6395 14.6089L15.5085 15.4367L16.2552 15.8172L15.4273 15.9483L15.2962 16.7762L14.9158 16.0294L14.0879 16.1605L14.6805 15.5679L14.3 14.821Z" fill="#FFDA44"/>
<path d="M16.9074 16.8275L17.6543 17.2081L18.247 16.6155L18.1159 17.4432L18.8627 17.8238L18.0348 17.9549L17.9037 18.7828L17.5232 18.0359L16.6953 18.1671L17.288 17.5745L16.9074 16.8275Z" fill="#FFDA44"/>
<path d="M16.9074 10.1252L17.6543 10.5057L18.247 9.91309L18.1159 10.7409L18.8627 11.1214L18.0348 11.2525L17.9037 12.0804L17.5232 11.3336L16.6953 11.4647L17.288 10.8721L16.9074 10.1252Z" fill="#FFDA44"/>
<path d="M19.4367 10.0449L20.1836 10.4254L20.7763 9.83276L20.6452 10.6606L21.392 11.0411L20.5641 11.1722L20.433 12.0001L20.0525 11.2533L19.2246 11.3844L19.8173 10.7918L19.4367 10.0449Z" fill="#FFDA44"/>
</g>
<defs>
<clipPath id="clip0_4810_259442">
<rect width="24" height="24" fill="white"/>
</clipPath>
</defs>
</svg>
