<svg width="24" height="24" viewBox="0 0 24 24" fill="none" xmlns="http://www.w3.org/2000/svg">
<g clip-path="url(#clip0_4810_259474)">
<path d="M12 24C18.6274 24 24 18.6274 24 12C24 5.37258 18.6274 0 12 0C5.37258 0 0 5.37258 0 12C0 18.6274 5.37258 24 12 24Z" fill="#FCFCFC"/>
<path d="M14.0383 8.38349C14.0383 7.25793 13.1258 6.34546 12.0002 6.34546C10.8746 6.34546 9.96216 7.25793 9.96216 8.38349H5.47852C5.47852 9.49166 6.44386 10.3901 7.55203 10.3901H7.48528C7.48528 11.4984 8.38359 12.3969 9.49195 12.3969C9.49195 13.3781 10.1967 14.1935 11.1274 14.3677L11.1222 14.3795H12.8783L12.8731 14.3677C13.8039 14.1934 14.5086 13.3781 14.5086 12.3969C15.6169 12.3969 16.5152 11.4984 16.5152 10.3901H16.4484C17.5566 10.3901 18.522 9.49166 18.522 8.38349H14.0383Z" fill="#FFDA44"/>
<path d="M11.1035 14.1716L9.83984 17.0246C10.5066 17.2956 11.2354 17.4463 11.9995 17.4463C12.7636 17.4463 13.4923 17.2957 14.159 17.0246L12.8954 14.1716H11.1035Z" fill="#FFDA44"/>
<path d="M9.39062 9.38574V12.8963C9.39062 14.893 11.9993 15.5049 11.9993 15.5049C11.9993 15.5049 14.608 14.893 14.608 12.8963V9.38574H9.39062Z" fill="#F0F0F0"/>
<path d="M2.90927 12.0845L4.32016 16.0306L5.71637 12.0845H6.78194L4.74634 17.3018H3.89392L1.84375 12.0845H2.90927Z" fill="#338AF3"/>
<path d="M19.3027 17.3018V12.0845H20.3168V17.3018H19.3027Z" fill="#338AF3"/>
<path d="M10.4355 10.5193V14.7734C10.7942 15.0373 11.1801 15.2189 11.479 15.3351V10.5193H10.4355Z" fill="#D80027"/>
<path d="M13.5669 10.5193V14.7734C13.2083 15.0373 12.8224 15.2189 12.5234 15.3351V10.5193H13.5669Z" fill="#D80027"/>
<path d="M9.39062 9.3855H14.608V11.0409H9.39062V9.3855Z" fill="#0052B4"/>
</g>
<defs>
<clipPath id="clip0_4810_259474">
<rect width="24" height="24" fill="white"/>
</clipPath>
</defs>
</svg>
