<svg width="24" height="24" viewBox="0 0 24 24" fill="none" xmlns="http://www.w3.org/2000/svg">
<g clip-path="url(#clip0_4810_259558)">
<path d="M12 24C18.6274 24 24 18.6274 24 12C24 5.37258 18.6274 0 12 0C5.37258 0 0 5.37258 0 12C0 18.6274 5.37258 24 12 24Z" fill="#F0F0F0"/>
<path d="M11.9997 0C9.87812 0 7.88556 0.551344 6.15625 1.51744V22.4826C7.88561 23.4487 9.87812 24 11.9997 24C18.6271 24 23.9997 18.6274 23.9997 12C23.9997 5.37262 18.6271 0 11.9997 0Z" fill="#6DA544"/>
<path d="M6.19178 1.4978C5.43686 1.91616 4.73195 2.41341 4.08794 2.97872C4.15305 2.92163 4.21881 2.86519 4.28509 2.80951L13.4756 12.0001L4.28505 21.1907C4.21872 21.135 4.153 21.0786 4.08789 21.0215C4.73191 21.5868 5.43686 22.084 6.19173 22.5024L24 12.0001L6.19178 1.4978Z" fill="#F0F0F0"/>
<path d="M5.17739 2.1272C4.81144 2.3806 4.45997 2.65328 4.12505 2.9447L11.9991 11.9999L4.125 21.0551C4.45992 21.3466 4.81139 21.6193 5.17734 21.8726L21.945 11.9999L5.17739 2.1272Z" fill="#FFDA44"/>
<path d="M4.28602 2.80933C4.01925 3.03348 3.76181 3.26847 3.51562 3.51461L10.9575 11.9999L3.51562 20.4852C3.76181 20.7314 4.0192 20.9665 4.28602 21.1905L13.4766 11.9999L4.28602 2.80933Z" fill="black"/>
<path d="M3.51471 3.51465C-1.17157 8.20093 -1.17157 15.7989 3.51471 20.4853C5.45126 18.5487 7.31374 16.6862 12 12L3.51471 3.51465Z" fill="#D80027"/>
</g>
<defs>
<clipPath id="clip0_4810_259558">
<rect width="24" height="24" fill="white"/>
</clipPath>
</defs>
</svg>
