<svg width="24" height="24" viewBox="0 0 24 24" fill="none" xmlns="http://www.w3.org/2000/svg">
<g clip-path="url(#clip0_4810_259645)">
<path d="M24 12C24 18.6274 18.6274 24 12 24C5.37262 24 0 18.6274 0 12C0 12.0029 12 0.0013125 12 0C18.6274 0 24 5.37262 24 12Z" fill="#0052B4"/>
<path d="M11.9688 11.9999H12.0009C12.0009 11.9891 12.0009 11.9786 12.0009 11.9678C11.9902 11.9785 11.9795 11.9892 11.9688 11.9999Z" fill="#F0F0F0"/>
<path d="M12 6.26086C12 4.14938 12 2.76586 12 0H11.998C5.37145 0.001125 0 5.37323 0 12H6.26086V8.47448L9.78638 12H11.9679C11.9786 11.9893 11.9893 11.9786 12 11.9679C12 11.1594 12 10.4381 12 9.78647L8.47444 6.26086H12Z" fill="#F0F0F0"/>
<path d="M6.07027 1.56519C4.19344 2.63389 2.63311 4.19417 1.56445 6.071V12H4.69491V4.69573V4.69564H11.9993C11.9993 3.70831 11.9993 2.76772 11.9993 1.56519H6.07027Z" fill="#D80027"/>
<path d="M11.9989 10.5244L7.73539 6.26099H6.25977V6.26108L11.9988 12.0001H11.9989C11.9989 12.0001 11.9989 10.9826 11.9989 10.5244Z" fill="#D80027"/>
<path d="M18.783 7.30424L17.2178 7.82601L15.6526 7.30424L15.1309 5.9999L15.6526 4.69556H18.783L18.2613 5.9999L18.783 7.30424Z" fill="#ACABB1"/>
<path d="M13.5645 7.30444V13.0435C13.5645 15.8392 17.2166 16.6958 17.2166 16.6958C17.2166 16.6958 20.8688 15.8392 20.8688 13.0435V7.30444H13.5645Z" fill="#338AF3"/>
<path d="M13.8945 14.4031C14.7923 16.1267 17.2175 16.6957 17.2175 16.6957C17.2175 16.6957 19.6427 16.1267 20.5405 14.4031L17.2175 8.86963L13.8945 14.4031Z" fill="#6DA544"/>
<path d="M20.8688 12.9856L17.2166 7.30444L13.5645 12.9856V13.0435C13.5645 13.5609 13.6898 14.0118 13.8937 14.4032L17.2166 9.23405L20.5396 14.4031C20.7435 14.0117 20.8688 13.5609 20.8688 13.0435V12.9856Z" fill="#FFDA44"/>
</g>
<defs>
<clipPath id="clip0_4810_259645">
<rect width="24" height="24" fill="white"/>
</clipPath>
</defs>
</svg>
