<svg width="24" height="24" viewBox="0 0 24 24" fill="none" xmlns="http://www.w3.org/2000/svg">
<g clip-path="url(#clip0_4810_259667)">
<path d="M12 24C18.6274 24 24 18.6274 24 12C24 5.37257 18.6274 0 12 0C5.37257 0 0 5.37257 0 12C0 18.6274 5.37257 24 12 24Z" fill="#FFDA44"/>
<path d="M3.51539 20.4853C4.01878 20.9887 4.55593 21.4376 5.11932 21.8328L21.8335 5.11868C21.4383 4.55524 20.9893 4.01815 20.4859 3.51475C19.9825 3.01136 19.4454 2.56253 18.882 2.16724L2.16797 18.8814C2.56313 19.4448 3.012 19.9819 3.51539 20.4853Z" fill="black"/>
<path d="M3.51426 3.51463C-0.271509 7.3004 -0.998308 12.986 1.33251 17.502L17.5016 1.33297C12.9856 -0.997801 7.2999 -0.271002 3.51426 3.51463Z" fill="#6DA544"/>
<path d="M20.4855 20.4852C24.2712 16.6995 24.998 11.0139 22.6673 6.4978L6.49805 22.667C11.0141 24.9977 16.6997 24.271 20.4855 20.4852Z" fill="#D80027"/>
<path d="M7.63069 14.1568L8.75091 14.7276L9.63994 13.8386L9.44325 15.0803L10.5634 15.6511L9.32166 15.8478L9.12497 17.0896L8.55422 15.9693L7.3125 16.166L8.20149 15.277L7.63069 14.1568Z" fill="#F0F0F0"/>
<path d="M14.158 7.62996L15.2782 8.20075L16.1672 7.31177L15.9706 8.55344L17.0908 9.12429L15.849 9.32097L15.6524 10.5627L15.0816 9.44252L13.8398 9.63916L14.7288 8.75018L14.158 7.62996Z" fill="#F0F0F0"/>
</g>
<defs>
<clipPath id="clip0_4810_259667">
<rect width="24" height="24" fill="white"/>
</clipPath>
</defs>
</svg>
