<svg width="24" height="24" viewBox="0 0 24 24" fill="none" xmlns="http://www.w3.org/2000/svg">
<g clip-path="url(#clip0_4810_259706)">
<path d="M20.4854 20.4856C24.9859 15.9851 25.1636 8.79988 21.0203 4.08618L11.9997 11.9999L4.08594 21.0206C8.79963 25.1638 15.9848 24.9861 20.4854 20.4856Z" fill="#496E2D"/>
<path d="M3.51438 3.5144C8.01488 -0.986107 15.2001 -1.16381 19.9138 2.97942L12 12.0001L2.97944 19.9138C-1.16383 15.2001 -0.986083 8.01491 3.51438 3.5144Z" fill="#0052B4"/>
<path d="M19.9129 2.97925L2.97852 19.9137C3.1497 20.1084 3.32745 20.2995 3.5135 20.4854C3.6995 20.6714 3.89061 20.8492 4.08542 21.0205L21.0197 4.08606C20.8485 3.89125 20.6707 3.70018 20.4847 3.51414C20.2987 3.32823 20.1076 3.15044 19.9129 2.97925Z" fill="#FFDA44"/>
<path d="M5.05619 4.17358L5.31526 4.97079H6.15343L5.47534 5.46339L5.73432 6.2606L5.05619 5.76789L4.37805 6.2606L4.63712 5.46339L3.95898 4.97079H4.7972L5.05619 4.17358Z" fill="#F0F0F0"/>
<path d="M9.33744 4.17358L9.59651 4.97079H10.4346L9.75654 5.46339L10.0156 6.2606L9.33744 5.76789L8.6593 6.2606L8.91837 5.46339L8.24023 4.97079H9.0784L9.33744 4.17358Z" fill="#F0F0F0"/>
<path d="M5.05619 8.34766L5.31526 9.14486H6.15343L5.47534 9.63751L5.73432 10.4347L5.05619 9.94201L4.37805 10.4347L4.63712 9.63751L3.95898 9.14486H4.7972L5.05619 8.34766Z" fill="#F0F0F0"/>
<path d="M9.33744 8.34766L9.59651 9.14486H10.4346L9.75654 9.63751L10.0156 10.4347L9.33744 9.94201L8.6593 10.4347L8.91837 9.63751L8.24023 9.14486H9.0784L9.33744 8.34766Z" fill="#F0F0F0"/>
<path d="M7.19686 6.2605L7.45593 7.0577H8.29406L7.61597 7.55035L7.875 8.34756L7.19686 7.85485L6.51872 8.34756L6.77775 7.55035L6.09961 7.0577H6.93783L7.19686 6.2605Z" fill="#F0F0F0"/>
</g>
<defs>
<clipPath id="clip0_4810_259706">
<rect width="24" height="24" fill="white"/>
</clipPath>
</defs>
</svg>
