<svg width="24" height="24" viewBox="0 0 24 24" fill="none" xmlns="http://www.w3.org/2000/svg">
<g clip-path="url(#clip0_4810_259716)">
<path d="M23.2536 16.174C23.736 14.874 24 13.4679 24 12.0001C24 10.5322 23.736 9.12618 23.2536 7.8262L12 6.78271L0.746391 7.8262C0.264047 9.12618 0 10.5322 0 12.0001C0 13.4679 0.264047 14.874 0.746391 16.174L12 17.2175L23.2536 16.174Z" fill="#F0F0F0"/>
<path d="M11.9997 23.9999C17.1593 23.9999 21.5578 20.7434 23.2533 16.1738H0.746094C2.44166 20.7434 6.84012 23.9999 11.9997 23.9999Z" fill="#D80027"/>
<path d="M11.9998 0C6.84013 0 2.44166 3.2565 0.746094 7.82611H23.2534C21.5578 3.2565 17.1593 0 11.9998 0Z" fill="#496E2D"/>
<path d="M12.0008 9.39136L12.6482 11.3842H14.7437L13.0485 12.6159L13.696 14.6087L12.0008 13.3772L10.3055 14.6087L10.953 12.6159L9.25781 11.3842H11.3533L12.0008 9.39136Z" fill="black"/>
<path d="M15.5648 2.3479V4.78263C15.5648 5.16631 15.2527 5.47831 14.8691 5.47831V6.52179C15.8281 6.52179 16.6083 5.74165 16.6083 4.78263V2.3479H15.5648Z" fill="#F0F0F0"/>
<path d="M8.0863 4.78263C8.0863 5.16631 7.77425 5.47831 7.39062 5.47831V6.52179C8.34964 6.52179 9.12978 5.74165 9.12978 4.78263V2.3479H8.0863V4.78263Z" fill="#F0F0F0"/>
<path d="M14 2.3479H15.0435V4.78263H14V2.3479Z" fill="#F0F0F0"/>
<path d="M12.435 3.73915C12.435 3.83506 12.3569 3.9131 12.2611 3.9131C12.1652 3.9131 12.0871 3.83506 12.0871 3.73915V2.3479H11.0436V3.73915C11.0436 3.83506 10.9656 3.9131 10.8697 3.9131C10.7738 3.9131 10.6958 3.83506 10.6958 3.73915V2.3479H9.65234V3.73915C9.65234 4.41049 10.1984 4.95659 10.8697 4.95659C11.1282 4.95659 11.3681 4.87535 11.5654 4.7374C11.7628 4.87535 12.0025 4.95659 12.261 4.95659C12.3131 4.95659 12.3643 4.95293 12.4146 4.94651C12.3407 5.25115 12.0663 5.47831 11.7393 5.47831V6.52179C12.6983 6.52179 13.4784 5.74165 13.4784 4.78263V3.73915V2.3479H12.4349L12.435 3.73915Z" fill="#F0F0F0"/>
<path d="M9.65234 5.47827H11.2175V6.52176H9.65234V5.47827Z" fill="#F0F0F0"/>
</g>
<defs>
<clipPath id="clip0_4810_259716">
<rect width="24" height="24" fill="white"/>
</clipPath>
</defs>
</svg>
