<svg width="24" height="24" viewBox="0 0 24 24" fill="none" xmlns="http://www.w3.org/2000/svg">
<g clip-path="url(#clip0_4810_259755)">
<path d="M23.5873 8.86955C22.2103 3.76036 17.545 0 12.0007 0C6.45634 0 1.79106 3.76036 0.414062 8.86955L12.0007 9.39131L23.5873 8.86955Z" fill="#A2001D"/>
<path d="M0.414062 15.1304C1.79106 20.2395 6.45634 24 12.0007 24C17.545 24 22.2103 20.2396 23.5873 15.1304L12.0007 14.6086L0.414062 15.1304Z" fill="#A2001D"/>
<path d="M23.5866 8.86963H0.413391C0.144375 9.86774 0 10.9169 0 12.0001C0 13.0832 0.144375 14.1324 0.413391 15.1305H23.5867C23.8556 14.1324 24 13.0832 24 12.0001C24 10.9169 23.8556 9.86774 23.5866 8.86963Z" fill="#6DA544"/>
</g>
<defs>
<clipPath id="clip0_4810_259755">
<rect width="24" height="24" fill="white"/>
</clipPath>
</defs>
</svg>
