<svg width="24" height="24" viewBox="0 0 24 24" fill="none" xmlns="http://www.w3.org/2000/svg">
<g clip-path="url(#clip0_4810_259852)">
<path d="M12 24C18.6274 24 24 18.6274 24 12C24 5.37258 18.6274 0 12 0C5.37258 0 0 5.37258 0 12C0 18.6274 5.37258 24 12 24Z" fill="#F0F0F0"/>
<path d="M14.3477 23.7695C19.0915 22.8285 22.8285 19.0915 23.7695 14.3477H14.3477V23.7695Z" fill="#496E2D"/>
<path d="M0.230469 14.3477C1.17148 19.0915 4.90845 22.8285 9.65234 23.7695V14.3477H0.230469Z" fill="#496E2D"/>
<path d="M23.7695 9.6521C22.8285 4.90826 19.0915 1.17129 14.3477 0.230225V9.6521H23.7695Z" fill="#496E2D"/>
<path d="M9.65234 0.230225C4.90845 1.17129 1.17148 4.90826 0.230469 9.6521H9.65234V0.230225Z" fill="#496E2D"/>
<path d="M11.2175 14.3479H9.65234V23.7698C10.1631 23.8711 10.6857 23.9397 11.2175 23.974V14.3479Z" fill="#FFDA44"/>
<path d="M11.2175 9.65219V0.026123C10.6857 0.0603418 10.1631 0.129014 9.65234 0.230311V9.65219H11.2175Z" fill="#FFDA44"/>
<path d="M12.782 0.0261094C12.5232 0.009375 12.2624 0 11.9994 0C11.7364 0 11.4756 0.009375 11.2168 0.0261094V9.65222H12.782V0.0261094H12.782Z" fill="black"/>
<path d="M11.2168 23.974C11.4756 23.9907 11.7364 24.0001 11.9994 24.0001C12.2624 24.0001 12.5232 23.9907 12.782 23.974V14.3479H11.2168L11.2168 23.974Z" fill="black"/>
<path d="M9.65145 11.2173V9.6521H0.229578C0.128234 10.1629 0.0596094 10.6854 0.0253906 11.2173H9.65145Z" fill="#FFDA44"/>
<path d="M14.3477 11.2173H23.9738C23.9395 10.6854 23.8709 10.1629 23.7696 9.6521H14.3477V11.2173H14.3477Z" fill="#FFDA44"/>
<path d="M14.3477 12.7825H23.9738C23.9905 12.5237 23.9998 12.2629 23.9998 11.9999C23.9998 11.7369 23.9905 11.4761 23.9737 11.2173H14.3477V12.7825Z" fill="black"/>
<path d="M0.0261094 11.2173C0.00942187 11.4761 0 11.7369 0 11.9999C0 12.2629 0.00942187 12.5237 0.0261094 12.7825H9.65222V11.2173L0.0261094 11.2173Z" fill="black"/>
<path d="M12.0009 17.739C15.1705 17.739 17.74 15.1695 17.74 11.9999C17.74 8.83024 15.1705 6.26074 12.0009 6.26074C8.83122 6.26074 6.26172 8.83024 6.26172 11.9999C6.26172 15.1695 8.83122 17.739 12.0009 17.739Z" fill="#D80027"/>
<path d="M13.3075 12.6404C12.8806 11.7867 12.3258 10.9214 12.3258 10.9214C12.3258 10.9214 12.3395 10.5274 12.3395 10.2927C12.3395 9.93903 12.0529 9.65234 11.6992 9.65234C11.3642 9.65234 11.0897 9.90973 11.0617 10.2374C10.7983 10.2546 10.5898 10.4732 10.5898 10.7409C10.5898 10.9356 10.7001 11.1043 10.8616 11.1886C10.9418 11.0009 11.099 10.8544 11.2933 10.7876C11.325 10.8135 11.359 10.8367 11.3953 10.8563L11.4774 10.8956C11.4774 10.8956 11.1732 11.753 11.1732 12.2136C11.1732 13.5085 12.027 13.9078 12.027 13.9078V13.9212L11.6001 14.348H12.4538V13.4942L12.8807 13.9211C12.8845 13.9131 13.6893 13.4041 13.3075 12.6404Z" fill="#496E2D"/>
<path d="M11.9986 7.30444L12.1929 7.90229H12.8215L12.3129 8.2718L12.5072 8.86965L11.9986 8.50018L11.49 8.86965L11.6843 8.2718L11.1758 7.90229H11.8044L11.9986 7.30444Z" fill="#496E2D"/>
<path d="M9.23817 8.20122L9.74667 8.57073L10.2553 8.20117L10.061 8.79911L10.5696 9.16853L9.94097 9.16858L9.74672 9.76642L9.55242 9.16858L8.92383 9.16853L9.43237 8.79902L9.23817 8.20122Z" fill="#496E2D"/>
<path d="M7.5332 10.549H8.16175L8.35605 9.95117L8.5503 10.549L9.17894 10.549L8.67039 10.9185L8.86469 11.5164L8.35605 11.1469L7.8475 11.5163L8.0417 10.9185L7.5332 10.549Z" fill="#496E2D"/>
<path d="M7.5332 13.4512L8.0417 13.0818L7.84745 12.4839L8.35605 12.8534L8.86464 12.4839L8.67039 13.0817L9.17898 13.4512L8.5503 13.4513L8.35605 14.0491L8.16175 13.4512H7.5332Z" fill="#496E2D"/>
<path d="M9.23822 15.799L9.43242 15.2013L8.92383 14.8318H9.55247L9.74677 14.2339L9.94102 14.8317H10.5697L10.0611 15.2013L10.2553 15.7991L9.74672 15.4296L9.23822 15.799Z" fill="#496E2D"/>
<path d="M11.9986 16.6958L11.8044 16.0981H11.1758L11.6843 15.7285L11.49 15.1307L11.9986 15.5001L12.5072 15.1306L12.3129 15.7285L12.8215 16.098L12.1929 16.0981L11.9986 16.6958Z" fill="#496E2D"/>
<path d="M14.7592 15.799L14.2507 15.4296L13.7421 15.7991L13.9363 15.2013L13.4277 14.8318L14.0564 14.8317L14.2506 14.2339L14.4449 14.8318H15.0735L14.565 15.2013L14.7592 15.799Z" fill="#496E2D"/>
<path d="M16.4641 13.4512H15.8356L15.6413 14.049L15.447 13.4512H14.8184L15.327 13.0817L15.1327 12.4839L15.6413 12.8534L16.1498 12.4839L15.9556 13.0817L16.4641 13.4512Z" fill="#496E2D"/>
<path d="M16.4641 10.549L15.9556 10.9184L16.1498 11.5163L15.6413 11.1468L15.1327 11.5164L15.327 10.9185L14.8184 10.549L15.447 10.5489L15.6412 9.95117L15.8356 10.549H16.4641Z" fill="#496E2D"/>
<path d="M14.7592 8.20117L14.565 8.79897L15.0735 9.16848H14.4449L14.2507 9.76638L14.0564 9.16853L13.4277 9.16858L13.9363 8.79897L13.7421 8.20122L14.2507 8.57064L14.7592 8.20117Z" fill="#496E2D"/>
</g>
<defs>
<clipPath id="clip0_4810_259852">
<rect width="24" height="24" fill="white"/>
</clipPath>
</defs>
</svg>
