<svg width="24" height="24" viewBox="0 0 24 24" fill="none" xmlns="http://www.w3.org/2000/svg">
<g clip-path="url(#clip0_4810_259886)">
<path d="M24 12C24 18.6274 18.6274 24 12 24C5.37262 24 0 18.6274 0 12C0 12.0029 12 0.0013125 12 0C18.6274 0 24 5.37262 24 12Z" fill="#338AF3"/>
<path d="M12.0001 5.73926V9.78659L7.82617 5.73926H12.0001Z" fill="#0052B4"/>
<path d="M6.26 12.0001H9.78556L6.26 7.30444L5.73828 10.9566L6.26 12.0001Z" fill="#0052B4"/>
<path d="M11.9688 11.9999H12.0009C12.0009 11.9891 12.0009 11.9786 12.0009 11.9678C11.9902 11.9785 11.9795 11.9892 11.9688 11.9999Z" fill="#F0F0F0"/>
<path d="M12 6.26086C12 4.14938 12 2.76586 12 0H11.998C5.3715 0.001125 0 5.37323 0 12H6.26086V8.47448L9.78642 12H11.968C11.9787 11.9893 11.9894 11.9786 12.0001 11.9679C12.0001 11.1594 12.0001 10.4381 12.0001 9.78647L8.47444 6.26086H12Z" fill="#F0F0F0"/>
<path d="M6.07027 1.56519C4.19344 2.63389 2.63316 4.19417 1.56445 6.071V12H4.69491V4.69573V4.69564H11.9993C11.9993 3.70831 11.9993 2.76772 11.9993 1.56519H6.07027Z" fill="#D80027"/>
<path d="M11.9989 10.5244L7.73544 6.26099H6.25977V6.26108L11.9988 12.0001H11.9989C11.9989 12.0001 11.9989 10.9826 11.9989 10.5244Z" fill="#D80027"/>
<path d="M13.5645 7.8262V12C13.5645 14.7957 17.2166 15.6523 17.2166 15.6523C17.2166 15.6523 20.8688 14.7957 20.8688 12V7.8262L17.2166 6.78271L13.5645 7.8262Z" fill="#F3F3F3"/>
<path d="M20.8688 7.82619V6.26099H13.5645V7.82619H16.6948V10.9567H13.5645V12.0001V12.0002L16.6948 12.0002V15.4923C17.0097 15.6036 17.2166 15.6523 17.2166 15.6523C17.2166 15.6523 17.4234 15.6037 17.7383 15.4923V12.0002H20.8688V12.0001V10.9566H17.7383V7.82614H20.8688V7.82619Z" fill="#D80027"/>
</g>
<defs>
<clipPath id="clip0_4810_259886">
<rect width="24" height="24" fill="white"/>
</clipPath>
</defs>
</svg>
