<svg width="24" height="24" viewBox="0 0 24 24" fill="none" xmlns="http://www.w3.org/2000/svg">
<g clip-path="url(#clip0_4810_259900)">
<path d="M12 24C18.6274 24 24 18.6274 24 12C24 5.37258 18.6274 0 12 0C5.37258 0 0 5.37258 0 12C0 18.6274 5.37258 24 12 24Z" fill="#496E2D"/>
<path d="M14.0872 11.4996C13.7927 11.4996 13.513 11.5584 13.2533 11.6518C13.3956 11.3348 13.491 10.982 13.491 10.6053C13.491 9.1146 12.0003 7.99658 12.0003 7.99658C12.0003 7.99658 10.5096 9.1146 10.5096 10.6053C10.5096 10.982 10.605 11.3348 10.7473 11.6518C10.4875 11.5585 10.2079 11.4996 9.91337 11.4996C8.4227 11.4996 7.30469 12.9903 7.30469 12.9903C7.30469 12.9903 8.4227 14.481 9.91337 14.481C10.7874 14.481 11.5328 13.9688 12.0003 13.5448C12.4679 13.9687 13.2133 14.481 14.0873 14.481C15.578 14.481 16.696 12.9903 16.696 12.9903C16.696 12.9903 15.5779 11.4996 14.0872 11.4996Z" fill="#F0F0F0"/>
<path d="M11.9997 4.69556L12.3076 5.64318H13.304L12.498 6.22893L12.8057 7.17656L11.9997 6.59081L11.1936 7.17656L11.5013 6.22893L10.6953 5.64318H11.6917L11.9997 4.69556Z" fill="#FFDA44"/>
<path d="M8.21208 6.35303L8.80448 6.88637L9.49481 6.48784L9.17062 7.21604L9.76298 7.74948L8.97023 7.66614L8.64605 8.39434L8.4802 7.61467L7.6875 7.53132L8.37778 7.1327L8.21208 6.35303Z" fill="#FFDA44"/>
<path d="M5.4375 9.12668L6.21722 9.29238L6.6158 8.60205L6.69914 9.39475L7.47877 9.5606L6.75061 9.88483L6.83395 10.6775L6.30047 10.0852L5.57231 10.4094L5.97089 9.71903L5.4375 9.12668Z" fill="#FFDA44"/>
<path d="M15.7891 6.35303L15.1968 6.88637L14.5065 6.48784L14.8306 7.21604L14.2383 7.74948L15.031 7.66614L15.3552 8.39434L15.5211 7.61467L16.3138 7.53132L15.6235 7.1327L15.7891 6.35303Z" fill="#FFDA44"/>
<path d="M18.5627 9.12668L17.783 9.29238L17.3845 8.60205L17.3011 9.39475L16.5215 9.5606L17.2496 9.88483L17.1663 10.6775L17.6998 10.0852L18.4279 10.4094L18.0294 9.71903L18.5627 9.12668Z" fill="#FFDA44"/>
<path d="M11.9987 18.6548C13.1828 18.6548 14.2742 18.2597 15.1498 17.595H8.84766C9.72319 18.2597 10.8146 18.6548 11.9987 18.6548Z" fill="#F0F0F0"/>
<path d="M7.2168 15.5244C7.38241 15.9034 7.59241 16.2584 7.83906 16.5842H16.1602C16.4069 16.2585 16.6169 15.9034 16.7825 15.5244H7.2168Z" fill="#F0F0F0"/>
</g>
<defs>
<clipPath id="clip0_4810_259900">
<rect width="24" height="24" fill="white"/>
</clipPath>
</defs>
</svg>
