<svg width="24" height="24" viewBox="0 0 24 24" fill="none" xmlns="http://www.w3.org/2000/svg">
<g clip-path="url(#clip0_4810_259968)">
<path d="M24 12.0001C24 10.5323 23.736 9.12615 23.2536 7.82621L12 7.30444L0.746391 7.82616C0.264047 9.12615 0 10.5323 0 12.0001C0 13.4679 0.264047 14.8741 0.746391 16.174L12 16.6958L23.2536 16.174C23.736 14.8741 24 13.4679 24 12.0001Z" fill="#F0F0F0"/>
<path d="M11.9997 23.9999C17.1593 23.9999 21.5578 20.7434 23.2533 16.1738H0.746094C2.44161 20.7434 6.84012 23.9999 11.9997 23.9999Z" fill="#0052B4"/>
<path d="M0.746094 7.82611H23.2534C21.5578 3.2565 17.1593 0 11.9997 0C6.84012 0 2.44161 3.2565 0.746094 7.82611Z" fill="#D80027"/>
<path d="M15.1299 8.34778H13.043L13.3908 5.73904L14.7821 4.69556L16.1734 5.73904V7.82601L15.1299 8.34778Z" fill="#338AF3"/>
<path d="M8.86961 8.34778H10.9566L10.6087 5.73904L9.21742 4.69556L7.82617 5.73904V7.82601L8.86961 8.34778Z" fill="#338AF3"/>
<path d="M13.3921 8.34778H10.6094V5.73904L12.0007 4.69556L13.3921 5.73904V8.34778Z" fill="#0052B4"/>
<path d="M7.82617 7.82617V13.5653C7.82617 14.9318 8.48627 16.1471 9.50439 16.909L10.2348 16.7262L11.1566 17.6535C11.4292 17.7096 11.7112 17.7392 12.0001 17.7392C12.2875 17.7392 12.5681 17.71 12.8392 17.6544L13.8914 16.7783L14.4957 16.9073C15.5134 16.1455 16.174 14.9314 16.174 13.5653V7.82617H7.82617Z" fill="#F0F0F0"/>
<path d="M7.82617 7.82617H9.49572V9.49572H7.82617V7.82617Z" fill="#D80027"/>
<path d="M11.166 7.82617H12.8356V9.49572H11.166V7.82617Z" fill="#D80027"/>
<path d="M14.5039 7.82617H16.1735V9.49572H14.5039V7.82617Z" fill="#D80027"/>
<path d="M9.49609 9.49561H11.1656V11.1652H9.49609V9.49561Z" fill="#D80027"/>
<path d="M12.834 9.49561H14.5035V11.1652H12.834V9.49561Z" fill="#D80027"/>
<path d="M7.82617 11.1648H9.49572V12.8343H7.82617V11.1648Z" fill="#D80027"/>
<path d="M9.49609 12.8342H11.1656V14.5038H9.49609V12.8342Z" fill="#D80027"/>
<path d="M11.166 11.1648H12.8356V12.8343H11.166V11.1648Z" fill="#D80027"/>
<path d="M14.5039 11.1648H16.1735V12.8343H14.5039V11.1648Z" fill="#D80027"/>
<path d="M12.834 12.8342H14.5035V14.5038H12.834V12.8342Z" fill="#D80027"/>
<path d="M11.166 14.5039H12.8356V16.1735H11.166V14.5039Z" fill="#D80027"/>
<path d="M9.49542 14.5042H7.93359C8.07684 15.1248 8.35847 15.6927 8.74463 16.1737H9.49542V14.5042Z" fill="#D80027"/>
<path d="M14.5039 16.1737H15.2547C15.6409 15.6927 15.9224 15.1247 16.0657 14.5042H14.5039V16.1737Z" fill="#D80027"/>
<path d="M9.49609 16.1736V16.9021C9.98167 17.2675 10.5491 17.5294 11.1656 17.6552V16.1736H9.49609Z" fill="#D80027"/>
<path d="M12.834 16.1736V17.6552C13.4505 17.5295 14.018 17.2675 14.5035 16.9021V16.1736H12.834Z" fill="#D80027"/>
</g>
<defs>
<clipPath id="clip0_4810_259968">
<rect width="24" height="24" fill="white"/>
</clipPath>
</defs>
</svg>
