<svg width="24" height="24" viewBox="0 0 24 24" fill="none" xmlns="http://www.w3.org/2000/svg">
<g clip-path="url(#clip0_4810_260009)">
<path d="M12 24C18.6274 24 24 18.6274 24 12C24 5.37258 18.6274 0 12 0C5.37258 0 0 5.37258 0 12C0 18.6274 5.37258 24 12 24Z" fill="#F0F0F0"/>
<path d="M0 12C0 5.37263 5.37262 0 12 0C18.6274 0 24 5.37263 24 12" fill="#D80027"/>
<path d="M7.30353 6.26077C7.30353 4.51242 8.53227 3.05189 10.1731 2.69353C9.92089 2.6385 9.65928 2.60864 9.39045 2.60864C7.37338 2.60864 5.73828 4.24374 5.73828 6.26081C5.73828 8.27789 7.37338 9.91299 9.39045 9.91299C9.65919 9.91299 9.92084 9.88313 10.1731 9.82805C8.53227 9.46969 7.30353 8.00916 7.30353 6.26077Z" fill="#F0F0F0"/>
<path d="M11.9995 2.86938L12.2585 3.66649H13.0967L12.4186 4.1592L12.6776 4.95631L11.9995 4.4637L11.3214 4.95631L11.5804 4.1592L10.9023 3.66649H11.7405L11.9995 2.86938Z" fill="#F0F0F0"/>
<path d="M9.96639 4.43481L10.2254 5.23197H11.0635L10.3855 5.72463L10.6445 6.52174L9.96639 6.02913L9.2882 6.52174L9.54728 5.72463L8.86914 5.23197H9.70731L9.96639 4.43481Z" fill="#F0F0F0"/>
<path d="M14.0327 4.43481L14.2918 5.23197H15.1299L14.4518 5.72463L14.7108 6.52174L14.0327 6.02913L13.3546 6.52174L13.6136 5.72463L12.9355 5.23197H13.7737L14.0327 4.43481Z" fill="#F0F0F0"/>
<path d="M13.2495 6.78247L13.5085 7.57963H14.3467L13.6686 8.07228L13.9276 8.86939L13.2495 8.37678L12.5714 8.86939L12.8304 8.07228L12.1523 7.57963H12.9904L13.2495 6.78247Z" fill="#F0F0F0"/>
<path d="M10.7476 6.78247L11.0066 7.57963H11.8448L11.1667 8.07228L11.4257 8.86939L10.7476 8.37678L10.0695 8.86939L10.3285 8.07228L9.65039 7.57963H10.4886L10.7476 6.78247Z" fill="#F0F0F0"/>
</g>
<defs>
<clipPath id="clip0_4810_260009">
<rect width="24" height="24" fill="white"/>
</clipPath>
</defs>
</svg>
