<svg width="24" height="24" viewBox="0 0 24 24" fill="none" xmlns="http://www.w3.org/2000/svg">
<g clip-path="url(#clip0_4810_260130)">
<path d="M12 24C18.6274 24 24 18.6274 24 12C24 5.37258 18.6274 0 12 0C5.37258 0 0 5.37258 0 12C0 18.6274 5.37258 24 12 24Z" fill="#D80027"/>
<path d="M18.782 8.90675H14.4355C14.7038 8.62578 14.8689 8.24539 14.8689 7.82619C14.8689 6.96177 14.1681 6.26099 13.3037 6.26099C12.7591 6.26099 12.2797 6.53924 11.9994 6.96116C11.719 6.53924 11.2396 6.26099 10.695 6.26099C9.83061 6.26099 9.12983 6.96177 9.12983 7.82619C9.12983 8.24539 9.29497 8.62583 9.56328 8.90675H5.2168C5.2168 10.0594 6.22072 10.9937 7.37323 10.9937H7.30367C7.30367 12.1463 8.23803 13.0807 9.39069 13.0807C9.39069 13.454 9.48908 13.804 9.66083 14.107L7.92973 15.8381L9.25789 17.1662L11.1419 15.2822C11.2157 15.3093 11.292 15.331 11.3709 15.3457L10.2324 17.9161L11.9994 19.8262L13.7663 17.916L12.6279 15.3456C12.7068 15.3309 12.7831 15.3092 12.8569 15.2821L14.7409 17.1661L16.069 15.838L14.3379 14.1068C14.5097 13.8039 14.6081 13.4539 14.6081 13.0805C15.7607 13.0805 16.695 12.1462 16.695 10.9935H16.6255C17.778 10.9936 18.782 10.0594 18.782 8.90675Z" fill="black"/>
</g>
<defs>
<clipPath id="clip0_4810_260130">
<rect width="24" height="24" fill="white"/>
</clipPath>
</defs>
</svg>
