<svg width="24" height="24" viewBox="0 0 24 24" fill="none" xmlns="http://www.w3.org/2000/svg">
<g clip-path="url(#clip0_4810_260136)">
<path d="M24 12C24 7.8815 21.9249 4.24808 18.7635 2.08695L12 1.56519L5.23655 2.0869C2.07516 4.24808 0 7.88155 0 12C0 16.1186 2.07516 19.7519 5.23655 21.913L12 22.4348L18.7635 21.9131C21.9249 19.7519 24 16.1186 24 12Z" fill="#0052B4"/>
<path d="M18.7632 2.08697C16.8374 0.770437 14.5087 0 11.9998 0C9.49089 0 7.16219 0.770437 5.23633 2.08697H18.7632Z" fill="#A2001D"/>
<path d="M5.23633 21.9131C7.16214 23.2296 9.49089 24.0001 11.9998 24.0001C14.5087 24.0001 16.8374 23.2296 18.7632 21.9131H5.23633Z" fill="#A2001D"/>
<path d="M12.0009 17.739C15.1705 17.739 17.74 15.1695 17.74 11.9999C17.74 8.83024 15.1705 6.26074 12.0009 6.26074C8.83122 6.26074 6.26172 8.83024 6.26172 11.9999C6.26172 15.1695 8.83122 17.739 12.0009 17.739Z" fill="#F0F0F0"/>
<path d="M12.0003 16.6958C14.5937 16.6958 16.696 14.5934 16.696 12.0001C16.696 9.40676 14.5937 7.30444 12.0003 7.30444C9.407 7.30444 7.30469 9.40676 7.30469 12.0001C7.30469 14.5934 9.407 16.6958 12.0003 16.6958Z" fill="#6DA544"/>
<path d="M11.9996 15.1305C13.7285 15.1305 15.13 13.729 15.13 12.0001C15.13 10.2712 13.7285 8.86963 11.9996 8.86963C10.2707 8.86963 8.86914 10.2712 8.86914 12.0001C8.86914 13.729 10.2707 15.1305 11.9996 15.1305Z" fill="#F0F0F0"/>
<path d="M12.0003 11.2173L10.3047 11.9999V13.3043L12.0003 14.3477L13.696 13.3043V11.9999L12.0003 11.2173Z" fill="#0052B4"/>
<path d="M10.3047 10.4348H13.696V12H10.3047V10.4348Z" fill="#FFDA44"/>
</g>
<defs>
<clipPath id="clip0_4810_260136">
<rect width="24" height="24" fill="white"/>
</clipPath>
</defs>
</svg>
