<svg width="24" height="24" viewBox="0 0 24 24" fill="none" xmlns="http://www.w3.org/2000/svg">
<g clip-path="url(#clip0_4810_260218)">
<path d="M12.0002 23.9982C18.6266 23.9982 23.9984 18.6264 23.9984 12C23.9984 5.37351 18.6266 0.00170898 12.0002 0.00170898C5.37375 0.00170898 0.00195312 5.37351 0.00195312 12C0.00195312 18.6264 5.37375 23.9982 12.0002 23.9982Z" fill="#F0F0F0"/>
<path d="M1.6094 6.00098C1.06784 6.93887 0.668365 7.91942 0.402344 8.91821L20.468 20.5032C21.2 19.7734 21.8495 18.9371 22.3909 17.9992L1.6094 6.00098Z" fill="black"/>
<path d="M17.9983 1.6092C13.1974 -1.16253 7.27791 -0.238742 3.53125 3.4969L23.5969 15.0818C24.9588 9.9694 22.799 4.38098 17.9983 1.6092Z" fill="#FFDA44"/>
<path d="M6.0003 22.3909C10.8011 25.1626 16.7207 24.2388 20.4673 20.5032L0.401573 8.91821C-0.960222 14.0307 1.19945 19.6192 6.0003 22.3909Z" fill="#FFDA44"/>
<path d="M15.3903 10.6958C15.3903 12.5684 13.8722 14.0866 11.9995 14.0866C10.1268 14.0866 8.60867 12.5685 8.60867 10.6958C8.60867 10.1119 8.75629 9.56245 9.01626 9.08276C8.28045 9.83526 7.82617 10.8643 7.82617 11.9999C7.82617 14.3048 9.6946 16.1732 11.9995 16.1732C14.3044 16.1732 16.1728 14.3048 16.1728 11.9999C16.1728 10.8643 15.7186 9.83526 14.9827 9.08276C15.2427 9.56254 15.3903 10.1119 15.3903 10.6958Z" fill="#D80027"/>
<path d="M11.2168 6.78345H12.7818V14.6084H11.2168V6.78345Z" fill="#D80027"/>
<path d="M14.6072 8.34839H9.39062C9.39062 8.70854 9.70437 9.00048 10.0645 9.00048H10.0427C10.0427 9.36063 10.3347 9.65257 10.6948 9.65257C10.6948 10.0127 10.9868 10.3047 11.3469 10.3047H12.651C13.0112 10.3047 13.3031 10.0127 13.3031 9.65257C13.6633 9.65257 13.9552 9.36063 13.9552 9.00048H13.9335C14.2935 9.00043 14.6072 8.70858 14.6072 8.34839Z" fill="#D80027"/>
<path d="M8.34766 15.1301H15.6509V16.6951H8.34766V15.1301Z" fill="#D80027"/>
<path d="M13.5645 15.6516H16.6944V17.2166H13.5645V15.6516Z" fill="#D80027"/>
<path d="M7.30469 15.6516H10.4346V17.2166H7.30469V15.6516Z" fill="#D80027"/>
</g>
<defs>
<clipPath id="clip0_4810_260218">
<rect width="24" height="24" fill="white"/>
</clipPath>
</defs>
</svg>
