<svg width="24" height="24" viewBox="0 0 24 24" fill="none" xmlns="http://www.w3.org/2000/svg">
<g clip-path="url(#clip0_4810_260244)">
<path d="M0 12.0001C0 12.822 0.082875 13.6246 0.240328 14.4001L12 15.1305L23.7597 14.4001C23.9172 13.6246 24 12.822 24 12.0001C24 11.1781 23.9171 10.3755 23.7597 9.60008L12 8.86963L0.240328 9.60008C0.082875 10.3755 0 11.1781 0 12.0001Z" fill="#0052B4"/>
<path d="M23.7596 14.3999H0.240234C1.35206 19.8772 6.19448 23.9999 11.9999 23.9999C17.8053 23.9999 22.6477 19.8772 23.7596 14.3999Z" fill="#F0F0F0"/>
<path d="M0.240234 9.6H23.7597C22.6477 4.12266 17.8054 0 11.9999 0C6.19439 0 1.35206 4.12266 0.240234 9.6Z" fill="black"/>
<path d="M17.218 9.59998H6.7832L8.91508 8.59714L7.77981 6.53253L10.0947 6.97527L10.3882 4.63672L12.0006 6.35675L13.6131 4.63672L13.9063 6.97527L16.2213 6.53253L15.0862 8.59723L17.218 9.59998Z" fill="#FFDA44"/>
<path d="M0 12C0 18.6274 5.37262 24 12 24L2.39981 4.79956C0.893062 6.80529 0 9.29825 0 12Z" fill="#A2001D"/>
<path d="M12 24C18.6274 24 24 18.6274 24 12C24 9.29825 23.1069 6.80529 21.6002 4.79956L12 24Z" fill="#A2001D"/>
</g>
<defs>
<clipPath id="clip0_4810_260244">
<rect width="24" height="24" fill="white"/>
</clipPath>
</defs>
</svg>
