<svg width="24" height="24" viewBox="0 0 24 24" fill="none" xmlns="http://www.w3.org/2000/svg">
<g clip-path="url(#clip0_4810_260314)">
<path d="M12 24C18.6274 24 24 18.6274 24 12C24 5.37258 18.6274 0 12 0C5.37258 0 0 5.37258 0 12C0 18.6274 5.37258 24 12 24Z" fill="#F0F0F0"/>
<path d="M12.0009 24.0001C15.638 24.0001 18.8969 22.3818 21.0975 19.8262H2.9043C5.10494 22.3818 8.36383 24.0001 12.0009 24.0001Z" fill="#0052B4"/>
<path d="M24 12C24 5.37262 18.6274 0 12 0C5.37262 0 0 5.37262 0 12C0 13.0831 0.144375 14.1323 0.413391 15.1305H23.5867C23.8556 14.1323 24 13.0831 24 12Z" fill="#0052B4"/>
<path d="M0.953125 16.6956C1.18445 17.2391 1.45488 17.7619 1.76064 18.2608H22.2381C22.5438 17.7618 22.8142 17.2391 23.0456 16.6956H0.953125Z" fill="#D80027"/>
<path d="M8.57675 12.7827L8.771 13.3806H9.39964L8.89109 13.7501L9.08534 14.3479L8.57675 13.9784L8.06816 14.3479L8.26245 13.7501L7.75391 13.3806H8.38255L8.57675 12.7827Z" fill="#FFDA44"/>
<path d="M8.57675 20.6089L8.771 21.2068H9.39964L8.89109 21.5762L9.08534 22.1741L8.57675 21.8046L8.06816 22.1741L8.26245 21.5762L7.75391 21.2068H8.38255L8.57675 20.6089Z" fill="#FFDA44"/>
<path d="M4.93417 17.9622L5.12842 18.56H5.75706L5.24852 18.9294L5.44277 19.5274L4.93417 19.1578L4.42558 19.5274L4.61992 18.9294L4.11133 18.56H4.73992L4.93417 17.9622Z" fill="#FFDA44"/>
<path d="M6.32484 13.5652L6.51909 14.1631H7.14769L6.63919 14.5325L6.83344 15.1304L6.32484 14.7609L5.81625 15.1304L6.01059 14.5325L5.50195 14.1631H6.13059L6.32484 13.5652Z" fill="#FFDA44"/>
<path d="M4.11133 16.0274L4.73983 16.0274L4.93413 15.4294L5.12842 16.0274L5.75706 16.0273L5.24847 16.3968L5.44277 16.9947L4.93413 16.6252L4.42558 16.9946L4.61983 16.3968L4.11133 16.0274Z" fill="#FFDA44"/>
<path d="M5.81634 21.2773L6.01059 20.6795L5.50195 20.31H6.13059L6.32489 19.7122L6.51919 20.31H7.14778L6.63919 20.6795L6.83344 21.2774L6.32484 20.9078L5.81634 21.2773Z" fill="#FFDA44"/>
<path d="M12.2193 17.9622L12.0251 18.56H11.3965L11.905 18.9294L11.7107 19.5274L12.2193 19.1578L12.7279 19.5274L12.5336 18.9294L13.0422 18.56H12.4136L12.2193 17.9622Z" fill="#FFDA44"/>
<path d="M10.8268 13.5652L10.6325 14.1631H10.0039L10.5124 14.5325L10.3182 15.1304L10.8268 14.7609L11.3353 15.1304L11.141 14.5325L11.6496 14.1631H11.021L10.8268 13.5652Z" fill="#FFDA44"/>
<path d="M13.0422 16.0274L12.4137 16.0274L12.2194 15.4294L12.0251 16.0274L11.3965 16.0273L11.905 16.3968L11.7107 16.9947L12.2194 16.6252L12.7279 16.9946L12.5337 16.3968L13.0422 16.0274Z" fill="#FFDA44"/>
<path d="M11.3353 21.2773L11.1411 20.6795L11.6497 20.31H11.0211L10.8268 19.7122L10.6325 20.31H10.0039L10.5125 20.6795L10.3183 21.2774L10.8268 20.9078L11.3353 21.2773Z" fill="#FFDA44"/>
</g>
<defs>
<clipPath id="clip0_4810_260314">
<rect width="24" height="24" fill="white"/>
</clipPath>
</defs>
</svg>
