<svg width="24" height="24" viewBox="0 0 24 24" fill="none" xmlns="http://www.w3.org/2000/svg">
<g clip-path="url(#clip0_4810_260335)">
<path d="M3.51471 20.4853C-1.17157 15.799 -1.17157 8.20106 3.51471 3.51473C8.20099 -1.1716 15.799 -1.17155 20.4853 3.51473C20.4853 3.51637 23.6713 14.2987 18.985 18.985C14.2988 23.6714 3.51799 20.4886 3.51471 20.4853Z" fill="#FFDA44"/>
<path d="M3.51562 20.4852C8.20191 25.1715 15.7999 25.1715 20.4862 20.4852C25.1726 15.7989 25.1725 8.20098 20.4862 3.51465L3.51562 20.4852Z" fill="#FF9811"/>
<path d="M18.7877 6.78253V4.69556H14.7875L14.4819 5.00113C13.3949 6.08812 13.5778 7.35618 13.7113 8.28206C13.8351 9.14095 13.85 9.46996 13.5305 9.78942C13.2111 10.1088 12.882 10.094 12.0232 9.97007C11.0974 9.83662 9.82934 9.65376 8.74236 10.7407C7.65542 11.8276 7.83837 13.0956 7.97197 14.0214C8.09586 14.8802 8.11077 15.2092 7.79145 15.5285C7.47209 15.8478 7.14298 15.8329 6.28437 15.709C5.94959 15.6607 5.60342 15.6108 5.23386 15.6067L5.21094 17.6936C5.44222 17.6961 5.70655 17.7342 5.98639 17.7746C6.3177 17.8225 6.6927 17.8766 7.08767 17.8766C7.49698 17.8766 7.92758 17.8182 8.35283 17.6346V19.3043H11.4833V17.7391H9.91808V16.6956H10.9616V15.1304H10.1276C10.1671 14.6241 10.0976 14.1392 10.0376 13.7235C9.91367 12.8647 9.89877 12.5357 10.2181 12.2165C10.5375 11.8971 10.8665 11.9119 11.7254 12.0358C12.4001 12.133 13.2564 12.2559 14.092 11.8952V13.5652H17.2225V12H15.6573V10.9565H16.7008V9.39131H15.8668C15.9064 8.88492 15.8369 8.40009 15.7769 7.98426C15.6904 7.38421 15.657 7.04278 15.7538 6.78257L18.7877 6.78253Z" fill="#F0F0F0"/>
</g>
<defs>
<clipPath id="clip0_4810_260335">
<rect width="24" height="24" fill="white"/>
</clipPath>
</defs>
</svg>
