<svg width="24" height="24" viewBox="0 0 24 24" fill="none" xmlns="http://www.w3.org/2000/svg">
<g clip-path="url(#clip0_4810_260339)">
<path d="M12 24C18.6274 24 24 18.6274 24 12C24 5.37258 18.6274 0 12 0C5.37258 0 0 5.37258 0 12C0 18.6274 5.37258 24 12 24Z" fill="#F0F0F0"/>
<path d="M21.9999 13.4361C20.9999 13.4361 20.9999 12.5217 19.9998 12.5217C18.9999 12.5217 18.9999 13.4361 17.9999 13.4361C17 13.4361 16.9999 12.5217 16 12.5217C15 12.5217 15 13.4361 14 13.4361C13 13.4361 12.9999 12.5217 11.9998 12.5217C10.9998 12.5217 10.9998 13.4361 9.99991 13.4361C9.00006 13.4361 9.00006 12.5217 8.00008 12.5217C7 12.5217 7 13.4361 5.99992 13.4361C4.99984 13.4361 4.99984 12.5217 3.99977 12.5217C2.99992 12.5217 2.99992 13.4361 1.99994 13.4361C1.00534 13.4361 0.999578 12.5318 0.015625 12.5222C0.0433281 13.071 0.108859 13.6099 0.207953 14.1369C1.00502 14.254 1.07481 15.036 2.00003 15.036C3.00002 15.036 3.00002 14.1218 3.99986 14.1218C4.99994 14.1218 4.99994 15.036 6.00002 15.036C7.00009 15.036 7.00009 14.1218 8.00017 14.1218C9.00016 14.1218 9.00016 15.036 10 15.036C11 15.036 11 14.1218 11.9999 14.1218C13 14.1218 13 15.036 14.0001 15.036C15.0002 15.036 15.0002 14.1218 16.0001 14.1218C17.0001 14.1218 17.0001 15.036 18 15.036C19 15.036 19 14.1218 19.9999 14.1218C21 14.1218 21 15.036 22 15.036C22.9252 15.036 22.995 14.254 23.7921 14.1369C23.8913 13.6099 23.9567 13.0711 23.9845 12.5222C23.0004 12.5319 22.9945 13.4361 21.9999 13.4361Z" fill="#0052B4"/>
<path d="M19.9993 15.6521C18.9993 15.6521 18.9993 16.5664 17.9994 16.5664C16.9994 16.5664 16.9994 15.6521 15.9995 15.6521C14.9995 15.6521 14.9995 16.5664 13.9994 16.5664C12.9994 16.5664 12.9994 15.6521 11.9993 15.6521C10.9993 15.6521 10.9993 16.5664 9.99936 16.5664C8.99952 16.5664 8.99952 15.6521 7.99953 15.6521C6.99945 15.6521 6.99945 16.5664 5.99937 16.5664C4.9993 16.5664 4.9993 15.6521 3.99922 15.6521C2.99938 15.6521 2.99937 16.5664 1.99939 16.5664C1.26275 16.5664 1.06827 16.0706 0.617188 15.8094C0.890375 16.6259 1.2492 17.4031 1.68256 18.1308C1.77641 18.1534 1.88075 18.1664 1.99934 18.1664C2.99933 18.1664 2.99933 17.2522 3.99917 17.2522C4.99925 17.2522 4.99925 18.1664 5.99933 18.1664C6.99941 18.1664 6.99941 17.2522 7.99949 17.2522C8.99947 17.2522 8.99947 18.1664 9.99931 18.1664C10.9993 18.1664 10.9993 17.2522 11.9992 17.2522C12.9993 17.2522 12.9993 18.1664 13.9994 18.1664C14.9995 18.1664 14.9995 17.2522 15.9994 17.2522C16.9994 17.2522 16.9994 18.1664 17.9993 18.1664C18.9993 18.1664 18.9993 17.2522 19.9992 17.2522C20.9993 17.2522 20.9993 18.1664 21.9993 18.1664C22.118 18.1664 22.2224 18.1534 22.3163 18.1307C22.7497 17.4031 23.1085 16.6259 23.3816 15.8095C22.9305 16.0706 22.736 16.5665 21.9993 16.5665C20.9994 16.5664 20.9994 15.6521 19.9993 15.6521Z" fill="#0052B4"/>
<path d="M23.7211 9.41915C22.9902 9.57089 22.897 10.3057 22.0002 10.3057C21.0002 10.3057 21.0002 9.39136 20.0002 9.39136C19.0002 9.39136 19.0002 10.3057 18.0002 10.3057C17.0003 10.3057 17.0003 9.39136 16.0003 9.39136C15.0003 9.39136 15.0003 10.3057 14.0003 10.3057C13.0003 10.3057 13.0002 9.39136 12.0001 9.39136C11.4598 9.39136 11.2114 9.65826 10.9395 9.9037V11.5037C11.2114 11.2583 11.4598 10.9914 12.0001 10.9914C13.0002 10.9914 13.0002 11.9057 14.0003 11.9057C15.0004 11.9057 15.0004 10.9914 16.0003 10.9914C17.0003 10.9914 17.0003 11.9057 18.0002 11.9057C19.0002 11.9057 19.0002 10.9914 20.0002 10.9914C21.0002 10.9914 21.0002 11.9057 22.0002 11.9057C22.9254 11.9057 22.9952 11.1237 23.7923 11.0066C23.8434 11.0066 23.9005 11.0061 23.959 11.0054C23.9147 10.4657 23.8345 9.93623 23.7211 9.41915Z" fill="#0052B4"/>
<path d="M22.8445 6.85648C22.6373 7.03052 22.3978 7.17509 22.0002 7.17509C21.0002 7.17509 21.0002 6.26074 20.0002 6.26074C19.0002 6.26074 19.0002 7.17509 18.0002 7.17509C17.0003 7.17509 17.0003 6.26074 16.0003 6.26074C15.0003 6.26074 15.0003 7.17509 14.0003 7.17509C13.0003 7.17509 13.0002 6.26074 12.0001 6.26074C11.4598 6.26074 11.2114 6.52765 10.9395 6.77309V8.37307C11.2114 8.12768 11.4598 7.86082 12.0001 7.86082C13.0002 7.86082 13.0002 8.77507 14.0003 8.77507C15.0003 8.77507 15.0003 7.86082 16.0003 7.86082C17.0003 7.86082 17.0002 8.77507 18.0002 8.77507C19.0001 8.77507 19.0001 7.86082 20.0001 7.86082C21.0002 7.86082 21.0002 8.77507 22.0001 8.77507C22.7097 8.77507 22.9163 8.31546 23.3335 8.04818C23.1914 7.64051 23.0281 7.24277 22.8445 6.85648Z" fill="#0052B4"/>
<path d="M20.0856 3.13281C20.0579 3.13131 20.0296 3.13037 20.0002 3.13037C19.0002 3.13037 19.0002 4.04471 18.0003 4.04471C17.0003 4.04471 17.0003 3.13037 16.0004 3.13037C15.0004 3.13037 15.0004 4.04471 14.0003 4.04471C13.0002 4.04471 13.0002 3.13037 12.0001 3.13037C11.4598 3.13037 11.2114 3.39728 10.9395 3.64271V5.2427C11.2114 4.99731 11.4598 4.73045 12.0001 4.73045C13.0002 4.73045 13.0002 5.6447 14.0003 5.6447C15.0004 5.6447 15.0004 4.73045 16.0003 4.73045C17.0003 4.73045 17.0003 5.6447 18.0002 5.6447C19.0002 5.6447 19.0002 4.73045 20.0002 4.73045C21.0002 4.73045 21.0002 5.6447 22.0002 5.6447C22.0618 5.6447 22.1193 5.64104 22.1737 5.63453C21.5929 4.70809 20.8896 3.86636 20.0856 3.13281Z" fill="#0052B4"/>
<path d="M15.0678 0.396188C14.7933 0.643125 14.5453 0.914344 14.0006 0.914344C13.0005 0.914344 13.0005 9.375e-05 12.0005 0H12.0003C11.4832 4.6875e-05 11.2335 0.244594 10.9746 0.480797V2.08083C11.2335 1.84463 11.4833 1.60003 12.0005 1.60003C13.0006 1.60003 13.0006 2.51428 14.0007 2.51428C15.0007 2.51428 15.0007 1.60003 16.0007 1.60003C17.0007 1.60003 17.0007 2.51428 18.0006 2.51428C18.4202 2.51428 18.6636 2.35322 18.8788 2.16637C17.7381 1.36692 16.4519 0.761016 15.0678 0.396188Z" fill="#0052B4"/>
<path d="M13.9993 22.8275C12.9992 22.8275 12.9992 21.9131 11.9992 21.9131C10.9992 21.9131 10.9992 22.8275 9.99923 22.8275C8.99939 22.8275 8.99939 21.9131 7.99941 21.9131C7.23342 21.9131 7.05375 22.4491 6.5625 22.7003C7.91719 23.39 9.42033 23.8296 11.0113 23.9593C11.2573 23.7345 11.5072 23.5132 11.9992 23.5132C12.4912 23.5132 12.7411 23.7345 12.9872 23.9594C14.5782 23.8297 16.0815 23.39 17.4362 22.7003C16.9448 22.4492 16.7652 21.9131 15.9993 21.9131C14.9994 21.9131 14.9994 22.8275 13.9993 22.8275Z" fill="#0052B4"/>
<path d="M18.0003 19.6971C17.0003 19.6971 17.0003 18.7827 16.0003 18.7827C15.0004 18.7827 15.0004 19.6971 14.0003 19.6971C13.0003 19.6971 13.0003 18.7827 12.0002 18.7827C11.0002 18.7827 11.0002 19.6971 10.0003 19.6971C9.00041 19.6971 9.00041 18.7827 8.00042 18.7827C7.00034 18.7827 7.00034 19.6971 6.00027 19.6971C5.00019 19.6971 5.00019 18.7827 4.00011 18.7827C3.281 18.7827 3.07906 19.2557 2.65039 19.5212C2.91908 19.8549 3.20473 20.1743 3.50703 20.4771C3.64245 20.4193 3.80136 20.3827 4.00006 20.3827C5.00014 20.3827 5.00014 21.297 6.00022 21.297C7.0003 21.297 7.0003 20.3827 8.00038 20.3827C9.00036 20.3827 9.00036 21.297 10.0002 21.297C11.0002 21.297 11.0002 20.3827 12.0001 20.3827C13.0002 20.3827 13.0002 21.297 14.0003 21.297C15.0004 21.297 15.0004 20.3827 16.0003 20.3827C17.0002 20.3827 17.0003 21.297 18.0002 21.297C19.0002 21.297 19.0002 20.3827 20.0001 20.3827C20.1991 20.3827 20.358 20.4193 20.4935 20.4772C20.7958 20.1743 21.0815 19.8549 21.3502 19.5213C20.9215 19.2558 20.7195 18.7828 20.0002 18.7828C19.0002 18.7827 19.0002 19.6971 18.0003 19.6971Z" fill="#0052B4"/>
<path d="M11.9688 11.9999H12.0009C12.0009 11.9891 12.0009 11.9786 12.0009 11.9678C11.9902 11.9785 11.9795 11.9892 11.9688 11.9999Z" fill="#F0F0F0"/>
<path d="M12.0001 6.26098V9.78659L7.82617 5.73926L12.0001 6.26098Z" fill="#0052B4"/>
<path d="M6.26005 12.0001H9.78552L6.26 7.30444L5.73828 10.9566L6.26005 12.0001Z" fill="#0052B4"/>
<path d="M12 6.26086C12 4.14938 12 2.76586 12 0H11.998C5.3715 0.001125 0 5.37323 0 12H6.26091V8.47448L9.78638 12H11.9679C11.9786 11.9893 11.9893 11.9786 12 11.9679C12 11.1594 12 10.4381 12 9.78647L8.47444 6.26086H12Z" fill="#F0F0F0"/>
<path d="M6.07027 1.56519C4.19344 2.63389 2.63316 4.19417 1.56445 6.071V12H4.69491V4.69573V4.69564H11.9993C11.9993 3.70831 11.9993 2.76772 11.9993 1.56519H6.07027Z" fill="#D80027"/>
<path d="M11.9989 10.5244L7.73539 6.26099H6.25977V6.26108L11.9988 12.0001H11.9989C11.9989 12.0001 11.9989 10.9826 11.9989 10.5244Z" fill="#D80027"/>
<path d="M15.6523 6.26074H20.348L18.0002 8.60857L15.6523 6.26074Z" fill="#6DA544"/>
<path d="M17.4785 8.08691H18.522V10.9565H17.4785V8.08691Z" fill="#A2001D"/>
<path d="M17.4785 15.6521H18.522V18.5216H17.4785V15.6521Z" fill="#A2001D"/>
<path d="M21.13 14.087C21.13 13.2226 20.4292 12.5218 19.5648 12.5218C19.1638 12.5218 18.7983 12.6727 18.5213 12.9206V12H19.043V10.9565H18.5213V10.4348H17.4778V10.9565H16.9561V12H17.4778V12.9206C17.2008 12.6727 16.8353 12.5218 16.4343 12.5218C15.5699 12.5218 14.8691 13.2226 14.8691 14.087C14.8691 14.5504 15.0708 14.9667 15.3909 15.2533V16.174H20.6082V15.2533C20.9284 14.9667 21.13 14.5504 21.13 14.087Z" fill="#FFDA44"/>
<path d="M19.5642 13.5652C19.3997 13.5652 19.2844 13.6375 19.2167 13.698L18.5208 14.321H17.4773L16.7814 13.698C16.7136 13.6375 16.5984 13.5652 16.4338 13.5652C16.1462 13.5652 15.9121 13.7992 15.9121 14.0869C15.9121 14.2895 16.0214 14.4176 16.0865 14.4759L16.4339 14.787V15.1304H19.5643V14.787L19.9117 14.4759C19.9768 14.4176 20.0861 14.2895 20.0861 14.0869C20.086 13.7992 19.852 13.5652 19.5642 13.5652Z" fill="#D80027"/>
</g>
<defs>
<clipPath id="clip0_4810_260339">
<rect width="24" height="24" fill="white"/>
</clipPath>
</defs>
</svg>
