<svg width="24" height="24" viewBox="0 0 24 24" fill="none" xmlns="http://www.w3.org/2000/svg">
<g clip-path="url(#clip0_4810_260418)">
<path d="M12 24C18.6274 24 24 18.6274 24 12C24 5.37258 18.6274 0 12 0C5.37258 0 0 5.37258 0 12C0 18.6274 5.37258 24 12 24Z" fill="#FCFCFC"/>
<path d="M16.1776 10.164C16.1776 7.62599 14.1201 5.5686 11.5822 5.5686C9.70934 5.5686 8.09933 6.68939 7.38345 8.29645L6.81669 10.3512L7.33841 10.8729L6.29492 12.9599L7.33841 13.4816L6.81669 14.0033V14.5251L7.33841 15.0468V16.0903L7.86013 16.612L9.42533 16.0903C9.42533 16.0903 9.42533 16.612 9.94705 17.1337C10.4688 17.6555 10.9906 18.699 10.9906 18.699C10.9906 18.699 12.5558 19.2207 13.5993 17.6555C14.6428 16.0903 15.6862 15.5685 15.6862 15.5685L14.6805 13.5569C15.6003 12.7168 16.1776 11.508 16.1776 10.164Z" fill="black"/>
<path d="M16.552 11.9213C18.6721 11.5636 19.0253 7.41211 19.0253 7.41211H16.1036C17.6166 11.0643 16.0329 11.31 16.0329 11.31C15.8184 11.1503 8.14034 7.51303 7.89697 7.42055C7.83833 7.49902 7.62247 7.70512 7.36006 8.34684C7.09761 8.98856 7.0332 9.56588 7.0332 9.56588C7.15611 9.64598 15.3102 12.4932 15.5257 12.5169C15.9534 12.7966 16.4797 13.6329 16.1856 16.1125L18.9978 15.3199C18.9979 15.3199 18.0435 12.781 16.552 11.9213Z" fill="#ACABB1"/>
</g>
<defs>
<clipPath id="clip0_4810_260418">
<rect width="24" height="24" fill="white"/>
</clipPath>
</defs>
</svg>
