<svg width="24" height="24" viewBox="0 0 24 24" fill="none" xmlns="http://www.w3.org/2000/svg">
<g clip-path="url(#clip0_4810_260422)">
<path d="M24 12C24 18.6274 18.6274 24 12 24C5.37262 24 0 18.6274 0 12C0 12.0029 12 0.0013125 12 0C18.6274 0 24 5.37262 24 12Z" fill="#0052B4"/>
<path d="M11.9688 11.9999H12.0009C12.0009 11.9891 12.0009 11.9786 12.0009 11.9678C11.9902 11.9785 11.9795 11.9892 11.9688 11.9999Z" fill="#F0F0F0"/>
<path d="M12 6.26086C12 4.14938 12 2.76586 12 0H11.998C5.37145 0.001125 0 5.37323 0 12H6.26086V8.47448L9.78638 12H11.9679C11.9786 11.9893 11.9893 11.9786 12 11.9679C12 11.1594 12 10.4381 12 9.78647L8.47444 6.26086H12Z" fill="#F0F0F0"/>
<path d="M6.07027 1.56519C4.19344 2.63389 2.63311 4.19417 1.56445 6.071V12H4.69491V4.69573V4.69564H11.9993C11.9993 3.70831 11.9993 2.76772 11.9993 1.56519H6.07027Z" fill="#D80027"/>
<path d="M11.9989 10.5244L7.73539 6.26099H6.25977V6.26108L11.9988 12.0001H11.9989C11.9989 12.0001 11.9989 10.9826 11.9989 10.5244Z" fill="#D80027"/>
<path d="M20.2933 13.7566C20.6383 13.2819 20.8688 12.7021 20.8688 12V6.78266C20.4328 7.11022 19.8909 7.30438 19.3036 7.30438C18.4502 7.30438 17.6925 6.89455 17.2166 6.26099C16.7407 6.89455 15.983 7.30438 15.1297 7.30438C14.5423 7.30438 14.0004 7.11017 13.5645 6.78275V12C13.5645 12.7021 13.7949 13.2819 14.14 13.7566H20.2933Z" fill="#F3F3F3"/>
<path d="M19.208 11.0321C19.3741 10.6269 19.5033 10.0345 19.5033 9.73971C19.5033 9.26603 18.8858 8.88208 18.8858 8.88208C18.8858 8.88208 18.2682 9.26603 18.2682 9.73971C18.2682 10.0345 18.3975 10.6269 18.5635 11.0321L18.207 11.837C18.4166 11.9223 18.6456 11.9696 18.8858 11.9696C19.1261 11.9696 19.355 11.9222 19.5646 11.837L19.208 11.0321Z" fill="#FF9811"/>
<path d="M16.7946 8.42598C16.3607 8.48477 15.783 8.66922 15.5278 8.81659C15.1176 9.05345 15.0938 9.78016 15.0938 9.78016C15.0938 9.78016 15.7351 10.123 16.1452 9.88614C16.4006 9.73872 16.8489 9.33072 17.1167 8.98422L17.9922 8.89047C17.9612 8.6665 17.8875 8.44445 17.7675 8.23647C17.6474 8.02848 17.492 7.85373 17.3134 7.71484L16.7946 8.42598Z" fill="#FF9811"/>
<path d="M15.7445 11.8195C16.0123 12.1658 16.4608 12.5737 16.7162 12.7212C17.1264 12.958 17.7677 12.6153 17.7677 12.6153C17.7677 12.6153 17.7437 11.8885 17.3336 11.6517C17.0782 11.5042 16.5007 11.32 16.0667 11.2613L15.5479 10.55C15.3694 10.6889 15.214 10.8637 15.0938 11.0715C14.9738 11.2796 14.9003 11.5016 14.8691 11.7257L15.7445 11.8195Z" fill="#FF9811"/>
<path d="M14.0117 13.5654C14.9862 15.1289 17.2175 15.6523 17.2175 15.6523C17.2175 15.6523 19.4487 15.1289 20.4232 13.5654H14.0117Z" fill="#338AF3"/>
</g>
<defs>
<clipPath id="clip0_4810_260422">
<rect width="24" height="24" fill="white"/>
</clipPath>
</defs>
</svg>
