<svg width="24" height="24" viewBox="0 0 24 24" fill="none" xmlns="http://www.w3.org/2000/svg">
<g clip-path="url(#clip0_4810_260448)">
<path d="M12 24C18.6274 24 24 18.6274 24 12C24 5.37258 18.6274 0 12 0C5.37258 0 0 5.37258 0 12C0 18.6274 5.37258 24 12 24Z" fill="#F0F0F0"/>
<path d="M12.0009 0C8.6872 0 5.6872 1.34316 3.51562 3.51469L12.0009 12V0Z" fill="black"/>
<path d="M0 12C0 15.3137 1.34316 18.3137 3.51469 20.4853L12 12H0Z" fill="black"/>
<path d="M12 24C15.3137 24 18.3137 22.6568 20.4853 20.4853L12 12V24Z" fill="black"/>
<path d="M24 12C24 8.68623 22.6568 5.68623 20.4853 3.51465L12 12H24Z" fill="black"/>
<path d="M7.82617 8.34777L12.0001 8.86963L16.174 8.34777V5.84342L14.5044 6.67822L12.0001 4.17383L9.49572 6.67822L7.82617 5.84342V8.34777Z" fill="#FFDA44"/>
<path d="M12.0001 18.2608C9.69855 18.2608 7.82617 16.3884 7.82617 14.0869V9.91324L9.39138 8.3479H14.6088L16.174 9.91324V14.0869C16.174 16.3884 14.3016 18.2608 12.0001 18.2608Z" fill="#D80027"/>
<path d="M11.9993 16.6956C10.5609 16.6956 9.39062 15.5253 9.39062 14.0869V9.91309H14.608V14.0869C14.608 15.5253 13.4378 16.6956 11.9993 16.6956Z" fill="#F0F0F0"/>
<path d="M7.82617 8.3479H9.39138V9.9131H7.82617V8.3479Z" fill="#FFDA44"/>
<path d="M14.6094 8.3479H16.1746V9.9131H14.6094V8.3479Z" fill="#FFDA44"/>
<path d="M14.6094 11.7393H16.1746V13.3045H14.6094V11.7393Z" fill="#FFDA44"/>
<path d="M7.82617 11.7393H9.39138V13.3045H7.82617V11.7393Z" fill="#FFDA44"/>
<path d="M11.9994 16.6958C11.7268 16.6958 11.464 16.6536 11.2168 16.5757V18.1864C11.4705 18.2347 11.7319 18.261 11.9994 18.261C12.267 18.261 12.5284 18.2347 12.782 18.1864V16.5757C12.5349 16.6535 12.272 16.6958 11.9994 16.6958Z" fill="#FFDA44"/>
<path d="M9.42686 14.5105L8.17773 15.7596C8.3943 16.2527 8.7033 16.6961 9.08308 17.0678L10.1893 15.9616C9.79455 15.5801 9.51953 15.0758 9.42686 14.5105Z" fill="#FFDA44"/>
<path d="M15.8221 15.7596L14.573 14.5105C14.4802 15.0757 14.2053 15.58 13.8105 15.9616L14.9168 17.0679C15.2965 16.6961 15.6055 16.2527 15.8221 15.7596Z" fill="#FFDA44"/>
<path d="M11.4766 10.7827V11.6522C11.4766 11.9403 11.7101 12.174 11.9983 12.174C12.2864 12.174 12.52 11.9403 12.52 11.6522V10.7827H11.4766Z" fill="#0052B4"/>
<path d="M11.4766 14.261V15.1305C11.4766 15.4186 11.7101 15.6522 11.9983 15.6522C12.2864 15.6522 12.52 15.4186 12.52 15.1305V14.261H11.4766Z" fill="#0052B4"/>
<path d="M13.043 12.5217V13.3914C13.043 13.6794 13.2765 13.9131 13.5647 13.9131C13.8528 13.9131 14.0864 13.6794 14.0864 13.3914V12.5217H13.043Z" fill="#0052B4"/>
<path d="M11.4766 12.5217V13.3914C11.4766 13.6794 11.7101 13.9131 11.9983 13.9131C12.2864 13.9131 12.52 13.6794 12.52 13.3914V12.5217H11.4766Z" fill="#0052B4"/>
<path d="M9.91211 12.5217V13.3914C9.91211 13.6794 10.1457 13.9131 10.4338 13.9131C10.722 13.9131 10.9555 13.6794 10.9555 13.3914V12.5217H9.91211Z" fill="#0052B4"/>
</g>
<defs>
<clipPath id="clip0_4810_260448">
<rect width="24" height="24" fill="white"/>
</clipPath>
</defs>
</svg>
