<svg width="24" height="24" viewBox="0 0 24 24" fill="none" xmlns="http://www.w3.org/2000/svg">
<g clip-path="url(#clip0_4810_260471)">
<path d="M20.4853 20.4852C15.799 25.1715 8.20104 25.1715 3.51472 20.4852C-1.1716 15.799 -1.17155 8.20097 3.51472 3.51465C3.88363 3.88351 13.1068 10.8931 13.1068 10.8931L20.4853 20.4852Z" fill="#0052B4"/>
<path d="M3.51562 3.5147C8.2019 -1.17157 15.7999 -1.17157 20.4862 3.5147C25.1725 8.20098 25.1725 15.799 20.4862 20.4853" fill="#6DA544"/>
<path d="M11.9996 15.1305C13.7285 15.1305 15.13 13.729 15.13 12.0001C15.13 10.2712 13.7285 8.86963 11.9996 8.86963C10.2707 8.86963 8.86914 10.2712 8.86914 12.0001C8.86914 13.729 10.2707 15.1305 11.9996 15.1305Z" fill="#FFDA44"/>
<path d="M4.46876 17.2175L4.79806 17.9061L5.54164 17.7342L5.20864 18.4209L5.80667 18.8952L5.06211 19.0629L5.06417 19.8262L4.46876 19.3487L3.87336 19.8262L3.87542 19.0629L3.13086 18.8952L3.72889 18.4209L3.39584 17.7342L4.13947 17.9061L4.46876 17.2175Z" fill="#F0F0F0"/>
<path d="M2.31442 11.4783L2.64372 12.1668L3.38729 11.9949L3.05434 12.6817L3.65228 13.1559L2.90776 13.3237L2.90982 14.087L2.31442 13.6095L1.71906 14.087L1.72108 13.3237L0.976562 13.1559L1.57455 12.6817L1.24155 11.9949L1.98512 12.1668L2.31442 11.4783Z" fill="#F0F0F0"/>
<path d="M4.46872 6.78271L4.79801 7.47126L5.54159 7.29932L5.20864 7.98613L5.80662 8.46037L5.06206 8.62813L5.06412 9.3914L4.46872 8.91393L3.87331 9.3914L3.87537 8.62813L3.13086 8.46037L3.7288 7.98613L3.3958 7.29932L4.13942 7.47126L4.46872 6.78271Z" fill="#F0F0F0"/>
<path d="M7.1445 10.4348L7.47379 11.1234L8.21742 10.9514L7.88437 11.6383L8.48235 12.1125L7.73784 12.2803L7.73986 13.0435L7.1445 12.566L6.54909 13.0435L6.55115 12.2803L5.80664 12.1125L6.40458 11.6383L6.07162 10.9514L6.8152 11.1234L7.1445 10.4348Z" fill="#F0F0F0"/>
<path d="M5.22997 13.5654L5.489 14.3626H6.32712L5.64903 14.8552L5.90806 15.6523L5.22997 15.1597L4.55187 15.6523L4.81091 14.8552L4.13281 14.3626H4.97094L5.22997 13.5654Z" fill="#F0F0F0"/>
<path d="M12.0009 14.087H13.0444C13.0444 14.087 13.4966 13.2871 13.0444 12.5218L14.0879 11.4783L13.5662 10.4348H13.0445C13.0445 10.4348 12.7836 11.2174 11.7401 11.2174C10.6966 11.2174 10.4358 10.4348 10.4358 10.4348H9.91406L10.4358 11.4783L9.91406 12.5218L10.4358 13.0435C10.4358 13.0435 10.9575 12 12.001 12.5218C12.0009 12.5218 12.4444 13.174 12.0009 14.087Z" fill="#6DA544"/>
<path d="M19.7888 6.57294C19.8134 6.44474 19.8265 6.31251 19.8265 6.17713C19.8265 5.24901 19.2205 4.46287 18.3828 4.19165C18.6387 4.71196 18.783 5.29715 18.783 5.91627C18.783 6.12505 18.7662 6.3299 18.7347 6.52982C18.6086 6.32671 18.4467 6.14113 18.2488 5.98368C17.5034 5.39062 16.4849 5.37491 15.7318 5.87437C16.3132 6.0013 16.8754 6.25935 17.3726 6.65493C17.7618 6.96468 18.0763 7.38364 18.3172 7.78808L15.1309 8.78581C18.2613 9.30753 20.87 7.22061 20.87 7.22061C20.5809 6.64255 20.132 6.54505 19.7888 6.57294Z" fill="#FFDA44"/>
</g>
<defs>
<clipPath id="clip0_4810_260471">
<rect width="24" height="24" fill="white"/>
</clipPath>
</defs>
</svg>
