<svg width="24" height="24" viewBox="0 0 24 24" fill="none" xmlns="http://www.w3.org/2000/svg">
<g clip-path="url(#clip0_4810_260513)">
<path d="M12 24C18.6274 24 24 18.6274 24 12C24 5.37258 18.6274 0 12 0C5.37258 0 0 5.37258 0 12C0 18.6274 5.37258 24 12 24Z" fill="#D80027"/>
<path d="M19.0926 9.84834H13.6738L12.0004 4.69678L10.327 9.84834H4.9082L9.29102 13.0312L7.61758 18.1827L12.0004 14.9999L16.3832 18.1827L14.7098 13.0312L19.0926 9.84834ZM10.5191 12.6327L11.0863 10.889H12.9191L13.4863 12.6327L12.0051 13.7108L10.5191 12.6327ZM12.577 9.84834H11.4238L12.0004 8.07178L12.577 9.84834ZM14.3723 11.9905L14.016 10.8937H15.8816L14.3723 11.9905ZM9.98945 10.8937L9.6332 11.9905L8.12383 10.8937H9.98945ZM9.60039 15.4546L10.177 13.678L11.1098 14.3577L9.60039 15.4546ZM12.8863 14.3577L13.8191 13.678L14.3957 15.4546L12.8863 14.3577Z" fill="#6DA544"/>
</g>
<defs>
<clipPath id="clip0_4810_260513">
<rect width="24" height="24" fill="white"/>
</clipPath>
</defs>
</svg>
