<svg width="24" height="24" viewBox="0 0 24 24" fill="none" xmlns="http://www.w3.org/2000/svg">
<g clip-path="url(#clip0_4810_260516)">
<path d="M24 12C24 18.6274 18.6274 24 12 24C5.37262 24 0 18.6274 0 12C4.12172 7.87828 7.61737 4.38263 12 0C18.6274 0 24 5.37262 24 12Z" fill="#D80027"/>
<path d="M12 12C12 5.37262 12 4.59131 12 0C5.37262 0 0 5.37262 0 12H12Z" fill="#0052B4"/>
<path d="M10.435 7.02293L8.96945 7.71237L9.74983 9.13169L8.15847 8.82719L7.95677 10.4349L6.84836 9.25249L5.73986 10.4349L5.53825 8.82719L3.94684 9.1316L4.72722 7.71227L3.26172 7.02293L4.72727 6.33363L3.94684 4.91426L5.5382 5.21871L5.73991 3.61108L6.84836 4.79346L7.95681 3.61108L8.15847 5.21871L9.74988 4.91426L8.96945 6.33368L10.435 7.02293Z" fill="#F0F0F0"/>
<path d="M6.84897 9.25629C8.08263 9.25629 9.0827 8.25621 9.0827 7.02255C9.0827 5.78889 8.08263 4.78882 6.84897 4.78882C5.61531 4.78882 4.61523 5.78889 4.61523 7.02255C4.61523 8.25621 5.61531 9.25629 6.84897 9.25629Z" fill="#0052B4"/>
<path d="M6.84841 8.21302C6.19211 8.21302 5.6582 7.67907 5.6582 7.02277C5.6582 6.36647 6.19216 5.83252 6.84841 5.83252C7.5047 5.83252 8.03866 6.36647 8.03866 7.02277C8.03861 7.67907 7.50461 8.21302 6.84841 8.21302Z" fill="#F0F0F0"/>
</g>
<defs>
<clipPath id="clip0_4810_260516">
<rect width="24" height="24" fill="white"/>
</clipPath>
</defs>
</svg>
