<svg width="24" height="24" viewBox="0 0 24 24" fill="none" xmlns="http://www.w3.org/2000/svg">
<g clip-path="url(#clip0_4810_260538)">
<path d="M12 24C18.6274 24 24 18.6274 24 12C24 5.37258 18.6274 0 12 0C5.37258 0 0 5.37258 0 12C0 18.6274 5.37258 24 12 24Z" fill="#F0F0F0"/>
<path d="M12.0009 0V12L3.51562 20.4853C5.6872 22.6568 8.6872 24 12.0009 24C18.6283 24 24.0009 18.6274 24.0009 12C24.0009 5.37262 12.0009 0 12.0009 0Z" fill="#D80027"/>
<path d="M12.0009 0C8.6872 0 5.6872 1.34316 3.51562 3.51469C6.45984 6.45891 7.50502 7.50412 12.0009 12H24.0009C24.0009 5.37262 18.6283 0 12.0009 0Z" fill="#0052B4"/>
<path d="M8.21625 11.9998L6.75075 11.3104L7.53117 9.89111L5.93977 10.1956L5.73811 8.58789L4.62961 9.77027L3.52116 8.58789L3.31945 10.1956L1.72809 9.89106L2.50852 11.3104L1.04297 11.9998L2.50852 12.6891L1.72809 14.1085L3.31959 13.804L3.52111 15.4117L4.62961 14.2293L5.73811 15.4117L5.93977 13.804L7.53108 14.1085L6.7507 12.6892L8.21625 11.9998Z" fill="#FFDA44"/>
<path d="M3.19984 4.69556L3.68753 5.37726L4.48652 5.12418L3.9888 5.79862L4.47648 6.48032L3.6812 6.21543L3.18353 6.88982L3.18977 6.0517L2.39453 5.78676L3.19366 5.53368L3.19984 4.69556Z" fill="#FFDA44"/>
<path d="M3.19984 17.1099L3.68753 17.7916L4.48652 17.5384L3.9888 18.2129L4.47648 18.8946L3.6812 18.6297L3.18353 19.3041L3.18977 18.466L2.39453 18.2011L3.19366 17.948L3.19984 17.1099Z" fill="#FFDA44"/>
<path d="M10.1558 10.9028L9.66817 11.5845L8.86914 11.3314L9.36686 12.0058L8.87917 12.6876L9.67445 12.4227L10.1722 13.0971L10.1659 12.259L10.9611 11.994L10.162 11.741L10.1558 10.9028Z" fill="#FFDA44"/>
</g>
<defs>
<clipPath id="clip0_4810_260538">
<rect width="24" height="24" fill="white"/>
</clipPath>
</defs>
</svg>
