<svg width="24" height="24" viewBox="0 0 24 24" fill="none" xmlns="http://www.w3.org/2000/svg">
<g clip-path="url(#clip0_4810_260547)">
<path d="M12 24C18.6274 24 24 18.6274 24 12C24 5.37258 18.6274 0 12 0C5.37258 0 0 5.37258 0 12C0 18.6274 5.37258 24 12 24Z" fill="#F0F0F0"/>
<path d="M3.51471 20.4853C-1.17157 15.7989 -1.17157 8.20098 3.51471 3.51465C3.51438 3.51516 10.4348 12 10.4348 12L3.51471 20.4853Z" fill="black"/>
<path d="M10.4341 11.9999L1.59089 6.02393C1.31672 6.5005 1.07494 6.99794 0.867188 7.51282L5.34417 11.9999L0.867328 16.4873C1.07489 17.0018 1.31644 17.4989 1.59042 17.9751L10.4341 11.9999Z" fill="#FFDA44"/>
<path d="M23.8991 10.4348H10.4352L3.51531 3.51489C2.76962 4.26058 2.12177 5.10391 1.59227 6.02411L7.55659 12L1.5918 17.9752C2.1213 18.8956 2.76944 19.7392 3.51531 20.4851L10.4352 13.5652H23.8991C23.9658 13.0529 24.0007 12.5305 24.0007 12C24.0007 11.4695 23.9658 10.9472 23.8991 10.4348Z" fill="#6DA544"/>
<path d="M4.69336 21.5192C6.71691 23.0746 9.24989 23.9999 11.9994 23.9999C17.5437 23.9999 22.209 20.2396 23.586 15.1304H11.0822L4.69336 21.5192Z" fill="#0052B4"/>
<path d="M23.586 8.86955C22.209 3.76036 17.5437 0 11.9994 0C9.24989 0 6.71691 0.925359 4.69336 2.48077L11.0821 8.86955H23.586Z" fill="#D80027"/>
</g>
<defs>
<clipPath id="clip0_4810_260547">
<rect width="24" height="24" fill="white"/>
</clipPath>
</defs>
</svg>
