<svg width="24" height="24" viewBox="0 0 24 24" fill="none" xmlns="http://www.w3.org/2000/svg">
<g clip-path="url(#clip0_4810_260585)">
<path d="M22.81 6.78262C20.869 2.76867 16.7582 0 12.0007 0C7.24316 0 3.13241 2.76867 1.19141 6.78262L12.0007 7.82611L22.81 6.78262Z" fill="#D80027"/>
<path d="M1.19141 17.2173C3.13241 21.2313 7.24316 23.9999 12.0007 23.9999C16.7582 23.9999 20.869 21.2313 22.81 17.2173L12.0007 16.1738L1.19141 17.2173Z" fill="#D80027"/>
<path d="M22.8093 6.78271H1.19072C0.427875 8.36029 0 10.1302 0 12.0001C0 13.87 0.427875 15.6399 1.19072 17.2175H22.8092C23.5722 15.6399 24 13.87 24 12.0001C24 10.1302 23.5722 8.36029 22.8093 6.78271Z" fill="#0052B4"/>
<path d="M12.0001 16.174C14.3052 16.174 16.174 14.3052 16.174 12.0001C16.174 9.69489 14.3052 7.82617 12.0001 7.82617C9.69489 7.82617 7.82617 9.69489 7.82617 12.0001C7.82617 14.3052 9.69489 16.174 12.0001 16.174Z" fill="#F0F0F0"/>
</g>
<defs>
<clipPath id="clip0_4810_260585">
<rect width="24" height="24" fill="white"/>
</clipPath>
</defs>
</svg>
