<svg width="24" height="24" viewBox="0 0 24 24" fill="none" xmlns="http://www.w3.org/2000/svg">
<g clip-path="url(#clip0_4810_260617)">
<path d="M12 24C18.6274 24 24 18.6274 24 12C24 5.37258 18.6274 0 12 0C5.37258 0 0 5.37258 0 12C0 18.6274 5.37258 24 12 24Z" fill="#F0F0F0"/>
<path d="M15.8966 8.86943H14.3265C14.3395 9.04198 14.3469 9.21607 14.3469 9.39115C14.3469 10.552 14.0567 11.6771 13.5509 12.478C13.3949 12.725 13.1326 13.0739 12.7816 13.3092V8.86938H11.2164V13.3092C10.8655 13.0739 10.6032 12.7251 10.4472 12.478C9.9413 11.6771 9.65119 10.552 9.65119 9.39115C9.65119 9.21607 9.65859 9.04193 9.67153 8.86943H8.1015C8.09142 9.04113 8.08594 9.21504 8.08594 9.39115C8.08594 12.6094 9.80475 15.1303 11.999 15.1303C14.1932 15.1303 15.912 12.6094 15.912 9.39115C15.9121 9.21504 15.9066 9.04113 15.8966 8.86943Z" fill="#D80027"/>
<path d="M4.9572 5.73914H6.52241V6.78262H8.08761V5.73914H9.65281V6.78262H11.218V5.73914H12.7832V6.78262H14.3484V5.73914H15.9136V6.78262H17.4788V5.73914H19.044V6.78262H22.8098C20.869 2.76867 16.7582 0 12.0007 0C7.2432 0 3.13241 2.76867 1.19141 6.78262H4.9572V5.73914Z" fill="#6DA544"/>
<path d="M19.0442 17.2173V18.2608H17.479V17.2173H15.9138V18.2608H14.3486V17.2173H12.7834V18.2608H11.2182V17.2173H9.65295V18.2608H8.08775V17.2173H6.52241V18.2608H4.9572V17.2173H1.19141C3.13241 21.2312 7.24316 23.9999 12.0007 23.9999C16.7582 23.9999 20.869 21.2312 22.81 17.2173H19.0442Z" fill="#D80027"/>
</g>
<defs>
<clipPath id="clip0_4810_260617">
<rect width="24" height="24" fill="white"/>
</clipPath>
</defs>
</svg>
