<svg width="24" height="24" viewBox="0 0 24 24" fill="none" xmlns="http://www.w3.org/2000/svg">
<g clip-path="url(#clip0_4810_260636)">
<path d="M12 24C18.6274 24 24 18.6274 24 12C24 5.37258 18.6274 0 12 0C5.37258 0 0 5.37258 0 12C0 18.6274 5.37258 24 12 24Z" fill="#6DA544"/>
<path d="M6.7832 14.3477C6.7832 15.2121 7.48398 15.9129 8.34841 15.9129H13.0441C13.0441 16.6332 13.628 17.2172 14.3484 17.2172H15.9136C16.634 17.2172 17.218 16.6332 17.218 15.9129V14.3477H6.7832Z" fill="#F0F0F0"/>
<path d="M17.3482 6.78247V10.4346C17.3482 11.01 16.8801 11.4781 16.3047 11.4781V13.0433C17.7431 13.0433 18.9134 11.873 18.9134 10.4346V6.78247H17.3482Z" fill="#F0F0F0"/>
<path d="M6.13138 10.4346C6.13138 11.01 5.66328 11.4781 5.08789 11.4781V13.0433C6.52634 13.0433 7.69658 11.873 7.69658 10.4346V6.78247H6.13138V10.4346Z" fill="#F0F0F0"/>
<path d="M15 6.78247H16.5652V10.4346H15V6.78247Z" fill="#F0F0F0"/>
<path d="M12.6524 8.86944C12.6524 9.0133 12.5354 9.1303 12.3915 9.1303C12.2477 9.1303 12.1307 9.01325 12.1307 8.86944V6.78247H10.5655V8.86944C10.5655 9.0133 10.4484 9.1303 10.3046 9.1303C10.1608 9.1303 10.0438 9.01325 10.0438 8.86944V6.78247H8.47852V8.86944C8.47852 9.87636 9.2977 10.6955 10.3046 10.6955C10.6924 10.6955 11.052 10.5737 11.3481 10.3667C11.6441 10.5736 12.0038 10.6955 12.3916 10.6955C12.4697 10.6955 12.5465 10.6901 12.622 10.6805C12.5111 11.1374 12.0995 11.4781 11.609 11.4781V13.0433C13.0474 13.0433 14.2177 11.873 14.2177 10.4346V8.86944V6.78247H12.6525V8.86944H12.6524Z" fill="#F0F0F0"/>
<path d="M8.47852 11.4783H10.8263V13.0435H8.47852V11.4783Z" fill="#F0F0F0"/>
</g>
<defs>
<clipPath id="clip0_4810_260636">
<rect width="24" height="24" fill="white"/>
</clipPath>
</defs>
</svg>
