<svg width="24" height="24" viewBox="0 0 24 24" fill="none" xmlns="http://www.w3.org/2000/svg">
<g clip-path="url(#clip0_4810_260666)">
<path d="M12 24C18.6274 24 24 18.6274 24 12C24 5.37258 18.6274 0 12 0C5.37258 0 0 5.37258 0 12C0 18.6274 5.37258 24 12 24Z" fill="#F0F0F0"/>
<path d="M11.4785 11.9998H24.0002C24.0002 10.9167 23.8559 9.86754 23.5868 8.86938H11.4785V11.9998Z" fill="#D80027"/>
<path d="M11.4785 5.7391H22.239C21.5044 4.54041 20.5652 3.48089 19.4701 2.60864H11.4785V5.7391Z" fill="#D80027"/>
<path d="M12.0011 24C14.8253 24 17.4211 23.0239 19.471 21.3914H4.53125C6.58114 23.0239 9.17694 24 12.0011 24Z" fill="#D80027"/>
<path d="M1.76195 18.2608H22.2394C22.8291 17.2986 23.2864 16.2467 23.5873 15.1304H0.414062C0.714859 16.2467 1.17222 17.2986 1.76195 18.2608Z" fill="#D80027"/>
<path d="M12 12C12 5.37262 12 4.59131 12 0C5.37262 0 0 5.37262 0 12H12Z" fill="#0052B4"/>
<path d="M7.97903 10.2716C6.34019 10.2716 5.01166 8.94302 5.01166 7.30422C5.01166 5.66543 6.34023 4.33685 7.97903 4.33685C8.49002 4.33685 8.97081 4.46608 9.39058 4.69352C8.73208 4.0496 7.83152 3.6521 6.83772 3.6521C4.82073 3.6521 3.18555 5.28724 3.18555 7.30427C3.18555 9.3213 4.82073 10.9564 6.83772 10.9564C7.83152 10.9564 8.73208 10.5589 9.39058 9.91502C8.97081 10.1424 8.49006 10.2716 7.97903 10.2716Z" fill="#FFDA44"/>
<path d="M8.81452 5.21729L9.34134 6.31894L10.5311 6.04407L9.9983 7.14277L10.9551 7.90153L9.76383 8.17008L9.76716 9.39122L8.81452 8.62725L7.86183 9.39122L7.86511 8.17008L6.67383 7.90153L7.63064 7.14277L7.09781 6.04407L8.28764 6.31894L8.81452 5.21729Z" fill="#FFDA44"/>
</g>
<defs>
<clipPath id="clip0_4810_260666">
<rect width="24" height="24" fill="white"/>
</clipPath>
</defs>
</svg>
