<svg width="24" height="24" viewBox="0 0 24 24" fill="none" xmlns="http://www.w3.org/2000/svg">
<g clip-path="url(#clip0_4810_260697)">
<path d="M16.1745 0.746344C14.8744 0.264047 13.4684 6.23894e-09 12.0006 6.23894e-09C10.5327 -4.68688e-05 9.12667 0.264047 7.82669 0.746344L6.7832 12L7.82669 23.2536C9.12663 23.736 10.5327 24 12.0006 24C13.4684 24 14.8745 23.736 16.1745 23.2536L17.2179 12L16.1745 0.746344Z" fill="#FFDA44"/>
<path d="M23.9999 11.9999C23.9999 6.84042 20.7434 2.44181 16.1738 0.746338V23.2537C20.7434 21.558 23.9999 17.1596 23.9999 11.9999Z" fill="#D80027"/>
<path d="M0 11.9999C0 17.1595 3.2565 21.5579 7.82602 23.2536L7.82606 0.746338C3.2565 2.44181 0 6.84027 0 11.9999Z" fill="#0052B4"/>
</g>
<defs>
<clipPath id="clip0_4810_260697">
<rect width="24" height="24" fill="white"/>
</clipPath>
</defs>
</svg>
