<svg width="24" height="24" viewBox="0 0 24 24" fill="none" xmlns="http://www.w3.org/2000/svg">
<g clip-path="url(#clip0_4810_260708)">
<path d="M24 12C24 18.6274 18.6274 24 12 24C5.37262 24 0 18.6274 0 12C0 12.0029 12 0.0013125 12 0C18.6274 0 24 5.37262 24 12Z" fill="#0052B4"/>
<path d="M11.9688 11.9999H12.0009C12.0009 11.9891 12.0009 11.9786 12.0009 11.9678C11.9902 11.9785 11.9795 11.9892 11.9688 11.9999Z" fill="#F0F0F0"/>
<path d="M12 6.26086C12 4.14938 12 2.76586 12 0H11.998C5.3715 0.001125 0 5.37323 0 12H6.26086V8.47448L9.78642 12H11.9679C11.9786 11.9893 11.9894 11.9786 12 11.9679C12 11.1594 12 10.4381 12 9.78647L8.47444 6.26086H12Z" fill="#F0F0F0"/>
<path d="M6.07027 1.56519C4.19344 2.63389 2.63316 4.19417 1.56445 6.071V12H4.69491V4.69573V4.69564H11.9993C11.9993 3.70831 11.9993 2.76772 11.9993 1.56519H6.07027Z" fill="#D80027"/>
<path d="M11.9989 10.5244L7.73544 6.26099C7.73544 6.26099 6.25977 6.26108 6.25977 6.26099V6.26108L11.9988 12.0001H11.9989C11.9989 12.0001 11.9989 10.9826 11.9989 10.5244Z" fill="#D80027"/>
<path d="M20.7808 8.9043L21.0398 9.70145H21.878L21.1999 10.1941L21.4589 10.9912L20.7808 10.4986L20.1027 10.9912L20.3617 10.1941L19.6836 9.70145H20.5218L20.7808 8.9043Z" fill="#D80027"/>
<path d="M17.7845 14.6433L18.173 15.8391H19.4302L18.413 16.578L18.8016 17.7738L17.7845 17.0348L16.7673 17.7738L17.1559 16.578L16.1387 15.8391H17.3959L17.7845 14.6433Z" fill="#D80027"/>
<path d="M17.8968 5.2522L18.2206 6.24871H19.2683L18.4206 6.86442L18.7445 7.86088L17.8968 7.24499L17.0492 7.86088L17.373 6.86442L16.5254 6.24871H17.573L17.8968 5.2522Z" fill="#D80027"/>
<path d="M15.0149 8.86963L15.4034 10.0654H16.6607L15.6435 10.8043L16.0321 12.0001L15.0149 11.2611L13.9977 12.0001L14.3863 10.8043L13.3691 10.0654H14.6264L15.0149 8.86963Z" fill="#D80027"/>
</g>
<defs>
<clipPath id="clip0_4810_260708">
<rect width="24" height="24" fill="white"/>
</clipPath>
</defs>
</svg>
