<svg width="24" height="24" viewBox="0 0 24 24" fill="none" xmlns="http://www.w3.org/2000/svg">
<g clip-path="url(#clip0_4810_260786)">
<path d="M12 24C18.6274 24 24 18.6274 24 12C24 5.37258 18.6274 0 12 0C5.37258 0 0 5.37258 0 12C0 18.6274 5.37258 24 12 24Z" fill="#F0F0F0"/>
<path d="M11.9997 0C6.84012 0 2.44161 3.2565 0.746094 7.82611H23.2534C21.5578 3.2565 17.1593 0 11.9997 0Z" fill="#D80027"/>
<path d="M11.9997 23.9999C17.1593 23.9999 21.5578 20.7434 23.2533 16.1738H0.746094C2.44161 20.7434 6.84012 23.9999 11.9997 23.9999Z" fill="black"/>
<path d="M7.17067 9.13037L7.81816 11.1231H9.91361L8.21838 12.3549L8.86591 14.3477L7.17067 13.1161L5.47544 14.3477L6.12297 12.3549L4.42773 11.1231H6.52319L7.17067 9.13037Z" fill="#6DA544"/>
<path d="M16.8308 9.13037L17.4783 11.1231H19.5738L17.8785 12.3549L18.5261 14.3477L16.8308 13.1161L15.1356 14.3477L15.7831 12.3549L14.0879 11.1231H16.1833L16.8308 9.13037Z" fill="#6DA544"/>
</g>
<defs>
<clipPath id="clip0_4810_260786">
<rect width="24" height="24" fill="white"/>
</clipPath>
</defs>
</svg>
