<svg width="24" height="24" viewBox="0 0 24 24" fill="none" xmlns="http://www.w3.org/2000/svg">
<g clip-path="url(#clip0_4810_260873)">
<path d="M12 24C18.6274 24 24 18.6274 24 12C24 5.37258 18.6274 0 12 0C5.37258 0 0 5.37258 0 12C0 18.6274 5.37258 24 12 24Z" fill="#F0F0F0"/>
<path d="M12.0007 23.9999C16.7582 23.9999 20.869 21.2312 22.81 17.2173H1.19141C3.13241 21.2312 7.24316 23.9999 12.0007 23.9999Z" fill="#338AF3"/>
<path d="M12.0007 0C7.24316 0 3.13241 2.76867 1.19141 6.78262H22.8099C20.869 2.76867 16.7582 0 12.0007 0Z" fill="#338AF3"/>
<path d="M7.38602 7.82617L7.77452 9.02191H9.03175L8.01466 9.76084L8.4032 10.9566L7.38602 10.2176L6.36883 10.9566L6.75738 9.76084L5.74023 9.02191H6.99747L7.38602 7.82617Z" fill="#338AF3"/>
<path d="M7.38602 13.0435L7.77452 14.2392H9.03175L8.01466 14.9782L8.4032 16.1739L7.38602 15.4349L6.36883 16.1739L6.75738 14.9782L5.74023 14.2392H6.99747L7.38602 13.0435Z" fill="#338AF3"/>
<path d="M16.6165 7.82617L17.005 9.02191H18.2623L17.2451 9.76084L17.6337 10.9566L16.6165 10.2176L15.5993 10.9566L15.9878 9.76084L14.9707 9.02191H16.228L16.6165 7.82617Z" fill="#338AF3"/>
<path d="M16.6165 13.0435L17.005 14.2392H18.2623L17.2451 14.9782L17.6337 16.1739L16.6165 15.4349L15.5993 16.1739L15.9878 14.9782L14.9707 14.2392H16.228L16.6165 13.0435Z" fill="#338AF3"/>
<path d="M12.0013 10.4348L12.3898 11.6306H13.647L12.6299 12.3695L13.0184 13.5652L12.0013 12.8262L10.9841 13.5652L11.3726 12.3695L10.3555 11.6306H11.6127L12.0013 10.4348Z" fill="#338AF3"/>
</g>
<defs>
<clipPath id="clip0_4810_260873">
<rect width="24" height="24" fill="white"/>
</clipPath>
</defs>
</svg>
