<svg width="24" height="24" viewBox="0 0 24 24" fill="none" xmlns="http://www.w3.org/2000/svg">
<g clip-path="url(#clip0_4810_260913)">
<path d="M12 24C18.6274 24 24 18.6274 24 12C24 5.37258 18.6274 0 12 0C5.37258 0 0 5.37258 0 12C0 18.6274 5.37258 24 12 24Z" fill="#F0F0F0"/>
<path d="M3.51548 20.4853C4.01888 20.9887 4.55597 21.4376 5.11936 21.8328L21.8335 5.11863C21.4383 4.55524 20.9894 4.01814 20.486 3.51475C19.9826 3.01136 19.4455 2.56249 18.8821 2.16724L2.16797 18.8815C2.56317 19.4448 3.01209 19.9819 3.51548 20.4853Z" fill="#A2001D"/>
<path d="M3.51428 3.51465C-0.271532 7.30047 -0.998282 12.986 1.33248 17.5021L17.5016 1.33295C12.9856 -0.997814 7.3 -0.27097 3.51428 3.51465Z" fill="#0052B4"/>
<path d="M20.4854 20.4852C24.2711 16.6995 24.9979 11.0139 22.6672 6.4978L6.49805 22.667C11.014 24.9977 16.6996 24.271 20.4854 20.4852Z" fill="#496E2D"/>
<path d="M9.91356 6.78255L8.56891 7.41504L9.28497 8.71732L7.82486 8.43804L7.6398 9.91296L6.6228 8.82813L5.60575 9.91296L5.42078 8.43804L3.96063 8.71727L4.67664 7.41499L3.33203 6.78255L4.67669 6.15002L3.96063 4.84783L5.42073 5.12712L5.6058 3.6521L6.6228 4.73697L7.63984 3.6521L7.82486 5.12712L9.28497 4.84783L8.569 6.15007L9.91356 6.78255Z" fill="#FFDA44"/>
</g>
<defs>
<clipPath id="clip0_4810_260913">
<rect width="24" height="24" fill="white"/>
</clipPath>
</defs>
</svg>
