<svg width="24" height="24" viewBox="0 0 24 24" fill="none" xmlns="http://www.w3.org/2000/svg">
<g clip-path="url(#clip0_4810_261028)">
<path d="M12 24C18.6274 24 24 18.6274 24 12C24 5.37258 18.6274 0 12 0C5.37258 0 0 5.37258 0 12C0 18.6274 5.37258 24 12 24Z" fill="#FFDA44"/>
<path d="M3.51544 20.4853C4.01883 20.9887 4.55592 21.4376 5.11931 21.8329L21.8335 5.11863C21.4384 4.55524 20.9894 4.01814 20.486 3.51475C19.9826 3.01136 19.4455 2.56249 18.8821 2.16724L2.16797 18.8815C2.56313 19.4448 3.01209 19.9819 3.51544 20.4853Z" fill="black"/>
<path d="M3.51422 3.51465C-0.271495 7.30047 -0.998292 12.986 1.33247 17.5021L17.5016 1.33295C12.9856 -0.997814 7.29999 -0.27097 3.51422 3.51465Z" fill="#6DA544"/>
<path d="M20.4854 20.4852C24.2711 16.6995 24.9979 11.0139 22.6672 6.4978L6.49805 22.667C11.014 24.9977 16.6996 24.2709 20.4854 20.4852Z" fill="#338AF3"/>
</g>
<defs>
<clipPath id="clip0_4810_261028">
<rect width="24" height="24" fill="white"/>
</clipPath>
</defs>
</svg>
