<svg width="24" height="24" viewBox="0 0 24 24" fill="none" xmlns="http://www.w3.org/2000/svg">
<g clip-path="url(#clip0_4810_261033)">
<path d="M12 24C18.6274 24 24 18.6274 24 12C24 5.37258 18.6274 0 12 0C5.37258 0 0 5.37258 0 12C0 18.6274 5.37258 24 12 24Z" fill="#F0F0F0"/>
<path d="M0 11.9999C0 16.5484 2.53078 20.5056 6.26086 22.5408V1.45898C2.53078 3.4942 0 7.45139 0 11.9999Z" fill="#D80027"/>
<path d="M23.2537 16.1737C23.736 14.8737 24 13.4677 24 11.9998C24 10.532 23.736 9.12587 23.2537 7.82593H0.746437C0.264047 9.12587 0 10.532 0 11.9998C0 13.4677 0.264047 14.8737 0.746437 16.1737L12 17.2172L23.2537 16.1737Z" fill="#D80027"/>
<path d="M11.9997 23.9999C17.1593 23.9999 21.5577 20.7434 23.2533 16.1738H0.746094C2.44156 20.7434 6.84012 23.9999 11.9997 23.9999Z" fill="#6DA544"/>
<path d="M0 11.9999C0 17.5443 3.76036 22.2095 8.86955 23.5865V0.41333C3.76036 1.79033 0 6.45561 0 11.9999Z" fill="#D80027"/>
<path d="M7.34159 5.28059L6.23483 4.17383L5.49702 4.91173L4.7592 4.17383L3.65244 5.28059L4.3903 6.01845L3.65234 6.75636L4.75911 7.86313L5.49697 7.12522L6.23483 7.86313L7.34159 6.75636L6.60373 6.01845L7.34159 5.28059Z" fill="#F0F0F0"/>
</g>
<defs>
<clipPath id="clip0_4810_261033">
<rect width="24" height="24" fill="white"/>
</clipPath>
</defs>
</svg>
