<svg width="24" height="24" viewBox="0 0 24 24" fill="none" xmlns="http://www.w3.org/2000/svg">
<g clip-path="url(#clip0_4810_261041)">
<path d="M0 12.0001C0 13.468 0.264047 14.8741 0.746437 16.1741L12 17.2175L23.2536 16.1741C23.736 14.8741 24 13.468 24 12.0001C24 10.5524 23.7435 9.16453 23.2737 7.87954L12 6.78271L0.726281 7.87959C0.256453 9.16453 0 10.5524 0 12.0001Z" fill="#FFDA44"/>
<path d="M11.9997 23.9999C17.1593 23.9999 21.5578 20.7434 23.2533 16.1738H0.746094C2.44161 20.7434 6.84012 23.9999 11.9997 23.9999Z" fill="#D80027"/>
<path d="M11.9997 0C6.84012 0 2.44161 3.2565 0.746094 7.82611H23.2534C21.5578 3.2565 17.1593 0 11.9997 0Z" fill="#6DA544"/>
<path d="M12.0009 17.739C15.1705 17.739 17.74 15.1695 17.74 11.9999C17.74 8.83024 15.1705 6.26074 12.0009 6.26074C8.83122 6.26074 6.26172 8.83024 6.26172 11.9999C6.26172 15.1695 8.83122 17.739 12.0009 17.739Z" fill="#0052B4"/>
<path d="M11.999 7.55591L13.035 10.7444H16.393L13.6753 12.7151L14.7195 15.9131L11.999 13.9331L9.28269 15.9095L10.3227 12.7151L7.60742 10.7444H10.963L11.999 7.55591Z" fill="#FFDA44"/>
<path d="M16.1308 12.7937L12.8441 11.7257L14.8753 8.93006L14.0312 8.31665L11.9999 11.1125L9.96872 8.3167L9.1245 8.93001L11.1557 11.7259L7.86914 12.7936L8.19155 13.7861L11.4782 12.7183V16.174H12.5217V12.7182L15.8082 13.7861L16.1308 12.7937Z" fill="#FFDA44"/>
</g>
<defs>
<clipPath id="clip0_4810_261041">
<rect width="24" height="24" fill="white"/>
</clipPath>
</defs>
</svg>
