<svg width="32" height="32" viewBox="0 0 32 32" fill="none" xmlns="http://www.w3.org/2000/svg">
<rect x="0.5" y="0.5" width="31" height="31" rx="15.5" stroke="#F0F3F6"/>
<circle cx="16" cy="16" r="16" fill="#0920E8"/>
<path d="M10.6196 22.4656L8.91877 22.5367C8.7693 22.5367 8.67997 22.5094 8.65081 22.4547C8.62164 22.4036 8.60706 22.287 8.60706 22.1047C8.60706 21.9224 8.62711 21.8148 8.66721 21.782C8.71096 21.7456 8.82398 21.7273 9.00627 21.7273H9.67893C9.81383 21.7273 10.8037 19.476 12.6485 14.9734C12.8052 14.5979 12.8909 14.3937 12.9055 14.3609L15.2789 8.84844C15.3373 8.69531 15.4649 8.49844 15.6617 8.25781C15.8623 8.01354 16.019 7.76745 16.1321 7.51953C16.3034 7.14401 16.4529 6.9526 16.5805 6.94531C16.7336 6.94531 16.8229 7.01276 16.8485 7.14766L19.5336 14.6945C21.2253 19.3831 22.1222 21.7273 22.2242 21.7273H23.0063C23.112 21.7273 23.1795 21.7529 23.2086 21.8039C23.2378 21.8513 23.2524 21.9552 23.2524 22.1156C23.2524 22.276 23.2378 22.3854 23.2086 22.4437C23.1795 22.5057 23.112 22.5367 23.0063 22.5367L20.9227 22.4656L18.3469 22.5367C18.2156 22.5367 18.1336 22.5076 18.1008 22.4492C18.0716 22.3945 18.0571 22.2779 18.0571 22.0992C18.0571 21.9206 18.0753 21.8148 18.1117 21.782C18.1518 21.7456 18.2612 21.7273 18.4399 21.7273H19.6703C19.6849 21.7273 19.6922 21.6745 19.6922 21.5687C19.6922 21.463 19.5045 20.8305 19.1289 19.6711C18.7571 18.5117 18.4818 17.6786 18.3031 17.1719C18.1281 16.6651 18.0261 16.3953 17.9969 16.3625C17.9677 16.326 17.8985 16.3078 17.7891 16.3078H13.2664C13.1097 16.3078 13.0058 16.3279 12.9547 16.368C12.9073 16.4081 12.8545 16.5065 12.7961 16.6633C11.6003 19.6857 10.9951 21.3664 10.9805 21.7055L11.0024 21.7273H12.725C12.849 21.7273 12.9237 21.751 12.9492 21.7984C12.9784 21.8422 12.993 21.9224 12.993 22.0391C12.993 22.1557 12.9912 22.2323 12.9875 22.2687C12.9875 22.3016 12.9839 22.3417 12.9766 22.3891C12.9693 22.4328 12.9547 22.462 12.9328 22.4766C12.8891 22.5167 12.8198 22.5367 12.725 22.5367L10.6196 22.4656ZM17.543 15.6352C17.6779 15.6352 17.7453 15.6133 17.7453 15.5695C17.7453 15.5221 17.7216 15.4401 17.6742 15.3234L15.8203 9.87656C15.7693 9.69792 15.7274 9.60859 15.6946 9.60859C15.6617 9.60859 15.6125 9.69792 15.5469 9.87656L13.3539 15.2523C13.2774 15.4383 13.2391 15.5495 13.2391 15.5859C13.2391 15.6187 13.3375 15.6352 13.5344 15.6352H17.543Z" fill="white"/>
</svg>
