<svg width="32" height="32" viewBox="0 0 32 32" fill="none" xmlns="http://www.w3.org/2000/svg">
<rect x="0.5" y="0.5" width="31" height="31" rx="15.5" stroke="#F0F3F6"/>
<circle cx="16" cy="16" r="16" fill="#7DC02A"/>
<g clip-path="url(#clip0_6065_2829)">
<path d="M16.0984 12.5317H15.8813V20.0682H16.0984V18.6164H18.8454V17.7375H16.7318V16.727H18.5394V15.8409H16.7318V14.8624H18.8454V13.9764H16.0984V12.5317ZM7.54785 16.823L6.76859 15.5598L5.76871 13.9942L5.75804 13.98H4.92896V18.6164H5.85055V15.7662L6.5373 16.8764L7.64037 18.6164H8.47656V13.98H7.55141V16.823H7.54785ZM8.99251 18.6164H12.0313V17.7375H9.91767V16.727H11.7253V15.8409H9.91767V14.8624H12.0313V13.9764H8.99251V18.6164ZM12.4049 14.8731H13.4688V18.62H14.394V14.8731H15.4508V13.98H12.4049V14.8731ZM21.9304 16.8301L21.1512 15.567L20.1513 14.0013L20.1406 13.9835H19.3115V18.62H20.2296V15.7698L20.9163 16.88L22.0194 18.62H22.8556V13.9871H21.9304V16.8301ZM23.2328 13.9871V14.8802H24.2967V18.6271H25.2218V14.8802H26.2787V13.9871H23.2328Z" fill="white"/>
</g>
<defs>
<clipPath id="clip0_6065_2829">
<rect width="23.2" height="23.2" fill="white" transform="translate(4.00024 4.75)"/>
</clipPath>
</defs>
</svg>
