<svg width="32" height="32" viewBox="0 0 32 32" fill="none" xmlns="http://www.w3.org/2000/svg">
<rect x="0.5" y="0.5" width="31" height="31" rx="15.5" stroke="#F0F3F6"/>
<circle cx="16" cy="16" r="16" fill="white"/>
<path d="M23.4015 9.57544C22.8999 8.79942 21.8969 8.25567 20.3237 7.91781C19.1148 7.65386 17.5997 7.5166 15.9315 7.5166C14.2686 7.5166 12.7483 7.65386 11.5446 7.91781C9.97674 8.26095 8.96843 8.79942 8.4722 9.57544C7.64866 10.8477 7.84399 12.7007 8.06043 14.8493C8.10266 15.2452 8.1449 15.6517 8.17657 16.0476C8.2452 16.8395 8.40357 18.4021 8.69392 19.9066C9.11625 22.0974 9.57025 22.8682 9.87644 23.2588C11.1804 24.9059 14.8441 25.0326 15.9368 25.0326C17.0296 25.0326 20.6933 24.9059 21.9972 23.2588C22.3034 22.8682 22.7627 22.1027 23.1797 19.9066C23.4701 18.3968 23.6285 16.8395 23.6971 16.0476C23.7288 15.6517 23.771 15.2452 23.8132 14.8493C24.0297 12.7007 24.2197 10.8424 23.4015 9.57544ZM23.2061 14.7859C23.1639 15.1818 23.1217 15.5936 23.09 15.9948C23.0214 16.7761 22.8683 18.3123 22.5832 19.7958C22.1873 21.8599 21.7861 22.5462 21.5168 22.884C20.3554 24.3569 16.6601 24.4308 15.9315 24.4308C15.203 24.4308 11.5077 24.3569 10.3463 22.884C10.077 22.5462 9.67583 21.8546 9.2799 19.7958C8.99483 18.3123 8.84174 16.7814 8.77311 15.9948C8.73615 15.5936 8.6992 15.1818 8.65697 14.7859C8.4458 12.7482 8.26632 10.9902 8.97371 9.89747C9.38548 9.26398 10.2671 8.8047 11.6713 8.50379C12.838 8.25039 14.3109 8.11842 15.9315 8.11842C17.5522 8.11842 19.0251 8.25039 20.1918 8.50379C21.596 8.80998 22.4776 9.26398 22.8894 9.89747C23.5968 10.9955 23.4173 12.7535 23.2061 14.7859ZM15.9368 8.98419C19.0673 8.98419 21.6066 9.50154 22.1714 10.3726C22.8313 11.3967 22.4301 13.6826 22.2348 15.9262C22.0394 18.1698 21.5696 21.4323 20.8464 22.3561C20.2129 23.1585 17.9482 23.5703 15.9368 23.5703C13.9308 23.5703 11.6608 23.1533 11.0273 22.3561C10.2988 21.4376 9.82892 18.1698 9.63888 15.9262C9.44883 13.6826 9.04234 11.3967 9.70223 10.3726C10.2671 9.50154 12.8063 8.98419 15.9368 8.98419ZM11.3176 12.0988C11.2332 12.1464 11.1962 12.2995 11.1962 12.2995L11.1065 12.6954C11.1065 12.6954 11.0748 12.7957 11.1329 12.9171C11.1962 13.0385 11.5921 13.1124 11.5921 13.1124C11.5921 13.1124 12.2837 13.218 12.5635 13.5612C12.8433 13.9043 12.7324 14.3741 12.7324 14.3741L11.9775 18.0748C11.9775 18.0748 11.9036 18.4338 11.7136 18.608C11.5288 18.7769 11.2226 18.7874 11.2226 18.7874C11.2226 18.7874 11.0431 18.7927 10.927 18.8402C10.8267 18.8825 10.795 19.0461 10.795 19.0461L10.7475 19.289C10.7475 19.289 10.7211 19.3893 10.7792 19.479C10.8372 19.5688 11.0009 19.5899 11.0009 19.5899L14.8177 19.6163C14.8177 19.6163 14.9338 19.611 14.9971 19.5476C15.0605 19.4843 15.0763 19.3523 15.0763 19.3523L15.1397 19.0039C15.1397 19.0039 15.1661 18.8983 15.1133 18.835C15.0499 18.7611 14.9971 18.7663 14.8229 18.7241C14.6435 18.6819 14.5379 18.6291 14.3637 18.4865C14.1472 18.3071 14.2211 17.9639 14.2211 17.9639L14.5537 16.111C14.5537 16.111 14.5959 15.9737 14.6857 15.979C14.8177 15.9843 14.8599 16.1057 14.8599 16.1057L16.6812 19.3629C16.6812 19.3629 16.7445 19.4737 16.8395 19.5476C16.9346 19.6215 17.151 19.6268 17.151 19.6268L20.2234 19.6004C20.2234 19.6004 20.3765 19.6057 20.461 19.5371C20.5613 19.4526 20.5877 19.3206 20.5877 19.3206L20.6458 19.0514C20.6458 19.0514 20.688 18.9247 20.6299 18.8033C20.5613 18.6608 20.2973 18.6291 19.9964 18.5393C19.7747 18.4707 19.4844 18.3123 19.3841 18.1645C19.3154 18.0589 19.3841 17.8425 19.3841 17.8425L20.4082 13.6298C20.4082 13.6298 20.4399 13.4556 20.6141 13.2761C20.7725 13.1124 21.2054 13.0227 21.2054 13.0227C21.2054 13.0227 21.3162 13.0016 21.3848 12.9382C21.4324 12.8907 21.4535 12.7904 21.4535 12.7904L21.5696 12.3364C21.5696 12.3364 21.6013 12.2203 21.5327 12.1411C21.4746 12.0725 21.3109 12.0725 21.3109 12.0725H17.8003C17.8003 12.0725 17.6842 12.0672 17.5733 12.1569C17.473 12.2414 17.4572 12.3258 17.4572 12.3258L17.3727 12.7059C17.3727 12.7059 17.3463 12.801 17.378 12.8749C17.4202 12.9699 17.5153 12.9752 17.5153 12.9752L17.6631 13.0016C17.6631 13.0016 17.9376 13.0544 18.0801 13.1969C18.2227 13.3394 18.154 13.709 18.154 13.709L17.642 16.1637L15.7837 12.6215C15.7837 12.6215 15.7309 12.4578 15.5251 12.2572C15.3245 12.0566 15.013 12.0725 15.013 12.0725H11.5446C11.5499 12.0461 11.4021 12.0513 11.3176 12.0988Z" fill="#00285A"/>
</svg>
