<svg width="32" height="32" viewBox="0 0 32 32" fill="none" xmlns="http://www.w3.org/2000/svg">
<rect x="0.5" y="0.5" width="31" height="31" rx="15.5" stroke="#F0F3F6"/>
<circle cx="16" cy="16" r="16" fill="#FF7800"/>
<path d="M21.8044 5.6001H10.1917C9.82256 5.6001 9.46859 5.74574 9.2076 6.00499C8.94661 6.26423 8.79999 6.61583 8.79999 6.98246V25.0177C8.79999 25.1993 8.83598 25.379 8.90592 25.5467C8.97586 25.7145 9.07837 25.8668 9.2076 25.9952C9.33683 26.1236 9.49024 26.2254 9.65909 26.2949C9.82793 26.3643 10.0089 26.4001 10.1917 26.4001H21.8044C21.9875 26.4006 22.1689 26.3652 22.3382 26.296C22.5075 26.2268 22.6613 26.125 22.791 25.9966C22.9206 25.8682 23.0235 25.7156 23.0937 25.5476C23.1639 25.3797 23.2 25.1996 23.2 25.0177V6.98246C23.2 6.80059 23.1639 6.62052 23.0937 6.45255C23.0235 6.28458 22.9206 6.13201 22.791 6.0036C22.6613 5.87518 22.5075 5.77344 22.3382 5.7042C22.1689 5.63496 21.9875 5.59959 21.8044 5.6001ZM20.7559 16.6962C20.7562 17.4445 20.5142 18.173 20.0655 18.7741L18.2024 21.2684L20.3624 23.2533C20.4078 23.2955 20.4395 23.3503 20.4532 23.4106C20.4669 23.4709 20.462 23.5339 20.4393 23.5914C20.4166 23.649 20.377 23.6984 20.3256 23.7333C20.2743 23.7682 20.2136 23.787 20.1513 23.7872H17.4301C17.2744 23.7881 17.1241 23.7307 17.009 23.6266L16.6746 23.3189L16.4063 23.0721L16 22.6949L14.9811 21.7651C14.9254 21.7134 14.8906 21.6431 14.8835 21.5676C14.8765 21.4922 14.8975 21.4167 14.9427 21.3556L17.8286 17.4907C18.146 17.0657 18.3172 16.5504 18.3168 16.0212V12.7715C18.3168 11.7281 17.9134 11.2814 17.7615 11.1628C17.586 11.0276 17.2141 10.7043 16 10.7043C14.7859 10.7043 14.412 11.0276 14.2365 11.1628C14.0826 11.2824 13.6792 11.7281 13.6792 12.7715V16.2142C13.6792 16.497 13.7381 16.7767 13.8522 17.0359C13.9662 17.295 14.133 17.5279 14.342 17.72L15.3096 18.6095C15.3663 18.6613 15.4017 18.7321 15.409 18.8082C15.4163 18.8844 15.3949 18.9605 15.349 19.022L14.1911 20.5689C14.1652 20.6036 14.1323 20.6325 14.0945 20.6537C14.0566 20.6749 14.0147 20.688 13.9715 20.692C13.9282 20.6961 13.8846 20.6911 13.8434 20.6773C13.8022 20.6635 13.7644 20.6413 13.7325 20.612L12.3665 19.3561C12.0113 19.0295 11.7279 18.6335 11.534 18.193C11.3402 17.7524 11.2401 17.2769 11.2401 16.7961V11.7291C11.2401 10.2713 11.6859 9.61295 12.1988 9.16523C12.7797 8.65774 13.8183 8.21198 15.998 8.21198C18.1777 8.21198 19.2163 8.65774 19.7972 9.16523C20.3101 9.61295 20.7559 10.2713 20.7559 11.7291V16.6962Z" fill="white"/>
</svg>
